<?xml version="1.0" encoding="utf-8"?>
<!-- Generator: Adobe Illustrator 22.1.0, SVG Export Plug-In . SVG Version: 6.00 Build 0)  -->
<svg version="1.1" id="Layer_1" xmlns="http://www.w3.org/2000/svg" xmlns:xlink="http://www.w3.org/1999/xlink" x="0px" y="0px"
	 viewBox="0 0 303.2 303.2" style="enable-background:new 0 0 303.2 303.2;" xml:space="preserve">
<style type="text/css">
	.st0{fill:#B7B7B7;}
	.st1{fill:#545454;}
	.st2{fill:#E8E8E8;}
	.st3{fill:#007934;}
	.st4{fill:#A4A9AD;}
	.st5{fill:#D1D3D3;}
</style>
<rect class="st0" width="303.2" height="303.2"/>
<g>
	<polygon class="st1" points="210.8,32.5 59.1,32.5 59.1,278.4 251.7,278.4 251.7,73.5 	"/>
	<polygon class="st2" points="206.9,28.7 55.3,28.7 55.3,274.5 247.9,274.5 247.9,69.6 	"/>
	<polygon class="st3" points="213.3,49.1 55.3,49.1 55.3,28.7 206.9,28.7 	"/>
	<g>
		<path class="st4" d="M126.8,263c-1.9,0-3.7-0.2-5.5-0.6v-8.2c0.6,0.1,1.2,0.2,1.8,0.4s1.3,0.2,2.1,0.2c1.7,0,3-0.5,3.7-1.6
			c0.7-1,1.1-2.8,1.1-5.4v-36h10.6v35.1c0,5.3-1.2,9.3-3.5,12C134.9,261.6,131.4,263,126.8,263z"/>
		<path class="st4" d="M174.5,238.9c0,2.4-0.6,4.6-1.8,6.4c-1.2,1.9-3,3.3-5.3,4.4c-2.3,1-5,1.6-8.1,1.6c-2.6,0-4.8-0.2-6.5-0.5
			c-1.8-0.4-3.6-1-5.5-1.9v-9.4c2,1,4.1,1.8,6.3,2.4c2.2,0.6,4.2,0.9,6,0.9c1.6,0,2.7-0.3,3.4-0.8c0.7-0.5,1.1-1.2,1.1-2.1
			c0-0.5-0.1-1-0.4-1.4c-0.3-0.4-0.8-0.8-1.4-1.2c-0.6-0.4-2.4-1.2-5.2-2.5c-2.5-1.2-4.4-2.3-5.7-3.4c-1.3-1.1-2.2-2.3-2.8-3.7
			c-0.6-1.4-0.9-3.1-0.9-5c0-3.6,1.3-6.4,3.9-8.4c2.6-2,6.2-3,10.8-3c4,0,8.1,0.9,12.3,2.8l-3.2,8.1c-3.6-1.7-6.8-2.5-9.4-2.5
			c-1.4,0-2.4,0.2-3,0.7c-0.6,0.5-0.9,1.1-0.9,1.8c0,0.8,0.4,1.4,1.2,2c0.8,0.6,2.9,1.7,6.4,3.3c3.4,1.5,5.7,3.1,7,4.9
			C173.8,234.1,174.5,236.3,174.5,238.9z"/>
	</g>
	<g>
		<g>
			<path class="st3" d="M108.3,186.3c-3.5,0-6.5-0.4-9.1-1.1v-12.8c2.6,0.7,5.1,1,7.2,1c3.4,0,5.8-1.1,7.2-3.1
				c1.5-2.1,2.2-5.4,2.2-9.8V92.5h15.4v67.8c0,8.5-1.9,14.9-5.8,19.3C121.6,184.1,115.9,186.3,108.3,186.3z"/>
			<path class="st3" d="M192.4,144.8c0,6.5-2.4,11.7-7.1,15.5S174,166,165.6,166c-7.7,0-14.6-1.5-20.5-4.4v-14.3
				c4.9,2.2,9,3.7,12.4,4.6c3.4,0.9,6.5,1.3,9.3,1.3c3.4,0,6-0.6,7.8-1.9c1.8-1.3,2.7-3.2,2.7-5.8c0-1.4-0.4-2.7-1.2-3.8
				c-0.8-1.1-2-2.2-3.5-3.2c-1.5-1-4.7-2.7-9.4-4.9c-4.4-2.1-7.8-4.1-10-6c-2.2-1.9-4-4.1-5.3-6.7c-1.3-2.5-2-5.5-2-8.9
				c0-6.4,2.2-11.5,6.5-15.1c4.3-3.7,10.4-5.5,18-5.5c3.8,0,7.4,0.4,10.8,1.3c3.4,0.9,7,2.1,10.7,3.8l-5,12
				c-3.9-1.6-7.1-2.7-9.6-3.3c-2.5-0.6-5-0.9-7.5-0.9c-2.9,0-5.1,0.7-6.7,2c-1.6,1.4-2.3,3.1-2.3,5.3c0,1.4,0.3,2.5,0.9,3.5
				c0.6,1,1.6,2,3,2.9c1.4,0.9,4.6,2.6,9.7,5.1c6.8,3.2,11.4,6.5,13.9,9.7C191.1,136.1,192.4,140.1,192.4,144.8z"/>
		</g>
	</g>
	<polygon class="st5" points="206.9,69.6 247.9,69.6 206.9,28.7 	"/>
</g>
</svg>
