<?xml version="1.0" encoding="utf-8"?>
<!-- Generator: Adobe Illustrator 19.0.0, SVG Export Plug-In . SVG Version: 6.00 Build 0)  -->
<svg version="1.1" id="Capa_1" xmlns="http://www.w3.org/2000/svg" xmlns:xlink="http://www.w3.org/1999/xlink" x="0px" y="0px"
	 viewBox="-703 285 512 512" style="enable-background:new -703 285 512 512;" xml:space="preserve">
<style type="text/css">
	.st0{fill:#FFFFFF;}
</style>
<g id="Volume_none">
	<path class="st0" d="M-508.6,371.4L-623,461h-48c-23.7,0-32,8.6-32,32l0,47.2l0,48.8c0,23.4,8.9,32,32,32h48l114.3,89.5
		c13.7,8.8,29.6,11.6,29.6-13.2V384.6C-479,359.7-494.9,362.5-508.6,371.4z"/>
</g>
<g>
	<g>
		<path class="st0" d="M-280.2,742c-4,0-8-1.2-11.6-3.6c-9.4-6.4-11.8-19.2-5.4-28.6c34.1-49.9,52.1-108.2,52.1-168.9
			c0-60.6-18-119-52.1-168.9c-6.4-9.4-4-22.2,5.4-28.6c9.4-6.4,22.2-4,28.6,5.4c38.8,56.7,59.3,123.1,59.3,192
			c0,68.9-20.5,135.3-59.3,192C-267.2,738.9-273.7,742-280.2,742z"/>
	</g>
	<g>
		<path class="st0" d="M-280.2,742c-4,0-8-1.2-11.6-3.6c-9.4-6.4-11.8-19.2-5.4-28.6c34.1-49.9,52.1-108.2,52.1-168.9
			c0-60.6-18-119-52.1-168.9c-6.4-9.4-4-22.2,5.4-28.6c9.4-6.4,22.2-4,28.6,5.4c38.8,56.7,59.3,123.1,59.3,192
			c0,68.9-20.5,135.3-59.3,192C-267.2,738.9-273.7,742-280.2,742z"/>
	</g>
	<g>
		<path class="st0" d="M-354.4,699.1c-4.2,0-8.4-1.3-12-3.9c-9.2-6.7-11.2-19.5-4.6-28.7c26.6-36.7,40.6-80.1,40.6-125.5
			c0-45.4-14.1-88.9-40.6-125.5c-6.7-9.2-4.6-22,4.6-28.7c9.2-6.7,22-4.6,28.7,4.6c31.7,43.7,48.5,95.5,48.5,149.7
			c0,54.2-16.8,105.9-48.5,149.7C-341.8,696.2-348.1,699.1-354.4,699.1z"/>
	</g>
	<g>
		<path class="st0" d="M-354.4,699.1c-4.2,0-8.4-1.3-12-3.9c-9.2-6.7-11.2-19.5-4.6-28.7c26.6-36.7,40.6-80.1,40.6-125.5
			c0-45.4-14.1-88.9-40.6-125.5c-6.7-9.2-4.6-22,4.6-28.7c9.2-6.7,22-4.6,28.7,4.6c31.7,43.7,48.5,95.5,48.5,149.7
			c0,54.2-16.8,105.9-48.5,149.7C-341.8,696.2-348.1,699.1-354.4,699.1z"/>
	</g>
	<g>
		<path class="st0" d="M-424.9,658.5c-4.5,0-9.1-1.5-12.9-4.6c-8.8-7.1-10.2-20.1-3-28.9c19.5-24,29.7-53,29.7-84
			c0-30.9-10.3-60-29.7-84c-7.1-8.8-5.8-21.8,3-28.9c8.8-7.1,21.8-5.8,28.9,3c25.1,30.9,38.9,70,38.9,109.8
			c0,39.9-13.8,78.9-38.9,109.8C-413,655.9-418.9,658.5-424.9,658.5z"/>
	</g>
</g>
</svg>
