<svg id="Group_1_shadow_Levels_1_Curves_1_highlight_orange_rim_cyan_rim_Image" data-name="Group 1 + shadow + Levels 1 + Curves 1 + highlight + orange rim + cyan rim Image" xmlns="http://www.w3.org/2000/svg" viewBox="0 0 2796 2216"><defs><style>.cls-1{fill:#282828;}.cls-2{fill:#1e1e1e;}.cls-3{fill:#141414;}.cls-4{fill:#e3bfa6;}.cls-5{fill:#bf977b;}.cls-6{fill:#b7b7b7;}.cls-7{fill:#939393;}.cls-8{fill:#a8a8a8;}.cls-9{fill:#7a112b;}.cls-10{fill:#5e0b23;}.cls-11{fill:#ddd;}.cls-12{fill:#7c6251;}.cls-13{fill:#b97979;}.cls-14{fill:#bc772a;}.cls-15{fill:#965b20;}.cls-16{fill:#a0806a;}.cls-17{fill:#f4dac9;}</style></defs><title>Artboard 1</title><ellipse class="cls-1" cx="1452.16" cy="1669.07" rx="333.41" ry="243.04"/><path class="cls-1" d="M925.06,718.51S1183.65,578,1424,578s504.46,132.17,504.46,132.17S1714.67,1012.72,1770,1230c52.24,205.21,158.47,400,158.47,400H945.55s169.79-146,141.49-388S925.06,718.51,925.06,718.51Z"/><path class="cls-1" d="M1012.55,1378.3l-185.68-16.56c-7.29-.66-12.78-6.57-12.19-13.14L828,1048.37a379,379,0,0,1,3.88-39.78l32-211.8c4.69-52.59,56.27-91.36,114.63-86.15h0c58.35,5.21,102.26,52.5,97.56,105.09l-3.56,184.66c-.27,14,8.59,35.12,6.78,48.94l-52.45,318.2C1026.29,1374.11,1019.84,1379,1012.55,1378.3Z"/><path class="cls-1" d="M669.57,1577.16,603,1441.79c-3.36-5.69,8.25-35.85,11.13-37.56l172.53-86.55A228.73,228.73,0,0,1,812.3,1303l37.1-106.42c23-13.61,149,40.15,175.83,85.6h0c26.86,45.46,6.77,102.47,4.77,138.8L908.11,1543.36c-5.61,4.33-60.4,28.36-66.73,31.5l-123,26C715.53,1602.6,672.93,1582.84,669.57,1577.16Z"/><path class="cls-1" d="M1844,1347.36,2008.78,1329a12,12,0,0,0,10.44-13.24l-21.4-299.7q-1.42-19.95-4.72-39.68l-28.6-211.93c-1.31-42.46-18.48-54.37-106.07-86.38l-5.41,2.19c-51.79,5.78-89.38,53.44-83.53,105.91l9,184.39c.69,13.92,19.89,56.17,21.94,70l23.72,285.39C1824.92,1332.45,1837.5,1348.09,1844,1347.36Z"/><path class="cls-1" d="M2183,1568l-7.55-140.52c4-6.81,3-19.11.09-20.81L2090,1325.33c-5.48-4-38.42-37.33-44.67-40L2006.44,1144c-23-13.6-141.88,37.73-174.1,92.25h0c-32.23,54.52,1.11,147.88,24.13,161.49L2136.33,1604C2139.21,1605.7,2179,1574.81,2183,1568Z"/><path class="cls-2" d="M2175.45,1427.48c4-6.81,3-19.11.09-20.81L2090,1325.33c-5.48-4-38.42-37.33-44.67-40l-38.86-141.24-8.68-128a389,389,0,0,0-4.75-39.68s-20.22-169-29-225c-5.67-36-38.49-46.77-84.1-65.27,21.08,22.35,62.19,65.56,69.11,95.84,10.43,45.61,38.5,178.7,36.32,225.43-1.7,36.51,11.87,126.64,7.86,182.67-4.33,60.69-26.19,86-26.19,86s65.46,16,117,72c33.23,36.13,50.83,69.28,92.32,95.61Z"/><path class="cls-2" d="M1790,1230c-9.73-38.55-19.09-83-21.11-126-3.34-71,20.65-70.6,15.78-108.67-1.77-13.78-11.34-45.33-15.78-73.33-26.18,54.9-59.68,112.24-70.89,172-19.42,103.49.53,152.41,34,253.39,15.83,47.76,46.49,130.7,53.57,180.61,7.35,51.85-97.37,53.58-77.41,102H1958S1842,1436,1790,1230Z"/><path class="cls-2" d="M1253.73,1717.86c26.63,23.13,63.85,28.89,99,31.72a947.93,947.93,0,0,0,414.55-59.84c12.68-4.87,26.31-11,32.28-23.18s2.47-26.48-1.54-39.33a553.5,553.5,0,0,0-30.13-76.15c-7.72-16-17-32.35-32.4-41.11-14.49-8.22-32-8.33-48.45-10.87-37.83-5.82-72-25.08-108-38.14-86.86-31.55-176.27-21.51-261,10.8-58,22.13-83.58,53.26-96.3,114.75C1212.34,1631.81,1216.5,1685.5,1253.73,1717.86Z"/><path class="cls-2" d="M1193.65,1427.42c40.31-73.52,59.49-156.35,84.53-236.37s58.07-160.79,118.89-218.5c6.62,201.83-42.82,401.77-110.88,591.9-10.69,29.87-22.76,60.9-46.82,81.58-31.55,27.12-76.42,30.56-118,32.73-17.85.93-37.14,1.48-51.91-8.57-53.15-36.17-3.11-78.93,24-108.83C1131.06,1520.06,1166.73,1476.52,1193.65,1427.42Z"/><ellipse class="cls-2" cx="654.69" cy="1498.65" rx="24.93" ry="94.51" transform="translate(-485.27 326.02) rotate(-20.59)"/><path class="cls-3" d="M1887.23,1800.32c41.46,7.88,82.91,18.68,119.57,39.66s68.46,53.13,82.58,93.94c8.15,23.57,9.32,52.42-6.52,72-15.64,19.32-42.33,23.53-66.44,25.51-37.07,3-75.25,3.94-110-8.65-23.4-8.46-44.36-22.74-67.62-31.58-37.09-14.09-78.35-13.78-115.81-26.83-24.27-8.46-46.28-22.28-68.07-36-14.24-9-29-18.44-37.69-33.12-16.5-27.89-2-70.34,28.1-82.25,10.4-4.12,21.65-4.9,32.7-5.63,33.11-2.2,63.53-11.62,96.24-15C1811.91,1788.41,1850.46,1792.83,1887.23,1800.32Z"/><path class="cls-1" d="M1709.39,1940.82,1740.16,1774c1.21-6.55-3.47-13-10.39-14.28L1279.87,1611a71.05,71.05,0,0,0-6.86-1.89q-28.9-6.37-58.28-10.25L890.46,1546l-10.56-1.92c-50-8.85-125.61,69.52-157.56,105.84a69.13,69.13,0,0,0-17.25,48.79c3,65.57,53.67,124,124.2,137.08l281.24,69.8q30.3,7.53,61.18,12.3,3.16.48,6.38.68l516.51,31.83C1701.52,1951.67,1708.18,1947.37,1709.39,1940.82Z"/><path class="cls-2" d="M835.08,1837.19s130.88-24,142.25-23.86c41.09.44,274.59-46.83,314.4-57,90.88-23.27,177.44-73.93,271.12-68.82,16.43.89,33.72,4,46.16,14.73,11.91,10.32,17.54,26.24,19.66,41.86,5.82,42.84-11.6,86.33-38.44,120.24s-62.43,59.66-98.18,84c-24.58,16.71-50.93,33.61-80.34,40.09-25.58,5.63-31.7-1.78-46.69-20-34.56-42.06-126.92-3.47-172.52-31.86C1166,1920,835.08,1837.19,835.08,1837.19Z"/><path class="cls-3" d="M1007.5,1843.58c-42.18-1.25-85,.36-125.31,12.94s-78.3,37.12-100.89,73.92c-13,21.26-20.4,49.18-9.16,71.7,11.11,22.25,36.26,32.11,59.38,39.24,35.54,11,72.63,20.08,109.31,15.29,24.67-3.23,48.22-12.64,72.83-16.26,39.26-5.76,79.48,3.43,118.88-1.23,25.51-3,50-11.77,74.23-20.47,15.83-5.68,32.28-11.75,43.94-24.21,22.12-23.67,17.12-68.26-9.7-86.38-9.27-6.26-20.09-9.44-30.72-12.54-31.86-9.29-59.53-25-90.73-35.43C1083.62,1848.19,1045,1844.19,1007.5,1843.58Z"/><path class="cls-1" d="M1137.32,1873.66,1182,2022.73c1.76,5.86,8.72,9,15.48,7l470.22-78.5q30.38-7.9,60-18.32l319.65-102.52c18.58-4.14,36.72-7.7,53.76-12.77,64.78-19.27,94.63-94,61.83-153.13L2135,1614.16c-24.39-40.26-85.81-67.65-165.24-44l-281.7,67.54q-31.9,7.65-63.08,18l-478.59,203.57C1139.65,1861.37,1135.56,1867.8,1137.32,1873.66Z"/><path class="cls-4" d="M1296.6,509s-24.38,15.59-21.94,84.1S1383.59,727,1383.59,727s175.49-15.89,186-75.89-10.5-153-10.5-153Z"/><path class="cls-5" d="M1296.6,509s149,20.16,151.4,88.67S1383.59,727,1383.59,727s175.49-15.89,186-75.89-10.5-153-10.5-153Z"/><path class="cls-6" d="M1648.65,1412.91c-7.05-23.38-11.3-104.39-68.44-283.77S1549.8,723,1549.8,723s-78.29-54.27-98.68-47.54S1420.21,715,1420.21,715s.25,12.3.77,33.92c-4.32-27.71-6.9-43.79-6.9-43.79s-14-31.5-35-36-93,57.89-93,57.89,51,222.6,13.5,407.09-33,265.49-37.5,289.48-28.5,111-28.5,111,29-51,79.76-25.5,136.06,54.69,185.71,44.19l0,0c42.39.56,64-21.5,107.77-49.82,47.69-30.81,82,16.77,82,16.77S1655.71,1436.28,1648.65,1412.91Z"/><path class="cls-7" d="M1434.56,782.78a255.53,255.53,0,0,1,109.69,24.76c1.62-51.23,5.55-84.58,5.55-84.58s-78.29-54.27-98.68-47.54S1420.21,715,1420.21,715s.25,12.3.77,33.92c-4.32-27.71-6.9-43.79-6.9-43.79s-14-31.5-35-36-93,57.89-93,57.89,8.42,36.75,15.9,92.76C1341.47,796.17,1386.6,782.78,1434.56,782.78Z"/><path class="cls-8" d="M1630.67,1317.08c-50.55,55-119.76,89-196.11,89-62.4,0-120-22.67-166.61-61-3.6,42.56-3.7,67-5.85,78.51-4.5,24-28.5,111-28.5,111s29-51,79.76-25.5,136.06,54.69,185.71,44.19l0,0c42.39.56,64-21.5,107.77-49.82,47.69-30.81,82,16.77,82,16.77s-33.23-83.91-40.29-107.28C1644.82,1400.2,1641.81,1370.43,1630.67,1317.08Z"/><path class="cls-9" d="M1508.49,1429.82l-80.24-688.77c-1.24-10.64-16.73-10.55-17.84.11l-72,690.6a9,9,0,0,0,1.77,6.33l76.38,138.78a9,9,0,0,0,15.78-.1l75.16-140.54A8.67,8.67,0,0,0,1508.49,1429.82Z"/><path class="cls-10" d="M1508.49,1429.82l-80.24-688.77c-1.24-10.64-16.73-10.55-17.84.11L1405.74,786c29.29,97.35,48.54,262,48.54,448.63,0,131.46-9.55,252-25.42,345.76a8.87,8.87,0,0,0,3.45-3.57l75.16-140.54A8.67,8.67,0,0,0,1508.49,1429.82Z"/><path class="cls-9" d="M1424.77,784.43l75.42-88a9,9,0,0,0-6.81-14.81H1342.54a9,9,0,0,0-6.82,14.81l75.42,88A9,9,0,0,0,1424.77,784.43Z"/><path class="cls-10" d="M1493.38,681.58h-87.19c14.21,13.77,23.31,34.87,23.31,58.55a84.73,84.73,0,0,1-13.82,47.13,8.93,8.93,0,0,0,9.09-2.83l75.42-88A9,9,0,0,0,1493.38,681.58Z"/><path class="cls-11" d="M1220,588.5s3-7.67,19-21.33,29.67-20.67,34.67-16S1317,619.83,1402.33,681.5c0,0-68.66,7.33-101.33,67-11,19-12,24-14.33,21.67S1223.33,615.83,1220,588.5Z"/><path class="cls-6" d="M1610.58,589s-3-7.67-19-21.33-29.67-20.67-34.67-16-42.49,68.05-127.82,129.72c0,0,67.82,7.94,100.49,67.61,11,19,12,24,14.33,21.67S1607.24,616.33,1610.58,589Z"/><path class="cls-4" d="M1610.72,259.68a8.84,8.84,0,0,0-4.37-4c-3.52-1.23-7.19,1.12-10.19,3.34s-5.69,4.19-8.17,6.17c-.08-6.9-.87-57.88-6-93.71-5.5-38.5-40-76-40-76C1529,81,1509.5,60,1478,42s-78-26-112.68-12c-16.58,6.69-78.09,36.6-104,86C1233.05,170,1241,243.5,1241,243.5c.55,8.54.92,20.89,1.18,34.14a39.66,39.66,0,0,0-7.64-7.69c-3.82-3.11-9-5.82-13.49-3.74-3.82,1.77-5.42,6.32-6.11,10.47-3.55,21.37,6.77,42.25,12,63.26,5.06,20.19,5.48,41.31,10.27,61.56.68,2.89,1.5,5.86,3.38,8.16s5.11,3.76,7.89,2.72a5.82,5.82,0,0,0,1.14-.58c3.61,45.18,33.12,109,51,126.87,18.66,18.66,71.33,62.66,118,62.66S1503.33,572,1503.33,572s60.67-62.67,72-107.33c3-11.9,5.33-31.56,7.1-54,6.12-3,12.22-6.45,15.81-12.16,4.5-7.17,4.07-16.25,4.08-24.72.06-31.23,8.32-61.85,11.22-93C1614.21,273.63,1614.48,265.87,1610.72,259.68Z"/><ellipse class="cls-12" cx="1245.4" cy="393.68" rx="7.39" ry="13.55" transform="translate(-49.14 219.96) rotate(-9.9)"/><path class="cls-5" d="M1610.72,259.68a8.84,8.84,0,0,0-4.37-4c-3.52-1.23-7.19,1.12-10.19,3.34s-5.69,4.19-8.17,6.17c-.08-6.9-.87-57.88-6-93.71-5.5-38.5-40-76-40-76C1529,81,1509.5,60,1478,42c-22.76-13-53.35-20.78-81.65-18.82-1.49,1.62,17.73,2.32,17.73,2.32S1502,46,1505,89s-5,68-25.5,77-31.5,12-31.5,12,82.5-22.5,95,11,17.25,49.5,4,32.75c-6.82-8.63-30.75-6.25-51.25-2.75-17,2.9-71.75,20.5-75.75,63s-13,73.5-8.5,86,20.5,25.5,15.5,35.5-11.5,22-24,21-33.37-3-37.68-5.5-9.32-11.5-9.32-11.5-1.57,8.12,3.38,13c5.31,5.25,10.22,7.5,16.12,7.5,8.51,0,25.5.5,30,5s6,7.5,9.5,4.5,3,37.5,12,42.5-23,0-45,5.5,5.5,9.17,12,42c2.9,14.63-30,63,4,65.5,18.75,1.38,75.65-10.94,124.87-42.88,18.78-22.27,45.35-57.41,52.46-85.45,3-11.9,5.33-31.56,7.1-54,6.12-3,12.22-6.45,15.81-12.16,4.5-7.17,4.07-16.25,4.08-24.72.06-31.23,8.32-61.85,11.22-93C1614.21,273.63,1614.48,265.87,1610.72,259.68Z"/><path class="cls-13" d="M1413.53,509s53-2.5,65.47-23-117-15-117-15l-22,15S1382.07,509,1413.53,509Z"/><path class="cls-14" d="M1413.53,449.33S1395.33,434,1382.67,436s-60,17.33-65.34,26.67-9.33,32-9.33,32,68.67,0,90-8,10-11.34,21.33-11.34S1413.53,449.33,1413.53,449.33Z"/><path class="cls-14" d="M1413.88,449.33s18.2-15.33,30.86-13.33,60,17.33,65.34,26.67,9.33,32,9.33,32-68.67,0-90-8-10-11.34-21.33-11.34S1413.88,449.33,1413.88,449.33Z"/><path class="cls-14" d="M1248.67,359.33s6,68.67,23.33,94.67,58.67,85.33,81.33,93.33,29.74-21.33,60.2-21.33,72.39,48,64.8,57.33c-43.77,53.67-48.59,48.67-74.13,45.34s-128.87-88-140.2-126S1245.33,439.33,1248.67,359.33Z"/><ellipse class="cls-12" cx="1590.58" cy="391.46" rx="13.55" ry="6.13" transform="translate(661.51 1740.54) rotate(-69.27)"/><path class="cls-15" d="M1586.77,359.33s-6,68.67-23.33,94.67-58.67,85.33-81.33,93.33S1452.37,526,1421.91,526s27.22,9.39,24.59,52.5c3.67,33.69-52,58.5-15.26,50.17,25.11-5.7,128.87-88,140.2-126S1590.11,439.33,1586.77,359.33Z"/><path class="cls-15" d="M1457.5,233s-13.5,19.69.5,20.33,7.33,2.64,18.67-4.69S1514,215.33,1534,223.33,1557.33,238,1557.33,238s0-30-22.66-30.63S1468.17,221.7,1457.5,233Z"/><path class="cls-14" d="M1370.67,275.33s-12.67-17.7-45.34-9.85-39,9.85-52,20.52c-8,6.58-3,9.33-3,9.33s31.34-19.66,72.32-15.93C1362.46,281.21,1372.67,286.67,1370.67,275.33Z"/><path class="cls-5" d="M1281,311.5s24-3.5,43-9.5,42.5-6,49.5,9.5c0,0-5.5,23-42,20.5S1287,313,1281,311.5Z"/><path class="cls-16" d="M1450.27,313.2s-3.45-23.18,28.85-33.26c12.9-4,59.47,8.49,59.47,8.49s7.64,10-12.46,22.86S1476,330.34,1450.27,313.2Z"/><path class="cls-15" d="M1469.5,457.25c0,13.33-6.82,25.36-17.76,33.95,28.37,3.47,67.67,3.47,67.67,3.47s-4-22.67-9.33-32c-3.55-6.21-25.65-15.06-43.79-20.89A39.23,39.23,0,0,1,1469.5,457.25Z"/><path class="cls-2" d="M988.93,1220.31c-1,28.29,6.19,79.29-4.32,105.58-17.26,43.19-47.52,75.54-87,100.14-47.48,29.59-115.19,30.57-166.8,52.15-19.73,8.25-41,16.89-52.7,34.77-9.89,15-11.15,33.93-11.87,52l3.32,12.23c2.26,3.83-3.31,14.29,10.43,20,9.93.26,26,10.89,36,10.81,0,0,45.5-8.13,134.51-37.34,54.82-18,72.82-40.43,103.18-68.93,29.88-28,65.36-63,76.31-80.73,25.17-40.69,37.2-298,37.2-298-17.36-59.51-46.18-73-70.2-130.12Z"/><path class="cls-2" d="M2163,1664.5,2135,1614.16a98.26,98.26,0,0,0-26.43-28.28c-5.57-2.12-13.36-8.38-13.36-8.38s0,23.07-1.62,38.33c-4.72,44-27.92,85.21-59.09,116-41.46,41-96,66.05-151,85.46-217.12,76.65-457.2,77.26-668.64,168.43-13.24,5.71-27.15,12.65-37.21,22.57l4.32,14.42c1.76,5.86,8.72,9,15.48,7l470.22-78.5q30.38-7.9,60-18.32l319.65-102.52c18.58-4.14,36.72-7.7,53.76-12.77C2165.92,1798.36,2195.77,1723.59,2163,1664.5Z"/><path class="cls-12" d="M1435.07,417.27c6.36-1.13,13.07-1.06,19-3.76s10.65-9.53,8.18-15.5c4.14,2.54,4.93,8.64,2.74,13s-6.54,7.17-11,9.13c-5.39,2.38-11.55,1.82-17.28,3.2-3.07.75-13.74,10.67-14.28,4.4C1422,423.22,1432,417.82,1435.07,417.27Z"/><path class="cls-5" d="M2408.8,1565.56c7.24-9.75,13.86-23.14,7.28-33.34-7.11-11-23.47-9.32-36.24-6.29,7.36-11.93,14.86-24.19,17.52-38s-.52-29.55-11.45-38.31c-8.85-7.09-20.87-8.38-32.18-9.34q-38.3-3.27-76.66-5.78-64-4.2-128.06-6.34c-33.18,29.94-53.78,71.65-53.78,117.79,0,3.89.16,7.74.44,11.56,19,17.79,38.59,34.73,60,49.24,32,21.67,68.94,38,107.58,38.56C2320.71,1646.27,2374.55,1611.71,2408.8,1565.56Zm-108.24-24.71c-5.85,2.72-12.41,4.78-18.7,3.35-6.49-1.47-11.7-6.52-14.93-12.33-3.66-6.58-7.26-15.44-4-22.69,3.88-8.61,12.91-15,21.71-17.53,9.8-2.87,20.23-2.32,30.42-1.67s20.59,1.36,30.48-1.2A85,85,0,0,1,2300.56,1540.85Z"/><path class="cls-4" d="M519.68,1645.36c38.64-.61,75.6-16.89,107.59-38.56,21.41-14.51,41-31.45,60-49.24.28-3.82.44-7.67.44-11.56,0-46.14-20.6-87.85-53.78-117.79q-64.08,2.14-128.06,6.34-38.36,2.52-76.66,5.78c-11.3,1-23.32,2.25-32.18,9.34-10.93,8.76-14.12,24.55-11.45,38.31s10.16,26,17.52,38c-12.77-3-29.13-4.74-36.24,6.29-6.58,10.2,0,23.59,7.28,33.34C408.38,1611.71,462.22,1646.27,519.68,1645.36Zm-82.29-156.58c9.88,2.56,20.28,1.85,30.47,1.2s20.62-1.2,30.42,1.67c8.8,2.58,17.83,8.92,21.71,17.53,3.27,7.25-.33,16.11-4,22.69-3.23,5.81-8.44,10.86-14.93,12.33-6.29,1.43-12.85-.63-18.7-3.35A84.94,84.94,0,0,1,437.39,1488.78Z"/><path class="cls-5" d="M519.68,1645.36c38.64-.61,75.6-16.89,107.59-38.56,21.41-14.51,41-31.45,60-49.24.28-3.82.44-7.67.44-11.56,0-46.14-20.6-87.85-53.78-117.79q-64.08,2.14-128.06,6.34-38.36,2.52-76.66,5.78c-11.3,1-23.32,2.25-32.18,9.34-10.93,8.76-14.12,24.55-11.45,38.31s10.16,26,17.52,38c-12.77-3-29.13-4.74-36.24,6.29-6.58,10.2,0,23.59,7.28,33.34C408.38,1611.71,462.22,1646.27,519.68,1645.36Zm-82.29-156.58c9.88,2.56,20.28,1.85,30.47,1.2s20.62-1.2,30.42,1.67c8.8,2.58,17.83,8.92,21.71,17.53,3.27,7.25-.33,16.11-4,22.69-3.23,5.81-8.44,10.86-14.93,12.33-6.29,1.43-12.85-.63-18.7-3.35A84.94,84.94,0,0,1,437.39,1488.78Z"/><path class="cls-16" d="M2158.6,1428.55l-9.59-.34c-33.18,29.94-53.78,71.65-53.78,117.79,0,3.89.16,7.74.44,11.56,11.65,10.93,23.55,21.53,36,31.45a443.72,443.72,0,0,1,27-160.46Z"/><path class="cls-5" d="M2388,1524.34c7,1.29,15.09,2,23.8,3.34C2405.55,1523.24,2396.56,1523.07,2388,1524.34Z"/><path class="cls-16" d="M620.63,1574.82c-17.41,19.73-33,41.22-50.17,61.15,20.08-7,39.19-17.24,56.81-29.17,21.41-14.51,41-31.45,60-49.24.28-3.82.44-7.67.44-11.56a153.09,153.09,0,0,0-1.82-23.49C661,1534.34,639.07,1553.92,620.63,1574.82Z"/><path class="cls-17" d="M1323.26,96.35a23.73,23.73,0,0,1-2.25,7.8c-1.86,3.79-10.79,2-24.41,15.18-4.5,4.36-14.72,23.65-19.39,25.89-2.32,1.11-4.65,1.69-6,.63-1-.75-1.29-2.28-1.4-3.94-.47-7.64,3.76-18.38,9.64-27.86,5.64-9.11,17.48-25.61,25.68-30C1315.93,78.33,1324.57,84.54,1323.26,96.35Z"/></svg>