<?xml version="1.0" encoding="utf-8"?>
<!-- Generator: Adobe Illustrator 22.1.0, SVG Export Plug-In . SVG Version: 6.00 Build 0)  -->
<svg version="1.1"
	 id="Group_1__x2B__shadow__x2B__Levels_1__x2B__Curves_1__x2B__highlight__x2B__orange_rim__x2B__cyan_rim_xA0_Image_1_"
	 xmlns="http://www.w3.org/2000/svg" xmlns:xlink="http://www.w3.org/1999/xlink" x="0px" y="0px" viewBox="0 0 2796 2216"
	 style="enable-background:new 0 0 2796 2216;" xml:space="preserve">
<style type="text/css">
	.st0{display:none;}
	.st1{fill:#282828;}
	.st2{fill:#1E1E1E;}
	.st3{fill:#141414;}
	.st4{fill:#E3BFA6;}
	.st5{fill:#BF977B;}
	.st6{fill:#B7B7B7;}
	.st7{fill:#939393;}
	.st8{fill:#A8A8A8;}
	.st9{fill:#9D1C1F;}
	.st10{fill:#6B1015;}
	.st11{fill:#DDDDDD;}
	.st12{fill:#7C6251;}
	.st13{fill:#B97979;}
	.st14{fill:#BC772A;}
	.st15{fill:#965B20;}
	.st16{fill:#A0806A;}
	.st17{fill:#F4DAC9;}
</style>
<g id="Group_1__x2B__shadow__x2B__Levels_1__x2B__Curves_1__x2B__highlight__x2B__orange_rim__x2B__cyan_rim_xA0_Image" class="st0">
	
		<image style="display:inline;overflow:visible;enable-background:new    ;" width="2013" height="2073" xlink:href="2A6CD4F9.png"  transform="matrix(1 0 0 1 405 19)">
	</image>
</g>
<ellipse class="st1" cx="1452.2" cy="1669.1" rx="333.4" ry="243"/>
<g>
	<path class="st1" d="M925.1,718.5c0,0,258.6-140.5,498.9-140.5s504.5,132.2,504.5,132.2S1714.7,1012.7,1770,1230
		c52.2,205.2,158.5,400,158.5,400h-983c0,0,169.8-146,141.5-388S925.1,718.5,925.1,718.5z"/>
	<path class="st1" d="M1012.5,1378.3l-185.7-16.6c-7.3-0.7-12.8-6.6-12.2-13.1l13.3-300.2c0.6-13.3,1.9-26.6,3.9-39.8l32-211.8
		c4.7-52.6,56.3-91.4,114.6-86.2l0,0c58.4,5.2,102.3,52.5,97.6,105.1l-3.6,184.7c-0.3,13.9,8.6,35.1,6.8,48.9l-52.5,318.2
		C1026.3,1374.1,1019.8,1379,1012.5,1378.3z"/>
	<path class="st1" d="M669.6,1577.2L603,1441.8c-3.4-5.7,8.3-35.9,11.1-37.6l172.5-86.6c5.5-3.9,19.5-11.9,25.6-14.7l37.1-106.4
		c23-13.6,149,40.2,175.8,85.6l0,0c26.9,45.5,6.8,102.5,4.8,138.8L908,1543.3c-5.6,4.3-60.4,28.4-66.7,31.5l-123,26
		C715.5,1602.6,672.9,1582.8,669.6,1577.2z"/>
	<path class="st1" d="M1844,1347.4l164.8-18.4c6.5-0.7,11.2-6.7,10.4-13.2l-21.4-299.7c-0.9-13.3-2.5-26.5-4.7-39.7l-28.6-211.9
		c-1.3-42.5-18.5-54.4-106.1-86.4l-5.4,2.2c-51.8,5.8-89.4,53.4-83.5,105.9l9,184.4c0.7,13.9,12.5,172.3,14.5,186.1l31.1,169.3
		C1824.9,1332.4,1837.5,1348.1,1844,1347.4z"/>
	<path class="st1" d="M2183,1568l-7.5-140.5c4-6.8,3-19.1,0.1-20.8l-85.5-81.3c-5.5-4-38.4-37.3-44.7-40l-38.9-141.3
		c-23-13.6-141.9,37.7-174.1,92.2l0,0c-32.2,54.5,1.1,147.9,24.1,161.5l279.9,206.3C2139.2,1605.7,2179,1574.8,2183,1568z"/>
	<path class="st2" d="M2175.5,1427.5c4-6.8,3-19.1,0.1-20.8l-85.5-81.3c-5.5-4-38.4-37.3-44.7-40l-38.9-141.2l-8.7-128
		c-0.9-13.3-2.5-26.5-4.7-39.7c0,0-20.2-169-29-225c-5.7-36-38.5-46.8-84.1-65.3c21.1,22.4,62.2,65.6,69.1,95.8
		c10.4,45.6,38.5,178.7,36.3,225.4c-1.7,36.5,11.9,126.6,7.9,182.7c-4.3,60.7-26.2,86-26.2,86s65.5,16,117,72
		c33.2,36.1,50.8,69.3,92.3,95.6L2175.5,1427.5z"/>
	<path class="st2" d="M1790,1230c-9.7-38.6-19.1-83-21.1-126c-3.3-71,20.7-70.6,15.8-108.7c-1.8-13.8-11.3-45.3-15.8-73.3
		c-26.2,54.9-59.7,112.2-70.9,172c-19.4,103.5,0.5,152.4,34,253.4c15.8,47.8,46.5,130.7,53.6,180.6c7.4,51.8-97.4,53.6-77.4,102
		H1958C1958,1630,1842,1436,1790,1230z"/>
	<path class="st2" d="M1253.7,1717.9c26.6,23.1,63.8,28.9,99,31.7c140.3,11.3,283.1-9.3,414.5-59.8c12.7-4.9,26.3-11,32.3-23.2
		c5.9-12.1,2.5-26.5-1.5-39.3c-8.1-26.1-18.2-51.6-30.1-76.2c-7.7-16-17-32.4-32.4-41.1c-14.5-8.2-32-8.3-48.4-10.9
		c-37.8-5.8-72-25.1-108-38.1c-86.9-31.5-176.3-21.5-261,10.8c-58,22.1-83.6,53.3-96.3,114.8
		C1212.3,1631.8,1216.5,1685.5,1253.7,1717.9z"/>
	<path class="st2" d="M1193.6,1427.4c40.3-73.5,59.5-156.4,84.5-236.4s58.1-160.8,118.9-218.5c6.6,201.8-42.8,401.8-110.9,591.9
		c-10.7,29.9-22.8,60.9-46.8,81.6c-31.6,27.1-76.4,30.6-118,32.7c-17.8,0.9-37.1,1.5-51.9-8.6c-53.2-36.2-3.1-78.9,24-108.8
		C1131.1,1520.1,1166.7,1476.5,1193.6,1427.4z"/>
	
		<ellipse transform="matrix(0.9361 -0.3517 0.3517 0.9361 -485.239 325.9882)" class="st2" cx="654.7" cy="1498.6" rx="24.9" ry="94.5"/>
</g>
<g>
	<path class="st3" d="M1887.2,1800.3c41.5,7.9,82.9,18.7,119.6,39.7s68.5,53.1,82.6,93.9c8.2,23.6,9.3,52.4-6.5,72
		c-15.6,19.3-42.3,23.5-66.4,25.5c-37.1,3-75.2,3.9-110-8.6c-23.4-8.5-44.4-22.7-67.6-31.6c-37.1-14.1-78.3-13.8-115.8-26.8
		c-24.3-8.5-46.3-22.3-68.1-36c-14.2-9-29-18.4-37.7-33.1c-16.5-27.9-2-70.3,28.1-82.3c10.4-4.1,21.7-4.9,32.7-5.6
		c33.1-2.2,63.5-11.6,96.2-15C1811.9,1788.4,1850.5,1792.8,1887.2,1800.3z"/>
	<path class="st1" d="M1709.4,1940.8l30.8-166.8c1.2-6.6-3.5-13-10.4-14.3L1279.9,1611c-2.3-0.7-4.5-1.4-6.9-1.9
		c-19.3-4.2-38.7-7.7-58.3-10.3L890.5,1546l-10.6-1.9c-50-8.8-125.6,69.5-157.6,105.8c-11.8,13.4-18.1,30.9-17.2,48.8
		c3,65.6,53.7,124,124.2,137.1l281.2,69.8c20.2,5,40.6,9.1,61.2,12.3c2.1,0.3,4.2,0.5,6.4,0.7l516.5,31.8
		C1701.5,1951.7,1708.2,1947.4,1709.4,1940.8z"/>
	<path class="st2" d="M835.1,1837.2c0,0,130.9-24,142.3-23.9c41.1,0.4,274.6-46.8,314.4-57c90.9-23.3,177.4-73.9,271.1-68.8
		c16.4,0.9,33.7,4,46.2,14.7c11.9,10.3,17.5,26.2,19.7,41.9c5.8,42.8-11.6,86.3-38.4,120.2c-26.8,33.9-62.4,59.7-98.2,84
		c-24.6,16.7-50.9,33.6-80.3,40.1c-25.6,5.6-31.7-1.8-46.7-20c-34.6-42.1-126.9-3.5-172.5-31.9C1166,1920,835.1,1837.2,835.1,1837.2
		z"/>
	<path class="st3" d="M1007.5,1843.6c-42.2-1.2-85,0.4-125.3,12.9c-40.3,12.6-78.3,37.1-100.9,73.9c-13,21.3-20.4,49.2-9.2,71.7
		c11.1,22.2,36.3,32.1,59.4,39.2c35.5,11,72.6,20.1,109.3,15.3c24.7-3.2,48.2-12.6,72.8-16.3c39.3-5.8,79.5,3.4,118.9-1.2
		c25.5-3,50-11.8,74.2-20.5c15.8-5.7,32.3-11.8,43.9-24.2c22.1-23.7,17.1-68.3-9.7-86.4c-9.3-6.3-20.1-9.4-30.7-12.5
		c-31.9-9.3-59.5-25-90.7-35.4C1083.6,1848.2,1045,1844.2,1007.5,1843.6z"/>
	<path class="st1" d="M1137.3,1873.7l44.7,149.1c1.8,5.9,8.7,9,15.5,7l470.2-78.5c20.2-5.3,40.3-11.4,60-18.3l319.6-102.5
		c18.6-4.1,36.7-7.7,53.8-12.8c64.8-19.3,94.6-94,61.8-153.1l-27.9-50.3c-24.4-40.3-85.8-67.7-165.2-44l-281.7,67.5
		c-21.3,5.1-42.3,11.1-63.1,18.1l-478.6,203.6C1139.7,1861.4,1135.6,1867.8,1137.3,1873.7z"/>
</g>
<g>
	<path class="st4" d="M1296.6,509c0,0-24.4,15.6-21.9,84.1S1383.6,727,1383.6,727s175.5-15.9,186-75.9s-10.5-153-10.5-153
		L1296.6,509z"/>
	<path class="st5" d="M1296.6,509c0,0,149,20.2,151.4,88.7S1383.6,727,1383.6,727s175.5-15.9,186-75.9s-10.5-153-10.5-153
		L1296.6,509z"/>
</g>
<g>
	<path class="st6" d="M1648.7,1412.9c-7.1-23.4-11.3-104.4-68.4-283.8S1549.8,723,1549.8,723s-78.3-54.3-98.7-47.5
		c-20.4,6.7-30.9,39.6-30.9,39.6s0.2,12.3,0.8,33.9c-4.3-27.7-6.9-43.8-6.9-43.8s-14-31.5-35-36s-93,57.9-93,57.9
		s51,222.6,13.5,407.1s-33,265.5-37.5,289.5s-28.5,111-28.5,111s29-51,79.8-25.5c50.7,25.5,136.1,54.7,185.7,44.2c0,0,0,0,0.1,0
		c42.4,0.6,63.9-21.5,107.8-49.8c47.7-30.8,82,16.8,82,16.8S1655.7,1436.3,1648.7,1412.9z"/>
	<g>
		<path class="st7" d="M1434.6,782.8c38.9,0,76,8.8,109.7,24.8c1.6-51.2,5.6-84.6,5.6-84.6s-78.3-54.3-98.7-47.5
			c-20.4,6.7-30.9,39.6-30.9,39.6s0.2,12.3,0.8,33.9c-4.3-27.7-6.9-43.8-6.9-43.8s-14-31.5-35-36s-93,57.9-93,57.9
			s8.4,36.8,15.9,92.8C1341.5,796.2,1386.6,782.8,1434.6,782.8z"/>
		<path class="st8" d="M1630.7,1317.1c-50.6,55-119.8,89-196.1,89c-62.4,0-120-22.7-166.6-61c-3.6,42.6-3.7,67.1-5.9,78.5
			c-4.5,24-28.5,111-28.5,111s29-51,79.8-25.5c50.7,25.5,136.1,54.7,185.7,44.2c0,0,0,0,0.1,0c42.4,0.6,63.9-21.5,107.8-49.8
			c47.7-30.8,82,16.8,82,16.8s-33.2-83.9-40.3-107.3C1644.8,1400.2,1641.8,1370.4,1630.7,1317.1z"/>
	</g>
	<path class="st9" d="M1508.5,1429.8L1428.2,741c-1.2-10.6-16.7-10.6-17.8,0.1l-72,690.6c-0.2,2.4,0.4,4.6,1.8,6.3l76.4,138.8
		c3.4,6.2,12.4,6.2,15.8-0.1l75.2-140.5C1507.5,1436.2,1509.3,1433.5,1508.5,1429.8z"/>
	<path class="st10" d="M1508.5,1429.8L1428.2,741c-1.2-10.6-16.7-10.6-17.8,0.1l-4.7,44.8c29.3,97.4,48.5,262,48.5,448.6
		c0,131.5-9.5,252-25.4,345.8c1.4-0.8,2.6-2,3.4-3.6l75.2-140.5C1507.5,1436.2,1509.3,1433.5,1508.5,1429.8z"/>
	<path class="st9" d="M1424.8,784.4l75.4-88c5-5.8,0.9-14.8-6.8-14.8h-150.8c-7.7,0-11.8,9-6.8,14.8l75.4,88
		C1414.7,788.6,1421.2,788.6,1424.8,784.4z"/>
	<path class="st10" d="M1493.4,681.6h-87.2c14.2,13.8,23.3,34.9,23.3,58.5c0,17.9-5.2,34.2-13.8,47.1c3.2,0.8,6.8-0.1,9.1-2.8
		l75.4-88C1505.2,690.6,1501,681.6,1493.4,681.6z"/>
	<path class="st11" d="M1220,588.5c0,0,3-7.7,19-21.3c16-13.7,29.7-20.7,34.7-16s43.3,68.7,128.7,130.3c0,0-68.7,7.3-101.3,67
		c-11,19-12,24-14.3,21.7C1284.3,767.8,1223.3,615.8,1220,588.5z"/>
	<path class="st6" d="M1610.6,589c0,0-3-7.7-19-21.3c-16-13.7-29.7-20.7-34.7-16s-42.5,68.1-127.8,129.7c0,0,67.8,7.9,100.5,67.6
		c11,19,12,24,14.3,21.7C1546.2,768.3,1607.2,616.3,1610.6,589z"/>
</g>
<g>
	<path class="st4" d="M1610.7,259.7c-1-1.7-2.5-3.3-4.4-4c-3.5-1.2-7.2,1.1-10.2,3.3c-3,2.2-5.7,4.2-8.2,6.2
		c-0.1-6.9-0.9-57.9-6-93.7c-5.5-38.5-40-76-40-76C1529,81,1509.5,60,1478,42s-78-26-112.7-12c-16.6,6.7-78.1,36.6-104,86
		c-28.3,54-20.3,127.5-20.3,127.5c0.6,8.5,0.9,20.9,1.2,34.1c-2-2.8-4.6-5.2-7.6-7.7c-3.8-3.1-9-5.8-13.5-3.7
		c-3.8,1.8-5.4,6.3-6.1,10.5c-3.6,21.4,6.8,42.2,12,63.3c5.1,20.2,5.5,41.3,10.3,61.6c0.7,2.9,1.5,5.9,3.4,8.2
		c1.9,2.3,5.1,3.8,7.9,2.7c0.4-0.1,0.8-0.4,1.1-0.6c3.6,45.2,33.1,109,51,126.9c18.7,18.7,71.3,62.7,118,62.7s84.7-29.3,84.7-29.3
		s60.7-62.7,72-107.3c3-11.9,5.3-31.6,7.1-54c6.1-3,12.2-6.4,15.8-12.2c4.5-7.2,4.1-16.2,4.1-24.7c0.1-31.2,8.3-61.8,11.2-92.9
		C1614.2,273.6,1614.5,265.9,1610.7,259.7z"/>
	
		<ellipse transform="matrix(0.9851 -0.1719 0.1719 0.9851 -49.1407 219.9452)" class="st12" cx="1245.4" cy="393.7" rx="7.4" ry="13.5"/>
	<path class="st5" d="M1610.7,259.7c-1-1.7-2.5-3.3-4.4-4c-3.5-1.2-7.2,1.1-10.2,3.3c-3,2.2-5.7,4.2-8.2,6.2
		c-0.1-6.9-0.9-57.9-6-93.7c-5.5-38.5-40-76-40-76C1529,81,1509.5,60,1478,42c-22.8-13-53.3-20.8-81.7-18.8
		c-1.5,1.6,17.7,2.3,17.7,2.3s88,20.5,91,63.5s-5,68-25.5,77s-31.5,12-31.5,12s82.5-22.5,95,11s17.3,49.5,4,32.8
		c-6.8-8.6-30.8-6.3-51.3-2.8c-17,2.9-71.8,20.5-75.8,63s-13,73.5-8.5,86s20.5,25.5,15.5,35.5s-11.5,22-24,21s-33.4-3-37.7-5.5
		s-9.3-11.5-9.3-11.5s-1.6,8.1,3.4,13c5.3,5.3,10.2,7.5,16.1,7.5c8.5,0,25.5,0.5,30,5s6,7.5,9.5,4.5s3,37.5,12,42.5s-23,0-45,5.5
		s5.5,9.2,12,42c2.9,14.6-30,63,4,65.5c18.7,1.4,75.7-10.9,124.9-42.9c18.8-22.3,45.4-57.4,52.5-85.5c3-11.9,5.3-31.6,7.1-54
		c6.1-3,12.2-6.4,15.8-12.2c4.5-7.2,4.1-16.2,4.1-24.7c0.1-31.2,8.3-61.8,11.2-92.9C1614.2,273.6,1614.5,265.9,1610.7,259.7z"/>
	<path class="st13" d="M1413.5,509c0,0,53-2.5,65.5-23s-117-15-117-15l-22,15C1340,486,1382.1,509,1413.5,509z"/>
	<path class="st14" d="M1413.5,449.3c0,0-18.2-15.3-30.9-13.3c-12.7,2-60,17.3-65.3,26.7c-5.3,9.3-9.3,32-9.3,32s68.7,0,90-8
		s10-11.3,21.3-11.3C1430.7,475.3,1413.5,449.3,1413.5,449.3z"/>
	<path class="st14" d="M1413.9,449.3c0,0,18.2-15.3,30.9-13.3c12.7,2,60,17.3,65.3,26.7c5.3,9.3,9.3,32,9.3,32s-68.7,0-90-8
		s-10-11.3-21.3-11.3C1396.7,475.3,1413.9,449.3,1413.9,449.3z"/>
	<path class="st14" d="M1248.7,359.3c0,0,6,68.7,23.3,94.7s58.7,85.3,81.3,93.3c22.7,8,29.7-21.3,60.2-21.3s72.4,48,64.8,57.3
		c-43.8,53.7-48.6,48.7-74.1,45.3c-25.5-3.3-128.9-88-140.2-126S1245.3,439.3,1248.7,359.3z"/>
	
		<ellipse transform="matrix(0.3539 -0.9353 0.9353 0.3539 661.617 1740.5449)" class="st12" cx="1590.6" cy="391.4" rx="13.5" ry="6.1"/>
	<path class="st15" d="M1586.8,359.3c0,0-6,68.7-23.3,94.7s-58.7,85.3-81.3,93.3S1452.5,526,1422,526s27.2,9.4,24.6,52.5
		c3.7,33.7-52,58.5-15.3,50.2c25.1-5.7,128.9-88,140.2-126C1582.8,464.7,1590.1,439.3,1586.8,359.3z"/>
	<path class="st15" d="M1457.5,233c0,0-13.5,19.7,0.5,20.3s7.3,2.6,18.7-4.7c11.3-7.3,37.3-33.3,57.3-25.3s23.3,14.6,23.3,14.6
		s0-30-22.7-30.6C1512,206.7,1468.2,221.7,1457.5,233z"/>
	<path class="st14" d="M1370.7,275.3c0,0-12.7-17.7-45.3-9.9c-32.7,7.9-39,9.9-52,20.5c-8,6.6-3,9.3-3,9.3s31.3-19.7,72.3-15.9
		C1362.5,281.2,1372.7,286.7,1370.7,275.3z"/>
	<path class="st5" d="M1281,311.5c0,0,24-3.5,43-9.5s42.5-6,49.5,9.5c0,0-5.5,23-42,20.5S1287,313,1281,311.5z"/>
	<path class="st16" d="M1450.3,313.2c0,0-3.4-23.2,28.8-33.3c12.9-4,59.5,8.5,59.5,8.5s7.6,10-12.5,22.9
		C1506,324.1,1476,330.3,1450.3,313.2z"/>
	<path class="st15" d="M1469.5,457.3c0,13.3-6.8,25.4-17.8,34c28.4,3.5,67.7,3.5,67.7,3.5s-4-22.7-9.3-32
		c-3.5-6.2-25.6-15.1-43.8-20.9C1468.4,446.6,1469.5,451.8,1469.5,457.3z"/>
</g>
<path class="st2" d="M988.9,1220.3c-1,28.3,6.2,79.3-4.3,105.6c-17.3,43.2-47.5,75.5-87,100.1c-47.5,29.6-115.2,30.6-166.8,52.2
	c-19.7,8.3-41,16.9-52.7,34.8c-9.9,15.1-11.1,33.9-11.9,52l3.3,12.2c2.3,3.8-3.3,14.3,10.4,20c9.9,0.3,26,10.9,36,10.8
	c0,0,45.5-8.1,134.5-37.3c54.8-18,72.8-40.4,103.2-68.9c29.9-28,65.4-63,76.3-80.7c25.2-40.7,37.2-298,37.2-298
	c-17.4-59.5-46.2-73-70.2-130.1C994.3,1068.7,991.6,1144.5,988.9,1220.3z"/>
<path class="st2" d="M2163,1664.5l-27.9-50.3c-6.4-10.5-15.3-20.2-26.4-28.3c-5.6-2.1-13.4-8.4-13.4-8.4s0,23.1-1.6,38.3
	c-4.7,44-27.9,85.2-59.1,116c-41.5,41-96,66.1-151,85.5c-217.1,76.6-457.2,77.3-668.6,168.4c-13.2,5.7-27.1,12.7-37.2,22.6l4.3,14.4
	c1.8,5.9,8.7,9,15.5,7l470.2-78.5c20.2-5.3,40.3-11.4,60-18.3l319.6-102.5c18.6-4.1,36.7-7.7,53.8-12.8
	C2165.9,1798.4,2195.8,1723.6,2163,1664.5z"/>
<path class="st12" d="M1435.1,417.3c6.4-1.1,13.1-1.1,18.9-3.8c5.9-2.7,10.7-9.5,8.2-15.5c4.1,2.5,4.9,8.6,2.7,13
	c-2.2,4.3-6.5,7.2-11,9.1c-5.4,2.4-11.6,1.8-17.3,3.2c-3.1,0.7-13.7,10.7-14.3,4.4C1422,423.2,1432,417.8,1435.1,417.3z"/>
<path class="st5" d="M2408.8,1565.6c7.2-9.7,13.9-23.1,7.3-33.3c-7.1-11-23.5-9.3-36.2-6.3c7.4-11.9,14.9-24.2,17.5-37.9
	c2.7-13.8-0.5-29.6-11.5-38.3c-8.9-7.1-20.9-8.4-32.2-9.3c-25.5-2.2-51.1-4.1-76.7-5.8c-42.6-2.8-85.3-4.9-128.1-6.3
	c-33.2,29.9-53.8,71.7-53.8,117.8c0,3.9,0.2,7.7,0.4,11.6c19,17.8,38.6,34.7,60,49.2c32,21.7,68.9,38,107.6,38.6
	C2320.7,1646.3,2374.5,1611.7,2408.8,1565.6z M2300.6,1540.8c-5.9,2.7-12.4,4.8-18.7,3.4c-6.5-1.5-11.7-6.5-14.9-12.3
	c-3.7-6.6-7.3-15.4-4-22.7c3.9-8.6,12.9-15,21.7-17.5c9.8-2.9,20.2-2.3,30.4-1.7c10.2,0.7,20.6,1.4,30.5-1.2
	C2338.8,1511.4,2322,1530.9,2300.6,1540.8z"/>
<path class="st4" d="M519.7,1645.4c38.6-0.6,75.6-16.9,107.6-38.6c21.4-14.5,41-31.4,60-49.2c0.3-3.8,0.4-7.7,0.4-11.6
	c0-46.1-20.6-87.8-53.8-117.8c-42.7,1.4-85.4,3.5-128.1,6.3c-25.6,1.7-51.1,3.6-76.7,5.8c-11.3,1-23.3,2.3-32.2,9.3
	c-10.9,8.8-14.1,24.6-11.5,38.3c2.7,13.8,10.2,26,17.5,37.9c-12.8-3-29.1-4.7-36.2,6.3c-6.6,10.2,0,23.6,7.3,33.3
	C408.4,1611.7,462.2,1646.3,519.7,1645.4z M437.4,1488.8c9.9,2.6,20.3,1.8,30.5,1.2c10.2-0.7,20.6-1.2,30.4,1.7
	c8.8,2.6,17.8,8.9,21.7,17.5c3.3,7.2-0.3,16.1-4,22.7c-3.2,5.8-8.4,10.9-14.9,12.3c-6.3,1.4-12.9-0.6-18.7-3.4
	C460.9,1530.9,444.1,1511.4,437.4,1488.8z"/>
<path class="st5" d="M519.7,1645.4c38.6-0.6,75.6-16.9,107.6-38.6c21.4-14.5,41-31.4,60-49.2c0.3-3.8,0.4-7.7,0.4-11.6
	c0-46.1-20.6-87.8-53.8-117.8c-42.7,1.4-85.4,3.5-128.1,6.3c-25.6,1.7-51.1,3.6-76.7,5.8c-11.3,1-23.3,2.3-32.2,9.3
	c-10.9,8.8-14.1,24.6-11.5,38.3c2.7,13.8,10.2,26,17.5,37.9c-12.8-3-29.1-4.7-36.2,6.3c-6.6,10.2,0,23.6,7.3,33.3
	C408.4,1611.7,462.2,1646.3,519.7,1645.4z M437.4,1488.8c9.9,2.6,20.3,1.8,30.5,1.2c10.2-0.7,20.6-1.2,30.4,1.7
	c8.8,2.6,17.8,8.9,21.7,17.5c3.3,7.2-0.3,16.1-4,22.7c-3.2,5.8-8.4,10.9-14.9,12.3c-6.3,1.4-12.9-0.6-18.7-3.4
	C460.9,1530.9,444.1,1511.4,437.4,1488.8z"/>
<path class="st16" d="M2158.6,1428.5c-3.2-0.1-6.4-0.2-9.6-0.3c-33.2,29.9-53.8,71.7-53.8,117.8c0,3.9,0.2,7.7,0.4,11.6
	c11.6,10.9,23.5,21.5,36,31.4c-0.5-27.4,1.6-54.8,6.1-81.8C2142.3,1480.4,2149.3,1454,2158.6,1428.5z"/>
<g>
	<path class="st5" d="M2387.9,1524.3c7,1.3,15.1,2,23.8,3.3C2405.5,1523.2,2396.6,1523.1,2387.9,1524.3z"/>
</g>
<path class="st16" d="M620.6,1574.8c-17.4,19.7-33,41.2-50.2,61.1c20.1-6.9,39.2-17.2,56.8-29.2c21.4-14.5,41-31.4,60-49.2
	c0.3-3.8,0.4-7.7,0.4-11.6c0-8-0.6-15.8-1.8-23.5C661,1534.3,639.1,1553.9,620.6,1574.8z"/>
<path class="st17" d="M1323.3,96.4c-0.3,2.4-0.9,5.1-2.3,7.8c-1.9,3.8-10.8,2-24.4,15.2c-4.5,4.4-14.7,23.6-19.4,25.9
	c-2.3,1.1-4.7,1.7-6,0.6c-1-0.8-1.3-2.3-1.4-3.9c-0.5-7.6,3.8-18.4,9.6-27.9c5.6-9.1,17.5-25.6,25.7-30
	C1315.9,78.3,1324.6,84.5,1323.3,96.4z"/>
</svg>
