<?xml version="1.0" encoding="utf-8"?>
<!-- Generator: Adobe Illustrator 22.1.0, SVG Export Plug-In . SVG Version: 6.00 Build 0)  -->
<svg version="1.1" id="Í_xBC__xB2_ã_x5F_1" xmlns="http://www.w3.org/2000/svg" xmlns:xlink="http://www.w3.org/1999/xlink"
	 x="0px" y="0px" viewBox="0 0 140.6 137.3" style="enable-background:new 0 0 140.6 137.3;" xml:space="preserve">
<style type="text/css">
	.st0{fill:#FFFFFF;}
	.st1{fill:url(#SVGID_1_);}
	.st2{fill:#9D1C1F;}
	.st3{fill:#EBFFFC;}
</style>
<circle class="st0" cx="70.3" cy="68.7" r="65.2"/>
<linearGradient id="SVGID_1_" gradientUnits="userSpaceOnUse" x1="-467.3499" y1="975.3841" x2="-467.3499" y2="866.315" gradientTransform="matrix(1 0 0 1 0 -647.8)">
	<stop  offset="0" style="stop-color:#240808"/>
	<stop  offset="1" style="stop-color:#9D1C1F"/>
</linearGradient>
<path class="st1" d="M-444.3,307c-1.3,0.6-2.6,0.9-4,1c-1.6-0.6-3.3-0.9-5.1-0.8l-0.1,0.1l-0.7-1.5h0.2c-0.5-2.1-1.4-5-1.5-7.3
	c-1.1-4.3-0.3-10.5,0-14.9c-1.9-5.1-3.8-10.3-5.7-15.4c1.6-1.2,2.9-2.7,3.7-4.5c-0.5-1.7-1.4-3.2-2.8-4.3c0.1-1.8,0.3-3.6,0.4-5.3
	l1.1-0.2c-0.3,1.4,0.3,5.3,0.7,6.5c4-2.7,0.9-15.7-0.3-19.8c-0.5-1-1-2-1.6-3c-0.1-0.4,1.6-3.5,0.5-1.6l-0.3-0.4l0,0l0,0l-0.2-0.2
	c0.3-0.4,0.6-0.9,0.9-1.3c0.9,2,2.9-1.1,3.2-2.2c0.5,0.2,1.6-3.5,2.1-4.3c0.3-1.2,0.6-2.4,0.4-3.7l0,0c-0.6-6.4-9.9-6-9.9,0.5
	c-0.1,0-0.1-0.1-0.2-0.1h-0.1l-0.2,0.4c0,0.7,0.7,2.4,0.6,2.9l-0.4,2.1h-0.3c0,0.4-0.3,0.2-0.4,0.1c0,0.4-0.1,0.8-0.3,1.1
	c-6.6,1.5-10.3,6.1-10.3,12.8c0,0-1.3,4.1-1.3,4.2l-0.4-0.4c0.7-2.1,1.3-4.2,1.8-6.3c-0.8,1.7-1.5,3.5-2.3,5.2
	c0,0.2-0.1,0.3-0.2,0.4l-0.3-0.3l-4.5-0.9c-4.6,2.2-7.8,5.7-9.4,10.6c2.7,4.3,6.4,8.4,10.6,11.7c0.5,2.1,1.9,6.3,1.2,8.7
	c0,3.3-1.6,6.9-2.3,10.1c0.2,0.3,0.8,1.2,0.7,1.6c-4.4,5.9-5.7,12.9-6.6,20.4l0.5,0.1l-1.3,3.9c-0.3-0.1-0.5-0.2-0.8-0.2l-0.4,2.8
	h-0.2c0.1,0.2,0.2,0.4,0.1,0.7c3.4,0.3,6.7,0.9,10.1,1.2l0,0c2.4,0.6,4.7,0.3,6.9-0.7l-0.5-1.2c-1.4,0-2.7-0.2-4.1-0.6
	c-1.1-1.2-2.6-2.1-4.2-2.6l-0.1,0.1l0.2-2.3h0.1c1.9-5.6,3.5-11.1,4.9-16.8c0-0.1,0.1-0.2,0.2-0.2h1.1c2.2-4.8,4-9.8,6-14.7
	c-1.1,1.5,6.4,8.8,6.1,11.1c-0.5,5.9,0.2,11.8,1.8,17.5h1.4l0.8,4.2c-0.3,0-0.6,0-0.8,0.2l1,2.7l-0.2,0.1c0.2,0.2,0.4,0.3,0.5,0.6
	c3.3-1,6.5-1.7,9.7-2.7l0,0c2.4-0.3,4.4-1.4,5.9-3.3L-444.3,307z M-458.7,245.2c0.5,1.4,0.7,2.7,0.7,4c-0.3-0.3-0.6-0.4-0.9-0.4
	l-0.1-0.1c0.1-0.4,0.2-0.8,0.4-1.2h-0.1l0.1-0.3h-0.8c0.2-1,0.3-2.1,0.5-3.1C-458.9,244.5-458.8,244.8-458.7,245.2
	C-458.2,246.6-458.8,244.8-458.7,245.2z"/>
<g>
	<path class="st2" d="M93.7,112c-6,0-26.3,0-31.8,0c-17.6,0-31.8-14.2-31.8-31.8s14.2-31.8,31.8-31.8c1.1,0,2.1,0.2,3.1,0.3
		c7-8,17.2-13,28.7-13c19.3,0,35.3,14.4,37.8,33.1v-0.1c0-33.8-27.4-61.2-61.2-61.2S9.1,34.9,9.1,68.7s27.4,61.2,61.2,61.2
		c24.5,0,45.7-14.5,55.5-35.3C119,105.1,107.2,112,93.7,112z"/>
	<path class="st2" d="M74.7,99.4c5.5,4.1,12.1,6.3,19,6.3c17.5,0,31.8-14.3,31.8-31.8s-14.3-31.8-31.8-31.8c-8.1,0-15.5,3-21.3,8.2
		c2,0.6,4,1.5,6,2.8c0.1,0.1,0.2,0.1,0.3,0.2l0,0c4.2-3.1,9.4-4.8,14.9-4.8c14,0,25.4,11.4,25.4,25.4s-11.4,25.4-25.4,25.4
		c-5.5,0-10.7-1.7-15.2-5c-1.8-1.3-3.3-2.7-4.5-4.3c-0.1-0.1-0.1-0.2-0.2-0.3l-9.5-11.6c-1.1-1.4-3.1-1.6-4.5-0.4
		c-1.4,1.1-1.6,3.1-0.4,4.5L69,94c0.1,0.1,0.1,0.1,0.2,0.2C70.8,96.1,72.6,97.8,74.7,99.4z"/>
	<path class="st2" d="M68.3,62.3c1.1,0.3,2.4,0.9,3.7,1.7c0.1,0,0.1,0.1,0.2,0.1l19.9,12.4c1.5,0.9,3.5,0.5,4.4-1s0.5-3.5-1-4.4
		l-20-12.5c-0.1,0-0.1-0.1-0.2-0.1c-1.8-1.1-3.5-1.9-5-2.3c-2.7-1-5.5-1.5-8.3-1.5c-14,0-25.4,11.4-25.4,25.4S48,105.5,62,105.5
		c3,0,5.9-0.6,8.6-1.5c-2.1-1.6-3.9-3.3-5.5-5.1c-1,0.2-2.1,0.3-3.2,0.3c-10.5,0-19.1-8.6-19.1-19.1C42.8,67.6,55,57.6,68.3,62.3z"
		/>
</g>
<g>
	<path class="st3" d="M20.4,58.6l1.4,0.2c1.6,0.2,2.5,1.3,2.2,3s-1.3,2.5-3,2.3l-5.3-0.8c-1.6-0.2-2.5-1.3-2.2-3s1.3-2.5,3-2.3
		l1,0.1l-0.2,1.7l-1.1-0.2c-0.7-0.1-1.1,0.2-1.1,0.8c-0.1,0.6,0.1,1,0.9,1.1l5.5,0.8c0.7,0.1,1-0.2,1.1-0.8s-0.1-1-0.9-1.1l-1.5-0.2
		L20.4,58.6z"/>
	<path class="st3" d="M25.6,54.1c-0.3,0-0.5,0-1.3-0.2l-1.6-0.5c-0.9-0.3-1.4,0-1.6,0.7l-0.2,0.6l4,1.2l-0.5,1.7l-9.9-3l0.8-2.6
		c0.5-1.8,1.5-2.3,3.1-1.9l0.8,0.2c1,0.3,1.6,0.9,1.7,1.7c0.6-0.8,1.4-0.8,2.5-0.5l1.5,0.5c0.5,0.1,0.8,0.2,1.3,0.2L25.6,54.1z
		 M16.5,53.4l3.1,0.9l0.2-0.7c0.2-0.6,0.1-1.1-0.7-1.3l-1-0.3c-0.7-0.2-1.1,0-1.3,0.6L16.5,53.4z"/>
	<path class="st3" d="M22,46.8l1-2.2l1.3,0.6l-1,2.2l2.8,1.3l1.3-2.8l1.3,0.6l-2.1,4.4l-9.4-4.4l2.1-4.4l1.3,0.6l-1.3,2.8L22,46.8z"
		/>
	<path class="st3" d="M32.7,40.3l-1,1.5L30,41l-1.2,1.8l1.4,1.3l-0.9,1.4l-7.7-7.2l1.4-2.2L32.7,40.3z M27.7,41.9l0.9-1.4l-4.9-2.2
		L27.7,41.9z"/>
	<path class="st3" d="M25,33.4l3.6-4.2l1.1,1l-1.2,1.4l6.8,5.8l-1.2,1.4L27.3,33l-1.2,1.4L25,33.4z"/>
	<path class="st3" d="M30.3,27.5l1.3-1.2l7.1,7.6l-1.3,1.2L30.3,27.5z"/>
	<path class="st3" d="M41.1,29.5l-4-7.6l1.3-1l4.8,9.4l-2.1,1.6l-7.6-7.3l1.4-1.1L41.1,29.5z"/>
	<path class="st3" d="M44.5,22.4l2.2-1.2l0.7,1.3l-2.2,1.2l1.5,2.7l2.7-1.5l0.7,1.3l-4.3,2.3l-5-9.1l4.3-2.3l0.7,1.3l-2.7,1.5
		L44.5,22.4z"/>
	<path class="st3" d="M53.7,13.6c1.7-0.5,2.8,0.1,3.3,1.7l0.1,0.3l-1.6,0.5l-0.1-0.4c-0.2-0.7-0.6-0.9-1.2-0.7
		c-0.5,0.2-0.8,0.5-0.6,1.2c0.6,2,4.1,1.4,4.9,4.3c0.5,1.6-0.1,2.8-1.8,3.3s-2.8-0.1-3.3-1.7l-0.2-0.6l1.6-0.5l0.2,0.7
		c0.2,0.7,0.6,0.9,1.2,0.7s0.8-0.5,0.6-1.2c-0.6-2-4.1-1.4-4.9-4.3C51.5,15.3,52.1,14.1,53.7,13.6z"/>
	<path class="st3" d="M60.9,12.1l1.2,7.9c0.1,0.7,0.5,0.9,1.1,0.9c0.6-0.1,0.9-0.4,0.8-1.1l-1.2-7.9l1.7-0.2l1.2,7.8
		c0.2,1.6-0.5,2.7-2.3,3c-1.7,0.3-2.8-0.5-3-2.2l-1.2-7.8L60.9,12.1z"/>
	<path class="st3" d="M67.4,11.4l1.8-0.1l0.4,10.4l-1.8,0.1L67.4,11.4z"/>
	<path class="st3" d="M71.6,11.2l5.5,0.4L77,13.1L75.1,13l-0.6,8.9l-1.8-0.1l0.6-8.9l-1.9-0.1L71.6,11.2z"/>
	<path class="st3" d="M80.6,16.7l2.4,0.5l-0.3,1.5l-2.4-0.5l-0.6,3l3,0.6l-0.3,1.5l-4.8-1l2.1-10.2l4.8,1l-0.3,1.5l-3-0.6L80.6,16.7
		z"/>
</g>
</svg>
