<?xml version="1.0" encoding="utf-8"?>
<!-- Generator: Adobe Illustrator 19.0.0, SVG Export Plug-In . SVG Version: 6.00 Build 0)  -->
<svg version="1.1" id="Í_xBC__xB2_ã_x5F_1" xmlns="http://www.w3.org/2000/svg" xmlns:xlink="http://www.w3.org/1999/xlink"
	 x="0px" y="0px" viewBox="-355.1 212.4 140.6 137.3" style="enable-background:new -355.1 212.4 140.6 137.3;"
	 xml:space="preserve">
<style type="text/css">
	.st0{fill:url(#SVGID_1_);}
	.st1{fill:url(#SVGID_2_);}
	.st2{fill:url(#SVGID_3_);}
	.st3{fill:url(#SVGID_4_);}
	.st4{fill:url(#SVGID_5_);}
	.st5{fill:url(#SVGID_6_);}
	.st6{fill:#EBFFFC;}
</style>
<radialGradient id="SVGID_1_" cx="-284.8" cy="281.05" r="65.1906" gradientUnits="userSpaceOnUse">
	<stop  offset="0" style="stop-color:#EBFFFC"/>
	<stop  offset="0.9624" style="stop-color:#BBBDCC"/>
	<stop  offset="1" style="stop-color:#BDBFCE"/>
</radialGradient>
<circle class="st0" cx="-284.8" cy="281.1" r="65.2"/>
<linearGradient id="SVGID_2_" gradientUnits="userSpaceOnUse" x1="-822.4499" y1="535.7841" x2="-822.4499" y2="426.715" gradientTransform="matrix(1 0 0 1 0 4.2)">
	<stop  offset="0" style="stop-color:#240808"/>
	<stop  offset="1" style="stop-color:#9D1C1F"/>
</linearGradient>
<path class="st1" d="M-799.4,519.4c-1.3,0.6-2.6,0.9-4,1c-1.6-0.6-3.3-0.9-5.1-0.8l-0.1,0.1l-0.7-1.5h0.2c-0.5-2.1-1.4-5-1.5-7.3
	c-1.1-4.3-0.3-10.5,0-14.9c-1.9-5.1-3.8-10.3-5.7-15.4c1.6-1.2,2.9-2.7,3.7-4.5c-0.5-1.7-1.4-3.2-2.8-4.3c0.1-1.8,0.3-3.6,0.4-5.3
	l1.1-0.2c-0.3,1.4,0.3,5.3,0.7,6.5c4-2.7,0.9-15.7-0.3-19.8c-0.5-1-1-2-1.6-3c-0.1-0.4,1.6-3.5,0.5-1.6l-0.3-0.4l0,0l0,0l-0.2-0.2
	c0.3-0.4,0.6-0.9,0.9-1.3c0.9,2,2.9-1.1,3.2-2.2c0.5,0.2,1.6-3.5,2.1-4.3c0.3-1.2,0.6-2.4,0.4-3.7l0,0c-0.6-6.4-9.9-6-9.9,0.5
	c-0.1,0-0.1-0.1-0.2-0.1h-0.1l-0.2,0.4c0,0.7,0.7,2.4,0.6,2.9l-0.4,2.1h-0.3c0,0.4-0.3,0.2-0.4,0.1c0,0.4-0.1,0.8-0.3,1.1
	c-6.6,1.5-10.3,6.1-10.3,12.8c0,0-1.3,4.1-1.3,4.2l-0.4-0.4c0.7-2.1,1.3-4.2,1.8-6.3c-0.8,1.7-1.5,3.5-2.3,5.2
	c0,0.2-0.1,0.3-0.2,0.4l-0.3-0.3l-4.5-0.9c-4.6,2.2-7.8,5.7-9.4,10.6c2.7,4.3,6.4,8.4,10.6,11.7c0.5,2.1,1.9,6.3,1.2,8.7
	c0,3.3-1.6,6.9-2.3,10.1c0.2,0.3,0.8,1.2,0.7,1.6c-4.4,5.9-5.7,12.9-6.6,20.4l0.5,0.1l-1.3,3.9c-0.3-0.1-0.5-0.2-0.8-0.2l-0.4,2.8
	h-0.2c0.1,0.2,0.2,0.4,0.1,0.7c3.4,0.3,6.7,0.9,10.1,1.2l0,0c2.4,0.6,4.7,0.3,6.9-0.7l-0.5-1.2c-1.4,0-2.7-0.2-4.1-0.6
	c-1.1-1.2-2.6-2.1-4.2-2.6l-0.1,0.1l0.2-2.3h0.1c1.9-5.6,3.5-11.1,4.9-16.8c0-0.1,0.1-0.2,0.2-0.2h1.1c2.2-4.8,4-9.8,6-14.7
	c-1.1,1.5,6.4,8.8,6.1,11.1c-0.5,5.9,0.2,11.8,1.8,17.5h1.4l0.8,4.2c-0.3,0-0.6,0-0.8,0.2l1,2.7l-0.2,0.1c0.2,0.2,0.4,0.3,0.5,0.6
	c3.3-1,6.5-1.7,9.7-2.7l0,0c2.4-0.3,4.4-1.4,5.9-3.3L-799.4,519.4z M-813.8,457.6c0.5,1.4,0.7,2.7,0.7,4c-0.3-0.3-0.6-0.4-0.9-0.4
	l-0.1-0.1c0.1-0.4,0.2-0.8,0.4-1.2h-0.1l0.1-0.3h-0.8c0.2-1,0.3-2.1,0.5-3.1C-814,456.9-813.9,457.2-813.8,457.6
	C-813.3,459-813.9,457.2-813.8,457.6z"/>
<linearGradient id="SVGID_3_" gradientUnits="userSpaceOnUse" x1="-608.3344" y1="306.7" x2="-443.7344" y2="306.7">
	<stop  offset="0" style="stop-color:#9D1C1F"/>
	<stop  offset="1" style="stop-color:#240808"/>
</linearGradient>
<circle class="st2" cx="-526" cy="306.7" r="82.3"/>
<g>
	<g>
		<path d="M-494.6,262.4c-15.4,0-29.2,6.8-38.6,17.5c-1.4-0.1-2.8-0.4-4.2-0.4c-23.6,0-42.8,19.1-42.8,42.8
			c0,23.6,19.1,42.8,42.8,42.8c7.3,0,34.7,0,42.8,0c28.3,0,51.3-23,51.3-51.3S-466.2,262.4-494.6,262.4z M-537.3,356.5
			c-18.9,0-34.2-15.3-34.2-34.2s15.3-34.2,34.2-34.2c3.8,0,7.6,0.7,11.2,2c2,0.5,4.3,1.6,6.7,3.1c0.1,0,0.2,0.1,0.2,0.1l26.9,16.8
			c2,1.2,2.6,3.9,1.4,5.9c-1.2,2-3.9,2.6-5.9,1.4l-26.7-16.7c-0.1,0-0.2-0.1-0.2-0.1c-1.7-1.1-3.4-1.9-4.9-2.3
			c-17.9-6.4-34.3,7.1-34.3,24.1c0,14.1,11.5,25.7,25.7,25.7c1.4,0,2.9-0.2,4.3-0.4c2.2,2.5,4.6,4.8,7.3,6.9
			C-529.4,355.7-533.3,356.5-537.3,356.5z M-494.6,356.5c-9.3,0-18.1-2.9-25.5-8.5c-2.9-2.1-5.3-4.4-7.4-7c-0.1-0.1-0.2-0.2-0.2-0.2
			l-13-15.8c-1.5-1.8-1.2-4.5,0.6-6c1.8-1.5,4.5-1.2,6,0.6l12.7,15.5c0.1,0.1,0.2,0.2,0.3,0.3c1.6,2.1,3.6,3.9,6,5.7
			c6,4.4,13,6.8,20.4,6.8c18.9,0,34.2-15.3,34.2-34.2c0-18.9-15.3-34.2-34.2-34.2c-7.4,0-14.4,2.3-20.1,6.5l0,0
			c-0.1-0.1-0.3-0.2-0.4-0.2c-2.7-1.7-5.4-2.9-8.1-3.7c7.7-7,17.7-11.1,28.6-11.1c23.6,0,42.8,19.2,42.8,42.8
			C-451.8,337.3-471,356.5-494.6,356.5z"/>
	</g>
</g>
<g>
	<linearGradient id="SVGID_4_" gradientUnits="userSpaceOnUse" x1="-346.0151" y1="281.05" x2="-223.5849" y2="281.05">
		<stop  offset="0" style="stop-color:#9D1C1F"/>
		<stop  offset="1" style="stop-color:#240808"/>
	</linearGradient>
	<path class="st3" d="M-261.4,324.4c-6,0-26.3,0-31.8,0c-17.6,0-31.8-14.2-31.8-31.8c0-17.6,14.2-31.8,31.8-31.8
		c1.1,0,2.1,0.2,3.1,0.3c7-8,17.2-13,28.7-13c19.3,0,35.3,14.4,37.8,33.1c0,0,0-0.1,0-0.1c0-33.8-27.4-61.2-61.2-61.2
		c-33.8,0-61.2,27.4-61.2,61.2s27.4,61.2,61.2,61.2c24.5,0,45.7-14.5,55.5-35.3C-236.1,317.5-247.9,324.4-261.4,324.4z"/>
	<linearGradient id="SVGID_5_" gradientUnits="userSpaceOnUse" x1="-296.3924" y1="286.2668" x2="-229.5975" y2="286.2668">
		<stop  offset="0" style="stop-color:#9D1C1F"/>
		<stop  offset="1" style="stop-color:#240808"/>
	</linearGradient>
	<path class="st4" d="M-280.4,311.8c5.5,4.1,12.1,6.3,19,6.3c17.5,0,31.8-14.3,31.8-31.8c0-17.5-14.3-31.8-31.8-31.8
		c-8.1,0-15.5,3-21.3,8.2c2,0.6,4,1.5,6,2.8c0.1,0.1,0.2,0.1,0.3,0.2l0,0c4.2-3.1,9.4-4.8,14.9-4.8c14,0,25.4,11.4,25.4,25.4
		c0,14-11.4,25.4-25.4,25.4c-5.5,0-10.7-1.7-15.2-5c-1.8-1.3-3.3-2.7-4.5-4.3c-0.1-0.1-0.1-0.2-0.2-0.3l-9.5-11.6
		c-1.1-1.4-3.1-1.6-4.5-0.4c-1.4,1.1-1.6,3.1-0.4,4.5l9.7,11.8c0.1,0.1,0.1,0.1,0.2,0.2C-284.3,308.5-282.5,310.2-280.4,311.8z"/>
	<linearGradient id="SVGID_6_" gradientUnits="userSpaceOnUse" x1="-318.6546" y1="292.6281" x2="-258.2208" y2="292.6281">
		<stop  offset="0" style="stop-color:#9D1C1F"/>
		<stop  offset="1" style="stop-color:#240808"/>
	</linearGradient>
	<path class="st5" d="M-286.8,274.7c1.1,0.3,2.4,0.9,3.7,1.7c0.1,0,0.1,0.1,0.2,0.1l19.9,12.4c1.5,0.9,3.5,0.5,4.4-1
		c0.9-1.5,0.5-3.5-1-4.4l-20-12.5c-0.1,0-0.1-0.1-0.2-0.1c-1.8-1.1-3.5-1.9-5-2.3c-2.7-1-5.5-1.5-8.3-1.5c-14,0-25.4,11.4-25.4,25.4
		c0,14,11.4,25.4,25.4,25.4c3,0,5.9-0.6,8.6-1.5c-2.1-1.6-3.9-3.3-5.5-5.1c-1,0.2-2.1,0.3-3.2,0.3c-10.5,0-19.1-8.6-19.1-19.1
		C-312.3,280-300.1,270-286.8,274.7z"/>
</g>
<g>
	<path class="st6" d="M-334.7,271l1.4,0.2c1.6,0.2,2.5,1.3,2.2,3s-1.3,2.5-3,2.3l-5.3-0.8c-1.6-0.2-2.5-1.3-2.2-3
		c0.3-1.7,1.3-2.5,3-2.3l1,0.1l-0.2,1.7l-1.1-0.2c-0.7-0.1-1.1,0.2-1.1,0.8c-0.1,0.6,0.1,1,0.9,1.1l5.5,0.8c0.7,0.1,1-0.2,1.1-0.8
		s-0.1-1-0.9-1.1l-1.5-0.2L-334.7,271z"/>
	<path class="st6" d="M-329.5,266.5c-0.3,0-0.5,0-1.3-0.2l-1.6-0.5c-0.9-0.3-1.4,0-1.6,0.7l-0.2,0.6l4,1.2l-0.5,1.7l-9.9-3l0.8-2.6
		c0.5-1.8,1.5-2.3,3.1-1.9l0.8,0.2c1,0.3,1.6,0.9,1.7,1.7c0.6-0.8,1.4-0.8,2.5-0.5l1.5,0.5c0.5,0.1,0.8,0.2,1.3,0.2L-329.5,266.5z
		 M-338.6,265.8l3.1,0.9l0.2-0.7c0.2-0.6,0.1-1.1-0.7-1.3l-1-0.3c-0.7-0.2-1.1,0-1.3,0.6L-338.6,265.8z"/>
	<path class="st6" d="M-333.1,259.2l1-2.2l1.3,0.6l-1,2.2l2.8,1.3l1.3-2.8l1.3,0.6l-2.1,4.4l-9.4-4.4l2.1-4.4l1.3,0.6l-1.3,2.8
		L-333.1,259.2z"/>
	<path class="st6" d="M-322.4,252.7l-1,1.5l-1.7-0.8l-1.2,1.8l1.4,1.3l-0.9,1.4l-7.7-7.2l1.4-2.2L-322.4,252.7z M-327.4,254.3
		l0.9-1.4l-4.9-2.2L-327.4,254.3z"/>
	<path class="st6" d="M-330.1,245.8l3.6-4.2l1.1,1l-1.2,1.4l6.8,5.8l-1.2,1.4l-6.8-5.8l-1.2,1.4L-330.1,245.8z"/>
	<path class="st6" d="M-324.8,239.9l1.3-1.2l7.1,7.6l-1.3,1.2L-324.8,239.9z"/>
	<path class="st6" d="M-314,241.9l-4-7.6l1.3-1l4.8,9.4l-2.1,1.6l-7.6-7.3l1.4-1.1L-314,241.9z"/>
	<path class="st6" d="M-310.6,234.8l2.2-1.2l0.7,1.3l-2.2,1.2l1.5,2.7l2.7-1.5l0.7,1.3l-4.3,2.3l-5-9.1l4.3-2.3l0.7,1.3l-2.7,1.5
		L-310.6,234.8z"/>
	<path class="st6" d="M-301.4,226c1.7-0.5,2.8,0.1,3.3,1.7l0.1,0.3l-1.6,0.5l-0.1-0.4c-0.2-0.7-0.6-0.9-1.2-0.7
		c-0.5,0.2-0.8,0.5-0.6,1.2c0.6,2,4.1,1.4,4.9,4.3c0.5,1.6-0.1,2.8-1.8,3.3c-1.7,0.5-2.8-0.1-3.3-1.7l-0.2-0.6l1.6-0.5l0.2,0.7
		c0.2,0.7,0.6,0.9,1.2,0.7s0.8-0.5,0.6-1.2c-0.6-2-4.1-1.4-4.9-4.3C-303.6,227.7-303,226.5-301.4,226z"/>
	<path class="st6" d="M-294.2,224.5l1.2,7.9c0.1,0.7,0.5,0.9,1.1,0.9c0.6-0.1,0.9-0.4,0.8-1.1l-1.2-7.9l1.7-0.2l1.2,7.8
		c0.2,1.6-0.5,2.7-2.3,3c-1.7,0.3-2.8-0.5-3-2.2l-1.2-7.8L-294.2,224.5z"/>
	<path class="st6" d="M-287.7,223.8l1.8-0.1l0.4,10.4l-1.8,0.1L-287.7,223.8z"/>
	<path class="st6" d="M-283.5,223.6l5.5,0.4l-0.1,1.5l-1.9-0.1l-0.6,8.9l-1.8-0.1l0.6-8.9l-1.9-0.1L-283.5,223.6z"/>
	<path class="st6" d="M-274.5,229.1l2.4,0.5l-0.3,1.5l-2.4-0.5l-0.6,3l3,0.6l-0.3,1.5l-4.8-1l2.1-10.2l4.8,1l-0.3,1.5l-3-0.6
		L-274.5,229.1z"/>
</g>
</svg>
