<?xml version="1.0" encoding="utf-8"?>
<!-- Generator: Adobe Illustrator 22.1.0, SVG Export Plug-In . SVG Version: 6.00 Build 0)  -->
<svg version="1.1" id="Layer_1" xmlns="http://www.w3.org/2000/svg" xmlns:xlink="http://www.w3.org/1999/xlink" x="0px" y="0px"
	 viewBox="0 0 48 47.8" style="enable-background:new 0 0 48 47.8;" xml:space="preserve">
<style type="text/css">
	.st0{fill:#FFFFFF;}
</style>
<g>
	<path class="st0" d="M23.7,29.3c2.9,0,5.3-2.4,5.3-5.3s-2.4-5.3-5.3-5.3s-5.3,2.4-5.3,5.3S20.8,29.3,23.7,29.3z M23.7,20.7
		c1.8,0,3.3,1.5,3.3,3.3s-1.5,3.3-3.3,3.3s-3.3-1.5-3.3-3.3S21.9,20.7,23.7,20.7z"/>
	<path class="st0" d="M4.2,40.3c0.9,0,1.7-0.3,2.4-0.7c3,1.8,7.4,1.4,8,1.3c2.3,4.3,5.5,6.9,9.1,6.9s6.8-2.6,9.1-6.9
		c5.7,0.5,9.1-1.2,10.7-3.8c2.3-3.4,1.4-8.2-1.8-13.1c1.2-1.9,2.1-3.9,2.6-5.7c2-0.3,3.6-2,3.6-4.1c0-2.3-1.9-4.2-4.2-4.2
		c-0.3,0-0.6,0-1,0.1c-2-2.3-5.6-3.3-10-2.9c-2.3-4.3-5.5-6.9-9.1-6.9s-6.8,2.6-9.1,6.9C9.6,6.7,5.8,8,3.9,10.9
		C1.7,14.2,2.4,19,5.7,24l0,0c-1.9,2.9-2.9,5.7-3,8.2C1.1,32.8,0,34.4,0,36.1C0,38.4,1.9,40.3,4.2,40.3z M23.7,45.8
		c-2.6,0-5-2-6.9-5.2c8.1-1.4,15.1-6.7,16.8-7.9C31.9,40.3,28.1,45.8,23.7,45.8z M41.9,36c-1.4,2.1-4.3,3.1-8.1,2.9
		c1-2.4,1.8-5.2,2.3-8.3c1.7-1.5,3.2-3.2,4.4-4.8C42.9,29.7,43.5,33.5,41.9,36z M36.4,20.5c1.1,1.2,2.1,2.3,2.9,3.5
		c-0.8,1.2-1.8,2.3-2.9,3.5C36.6,26.4,36.6,21.7,36.4,20.5z M43.8,11.9c1.2,0,2.2,1,2.2,2.2s-1,2.2-2.2,2.2l0,0l0,0l0,0
		c-1.1,0-2.2-1.1-2.2-2.2C41.6,13.2,42.3,11.9,43.8,11.9z M41,11c-0.9,0.8-1.4,1.9-1.4,3.1c0,1.8,1.2,3.4,2.8,3.9
		c-0.4,1.4-1,2.8-1.9,4.2c-1.3-1.6-2.8-3.3-4.5-4.8c-0.5-3.1-1.3-5.9-2.3-8.3C36.9,8.9,39.4,9.6,41,11z M23.7,2.2
		c4.3,0,8.2,5.5,9.9,13.1c-0.9-0.7-7.3-6.1-16.8-7.9C18.7,4.2,21.1,2.2,23.7,2.2z M15.8,9.3c9.1,1.3,17,7.9,18.3,9.1
		c0.5,1.7,0.5,9.3,0,11.2c-1.4,1.2-8.2,7.2-18.3,9.1c-1.8-3.9-2.9-9.1-2.9-14.7S14,13.2,15.8,9.3z M5.5,12c1.4-2.1,4.3-3.1,8.1-2.9
		c-1.7,4.1-2.8,9.2-2.8,14.9c0,1.2,0,2.3,0.1,3.5C5.5,21.7,3.2,15.5,5.5,12z M6.9,25.8c1.2,1.6,2.6,3.2,4.3,4.7c0,0,0.1,0.1,0.2,0.1
		c0.5,3.1,1.3,6,2.3,8.4c-2.2,0.1-4.2-0.2-5.8-0.9c0.3-0.6,0.5-1.2,0.5-1.9c0-2.2-1.6-3.9-3.7-4.2C4.8,30.1,5.6,28,6.9,25.8z
		 M4.2,33.9c1.2,0,2.2,1,2.2,2.2c0,0.6-0.5,2.2-2.2,2.2c-1.2,0-2.2-1-2.2-2.2C2,34.2,4.1,33.9,4.2,33.9z"/>
</g>
</svg>
