<?xml version="1.0" encoding="utf-8"?>
<!-- Generator: Adobe Illustrator 19.0.0, SVG Export Plug-In . SVG Version: 6.00 Build 0)  -->
<svg version="1.1" id="Layer_1" xmlns="http://www.w3.org/2000/svg" xmlns:xlink="http://www.w3.org/1999/xlink" x="0px" y="0px"
	 viewBox="555.1 340 934.5 113" style="enable-background:new 555.1 340 934.5 113;" xml:space="preserve">
<style type="text/css">
	.st0{fill:#9C1C1F;}
	.st1{fill:#084731;}
</style>
<g>
	<g id="XMLID_19_">
		<path id="XMLID_17_" class="st0" d="M1034.5,438.5l-4.5-12.7c-1.9,0.7-4,1.1-6.2,1.1h-2.5c-2.3,0-4.5-0.4-6.5-1.2l-4.5,12.8
			c0,0,3.4,6.9,12.1,2.1C1031.1,445.4,1034.5,438.5,1034.5,438.5z"/>
		<path class="st0" d="M1028,357c1.5,5.8,0.8,12.6-5.2,15.4l2.1,3.3c2.3-0.5,4.8-1,7.7-1.4c0.6-0.1,1.3-0.2,2-0.2h0.1
			c0.2,0,0.5-0.1,0.7-0.1c0.2,0,0.3,0,0.5-0.1l0.2,0c3.5-0.4,6.8-0.6,9.8-0.6c8.3,0,18.5,3.6,23.5,7.4c3.4,2.2,4.8,4.3,5.3,4.3
			c0.5,0,0-2-0.4-7.6c-1.3-19.1-36.3-20.4-45.6-20.4C1028.4,357,1028.2,357,1028,357C1028,357,1028,357,1028,357z"/>
	</g>
	<g id="XMLID_25_">
		<path id="XMLID_37_" class="st0" d="M1007,411l0.3,3.4c0,5,3.3,6.4,8.1,8.4c1.8,0.7,3.7,1.2,5.8,1.2h2.5c2,0,3.8-0.4,5.5-1.1
			c4.9-1.9,8.4-3.4,8.4-8.5l0.3-3.4H1007z"/>
		<path id="XMLID_40_" class="st0" d="M1038.9,400l1.5-13.1c0-3.7-1.8-7.1-4.8-9.4c-0.3,0-0.6,0.1-0.9,0.1c-3.2,0.4-6.6,1-10.1,1.8
			c-0.2,0-0.3,0.1-0.5,0.1c-0.7,0-1.4-0.4-1.8-0.9l-2.7-4.1l-0.7-1.1l-0.3-0.4c-0.1-0.2-0.2-0.4-0.3-0.6c-0.1-0.4-0.1-0.8,0.1-1.2
			c0.2-0.6,0.7-1.1,1.4-1.3c2-0.6,3.4-1.6,4.2-3.2c1.9-3.6,0.2-8.8,0.2-8.9c-0.1-0.2-0.1-0.5-0.1-0.7c-0.6-0.1-1.4-0.2-2.1-0.2
			c-6.9,0-12.5,5.6-12.5,12.4v5.1v1.2v1.2c-3,2.3-5.6,5.9-5.6,10l1.8,13.1h33.2V400z M1018.8,360.7c3,0,3,4.3,0,4.3
			C1016.8,365,1015.8,360.7,1018.8,360.7z"/>
	</g>
</g>
<g id="XMLID_32_">
	
		<ellipse id="XMLID_24_" transform="matrix(0.6236 -0.7817 0.7817 0.6236 50.1989 894.7897)" class="st1" cx="954.3" cy="395.3" rx="6.3" ry="15.5"/>
	
		<ellipse id="XMLID_31_" transform="matrix(-0.7817 -0.6236 0.6236 -0.7817 1444.1259 1338.1226)" class="st1" cx="956.2" cy="416.3" rx="6.3" ry="15.5"/>
	
		<ellipse id="XMLID_34_" transform="matrix(0.6236 0.7817 -0.7817 0.6236 719.4624 -703.6647)" class="st1" cx="1090.5" cy="395.3" rx="6.3" ry="15.5"/>
	
		<ellipse id="XMLID_33_" transform="matrix(-0.7817 0.6236 -0.6236 -0.7817 2198.9836 63.1247)" class="st1" cx="1088.4" cy="416.4" rx="6.3" ry="15.5"/>
</g>
<path id="XMLID_277_" class="st1" d="M545.4,242.5c2.7-5.4,4.9-10.7,7.9-15.4c7-11.4,22.2-14.4,33.1-6.8c3.3,2.3,6.3,5,7,8.8
	c-5.8-0.4-11.5-1.4-17.1-1.1c-3.3,0.2-6.5,2.3-9.7,3.6c0.1,0.4,0.2,0.8,0.3,1.1c2.3-0.4,4.7-0.9,7-1.1c3.6-0.3,7.3-0.9,11-0.6
	c7.5,0.6,12.2,5.1,13.2,12.6c0.7,4.9,1.5,9.9,1.4,14.8c-0.1,3.4-1.6,6.8-2.8,11.1c-12.7-18.3-18.1-21.8-32.9-21.3
	c2,0.9,3.1,1.5,4.3,1.9c9.6,3.5,17.2,9.5,23.6,17.4c3,3.8,3.4,7.2,0.5,11.1c-1.6,2.1-3,4.3-5,7.3c-1.3-2.3-2.3-3.8-3-5.4
	c-4.4-9.2-9.7-17.7-19.3-22.4c-2.4-1.2-5-2.9-8.4,0.2c1.8,1.5,3.3,3.1,5,4.3c3.4,2.2,7.2,4,10.5,6.3c5.7,3.9,9.4,9.3,11.4,15.9
	c1.3,4.4-0.1,7.1-5.2,9.3c-0.5-1.9-0.9-3.8-1.6-5.6c-1.6-3.9-3.1-7.9-5.2-11.5c-1.2-1.9-3.5-3.3-5.6-4.4c-1-0.5-2.6,0.1-4,0.1
	c0.2,1.3-0.1,2.9,0.6,3.8c1.6,2.3,3.7,4.2,5.4,6.5c2.6,3.4,5.1,6.8,7.3,10.3c1.5,2.3,0.8,3.9-2,4.6c-4.9,1.3-9.3,3.3-12.6,7.4
	c-0.7,0.8-3.4,1.1-4.2,0.4c-4.6-3.4-9.8-4.3-15.3-4.4c-3.7,0-5-1.7-5.1-5.2c-0.3-8.2,2-15.7,6.6-22.4c2.1-3,3.7-6,2.1-9.9
	c-3.4-0.8-4.8,1.9-6.2,4c-4.1,6.7-5.8,14.1-5.7,21.9c0,2.3,0,4.7,0,7.4c-11-4.7-15.5-17.2-9.9-26.5c2.5-4.1,5.7-7.8,8.1-11.9
	c0.9-1.5,0.7-3.7,1.1-5.6c-1.7,0.9-4.2,1.3-5.1,2.8c-3.6,6.2-6.7,12.7-9.9,19.1c-0.6,1.2-0.7,2.7-1.1,4.2c-6.1-5-6.7-14.6-1.1-20.7
	c3.4-3.7,7.3-6.9,11-10.3c-0.3-0.4-0.6-0.8-0.9-1.2c-2.1,1.5-4.3,2.8-6.2,4.5c-2.1,1.8-3.9,4-6,6.2c-1.5-5.8,2.1-15.2,7.3-19
	C529.3,232.1,537.5,236,545.4,242.5z M547.7,244.3c-0.5,0-1,0.1-1.5,0.1c-1.9,15.4,2.9,29.7,8,43.9
	C552.1,273.6,549.9,259,547.7,244.3z"/>
<g>
	<g id="XMLID_28_">
		<rect id="XMLID_30_" x="630.8" y="403" class="st1" width="786.1" height="4"/>
	</g>
	<g>
		<path id="XMLID_273_" class="st1" d="M621.1,421.1c-1.3,12-9,18-20.3,20.7c0.7,0.8,1.1,1.5,1.6,1.8c7.5,4.8,16.1,5,24.1,3
			c6.2-1.5,7.8-7.9,8.1-13.9c0.1-2.5,0-5.1,0.5-7.6c3.9,7.2,2.2,13.8-3,21.2c2.6-0.7,4.2-0.8,5.5-1.5c11.6-5.8,13.7-21.9,3.9-30.8
			c-3.5-3.2-7.5-5.8-11.6-8.9c6.3-5,10.6-10.8,7.2-18.9c-2.5-5.9-7.8-8.7-14.8-10.6c2.7,4.5,4.9,8.2,7.1,11.8
			c-0.6,0.4-1.2,0.8-1.8,1.1c-0.6-1.2-1.2-2.5-1.9-3.7c-1.2-2.1-2.3-4.2-3.7-6.1c-5-6.3-9.9-7.3-18.2-3.4c8.3,4,15.7,8.4,20,16.2
			c-0.3,0.5-0.6,1-0.9,1.5c-1.5-0.7-3.3-1.1-4.5-2.2c-3.1-2.8-6-6-9-8.9c-4.3-4.1-9-4.9-14.3-1.8c-2.8,1.7-5.7,3.3-8.6,4.9
			c0.1,0.4,0.2,0.9,0.3,1.3c2,0.4,4.2,0.4,6.1,1.2c5.5,2.3,11.1,4.7,16.3,7.6c1.6,0.9,2,3.8,2.9,5.7c-2.1-0.6-4.7-0.6-6.2-1.9
			c-4.8-4.1-9.5-7.9-15.9-9.3c-6.6-1.5-6.7-1.4-8.8,5c-1,3.1-3,5.9-4.8,8.6c-1.1,1.6-1.8,2.6-0.6,4.7c1.7,3.1,3.2,6.5,3.8,9.9
			c0.6,3.6,2.1,4.3,5.1,2.9c3.4-1.6,6.8-3.4,10.1-5.1c1.5-0.8,2.9-1.8,4.5-2.3c0.9-0.3,2.1,0.2,3.1,0.3c-0.1,1,0.2,2.6-0.4,3
			c-3.2,2.1-6.4,4.4-9.9,5.7c-2.9,1.1-6.4,0.8-9.6,1.2c1.3,5,2.3,5.6,9.6,6.2c0.3,0.4,0.5,0.7,0.8,1.1c-1.3,0.3-2.6,0.7-3.7,1
			c2.4,6.9,7.9,9.3,13.8,6.3c6.8-3.4,12.3-8.3,16.4-14.6C620,422.8,620.5,422,621.1,421.1z M597.8,428.8c0.8-2.4,16.4-16.1,18.1-16
			C615.9,419.3,606.8,427.4,597.8,428.8z M628,405.6c0,0.4,0,0.9-0.1,1.3c-11.5-0.5-22.9-1-34.4-1.5C605,403.2,616.5,402,628,405.6z
			"/>
		<path id="XMLID_1_" class="st1" d="M1425.4,423.3c4.2,6.3,9.6,11.2,16.4,14.6c5.9,3,11.4,0.6,13.8-6.3c-1.2-0.3-2.5-0.6-3.7-1
			c0.3-0.4,0.5-0.7,0.8-1.1c7.3-0.6,8.3-1.1,9.6-6.2c-3.2-0.3-6.7-0.1-9.6-1.2c-3.6-1.3-6.7-3.6-9.9-5.7c-0.6-0.4-0.3-2-0.4-3
			c1-0.1,2.2-0.6,3.1-0.3c1.6,0.5,3,1.5,4.5,2.3c3.4,1.7,6.7,3.5,10.1,5.1c3,1.4,4.4,0.7,5.1-2.9c0.6-3.4,2.1-6.9,3.8-9.9
			c1.2-2.1,0.5-3.1-0.6-4.7c-1.9-2.7-3.8-5.5-4.8-8.6c-2.1-6.3-2.2-6.5-8.8-5c-6.3,1.5-11.1,5.3-15.9,9.3c-1.5,1.3-4.1,1.3-6.2,1.9
			c0.9-2,1.3-4.9,2.9-5.7c5.2-3,10.8-5.3,16.3-7.6c1.9-0.8,4-0.8,6.1-1.2c0.1-0.4,0.2-0.9,0.3-1.3c-2.9-1.6-5.7-3.2-8.6-4.9
			c-5.2-3.1-10-2.2-14.3,1.8c-3.1,2.9-5.9,6.1-9,8.9c-1.2,1.1-3,1.5-4.5,2.2c-0.3-0.5-0.6-1-0.9-1.5c4.3-7.8,11.7-12.3,20-16.2
			c-8.3-3.8-13.2-2.9-18.2,3.4c-1.5,1.9-2.5,4-3.7,6.1c-0.7,1.2-1.3,2.5-1.9,3.7c-0.6-0.4-1.2-0.8-1.8-1.1c2.2-3.6,4.4-7.3,7.1-11.8
			c-7.1,1.9-12.4,4.7-14.8,10.6c-3.4,8.1,0.9,13.8,7.2,18.9c-4.1,3.1-8.1,5.7-11.6,8.9c-9.8,8.9-7.7,25,3.9,30.8
			c1.3,0.7,2.9,0.8,5.5,1.5c-5.2-7.4-6.8-14-3-21.2c0.4,2.5,0.3,5.1,0.5,7.6c0.3,6,1.9,12.4,8.1,13.9c8,2,16.5,1.7,24.1-3
			c0.5-0.3,0.9-1,1.6-1.8c-11.4-2.7-19.1-8.7-20.3-20.7C1424.3,421.6,1424.8,422.5,1425.4,423.3z M1428.9,412.5
			c1.8-0.1,17.3,13.7,18.1,16C1438,427,1428.9,418.9,1428.9,412.5z M1451.3,405.1c-11.5,0.5-22.9,1-34.4,1.5c0-0.4,0-0.9-0.1-1.3
			C1428.3,401.6,1439.8,402.9,1451.3,405.1z"/>
	</g>
</g>
<path id="XMLID_268_" class="st1" d="M606.8,258c5.5-8.2,11.8-10.7,19.4-8.4c8.2,2.5,10.2,10,13.6,16.8c1.4-0.9,2.7-1.8,4-2.6
	c3.8-2.3,7.7-2.9,11.7-0.8c4.4,2.3,7.8,7.1,6.4,10.9c-1.4,3.9,1.3,5.8,1.2,8.5c-0.2,2.9-1.1,5.9-2.3,8.8c-3-6.6-4.6-13.7-11-17.6
	c-0.4,0.2-0.8,0.4-1.2,0.6c0.5,1.4,0.9,3,1.7,4.2c1.4,2.3,3.2,4.3,4.6,6.6c4.4,7,2.2,14-6,18.3c-0.3-8.3-0.1-16.8-7.1-22.5
	c-0.7,0.3-1.4,0.5-2.1,0.8c0.8,2.1,1.2,4.4,2.4,6.2c2.9,4.6,4.5,9.4,4.4,14.8c-0.1,2.6-1.1,3.6-3.7,4c-3.3,0.5-6.4,1.9-9.6,2.6
	c-1.1,0.3-2.6,0-3.6-0.5c-2.6-1.3-4.9-3.3-7.6-4.4c-2.4-1-2.9-2.2-1.5-4.1c1.9-2.6,4-5.1,5.9-7.7c1.2-1.6,2.2-3.3,3.6-5.2
	c-5.3-0.8-5.3-0.8-12.9,15.1c-1.5-3-2.6-5.3-3.9-8c-0.1,0.1-0.8,0.4-1.6,0.9c-0.2-0.1-0.5-0.1-0.6-0.3c-5-8.9-4.8-10.6,3.4-17.1
	c3.7-2.9,8-5,12.1-7.6c-9.8-0.2-16.1,4.8-20.7,14.5c-1-3-2.1-4.9-2-6.7c0.1-4.2,0.4-8.5,1.2-12.6c0.7-3.7,4.5-6.4,8.3-6.5
	c3-0.1,5.9,0,8.9-0.4C617.3,256,612.3,257.7,606.8,258z M614.4,290.8c6.4-4.9,12.1-9.2,17.8-13.5c-0.4-0.5-0.8-0.9-1.1-1.4
	C622.9,277.2,618.6,283.3,614.4,290.8z M638.2,268c-1.2,8.3-2.3,16.6-3.5,24.8C638.5,285,640.4,276.8,638.2,268z M658.4,274.9
	c0.3-0.4,0.6-0.8,0.9-1.1c-1.7-1.3-3.5-2.7-5.2-4c-0.3,0.4-0.6,0.7-0.8,1.1C654.9,272.2,656.6,273.6,658.4,274.9z"/>
</svg>
