<?xml version="1.0" encoding="utf-8"?>
<!-- Generator: Adobe Illustrator 19.0.0, SVG Export Plug-In . SVG Version: 6.00 Build 0)  -->
<svg version="1.1" id="Capa_1" xmlns="http://www.w3.org/2000/svg" xmlns:xlink="http://www.w3.org/1999/xlink" x="0px" y="0px"
	 viewBox="-223 25 512 512" style="enable-background:new -223 25 512 512;" xml:space="preserve">
<style type="text/css">
	.st0{fill:#EBFFFC;}
</style>
<g>
	<g>
		<path class="st0" d="M265.7,304.3c-7,0-11.6,4.7-11.6,11.6v151.3c0,7-4.7,11.6-11.6,11.6h-418.9c-7,0-11.6-4.7-11.6-11.6V315.9
			c0-7-4.7-11.6-11.6-11.6s-11.6,4.7-11.6,11.6v151.3c0,19.8,15.1,34.9,34.9,34.9h418.9c19.8,0,34.9-15.1,34.9-34.9V315.9
			C277.4,308.9,272.7,304.3,265.7,304.3z"/>
	</g>
</g>
<g>
	<g>
		<path class="st0" d="M254.1,141.4h-442.2c-19.8,0-34.9,15.1-34.9,34.9v74.5c0,16.3,11.6,30.3,26.8,33.7l182.7,40.7v37.2
			c0,7,4.7,11.6,11.6,11.6h69.8c7,0,11.6-4.7,11.6-11.6v-37.2l182.7-40.7C277.4,281,289,267,289,250.7v-74.5
			C289,156.5,273.9,141.4,254.1,141.4z M56.3,350.8H9.7v-46.5h46.5V350.8z M265.7,250.7c0,5.8-3.5,10.5-9.3,11.6L79.5,301.9v-9.3
			c0-7-4.7-11.6-11.6-11.6H-1.9c-7,0-11.6,4.7-11.6,11.6v9.3l-176.9-39.6c-5.8-1.2-9.3-5.8-9.3-11.6v-74.5c0-7,4.7-11.6,11.6-11.6
			h442.2c7,0,11.6,4.7,11.6,11.6V250.7z"/>
	</g>
</g>
<g>
	<g>
		<path class="st0" d="M91.2,59.9H-25.2C-45,59.9-60.1,75-60.1,94.8v11.6c0,7,4.7,11.6,11.6,11.6s11.6-4.7,11.6-11.6V94.8
			c0-7,4.7-11.6,11.6-11.6H91.2c7,0,11.6,4.7,11.6,11.6v11.6c0,7,4.7,11.6,11.6,11.6c7,0,11.6-4.7,11.6-11.6V94.8
			C126.1,75,111,59.9,91.2,59.9z"/>
	</g>
</g>
</svg>
