<?xml version="1.0" encoding="utf-8"?>
<!-- Generator: Adobe Illustrator 22.1.0, SVG Export Plug-In . SVG Version: 6.00 Build 0)  -->
<svg version="1.1" id="Layer_1" xmlns="http://www.w3.org/2000/svg" xmlns:xlink="http://www.w3.org/1999/xlink" x="0px" y="0px"
	 viewBox="0 0 692 667" style="enable-background:new 0 0 692 667;" xml:space="preserve">
<style type="text/css">
	.st0{fill:#102319;}
	.st1{fill:#183025;}
	.st2{fill:#19382B;}
</style>
<g>
	<ellipse class="st0" cx="346" cy="593" rx="262" ry="56"/>
	<ellipse class="st1" cx="346" cy="593" rx="173.1" ry="37"/>
</g>
<rect x="13.4" y="12.8" class="st0" width="250.2" height="204.8"/>
<polygon class="st1" points="21.9,111.7 52.5,111.7 64.5,108.3 94.5,108.3 94.5,131 112.1,131 115.5,128.1 146.2,131 146.2,119.6 
	167.1,119.6 167.1,99.8 170.6,90.7 170.6,81.6 185.9,81.6 185.9,92.4 189.8,99.2 189.8,152 201.2,152 206.9,148 213.1,144 
	231.8,144 231.8,175.8 238.6,175.8 238.6,199.6 276.7,199.6 276.7,289.8 11.1,306.9 11.1,110.5 "/>
<path class="st2" d="M0,10v309.8h288V10H0z M136.5,281.3L23.6,293.7V23l112.9,12.6V281.3z M149.6,279.8V37l105.8,11.9l1.5,219.3
	L149.6,279.8z"/>
<g>
	<g>
		<path class="st0" d="M691.3,265.1c-1.6,0.6-3.2,1-4.7,1.8c-14.4,7.8-29.9,13-45,19c-12,4.9-24.1,9.7-34.9,17
			c-4.8,3.2-9.1,6.9-12.4,11.8c-0.8,1.2-1.4,2.5-2.3,4c2.8,1.8,5.5,0.7,7.5-0.3c4.3-2.2,8.9-2.2,13.6-2.1
			c11.5,0.4,22.2,3.3,32.2,8.8c0.4,0.2,0.9,0.6,2.1,1.4c-1.9,0.6-2.8,0.9-3.7,1c-4.3,0.6-8.8,0.7-13.1,1.6
			c-4.2,0.9-8.4,0.9-12.7,0.1c-9-1.6-17.8-0.3-26.1,3.2c-5.8,2.6-9.7,7.6-11.7,13.5c-6.9,19.9-11.5,40.4-15.6,61.2
			c-0.3,1.8-0.4,3.7-0.7,5.9c1.7,0.8,3.5,1.6,5.3,2.3c1.9,0.9,3.8,1.6,5.5,2.7c2.3,1.4,3.5,4.3,2.7,6.8c-3.2,9.9-3.8,20.3-4.2,30.5
			c-0.2,5.6-1.1,11-1.8,16.5c-0.1,0.8-0.3,1.4-0.3,2.2c-0.4,7.2-0.8,14.4-1.1,21.6c-0.3,5.9-0.3,11.8-1.2,17.7
			c-1,6.7-4.5,11.6-10.7,15c-5,2.8-10.1,4.6-15.5,5.6c-9,1.7-18.2,2.7-27.5,1.3c-5.1-0.7-10.1-1.8-15.2-2.8
			c-6.2-1.3-11.5-4.2-15.5-9.1c-2.3-2.8-3.1-6.2-3.5-9.8c-1-9-2.1-17.9-3.2-27c-1.2-9.7-2.1-19.5-3.7-29.2c-0.9-5.5-0.6-11-3.2-16.3
			c-1.6-3.1-2.2-6.6-3.1-10c-0.7-2.6-0.6-5.2,1.8-7.1c1.7-1.4,3.3-2.9,5.3-4c3.2-1.8,6.6-3.3,10.6-5.2c-2.9-0.9-5.2-1.6-8.1-2.5
			c4.8-4.1,10.6-3.5,15.8-6c-0.1-1.4-0.3-3.2-0.4-4.8c-4.7-1.3-6.5,1.9-8.6,4.8c-4.6-4.6-5-10.2-6-15.7c2-5.3,7.1-1.8,10.2-3.8
			c-0.6-4.5-2.3-7.7-6.7-9.9c-3.9-1.9-7-5.3-10.8-8.5c-12.8,5.9-25.6,13-40.8,15.5c0.2-1.2,0-2.5,0.6-3.1
			c7.9-10.2,16.4-19.7,29.3-23.6c0.6-0.1,1-0.6,1.9-1c-1-1.4-2-2.9-3.1-4.5c5.2-3.1,10.5,1.9,15.8-1c-1.1-2.2-2.2-4.5-3.5-6.6
			c-5.9-10.6-12.6-20.5-20.9-29.3c-4.3-4.7-9.9-7.4-15.6-9.2c-10.7-3.6-21.8-5.8-33.2-6.1c-5.7-0.2-11.5-0.4-17.2-1.1
			c-3.6-0.4-7-1.8-10.6-3.2c2.8-2.1,5.8-3.2,8.9-3.5c8.5-0.6,16.9-0.8,25.5-1.1c8.4-0.3,16.6,0.4,24.4,4.5
			c-2.7-7.7-4.2-9.4-11.6-8.7c-10,0.9-18.5-2.5-26.7-7.5c-0.7-0.4-1.3-1-2.8-2.1c2-0.2,3.1-0.6,4-0.4c5.1,1,10.1,2.2,15.2,3
			c5.5,0.9,10.9,1.7,16.5,2c4.3,0.3,8.4,1.7,12.1,3.7c2.6,1.3,5.1,2,7.9,2.2c5.9,0.4,11.7,1.2,17.8,1.9c2.9-6.3,4.9-13.5,12.4-16.6
			c-4.1-5.3-10.2-6.1-15.8-7.5c-12-2.7-24.3-4.9-36.4-7.1c-1.6-0.3-3.2-0.1-4.9,0c-6.7,0.6-13.4,0.4-19.4-3.1
			c-3-1.7-3.8-2.7-5.3-6.5c1.2,0.1,2.2,0.2,3.2,0.2c5,0.1,10,0.7,14.9,0.3c11.5-0.8,22.6-3.8,34-4.9c9.9-1,20.1-1.6,29.9,0.7
			c3.2,0.7,6.2,2.2,9.4,3.5c0.8,1.7,1.4,3.3,2.2,5.1c0.3-2.3-0.3-4-2.2-5c-2.3-5.6-4.9-11.1-6.8-16.9c-1.4-4.6-2.1-9.4-1.6-14.1
			c0.1-0.9,0.1-1.9-0.1-2.7c-3.6-9.6-7.1-19-10.9-28.5c-1.1-2.7-2.1-5.5-5.9-6c-1.4-0.2-2.5-2.6-4-3.6c-9.1-6-18.2-12.1-27.6-17.7
			c-6.6-3.8-13.8-6.2-21.3-7.8c-7.5-1.4-14.6-4.2-22.1-5.2c-6.2-0.9-10.1-3.6-13.5-8.8c-7.2-11-14.1-22.2-17.6-35.1
			c-0.3-1.4-0.9-2.9-1-4.3c-0.6-4.9,0.2-5.9,4.8-7.9c6.2-2.8,12.7-4,19.5-2.2c1,0.2,2.2,0.3,3.3,0.1c8.5-1.9,16.9,0.7,25.4,0.3
			c2.9-0.1,5.9,0.6,8.7,1.4c11.7,3.6,23.5,6.9,34.2,12.9c9,5.1,17.4,11,22.5,20.2c7.2,12.8,10,26.5,5.5,41.1c-1.1,3.6-3.2,6.2-6,8.5
			c-2.9,2.2-3.8,4.8-2.2,8.2c1.2,2.9,2.1,5.9,3.3,8.8c1.9,4.6,3.9,9.1,6.3,14.7c0.7-3.3,1.3-5.7,1.4-8c0.3-7.5,2.5-14.4,6.6-20.4
			c4.9-7.1,9.5-14.6,16-20.5c8.2-7.6,17.4-13.7,27.2-19c4,0.9,4.8,5.2,7.8,7.4c2.6-4.6,1.9-11.7,9.4-11.9c3,2.8,4.5,6,5.9,9.5
			c3.2,7.7,7,15,13.1,21.1c5.1,5,9.6,10.8,14.3,16.3c1.2,1.3,2.3,2.8,4,4.9c1.2-3.3,2.2-6,3.3-9c-4.1-3.2-7.9-6.5-11.8-9.4
			c-2.8-2.1-4.9-4.5-5.3-8c-0.1-0.6-0.1-1.2-0.3-1.6c-3.6-5.1-2.8-10.9-3-16.7c-0.3-7.9-1-15.8-1.4-23.8c-0.1-1,0.3-2.1,0.4-3.1
			c0.3-1.9,0.7-3.8,1.1-6.7c5.5-4.2,11.1,0.3,17.2,1.9c1-0.9,2.2-1.8,3.2-2.8c10.8-11.7,24.3-19.3,39-25c9.7-3.7,19.3-7.6,29-11.1
			c8.1-2.9,16.5-5.5,24.7-8.1c1.7-0.6,3.5-0.6,5.8-1c0,1.8,0.2,3-0.1,4.1c-0.4,1.6-1.4,3-1.8,4.6c-1.6,6.9-5.7,12-10.9,16.3
			c-7.2,5.8-14.9,11-21.9,17c-7.9,6.9-16.9,12.6-23.7,20.8c-2.8,3.3-6,6.5-9.4,9.4c-5.6,4.9-8.9,11.3-12.4,17.6
			c-1.4,2.6-3.5,4.9-4.6,7.6c-3.8,8.8-9.7,16.5-12.3,26c-1.4,5.2-2,10,0.7,14.9c1.3,2.5,2.1,5.1,3.1,7.7c2.3,5.5,3.5,11.4,4,17.3
			c0.3,3.1,1.2,5.2,3.9,6.8c0.4,0.2,0.6,0.9,1,1.6c-0.6,0.9-1.2,1.8-1.7,2.7c-1.2,2.5-3.1,4.8-3.6,7.4c-0.7,4.7-2,9-3.7,13.4
			c-0.2,0.4,0,1,0,2.1c2.3-0.7,5-0.8,6.8-2.1c3.3-2.6,7.1-2.8,10.9-3.6c6.5-1.4,12.5-1.4,19-0.2c6.1,1.2,12.5,2.9,19.2,1.2
			c3.5-0.9,7.6,0.7,11.6,1.9c-0.7,0.3-1.3,0.8-2,1c-0.7,0.2-1.4,0.1-2.2,0.1c-17.3-1.9-33.3,3.5-49.5,8c-6.8,2-13.4,4.3-19.4,8.2
			c-7.8,5-13.4,12.1-18.3,19.9c-2.9,4.6-4.2,9.1-4.3,14.6c-0.1,6-1.1,12.1-1.8,18.2c-0.1,0.9-0.1,1.9-0.2,2.8
			c-0.7,9.8-1.4,19.5-2.1,29.3c-0.3,5.1-0.6,10.4-0.8,15.5c0,0.2,0.4,0.6,0.7,0.9c2.5-0.2,3.9-1.7,4.8-3.9
			c3.9-9.8,7.8-19.6,11.8-29.4c0.7-1.8,0.8-3.5,0.1-5.3c-1.2-2.9-2.1-5.9-3.1-9c2.2-2.7,5.3-3.8,8.7-4.2c3.2-0.4,5.3-2.2,6.7-5.2
			c0.9-2,1.1-3.8,0.1-5.8c-2.2-4.5-1.4-8.2,1.6-12.4c2.3-3.2,3.9-7.1,5-11c1.9-6.6,5.8-11,11.9-13.8c2.7-1.2,5.2-2.8,8-3.9
			c5.2-2.2,10.7-2.8,16.4-2.5c4.5,0.2,8.8-0.8,13.1-1.7c6.5-1.3,13.1-2.2,19.7-2.6c8.5-0.4,17-0.1,25.6-0.1
			C691.3,262.1,691.3,263.6,691.3,265.1z M463.8,303.3c-7.6-3.5-15.3-4.9-23.2-4.6c6.8,2.3,11.4,6.5,13.4,13.6
			c0.6,2.1,1.4,4.1,2.7,5.9c5,7.4,10.4,14.5,15.4,21.7c2.3,3.3,4.2,6.9,6,9.9c5.6,0.9,10.6,1.7,15.6,2.5c-0.1-0.6-0.1-1-0.2-1.6
			c-3.6-10.4-7.9-20.4-13.5-29.9c-1.8-3.1-3-6.9-6.5-8.6c-2.5,0.9-3.3,4.5-7.1,3.6C465.6,312.1,464.8,307.9,463.8,303.3z
			 M490.8,293.7c-4.7,5.9-10.6,10.4-10.7,18.7c1.6,2.8,3.2,5.8,4.8,8.9c3.6,7.2,7.1,14.6,10.5,21.9c1.9,4.2,3.5,8.6,5.2,12.8
			c0.7,1.6,1.7,3,4.3,1.8c-0.3-2.9-0.8-5.9-0.9-9c-0.4-7-0.8-14-1.2-20.9c0-0.8-0.1-1.4-0.3-2.2C499.8,315,495.7,304.5,490.8,293.7z
			 M546.3,302.9c0-4.5,0.1-8.4,0-12.1c-0.2-4-0.6-8.1-1.2-12.1c-0.3-1.9-1.2-4.1-2.6-5.3c-3.1-2.9-6.3-5.7-10.6-6.8
			c-3.2,1.4-6.5,2.9-9.8,4.5c-0.3,9.8-1.1,19.5,0.1,29.5c5.1-2.1,9.9-4,14.8-6C540.2,296.5,541.2,301.2,546.3,302.9z M528.6,253.2
			c1.2,1,2.1,1.9,3.1,2.7c1,0.9,2,1.7,3,2.6c2.7,2.3,6.5,2.9,9.7,1.2c2.8-1.4,5.5-3,8.7-4.8c-2.2-13.4-2.9-27.1-5.5-41.8
			C539.6,226.7,533.4,239.5,528.6,253.2z M535,369c1.8-6.1,3.7-12.3,5.3-18.5c0.3-1,0.4-2.3,0.1-3.2c-1.4-3.7-3.1-7.4-4.9-11.3
			c-3,0.9-5.3,1.7-8.2,2.6C528.2,349.4,531.4,359.2,535,369z M549.2,279.7c0.7,10.9,1.2,21.1,1.8,31.4c1.3-0.6,2.5-1,3.6-1.3
			c0.7-4.3-0.3-28.7-1.4-33.1C551.7,277.8,550.3,278.9,549.2,279.7z M537.3,387.5c5.5-1.1,7-3.8,7-8.1c-0.1-4.2,0.7-8.5,0.8-12.7
			c0.2-4.2,0.6-8.6-0.6-12.9C541.2,364.5,538.2,375.5,537.3,387.5z M517.7,307.4c0-11.4,0-22.7,0-34.1c-2.9,0.4-4,1.3-4.3,4.2
			c-0.6,3.8-0.8,7.7-1.2,11.5C511.5,295.8,514.4,301.6,517.7,307.4z M527.5,355.1c-2.2,15.9-1.8,27.4,0.8,32.1
			c1.9-3.3,3.6-6.7,3.1-10.5C530.3,369.3,528.7,362.2,527.5,355.1z M542.5,180.5c-2.8,3.8-5,6.8-7.1,9.8c4.1,6.6,4.2,6.7,10,9.7
			c-0.4-3.3-0.9-6.3-1.3-9.4C543.7,187.4,543.2,184.4,542.5,180.5z M500.2,390.9c1.1-4.1,0.1-7.6-1.1-11c-4.2-2.6-4.2-2.6-8.4-1.3
			c0.9,3.1,1.7,6.2,2.6,9.4C495.5,388.9,497.5,389.8,500.2,390.9z M523.6,364.7c1.8-14.6,1.4-21.3-1.2-26.4c0,8.5,0,16.8,0,25.3
			C522.4,364,523.2,364.3,523.6,364.7z M499.6,304.7c-0.6-6.1-0.2-12.3-2.8-18.6c-1.4,2.1-2.6,3.6-3.5,4.9
			C495.5,295.8,497.5,300.3,499.6,304.7z M512,303.7c1,8.6,1.8,16,2.7,23.5c0.1,0.6,0.3,1.1,0.6,1.6c0.1,0.3,0.3,0.7,0.7,1.2
			C517,321.1,516.5,312.7,512,303.7z M495.3,274.8c-1.6-5.5-2.8-9.8-4-14.3c-0.7,4-1.4,7.9-2.1,12.1
			C490.8,273.2,492.7,273.9,495.3,274.8z M502.3,409.2c-0.8-4.5-1.1-7.7-2-10.7c-0.6-1.9-2-2.5-4-0.7
			C497.9,401.3,497.8,405.5,502.3,409.2z M542.4,406.9c0.3-5.3,0.6-10.8,0.9-16.2C540,396,539.8,401.4,542.4,406.9z M493.3,362.9
			c1.1-0.9,2-1.6,2.9-2.2c-1.7-1.9-3.2-2.2-5.5-1C491.6,360.8,492.4,361.6,493.3,362.9z M523,385.8c0.3-0.1,0.8-0.1,1.1-0.2
			c-0.4-2-0.9-4-1.2-6c-0.3,0.1-0.8,0.1-1.1,0.2C522.3,381.7,522.6,383.8,523,385.8z M505.3,275.1c-2.8-0.8-2.8-0.8-3,1.7
			C503.3,276.2,504.2,275.8,505.3,275.1z"/>
	</g>
</g>
</svg>
