<?xml version="1.0" encoding="utf-8"?>
<!-- Generator: Adobe Illustrator 22.1.0, SVG Export Plug-In . SVG Version: 6.00 Build 0)  -->
<svg version="1.1" id="Layer_1" xmlns="http://www.w3.org/2000/svg" xmlns:xlink="http://www.w3.org/1999/xlink" x="0px" y="0px"
	 viewBox="0 0 100 100" style="enable-background:new 0 0 100 100;" xml:space="preserve">
<style type="text/css">
	.st0{fill:#19382B;}
	.st1{fill:#244F3B;}
	.st2{fill:none;}
	.st3{fill:#48A376;}
	.st4{fill:#231F20;}
	.st5{fill:#163024;}
	.st6{fill:#9D1C1F;}
	.st7{fill:#680E10;}
	.st8{fill:#330000;}
</style>
<path class="st0" d="M98,100H0.9c0,0,37-31.1,50.2-30.8C77.5,69.8,98,100,98,100z"/>
<rect x="86.3" y="107.5" class="st0" width="107.3" height="120.5"/>
<g>
	<ellipse class="st1" cx="52.4" cy="43.3" rx="43.4" ry="37.5"/>
	<circle class="st1" cx="52.4" cy="43.3" r="13"/>
	<g>
		<path class="st0" d="M13.6,41.3l0.2,0.6c0,0.2,0.2,0.2,0.4,0.4l0.6,0.2l-0.6,0.2c-0.2,0-0.2,0.2-0.4,0.4l-0.2,0.6l-0.2-0.6
			c0-0.2-0.2-0.2-0.4-0.4l-0.6-0.2l0.6-0.2c0.2,0,0.2-0.2,0.4-0.4L13.6,41.3z"/>
		<path class="st0" d="M35.8,28.2l0.1,0.4c0,0.1,0.1,0.3,0.3,0.3l0.4,0.1l-0.4,0.1c-0.1,0-0.3,0.1-0.3,0.3l-0.1,0.4l-0.1-0.4
			c0-0.1-0.1-0.3-0.3-0.3L35,29l0.4-0.1c0.1,0,0.3-0.1,0.3-0.3L35.8,28.2z"/>
		<path class="st0" d="M70.6,21.9l0.1,0.3c0,0.1,0.1,0.2,0.2,0.2l0.3,0.1l-0.3,0.1c-0.1,0-0.2,0.1-0.2,0.2l-0.1,0.3l-0.1-0.3
			c0-0.1-0.1-0.2-0.2-0.2L70,22.5l0.3-0.1c0.1,0,0.2-0.1,0.2-0.2L70.6,21.9z"/>
		<path class="st0" d="M34.8,31.4l0.2,0.4c0,0.2,0.2,0.4,0.4,0.4l0.4,0.2l-0.4,0.2c-0.2,0-0.4,0.2-0.4,0.4l-0.2,0.4L34.6,33
			c0-0.2-0.2-0.4-0.4-0.4l-0.4-0.2l0.4-0.2c0.2,0,0.4-0.2,0.4-0.4L34.8,31.4z"/>
		<path class="st0" d="M32.2,36.4l0.2,0.4c0,0.2,0.2,0.3,0.3,0.3l0.4,0.2l-0.4,0.2c-0.2,0-0.3,0.2-0.3,0.3l-0.2,0.4L32,37.8
			c0-0.2-0.2-0.3-0.3-0.3l-0.4-0.2l0.4-0.2c0.2,0,0.3-0.2,0.3-0.3L32.2,36.4z"/>
		<path class="st0" d="M67.7,23.2l0.1,0.4c0,0.1,0.1,0.2,0.2,0.2l0.4,0.1L68,24c-0.1,0-0.2,0.1-0.2,0.2l-0.1,0.4l-0.1-0.4
			c0-0.1-0.1-0.2-0.2-0.2L67,23.9l0.4-0.1c0.1,0,0.2-0.1,0.2-0.2L67.7,23.2z"/>
		<path class="st0" d="M23.2,39l0.2,0.7c0,0.2,0.2,0.4,0.5,0.5l0.7,0.2l-0.7,0.2c-0.2,0-0.4,0.2-0.5,0.5l-0.2,0.7L23,41.1
			c0-0.2-0.2-0.4-0.5-0.5l-0.7-0.2l0.7-0.2c0.2,0,0.4-0.2,0.5-0.5L23.2,39z"/>
		<path class="st0" d="M11.9,38.2v0.4c0,0.2,0.2,0.2,0.2,0.2h0.4h-0.4c-0.2,0-0.2,0.2-0.2,0.2v0.4V39c0-0.2-0.2-0.2-0.2-0.2h-0.4
			h0.4c0.2,0,0.2-0.2,0.2-0.2V38.2z"/>
		<path class="st0" d="M64.6,69.2l0.2,0.5c0,0.2,0.2,0.4,0.4,0.4l0.5,0.2l-0.5,0.2c-0.2,0-0.4,0.2-0.4,0.4l-0.2,0.5l-0.2-0.5
			c0-0.2-0.2-0.4-0.4-0.4l-0.5-0.2l0.5-0.2c0.2,0,0.4-0.2,0.4-0.4L64.6,69.2z"/>
		<path class="st0" d="M43,24.6l0.2,0.4c0,0.2,0.2,0.3,0.3,0.3l0.4,0.2l-0.4,0.2c-0.2,0-0.3,0.2-0.3,0.3L43,26.4L42.8,26
			c0-0.2-0.2-0.3-0.3-0.3l-0.4-0.2l0.4-0.2c0.2,0,0.3-0.2,0.3-0.3L43,24.6z"/>
		<path class="st0" d="M90.6,40.3l0.1,0.4c0,0.1,0.1,0.3,0.3,0.3l0.4,0.1L91,41.2c-0.1,0-0.3,0.1-0.3,0.3l-0.1,0.4l-0.1-0.4
			c0-0.1-0.1-0.3-0.3-0.3l-0.4-0.1l0.4-0.1c0.1,0,0.3-0.1,0.3-0.3L90.6,40.3z"/>
		<path class="st0" d="M90.4,45.8l0.2,0.8c0,0.2,0.2,0.4,0.4,0.4l0.8,0.2L91,47.4c-0.2,0-0.4,0.2-0.4,0.4l-0.2,0.8l-0.2-0.8
			c0-0.2-0.2-0.4-0.4-0.4L89,47.2l0.8-0.2c0.2,0,0.4-0.2,0.4-0.4L90.4,45.8z"/>
		<path class="st0" d="M69.8,18l0.1,0.4c0,0.1,0.1,0.2,0.4,0.4l0.4,0.1L70.3,19c-0.1,0-0.2,0.1-0.4,0.4l-0.1,0.4l-0.1-0.4
			c0-0.1-0.1-0.2-0.4-0.4l-0.4-0.1l0.4-0.1c0.1,0,0.2-0.1,0.4-0.4L69.8,18z"/>
		<path class="st0" d="M36.1,23.5l0.2,0.6c0,0.2,0.2,0.4,0.4,0.4l0.6,0.2l-0.6,0.2c-0.2,0-0.4,0.2-0.4,0.4l-0.2,0.6l-0.2-0.6
			c0-0.2-0.2-0.4-0.4-0.4l-0.6-0.2l0.6-0.2c0.2,0,0.4-0.2,0.4-0.4L36.1,23.5z"/>
		<path class="st0" d="M80,36.8l0.2,0.6c0,0.2,0.2,0.4,0.4,0.4l0.6,0.2l-0.6,0.2c-0.2,0-0.4,0.2-0.4,0.4L80,39.2l-0.2-0.6
			c0-0.2-0.2-0.4-0.4-0.4L78.8,38l0.6-0.2c0.2,0,0.4-0.2,0.4-0.4L80,36.8z"/>
		<path class="st0" d="M78.1,23l0.2,0.6c0,0.2,0.2,0.2,0.4,0.4l0.6,0.2l-0.6,0.2c-0.2,0-0.2,0.2-0.4,0.4l-0.2,0.6l-0.2-0.6
			c0-0.2-0.2-0.2-0.4-0.4l-0.6-0.2l0.6-0.2c0.2,0,0.2-0.2,0.4-0.4L78.1,23z"/>
		<path class="st0" d="M14.2,32.5l0.2,0.4c0,0.2,0.2,0.3,0.3,0.3l0.4,0.2l-0.4,0.2c-0.2,0-0.3,0.2-0.3,0.3l-0.2,0.4L14,33.9
			c0-0.2-0.2-0.3-0.3-0.3l-0.4-0.2l0.4-0.2c0.2,0,0.3-0.2,0.3-0.3L14.2,32.5z"/>
		<path class="st0" d="M84.7,49.1l0.1,0.4c0,0.1,0.1,0.3,0.4,0.4l0.4,0.1l-0.4,0.1c-0.1,0-0.3,0.1-0.4,0.4l-0.1,0.4l-0.1-0.4
			c0-0.1-0.1-0.3-0.4-0.4L83.8,50l0.4-0.1c0.1,0,0.3-0.1,0.4-0.4L84.7,49.1z"/>
		<path class="st0" d="M18.9,48.4l0.2,0.6c0,0.2,0.2,0.4,0.4,0.4l0.6,0.2l-0.6,0.2c-0.2,0-0.4,0.2-0.4,0.4l-0.2,0.6l-0.2-0.6
			c0-0.2-0.2-0.4-0.4-0.4l-0.6-0.2l0.6-0.2c0.2,0,0.4-0.2,0.4-0.4L18.9,48.4z"/>
		<path class="st0" d="M77.2,54.3l0.1,0.4c0,0.1,0.1,0.3,0.3,0.3l0.4,0.1l-0.4,0.1c-0.1,0-0.3,0.1-0.3,0.3l-0.1,0.4l-0.1-0.4
			c0-0.1-0.1-0.3-0.3-0.3l-0.4-0.1l0.4-0.1c0.1,0,0.3-0.1,0.3-0.3L77.2,54.3z"/>
		<path class="st0" d="M77.2,43.2l0.2,0.4c0,0.2,0.2,0.2,0.3,0.3l0.4,0.2l-0.4,0.2c-0.2,0-0.2,0.2-0.3,0.3L77.2,45L77,44.6
			c0-0.2-0.2-0.2-0.3-0.3l-0.4-0.2l0.4-0.2c0.2,0,0.2-0.2,0.3-0.3L77.2,43.2z"/>
		<path class="st0" d="M70.5,54.8l0.1,0.4c0,0.1,0.1,0.2,0.2,0.2l0.4,0.1l-0.4,0.1c-0.1,0-0.2,0.1-0.2,0.2l-0.1,0.4l-0.1-0.4
			c0-0.1-0.1-0.2-0.2-0.2l-0.4-0.1l0.4-0.1c0.1,0,0.2-0.1,0.2-0.2L70.5,54.8z"/>
		<path class="st0" d="M86.9,53.6V54c0,0.2,0.2,0.2,0.2,0.2h0.4h-0.4c-0.2,0-0.2,0.2-0.2,0.2v0.4v-0.4c0-0.2-0.2-0.2-0.2-0.2h-0.4
			h0.4c0.2,0,0.2-0.2,0.2-0.2V53.6z"/>
		<path class="st0" d="M81.8,32.9l0.2,0.4c0,0.2,0.2,0.3,0.3,0.3l0.4,0.2L82.3,34c-0.2,0-0.3,0.2-0.3,0.3l-0.2,0.4l-0.2-0.4
			c0-0.2-0.2-0.3-0.3-0.3l-0.4-0.2l0.4-0.2c0.2,0,0.3-0.2,0.3-0.3L81.8,32.9z"/>
		<path class="st0" d="M12.3,39.5l0.2,0.6c0,0.2,0.2,0.4,0.4,0.4l0.6,0.2l-0.6,0.2c-0.2,0-0.4,0.2-0.4,0.4l-0.2,0.6l-0.2-0.6
			c0-0.2-0.2-0.4-0.4-0.4l-0.6-0.2l0.6-0.2c0.2,0,0.4-0.2,0.4-0.4L12.3,39.5z"/>
		<path class="st0" d="M25.3,34.3l0.2,0.4c0,0.2,0.2,0.3,0.3,0.3l0.4,0.2l-0.4,0.2c-0.2,0-0.3,0.2-0.3,0.3l-0.2,0.4l-0.2-0.4
			c0-0.2-0.2-0.3-0.3-0.3l-0.4-0.2l0.4-0.2c0.2,0,0.3-0.2,0.3-0.3L25.3,34.3z"/>
		<path class="st0" d="M23.2,49.3l0.1,0.4c0,0.1,0.1,0.2,0.2,0.2l0.4,0.1l-0.4,0.1c-0.1,0-0.2,0.1-0.2,0.2l-0.1,0.4l-0.1-0.4
			c0-0.1-0.1-0.2-0.2-0.2L22.5,50l0.4-0.1c0.1,0,0.2-0.1,0.2-0.2L23.2,49.3z"/>
		<path class="st0" d="M86.5,57.1l0.1,0.4c0,0.1,0.1,0.1,0.3,0.3l0.4,0.1L86.9,58c-0.1,0-0.1,0.1-0.3,0.3l-0.1,0.4l-0.1-0.4
			c0-0.1-0.1-0.1-0.3-0.3l-0.4-0.1l0.4-0.1c0.1,0,0.1-0.1,0.3-0.3L86.5,57.1z"/>
		<path class="st0" d="M28.3,44.3l0.1,0.4c0,0.1,0.1,0.2,0.2,0.2L29,45l-0.4,0.1c-0.1,0-0.2,0.1-0.2,0.2l-0.1,0.4l-0.1-0.4
			c0-0.1-0.1-0.2-0.2-0.2L27.6,45l0.4-0.1c0.1,0,0.2-0.1,0.2-0.2L28.3,44.3z"/>
		<path class="st0" d="M27.8,26l0.1,0.4c0,0.1,0.1,0.2,0.2,0.2l0.4,0.1l-0.4,0.1c-0.1,0-0.2,0.1-0.2,0.2l-0.1,0.4L27.7,27
			c0-0.1-0.1-0.2-0.2-0.2l-0.4-0.1l0.4-0.1c0.1,0,0.2-0.1,0.2-0.2L27.8,26z"/>
		<path class="st0" d="M25.7,27.6l0.1,0.4c0,0.1,0.1,0.3,0.3,0.3l0.4,0.1l-0.4,0.1c-0.1,0-0.3,0.1-0.3,0.3l-0.1,0.4l-0.1-0.4
			c0-0.1-0.1-0.3-0.3-0.3l-0.4-0.1l0.4-0.1c0.1,0,0.3-0.1,0.3-0.3L25.7,27.6z"/>
		<path class="st0" d="M83.3,46.7l0.2,0.4c0,0.2,0.1,0.3,0.3,0.3l0.4,0.1l-0.4,0.1c-0.1,0-0.3,0.2-0.3,0.3l-0.2,0.4l-0.1-0.4
			c0-0.2-0.2-0.3-0.3-0.3l-0.4-0.1l0.4-0.1c0.1,0,0.3-0.2,0.3-0.3L83.3,46.7z"/>
		<path class="st0" d="M64,18.6l0.2,0.9c0,0.2,0.2,0.4,0.6,0.6l0.9,0.2l-0.9,0.2c-0.2,0-0.4,0.2-0.6,0.6L64,22l-0.2-0.9
			c0-0.2-0.2-0.4-0.6-0.6l-0.9-0.2l0.9-0.2c0.2,0,0.4-0.2,0.6-0.6L64,18.6z"/>
		<path class="st0" d="M60.7,66.8l0.2,0.5c0,0.2,0.2,0.4,0.4,0.4l0.5,0.2l-0.5,0.2c-0.2,0-0.4,0.2-0.4,0.4L60.7,69l-0.2-0.5
			c0-0.2-0.2-0.4-0.4-0.4l-0.5-0.2l0.5-0.2c0.2,0,0.4-0.2,0.4-0.4L60.7,66.8z"/>
		<path class="st0" d="M85.8,55.7l0.1,0.4c0,0.1,0.1,0.2,0.2,0.2l0.4,0.1l-0.4,0.1c-0.1,0-0.2,0.1-0.2,0.2l-0.1,0.4l-0.1-0.4
			c0-0.1-0.1-0.2-0.2-0.2l-0.4-0.1l0.4-0.1c0.1,0,0.2-0.1,0.2-0.2L85.8,55.7z"/>
		<path class="st0" d="M27.7,42.6l0.2,0.5c0,0.2,0.2,0.2,0.4,0.4l0.5,0.2l-0.5,0.2c-0.2,0-0.2,0.2-0.4,0.4l-0.2,0.5l-0.2-0.5
			c0-0.2-0.2-0.2-0.4-0.4l-0.5-0.2l0.5-0.2c0.2,0,0.2-0.2,0.4-0.4L27.7,42.6z"/>
		<path class="st0" d="M58.4,19.3l0.1,0.5c0,0.1,0.1,0.3,0.3,0.3l0.5,0.1l-0.5,0.1c-0.1,0-0.3,0.1-0.3,0.3l-0.1,0.5l-0.1-0.5
			c0-0.1-0.1-0.3-0.3-0.3l-0.5-0.1l0.5-0.1c0.1,0,0.3-0.1,0.3-0.3L58.4,19.3z"/>
		<path class="st0" d="M40.3,31.3l0.1,0.3c0,0.1,0.1,0.2,0.2,0.2l0.3,0.1L40.6,32c-0.1,0-0.2,0.1-0.2,0.2l-0.1,0.3l-0.1-0.3
			c0-0.1-0.1-0.2-0.2-0.2l-0.3-0.1l0.3-0.1c0.1,0,0.2-0.1,0.2-0.2L40.3,31.3z"/>
		<path class="st0" d="M40.9,21.7l0.1,0.4c0,0.1,0.1,0.3,0.3,0.3l0.4,0.1l-0.4,0.1c-0.1,0-0.3,0.1-0.3,0.3l-0.1,0.4l-0.1-0.4
			c0-0.1-0.1-0.3-0.3-0.3l-0.4-0.1l0.4-0.1c0.1,0,0.3-0.1,0.3-0.3L40.9,21.7z"/>
		<path class="st0" d="M16.8,44.3l0.2,0.6c0,0.2,0.2,0.4,0.4,0.4l0.6,0.2l-0.6,0.2c-0.2,0-0.4,0.2-0.4,0.4l-0.2,0.6l-0.2-0.6
			c0-0.2-0.2-0.4-0.4-0.4l-0.6-0.2l0.6-0.2c0.2,0,0.4-0.2,0.4-0.4L16.8,44.3z"/>
		<path class="st0" d="M71.1,59.7l0.1,0.4c0,0.1,0.1,0.2,0.2,0.2l0.4,0.1l-0.4,0.1c-0.1,0-0.2,0.1-0.2,0.2l-0.1,0.4L71,60.7
			c0-0.1-0.1-0.2-0.2-0.2l-0.4-0.1l0.4-0.1c0.1,0,0.2-0.1,0.2-0.2L71.1,59.7z"/>
		<path class="st0" d="M85.1,35.9l0.1,0.4c0,0.1,0.1,0.2,0.2,0.2l0.4,0.1l-0.4,0.1c-0.1,0-0.2,0.1-0.2,0.2l-0.1,0.4L85,36.9
			c0-0.1-0.1-0.2-0.2-0.2l-0.4-0.1l0.4-0.1c0.1,0,0.2-0.1,0.2-0.2L85.1,35.9z"/>
		<path class="st0" d="M91.7,49.9l0.1,0.4c0,0.1,0.1,0.3,0.3,0.3l0.4,0.1l-0.4,0.1c-0.1,0-0.3,0.1-0.3,0.3l-0.1,0.4l-0.1-0.4
			c0-0.1-0.1-0.3-0.3-0.3l-0.4-0.1l0.4-0.1c0.1,0,0.3-0.1,0.3-0.3L91.7,49.9z"/>
		<path class="st0" d="M88.6,39.9l0.1,0.3c0,0.1,0.1,0.2,0.2,0.2l0.3,0.1l-0.3,0.1c-0.1,0-0.2,0.1-0.2,0.2l-0.1,0.3l-0.1-0.3
			c0-0.1-0.1-0.2-0.2-0.2L88,40.5l0.3-0.1c0.1,0,0.2-0.1,0.2-0.2L88.6,39.9z"/>
		<path class="st0" d="M25.2,51.8l0.2,0.5c0,0.2,0.2,0.2,0.4,0.4l0.5,0.2l-0.5,0.2c-0.2,0-0.2,0.2-0.4,0.4L25.2,54L25,53.5
			c0-0.2-0.2-0.2-0.4-0.4l-0.5-0.2l0.5-0.2c0.2,0,0.2-0.2,0.4-0.4L25.2,51.8z"/>
		<path class="st0" d="M24,16.7l0.1,0.5c0,0.1,0.1,0.3,0.4,0.4l0.5,0.1l-0.5,0.1c-0.1,0-0.3,0.1-0.4,0.4L24,18.7l-0.1-0.5
			c0-0.1-0.1-0.3-0.4-0.4L23,17.7l0.5-0.1c0.1,0,0.3-0.1,0.4-0.4L24,16.7z"/>
		<path class="st0" d="M28.9,15.9l0.1,0.4c0,0.1,0.1,0.2,0.4,0.4l0.4,0.1l-0.4,0.1c-0.1,0-0.2,0.1-0.4,0.4l-0.1,0.4l-0.1-0.4
			c0-0.1-0.1-0.2-0.4-0.4L28,16.8l0.4-0.1c0.1,0,0.2-0.1,0.4-0.4L28.9,15.9z"/>
		<path class="st0" d="M32.6,19.5l0.2,0.8c0,0.2,0.2,0.4,0.4,0.4l0.8,0.2l-0.8,0.2c-0.2,0-0.4,0.2-0.4,0.4l-0.2,0.8l-0.2-0.8
			c0-0.2-0.2-0.4-0.4-0.4l-0.8-0.2l0.8-0.2c0.2,0,0.4-0.2,0.4-0.4L32.6,19.5z"/>
		<path class="st0" d="M18.9,40.8l0.2,0.6c0,0.2,0.2,0.4,0.4,0.4l0.6,0.2l-0.6,0.2c-0.2,0-0.4,0.2-0.4,0.4l-0.2,0.6l-0.2-0.6
			c0-0.2-0.2-0.4-0.4-0.4L17.7,42l0.6-0.2c0.2,0,0.4-0.2,0.4-0.4L18.9,40.8z"/>
		<path class="st0" d="M57.6,60.5l0.2,0.8c0,0.2,0.2,0.4,0.4,0.4l0.8,0.2l-0.8,0.2c-0.2,0-0.4,0.2-0.4,0.4l-0.2,0.8l-0.2-0.8
			c0-0.2-0.2-0.4-0.4-0.4l-0.8-0.2l0.8-0.2c0.2,0,0.4-0.2,0.4-0.4L57.6,60.5z"/>
		<path class="st0" d="M81.3,54.1l0.2,0.6c0,0.2,0.2,0.4,0.4,0.4l0.6,0.2l-0.6,0.2c-0.2,0-0.4,0.2-0.4,0.4l-0.2,0.6l-0.2-0.6
			c0-0.2-0.2-0.4-0.4-0.4l-0.6-0.2l0.6-0.2c0.2,0,0.4-0.2,0.4-0.4L81.3,54.1z"/>
		<path class="st0" d="M31.2,25.9l0.2,0.5c0,0.2,0.2,0.3,0.3,0.3l0.5,0.2l-0.5,0.2c-0.2,0-0.3,0.2-0.3,0.3l-0.2,0.5L31,27.4
			c0-0.2-0.2-0.3-0.3-0.3l-0.5-0.2l0.5-0.2c0.2,0,0.3-0.2,0.3-0.3L31.2,25.9z"/>
		<path class="st0" d="M28.9,20.5l0.1,0.4c0,0.1,0.1,0.3,0.3,0.3l0.4,0.1l-0.4,0.1c-0.1,0-0.3,0.1-0.3,0.3l-0.1,0.4l-0.1-0.4
			c0-0.1-0.1-0.3-0.3-0.3l-0.4-0.1l0.4-0.1c0.1,0,0.3-0.1,0.3-0.3L28.9,20.5z"/>
		<path class="st0" d="M92.5,39.9l0.2,0.5c0,0.2,0.2,0.4,0.4,0.4l0.5,0.2l-0.5,0.2c-0.2,0-0.4,0.2-0.4,0.4l-0.2,0.5l-0.2-0.5
			c0-0.2-0.2-0.4-0.4-0.4L91.4,41l0.5-0.2c0.2,0,0.4-0.2,0.4-0.4L92.5,39.9z"/>
		<path class="st0" d="M85.5,27.7l0.1,0.4c0,0.1,0.1,0.3,0.3,0.3l0.4,0.1l-0.4,0.1c-0.1,0-0.3,0.1-0.3,0.3l-0.1,0.4l-0.1-0.4
			c0-0.1-0.1-0.3-0.3-0.3l-0.4-0.1l0.4-0.1c0.1,0,0.3-0.1,0.3-0.3L85.5,27.7z"/>
		<path class="st0" d="M18.7,27.9l0.2,0.6c0,0.2,0.2,0.3,0.3,0.3l0.6,0.2l-0.6,0.2c-0.2,0-0.3,0.2-0.3,0.3l-0.2,0.6l-0.2-0.6
			c0-0.2-0.2-0.3-0.3-0.3L17.6,29l0.6-0.2c0.2,0,0.3-0.2,0.3-0.3L18.7,27.9z"/>
		<path class="st0" d="M12.8,42.9l0.2,0.6c0,0.2,0.2,0.4,0.4,0.4l0.6,0.2l-0.6,0.2c-0.2,0-0.4,0.2-0.4,0.4l-0.2,0.6l-0.2-0.6
			c0-0.2-0.2-0.4-0.4-0.4l-0.6-0.2l0.6-0.2c0.2,0,0.4-0.2,0.4-0.4L12.8,42.9z"/>
		<path class="st0" d="M85.8,31.1l0.1,0.4c0,0.1,0.1,0.1,0.3,0.3l0.4,0.1L86.2,32c-0.1,0-0.1,0.1-0.3,0.3l-0.1,0.4l-0.1-0.4
			c0-0.1-0.1-0.1-0.3-0.3L85,31.9l0.4-0.1c0.1,0,0.1-0.1,0.3-0.3L85.8,31.1z"/>
		<path class="st0" d="M14.1,53.8l0.1,0.4c0,0.1,0.1,0.3,0.3,0.3l0.4,0.1l-0.4,0.1c-0.1,0-0.3,0.1-0.3,0.3l-0.1,0.4L14,55
			c0-0.1-0.1-0.3-0.3-0.3l-0.4-0.1l0.4-0.1c0.1,0,0.3-0.1,0.3-0.3L14.1,53.8z"/>
		<path class="st0" d="M21,18l0.1,0.3c0,0.1,0.1,0.2,0.2,0.2l0.3,0.1l-0.3,0.1c-0.1,0-0.2,0.1-0.2,0.2L21,19.2l-0.1-0.3
			c0-0.1-0.1-0.2-0.2-0.2l-0.3-0.1l0.3-0.1c0.1,0,0.2-0.1,0.2-0.2L21,18z"/>
		<path class="st0" d="M21.4,30l0.2,0.5c0,0.2,0.2,0.4,0.4,0.4l0.5,0.2L22,31.3c-0.2,0-0.4,0.2-0.4,0.4l-0.2,0.5l-0.2-0.5
			c0-0.2-0.2-0.4-0.4-0.4l-0.5-0.2l0.5-0.2c0.2,0,0.4-0.2,0.4-0.4L21.4,30z"/>
		<path class="st0" d="M42.7,10.6l0.2,0.6c0,0.2,0.2,0.4,0.4,0.4l0.6,0.2L43.3,12c-0.2,0-0.4,0.2-0.4,0.4L42.7,13l-0.2-0.6
			c0-0.2-0.2-0.4-0.4-0.4l-0.6-0.2l0.6-0.2c0.2,0,0.4-0.2,0.4-0.4L42.7,10.6z"/>
		<path class="st0" d="M35,51v0.3c0,0.1,0.1,0.1,0.1,0.1h0.3h-0.3c-0.1,0-0.1,0.1-0.1,0.1v0.3v-0.3c0-0.1-0.1-0.1-0.1-0.1h-0.3h0.3
			c0.1,0,0.1-0.1,0.1-0.1V51z"/>
		<path class="st0" d="M79.8,15.5l0.2,0.6c0,0.2,0.2,0.3,0.3,0.3l0.6,0.2l-0.6,0.2c-0.2,0-0.3,0.2-0.3,0.3l-0.2,0.6l-0.2-0.6
			c0-0.2-0.2-0.3-0.3-0.3l-0.6-0.2l0.6-0.2c0.2,0,0.3-0.2,0.3-0.3L79.8,15.5z"/>
		<path class="st0" d="M52.2,9.8l0.2,0.7c0,0.2,0.2,0.4,0.5,0.5l0.7,0.2l-0.7,0.2c-0.2,0-0.4,0.2-0.5,0.5l-0.2,0.7L52,11.9
			c0-0.2-0.2-0.4-0.5-0.5l-0.7-0.2l0.7-0.2c0.2,0,0.4-0.2,0.5-0.5L52.2,9.8z"/>
		<path class="st0" d="M35.9,12.5l0.2,0.6c0,0.2,0.2,0.4,0.4,0.4l0.6,0.2l-0.6,0.2c-0.2,0-0.4,0.2-0.4,0.4l-0.2,0.6l-0.2-0.6
			c0-0.2-0.2-0.4-0.4-0.4l-0.6-0.2l0.6-0.2c0.2,0,0.4-0.2,0.4-0.4L35.9,12.5z"/>
		<path class="st0" d="M38.9,11.4l0.1,0.4c0,0.1,0.1,0.3,0.3,0.3l0.4,0.1l-0.4,0.1c-0.1,0-0.3,0.1-0.3,0.3L38.9,13l-0.1-0.4
			c0-0.1-0.1-0.3-0.3-0.3l-0.4-0.1l0.4-0.1c0.1,0,0.3-0.1,0.3-0.3L38.9,11.4z"/>
		<path class="st0" d="M52.7,5.2v0.3c0,0.2,0.2,0.2,0.2,0.2h0.3h-0.3c-0.2,0-0.2,0.2-0.2,0.2v0.3V5.9c0-0.2-0.2-0.2-0.2-0.2h-0.3
			h0.3c0.2,0,0.2-0.2,0.2-0.2V5.2z"/>
		<path class="st0" d="M83.3,20.4l0.2,0.4c0,0.2,0.2,0.3,0.3,0.3l0.4,0.2l-0.4,0.2c-0.2,0-0.3,0.2-0.3,0.3l-0.2,0.4l-0.2-0.4
			c0-0.2-0.2-0.3-0.3-0.3l-0.4-0.2l0.4-0.2c0.2,0,0.3-0.2,0.3-0.3L83.3,20.4z"/>
		<path class="st0" d="M21.4,21.5l0.2,0.8c0,0.2,0.2,0.4,0.4,0.4l0.8,0.2L22,23.1c-0.2,0-0.4,0.2-0.4,0.4l-0.2,0.8l-0.2-0.8
			c0-0.2-0.2-0.4-0.4-0.4L20,22.9l0.8-0.2c0.2,0,0.4-0.2,0.4-0.4L21.4,21.5z"/>
		<path class="st0" d="M32.2,10.1l0.2,0.7c0,0.2,0.2,0.4,0.4,0.4l0.7,0.2l-0.7,0.2c-0.2,0-0.4,0.2-0.4,0.4l-0.2,0.7L32,12
			c0-0.2-0.2-0.4-0.4-0.4l-0.7-0.2l0.7-0.2c0.2,0,0.4-0.2,0.4-0.4L32.2,10.1z"/>
		<path class="st0" d="M72.8,17.3l0.2,0.5c0,0.2,0.2,0.3,0.3,0.3l0.5,0.2l-0.5,0.2c-0.2,0-0.3,0.2-0.3,0.3l-0.2,0.5l-0.2-0.5
			c0-0.2-0.2-0.3-0.3-0.3l-0.5-0.2l0.5-0.2c0.2,0,0.3-0.2,0.3-0.3L72.8,17.3z"/>
		<path class="st0" d="M77.5,15.2l0.2,0.6c0,0.2,0.2,0.2,0.4,0.4l0.6,0.2l-0.6,0.2c-0.2,0-0.2,0.2-0.4,0.4l-0.2,0.6L77.3,17
			c0-0.2-0.2-0.2-0.4-0.4l-0.6-0.2l0.6-0.2c0.2,0,0.2-0.2,0.4-0.4L77.5,15.2z"/>
		<path class="st0" d="M66.6,6.6V7c0,0.2,0.2,0.2,0.2,0.2h0.4h-0.4c-0.2,0-0.2,0.2-0.2,0.2v0.4V7.4c0-0.2-0.2-0.2-0.2-0.2H66h0.4
			c0.2,0,0.2-0.2,0.2-0.2V6.6z"/>
		<path class="st0" d="M15.7,24.5l0.2,0.5c0,0.2,0.2,0.3,0.4,0.4l0.5,0.2l-0.5,0.2c-0.2,0-0.3,0.2-0.4,0.4l-0.2,0.5l-0.2-0.5
			c0-0.2-0.2-0.3-0.4-0.4l-0.5-0.2l0.5-0.2c0.2,0,0.3-0.2,0.4-0.4L15.7,24.5z"/>
		<path class="st0" d="M47.9,19.2l0.2,0.6c0,0.2,0.2,0.4,0.4,0.4l0.6,0.2l-0.6,0.2c-0.2,0-0.4,0.2-0.4,0.4l-0.2,0.6L47.7,21
			c0-0.2-0.2-0.4-0.4-0.4l-0.6-0.2l0.6-0.2c0.2,0,0.4-0.2,0.4-0.4L47.9,19.2z"/>
		<path class="st0" d="M53.1,7.9l0.1,0.3c0,0.1,0.1,0.2,0.2,0.2l0.3,0.1l-0.3,0.1c-0.1,0-0.2,0.1-0.2,0.2l-0.1,0.3L53,8.8
			c0-0.1-0.1-0.2-0.2-0.2l-0.3-0.1l0.3-0.1c0.1,0,0.2-0.1,0.2-0.2L53.1,7.9z"/>
		<path class="st0" d="M68.9,19.2l0.2,0.6c0,0.2,0.2,0.2,0.4,0.4l0.6,0.2l-0.6,0.2c-0.2,0-0.2,0.2-0.4,0.4l-0.2,0.6L68.7,21
			c0-0.2-0.2-0.2-0.4-0.4l-0.6-0.2l0.6-0.2c0.2,0,0.2-0.2,0.4-0.4L68.9,19.2z"/>
		<path class="st0" d="M69.4,27l0.2,0.4c0,0.2,0.1,0.3,0.3,0.3l0.4,0.2l-0.4,0.2c-0.1,0-0.3,0.1-0.3,0.3l-0.2,0.4l-0.1-0.4
			c0-0.1-0.2-0.3-0.3-0.3l-0.4-0.2l0.4-0.2c0.1,0,0.3-0.1,0.3-0.3L69.4,27z"/>
		<path class="st0" d="M74.5,63.4l0.2,0.6c0,0.2,0.2,0.4,0.4,0.4l0.6,0.2l-0.6,0.2c-0.2,0-0.4,0.2-0.4,0.4l-0.2,0.6l-0.2-0.6
			c0-0.2-0.2-0.4-0.4-0.4l-0.6-0.2l0.6-0.2c0.2,0,0.4-0.2,0.4-0.4L74.5,63.4z"/>
		<path class="st0" d="M11.9,32.6l0.2,0.6c0,0.2,0.2,0.4,0.4,0.4l0.6,0.2L12.5,34c-0.2,0-0.4,0.2-0.4,0.4L11.9,35l-0.2-0.6
			c0-0.2-0.2-0.4-0.4-0.4l-0.6-0.2l0.6-0.2c0.2,0,0.4-0.2,0.4-0.4L11.9,32.6z"/>
		<path class="st0" d="M57.4,15.1l0.1,0.4c0,0.1,0.1,0.2,0.2,0.2l0.4,0.1l-0.4,0.1c-0.1,0-0.2,0.1-0.2,0.2l-0.1,0.4l-0.1-0.4
			c0-0.1-0.1-0.2-0.2-0.2l-0.4-0.1l0.4-0.1c0.1,0,0.2-0.1,0.2-0.2L57.4,15.1z"/>
		<path class="st0" d="M11.5,52.1l0.1,0.4c0,0.1,0.1,0.2,0.2,0.2l0.4,0.1l-0.4,0.1c-0.1,0-0.2,0.1-0.2,0.2l-0.1,0.4l-0.1-0.4
			c0-0.1-0.1-0.2-0.2-0.2l-0.4-0.1l0.4-0.1c0.1,0,0.2-0.1,0.2-0.2L11.5,52.1z"/>
		<path class="st0" d="M14.3,21.7l0.2,0.6c0,0.2,0.2,0.4,0.4,0.4l0.6,0.2l-0.6,0.2c-0.2,0-0.4,0.2-0.4,0.4l-0.2,0.6l-0.2-0.6
			c0-0.2-0.2-0.4-0.4-0.4l-0.6-0.2l0.6-0.2c0.2,0,0.4-0.2,0.4-0.4L14.3,21.7z"/>
		<path class="st0" d="M36.2,6.4v0.3c0,0.1,0.1,0.1,0.3,0.3h0.3h-0.3c-0.1,0-0.1,0.1-0.3,0.3v0.3V7.3c0-0.1-0.1-0.1-0.3-0.3h-0.3
			h0.3C36,7,36,6.9,36.2,6.7V6.4z"/>
		<path class="st0" d="M86.8,24.8l0.2,0.5c0,0.2,0.2,0.3,0.4,0.4l0.5,0.2l-0.5,0.2c-0.2,0-0.3,0.2-0.4,0.4L86.8,27l-0.2-0.5
			c0-0.2-0.2-0.3-0.4-0.4l-0.5-0.2l0.5-0.2c0.2,0,0.3-0.2,0.4-0.4L86.8,24.8z"/>
		<path class="st0" d="M13.6,27.9l0.1,0.3c0,0.1,0.1,0.2,0.2,0.2l0.3,0.1l-0.3,0.1c-0.1,0-0.2,0.1-0.2,0.2l-0.1,0.3l-0.1-0.3
			c0-0.1-0.1-0.2-0.2-0.2L13,28.5l0.3-0.1c0.1,0,0.2-0.1,0.2-0.2L13.6,27.9z"/>
		<path class="st0" d="M61.7,8.3l0.2,0.9c0,0.2,0.2,0.4,0.4,0.4l0.9,0.2L62.3,10c-0.2,0-0.4,0.2-0.4,0.4l-0.2,0.9l-0.2-0.9
			c0-0.2-0.2-0.4-0.4-0.4l-0.9-0.2l0.9-0.2c0.2,0,0.4-0.2,0.4-0.4L61.7,8.3z"/>
		<path class="st0" d="M56.7,13.9l0.1,0.3c0,0.1,0.1,0.1,0.2,0.2l0.3,0.1L57,14.6c-0.1,0-0.1,0.1-0.2,0.2l-0.1,0.3l-0.1-0.3
			c0-0.1-0.1-0.1-0.2-0.2l-0.3-0.1l0.3-0.1c0.1,0,0.1-0.1,0.2-0.2L56.7,13.9z"/>
		<path class="st0" d="M35.1,54.3l0.2,0.7c0,0.2,0.2,0.4,0.4,0.4l0.7,0.2l-0.7,0.2c-0.2,0-0.4,0.2-0.4,0.4l-0.2,0.7l-0.2-0.7
			c0-0.2-0.2-0.4-0.4-0.4l-0.7-0.2l0.7-0.2c0.2,0,0.4-0.2,0.4-0.4L35.1,54.3z"/>
		<path class="st0" d="M36.3,18l0.1,0.3c0,0.1,0.1,0.2,0.2,0.2l0.3,0.1l-0.3,0.1c-0.1,0-0.2,0.1-0.2,0.2l-0.1,0.3l-0.1-0.3
			c0-0.1-0.1-0.2-0.2-0.2l-0.3-0.1l0.3-0.1c0.1,0,0.2-0.1,0.2-0.2L36.3,18z"/>
		<path class="st0" d="M36.9,7.8l0.2,0.8c0,0.2,0.2,0.4,0.4,0.4l0.8,0.2l-0.8,0.2c-0.2,0-0.4,0.2-0.4,0.4l-0.2,0.8l-0.2-0.8
			c0-0.2-0.2-0.4-0.4-0.4l-0.8-0.2L36.3,9c0.2,0,0.4-0.2,0.4-0.4L36.9,7.8z"/>
		<path class="st0" d="M45.8,15.3l0.2,0.5c0,0.2,0.2,0.4,0.4,0.4l0.5,0.2l-0.5,0.2c-0.2,0-0.4,0.2-0.4,0.4l-0.2,0.5L45.6,17
			c0-0.2-0.2-0.4-0.4-0.4l-0.5-0.2l0.5-0.2c0.2,0,0.4-0.2,0.4-0.4L45.8,15.3z"/>
		<path class="st0" d="M66.5,63.5l0.3,0.9c0,0.3,0.3,0.4,0.4,0.4l0.9,0.3l-0.9,0.3c-0.3,0-0.4,0.3-0.4,0.4l-0.3,0.9l-0.3-0.9
			c0-0.3-0.3-0.4-0.4-0.4l-0.9-0.3l0.9-0.3c0.3,0,0.4-0.3,0.4-0.4L66.5,63.5z"/>
		<path class="st0" d="M48.2,9l0.1,0.5c0,0.1,0.1,0.3,0.3,0.3l0.5,0.1L48.6,10c-0.1,0-0.3,0.1-0.3,0.3l-0.1,0.5l-0.1-0.5
			c0-0.1-0.1-0.3-0.3-0.3l-0.5-0.1l0.5-0.1c0.1,0,0.3-0.1,0.3-0.3L48.2,9z"/>
		<path class="st0" d="M81.3,20.3l0.1,0.3c0,0.1,0.1,0.2,0.2,0.2l0.3,0.1L81.6,21c-0.1,0-0.2,0.1-0.2,0.2l-0.1,0.3l-0.1-0.3
			c0-0.1-0.1-0.2-0.2-0.2l-0.3-0.1l0.3-0.1c0.1,0,0.2-0.1,0.2-0.2L81.3,20.3z"/>
		<path class="st0" d="M54.1,20l0.2,0.5c0,0.2,0.2,0.2,0.4,0.4l0.5,0.2l-0.5,0.2c-0.2,0-0.2,0.2-0.4,0.4l-0.2,0.5l-0.2-0.5
			c0-0.2-0.2-0.2-0.4-0.4L53,21.1l0.5-0.2c0.2,0,0.2-0.2,0.4-0.4L54.1,20z"/>
		<path class="st0" d="M10.2,48.5l0.2,0.9c0,0.2,0.2,0.4,0.6,0.6l0.9,0.2L11,50.4c-0.2,0-0.4,0.2-0.6,0.6l-0.2,0.9L10,51
			c0-0.2-0.2-0.4-0.6-0.6l-0.9-0.2L9.4,50c0.2,0,0.4-0.2,0.6-0.6L10.2,48.5z"/>
		<path class="st0" d="M13.2,47.4l0.2,0.6c0,0.2,0.2,0.3,0.4,0.4l0.6,0.2l-0.6,0.2c-0.2,0-0.3,0.2-0.4,0.4l-0.2,0.6L13,49.2
			c0-0.2-0.2-0.3-0.4-0.4L12,48.6l0.6-0.2c0.2,0,0.3-0.2,0.4-0.4L13.2,47.4z"/>
		<path class="st0" d="M47.9,12.2l0.1,0.3c0,0.1,0.1,0.2,0.2,0.2l0.3,0.1l-0.3,0.1c-0.1,0-0.2,0.1-0.2,0.2l-0.1,0.3l-0.1-0.3
			c0-0.1-0.1-0.2-0.2-0.2l-0.3-0.1l0.3-0.1c0.1,0,0.2-0.1,0.2-0.2L47.9,12.2z"/>
		<path class="st0" d="M89.9,32.8l0.2,0.9c0,0.2,0.2,0.4,0.4,0.4l0.9,0.2l-0.9,0.2c-0.2,0-0.4,0.2-0.4,0.4l-0.2,0.9l-0.2-0.9
			c0-0.2-0.2-0.4-0.4-0.4l-0.9-0.2l0.9-0.2c0.2,0,0.4-0.2,0.4-0.4L89.9,32.8z"/>
		<path class="st0" d="M17.1,19.7l0.2,0.8c0,0.2,0.2,0.4,0.4,0.4l0.8,0.2l-0.8,0.2c-0.2,0-0.4,0.2-0.4,0.4l-0.2,0.8l-0.2-0.8
			c0-0.2-0.2-0.4-0.4-0.4l-0.8-0.2l0.8-0.2c0.2,0,0.4-0.2,0.4-0.4L17.1,19.7z"/>
		<path class="st0" d="M57,10.1l0.2,0.5c0,0.2,0.2,0.4,0.4,0.4l0.5,0.2l-0.5,0.2c-0.2,0-0.4,0.2-0.4,0.4L57,12.3l-0.2-0.5
			c0-0.2-0.2-0.4-0.4-0.4l-0.5-0.2l0.5-0.2c0.2,0,0.4-0.2,0.4-0.4L57,10.1z"/>
		<path class="st0" d="M24.5,24l0.2,0.7c0,0.2,0.2,0.4,0.4,0.4l0.7,0.2l-0.7,0.2c-0.2,0-0.4,0.2-0.4,0.4l-0.2,0.7l-0.2-0.7
			c0-0.2-0.2-0.4-0.4-0.4l-0.7-0.2l0.7-0.2c0.2,0,0.4-0.2,0.4-0.4L24.5,24z"/>
		<path class="st0" d="M67.6,11.1l0.2,0.6c0,0.2,0.2,0.4,0.4,0.4l0.6,0.2l-0.6,0.2c-0.2,0-0.4,0.2-0.4,0.4l-0.2,0.6l-0.2-0.6
			c0-0.2-0.2-0.4-0.4-0.4l-0.6-0.2l0.6-0.2c0.2,0,0.4-0.2,0.4-0.4L67.6,11.1z"/>
		<path class="st0" d="M85.2,20.1l0.2,0.6c0,0.2,0.2,0.4,0.4,0.4l0.6,0.2l-0.6,0.2c-0.2,0-0.4,0.2-0.4,0.4l-0.2,0.6L85,21.9
			c0-0.2-0.2-0.4-0.4-0.4L84,21.3l0.6-0.2c0.2,0,0.4-0.2,0.4-0.4L85.2,20.1z"/>
		<path class="st0" d="M87.2,61.4l0.1,0.3c0,0.1,0.1,0.2,0.2,0.2l0.3,0.1l-0.3,0.1c-0.1,0-0.2,0.1-0.2,0.2l-0.1,0.3l-0.1-0.3
			c0-0.1-0.1-0.2-0.2-0.2L86.6,62l0.3-0.1c0.1,0,0.2-0.1,0.2-0.2L87.2,61.4z"/>
		<path class="st0" d="M89.8,28.4l0.1,0.4c0,0.1,0.1,0.2,0.2,0.2l0.4,0.1l-0.4,0.1c-0.1,0-0.2,0.1-0.2,0.2l-0.1,0.4l-0.1-0.4
			c0-0.1-0.1-0.2-0.2-0.2l-0.4-0.1l0.4-0.1c0.1,0,0.2-0.1,0.2-0.2L89.8,28.4z"/>
		<path class="st0" d="M77.6,60.5l0.2,0.4c0,0.2,0.2,0.3,0.3,0.3l0.4,0.2l-0.4,0.2c-0.2,0-0.3,0.2-0.3,0.3l-0.2,0.4l-0.2-0.4
			c0-0.2-0.2-0.3-0.3-0.3l-0.4-0.2l0.4-0.2c0.2,0,0.3-0.2,0.3-0.3L77.6,60.5z"/>
		<path class="st0" d="M78.5,10.9l0.2,0.6c0,0.2,0.2,0.2,0.4,0.4l0.6,0.2l-0.6,0.2c-0.2,0-0.2,0.2-0.4,0.4l-0.2,0.6l-0.2-0.6
			c0-0.2-0.2-0.2-0.4-0.4l-0.6-0.2l0.6-0.2c0.2,0,0.2-0.2,0.4-0.4L78.5,10.9z"/>
	</g>
	<g>
		<path class="st2" d="M80,63.1c-1.3,0.2-1,0.4-2.2-0.2c-0.4-0.2-0.8,0.4-1.3,0.5c0.4,1.3,1.1,2.7,2.1,3.2c0.4-0.2,1.9-1.3,2.4-2.7
			C80.7,63.9,80.5,63.1,80,63.1z"/>
		<path class="st2" d="M73.7,74.1c-0.3,0.3-0.9,0.1-1.3,0.4c-0.6,0.4-1.3,0.3-2.2,0.3c-0.4,0-1,0.5-2.3-0.4c-1.4-1-1.3-0.4-0.5-1.7
			c0.4-0.7,0.7-0.7,1.3-1.3c0.6-0.5,1.3-0.6,2.2-0.4c0.6,0.1,1.4,0.1,1.9,0.4c0.9,0.6,1.9,1.2,0.8,1.6c1.2,0.2,2.1,0.8,2.9,1.5
			c0.8-0.4,1.6-1,2.3-1.4c-1.3-3.7-5.6-6.6-8.9-8.3c-0.4-0.1-1-0.4-1.3-0.8c-0.4,0-1.4-1.2-2-1c-1.2,0.4-2.7,1.8-3.7,1.2
			c-0.9-0.6-9.7,0.1-9.7-0.9c0-0.7,1.5-0.4,2.2-1.6c0.4-0.8,5.2,0.4,5.5-1.2c0.4-2.3,1.6-1,2.9-2.2c1.7-1.6,1.2,0.4,2.6-1.5
			c1.2-1.6,2,0.5,3.4-1.3c1.8-2.2,5.7-0.4,8.2-2.2c1.1-0.8,1.6-2.5,3.6-2.5s2.6,1.5,3.6,2.5c1.2,1.1,3.1,1,4.2,1.3
			c1.4,0.5,2.9,0.7,4,1.1c1.5-3.9,2.4-8,2.4-12.3c0-20.7-19.5-37.5-43.4-37.5c-21.6,0-39.7,13.7-42.9,31.6c2.3,0.4,4.9,0.3,7.3,0.9
			c1,0.3,2,1.2,3,1.3c1.2,0.2,2.5-0.2,3.8,0c2.3,0.3,7.6,3.4,5.1,3.9c-3.1,0.6-5.3,1.8-8.3,2.1C17,46,13.6,46,10.3,46
			c-0.4,0-0.7,0-1.2,0.1c1.6,19.5,20.4,34.8,43.4,34.8c8.6,0,16.6-2.2,23.3-5.8C74.9,74.1,74.2,73.7,73.7,74.1z"/>
		<path class="st2" d="M74.6,63.4c-1,0.5-1.7,0.4-2.7,0c-0.9-0.4-1.8,0.3-2.2-0.5c-0.2,0.2-0.3,0.3-0.4,0.4c2.7,2.4,8.2,3.9,8.2,3.9
			c-1-1.1-1.5-2.3-1.8-3.5C75.3,63.6,75,63.1,74.6,63.4z"/>
		<path class="st2" d="M84,63.5c-0.4,0.5-1.3,0.8-2.1,0.8c-0.5,2.3-2.4,2.9-3.2,4.3c0.4,0.9,2,2.2,2.6,2.7c2.3-1.8,4.4-3.8,6.2-5.9
			c-0.4-0.1-0.7-0.3-0.9-0.4C85.4,65.4,84.1,64.7,84,63.5z"/>
		<path class="st0" d="M23.5,39.6c-1.3-0.1-2.6,0.3-3.8,0c-1-0.2-2-1.1-3-1.3c-2.3-0.6-4.9-0.4-7.3-0.9c0,0,0,0,0,0
			C7.8,37.1,6.8,37.5,6,39c-0.5,0.7-0.5,2.3-1.4,2.4c-1.7,0.1-5,2.6-3.2,2.9c2.2,0.5,3.3,1.2,5.5,1.4c0.7,0.1,1.4,0.1,2.1,0.2
			c0,0,0,0.1,0,0.1c0.3,0,0.7-0.1,1-0.1c1.4,0,2.7,0,4.1,0c0.3,0,0.6,0.1,0.9,0.1c0,0,0-0.1,0-0.1c1.8,0,3.5-0.1,5.3-0.3
			c3-0.3,5.2-1.4,8.3-2.1C31.1,43,25.8,39.8,23.5,39.6z"/>
		<path class="st0" d="M85.2,53.1c-1-0.9-1.6-2.5-3.6-2.5s-2.5,1.7-3.6,2.5c-2.5,1.8-6.4,0-8.2,2.2c-1.4,1.8-2.2-0.4-3.4,1.3
			c-1.4,2-0.8-0.1-2.6,1.5c-1.3,1.3-2.4-0.1-2.9,2.2c-0.3,1.4-5,0.3-5.5,1.2c-0.6,1.2-2.2,0.9-2.2,1.6c0,1,8.8,0.3,9.7,0.9
			c1,0.7,2.5-0.7,3.7-1.2c0.5-0.2,1.6,1,2,1c0.4,0.4,1,0.7,1.3,0.8c3.2,1.7,7.6,5,9,8.7c0.8-0.5,1.7-1.4,2.5-1.9
			c-0.6-0.4-2.4-2-2.8-2.9c0.8-1.5,2.7-2.1,3.2-4.3c0.8,0,1.6-0.3,2.1-0.8c0.2,1.3,1.5,1.9,2.6,1.5c0.7,0.5,1.4,0.4,2.2,0.5
			c1,0.2,2.1,0.3,3.1,0.3c2.1,0.1,4.3-0.1,6.4-0.5c0.1,0,0.2-0.1,0.4-0.1c0.4-0.3,0.2-0.8-0.1-1.2c-0.5-0.7-1.1-1.2-1.8-1.7
			c-0.5-0.3-1.2-0.6-1.5-1.1c-0.5-0.6-0.4-1.4-0.5-2.2c-0.1-1-0.3-3.1-1.3-3.6c-1.2-0.6-2.8-0.5-4-1.1
			C88.3,54.1,86.4,54.1,85.2,53.1z M69.3,63.1c0.2-0.2,0.3-0.3,0.4-0.4c0.4,0.8,1.3,0.2,2.2,0.5c1.1,0.4,1.7,0.5,2.7,0
			c0.4-0.2,0.7,0.3,1.1,0.3c0.3,1.3,0.8,2.4,1.8,3.5C77.4,67.1,72,65.7,69.3,63.1z M78.7,66.8c-1-0.5-1.6-1.9-2.1-3.2
			c0.4-0.2,0.8-0.7,1.3-0.5c1.2,0.4,0.9,0.3,2.2,0.2c0.4-0.1,0.7,0.7,1.1,1C80.6,65.4,79,66.7,78.7,66.8z"/>
		<path class="st0" d="M72.8,71.3c-0.4-0.4-1.3-0.4-1.9-0.4c-0.9-0.2-1.5-0.1-2.2,0.4s-1,0.5-1.3,1.3c-0.7,1.3-0.8,0.8,0.5,1.7
			s1.9,0.4,2.3,0.4c0.8,0.1,1.5,0.1,2.2-0.3c0.4-0.3,1.1-0.1,1.3-0.4c0.4-0.4,1.5,0.4,2.2,1.2c0.3-0.2,0.5-0.5,0.8-0.6
			c-0.8-0.7-2-1.5-3.2-1.7C74.7,72.5,73.7,72,72.8,71.3z"/>
	</g>
</g>
<path class="st3" d="M60.6,49.2c2.6,0.6,3.2,1.7,3.2,1.7s-1.3,0.7-2.9,0.7c-1.2,0-1.4,0.2-3.4,2.4c-1.1,1-2.6,2.8-3.7,4.4
	c0,3,0,8.1-0.3,9.7c0.9,0.2,5.3,1.3,7,4.3c0.8,1.3,0.9,2.8,0.4,4.4c0,2.6,0.1,6.9,0.5,7.2c0.7,0.6,3.2,3.1,2.4,4.5
	c-0.7,1.4-5,1.4-5.2,1.4c0,0-0.4,0-0.9,0c-1.4,0-3.3-0.2-4-1c-0.2-0.3-0.3-0.6-0.2-1c0.1-0.3,0.2-0.7,0.3-1c0.3-0.9,0.7-1.9,0.7-3.7
	c-0.1-5-4.5-5.7-7.1-5.7c-1.4,0-2.4,0.2-2.4,0.2c0,0-1.2,0.5-2.5,0.5c-0.1,1.2-1.1,9.7-1.6,10.4c0,0.1,0.5,4.5,0,6
	c0.3,0.5,2,2.9,1.8,3.6c-0.2,1-3,1.8-6.1,1.8c-1.5,0-3-0.2-4.3-0.6c0,0-0.4-0.1-0.6-0.6c-0.3-0.6-0.1-1.5,0.5-2.7l0.3-1
	c-0.9,0.2-1.6,0.3-2.2,0.3c-1.2,0-2-0.4-2.3-1.1c-0.5-1.2,0.5-2.8,0.9-3.2c0.6-0.7-1.7-10.5-2.2-10.9l-7.2,0
	c0.1,0.7,0.2,3.6-0.1,4.7c-0.2,0.7-0.8,1.8-1.3,2.9c-0.7,1.2-1.4,2.5-1.5,3.3c-0.3,1.4,0.2,2.2,0.2,2.2c0.8,0.4,1.3,1,1.5,1.6
	c0.1,0.4,0,0.8-0.2,1.1c-0.5,1-2.1,1.5-4.8,1.5c-2.2,0-4.3-0.4-4.4-0.4c-0.6-0.2-0.9-0.4-1.1-0.7c-0.3-0.5-0.1-1.1,0.2-1.8
	c0.1-0.4,0.3-0.8,0.3-1.2c0.1-1.4,1.1-8.4,1.1-8.5c1-2.5,0.5-4.7,0.5-4.7C4,66.8,8.2,61,8.2,61c2.2-3.1,3.6-3.9,5.5-4.8
	c1.9-0.9,10-1.8,11.2-1.9c-0.1-1.2,1-2.6,1.7-3.4c0.3-0.8,0.7-1.9,1.3-2.5c0.6-0.6,0.8-1.5,1.1-2.6c0.4-1.8,1-4.4,4.2-7
	c1.1-1,2.5-1.5,3.9-1.5c1.7,0,3,0.7,3.1,0.7c0,0,3.6-0.4,4.6-0.5c0.4,0,0.8-0.3,1.2-0.5c0.6-0.4,1.3-0.8,2.3-0.8
	c0.4,0,0.9,0.1,1.7,0.3c1.3,0.2,3,0.6,4.9,0.6c2.8,0,5.1-0.2,6.7-1.8c1.1-1.1,1.6-2.5,1.5-3.9c-0.1-1.4-1-2.8-2.2-3.7
	c-1.4-1.1-2.8-1.6-4.3-1.6c-1.7,0-3.3,0.7-4.6,2.1c-0.8,0.9-1.5,1.6-2,2.1c-0.7,0.7-1.2,1.3-1.6,1.6c-0.6,0.5-2.1,1-2.9,1
	c-0.1,0-0.1,0-0.2,0c-0.1,0-0.2,0-0.3-0.2c-0.1-0.2,0.1-0.3,0.3-0.5c0.2-0.2,0.5-0.4,0.4-0.6c0,0,0-0.1-0.1-0.1
	c-0.2-0.2-0.5-0.3-0.8-0.5c-0.5-0.2-0.8-0.4-0.9-0.8c0-0.2,0.1-0.4,0.3-0.6c0.2-0.2,0.5-0.2,0.9-0.2c0.6,0,1.4,0,2.2-0.8
	c0.4-0.4,0.6-0.8,1-1.2c0.5-0.7,1.1-1.5,2.1-2.6c1.6-1.6,4.3-2.6,7.1-2.6c1.9,0,4.6,0.4,7.3,2.4c4.5,3.3,5.7,6.7,4.3,11.8
	c-0.7,2.6-2.6,4.1-3.1,4.7c0.2,0,0.4,0.1,0.8,0.1c1.2,0,3.6-0.5,6.8-3.8c2.9-2.8,3.4-7,3.4-7l0,0c0,0,0.2-1.3,0.7-1.3
	c0.3,0,0.4,0.4,0.6,1.3c0.1,1.1-0.5,4.5-2.5,8.2c-2.9,4.8-9.6,5.1-11.5,5.1c-0.2,0-0.4,0-0.5,0l-0.4,0.5c0.5,0.2,2.1,0.8,4.2,0.8
	c3.3,0,6.2-1.3,8.7-3.9c2.4-3.1,2.9-4.2,3.4-5.8c0.2-0.7,0.5-1.3,0.5-1.4l0-0.1l0.1,0h0.1l0,0c0,0,0.1,0,0.1,0.1
	c0.2,0.3,0.4,1.2,0.2,2.3c-0.4,2.2-2.2,5.5-4.2,7.4c-2.8,2.8-6.3,4.3-10.5,4.3c-2,0-4.2-0.3-6.3-1l-0.1,0c-0.1,0.2-0.3,0.3-0.7,0.4
	c-0.3,0.1-0.8,0.2-1.2,0.2c-0.5,0-0.9-0.1-1.1-0.2l0.4,1.4C56.8,48.5,59.6,48.9,60.6,49.2z"/>
<path class="st4" d="M79.4,35.8c-0.5,1.6-1,2.8-3.4,5.8C70,48,63,44.7,63,44.7l0.6-0.7c0,0,8.5,0.5,11.9-5c2-3.6,2.6-7,2.5-8
	c-0.4-2.5-1-0.1-1,0c0,0-0.5,4.2-3.4,7c-4.8,5-7.9,3.7-7.9,3.7s2.3-2.4,3.1-5.4c1.3-4.6,0.5-8-4.2-11.5c-5-3.7-11.5-2.6-14.2,0.2
	c-1.7,1.8-2.2,2.8-3.1,3.8c-1.2,1.3-2.6,0.6-3,1c-0.8,0.8,0.7,1,1.4,1.6c0.6,0.5-1.2,1.3-0.5,1.4c0.7,0.1,2.4-0.5,3-1
	c0.8-0.6,1.7-1.8,3.6-3.7c2.4-2.5,5.8-3,9-0.5c2.3,1.6,3.4,5,0.8,7.7c-4.2,4.3-11.4,1.6-13.1,1.6c-1.6,0-2.5,1.2-3.5,1.3
	s-4.6,0.5-4.6,0.5s-3.6-2-6.8,0.7c-3.4,2.8-2.2,6.5-5.3,9.5c-0.6,0.6-1,1.6-1.3,2.5c-1,1.1-1.8,2.4-1.6,3.4c0,0-9.2,1-11.2,1.9
	c-1.7,0.8-3.2,1.6-5.4,4.7c0,0-4.2,5.5,1.6,19c0,0,0.5,2.2-0.5,4.7c0,0-1,7-1.1,8.4s-1.6,3,0.5,3.6c0,0,7.8,1.3,9-1.1
	c0.4-0.6,0.2-1.8-1.3-2.6c0,0-0.5-0.8-0.2-2.3c0.2-1.4,2.4-4.6,2.8-6.1c0.4-1.2,0.1-4.7,0.1-4.7s6.8,0,7.3,0s2.8,10.2,2.2,11
	c-0.7,0.7-3,5.3,3.7,3.7l-0.4,1.2c-1.3,2.6,0,3,0,3c4.4,1.4,10,0.1,10.2-1.1c0.2-0.7-1.8-3.5-1.8-3.5c0.5-1.4,0-6,0-6
	c0.5-0.8,1.6-10.4,1.6-10.4c1.3,0,2.6-0.5,2.6-0.5s9.5-1.8,9.6,5.6c0,2.5-0.7,3.5-1,4.7c-0.4,2.2,5,1.8,5,1.8s4.3,0,5-1.3
	c0.7-1.3-1.8-3.8-2.4-4.3c-0.6-0.5-0.5-7.3-0.5-7.3c2-6.5-7.4-8.4-7.4-8.4c0.4-1.4,0.4-6.8,0.4-9.8c1.1-1.6,2.6-3.4,3.7-4.4
	c2-2.2,2.2-2.4,3.5-2.4c1.6,0,2.2-0.4,2.8-1c0,0-1.3-0.8-3.4-1.3c-2.5-0.5-3.6-0.5-3.6-0.5l-0.5-1.7c0,0,1.3,0.5,2.5,0
	c0.5-0.1,0.6-0.2,0.7-0.4c0.7,0.2,10,3.7,16.7-3.1c1.9-1.9,3.7-5.1,4.1-7.3c0.2-1.2-0.1-2.3-0.3-2.2C80.1,34.2,79.6,35,79.4,35.8z"
	/>
<path class="st5" d="M-46,140.2c-0.5,1.6-0.5,2.5-3.6,5.8c-6.1,6.4-13.1,3.1-13.1,3.1l0.6-0.7c0,0,8.5,0.5,11.9-5c2-3.6,2.6-7,2.5-8
	c-0.4-2.5-1-0.1-1,0c0,0-0.5,4.2-3.4,7c-4.8,5-7.9,3.7-7.9,3.7s2.3-2.4,3.1-5.4c1.3-4.6,0.5-8-4.2-11.5c-5-3.7-11.5-2.6-14.2,0.2
	c-1.7,1.8-2.2,2.8-3.1,3.8c-1.2,1.3-2.6,0.6-3,1c-0.8,0.8,0.7,1,1.4,1.6c0.6,0.5-1.2,1.3-0.5,1.4c0.7,0.1,2.4-0.5,3-1
	c0.8-0.6,1.7-1.8,3.6-3.7c2.4-2.5,5.8-3,9-0.5c2.3,1.6,3.4,5,0.8,7.7c-4.2,4.3-11.4,1.6-13.1,1.6c-1.6,0-2.5,1.2-3.5,1.3
	s-4.6,0.5-4.6,0.5s-3.6-2-6.8,0.7c-3.4,2.8-2.2,6.5-5.3,9.5c-0.6,0.6-1,1.6-1.3,2.5c-1,1.1-1.8,2.4-1.6,3.4c0,0-9.2,1-11.2,1.9
	c-1.7,0.8-3.2,1.6-5.4,4.7c0,0-4.2,5.5,1.6,19c0,0,0.5,2.2-0.5,4.7c0,0-1,7-1.1,8.4s-1.6,3,0.5,3.6c0,0,7.8,1.3,9-1.1
	c0.4-0.6,0.2-1.8-1.3-2.6c0,0-0.5-0.8-0.2-2.3c0.2-1.4,2.4-4.6,2.8-6.1c0.4-1.2,0.1-4.7,0.1-4.7s6.8,0,7.3,0s2.8,10.2,2.2,11
	c-0.7,0.7-3,5.3,3.7,3.7l-0.4,1.2c-1.3,2.6,0,3,0,3c4.4,1.4,10,0.1,10.2-1.1c0.2-0.7-1.8-3.5-1.8-3.5c0.5-1.4,0-6,0-6
	c0.5-0.8,1.6-10.4,1.6-10.4c1.3,0,2.6-0.5,2.6-0.5s9.5-1.8,9.6,5.6c0,2.5-0.7,3.5-1,4.7c-0.4,2.2,5,1.8,5,1.8s4.3,0,5-1.3
	s-1.8-3.8-2.4-4.3c-0.6-0.5-0.5-7.3-0.5-7.3c2-6.5-7.4-8.4-7.4-8.4c0.4-1.4,0.4-6.8,0.4-9.8c1.1-1.6,2.6-3.4,3.7-4.4
	c2-2.2,2.2-2.4,3.5-2.4c1.6,0,2.2-0.4,2.8-1c0,0-1.3-0.8-3.4-1.3c-2.5-0.5-3.6-0.5-3.6-0.5l-0.5-1.7c0,0,1.3,0.5,2.5,0
	c0.5-0.1,0.6-0.2,0.7-0.4c0.7,0.2,10,3.7,16.7-3.1c1.9-1.9,3.3-5.2,3.7-7.4c0.2-1.2,0.3-2.2,0.1-2.1
	C-45.5,138.6-45.8,139.4-46,140.2z"/>
<path class="st0" d="M-108,140.2c-0.5,1.6-0.5,2.5-3.6,5.8c-6.1,6.4-13.1,3.1-13.1,3.1l0.6-0.7c0,0,8.5,0.5,11.9-5
	c2-3.6,2.6-7,2.5-8c-0.4-2.5-1-0.1-1,0c0,0-0.5,4.2-3.4,7c-4.8,5-7.9,3.7-7.9,3.7s2.3-2.4,3.1-5.4c1.3-4.6,0.5-8-4.2-11.5
	c-5-3.7-11.5-2.6-14.2,0.2c-1.7,1.8-2.2,2.8-3.1,3.8c-1.2,1.3-2.6,0.6-3,1c-0.8,0.8,0.7,1,1.4,1.6c0.6,0.5-1.2,1.3-0.5,1.4
	s2.4-0.5,3-1c0.8-0.6,1.7-1.8,3.6-3.7c2.4-2.5,5.8-3,9-0.5c2.3,1.6,3.4,5,0.8,7.7c-4.2,4.3-11.4,1.6-13.1,1.6
	c-1.6,0-2.5,1.2-3.5,1.3s-4.6,0.5-4.6,0.5s-3.6-2-6.8,0.7c-3.4,2.8-2.2,6.5-5.3,9.5c-0.6,0.6-1,1.6-1.3,2.5c-1,1.1-1.8,2.4-1.6,3.4
	c0,0-9.2,1-11.2,1.9c-1.7,0.8-3.2,1.6-5.4,4.7c0,0-4.2,5.5,1.6,19c0,0,0.5,2.2-0.5,4.7c0,0-1,7-1.1,8.4s-1.6,3,0.5,3.6
	c0,0,7.8,1.3,9-1.1c0.4-0.6,0.2-1.8-1.3-2.6c0,0-0.5-0.8-0.2-2.3c0.2-1.4,2.4-4.6,2.8-6.1c0.4-1.2,0.1-4.7,0.1-4.7s6.8,0,7.3,0
	s2.8,10.2,2.2,11c-0.7,0.7-3,5.3,3.7,3.7l-0.4,1.2c-1.3,2.6,0,3,0,3c4.4,1.4,10,0.1,10.2-1.1c0.2-0.7-1.8-3.5-1.8-3.5
	c0.5-1.4,0-6,0-6c0.5-0.8,1.6-10.4,1.6-10.4c1.3,0,2.6-0.5,2.6-0.5s9.5-1.8,9.6,5.6c0,2.5-0.7,3.5-1,4.7c-0.4,2.2,5,1.8,5,1.8
	s4.3,0,5-1.3s-1.8-3.8-2.4-4.3s-0.5-7.3-0.5-7.3c2-6.5-7.4-8.4-7.4-8.4c0.4-1.4,0.4-6.8,0.4-9.8c1.1-1.6,2.6-3.4,3.7-4.4
	c2-2.2,2.2-2.4,3.5-2.4c1.6,0,2.2-0.4,2.8-1c0,0-1.3-0.8-3.4-1.3c-2.5-0.5-3.6-0.5-3.6-0.5l-0.5-1.7c0,0,1.3,0.5,2.5,0
	c0.5-0.1,0.6-0.2,0.7-0.4c0.7,0.2,10,3.7,16.7-3.1c1.9-1.9,3.3-5.2,3.7-7.4c0.2-1.2,0.3-2.2,0.1-2.1
	C-107.6,138.6-107.8,139.4-108,140.2z"/>
<path class="st1" d="M22.5,140.2c-0.5,1.6-0.5,2.5-3.6,5.8c-6.1,6.4-13.1,3.1-13.1,3.1l0.6-0.7c0,0,8.5,0.5,11.9-5
	c2-3.6,2.6-7,2.5-8c-0.4-2.5-1-0.1-1,0c0,0-0.5,4.2-3.4,7c-4.8,5-7.9,3.7-7.9,3.7s2.3-2.4,3.1-5.4c1.3-4.6,0.5-8-4.2-11.5
	c-5-3.7-11.5-2.6-14.2,0.2c-1.7,1.8-2.2,2.8-3.1,3.8c-1.2,1.3-2.6,0.6-3,1c-0.8,0.8,0.7,1,1.4,1.6c0.6,0.5-1.2,1.3-0.5,1.4
	c0.7,0.1,2.4-0.5,3-1c0.8-0.6,1.7-1.8,3.6-3.7c2.4-2.5,5.8-3,9-0.5c2.3,1.6,3.4,5,0.8,7.7C0.2,144-7,141.3-8.7,141.3
	c-1.6,0-2.5,1.2-3.5,1.3s-4.6,0.5-4.6,0.5s-3.6-2-6.8,0.7c-3.4,2.8-2.2,6.5-5.3,9.5c-0.6,0.6-1,1.6-1.3,2.5c-1,1.1-1.8,2.4-1.6,3.4
	c0,0-9.2,1-11.2,1.9c-1.7,0.8-3.2,1.6-5.4,4.7c0,0-4.2,5.5,1.6,19c0,0,0.5,2.2-0.5,4.7c0,0-1,7-1.1,8.4s-1.6,3,0.5,3.6
	c0,0,7.8,1.3,9-1.1c0.4-0.6,0.2-1.8-1.3-2.6c0,0-0.5-0.8-0.2-2.3c0.2-1.4,2.4-4.6,2.8-6.1c0.4-1.2,0.1-4.7,0.1-4.7s6.8,0,7.3,0
	s2.8,10.2,2.2,11c-0.7,0.7-3,5.3,3.7,3.7l-0.4,1.2c-1.3,2.6,0,3,0,3c4.4,1.4,10,0.1,10.2-1.1c0.2-0.7-1.8-3.5-1.8-3.5
	c0.5-1.4,0-6,0-6c0.5-0.8,1.6-10.4,1.6-10.4c1.3,0,2.6-0.5,2.6-0.5s9.5-1.8,9.6,5.6c0,2.5-0.7,3.5-1,4.7c-0.4,2.2,5,1.8,5,1.8
	s4.3,0,5-1.3s-1.8-3.8-2.4-4.3C3.9,188,4,181.1,4,181.1c2-6.5-7.4-8.4-7.4-8.4c0.4-1.4,0.4-6.8,0.4-9.8c1.1-1.6,2.6-3.4,3.7-4.4
	c2-2.2,2.2-2.4,3.5-2.4c1.6,0,2.2-0.4,2.8-1c0,0-1.3-0.8-3.4-1.3C1,153.3,0,153.3,0,153.3l-0.5-1.7c0,0,1.3,0.5,2.5,0
	c0.5-0.1,0.6-0.2,0.7-0.4c0.7,0.2,10,3.7,16.7-3.1c1.9-1.9,3.3-5.2,3.7-7.4c0.2-1.2,0.3-2.2,0.1-2.1C23,138.6,22.8,139.4,22.5,140.2
	z"/>
<g>
	<path class="st6" d="M109.8,179.7c-1.9-0.2-1.2,1.9-3.3,1.5c-3.6-0.3-5-2.4-9.8-2.6c-2.6,0-4.8,1.5-5.6,1.5c-1.2-0.2-3.4-1-3.3-3.9
		c0.2-2.9,3.6-6.5,8.2-3.3c1.9,1.9,6.3,5.3,9.9,3.3c4.8-2.9,0.9-6.8,0-7s-1,0.7-0.2,1.2c1.9,2.1,1.2,3.6-0.2,4.4
		c-1.4,0.7-3.8,1.9-8.2-2.6c-8.2-6.7-12.3,2.1-12.3,4.3s1.2,6,5.1,6.2c0.7,0,0.9,0.5,0.7,1c-0.2,0.5-0.2,2.9,0.2,3.9
		c0.3,1,0,1-0.9,1.5s-4.3,2.2-4.3,2.2s-0.7,0.7-0.2,1.4s2.4,3.8,4.1,2.9c0.7-0.3-0.7-1.7-2.1-2.6c-0.3-0.3-0.7-0.7,0.5-0.9
		s6-0.9,6.2-4.4c0-0.7,0.2-0.5,0.7-0.2c0.7,0.3,2.6,0.9,2.4,1.9s-0.3,3.3-0.3,4.1c-0.3,0.2-0.7,1.4,1,2.1c1.9,0.5,4.3,1,4.1,0.3
		c0-0.7-2.4-1-3.6-1.5c-0.7-0.3-0.5-0.7,0.2-2.1c0.7-1.2,1.9-4.3,0.7-5.1c-0.5-0.2-0.2-0.7,0.9-0.5c1,0.2,1.4,0.2,0.9,1
		c-0.5,0.7-0.9,1.7-0.3,3.3c0.3,1.5,1.4,4.4,1.4,4.4s0,0.9,0.9,1c0.9,0.2,2.6,0.3,2.6-0.5c0-0.9-1.4-0.7-1.9-0.7s-0.9-0.7-0.7-1.7
		s0.2-4.4,0.9-4.1c0.9,0.2,0,1.5,3.8,5.1c1.2,1.4,2.1,1.4,3.3,1.4s1.5-0.9-0.7-1.2c-1.4-0.2-1,0-1.7-1.4s-1.9-2.4-1.9-3.3
		s1-2.1,1-3.9c0-0.9,0.5-0.9,1.2-0.3c0.7,0.3,2.2,0.2,2.9-0.7c0.7-0.9,0.2-1.5-0.3-2.4C111.7,181.2,112.2,179.9,109.8,179.7z"/>
	<path class="st7" d="M78.5,179.7c-1.9-0.2-1.2,1.9-3.3,1.5c-3.6-0.3-5-2.4-9.8-2.6c-2.6,0-4.8,1.5-5.6,1.5c-1.2-0.2-3.4-1-3.3-3.9
		c0.2-2.9,3.6-6.5,8.2-3.3c1.9,1.9,6.3,5.3,9.9,3.3c4.8-2.9,0.9-6.8,0-7s-1,0.7-0.2,1.2c1.9,2.1,1.2,3.6-0.2,4.4
		c-1.4,0.7-3.8,1.9-8.2-2.6c-8.2-6.7-12.3,2.1-12.3,4.3s1.2,6,5.1,6.2c0.7,0,0.9,0.5,0.7,1s-0.2,2.9,0.2,3.9c0.3,1,0,1-0.9,1.5
		s-4.3,2.2-4.3,2.2s-0.7,0.7-0.2,1.4s2.4,3.8,4.1,2.9c0.7-0.3-0.7-1.7-2.1-2.6c-0.3-0.3-0.7-0.7,0.5-0.9s6-0.9,6.2-4.4
		c0-0.7,0.2-0.5,0.7-0.2c0.7,0.3,2.6,0.9,2.4,1.9s-0.3,3.3-0.3,4.1c-0.3,0.2-0.7,1.4,1,2.1c1.9,0.5,4.3,1,4.1,0.3
		c0-0.7-2.4-1-3.6-1.5c-0.7-0.3-0.5-0.7,0.2-2.1c0.7-1.2,1.9-4.3,0.7-5.1c-0.5-0.2-0.2-0.7,0.9-0.5c1,0.2,1.4,0.2,0.9,1
		c-0.5,0.7-0.9,1.7-0.3,3.3c0.3,1.5,1.4,4.4,1.4,4.4s0,0.9,0.9,1c0.9,0.2,2.6,0.3,2.6-0.5c0-0.9-1.4-0.7-1.9-0.7s-0.9-0.7-0.7-1.7
		c0.2-1,0.2-4.4,0.9-4.1c0.9,0.2,0,1.5,3.8,5.1c1.2,1.4,2.1,1.4,3.3,1.4c1.2,0,1.5-0.9-0.7-1.2c-1.4-0.2-1,0-1.7-1.4
		s-1.9-2.4-1.9-3.3s1-2.1,1-3.9c0-0.9,0.5-0.9,1.2-0.3c0.7,0.3,2.2,0.2,2.9-0.7c0.7-0.9,0.2-1.5-0.3-2.4
		C80.4,181.2,80.9,179.9,78.5,179.7z"/>
	<path class="st8" d="M47.3,179.7c-1.9-0.2-1.2,1.9-3.3,1.5c-3.6-0.3-5-2.4-9.8-2.6c-2.6,0-4.8,1.5-5.6,1.5c-1.2-0.2-3.4-1-3.3-3.9
		c0.2-2.9,3.6-6.5,8.2-3.3c1.9,1.9,6.3,5.3,9.9,3.3c4.8-2.9,0.9-6.8,0-7s-1,0.7-0.2,1.2c1.9,2.1,1.2,3.6-0.2,4.4
		c-1.4,0.7-3.8,1.9-8.2-2.6c-8.2-6.7-12.3,2.1-12.3,4.3s1.2,6,5.1,6.2c0.7,0,0.9,0.5,0.7,1c-0.2,0.5-0.2,2.9,0.2,3.9
		c0.3,1,0,1-0.9,1.5s-4.3,2.2-4.3,2.2s-0.7,0.7-0.2,1.4s2.4,3.8,4.1,2.9c0.7-0.3-0.7-1.7-2.1-2.6c-0.3-0.3-0.7-0.7,0.5-0.9
		s6-0.9,6.2-4.4c0-0.7,0.2-0.5,0.7-0.2c0.7,0.3,2.6,0.9,2.4,1.9s-0.3,3.3-0.3,4.1c-0.3,0.2-0.7,1.4,1,2.1c1.9,0.5,4.3,1,4.1,0.3
		c0-0.7-2.4-1-3.6-1.5c-0.7-0.3-0.5-0.7,0.2-2.1c0.7-1.2,1.9-4.3,0.7-5.1c-0.5-0.2-0.2-0.7,0.9-0.5c1,0.2,1.4,0.2,0.9,1
		c-0.5,0.7-0.9,1.7-0.3,3.3c0.3,1.5,1.4,4.4,1.4,4.4s0,0.9,0.9,1c0.9,0.2,2.6,0.3,2.6-0.5c0-0.9-1.4-0.7-1.9-0.7s-0.9-0.7-0.7-1.7
		s0.2-4.4,0.9-4.1c0.9,0.2,0,1.5,3.8,5.1c1.2,1.4,2.1,1.4,3.3,1.4s1.5-0.9-0.7-1.2c-1.4-0.2-1,0-1.7-1.4s-1.9-2.4-1.9-3.3
		s1-2.1,1-3.9c0-0.9,0.5-0.9,1.2-0.3c0.7,0.3,2.2,0.2,2.9-0.7s0.2-1.5-0.3-2.4C49.2,181.2,49.7,179.9,47.3,179.7z"/>
</g>
<g>
	<path class="st5" d="M14.4,97.9h1.1c-0.9-3.3-1.8-6-2.6-9.4c1.1,1,2,2.9,2.9,5.1c-0.1-0.5-0.1-1-0.2-1.4c-0.2-1-0.4-2-0.7-2.8
		c-0.3-0.9-0.6-1.7-0.9-2.4c-0.3,0.1-0.8-0.1-1.1-0.7c-1-1.6,0.2-2.6,1-1.2c0.3,0.6,0.5,1.2,0.3,1.6c0.3,0.7,0.6,1.5,0.9,2.4
		c0.1,0.2,0.1,0.4,0.2,0.6c-0.1-1-0.2-2.1-0.2-3c0.8,2.4,1.5,5.5,2.1,8.5c-0.2-1.5-0.2-2.8,0.1-4c0.5,1.9,0.7,3.6,1.1,5.5
		c-0.1-1.5-0.2-2.9-0.4-4.1c-0.2-1.2-0.4-2.2-0.7-3.1c-0.4,0.1-0.9-0.4-1.2-1.2c-0.9-2.2,0.5-3,1.4-1.1c0.3,0.8,0.4,1.6,0.1,2
		c0.2,0.6,0.4,1.4,0.5,2.1c0-0.7,0-1.4,0-2c0.1-1.1,0.2-2.2,0.3-3.1c-0.3-0.3-0.3-1.1-0.1-1.9c0.5-2,2-1.6,1.4,0.6
		c-0.2,0.8-0.6,1.3-1,1.4c-0.2,0.9-0.3,1.9-0.3,3c-0.1,1.3,0,2.6,0,4.1c0,0.2,0,0.3,0,0.5c0.1,0.8,0.2,1.6,0.2,2.5
		c0-0.3,0.1-0.6,0.1-0.9c-0.1-1.4-0.1-2.6,0-3.8c0.1-1.1,0.2-2.2,0.3-3.1c-0.3-0.3-0.3-1.1-0.1-1.9c0.5-2,2-1.6,1.4,0.6
		c-0.2,0.8-0.6,1.3-1,1.4c-0.2,0.9-0.3,1.9-0.3,3c0,0.7,0,1.4,0,2.2c0.3-1.6,0.7-3.1,1.1-4.4c0.2-1.3,0.4-2.6,0.6-3.6
		s0.5-1.8,0.8-2.5c-0.2-0.4-0.1-1,0.2-1.6c0.8-1.5,2-0.6,1.1,1c-0.3,0.6-0.7,0.9-1.1,0.8c-0.3,0.7-0.5,1.6-0.8,2.5
		c-0.2,0.7-0.3,1.5-0.4,2.3c0.2-0.5,0.5-1,0.7-1.4c-0.3,2.2-0.7,5-1.1,8.2c0.6-1.8,1.2-3.3,2-4.2c0.1-0.4,0.2-0.8,0.3-1.2
		c0.3-0.9,0.6-1.7,0.9-2.4c-0.2-0.4,0-1.1,0.3-1.6c0.9-1.4,2-0.4,1,1.2c-0.3,0.6-0.8,0.8-1.1,0.7c-0.3,0.7-0.6,1.5-0.9,2.4
		c0,0.2-0.1,0.3-0.1,0.5l0.1-0.1c-0.2,0.7-0.3,1.4-0.5,2c-0.1,0.3-0.1,0.6-0.2,1c0,0.2-0.1,0.4-0.1,0.6c1-1.9,2.2-3.4,3.6-4.3
		c-0.9,2.9-1.9,5.3-3,7.9h0.9h-8.9V97.9z M21.6,94.7L21.5,95L21.6,94.7L21.6,94.7z M22,92.2L22,92.2c-0.5,1.5-1.1,3.5-1.8,5.7H20
		C20.8,95.4,21.5,93.3,22,92.2z M18,97.9h0.1c-0.4-2.1-0.7-4-0.8-5.4C17.4,93.6,17.7,95.6,18,97.9z M16.1,97.9h0.2v-0.3
		c-1.1-3.4-2-6.2-2.6-7.4C14.4,92,15.2,94.8,16.1,97.9z M17.1,97.9c-0.1-0.4-0.3-0.9-0.4-1.3l-0.8-4.9L17.1,97.9L17.1,97.9z
		 M21.3,97.9h0.3c1.1-2.5,2-4.7,2.9-6.2C23.7,92.8,22.6,95.1,21.3,97.9z M19.2,97.9h0.2c0.4-2.9,0.8-5.3,1.2-7.2
		c-0.4,1.4-0.8,3.7-1.3,6.8l0,0l0,0L19.2,97.9z"/>
</g>
<path class="st5" d="M69.2,97.8c-0.2-0.1-0.4-0.3-0.5-0.5c-0.7-1.2-4-5.1-3.8-5.4c0.1-0.1,0.8,0.5,1.4,1.1c0.8,0.7,1.3,1.4,1.3,1.4
	s-3.4-4-3.1-4.4c0.1-0.2,1.3,0.5,2.2,1.5c1.1,1.2,1.5,2.4,1.6,2.4c0.1-0.1-4.1-10.1-3.8-10.3c0.2-0.1,1.5,2.2,2.1,3.3
	c1.3,2.3,1.7,3.6,2,3.5c0.5-0.2-0.2-3.9,0-3.9c0.1,0,0.4,1.3,0.6,2.7c0.3,1.7,0.3,2.7,0.4,2.7c0.2,0-0.2-10.5,0.1-10.5
	c0.2,0,0.7,5.5,0.8,5.5c0.1,0-0.1-2.1,0.1-5c0.2-2.6,0.6-5,0.8-5c0.1,0,0.1,0.7,0,5.2c-0.1,3.5-0.1,5.2,0,5.2s0.1-1.5,0.5-3.8
	c0.3-1.6,0.7-3.7,0.8-3.7s-0.1,3.3-0.5,6.3c-0.1,0.8-0.3,2.2-0.2,2.2c0.1,0,0.3-1.6,1.2-3.4c0.1-0.2,0.8-1.7,1-1.6
	c0.4,0.2-2.2,8.3-2.1,8.3c0,0,0.3-0.8,0.7-1.9c0.8-2.1,2-4.3,2.2-4.2c0.3,0.2-2.5,7.7-2.4,7.8c0.1,0.1,2.6-6.4,2.8-6.3
	c0.2,0.1-2.1,7-1.8,7.2c0.3,0.1,2-4.4,2.2-4.3c0.1,0.1-0.3,2.1-1.2,4c-0.3,0.6-0.5,1-0.5,1.1c0.1,0.1,2.2-3.6,2.4-3.5
	c0.1,0.1-0.4,1.6-1.3,2.9c-0.6,0.9-1.2,1.5-1.1,1.6s0.4-0.4,1.1-0.9c0.8-0.6,1.8-1,1.8-0.9c0.1,0.2-1.6,0.9-3.2,2.9
	c-0.7,0.8-0.8,1.1-1.3,1.2c-1,0.2-1.7-1.1-2.7-0.7C69.8,97.7,69.5,97.9,69.2,97.8z"/>
<path class="st5" d="M80.2,97.9c-1-0.3-1.7,0.7-2.7,0.5c-0.5-0.1-0.6-0.3-1.3-1c-1.6-1.6-3.3-2.1-3.2-2.2c0.1-0.1,1,0.2,1.8,0.7
	c0.6,0.4,1,0.7,1.1,0.7s-0.6-0.5-1.1-1.2c-0.9-1-1.4-2.2-1.3-2.2c0.2-0.1,2.3,2.7,2.4,2.7c0,0-0.2-0.4-0.5-0.8c-0.9-1.5-1.3-3-1.2-3
	c0.2-0.1,2,3.4,2.2,3.3c0.3-0.1-2-5.5-1.8-5.5c0.2-0.1,2.7,4.9,2.8,4.8c0.1-0.1-2.7-5.9-2.4-6c0.2-0.1,1.3,1.6,2.2,3.2
	c0.4,0.8,0.7,1.5,0.7,1.5c0.1,0-2.5-6.2-2.1-6.4c0.2-0.1,0.9,1,1,1.2c0.9,1.4,1.2,2.6,1.2,2.6s-0.1-1.1-0.2-1.7
	c-0.4-2.3-0.6-4.8-0.5-4.9c0.1,0,0.6,1.6,0.8,2.8c0.4,1.8,0.5,2.9,0.5,2.9c0.1,0,0-1.3,0-4c-0.1-3.5-0.1-4,0-4
	c0.2,0,0.6,1.8,0.8,3.8c0.2,2.2,0,3.9,0.1,3.9s0.6-4.3,0.8-4.3c0.3,0-0.1,8.1,0.1,8.1c0,0,0.1-0.8,0.4-2.1c0.2-1,0.5-2.1,0.6-2.1
	c0.2,0-0.5,2.9,0,3c0.3,0.1,0.7-0.9,2-2.7c0.6-0.8,1.9-2.6,2.1-2.5c0.3,0.2-3.9,7.9-3.8,7.9c0,0,0.5-0.9,1.6-1.9
	c0.9-0.8,2.1-1.3,2.2-1.2c0.3,0.3-3.1,3.4-3.1,3.4s0.5-0.5,1.3-1c0.6-0.4,1.3-0.9,1.4-0.8c0.2,0.2-3.1,3.2-3.8,4.1
	c-0.1,0.2-0.3,0.3-0.5,0.4C80.7,98.1,80.5,98,80.2,97.9z"/>
<path class="st5" d="M82.8,96.7c-0.2-0.1-0.3-0.3-0.4-0.5c-0.5-1.2-3-5.1-2.8-5.4c0.1-0.1,0.6,0.5,1,1.1c0.6,0.7,1,1.4,1,1.4
	s-2.5-4-2.3-4.4c0.1-0.2,1,0.5,1.7,1.5c0.8,1.2,1.1,2.4,1.2,2.4c0.1-0.1-3-10.1-2.8-10.3c0.1-0.1,1.1,2.2,1.6,3.3
	c0.9,2.3,1.3,3.6,1.5,3.5c0.3-0.2-0.1-3.9,0-3.9s0.3,1.3,0.5,2.7c0.2,1.7,0.2,2.7,0.3,2.7c0.1,0-0.2-10.5,0.1-10.5
	c0.2,0,0.5,5.5,0.6,5.5s-0.1-2.1,0.1-5c0.1-2.6,0.5-5,0.6-5s0.1,0.7,0,5.2c-0.1,3.5-0.1,5.2,0,5.2s0.1-1.5,0.4-3.8
	c0.2-1.6,0.5-3.7,0.6-3.7s0,3.3-0.4,6.3c-0.1,0.8-0.2,2.2-0.2,2.2s0.2-1.6,0.9-3.4c0.1-0.2,0.6-1.7,0.7-1.6c0.3,0.2-1.6,8.3-1.5,8.3
	c0,0,0.2-0.8,0.5-1.9c0.6-2.1,1.5-4.3,1.6-4.2c0.2,0.2-1.9,7.7-1.8,7.8c0.1,0.1,1.9-6.4,2.1-6.3s-1.5,7-1.3,7.2
	c0.2,0.1,1.5-4.4,1.6-4.3s-0.2,2.1-0.9,4c-0.2,0.6-0.4,1-0.4,1.1c0.1,0.1,1.7-3.6,1.8-3.5c0.1,0.1-0.3,1.6-1,2.9
	c-0.4,0.9-0.9,1.5-0.8,1.6c0,0,0.3-0.4,0.8-0.9c0.6-0.6,1.3-1,1.4-0.9c0.1,0.2-1.2,0.9-2.3,2.9c-0.5,0.8-0.6,1.1-1,1.2
	c-0.7,0.2-1.2-1.1-2-0.7C83.3,96.6,83.1,96.8,82.8,96.7z"/>
<g>
	<path class="st5" d="M93.5,81.2c0-0.1,0-0.2,0-0.2c0-0.3,0-0.6,0-0.8c0-0.7,0-1.3,0-1.8c-0.1-0.1-0.2-0.5-0.2-1
		c-0.1-1.3,0.2-1.4,0.3-0.1c0,0.5,0,0.9-0.1,1.1c0,0.6,0,1.3,0,1.9c0.1-0.4,0.3-1.6,0.5-2.1c-0.1,0.7-0.4,2.3-0.4,3.3
		c0.1-0.6,0.6-1.8,1-2.4c-0.2,0.5-0.6,1.8-0.7,2.6c0.2-0.5,0.7-1,1.1-1.4c-0.4,0.9-1.1,2.1-1.1,4h-0.8c-0.3-2.1-0.7-3.6-1.1-4.4
		c0.6,0.6,1.1,1.7,1.3,2.5c-0.2-1.6-0.5-2.9-0.6-3.9C93,79.3,93.5,80.5,93.5,81.2z"/>
</g>
<g>
	<path class="st5" d="M4.9,81.2c0-0.1,0-0.2,0-0.2c0-0.3,0-0.6,0-0.8c0-0.7,0-1.3,0-1.8c-0.1-0.1-0.2-0.5-0.2-1
		C4.6,76.1,5,75.9,5,77.2c0,0.5,0,0.9-0.1,1.1c0,0.6,0,1.3,0,1.9c0.1-0.4,0.3-1.6,0.5-2.1C5.3,78.8,5,80.4,5,81.4
		c0.1-0.6,0.6-1.8,1-2.4c-0.2,0.5-0.6,1.8-0.7,2.6c0.2-0.5,0.7-1,1.1-1.4c-0.4,0.9-1.1,2.1-1.1,4H4.5c-0.3-2.1-0.7-3.6-1.1-4.4
		c0.6,0.6,1.1,1.7,1.3,2.5c-0.2-1.6-0.5-2.9-0.6-3.9C4.3,79.3,4.8,80.5,4.9,81.2z"/>
</g>
<path class="st3" d="M42.7,98c0-0.3-0.1-0.6-0.3-0.9c-0.2-0.3-0.3-0.6-0.5-0.9c-0.4-0.6-0.7-1.1-1.1-1.6l0,0l0-0.1
	c0.1-0.5,0.2-1,0.2-1.5c0-0.5,0-1,0-1.5c0-1-0.1-2-0.1-3c0.2,1,0.3,2,0.3,3c0,0.5,0,1,0,1.5c0,0.5-0.1,1-0.2,1.5l0-0.1
	c0.4,0.5,0.7,1.1,1.1,1.7c0.2,0.3,0.3,0.6,0.4,0.9C42.6,97.3,42.7,97.7,42.7,98z"/>
</svg>
