<?xml version="1.0" encoding="utf-8"?>
<!-- Generator: Adobe Illustrator 22.1.0, SVG Export Plug-In . SVG Version: 6.00 Build 0)  -->
<svg version="1.1" id="Layer_1" xmlns="http://www.w3.org/2000/svg" xmlns:xlink="http://www.w3.org/1999/xlink" x="0px" y="0px"
	 viewBox="0 0 100 62.3" style="enable-background:new 0 0 100 62.3;" xml:space="preserve">
<style type="text/css">
	.st0{fill:#19382B;}
	.st1{fill:#244F3B;}
	.st2{fill:#163024;}
	.st3{fill:#9D1C1F;}
	.st4{fill:#680E10;}
	.st5{fill:#330000;}
</style>
<rect x="86.3" y="102.1" class="st0" width="107.3" height="120.5"/>
<path class="st1" d="M63.2,32.3l0.1,0.4c0,0.1,0.1,0.1,0.3,0.3l0.4,0.1l-0.4,0.1c-0.1,0-0.1,0.1-0.3,0.3L63.2,34L63,33.6
	c0-0.1-0.1-0.1-0.3-0.3l-0.4-0.1l0.4-0.1c0.1,0,0.1-0.1,0.3-0.3L63.2,32.3z"/>
<path class="st1" d="M47.6,25.8l0.1,0.3c0,0.1,0.1,0.2,0.2,0.2l0.3,0.1l-0.3,0.1c-0.1,0-0.2,0.1-0.2,0.2L47.6,27l-0.1-0.3
	c0-0.1-0.1-0.2-0.2-0.2L47,26.3l0.3-0.1c0.1,0,0.2-0.1,0.2-0.2L47.6,25.8z"/>
<path class="st1" d="M57.3,85.2l0.1,0.3c0,0.1,0.1,0.2,0.2,0.2l0.3,0.1l-0.3,0.1c-0.1,0-0.2,0.1-0.2,0.2l-0.1,0.3l-0.1-0.3
	c0-0.1-0.1-0.2-0.2-0.2l-0.3-0.1l0.3-0.1c0.1,0,0.2-0.1,0.2-0.2L57.3,85.2z"/>
<path class="st1" d="M46.8,28l0.1,0.3c0,0.1,0.1,0.3,0.3,0.3l0.3,0.1l-0.3,0.1c-0.1,0-0.3,0.1-0.3,0.3l-0.1,0.3l-0.1-0.3
	c0-0.1-0.1-0.3-0.3-0.3l-0.3-0.1l0.3-0.1c0.1,0,0.3-0.1,0.3-0.3L46.8,28z"/>
<path class="st1" d="M45,31.6l0.1,0.3c0,0.1,0.1,0.2,0.2,0.2l0.3,0.1l-0.3,0.1c-0.1,0-0.2,0.1-0.2,0.2L45,32.9l-0.1-0.3
	c0-0.1-0.1-0.2-0.2-0.2l-0.3-0.1l0.3-0.1c0.1,0,0.2-0.1,0.2-0.2L45,31.6z"/>
<path class="st1" d="M54.4,86.5l0.1,0.4c0,0.1,0.1,0.2,0.2,0.2l0.4,0.1l-0.4,0.1c-0.1,0-0.2,0.1-0.2,0.2l-0.1,0.4l-0.1-0.4
	c0-0.1-0.1-0.2-0.2-0.2l-0.4-0.1l0.4-0.1c0.1,0,0.2-0.1,0.2-0.2L54.4,86.5z"/>
<path class="st1" d="M70,30.7l0.1,0.5c0,0.1,0.1,0.3,0.4,0.4l0.5,0.1l-0.5,0.1c-0.1,0-0.3,0.1-0.4,0.4L70,32.6l-0.1-0.5
	c0-0.1-0.1-0.3-0.4-0.4L69,31.6l0.5-0.1c0.1,0,0.3-0.1,0.4-0.4L70,30.7z"/>
<path class="st1" d="M52.4,36.3l0.1,0.4c0,0.1,0.1,0.3,0.3,0.3l0.4,0.1l-0.4,0.1c-0.1,0-0.3,0.1-0.3,0.3l-0.1,0.4l-0.1-0.4
	c0-0.1-0.1-0.3-0.3-0.3l-0.4-0.1L52,37c0.1,0,0.3-0.1,0.3-0.3L52.4,36.3z"/>
<path class="st1" d="M52.7,23.2l0.1,0.3c0,0.1,0.1,0.2,0.2,0.2l0.3,0.1L53,24c-0.1,0-0.2,0.1-0.2,0.2l-0.1,0.3l-0.1-0.3
	c0-0.1-0.1-0.2-0.2-0.2L52,23.8l0.3-0.1c0.1,0,0.2-0.1,0.2-0.2L52.7,23.2z"/>
<path class="st1" d="M56.5,81.3l0.1,0.4c0,0.1,0.1,0.2,0.4,0.4l0.4,0.1L57,82.3c-0.1,0-0.2,0.1-0.4,0.4l-0.1,0.4l-0.1-0.4
	c0-0.1-0.1-0.2-0.4-0.4l-0.4-0.1l0.4-0.1c0.1,0,0.2-0.1,0.4-0.4L56.5,81.3z"/>
<path class="st1" d="M47.8,22.4l0.1,0.4c0,0.1,0.1,0.3,0.3,0.3l0.4,0.1l-0.4,0.1c-0.1,0-0.3,0.1-0.3,0.3L47.8,24l-0.1-0.4
	c0-0.1-0.1-0.3-0.3-0.3L47,23.2l0.4-0.1c0.1,0,0.3-0.1,0.3-0.3L47.8,22.4z"/>
<path class="st1" d="M79,31.9l0.1,0.4c0,0.1,0.1,0.3,0.3,0.3l0.4,0.1l-0.4,0.1c-0.1,0-0.3,0.1-0.3,0.3L79,33.6l-0.1-0.4
	c0-0.1-0.1-0.3-0.3-0.3l-0.4-0.1l0.4-0.1c0.1,0,0.3-0.1,0.3-0.3L79,31.9z"/>
<path class="st1" d="M67.1,27.7l0.1,0.4c0,0.1,0.1,0.1,0.3,0.3l0.4,0.1l-0.4,0.1c-0.1,0-0.1,0.1-0.3,0.3l-0.1,0.4L66.9,29
	c0-0.1-0.1-0.1-0.3-0.3l-0.4-0.1l0.4-0.1c0.1,0,0.1-0.1,0.3-0.3L67.1,27.7z"/>
<path class="st1" d="M67,37.3l0.1,0.4c0,0.1,0.1,0.3,0.3,0.3l0.4,0.1l-0.4,0.1c-0.1,0-0.3,0.1-0.3,0.3L67,39l-0.1-0.4
	c0-0.1-0.1-0.3-0.3-0.3l-0.4-0.1l0.4-0.1c0.1,0,0.3-0.1,0.3-0.3L67,37.3z"/>
<path class="st1" d="M60.8,22.7l0.1,0.3c0,0.1,0.1,0.2,0.2,0.2l0.3,0.1l-0.3,0.1c-0.1,0-0.2,0.1-0.2,0.2l-0.1,0.3l-0.1-0.3
	c0-0.1-0.1-0.2-0.2-0.2l-0.3-0.1l0.3-0.1c0.1,0,0.2-0.1,0.2-0.2L60.8,22.7z"/>
<path class="st1" d="M77,36.4l0.1,0.3c0,0.1,0.1,0.1,0.2,0.2l0.3,0.1l-0.3,0.1c-0.1,0-0.1,0.1-0.2,0.2L77,37.7l-0.1-0.3
	c0-0.1-0.1-0.1-0.2-0.2L76.3,37l0.3-0.1c0.1,0,0.1-0.1,0.2-0.2L77,36.4z"/>
<path class="st1" d="M56,23.1l0.1,0.3c0,0.1,0.1,0.1,0.1,0.1l0.3,0.1l-0.3,0.1c-0.1,0-0.1,0.1-0.1,0.1L56,24l-0.1-0.3
	c0-0.1-0.1-0.1-0.1-0.1l-0.3-0.1l0.3-0.1c0.1,0,0.1-0.1,0.1-0.1L56,23.1z"/>
<path class="st1" d="M80.2,29.1l0.1,0.3c0,0.1,0.1,0.2,0.2,0.2l0.3,0.1l-0.3,0.1c-0.1,0-0.2,0.1-0.2,0.2l-0.1,0.3L80.1,30
	c0-0.1-0.1-0.2-0.2-0.2l-0.3-0.1l0.3-0.1c0.1,0,0.2-0.1,0.2-0.2L80.2,29.1z"/>
<path class="st1" d="M61.8,30.3l0.1,0.4c0,0.1,0.1,0.3,0.3,0.3l0.4,0.1l-0.4,0.1c-0.1,0-0.3,0.1-0.3,0.3L61.8,32l-0.1-0.4
	c0-0.1-0.1-0.3-0.3-0.3L61,31.2l0.4-0.1c0.1,0,0.3-0.1,0.3-0.3L61.8,30.3z"/>
<path class="st1" d="M40.1,30.1l0.1,0.3c0,0.1,0.1,0.2,0.2,0.2l0.3,0.1l-0.3,0.1c-0.1,0-0.2,0.1-0.2,0.2l-0.1,0.3L40,31.1
	c0-0.1-0.1-0.2-0.2-0.2l-0.3-0.1l0.3-0.1c0.1,0,0.2-0.1,0.2-0.2L40.1,30.1z"/>
<path class="st1" d="M70,38l0.1,0.3c0,0.1,0.1,0.1,0.1,0.1l0.3,0.1l-0.3,0.1c-0.1,0-0.1,0.1-0.1,0.1L70,39l-0.1-0.3
	c0-0.1-0.1-0.1-0.1-0.1l-0.3-0.1l0.3-0.1c0.1,0,0.1-0.1,0.1-0.1L70,38z"/>
<path class="st1" d="M70.4,71.3l0.1,0.4c0,0.1,0.1,0.1,0.3,0.3l0.4,0.1l-0.4,0.1c-0.1,0-0.1,0.1-0.3,0.3l-0.1,0.4l-0.1-0.4
	c0-0.1-0.1-0.1-0.3-0.3l-0.4-0.1L70,72c0.1,0,0.1-0.1,0.3-0.3L70.4,71.3z"/>
<path class="st1" d="M75.6,29.5l0.1,0.3c0,0.1,0.1,0.1,0.1,0.1l0.3,0.1l-0.3,0.1c-0.1,0-0.1,0.1-0.1,0.1l-0.1,0.3l-0.1-0.3
	c0-0.1-0.1-0.1-0.1-0.1L75.1,30l0.3-0.1c0.1,0,0.1-0.1,0.1-0.1L75.6,29.5z"/>
<path class="st1" d="M41.9,24.2l0.1,0.3c0,0.1,0.1,0.1,0.1,0.1l0.3,0.1l-0.3,0.1c-0.1,0-0.1,0.1-0.1,0.1l-0.1,0.3l-0.1-0.3
	c0-0.1-0.1-0.1-0.1-0.1l-0.3-0.1l0.3-0.1c0.1,0,0.1-0.1,0.1-0.1L41.9,24.2z"/>
<path class="st1" d="M40.4,25.3l0.1,0.3c0,0.1,0.1,0.2,0.2,0.2l0.3,0.1L40.7,26c-0.1,0-0.2,0.1-0.2,0.2l-0.1,0.3l-0.1-0.3
	c0-0.1-0.1-0.2-0.2-0.2l-0.3-0.1l0.3-0.1c0.1,0,0.2-0.1,0.2-0.2L40.4,25.3z"/>
<path class="st1" d="M50.7,81.9l0.2,0.9c0,0.2,0.2,0.4,0.6,0.6l0.9,0.2l-0.9,0.2c-0.2,0-0.4,0.2-0.6,0.6l-0.2,0.9l-0.2-0.9
	c0-0.2-0.2-0.4-0.6-0.6L49,83.6l0.9-0.2c0.2,0,0.4-0.2,0.6-0.6L50.7,81.9z"/>
<path class="st1" d="M49.6,34.6l0.1,0.4c0,0.1,0.1,0.3,0.3,0.3l0.4,0.1L50,35.6c-0.1,0-0.3,0.1-0.3,0.3l-0.1,0.4l-0.1-0.4
	c0-0.1-0.1-0.3-0.3-0.3l-0.4-0.1l0.4-0.1c0.1,0,0.3-0.1,0.3-0.3L49.6,34.6z"/>
<path class="st1" d="M49.7,88.6l0.1,0.4c0,0.1,0.1,0.2,0.2,0.2l0.4,0.1L50,89.4c-0.1,0-0.2,0.1-0.2,0.2L49.7,90l-0.1-0.4
	c0-0.1-0.1-0.2-0.2-0.2L49,89.3l0.4-0.1c0.1,0,0.2-0.1,0.2-0.2L49.7,88.6z"/>
<path class="st1" d="M73.2,33.2l0.1,0.4c0,0.1,0.1,0.1,0.3,0.3L74,34l-0.4,0.1c-0.1,0-0.1,0.1-0.3,0.3l-0.1,0.4l-0.1-0.4
	c0-0.1-0.1-0.1-0.3-0.3L72.4,34l0.4-0.1c0.1,0,0.1-0.1,0.3-0.3L73.2,33.2z"/>
<path class="st1" d="M65.1,63.9l0.1,0.5c0,0.1,0.1,0.3,0.3,0.3l0.5,0.1l-0.5,0.1c-0.1,0-0.3,0.1-0.3,0.3l-0.1,0.5L65,65.2
	c0-0.1-0.1-0.3-0.3-0.3l-0.5-0.1l0.5-0.1c0.1,0,0.3-0.1,0.3-0.3L65.1,63.9z"/>
<path class="st1" d="M50.8,28l0.1,0.2c0,0.1,0.1,0.1,0.1,0.1l0.2,0.1L51,28.5c-0.1,0-0.1,0.1-0.1,0.1l-0.1,0.2l-0.1-0.2
	c0-0.1-0.1-0.1-0.1-0.1l-0.2-0.1l0.2-0.1c0.1,0,0.1-0.1,0.1-0.1L50.8,28z"/>
<path class="st1" d="M51.2,21.1l0.1,0.3c0,0.1,0.1,0.2,0.2,0.2l0.3,0.1l-0.3,0.1c-0.1,0-0.2,0.1-0.2,0.2l-0.1,0.3L51.1,22
	c0-0.1-0.1-0.2-0.2-0.2l-0.3-0.1l0.3-0.1c0.1,0,0.2-0.1,0.2-0.2L51.2,21.1z"/>
<path class="st1" d="M65.5,34.4l0.1,0.4c0,0.1,0.1,0.3,0.3,0.3l0.4,0.1l-0.4,0.1c-0.1,0-0.3,0.1-0.3,0.3L65.5,36l-0.1-0.4
	c0-0.1-0.1-0.3-0.3-0.3l-0.4-0.1l0.4-0.1c0.1,0,0.3-0.1,0.3-0.3L65.5,34.4z"/>
<path class="st1" d="M56.4,26.5l0.1,0.3c0,0.1,0.1,0.1,0.1,0.1l0.3,0.1l-0.3,0.1c-0.1,0-0.1,0.1-0.1,0.1l-0.1,0.3l-0.1-0.3
	c0-0.1-0.1-0.1-0.1-0.1L55.9,27l0.3-0.1c0.1,0,0.1-0.1,0.1-0.1L56.4,26.5z"/>
<path class="st1" d="M82.6,31.2l0.1,0.3c0,0.1,0.1,0.1,0.1,0.1l0.3,0.1l-0.3,0.1c-0.1,0-0.1,0.1-0.1,0.1l-0.1,0.3l-0.1-0.3
	c0-0.1-0.1-0.1-0.1-0.1l-0.3-0.1l0.3-0.1c0.1,0,0.1-0.1,0.1-0.1L82.6,31.2z"/>
<path class="st1" d="M71.4,39.7l0.1,0.4c0,0.1,0.1,0.1,0.3,0.3l0.4,0.1l-0.4,0.1c-0.1,0-0.1,0.1-0.3,0.3l-0.1,0.4L71.3,41
	c0-0.1-0.1-0.1-0.3-0.3l-0.4-0.1l0.4-0.1c0.1,0,0.1-0.1,0.3-0.3L71.4,39.7z"/>
<path class="st1" d="M39.2,17.6l0.1,0.4c0,0.1,0.1,0.2,0.3,0.3l0.4,0.1l-0.4,0.1c-0.1,0-0.2,0.1-0.3,0.3L39.2,19l-0.1-0.4
	c0-0.1-0.1-0.2-0.3-0.3l-0.4-0.1l0.4-0.1c0.1,0,0.2-0.1,0.3-0.3L39.2,17.6z"/>
<path class="st1" d="M42.7,17l0.1,0.3c0,0.1,0.1,0.1,0.3,0.3l0.3,0.1l-0.4,0c-0.1,0-0.1,0.1-0.3,0.3l-0.1,0.3l0-0.3
	c0-0.1-0.1-0.1-0.3-0.3H42l0.3-0.1c0.1,0,0.1-0.1,0.3-0.3L42.7,17z"/>
<path class="st1" d="M45.3,19.6l0.1,0.6c0,0.1,0.1,0.3,0.3,0.3l0.6,0.1l-0.6,0.1c-0.1,0-0.3,0.1-0.3,0.3l-0.1,0.6L45.1,21
	c0-0.1-0.1-0.3-0.3-0.3l-0.6-0.1l0.6-0.1c0.1,0,0.3-0.1,0.3-0.3L45.3,19.6z"/>
<path class="st1" d="M67,31.9l0.1,0.4c0,0.1,0.1,0.3,0.3,0.3l0.4,0.1l-0.4,0.1c-0.1,0-0.3,0.1-0.3,0.3L67,33.6l-0.1-0.4
	c0-0.1-0.1-0.3-0.3-0.3l-0.4-0.1l0.4-0.1c0.1,0,0.3-0.1,0.3-0.3L67,31.9z"/>
<path class="st1" d="M47.4,30.2l0.1,0.6c0,0.1,0.1,0.3,0.3,0.3l0.6,0.1l-0.6,0.1c-0.1,0-0.3,0.1-0.3,0.3l-0.1,0.6l-0.1-0.6
	c0-0.1-0.1-0.3-0.3-0.3l-0.6-0.1L47,31c0.1,0,0.3-0.1,0.3-0.3L47.4,30.2z"/>
<path class="st1" d="M65.2,68.3l0.2,0.6c0,0.2,0.2,0.4,0.4,0.4l0.6,0.2l-0.6,0.2c-0.2,0-0.4,0.2-0.4,0.4l-0.2,0.6L65,70.1
	c0-0.2-0.2-0.4-0.4-0.4L64,69.5l0.6-0.2c0.2,0,0.4-0.2,0.4-0.4L65.2,68.3z"/>
<path class="st1" d="M44.3,24.1l0.1,0.4c0,0.1,0.1,0.2,0.2,0.2l0.4,0.1L44.6,25c-0.1,0-0.2,0.1-0.2,0.2l-0.1,0.4l-0.1-0.4
	c0-0.1-0.1-0.2-0.2-0.2l-0.4-0.1l0.4-0.1c0.1,0,0.2-0.1,0.2-0.2L44.3,24.1z"/>
<path class="st1" d="M42.7,20.3l0.1,0.3c0,0.1,0.1,0.2,0.2,0.2l0.3,0.1L43,21c-0.1,0-0.2,0.1-0.2,0.2l-0.1,0.3l-0.1-0.3
	c0-0.1-0.1-0.2-0.2-0.2l-0.3-0.1l0.3-0.1c0.1,0,0.2-0.1,0.2-0.2L42.7,20.3z"/>
<path class="st1" d="M94.9,70.7l0.1,0.4c0,0.1,0.1,0.3,0.3,0.3l0.4,0.1l-0.4,0.1c-0.1,0-0.3,0.1-0.3,0.3l-0.1,0.4l-0.1-0.4
	c0-0.1-0.1-0.3-0.3-0.3l-0.4-0.1l0.4-0.1c0.1,0,0.3-0.1,0.3-0.3L94.9,70.7z"/>
<path class="st1" d="M35.4,25.5l0.1,0.4c0,0.1,0.1,0.2,0.2,0.2l0.4,0.1l-0.4,0.1c-0.1,0-0.2,0.1-0.2,0.2l-0.1,0.4l-0.1-0.4
	c0-0.1-0.1-0.2-0.2-0.2l-0.4-0.1l0.4-0.1c0.1,0,0.2-0.1,0.2-0.2L35.4,25.5z"/>
<path class="st1" d="M61.1,33.8l0.1,0.4c0,0.1,0.1,0.3,0.3,0.3l0.4,0.1l-0.4,0.1c-0.1,0-0.3,0.1-0.3,0.3l-0.1,0.4L61,35
	c0-0.1-0.1-0.3-0.3-0.3l-0.4-0.1l0.4-0.1c0.1,0,0.3-0.1,0.3-0.3L61.1,33.8z"/>
<path class="st1" d="M95.2,74.1l0.1,0.4c0,0.1,0.1,0.1,0.3,0.3l0.4,0.1L95.6,75c-0.1,0-0.1,0.1-0.3,0.3l-0.1,0.4l-0.1-0.4
	c0-0.1-0.1-0.1-0.3-0.3l-0.4-0.1l0.4-0.1c0.1,0,0.1-0.1,0.3-0.3L95.2,74.1z"/>
<path class="st1" d="M63.5,41.2l0.1,0.3c0,0.1,0.1,0.2,0.2,0.2l0.3,0.1l-0.3,0.1c-0.1,0-0.2,0.1-0.2,0.2l-0.1,0.3V42
	c0-0.1-0.1-0.2-0.2-0.2L63,41.7l0.3-0.1c0.1,0,0.2-0.1,0.2-0.2V41.2z"/>
<path class="st1" d="M37,18.5l0.1,0.2c0,0.1,0.1,0.1,0.1,0.1l0.2,0.1L37.3,19c-0.1,0-0.1,0.1-0.1,0.1L37,19.4v-0.3
	c0-0.1-0.1-0.1-0.1-0.1l-0.2-0.1l0.2-0.1c0.1,0,0.1-0.1,0.1-0.1V18.5z"/>
<path class="st1" d="M37.3,27l0.1,0.4c0,0.1,0.1,0.3,0.3,0.3l0.4,0.1L37.8,28c-0.1,0-0.3,0.1-0.3,0.3l-0.1,0.4l-0.1-0.4
	c0-0.1-0.1-0.3-0.3-0.3l-0.4-0.1l0.4-0.1c0.1,0,0.3-0.1,0.3-0.3L37.3,27z"/>
<path class="st1" d="M52.5,13.2l0.1,0.4c0,0.1,0.1,0.3,0.3,0.3l0.4,0.1l-0.4,0.1c-0.1,0-0.3,0.1-0.3,0.3L52.5,15l-0.1-0.4
	c0-0.1-0.1-0.3-0.3-0.3l-0.4-0.1L52,14c0.1,0,0.3-0.1,0.3-0.3L52.5,13.2z"/>
<path class="st1" d="M66.4,23.5l0.1,0.4c0,0.1,0.1,0.2,0.2,0.2l0.4,0.1l-0.4,0.1c-0.1,0-0.2,0.1-0.2,0.2l-0.1,0.4l-0.1-0.4
	c0-0.1-0.1-0.2-0.2-0.2l-0.4-0.1l0.4-0.1c0.1,0,0.2-0.1,0.2-0.2L66.4,23.5z"/>
<path class="st1" d="M42,10.8l0.1,0.5c0,0.1,0.1,0.3,0.4,0.4l0.5,0.1l-0.5,0.1c-0.1,0-0.3,0.1-0.4,0.4L42,12.7l-0.1-0.5
	c0-0.1-0.1-0.3-0.4-0.4H41l0.5-0.1c0.1,0,0.3-0.1,0.4-0.4L42,10.8z"/>
<path class="st1" d="M47.6,14.6l0.1,0.4c0,0.1,0.1,0.3,0.3,0.3l0.4,0.1L48,15.5c-0.1,0-0.3,0.1-0.3,0.3l-0.1,0.4l-0.1-0.4
	c0-0.1-0.1-0.3-0.3-0.3l-0.4-0.1l0.4-0.1c0.1,0,0.3-0.1,0.3-0.3L47.6,14.6z"/>
<path class="st1" d="M49.8,13.8l0.1,0.3c0,0.1,0.1,0.2,0.2,0.2l0.3,0.1L50,14.5c-0.1,0-0.2,0.1-0.2,0.2V15l-0.1-0.3
	c0-0.1-0.1-0.2-0.2-0.2l-0.3-0.1l0.3-0.1c0.1,0,0.2-0.1,0.2-0.2L49.8,13.8z"/>
<path class="st1" d="M70.8,25.9l0.1,0.3c0,0.1,0.1,0.2,0.2,0.2l0.3,0.1l-0.3,0.1c-0.1,0-0.2,0.1-0.2,0.2l-0.1,0.3l-0.1-0.3
	c0-0.1-0.1-0.2-0.2-0.2l-0.3-0.1l0.3-0.1c0.1,0,0.2-0.1,0.2-0.2L70.8,25.9z"/>
<path class="st1" d="M37.3,21l0.1,0.6c0,0.1,0.1,0.3,0.3,0.3l0.6,0.1l-0.6,0.1c-0.1,0-0.3,0.1-0.3,0.3L37.3,23l-0.1-0.6
	c0-0.1-0.1-0.3-0.3-0.3L36.3,22l0.6-0.1c0.1,0,0.3-0.1,0.3-0.3L37.3,21z"/>
<path class="st1" d="M45,12.9l0.1,0.5c0,0.1,0.1,0.3,0.3,0.3l0.5,0.1L45.4,14c-0.1,0-0.3,0.1-0.3,0.3L45,14.7l-0.1-0.5
	c0-0.1-0.1-0.3-0.3-0.3l-0.5-0.1l0.5-0.1c0.1,0,0.3-0.1,0.3-0.3L45,12.9z"/>
<path class="st1" d="M59.5,80.6l0.2,0.5c0,0.2,0.2,0.3,0.3,0.3l0.5,0.2L60,81.8c-0.2,0-0.3,0.2-0.3,0.3l-0.2,0.5l-0.2-0.5
	c0-0.2-0.2-0.3-0.3-0.3l-0.5-0.2l0.5-0.2c0.2,0,0.3-0.2,0.3-0.3L59.5,80.6z"/>
<path class="st1" d="M64.7,23.3l0.1,0.4c0,0.1,0.1,0.1,0.3,0.3l0.4,0.1l-0.4,0.1c-0.1,0-0.1,0.1-0.3,0.3L64.7,25l-0.1-0.4
	c0-0.1-0.1-0.1-0.3-0.3l-0.4-0.1l0.4-0.1c0.1,0,0.1-0.1,0.3-0.3L64.7,23.3z"/>
<path class="st1" d="M33.3,23.1l0.1,0.4c0,0.1,0.1,0.2,0.3,0.3l0.4,0.1L33.7,24c-0.1,0-0.2,0.1-0.3,0.3l-0.1,0.4l-0.1-0.4
	c0-0.1-0.1-0.2-0.3-0.3l-0.4-0.1l0.4-0.1c0.1,0,0.2-0.1,0.3-0.3L33.3,23.1z"/>
<path class="st1" d="M56.2,19.4l0.1,0.4c0,0.1,0.1,0.3,0.3,0.3l0.4,0.1l-0.4,0.1c-0.1,0-0.3,0.1-0.3,0.3L56.2,21L56,20.6
	c0-0.1-0.1-0.3-0.3-0.3l-0.4-0.1l0.4-0.1c0.1,0,0.3-0.1,0.3-0.3L56.2,19.4z"/>
<path class="st1" d="M59.6,15.4l0.1,0.2c0,0.1,0.1,0.1,0.1,0.1l0.2,0.1l-0.2,0.1c-0.1,0-0.1,0.1-0.1,0.1l-0.1,0.2L59.5,16
	c0-0.1-0.1-0.1-0.1-0.1l-0.2-0.1l0.2-0.1c0.1,0,0.1-0.1,0.1-0.1L59.6,15.4z"/>
<path class="st1" d="M55.6,82.5l0.2,0.6c0,0.2,0.2,0.2,0.4,0.4l0.6,0.2l-0.6,0.2c-0.2,0-0.2,0.2-0.4,0.4l-0.2,0.6l-0.2-0.6
	c0-0.2-0.2-0.2-0.4-0.4l-0.6-0.2l0.6-0.2c0.2,0,0.2-0.2,0.4-0.4L55.6,82.5z"/>
<path class="st1" d="M76.1,71.6l0.2,0.4c0,0.2,0.1,0.3,0.3,0.3l0.4,0.2l-0.4,0.2c-0.1,0-0.3,0.1-0.3,0.3l-0.2,0.4L76,73
	c0-0.1-0.2-0.3-0.3-0.3l-0.4-0.2l0.4-0.2c0.1,0,0.3-0.1,0.3-0.3L76.1,71.6z"/>
<path class="st1" d="M58.9,29.2l0.1,0.4c0,0.1,0.1,0.3,0.3,0.3l0.4,0.1l-0.4,0.1c-0.1,0-0.3,0.1-0.3,0.3l-0.1,0.4l-0.1-0.4
	c0-0.1-0.1-0.3-0.3-0.3L58,30l0.4-0.1c0.1,0,0.3-0.1,0.3-0.3L58.9,29.2z"/>
<path class="st1" d="M62.7,20.6l0.1,0.3c0,0.1,0.1,0.1,0.1,0.1l0.3,0.1l-0.3,0.1c-0.1,0-0.1,0.1-0.1,0.1l-0.1,0.3l-0.1-0.3
	c0-0.1-0.1-0.1-0.1-0.1l-0.3-0.1l0.3-0.1c0.1,0,0.1-0.1,0.1-0.1L62.7,20.6z"/>
<path class="st1" d="M61.7,40l0.1,0.3c0,0.1,0.1,0.1,0.1,0.1l0.3,0.1l-0.3,0.1c-0.1,0-0.1,0.1-0.1,0.1L61.7,41l-0.1-0.3
	c0-0.1-0.1-0.1-0.1-0.1l-0.3-0.1l0.3-0.1c0.1,0,0.1-0.1,0.1-0.1L61.7,40z"/>
<path class="st1" d="M32.3,21.1l0.1,0.4c0,0.1,0.1,0.3,0.3,0.3l0.4,0.1L32.7,22c-0.1,0-0.3,0.1-0.3,0.3l-0.1,0.4l-0.1-0.4
	c0-0.1-0.1-0.3-0.3-0.3h-0.5l0.4-0.1c0.1,0,0.3-0.1,0.3-0.3L32.3,21.1z"/>
<path class="st1" d="M96.2,67.8l0.2,0.5c0,0.2,0.2,0.3,0.4,0.4l0.5,0.2l-0.5,0.2c-0.2,0-0.3,0.2-0.4,0.4L96.2,70L96,69.5
	c0-0.2-0.2-0.3-0.4-0.4l-0.5-0.2l0.5-0.2c0.2,0,0.3-0.2,0.4-0.4L96.2,67.8z"/>
<path class="st1" d="M48.4,71.6l0.2,0.9c0,0.2,0.2,0.4,0.4,0.4l0.9,0.2L49,73.3c-0.2,0-0.4,0.2-0.4,0.4l-0.2,0.9l-0.2-0.9
	c0-0.2-0.2-0.4-0.4-0.4l-0.9-0.2l0.9-0.2c0.2,0,0.4-0.2,0.4-0.4L48.4,71.6z"/>
<path class="st1" d="M62.2,19.7l0.1,0.2c0,0.1,0.1,0.1,0.1,0.1l0.2,0.1l-0.2,0.1c-0.1,0-0.1,0.1-0.1,0.1l-0.1,0.2l-0.1-0.2
	c0-0.1-0.1-0.1-0.1-0.1l-0.2-0.1L62,20c0.1,0,0.1-0.1,0.1-0.1L62.2,19.7z"/>
<path class="st1" d="M78.5,41.5l0.1,0.5c0,0.1,0.1,0.3,0.3,0.3l0.5,0.1l-0.5,0.1c-0.1,0-0.3,0.1-0.3,0.3l-0.1,0.5l-0.1-0.5
	c0-0.1-0.1-0.3-0.3-0.3l-0.5-0.1l0.5-0.1c0.1,0,0.3-0.1,0.3-0.3L78.5,41.5z"/>
<path class="st1" d="M47.9,18.5l0.1,0.2c0,0.1,0.1,0.1,0.1,0.1l0.2,0.1L48.1,19C48,19,48,19.1,48,19.1l-0.1,0.2l-0.1-0.2
	c0-0.1-0.1-0.1-0.1-0.1l-0.2-0.1l0.2-0.1c0.1,0,0.1-0.1,0.1-0.1L47.9,18.5z"/>
<path class="st1" d="M48.3,11.3l0.1,0.6c0,0.1,0.1,0.3,0.3,0.3l0.6,0.1l-0.6,0.1c-0.1,0-0.3,0.1-0.3,0.3l-0.1,0.6l-0.1-0.6
	c0-0.1-0.1-0.3-0.3-0.3l-0.6-0.1l0.6-0.1c0.1,0,0.3-0.1,0.3-0.3L48.3,11.3z"/>
<path class="st1" d="M54.7,16.6l0.1,0.4c0,0.1,0.1,0.3,0.3,0.3l0.4,0.1l-0.4,0.1c-0.1,0-0.3,0.1-0.3,0.3l-0.1,0.4l-0.1-0.4
	c0-0.1-0.1-0.3-0.3-0.3l-0.4-0.1l0.4-0.1c0.1,0,0.3-0.1,0.3-0.3L54.7,16.6z"/>
<path class="st1" d="M53.7,32.3l0.2,0.6c0,0.2,0.2,0.3,0.3,0.3l0.6,0.2l-0.6,0.2c-0.2,0-0.3,0.2-0.3,0.3l-0.2,0.6l-0.2-0.6
	c0-0.2-0.2-0.3-0.3-0.3l-0.6-0.2l0.6-0.2c0.2,0,0.3-0.2,0.3-0.3L53.7,32.3z"/>
<path class="st1" d="M35.5,31l0.2,0.6c0,0.2,0.2,0.3,0.3,0.3l0.6,0.2L36,32.4c-0.2,0-0.3,0.2-0.3,0.3l-0.2,0.6l-0.2-0.6
	c0-0.2-0.2-0.3-0.3-0.3l-0.6-0.2L35,32c0.2,0,0.3-0.2,0.3-0.3L35.5,31z"/>
<path class="st1" d="M56.4,12.1l0.1,0.4c0,0.1,0.1,0.2,0.2,0.2l0.4,0.1l-0.4,0.1c-0.1,0-0.2,0.1-0.2,0.2l-0.1,0.4L56.3,13
	c0-0.1-0.1-0.2-0.2-0.2l-0.4-0.1l0.4-0.1c0.1,0,0.2-0.1,0.2-0.2L56.4,12.1z"/>
<path class="st1" d="M69.3,25.8l0.1,0.2c0,0.1,0.1,0.1,0.1,0.1l0.2,0.1l-0.2,0.1c-0.1,0-0.1,0.1-0.1,0.1l-0.1,0.2l-0.1-0.2
	c0-0.1-0.1-0.1-0.1-0.1l-0.2-0.1l0.2-0.1c0.1,0,0.1-0.1,0.1-0.1L69.3,25.8z"/>
<path class="st1" d="M60.6,19.9l0.1,0.4c0,0.1,0.1,0.1,0.3,0.3l0.4,0.1L61,20.8c-0.1,0-0.1,0.1-0.3,0.3l-0.1,0.4l-0.1-0.4
	c0-0.1-0.1-0.1-0.3-0.3l-0.4-0.1l0.4-0.1c0.1,0,0.1-0.1,0.3-0.3L60.6,19.9z"/>
<path class="st1" d="M60.8,37.4l0.1,0.6c0,0.1,0.1,0.3,0.4,0.4l0.6,0.1l-0.6,0.1c-0.1,0-0.3,0.1-0.4,0.4l-0.1,0.6L60.7,39
	c0-0.1-0.1-0.3-0.4-0.4l-0.6-0.1l0.6-0.1c0.1,0,0.3-0.1,0.4-0.4L60.8,37.4z"/>
<path class="st1" d="M62.9,36.6L63,37c0,0.1,0.1,0.2,0.3,0.3l0.4,0.1l-0.4,0.1c-0.1,0-0.2,0.1-0.3,0.3l-0.1,0.4l-0.1-0.4
	c0-0.1-0.1-0.2-0.3-0.3l-0.4-0.1l0.4-0.1c0.1,0,0.2-0.1,0.3-0.3L62.9,36.6z"/>
<path class="st1" d="M56.2,14.4l0.1,0.2c0,0.1,0.1,0.1,0.1,0.1l0.2,0.1l-0.2,0.1c-0.1,0-0.1,0.1-0.1,0.1l-0.1,0.2L56.1,15
	c0-0.1-0.1-0.1-0.1-0.1l-0.2-0.1l0.2-0.1c0.1,0,0.1-0.1,0.1-0.1L56.2,14.4z"/>
<path class="st1" d="M99.3,75.8l0.2,0.9c0,0.2,0.2,0.4,0.4,0.4l0.9,0.2l-0.9,0.2c-0.2,0-0.4,0.2-0.4,0.4l-0.2,0.9l-0.2-0.9
	c0-0.2-0.2-0.4-0.4-0.4l-0.9-0.2l0.9-0.2c0.2,0,0.4-0.2,0.4-0.4L99.3,75.8z"/>
<path class="st1" d="M34.3,19.7l0.1,0.6c0,0.1,0.1,0.3,0.3,0.3l0.6,0.1l-0.6,0.1c-0.1,0-0.3,0.1-0.3,0.3l-0.1,0.6l-0.1-0.6
	c0-0.1-0.1-0.3-0.3-0.3l-0.6-0.1l0.6-0.1c0.1,0,0.3-0.1,0.3-0.3L34.3,19.7z"/>
<path class="st1" d="M45.4,11l0.1,0.4c0,0.1,0.1,0.3,0.3,0.3l0.4,0.1l-0.4,0.1c-0.1,0-0.3,0.1-0.3,0.3l-0.1,0.4l-0.1-0.4
	c0-0.1-0.1-0.3-0.3-0.3l-0.4-0.1l0.4-0.1c0.1,0,0.3-0.1,0.3-0.3L45.4,11z"/>
<path class="st1" d="M39.5,22.8l0.1,0.5c0,0.1,0.1,0.3,0.3,0.3l0.5,0.1L40,23.8c-0.1,0-0.3,0.1-0.3,0.3l-0.1,0.5l-0.1-0.5
	c0-0.1-0.1-0.3-0.3-0.3l-0.5-0.1l0.5-0.1c0.1,0,0.3-0.1,0.3-0.3L39.5,22.8z"/>
<path class="st1" d="M54.3,74.4l0.2,0.6c0,0.2,0.2,0.4,0.4,0.4l0.6,0.2l-0.6,0.2c-0.2,0-0.4,0.2-0.4,0.4l-0.2,0.6l-0.2-0.6
	c0-0.2-0.2-0.4-0.4-0.4l-0.6-0.2l0.6-0.2c0.2,0,0.4-0.2,0.4-0.4L54.3,74.4z"/>
<path class="st1" d="M66.1,45L66,44.6c0-0.1-0.1-0.3-0.3-0.3l-0.4-0.1l0.4-0.1c0.1,0,0.3-0.1,0.3-0.3l0.1-0.4l0.1,0.4
	c0,0.1,0.1,0.3,0.3,0.3l0.4,0.1l-0.4,0.1c-0.1,0-0.3,0.1-0.3,0.3L66.1,45z"/>
<path class="st1" d="M59.4,45.6l-0.1-0.5c0-0.1-0.1-0.3-0.4-0.4l-0.5-0.1l0.5-0.1c0.1,0,0.3-0.1,0.4-0.4l0.1-0.5l0.1,0.5
	c0,0.1,0.1,0.3,0.4,0.4l0.5,0.1l-0.5,0.1c-0.1,0-0.3,0.1-0.4,0.4L59.4,45.6z"/>
<path class="st1" d="M70.9,43.7l-0.1-0.4c0-0.1-0.1-0.3-0.3-0.3l-0.4-0.1l0.4-0.1c0.1,0,0.3-0.1,0.3-0.3l0.1-0.4l0.1,0.4
	c0,0.1,0.1,0.3,0.3,0.3l0.4,0.1L71.3,43c-0.1,0-0.3,0.1-0.3,0.3L70.9,43.7z"/>
<path class="st1" d="M68.8,44.4l-0.1-0.3c0-0.1-0.1-0.2-0.2-0.2l-0.3-0.1l0.3-0.1c0.1,0,0.2-0.1,0.2-0.2l0.1-0.3l0.1,0.3
	c0,0.1,0.1,0.2,0.2,0.2l0.3,0.1l-0.3,0.1c-0.1,0-0.2,0.1-0.2,0.2L68.8,44.4z"/>
<path class="st1" d="M73.6,45.4l-0.1-0.5c0-0.1-0.1-0.3-0.3-0.3l-0.5-0.1l0.5-0.1c0.1,0,0.3-0.1,0.3-0.3l0.1-0.5l0.1,0.5
	c0,0.1,0.1,0.3,0.3,0.3l0.5,0.1L74,44.6c-0.1,0-0.3,0.1-0.3,0.3L73.6,45.4z"/>
<path class="st1" d="M58.7,46.9l-0.1-0.2c0-0.1-0.1-0.1-0.1-0.1l-0.2-0.1l0.2-0.1c0.1,0,0.1-0.1,0.1-0.1l0.1-0.2l0.1,0.2
	c0,0.1,0.1,0.1,0.1,0.1l0.2,0.1l-0.2,0.1c-0.1,0-0.1,0.1-0.1,0.1L58.7,46.9z"/>
<path class="st1" d="M52.6,46.6L52.5,46c0-0.1-0.1-0.3-0.3-0.3l-0.6-0.1l0.6-0.1c0.1,0,0.3-0.1,0.3-0.3l0.1-0.6l0.1,0.6
	c0,0.1,0.1,0.3,0.3,0.3l0.6,0.1L53,45.7c-0.1,0-0.3,0.1-0.3,0.3L52.6,46.6z"/>
<path class="st1" d="M70.2,47l-0.1-0.6c0-0.1-0.1-0.3-0.3-0.3L69.2,46l0.6-0.1c0.1,0,0.3-0.1,0.3-0.3l0.1-0.6l0.1,0.6
	c0,0.1,0.1,0.3,0.3,0.3l0.6,0.1l-0.6,0.1c-0.1,0-0.3,0.1-0.3,0.3L70.2,47z"/>
<path class="st1" d="M62.2,46.1l-0.1-0.4c0-0.1-0.1-0.2-0.2-0.2l-0.4-0.1l0.4-0.1c0.1,0,0.2-0.1,0.2-0.2l0.1-0.4l0.1,0.4
	c0,0.1,0.1,0.2,0.2,0.2l0.4,0.1l-0.4,0.1c-0.1,0-0.2,0.1-0.2,0.2L62.2,46.1z"/>
<path class="st1" d="M62.4,43.9l-0.1-0.2c0-0.1-0.1-0.1-0.1-0.1L62,43.4l0.2-0.1c0.1,0,0.1-0.1,0.1-0.1l0.1-0.2l0.1,0.2
	c0,0.1,0.1,0.1,0.1,0.1l0.2,0.1l-0.2,0.1c-0.1,0-0.1,0.1-0.1,0.1L62.4,43.9z"/>
<path class="st1" d="M55.9,45.4L55.8,45c0-0.1-0.1-0.3-0.3-0.3l-0.4-0.1l0.4-0.1c0.1,0,0.3-0.1,0.3-0.3l0.1-0.4l0.1,0.4
	c0,0.1,0.1,0.3,0.3,0.3l0.4,0.1l-0.4,0.1c-0.1,0-0.3,0.1-0.3,0.3L55.9,45.4z"/>
<path class="st1" d="M48.4,44.6l-0.1-0.4c0-0.1-0.1-0.3-0.3-0.3l-0.4-0.1l0.4-0.1c0.1,0,0.3-0.1,0.3-0.3l0.1-0.4l0.1,0.4
	c0,0.1,0.1,0.3,0.3,0.3l0.4,0.1l-0.4,0.1c-0.1,0-0.3,0.1-0.3,0.3L48.4,44.6z"/>
<path class="st1" d="M72.1,25.6l0.1,0.4c0,0.1,0.1,0.3,0.3,0.3l0.4,0.1l-0.4,0.1c-0.1,0-0.3,0.1-0.3,0.3l-0.1,0.4L72,26.9
	c0-0.1-0.1-0.3-0.3-0.3l-0.4-0.1l0.4-0.1c0.1,0,0.3-0.1,0.3-0.3L72.1,25.6z"/>
<path class="st1" d="M71.1,75.6l0.1,0.3c0,0.1,0.1,0.2,0.2,0.2l0.3,0.1l-0.3,0.1c-0.1,0-0.2,0.1-0.2,0.2l-0.1,0.3L71,76.5
	c0-0.1-0.1-0.2-0.2-0.2l-0.3-0.1l0.3-0.1c0.1,0,0.2-0.1,0.2-0.2L71.1,75.6z"/>
<path class="st1" d="M99.2,71.4l0.1,0.4c0,0.1,0.1,0.2,0.2,0.2l0.4,0.1l-0.4,0.1c-0.1,0-0.2,0.1-0.2,0.2l-0.1,0.4l-0.1-0.4
	c0-0.1-0.1-0.2-0.2-0.2l-0.4-0.1l0.4-0.1c0.1,0,0.2-0.1,0.2-0.2L99.2,71.4z"/>
<path class="st1" d="M61.1,27.1l0.1,0.3c0,0.1,0.1,0.2,0.2,0.2l0.3,0.1l-0.3,0.1c-0.1,0-0.2,0.1-0.2,0.2l-0.1,0.3L61,28
	c0-0.1-0.1-0.2-0.2-0.2l-0.3-0.1l0.3-0.1c0.1,0,0.2-0.1,0.2-0.2L61.1,27.1z"/>
<path class="st1" d="M65.4,20.2l0.1,0.4c0,0.1,0.1,0.1,0.3,0.3l0.4,0.1l-0.4,0.1c-0.1,0-0.1,0.1-0.3,0.3l-0.1,0.4l-0.1-0.4
	c0-0.1-0.1-0.1-0.3-0.3L64.6,21H65c0.1,0,0.1-0.1,0.3-0.3L65.4,20.2z"/>
<path class="st1" d="M57.9,40.2l0.1,0.4c0,0.1,0.1,0.2,0.2,0.2l0.4,0.1L58.2,41c-0.1,0-0.2,0.1-0.2,0.2l-0.1,0.4l-0.1-0.4
	c0-0.1-0.1-0.2-0.2-0.2h-0.5l0.4-0.1c0.1,0,0.2-0.1,0.2-0.2L57.9,40.2z"/>
<path class="st1" d="M27.2,17l0.1,0.5c0,0.1,0.1,0.3,0.4,0.4l0.5,0.1l-0.5,0.1c-0.1,0-0.3,0.1-0.4,0.4L27.2,19L27,18.5
	c0-0.1-0.1-0.3-0.4-0.4L26.2,18l0.5-0.1c0.1,0,0.3-0.1,0.4-0.4L27.2,17z"/>
<path class="st1" d="M53,41.5l0.1,0.4c0,0.1,0.1,0.2,0.2,0.2l0.4,0.1l-0.4,0.1c-0.1,0-0.2,0.1-0.2,0.2L53,42.9l-0.1-0.4
	c0-0.1-0.1-0.2-0.2-0.2l-0.4-0.1l0.4-0.1c0.1,0,0.2-0.1,0.2-0.2L53,41.5z"/>
<path class="st1" d="M55.7,39.2l0.1,0.4c0,0.1,0.1,0.1,0.3,0.3l0.4,0.1l-0.4,0.1c-0.1,0-0.1,0.1-0.3,0.3l-0.1,0.4l-0.1-0.4
	c0-0.1-0.1-0.1-0.3-0.3L54.9,40l0.4-0.1c0.1,0,0.1-0.1,0.3-0.3L55.7,39.2z"/>
<path class="st1" d="M27.8,15.7l0.1,0.2C27.9,16,28,16,28,16l0.2,0.1L28,16.2c-0.1,0-0.1,0.1-0.1,0.1l-0.1,0.2l-0.1-0.2
	c0-0.1-0.1-0.1-0.1-0.1l-0.2-0.1l0.2-0.1c0.1,0,0.1-0.1,0.1-0.1L27.8,15.7z"/>
<path class="st1" d="M48.1,39.7l0.1,0.4c0,0.1,0.1,0.1,0.3,0.3l0.4,0.1l-0.4,0.1c-0.1,0-0.1,0.1-0.3,0.3l-0.1,0.4L48,41
	c0-0.1-0.1-0.1-0.3-0.3l-0.4-0.1l0.4-0.1c0.1,0,0.1-0.1,0.3-0.3L48.1,39.7z"/>
<path class="st1" d="M41.3,17.7l0.1,0.3c0,0.1,0.1,0.1,0.1,0.1l0.3,0.1l-0.3,0.1c-0.1,0-0.1,0.1-0.1,0.1l-0.1,0.3l-0.1-0.3
	c0-0.1-0.1-0.1-0.1-0.1l-0.3-0.1l0.3-0.1c0.1,0,0.1-0.1,0.1-0.1L41.3,17.7z"/>
<path class="st1" d="M45.1,35.1l0.1,0.6c0,0.1,0.1,0.3,0.3,0.3l0.6,0.1l-0.6,0.1c-0.1,0-0.3,0.1-0.3,0.3l-0.1,0.6L45,36.5
	c0-0.1-0.1-0.3-0.3-0.3L44,36.1l0.6-0.1c0.1,0,0.3-0.1,0.3-0.3L45.1,35.1z"/>
<path class="st1" d="M40.8,16.9l0.1,0.2c0,0.1,0.1,0.1,0.1,0.1l0.2,0.1L41,17.4c-0.1,0-0.1,0.1-0.1,0.1l-0.1,0.2l-0.1-0.2
	c0-0.1-0.1-0.1-0.1-0.1l-0.2-0.1l0.2-0.1c0.1,0,0.1-0.1,0.1-0.1L40.8,16.9z"/>
<path class="st1" d="M33.1,17.9l0.1,0.4c0,0.1,0.1,0.3,0.3,0.3l0.4,0.1l-0.4,0.1c-0.1,0-0.3,0.1-0.3,0.3l-0.1,0.4L33,19.1
	c0-0.1-0.1-0.3-0.3-0.3l-0.4-0.1l0.4-0.1c0.1,0,0.3-0.1,0.3-0.3L33.1,17.9z"/>
<path class="st1" d="M24.3,16.5l0.1,0.4c0,0.1,0.1,0.2,0.2,0.2l0.4,0.1l-0.4,0.1c-0.1,0-0.2,0.1-0.2,0.2l-0.1,0.4l-0.1-0.4
	c0-0.1-0.1-0.2-0.2-0.2l-0.4-0.1L24,17c0.1,0,0.2-0.1,0.2-0.2L24.3,16.5z"/>
<path class="st1" d="M24.1,18.8l0.1,0.2c0,0.1,0.1,0.1,0.1,0.1l0.2,0.1l-0.2,0.1c-0.1,0-0.1,0.1-0.1,0.1l-0.1,0.2L24,19.4
	c0-0.1-0.1-0.1-0.1-0.1l-0.2-0.1l0.2-0.1C24,19.1,24,19,24,19L24.1,18.8z"/>
<path class="st1" d="M30.6,17.3l0.1,0.4c0,0.1,0.1,0.3,0.3,0.3l0.4,0.1L31,18.2c-0.1,0-0.3,0.1-0.3,0.3l-0.1,0.4l-0.1-0.4
	c0-0.1-0.1-0.3-0.3-0.3L29.8,18l0.4-0.1c0.1,0,0.3-0.1,0.3-0.3L30.6,17.3z"/>
<path class="st1" d="M49.3,37l0.1,0.4c0,0.1,0.1,0.3,0.3,0.3l0.4,0.1L49.7,38c-0.1,0-0.3,0.1-0.3,0.3l-0.1,0.4l-0.1-0.4
	c0-0.1-0.1-0.3-0.3-0.3l-0.4-0.1l0.4-0.1c0.1,0,0.3-0.1,0.3-0.3L49.3,37z"/>
<path class="st1" d="M57,36.9l0.1,0.4c0,0.1,0.1,0.1,0.3,0.3l0.4,0.1l-0.4,0.1c-0.1,0-0.1,0.1-0.3,0.3L57,38.6l-0.1-0.4
	c0-0.1-0.1-0.1-0.3-0.3l-0.4-0.1l0.4-0.1c0.1,0,0.1-0.1,0.3-0.3L57,36.9z"/>
<path class="st2" d="M-46,134.9c-0.5,1.6-0.5,2.5-3.6,5.8c-6.1,6.4-13.1,3.1-13.1,3.1l0.6-0.7c0,0,8.5,0.5,11.9-5c2-3.6,2.6-7,2.5-8
	c-0.4-2.5-1-0.1-1,0c0,0-0.5,4.2-3.4,7c-4.8,5-7.9,3.7-7.9,3.7s2.3-2.4,3.1-5.4c1.3-4.6,0.5-8-4.2-11.5c-5-3.7-11.5-2.6-14.2,0.2
	c-1.7,1.8-2.2,2.8-3.1,3.8c-1.2,1.3-2.6,0.6-3,1c-0.8,0.8,0.7,1,1.4,1.6c0.6,0.5-1.2,1.3-0.5,1.4c0.7,0.1,2.4-0.5,3-1
	c0.8-0.6,1.7-1.8,3.6-3.7c2.4-2.5,5.8-3,9-0.5c2.3,1.6,3.4,5,0.8,7.7c-4.2,4.3-11.4,1.6-13.1,1.6c-1.6,0-2.5,1.2-3.5,1.3
	s-4.6,0.5-4.6,0.5s-3.6-2-6.8,0.7c-3.4,2.8-2.2,6.5-5.3,9.5c-0.6,0.6-1,1.6-1.3,2.5c-1,1.1-1.8,2.4-1.6,3.4c0,0-9.2,1-11.2,1.9
	c-1.7,0.8-3.2,1.6-5.4,4.7c0,0-4.2,5.5,1.6,19c0,0,0.5,2.2-0.5,4.7c0,0-1,7-1.1,8.4s-1.6,3,0.5,3.6c0,0,7.8,1.3,9-1.1
	c0.4-0.6,0.2-1.8-1.3-2.6c0,0-0.5-0.8-0.2-2.3c0.2-1.4,2.4-4.6,2.8-6.1c0.4-1.2,0.1-4.7,0.1-4.7s6.8,0,7.3,0s2.8,10.2,2.2,11
	c-0.7,0.7-3,5.3,3.7,3.7l-0.4,1.2c-1.3,2.6,0,3,0,3c4.4,1.4,10,0.1,10.2-1.1c0.2-0.7-1.8-3.5-1.8-3.5c0.5-1.4,0-6,0-6
	c0.5-0.8,1.6-10.4,1.6-10.4c1.3,0,2.6-0.5,2.6-0.5s9.5-1.8,9.6,5.6c0,2.5-0.7,3.5-1,4.7c-0.4,2.2,5,1.8,5,1.8s4.3,0,5-1.3
	s-1.8-3.8-2.4-4.3c-0.6-0.5-0.5-7.3-0.5-7.3c2-6.5-7.4-8.4-7.4-8.4c0.4-1.4,0.4-6.8,0.4-9.8c1.1-1.6,2.6-3.4,3.7-4.4
	c2-2.2,2.2-2.4,3.5-2.4c1.6,0,2.2-0.4,2.8-1c0,0-1.3-0.8-3.4-1.3c-2.5-0.5-3.6-0.5-3.6-0.5l-0.5-1.7c0,0,1.3,0.5,2.5,0
	c0.5-0.1,0.6-0.2,0.7-0.4c0.7,0.2,10,3.7,16.7-3.1c1.9-1.9,3.3-5.2,3.7-7.4c0.2-1.2,0.3-2.2,0.1-2.1C-45.5,133.2-45.8,134-46,134.9z
	"/>
<path class="st0" d="M-108,134.9c-0.5,1.6-0.5,2.5-3.6,5.8c-6.1,6.4-13.1,3.1-13.1,3.1l0.6-0.7c0,0,8.5,0.5,11.9-5
	c2-3.6,2.6-7,2.5-8c-0.4-2.5-1-0.1-1,0c0,0-0.5,4.2-3.4,7c-4.8,5-7.9,3.7-7.9,3.7s2.3-2.4,3.1-5.4c1.3-4.6,0.5-8-4.2-11.5
	c-5-3.7-11.5-2.6-14.2,0.2c-1.7,1.8-2.2,2.8-3.1,3.8c-1.2,1.3-2.6,0.6-3,1c-0.8,0.8,0.7,1,1.4,1.6c0.6,0.5-1.2,1.3-0.5,1.4
	s2.4-0.5,3-1c0.8-0.6,1.7-1.8,3.6-3.7c2.4-2.5,5.8-3,9-0.5c2.3,1.6,3.4,5,0.8,7.7c-4.2,4.3-11.4,1.6-13.1,1.6
	c-1.6,0-2.5,1.2-3.5,1.3s-4.6,0.5-4.6,0.5s-3.6-2-6.8,0.7c-3.4,2.8-2.2,6.5-5.3,9.5c-0.6,0.6-1,1.6-1.3,2.5c-1,1.1-1.8,2.4-1.6,3.4
	c0,0-9.2,1-11.2,1.9c-1.7,0.8-3.2,1.6-5.4,4.7c0,0-4.2,5.5,1.6,19c0,0,0.5,2.2-0.5,4.7c0,0-1,7-1.1,8.4s-1.6,3,0.5,3.6
	c0,0,7.8,1.3,9-1.1c0.4-0.6,0.2-1.8-1.3-2.6c0,0-0.5-0.8-0.2-2.3c0.2-1.4,2.4-4.6,2.8-6.1c0.4-1.2,0.1-4.7,0.1-4.7s6.8,0,7.3,0
	s2.8,10.2,2.2,11c-0.7,0.7-3,5.3,3.7,3.7l-0.4,1.2c-1.3,2.6,0,3,0,3c4.4,1.4,10,0.1,10.2-1.1c0.2-0.7-1.8-3.5-1.8-3.5
	c0.5-1.4,0-6,0-6c0.5-0.8,1.6-10.4,1.6-10.4c1.3,0,2.6-0.5,2.6-0.5s9.5-1.8,9.6,5.6c0,2.5-0.7,3.5-1,4.7c-0.4,2.2,5,1.8,5,1.8
	s4.3,0,5-1.3s-1.8-3.8-2.4-4.3s-0.5-7.3-0.5-7.3c2-6.5-7.4-8.4-7.4-8.4c0.4-1.4,0.4-6.8,0.4-9.8c1.1-1.6,2.6-3.4,3.7-4.4
	c2-2.2,2.2-2.4,3.5-2.4c1.6,0,2.2-0.4,2.8-1c0,0-1.3-0.8-3.4-1.3c-2.5-0.5-3.6-0.5-3.6-0.5l-0.5-1.7c0,0,1.3,0.5,2.5,0
	c0.5-0.1,0.6-0.2,0.7-0.4c0.7,0.2,10,3.7,16.7-3.1c1.9-1.9,3.3-5.2,3.7-7.4c0.2-1.2,0.3-2.2,0.1-2.1
	C-107.6,133.2-107.8,134-108,134.9z"/>
<path class="st1" d="M22.5,134.9c-0.5,1.6-0.5,2.5-3.6,5.8c-6.1,6.4-13.1,3.1-13.1,3.1l0.6-0.7c0,0,8.5,0.5,11.9-5
	c2-3.6,2.6-7,2.5-8c-0.4-2.5-1-0.1-1,0c0,0-0.5,4.2-3.4,7c-4.8,5-7.9,3.7-7.9,3.7s2.3-2.4,3.1-5.4c1.3-4.6,0.5-8-4.2-11.5
	C2.5,120-4,121.1-6.6,124c-1.7,1.8-2.2,2.8-3.1,3.8c-1.2,1.3-2.6,0.6-3,1c-0.8,0.8,0.7,1,1.4,1.6c0.6,0.5-1.2,1.3-0.5,1.4
	c0.7,0.1,2.4-0.5,3-1c0.8-0.6,1.7-1.8,3.6-3.7c2.4-2.5,5.8-3,9-0.5c2.3,1.6,3.4,5,0.8,7.7c-4.2,4.3-11.4,1.6-13.1,1.6
	c-1.6,0-2.5,1.2-3.5,1.3s-4.6,0.5-4.6,0.5s-3.6-2-6.8,0.7c-3.4,2.8-2.2,6.5-5.3,9.5c-0.6,0.6-1,1.6-1.3,2.5c-1,1.1-1.8,2.4-1.6,3.4
	c0,0-9.2,1-11.2,1.9c-1.7,0.8-3.2,1.6-5.4,4.7c0,0-4.2,5.5,1.6,19c0,0,0.5,2.2-0.5,4.7c0,0-1,7-1.1,8.4s-1.6,3,0.5,3.6
	c0,0,7.8,1.3,9-1.1c0.4-0.6,0.2-1.8-1.3-2.6c0,0-0.5-0.8-0.2-2.3c0.2-1.4,2.4-4.6,2.8-6.1c0.4-1.2,0.1-4.7,0.1-4.7s6.8,0,7.3,0
	s2.8,10.2,2.2,11c-0.7,0.7-3,5.3,3.7,3.7l-0.4,1.2c-1.3,2.6,0,3,0,3c4.4,1.4,10,0.1,10.2-1.1c0.2-0.7-1.8-3.5-1.8-3.5
	c0.5-1.4,0-6,0-6c0.5-0.8,1.6-10.4,1.6-10.4c1.3,0,2.6-0.5,2.6-0.5s9.5-1.8,9.6,5.6c0,2.5-0.7,3.5-1,4.7c-0.4,2.2,5,1.8,5,1.8
	s4.3,0,5-1.3s-1.8-3.8-2.4-4.3s-0.5-7.3-0.5-7.3c2-6.5-7.4-8.4-7.4-8.4C-3,166-3,160.6-3,157.6c1.1-1.6,2.6-3.4,3.7-4.4
	c2-2.2,2.2-2.4,3.5-2.4c1.6,0,2.2-0.4,2.8-1c0,0-1.3-0.8-3.4-1.3C1,148,0,148,0,148l-0.5-1.7c0,0,1.3,0.5,2.5,0
	c0.5-0.1,0.6-0.2,0.7-0.4c0.7,0.2,10,3.7,16.7-3.1c1.9-1.9,3.3-5.2,3.7-7.4c0.2-1.2,0.3-2.2,0.1-2.1C23,133.2,22.8,134,22.5,134.9z"
	/>
<g>
	<path class="st3" d="M109.8,174.4c-1.9-0.2-1.2,1.9-3.3,1.5c-3.6-0.3-5-2.4-9.8-2.6c-2.6,0-4.8,1.5-5.6,1.5c-1.2-0.2-3.4-1-3.3-3.9
		c0.2-2.9,3.6-6.5,8.2-3.3c1.9,1.9,6.3,5.3,9.9,3.3c4.8-2.9,0.9-6.8,0-7s-1,0.7-0.2,1.2c1.9,2.1,1.2,3.6-0.2,4.4
		c-1.4,0.7-3.8,1.9-8.2-2.6c-8.2-6.7-12.3,2.1-12.3,4.3s1.2,6,5.1,6.2c0.7,0,0.9,0.5,0.7,1c-0.2,0.5-0.2,2.9,0.2,3.9
		c0.3,1,0,1-0.9,1.5s-4.3,2.2-4.3,2.2s-0.7,0.7-0.2,1.4s2.4,3.8,4.1,2.9c0.7-0.3-0.7-1.7-2.1-2.6c-0.3-0.3-0.7-0.7,0.5-0.9
		s6-0.9,6.2-4.4c0-0.7,0.2-0.5,0.7-0.2c0.7,0.3,2.6,0.9,2.4,1.9s-0.3,3.3-0.3,4.1c-0.3,0.2-0.7,1.4,1,2.1c1.9,0.5,4.3,1,4.1,0.3
		c0-0.7-2.4-1-3.6-1.5c-0.7-0.3-0.5-0.7,0.2-2.1c0.7-1.2,1.9-4.3,0.7-5.1c-0.5-0.2-0.2-0.7,0.9-0.5c1,0.2,1.4,0.2,0.9,1
		c-0.5,0.7-0.9,1.7-0.3,3.3c0.3,1.5,1.4,4.4,1.4,4.4s0,0.9,0.9,1c0.9,0.2,2.6,0.3,2.6-0.5c0-0.9-1.4-0.7-1.9-0.7s-0.9-0.7-0.7-1.7
		s0.2-4.4,0.9-4.1c0.9,0.2,0,1.5,3.8,5.1c1.2,1.4,2.1,1.4,3.3,1.4s1.5-0.9-0.7-1.2c-1.4-0.2-1,0-1.7-1.4s-1.9-2.4-1.9-3.3
		c0-0.9,1-2.1,1-3.9c0-0.9,0.5-0.9,1.2-0.3c0.7,0.3,2.2,0.2,2.9-0.7c0.7-0.9,0.2-1.5-0.3-2.4C111.7,175.9,112.2,174.6,109.8,174.4z"
		/>
	<path class="st4" d="M78.5,174.4c-1.9-0.2-1.2,1.9-3.3,1.5c-3.6-0.3-5-2.4-9.8-2.6c-2.6,0-4.8,1.5-5.6,1.5c-1.2-0.2-3.4-1-3.3-3.9
		c0.2-2.9,3.6-6.5,8.2-3.3c1.9,1.9,6.3,5.3,9.9,3.3c4.8-2.9,0.9-6.8,0-7s-1,0.7-0.2,1.2c1.9,2.1,1.2,3.6-0.2,4.4
		c-1.4,0.7-3.8,1.9-8.2-2.6c-8.2-6.7-12.3,2.1-12.3,4.3s1.2,6,5.1,6.2c0.7,0,0.9,0.5,0.7,1s-0.2,2.9,0.2,3.9c0.3,1,0,1-0.9,1.5
		s-4.3,2.2-4.3,2.2s-0.7,0.7-0.2,1.4s2.4,3.8,4.1,2.9c0.7-0.3-0.7-1.7-2.1-2.6c-0.3-0.3-0.7-0.7,0.5-0.9s6-0.9,6.2-4.4
		c0-0.7,0.2-0.5,0.7-0.2c0.7,0.3,2.6,0.9,2.4,1.9s-0.3,3.3-0.3,4.1c-0.3,0.2-0.7,1.4,1,2.1c1.9,0.5,4.3,1,4.1,0.3
		c0-0.7-2.4-1-3.6-1.5c-0.7-0.3-0.5-0.7,0.2-2.1c0.7-1.2,1.9-4.3,0.7-5.1c-0.5-0.2-0.2-0.7,0.9-0.5c1,0.2,1.4,0.2,0.9,1
		c-0.5,0.7-0.9,1.7-0.3,3.3c0.3,1.5,1.4,4.4,1.4,4.4s0,0.9,0.9,1c0.9,0.2,2.6,0.3,2.6-0.5c0-0.9-1.4-0.7-1.9-0.7s-0.9-0.7-0.7-1.7
		c0.2-1,0.2-4.4,0.9-4.1c0.9,0.2,0,1.5,3.8,5.1c1.2,1.4,2.1,1.4,3.3,1.4c1.2,0,1.5-0.9-0.7-1.2c-1.4-0.2-1,0-1.7-1.4
		s-1.9-2.4-1.9-3.3c0-0.9,1-2.1,1-3.9c0-0.9,0.5-0.9,1.2-0.3c0.7,0.3,2.2,0.2,2.9-0.7c0.7-0.9,0.2-1.5-0.3-2.4
		C80.4,175.9,80.9,174.6,78.5,174.4z"/>
	<path class="st5" d="M47.3,174.4c-1.9-0.2-1.2,1.9-3.3,1.5c-3.6-0.3-5-2.4-9.8-2.6c-2.6,0-4.8,1.5-5.6,1.5c-1.2-0.2-3.4-1-3.3-3.9
		c0.2-2.9,3.6-6.5,8.2-3.3c1.9,1.9,6.3,5.3,9.9,3.3c4.8-2.9,0.9-6.8,0-7s-1,0.7-0.2,1.2c1.9,2.1,1.2,3.6-0.2,4.4
		c-1.4,0.7-3.8,1.9-8.2-2.6c-8.2-6.7-12.3,2.1-12.3,4.3s1.2,6,5.1,6.2c0.7,0,0.9,0.5,0.7,1c-0.2,0.5-0.2,2.9,0.2,3.9
		c0.3,1,0,1-0.9,1.5s-4.3,2.2-4.3,2.2s-0.7,0.7-0.2,1.4s2.4,3.8,4.1,2.9c0.7-0.3-0.7-1.7-2.1-2.6c-0.3-0.3-0.7-0.7,0.5-0.9
		s6-0.9,6.2-4.4c0-0.7,0.2-0.5,0.7-0.2c0.7,0.3,2.6,0.9,2.4,1.9s-0.3,3.3-0.3,4.1c-0.3,0.2-0.7,1.4,1,2.1c1.9,0.5,4.3,1,4.1,0.3
		c0-0.7-2.4-1-3.6-1.5c-0.7-0.3-0.5-0.7,0.2-2.1c0.7-1.2,1.9-4.3,0.7-5.1c-0.5-0.2-0.2-0.7,0.9-0.5c1,0.2,1.4,0.2,0.9,1
		c-0.5,0.7-0.9,1.7-0.3,3.3c0.3,1.5,1.4,4.4,1.4,4.4s0,0.9,0.9,1c0.9,0.2,2.6,0.3,2.6-0.5c0-0.9-1.4-0.7-1.9-0.7s-0.9-0.7-0.7-1.7
		s0.2-4.4,0.9-4.1c0.9,0.2,0,1.5,3.8,5.1c1.2,1.4,2.1,1.4,3.3,1.4s1.5-0.9-0.7-1.2c-1.4-0.2-1,0-1.7-1.4s-1.9-2.4-1.9-3.3
		c0-0.9,1-2.1,1-3.9c0-0.9,0.5-0.9,1.2-0.3c0.7,0.3,2.2,0.2,2.9-0.7s0.2-1.5-0.3-2.4C49.2,175.9,49.7,174.6,47.3,174.4z"/>
</g>
</svg>
