<?xml version="1.0" encoding="utf-8"?>
<!-- Generator: Adobe Illustrator 22.1.0, SVG Export Plug-In . SVG Version: 6.00 Build 0)  -->
<svg version="1.1" id="Layer_1" xmlns="http://www.w3.org/2000/svg" xmlns:xlink="http://www.w3.org/1999/xlink" x="0px" y="0px"
	 viewBox="0 0 75.4 47" style="enable-background:new 0 0 75.4 47;" xml:space="preserve">
<style type="text/css">
	.st0{fill:#19382B;}
	.st1{fill:#244F3B;}
	.st2{fill:#163024;}
	.st3{fill:#9D1C1F;}
	.st4{fill:#680E10;}
	.st5{fill:#330000;}
</style>
<rect x="74" y="94.4" class="st0" width="107.3" height="120.5"/>
<path class="st1" d="M50.9,24.6L51,25c0,0.1,0.1,0.1,0.3,0.3l0.4,0.1l-0.4,0.1c-0.1,0-0.1,0.1-0.3,0.3l-0.1,0.5l-0.2-0.4
	c0-0.1-0.1-0.1-0.3-0.3L50,25.5l0.4-0.1c0.1,0,0.1-0.1,0.3-0.3L50.9,24.6z"/>
<path class="st1" d="M35.3,18.1l0.1,0.3c0,0.1,0.1,0.2,0.2,0.2l0.3,0.1l-0.3,0.1c-0.1,0-0.2,0.1-0.2,0.2l-0.1,0.3L35.2,19
	c0-0.1-0.1-0.2-0.2-0.2l-0.3-0.2l0.3-0.1c0.1,0,0.2-0.1,0.2-0.2L35.3,18.1z"/>
<path class="st1" d="M34.5,20.3l0.1,0.3c0,0.1,0.1,0.3,0.3,0.3l0.3,0.1l-0.3,0.1c-0.1,0-0.3,0.1-0.3,0.3l-0.1,0.3l-0.1-0.3
	c0-0.1-0.1-0.3-0.3-0.3L33.8,21l0.3-0.1c0.1,0,0.3-0.1,0.3-0.3L34.5,20.3z"/>
<path class="st1" d="M32.7,23.9l0.1,0.3c0,0.1,0.1,0.2,0.2,0.2l0.3,0.1L33,24.6c-0.1,0-0.2,0.1-0.2,0.2l-0.1,0.4l-0.1-0.3
	c0-0.1-0.1-0.2-0.2-0.2l-0.3-0.1l0.3-0.1c0.1,0,0.2-0.1,0.2-0.2L32.7,23.9z"/>
<path class="st1" d="M57.7,23l0.1,0.5c0,0.1,0.1,0.3,0.4,0.4l0.5,0.1l-0.5,0.1c-0.1,0-0.3,0.1-0.4,0.4l-0.1,0.4l-0.1-0.5
	c0-0.1-0.1-0.3-0.4-0.4l-0.5-0.1l0.5-0.1c0.1,0,0.3-0.1,0.4-0.4L57.7,23z"/>
<path class="st1" d="M40.1,28.6l0.1,0.4c0,0.1,0.1,0.3,0.3,0.3l0.4,0.1l-0.4,0.1c-0.1,0-0.3,0.1-0.3,0.3l-0.1,0.4L40,29.8
	c0-0.1-0.1-0.3-0.3-0.3l-0.4-0.1l0.4-0.1c0.1,0,0.3-0.1,0.3-0.3L40.1,28.6z"/>
<path class="st1" d="M40.4,15.5l0.1,0.3c0,0.1,0.1,0.2,0.2,0.2l0.3,0.1l-0.3,0.2c-0.1,0-0.2,0.1-0.2,0.2l-0.1,0.3l-0.1-0.3
	c0-0.1-0.1-0.2-0.2-0.2l-0.4-0.2L40,16c0.1,0,0.2-0.1,0.2-0.2L40.4,15.5z"/>
<path class="st1" d="M35.5,14.7l0.1,0.4c0,0.1,0.1,0.3,0.3,0.3l0.4,0.1l-0.4,0.1c-0.1,0-0.3,0.1-0.3,0.3l-0.1,0.4l-0.1-0.4
	c0-0.1-0.1-0.3-0.3-0.3l-0.4-0.1l0.4-0.1c0.1,0,0.3-0.1,0.3-0.3L35.5,14.7z"/>
<path class="st1" d="M66.7,24.2l0.1,0.4c0,0.1,0.1,0.3,0.3,0.3l0.4,0.1l-0.4,0.1c-0.1,0-0.3,0.1-0.3,0.3l-0.1,0.5l-0.1-0.4
	c0-0.1-0.1-0.3-0.3-0.3l-0.4-0.1l0.4-0.1c0.1,0,0.3-0.1,0.3-0.3L66.7,24.2z"/>
<path class="st1" d="M54.8,20l0.1,0.4c0,0.1,0.1,0.1,0.3,0.3l0.4,0.1l-0.4,0.1c-0.1,0-0.1,0.1-0.3,0.3l-0.1,0.4l-0.2-0.3
	c0-0.1-0.1-0.1-0.3-0.3l-0.4-0.1l0.4-0.1c0.1,0,0.1-0.1,0.3-0.3L54.8,20z"/>
<path class="st1" d="M54.7,29.6l0.1,0.4c0,0.1,0.1,0.3,0.3,0.3l0.4,0.1l-0.4,0.1c-0.1,0-0.3,0.1-0.3,0.3l-0.1,0.5l-0.1-0.4
	c0-0.1-0.1-0.3-0.3-0.3l-0.4-0.1l0.4-0.1c0.1,0,0.3-0.1,0.3-0.3L54.7,29.6z"/>
<path class="st1" d="M48.5,15l0.1,0.3c0,0.1,0.1,0.2,0.2,0.2l0.3,0.1l-0.3,0.1c-0.1,0-0.2,0.1-0.2,0.2l-0.1,0.3l-0.1-0.3
	c0-0.1-0.1-0.2-0.2-0.2l-0.3-0.1l0.3-0.1c0.1,0,0.2-0.1,0.2-0.2L48.5,15z"/>
<path class="st1" d="M64.7,28.7l0.1,0.3c0,0.1,0.1,0.1,0.2,0.2l0.3,0.1L65,29.4c-0.1,0-0.1,0.1-0.2,0.2L64.7,30l-0.1-0.3
	c0-0.1-0.1-0.1-0.2-0.2L64,29.3l0.3-0.1c0.1,0,0.1-0.1,0.2-0.2L64.7,28.7z"/>
<path class="st1" d="M43.7,15.4l0.1,0.3c0,0.1,0.1,0.1,0.1,0.1l0.3,0.1L43.9,16c-0.1,0-0.1,0.1-0.1,0.1l-0.1,0.2L43.6,16
	c0-0.1-0.1-0.1-0.1-0.1l-0.3-0.1l0.3-0.1c0.1,0,0.1-0.1,0.1-0.1L43.7,15.4z"/>
<path class="st1" d="M67.9,21.4l0.1,0.3c0,0.1,0.1,0.2,0.2,0.2l0.3,0.1l-0.3,0.1c-0.1,0-0.2,0.1-0.2,0.2l-0.1,0.3l-0.1-0.3
	c0-0.1-0.1-0.2-0.2-0.2L67.3,22l0.3-0.1c0.1,0,0.2-0.1,0.2-0.2L67.9,21.4z"/>
<path class="st1" d="M49.5,22.6l0.1,0.4c0,0.1,0.1,0.3,0.3,0.3l0.4,0.1l-0.4,0.1c-0.1,0-0.3,0.1-0.3,0.3l-0.1,0.5l-0.1-0.4
	c0-0.1-0.1-0.3-0.3-0.3l-0.4-0.1l0.4-0.1c0.1,0,0.3-0.1,0.3-0.3L49.5,22.6z"/>
<path class="st1" d="M27.8,22.4l0.1,0.3c0,0.1,0.1,0.2,0.2,0.2l0.3,0.1l-0.3,0.1c-0.1,0-0.2,0.1-0.2,0.2l-0.1,0.3l-0.1-0.2
	c0-0.1-0.1-0.2-0.2-0.2l-0.3-0.1l0.3-0.1c0.1,0,0.2-0.1,0.2-0.2L27.8,22.4z"/>
<path class="st1" d="M57.7,30.3l0.1,0.3c0,0.1,0.1,0.1,0.1,0.1l0.3,0.1l-0.3,0.1c-0.1,0-0.1,0.1-0.1,0.1l-0.1,0.3L57.6,31
	c0-0.1-0.1-0.1-0.1-0.1l-0.3-0.1l0.3-0.1c0.1,0,0.1-0.1,0.1-0.1L57.7,30.3z"/>
<path class="st1" d="M63.3,21.8l0.1,0.3c0,0.1,0.1,0.1,0.1,0.1l0.3,0.1l-0.3,0.1c-0.1,0-0.1,0.1-0.1,0.1l-0.1,0.3l-0.1-0.3
	c0-0.1-0.1-0.1-0.1-0.1l-0.3-0.1l0.3-0.1c0.1,0,0.1-0.1,0.1-0.1L63.3,21.8z"/>
<path class="st1" d="M29.6,16.5l0.1,0.3c0,0.1,0.1,0.1,0.1,0.1l0.3,0.1l-0.3,0.1c-0.1,0-0.1,0.1-0.1,0.1l-0.1,0.3l-0.1-0.3
	c0-0.1-0.1-0.1-0.1-0.1L29.1,17l0.3-0.1c0.1,0,0.1-0.1,0.1-0.1L29.6,16.5z"/>
<path class="st1" d="M28.1,17.6l0.1,0.3c0,0.1,0.1,0.2,0.2,0.2l0.3,0.1l-0.3,0.1c-0.1,0-0.2,0.1-0.2,0.2l-0.1,0.3L28,18.5
	c0-0.1-0.1-0.2-0.2-0.2l-0.3-0.1l0.3-0.1c0.1,0,0.2-0.1,0.2-0.2L28.1,17.6z"/>
<path class="st1" d="M37.3,26.9l0.1,0.4c0,0.1,0.1,0.3,0.3,0.3l0.4,0.1l-0.4,0.2c-0.1,0-0.3,0.1-0.3,0.3l-0.1,0.4l-0.1-0.4
	c0-0.1-0.1-0.3-0.3-0.3l-0.4-0.1l0.4-0.1c0.1,0,0.3-0.1,0.3-0.3L37.3,26.9z"/>
<path class="st1" d="M60.9,25.5l0.1,0.4c0,0.1,0.1,0.1,0.3,0.3l0.4,0.1l-0.4,0.1c-0.1,0-0.1,0.1-0.3,0.3l-0.1,0.4l-0.1-0.4
	c0-0.1-0.1-0.1-0.3-0.3l-0.4-0.1l0.4-0.1c0.1,0,0.1-0.1,0.3-0.3L60.9,25.5z"/>
<path class="st1" d="M38.5,20.3l0.1,0.2c0,0.1,0.1,0.1,0.1,0.1l0.2,0.1l-0.2,0.1c-0.1,0-0.1,0.1-0.1,0.1l-0.1,0.2l-0.1-0.2
	c0-0.1-0.1-0.1-0.1-0.1l-0.2-0.1l0.2-0.1c0.1,0,0.1-0.1,0.1-0.1L38.5,20.3z"/>
<path class="st1" d="M38.9,13.4l0.1,0.3c0,0.1,0.1,0.2,0.2,0.2l0.3,0.1l-0.3,0.1c-0.1,0-0.2,0.1-0.2,0.2l-0.1,0.3l-0.1-0.3
	c0-0.1-0.1-0.2-0.2-0.2L38.3,14l0.3-0.1c0.1,0,0.2-0.1,0.2-0.2L38.9,13.4z"/>
<path class="st1" d="M53.2,26.7l0.1,0.4c0,0.1,0.1,0.3,0.3,0.3l0.4,0.1l-0.4,0.1c-0.1,0-0.3,0.1-0.3,0.3l-0.1,0.4l-0.1-0.4
	c0-0.1-0.1-0.3-0.3-0.3l-0.4-0.1l0.4-0.1c0.1,0,0.3-0.1,0.3-0.3L53.2,26.7z"/>
<path class="st1" d="M44.1,18.8l0.1,0.3c0,0.1,0.1,0.1,0.1,0.1l0.3,0.1l-0.3,0.1c-0.1,0-0.1,0.1-0.1,0.1l-0.1,0.3L44,19.5
	c0-0.1-0.1-0.1-0.1-0.1l-0.3-0.1l0.3-0.1c0.1,0,0.1-0.1,0.1-0.1L44.1,18.8z"/>
<path class="st1" d="M70.3,23.5l0.1,0.3c0,0.1,0.1,0.1,0.1,0.1l0.3,0.1l-0.3,0.1c-0.1,0-0.1,0.1-0.1,0.1l-0.1,0.3l-0.1-0.3
	c0-0.1-0.1-0.1-0.1-0.1L69.8,24l0.3-0.1c0.1,0,0.1-0.1,0.1-0.1L70.3,23.5z"/>
<path class="st1" d="M59.1,32l0.1,0.4c0,0.1,0.1,0.1,0.3,0.3l0.4,0.1l-0.4,0.1c-0.1,0-0.1,0.1-0.3,0.3l-0.1,0.4L59,33.3
	c0-0.1-0.1-0.1-0.3-0.3l-0.4-0.1l0.4-0.1c0.1,0,0.1-0.1,0.3-0.3L59.1,32z"/>
<path class="st1" d="M26.9,9.9l0.1,0.4c0,0.1,0.1,0.2,0.3,0.3l0.4,0.1l-0.4,0.1c-0.1,0-0.2,0.1-0.3,0.3l-0.1,0.2l-0.1-0.4
	c0-0.1-0.1-0.2-0.3-0.3l-0.4-0.1l0.4-0.1c0.1,0,0.2-0.1,0.3-0.3L26.9,9.9z"/>
<path class="st1" d="M30.4,9.3l0.1,0.3c0,0.1,0.1,0.1,0.3,0.3l0.3,0.1l-0.4,0c-0.1,0-0.1,0.1-0.3,0.3l-0.1,0.3l0-0.3
	c0-0.1-0.1-0.1-0.3-0.3h-0.3L30,9.9c0.1,0,0.1-0.1,0.3-0.3L30.4,9.3z"/>
<path class="st1" d="M33,11.9l0.1,0.6c0,0.1,0.1,0.3,0.3,0.3l0.6,0.1L33.4,13c-0.1,0-0.3,0.1-0.3,0.3L33,13.9l-0.2-0.6
	c0-0.1-0.1-0.3-0.3-0.3l-0.6-0.1l0.6-0.1c0.1,0,0.3-0.1,0.3-0.3L33,11.9z"/>
<path class="st1" d="M54.7,24.2l0.1,0.4c0,0.1,0.1,0.3,0.3,0.3l0.4,0.1l-0.4,0.1c-0.1,0-0.3,0.1-0.3,0.3l-0.1,0.5l-0.1-0.4
	c0-0.1-0.1-0.3-0.3-0.3l-0.4-0.1l0.4-0.1c0.1,0,0.3-0.1,0.3-0.3L54.7,24.2z"/>
<path class="st1" d="M35.1,22.5l0.1,0.6c0,0.1,0.1,0.3,0.3,0.3l0.6,0.1l-0.6,0.1c-0.1,0-0.3,0.1-0.3,0.3l-0.1,0.6L35,23.9
	c0-0.1-0.1-0.3-0.3-0.3l-0.6-0.1l0.6-0.2c0.1,0,0.3-0.1,0.3-0.3L35.1,22.5z"/>
<path class="st1" d="M32,16.4l0.1,0.4c0,0.1,0.1,0.2,0.2,0.2l0.4,0.1l-0.4,0.2c-0.1,0-0.2,0.1-0.2,0.2L32,17.9l-0.1-0.4
	c0-0.1-0.1-0.2-0.2-0.2l-0.4-0.1l0.4-0.1c0.1,0,0.2-0.1,0.2-0.2L32,16.4z"/>
<path class="st1" d="M30.4,12.6l0.1,0.3c0,0.1,0.1,0.2,0.2,0.2l0.3,0.1l-0.3,0.1c-0.1,0-0.2,0.1-0.2,0.2l-0.1,0.3l-0.1-0.3
	c0-0.1-0.1-0.2-0.2-0.2l-0.3-0.1l0.3-0.1c0.1,0,0.2-0.1,0.2-0.2L30.4,12.6z"/>
<path class="st1" d="M23.1,17.8l0.1,0.4c0,0.1,0.1,0.2,0.2,0.2l0.4,0.1l-0.4,0.1c-0.1,0-0.2,0.1-0.2,0.2l-0.1,0.4L23,18.8
	c0-0.1-0.1-0.2-0.2-0.2l-0.4-0.1l0.4-0.1c0.1,0,0.2-0.1,0.2-0.2L23.1,17.8z"/>
<path class="st1" d="M48.8,26.1l0.1,0.4c0,0.1,0.1,0.3,0.3,0.3l0.4,0.1L49.2,27c-0.1,0-0.3,0.1-0.3,0.3l-0.1,0.4l-0.1-0.4
	c0-0.1-0.1-0.3-0.3-0.3L48,26.9l0.4-0.1c0.1,0,0.3-0.1,0.3-0.3L48.8,26.1z"/>
<path class="st1" d="M51.2,33.5l0.1,0.3c0,0.1,0.1,0.2,0.2,0.2l0.3,0.1l-0.3,0.1c-0.1,0-0.2,0.1-0.2,0.2l-0.1,0.3v-0.4
	c0-0.1-0.1-0.2-0.2-0.2L50.7,34l0.3-0.1c0.1,0,0.2-0.1,0.2-0.2V33.5z"/>
<path class="st1" d="M24.7,10.8l0.1,0.2c0,0.1,0.1,0.1,0.1,0.1l0.2,0.1L25,11.3c-0.1,0-0.1,0.1-0.1,0.1l-0.2,0.3v-0.3
	c0-0.1-0.1-0.1-0.1-0.1l-0.2-0.1l0.2-0.1c0.1,0,0.1-0.1,0.1-0.1V10.8z"/>
<path class="st1" d="M25,19.3l0.1,0.4c0,0.1,0.1,0.3,0.3,0.3l0.4,0.1l-0.3,0.2c-0.1,0-0.3,0.1-0.3,0.3L25.1,21L25,20.6
	c0-0.1-0.1-0.3-0.3-0.3l-0.4-0.1l0.4-0.1c0.1,0,0.3-0.1,0.3-0.3L25,19.3z"/>
<path class="st1" d="M40.2,5.5l0.1,0.4c0,0.1,0.1,0.3,0.3,0.3L41,6.3l-0.4,0.1c-0.1,0-0.3,0.1-0.3,0.3l-0.1,0.6l-0.1-0.4
	c0-0.1-0.1-0.3-0.3-0.3l-0.4-0.1l0.3-0.2C39.8,6.3,40,6.2,40,6L40.2,5.5z"/>
<path class="st1" d="M54.1,15.8l0.1,0.4c0,0.1,0.1,0.2,0.2,0.2l0.4,0.1l-0.4,0.1c-0.1,0-0.2,0.1-0.2,0.2l-0.1,0.4L54,16.8
	c0-0.1-0.1-0.2-0.2-0.2l-0.4-0.1l0.4-0.1c0.1,0,0.2-0.1,0.2-0.2L54.1,15.8z"/>
<path class="st1" d="M29.7,3.1l0.1,0.5c0,0.1,0.1,0.3,0.4,0.4l0.5,0.1l-0.5,0.1c-0.1,0-0.3,0.1-0.4,0.4L29.7,5l-0.1-0.5
	c0-0.1-0.1-0.3-0.4-0.4h-0.5L29.2,4c0.1,0,0.3-0.1,0.4-0.4L29.7,3.1z"/>
<path class="st1" d="M35.3,6.9l0.1,0.4c0,0.1,0.1,0.3,0.3,0.3l0.4,0.1l-0.4,0.1c-0.1,0-0.3,0.1-0.3,0.3l-0.1,0.4l-0.1-0.4
	c0-0.1-0.1-0.3-0.3-0.3l-0.4-0.1l0.4-0.1c0.1,0,0.3-0.1,0.3-0.3L35.3,6.9z"/>
<path class="st1" d="M37.5,6.1l0.1,0.3c0,0.1,0.1,0.2,0.2,0.2l0.3,0.1l-0.4,0.1c-0.1,0-0.2,0.1-0.2,0.2v0.3L37.4,7
	c0-0.1-0.1-0.2-0.2-0.2l-0.3-0.1l0.3-0.1c0.1,0,0.2-0.1,0.2-0.2L37.5,6.1z"/>
<path class="st1" d="M58.5,18.2l0.1,0.3c0,0.1,0.1,0.2,0.2,0.2l0.3,0.1l-0.3,0.1c-0.1,0-0.2,0.1-0.2,0.2l-0.1,0.3l-0.1-0.3
	c0-0.1-0.1-0.2-0.2-0.2l-0.3-0.1l0.3-0.1c0.1,0,0.2-0.1,0.2-0.2L58.5,18.2z"/>
<path class="st1" d="M25,13.3l0.1,0.6c0,0.1,0.1,0.3,0.3,0.3l0.6,0.1l-0.6,0.1c-0.1,0-0.3,0.1-0.3,0.3L25,15.3l-0.1-0.6
	c0-0.1-0.1-0.3-0.3-0.3L24,14.3l0.6-0.1c0.1,0,0.3-0.1,0.3-0.3L25,13.3z"/>
<path class="st1" d="M32.7,5.2l0.1,0.5c0,0.1,0.1,0.3,0.3,0.3l0.5,0.1l-0.5,0.2c-0.1,0-0.3,0.1-0.3,0.3L32.7,7l-0.1-0.5
	c0-0.1-0.1-0.3-0.3-0.3l-0.5-0.1L32.3,6c0.1,0,0.3-0.1,0.3-0.3L32.7,5.2z"/>
<path class="st1" d="M52.4,15.6l0.1,0.4c0,0.1,0.1,0.1,0.3,0.3l0.4,0.1l-0.4,0.1c-0.1,0-0.1,0.1-0.3,0.3l-0.1,0.5l-0.1-0.4
	c0-0.1-0.1-0.1-0.3-0.3l-0.4-0.1l0.4-0.1c0.1,0,0.1-0.1,0.3-0.3L52.4,15.6z"/>
<path class="st1" d="M21,15.4l0.1,0.4c0,0.1,0.1,0.2,0.3,0.3l0.4,0.1l-0.4,0.1c-0.1,0-0.2,0.1-0.3,0.3L21,17l-0.1-0.4
	c0-0.1-0.1-0.2-0.3-0.3l-0.4-0.1l0.4-0.1c0.1,0,0.2-0.1,0.3-0.3L21,15.4z"/>
<path class="st1" d="M43.9,11.7l0.1,0.4c0,0.1,0.1,0.3,0.3,0.3l0.4,0.1l-0.4,0.1c-0.1,0-0.3,0.1-0.3,0.3l-0.1,0.4l-0.2-0.4
	c0-0.1-0.1-0.3-0.3-0.3L43,12.5l0.4-0.1c0.1,0,0.3-0.1,0.3-0.3L43.9,11.7z"/>
<path class="st1" d="M47.3,7.7l0.1,0.2C47.4,8,47.5,8,47.5,8l0.2,0.1l-0.2,0.1c-0.1,0-0.1,0.1-0.1,0.1l-0.1,0.2l-0.1-0.2
	c0-0.1-0.1-0.1-0.1-0.1l-0.2-0.1L47.1,8c0.1,0,0.1-0.1,0.1-0.1L47.3,7.7z"/>
<path class="st1" d="M46.6,21.5l0.1,0.4c0,0.1,0.1,0.3,0.3,0.3l0.4,0.1L47,22.4c-0.1,0-0.3,0.1-0.3,0.3l-0.1,0.4l-0.1-0.4
	c0-0.1-0.1-0.3-0.3-0.3l-0.5-0.1l0.4-0.1c0.1,0,0.3-0.1,0.3-0.3L46.6,21.5z"/>
<path class="st1" d="M50.4,12.9l0.1,0.3c0,0.1,0.1,0.1,0.1,0.1l0.3,0.1l-0.3,0.1c-0.1,0-0.1,0.1-0.1,0.1l-0.1,0.3l-0.1-0.3
	c0-0.1-0.1-0.1-0.1-0.1l-0.3-0.1l0.3-0.1c0.1,0,0.1-0.1,0.1-0.1L50.4,12.9z"/>
<path class="st1" d="M49.4,32.3l0.1,0.3c0,0.1,0.1,0.1,0.1,0.1l0.3,0.1l-0.3,0.1c-0.1,0-0.1,0.1-0.1,0.1l-0.1,0.3L49.3,33
	c0-0.1-0.1-0.1-0.1-0.1l-0.3-0.1l0.3-0.1c0.1,0,0.1-0.1,0.1-0.1L49.4,32.3z"/>
<path class="st1" d="M20,13.4l0.1,0.4c0,0.1,0.1,0.3,0.3,0.3l0.4,0.1l-0.4,0.1c-0.1,0-0.3,0.1-0.3,0.3L20,15l-0.1-0.4
	c0-0.1-0.1-0.3-0.3-0.3h-0.5l0.4-0.1c0.1,0,0.3-0.1,0.3-0.3L20,13.4z"/>
<path class="st1" d="M49.9,12l0.1,0.2c0,0.1,0.1,0.1,0.1,0.1l0.2,0.1l-0.2,0.1c-0.1,0-0.1,0.1-0.1,0.1l-0.1,0.2l-0.1-0.2
	c0-0.1-0.1-0.1-0.1-0.1l-0.2-0.1l0.2-0.1c0.1,0,0.1-0.1,0.1-0.1L49.9,12z"/>
<path class="st1" d="M66.2,33.8l0.1,0.5c0,0.1,0.1,0.3,0.3,0.3l0.5,0.1l-0.5,0.1c-0.1,0-0.3,0.1-0.3,0.3l-0.1,0.5l-0.1-0.5
	c0-0.1-0.1-0.3-0.3-0.3l-0.5-0.1l0.5-0.1c0.1,0,0.3-0.1,0.3-0.3L66.2,33.8z"/>
<path class="st1" d="M35.6,10.8l0.1,0.2c0,0.1,0.1,0.1,0.1,0.1l0.2,0.1l-0.2,0.1c-0.1,0-0.1,0.1-0.1,0.1l-0.1,0.2l-0.1-0.2
	c0-0.1-0.1-0.1-0.1-0.1l-0.2-0.1l0.2-0.1c0.1,0,0.1-0.1,0.1-0.1L35.6,10.8z"/>
<path class="st1" d="M36,3.6l0.1,0.6c0,0.1,0.1,0.3,0.3,0.3L37,4.6l-0.6,0.1c-0.1,0-0.3,0.1-0.3,0.3L36,5.6L35.9,5
	c0-0.1-0.1-0.3-0.3-0.3L35,4.6l0.6-0.1c0.1,0,0.3-0.1,0.3-0.3L36,3.6z"/>
<path class="st1" d="M42.4,8.9l0.1,0.4c0,0.1,0.1,0.3,0.3,0.3l0.4,0.1l-0.4,0.1c-0.1,0-0.3,0.1-0.3,0.3l-0.1,0.4l-0.1-0.4
	c0-0.1-0.1-0.3-0.3-0.3l-0.4-0.1L42,9.6c0.1,0,0.3-0.1,0.3-0.3L42.4,8.9z"/>
<path class="st1" d="M41.4,24.6l0.2,0.6c0,0.2,0.2,0.3,0.3,0.3l0.6,0.2l-0.6,0.2c-0.2,0-0.3,0.2-0.3,0.3l-0.2,0.6l-0.2-0.6
	c0-0.2-0.2-0.3-0.3-0.3l-0.6-0.2l0.6-0.2c0.2,0,0.3-0.2,0.3-0.3L41.4,24.6z"/>
<path class="st1" d="M23.2,23.3l0.2,0.6c0,0.2,0.2,0.3,0.3,0.3l0.6,0.2l-0.6,0.3c-0.2,0-0.3,0.2-0.3,0.3l-0.2,0.6L23,25
	c0-0.2-0.2-0.3-0.3-0.3l-0.6-0.2l0.6-0.2c0.2,0,0.3-0.2,0.3-0.3L23.2,23.3z"/>
<path class="st1" d="M44.1,4.4l0.1,0.4c0,0.1,0.1,0.2,0.2,0.2l0.4,0.1l-0.4,0.1c-0.1,0-0.2,0.1-0.2,0.2l-0.1,0.4L44,5.3
	c0-0.1-0.1-0.2-0.2-0.2L43.4,5l0.4-0.1c0.1,0,0.2-0.1,0.2-0.2L44.1,4.4z"/>
<path class="st1" d="M57,18.1l0.1,0.2c0,0.1,0.1,0.1,0.1,0.1l0.2,0.1l-0.2,0.1c-0.1,0-0.1,0.1-0.1,0.1L57,18.9l-0.1-0.2
	c0-0.1-0.1-0.1-0.1-0.1l-0.2-0.1l0.2-0.1c0.1,0,0.1-0.1,0.1-0.1L57,18.1z"/>
<path class="st1" d="M48.3,12.2l0.1,0.4c0,0.1,0.1,0.1,0.3,0.3l0.4,0.1l-0.4,0.1c-0.1,0-0.1,0.1-0.3,0.3l-0.1,0.4l-0.1-0.4
	c0-0.1-0.1-0.1-0.3-0.3L47.5,13l0.4-0.1c0.1,0,0.1-0.1,0.3-0.3L48.3,12.2z"/>
<path class="st1" d="M48.5,29.7l0.1,0.6c0,0.1,0.1,0.3,0.4,0.4l0.6,0.1L49,30.9c-0.1,0-0.3,0.1-0.4,0.4l-0.1,0.6l-0.1-0.6
	c0-0.1-0.1-0.3-0.4-0.4l-0.6-0.1l0.6-0.1c0.1,0,0.3-0.1,0.4-0.4L48.5,29.7z"/>
<path class="st1" d="M50.6,28.9l0.1,0.4c0,0.1,0.1,0.2,0.3,0.3l0.4,0.1L51,29.8c-0.1,0-0.2,0.1-0.3,0.3l-0.1,0.4l-0.1-0.4
	c0-0.1-0.1-0.2-0.3-0.3l-0.4-0.1l0.4-0.1c0.1,0,0.2-0.1,0.3-0.3L50.6,28.9z"/>
<path class="st1" d="M43.9,6.7L44,6.9C44,7,44.1,7,44.1,7l0.2,0.1l-0.2,0.1C44,7.2,44,7.3,44,7.3l-0.1,0.2l-0.1-0.2
	c0-0.1-0.1-0.1-0.1-0.1l-0.2-0.1L43.7,7c0.1,0,0.1-0.1,0.1-0.1L43.9,6.7z"/>
<path class="st1" d="M22,12l0.1,0.6c0,0.1,0.1,0.3,0.3,0.3L23,13l-0.6,0.1c-0.1,0-0.3,0.1-0.3,0.3L22,14l-0.1-0.6
	c0-0.1-0.1-0.3-0.3-0.3L21,13l0.6-0.1c0.1,0,0.3-0.1,0.3-0.3L22,12z"/>
<path class="st1" d="M33.1,3.3l0.1,0.4c0,0.1,0.1,0.3,0.3,0.3l0.4,0.1l-0.4,0.1c-0.1,0-0.3,0.1-0.3,0.3l-0.1,0.4L33,4.5
	c0-0.1-0.1-0.3-0.3-0.3l-0.4-0.1L32.7,4C32.8,4,33,3.9,33,3.7L33.1,3.3z"/>
<path class="st1" d="M27.2,15.1l0.1,0.5c0,0.1,0.1,0.3,0.3,0.3l0.5,0.1l-0.4,0.1c-0.1,0-0.3,0.1-0.3,0.3l-0.1,0.5l-0.1-0.5
	c0-0.1-0.1-0.3-0.3-0.3L26.4,16l0.5-0.1c0.1,0,0.3-0.1,0.3-0.3L27.2,15.1z"/>
<path class="st1" d="M53.8,37.3l-0.1-0.4c0-0.1-0.1-0.3-0.3-0.3L53,36.5l0.4-0.1c0.1,0,0.3-0.1,0.3-0.3l0.1-0.4l0.1,0.4
	c0,0.1,0.1,0.3,0.3,0.3l0.4,0.1l-0.4,0.1c-0.1,0-0.3,0.1-0.3,0.3L53.8,37.3z"/>
<path class="st1" d="M47.1,37.9L47,37.4c0-0.1-0.1-0.3-0.4-0.4l-0.5-0.1l0.5-0.1c0.1,0,0.3-0.1,0.4-0.4l0.1-0.5l0.1,0.5
	c0,0.1,0.1,0.3,0.4,0.4l0.5,0.1L47.6,37c-0.1,0-0.3,0.1-0.4,0.4L47.1,37.9z"/>
<path class="st1" d="M58.6,36l-0.1-0.4c0-0.1-0.1-0.3-0.3-0.3l-0.4-0.1l0.4-0.1c0.1,0,0.3-0.1,0.3-0.3l0.1-0.4l0.1,0.4
	c0,0.1,0.1,0.3,0.3,0.3l0.4,0.1L59,35.3c-0.1,0-0.3,0.1-0.3,0.3L58.6,36z"/>
<path class="st1" d="M56.5,36.7l-0.1-0.3c0-0.1-0.1-0.2-0.2-0.2l-0.3-0.1l0.3-0.1c0.1,0,0.2-0.1,0.2-0.2l0.1-0.3l0.1,0.3
	c0,0.1,0.1,0.2,0.2,0.2l0.3,0.1l-0.3,0.1c-0.1,0-0.2,0.1-0.2,0.2L56.5,36.7z"/>
<path class="st1" d="M61.3,37.7l-0.1-0.5c0-0.1-0.1-0.3-0.3-0.3l-0.5-0.1l0.5-0.1c0.1,0,0.3-0.1,0.3-0.3l0.1-0.5l0.1,0.5
	c0,0.1,0.1,0.3,0.3,0.3l0.5,0.1l-0.5,0.1c-0.1,0-0.3,0.1-0.3,0.3L61.3,37.7z"/>
<path class="st1" d="M46.4,39.2L46.3,39c0-0.1-0.1-0.1-0.1-0.1L46,38.8l0.2-0.1c0.1,0,0.1-0.1,0.1-0.1l0.1-0.2l0.1,0.2
	c0,0.1,0.1,0.1,0.1,0.1l0.2,0.1l-0.2,0.1c-0.1,0-0.1,0.1-0.1,0.1L46.4,39.2z"/>
<path class="st1" d="M40.3,38.9l-0.1-0.6c0-0.1-0.1-0.3-0.3-0.3l-0.6-0.1l0.6-0.1c0.1,0,0.3-0.1,0.3-0.3l0.1-0.6l0.1,0.6
	c0,0.1,0.1,0.3,0.3,0.3l0.6,0.1L40.7,38c-0.1,0-0.3,0.1-0.3,0.3L40.3,38.9z"/>
<path class="st1" d="M57.9,39.3l-0.1-0.6c0-0.1-0.1-0.3-0.3-0.3l-0.6-0.1l0.6-0.1c0.1,0,0.3-0.1,0.3-0.3l0.1-0.6l0.1,0.6
	c0,0.1,0.1,0.3,0.3,0.3l0.6,0.1l-0.6,0.1c-0.1,0-0.3,0.1-0.3,0.3L57.9,39.3z"/>
<path class="st1" d="M49.9,38.4L49.8,38c0-0.1-0.1-0.2-0.2-0.2l-0.4-0.1l0.4-0.1c0.1,0,0.2-0.1,0.2-0.2l0.1-0.4l0.1,0.4
	c0,0.1,0.1,0.2,0.2,0.2l0.4,0.1l-0.4,0.1c-0.1,0-0.2,0.1-0.2,0.2L49.9,38.4z"/>
<path class="st1" d="M50.1,36.2L50,36c0-0.1-0.1-0.1-0.1-0.1l-0.2-0.2l0.2-0.1c0.1,0,0.1-0.1,0.1-0.1l0.1-0.2l0.1,0.2
	c0,0.1,0.1,0.1,0.1,0.1l0.2,0.1l-0.2,0.1c-0.1,0-0.1,0.1-0.1,0.1L50.1,36.2z"/>
<path class="st1" d="M43.6,37.7l-0.1-0.4c0-0.1-0.1-0.3-0.3-0.3l-0.4-0.1l0.4-0.1c0.1,0,0.3-0.1,0.3-0.3l0.1-0.4l0.1,0.4
	c0,0.1,0.1,0.3,0.3,0.3l0.4,0.1L44,37c-0.1,0-0.3,0.1-0.3,0.3L43.6,37.7z"/>
<path class="st1" d="M36.1,36.9L36,36.5c0-0.1-0.1-0.3-0.3-0.3l-0.4-0.1l0.4-0.1c0.1,0,0.3-0.1,0.3-0.3l0.1-0.4l0.1,0.4
	c0,0.1,0.1,0.3,0.3,0.3l0.4,0.1l-0.4,0.1c-0.1,0-0.3,0.1-0.3,0.3L36.1,36.9z"/>
<path class="st1" d="M59.8,17.9l0.1,0.4c0,0.1,0.1,0.3,0.3,0.3l0.4,0.1l-0.4,0.1c-0.1,0-0.3,0.1-0.3,0.3l-0.1,0.4l-0.1-0.3
	c0-0.1-0.1-0.3-0.3-0.3L59,18.8l0.4-0.1c0.1,0,0.3-0.1,0.3-0.3L59.8,17.9z"/>
<path class="st1" d="M48.8,19.4l0.1,0.3c0,0.1,0.1,0.2,0.2,0.2l0.3,0.1l-0.3,0.1c-0.1,0-0.2,0.1-0.2,0.2l-0.1,0.3l-0.1-0.3
	c0-0.1-0.1-0.2-0.2-0.2L48.2,20l0.3-0.1c0.1,0,0.2-0.1,0.2-0.2L48.8,19.4z"/>
<path class="st1" d="M53.1,12.5l0.1,0.4c0,0.1,0.1,0.1,0.3,0.3l0.4,0.1l-0.4,0.1c-0.1,0-0.1,0.1-0.3,0.3l-0.1,0.4L53,13.7
	c0-0.1-0.1-0.1-0.3-0.3l-0.4-0.1h0.4c0.1,0,0.1-0.1,0.3-0.3L53.1,12.5z"/>
<path class="st1" d="M45.6,32.5l0.1,0.4c0,0.1,0.1,0.2,0.2,0.2l0.4,0.1l-0.4,0.1c-0.1,0-0.2,0.1-0.2,0.2l-0.1,0.4l-0.1-0.4
	c0-0.1-0.1-0.2-0.2-0.2h-0.5l0.4-0.1c0.1,0,0.2-0.1,0.2-0.2L45.6,32.5z"/>
<path class="st1" d="M14.9,9.3L15,9.8c0,0.1,0.1,0.3,0.4,0.4l0.5,0.1l-0.5,0.1c-0.1,0-0.3,0.1-0.4,0.4l-0.1,0.5l-0.2-0.5
	c0-0.1-0.1-0.3-0.4-0.4l-0.4-0.1l0.5-0.1c0.1,0,0.3-0.1,0.4-0.4L14.9,9.3z"/>
<path class="st1" d="M40.7,33.8l0.1,0.4c0,0.1,0.1,0.2,0.2,0.2l0.4,0.1L41,34.6c-0.1,0-0.2,0.1-0.2,0.2l-0.1,0.4l-0.1-0.4
	c0-0.1-0.1-0.2-0.2-0.2L40,34.5l0.4-0.1c0.1,0,0.2-0.1,0.2-0.2L40.7,33.8z"/>
<path class="st1" d="M43.4,31.5l0.1,0.4c0,0.1,0.1,0.1,0.3,0.3l0.4,0.1l-0.4,0.1c-0.1,0-0.1,0.1-0.3,0.3l-0.1,0.4l-0.1-0.4
	c0-0.1-0.1-0.1-0.3-0.3l-0.4-0.1l0.4-0.1c0.1,0,0.1-0.1,0.3-0.3L43.4,31.5z"/>
<path class="st1" d="M15.5,8l0.1,0.2c0,0.1,0.1,0.1,0.1,0.1l0.2,0.1l-0.2,0.1c-0.1,0-0.1,0.1-0.1,0.1l-0.1,0.2l-0.1-0.2
	c0-0.1-0.1-0.1-0.1-0.1l-0.2-0.1l0.2-0.1c0.1,0,0.1-0.1,0.1-0.1L15.5,8z"/>
<path class="st1" d="M35.8,32l0.1,0.4c0,0.1,0.1,0.1,0.3,0.3l0.4,0.1l-0.4,0.1c-0.1,0-0.1,0.1-0.3,0.3l-0.1,0.4l-0.1-0.3
	c0-0.1-0.1-0.1-0.3-0.3L35,32.9l0.4-0.1c0.1,0,0.1-0.1,0.3-0.3L35.8,32z"/>
<path class="st1" d="M29,10l0.1,0.3c0,0.1,0.1,0.1,0.1,0.1l0.3,0.1l-0.3,0.1c-0.1,0-0.1,0.1-0.1,0.1L29,11l-0.1-0.3
	c0-0.1-0.1-0.1-0.1-0.1l-0.3-0.1l0.3-0.1c0.1,0,0.1-0.1,0.1-0.1L29,10z"/>
<path class="st1" d="M32.8,27.4l0.1,0.6c0,0.1,0.1,0.3,0.3,0.3l0.6,0.1l-0.6,0.1c-0.1,0-0.3,0.1-0.3,0.3l-0.1,0.6l-0.1-0.6
	c0-0.1-0.1-0.3-0.3-0.3l-0.7-0.1l0.6-0.1c0.1,0,0.3-0.1,0.3-0.3L32.8,27.4z"/>
<path class="st1" d="M28.5,9.2l0.1,0.2c0,0.1,0.1,0.1,0.1,0.1l0.2,0.1l-0.2,0.1c-0.1,0-0.1,0.1-0.1,0.1L28.5,10l-0.1-0.2
	c0-0.1-0.1-0.1-0.1-0.1l-0.2-0.1l0.2-0.1c0.1,0,0.1-0.1,0.1-0.1L28.5,9.2z"/>
<path class="st1" d="M20.8,10.2l0.1,0.4c0,0.1,0.1,0.3,0.3,0.3l0.4,0.1l-0.4,0.1c-0.1,0-0.3,0.1-0.3,0.3l-0.1,0.4l-0.1-0.4
	c0-0.1-0.1-0.3-0.3-0.3L20,11l0.4-0.1c0.1,0,0.3-0.1,0.3-0.3L20.8,10.2z"/>
<path class="st1" d="M12,8.8l0.1,0.4c0,0.1,0.1,0.2,0.2,0.2l0.4,0.1l-0.4,0.1c-0.1,0-0.2,0.1-0.2,0.2L12,10.2l-0.1-0.4
	c0-0.1-0.1-0.2-0.2-0.2l-0.4-0.1l0.4-0.2c0.1,0,0.2-0.1,0.2-0.2L12,8.8z"/>
<path class="st1" d="M11.8,11.1l0.1,0.2c0,0.1,0.1,0.1,0.1,0.1l0.2,0.1L12,11.6c-0.1,0-0.1,0.1-0.1,0.1l-0.1,0.2l-0.1-0.2
	c0-0.1-0.1-0.1-0.1-0.1l-0.2-0.1l0.2-0.1c0.1,0,0.1-0.1,0.1-0.1L11.8,11.1z"/>
<path class="st1" d="M18.3,9.6l0.1,0.4c0,0.1,0.1,0.3,0.3,0.3l0.4,0.1l-0.4,0.1c-0.1,0-0.3,0.1-0.3,0.3l-0.1,0.4l-0.1-0.4
	c0-0.1-0.1-0.3-0.3-0.3l-0.4-0.2l0.4-0.1c0.1,0,0.3-0.1,0.3-0.3L18.3,9.6z"/>
<path class="st1" d="M37,29.3l0.1,0.4c0,0.1,0.1,0.3,0.3,0.3l0.4,0.1l-0.4,0.2c-0.1,0-0.3,0.1-0.3,0.3L37,31l-0.1-0.4
	c0-0.1-0.1-0.3-0.3-0.3l-0.4-0.1l0.4-0.1c0.1,0,0.3-0.1,0.3-0.3L37,29.3z"/>
<path class="st1" d="M44.7,29.2l0.1,0.4c0,0.1,0.1,0.1,0.3,0.3l0.4,0.1l-0.4,0.1c-0.1,0-0.1,0.1-0.3,0.3l-0.1,0.5l-0.1-0.4
	c0-0.1-0.1-0.1-0.3-0.3l-0.4-0.1l0.4-0.1c0.1,0,0.1-0.1,0.3-0.3L44.7,29.2z"/>
<path class="st2" d="M-58.3,127.2c-0.5,1.6-0.5,2.5-3.6,5.8c-6.1,6.4-13.1,3.1-13.1,3.1l0.6-0.7c0,0,8.5,0.5,11.9-5
	c2-3.6,2.6-7,2.5-8c-0.4-2.5-1-0.1-1,0c0,0-0.5,4.2-3.4,7c-4.8,5-7.9,3.7-7.9,3.7s2.3-2.4,3.1-5.4c1.3-4.6,0.5-8-4.2-11.5
	c-5-3.7-11.5-2.6-14.2,0.2c-1.7,1.8-2.2,2.8-3.1,3.8c-1.2,1.3-2.6,0.6-3,1c-0.8,0.8,0.7,1,1.4,1.6c0.6,0.5-1.2,1.3-0.5,1.4
	c0.7,0.1,2.4-0.5,3-1c0.8-0.6,1.7-1.8,3.6-3.7c2.4-2.5,5.8-3,9-0.5c2.3,1.6,3.4,5,0.8,7.7c-4.2,4.3-11.4,1.6-13.1,1.6
	c-1.6,0-2.5,1.2-3.5,1.3s-4.6,0.5-4.6,0.5s-3.6-2-6.8,0.7c-3.4,2.8-2.2,6.5-5.3,9.5c-0.6,0.6-1,1.6-1.3,2.5c-1,1.1-1.8,2.4-1.6,3.4
	c0,0-9.2,1-11.2,1.9c-1.7,0.8-3.2,1.6-5.4,4.7c0,0-4.2,5.5,1.6,19c0,0,0.5,2.2-0.5,4.7c0,0-1,7-1.1,8.4c-0.1,1.4-1.6,3,0.5,3.6
	c0,0,7.8,1.3,9-1.1c0.4-0.6,0.2-1.8-1.3-2.6c0,0-0.5-0.8-0.2-2.3c0.2-1.4,2.4-4.6,2.8-6.1c0.4-1.2,0.1-4.7,0.1-4.7s6.8,0,7.3,0
	s2.8,10.2,2.2,11c-0.7,0.7-3,5.3,3.7,3.7l-0.4,1.2c-1.3,2.6,0,3,0,3c4.4,1.4,10,0.1,10.2-1.1c0.2-0.7-1.8-3.5-1.8-3.5
	c0.5-1.4,0-6,0-6c0.5-0.8,1.6-10.4,1.6-10.4c1.3,0,2.6-0.5,2.6-0.5s9.5-1.8,9.6,5.6c0,2.5-0.7,3.5-1,4.7c-0.4,2.2,5,1.8,5,1.8
	s4.3,0,5-1.3c0.7-1.3-1.8-3.8-2.4-4.3s-0.5-7.3-0.5-7.3c2-6.5-7.4-8.4-7.4-8.4c0.4-1.4,0.4-6.8,0.4-9.8c1.1-1.6,2.6-3.4,3.7-4.4
	c2-2.2,2.2-2.4,3.5-2.4c1.6,0,2.2-0.4,2.8-1c0,0-1.3-0.8-3.4-1.3c-2.5-0.5-3.6-0.5-3.6-0.5l-0.5-1.7c0,0,1.3,0.5,2.5,0
	c0.5-0.1,0.6-0.2,0.7-0.4c0.7,0.2,10,3.7,16.7-3.1c1.9-1.9,3.3-5.2,3.7-7.4c0.2-1.2,0.3-2.2,0.1-2.1
	C-57.8,125.5-58.1,126.3-58.3,127.2z"/>
<path class="st0" d="M-120.3,127.2c-0.5,1.6-0.5,2.5-3.6,5.8c-6.1,6.4-13.1,3.1-13.1,3.1l0.6-0.7c0,0,8.5,0.5,11.9-5
	c2-3.6,2.6-7,2.5-8c-0.4-2.5-1-0.1-1,0c0,0-0.5,4.2-3.4,7c-4.8,5-7.9,3.7-7.9,3.7s2.3-2.4,3.1-5.4c1.3-4.6,0.5-8-4.2-11.5
	c-5-3.7-11.5-2.6-14.2,0.2c-1.7,1.8-2.2,2.8-3.1,3.8c-1.2,1.3-2.6,0.6-3,1c-0.8,0.8,0.7,1,1.4,1.6c0.6,0.5-1.2,1.3-0.5,1.4
	s2.4-0.5,3-1c0.8-0.6,1.7-1.8,3.6-3.7c2.4-2.5,5.8-3,9-0.5c2.3,1.6,3.4,5,0.8,7.7c-4.2,4.3-11.4,1.6-13.1,1.6
	c-1.6,0-2.5,1.2-3.5,1.3s-4.6,0.5-4.6,0.5s-3.6-2-6.8,0.7c-3.4,2.8-2.2,6.5-5.3,9.5c-0.6,0.6-1,1.6-1.3,2.5c-1,1.1-1.8,2.4-1.6,3.4
	c0,0-9.2,1-11.2,1.9c-1.7,0.8-3.2,1.6-5.4,4.7c0,0-4.2,5.5,1.6,19c0,0,0.5,2.2-0.5,4.7c0,0-1,7-1.1,8.4s-1.6,3,0.5,3.6
	c0,0,7.8,1.3,9-1.1c0.4-0.6,0.2-1.8-1.3-2.6c0,0-0.5-0.8-0.2-2.3c0.2-1.4,2.4-4.6,2.8-6.1c0.4-1.2,0.1-4.7,0.1-4.7s6.8,0,7.3,0
	s2.8,10.2,2.2,11c-0.7,0.7-3,5.3,3.7,3.7l-0.4,1.2c-1.3,2.6,0,3,0,3c4.4,1.4,10,0.1,10.2-1.1c0.2-0.7-1.8-3.5-1.8-3.5
	c0.5-1.4,0-6,0-6c0.5-0.8,1.6-10.4,1.6-10.4c1.3,0,2.6-0.5,2.6-0.5s9.5-1.8,9.6,5.6c0,2.5-0.7,3.5-1,4.7c-0.4,2.2,5,1.8,5,1.8
	s4.3,0,5-1.3s-1.8-3.8-2.4-4.3c-0.6-0.5-0.5-7.3-0.5-7.3c2-6.5-7.4-8.4-7.4-8.4c0.4-1.4,0.4-6.8,0.4-9.8c1.1-1.6,2.6-3.4,3.7-4.4
	c2-2.2,2.2-2.4,3.5-2.4c1.6,0,2.2-0.4,2.8-1c0,0-1.3-0.8-3.4-1.3c-2.5-0.5-3.6-0.5-3.6-0.5l-0.5-1.7c0,0,1.3,0.5,2.5,0
	c0.5-0.1,0.6-0.2,0.7-0.4c0.7,0.2,10,3.7,16.7-3.1c1.9-1.9,3.3-5.2,3.7-7.4c0.2-1.2,0.3-2.2,0.1-2.1
	C-119.9,125.5-120.1,126.3-120.3,127.2z"/>
<path class="st1" d="M10.2,127.2c-0.5,1.6-0.5,2.5-3.6,5.8c-6.1,6.4-13.1,3.1-13.1,3.1l0.6-0.7c0,0,8.5,0.5,11.9-5
	c2-3.6,2.6-7,2.5-8c-0.4-2.5-1-0.1-1,0c0,0-0.5,4.2-3.4,7c-4.8,5-7.9,3.7-7.9,3.7s2.3-2.4,3.1-5.4c1.3-4.6,0.5-8-4.2-11.5
	c-4.9-3.9-11.4-2.8-14,0.1c-1.7,1.8-2.2,2.8-3.1,3.8c-1.2,1.3-2.6,0.6-3,1c-0.8,0.8,0.7,1,1.4,1.6c0.6,0.5-1.2,1.3-0.5,1.4
	c0.7,0.1,2.4-0.5,3-1c0.8-0.6,1.7-1.8,3.6-3.7c2.4-2.5,5.8-3,9-0.5c2.3,1.6,3.4,5,0.8,7.7c-4.2,4.3-11.4,1.6-13.1,1.6
	c-1.6,0-2.5,1.2-3.5,1.3s-4.6,0.5-4.6,0.5s-3.6-2-6.8,0.7c-3.4,2.8-2.2,6.5-5.3,9.5c-0.6,0.6-1,1.6-1.3,2.5c-1,1.1-1.8,2.4-1.6,3.4
	c0,0-9.2,1-11.2,1.9c-1.7,0.8-3.2,1.6-5.4,4.7c0,0-4.2,5.5,1.6,19c0,0,0.5,2.2-0.5,4.7c0,0-1,7-1.1,8.4s-1.6,3,0.5,3.6
	c0,0,7.8,1.3,9-1.1c0.4-0.6,0.2-1.8-1.3-2.6c0,0-0.5-0.8-0.2-2.3c0.2-1.4,2.4-4.6,2.8-6.1c0.4-1.2,0.1-4.7,0.1-4.7s6.8,0,7.3,0
	s2.8,10.2,2.2,11c-0.7,0.7-3,5.3,3.7,3.7l-0.4,1.2c-1.3,2.6,0,3,0,3c4.4,1.4,10,0.1,10.2-1.1c0.2-0.7-1.8-3.5-1.8-3.5
	c0.5-1.4,0-6,0-6c0.5-0.8,1.6-10.4,1.6-10.4c1.3,0,2.6-0.5,2.6-0.5s9.5-1.8,9.6,5.6c0,2.5-0.7,3.5-1,4.7c-0.4,2.2,5,1.8,5,1.8
	s4.3,0,5-1.3s-1.8-3.8-2.4-4.3s-0.5-7.3-0.5-7.3c2-6.5-7.4-8.4-7.4-8.4c0.6-1.5,0.6-6.9,0.6-9.9c1.1-1.6,2.6-3.4,3.7-4.4
	c2-2.2,2.2-2.4,3.5-2.4c1.6,0,2.2-0.4,2.8-1c0,0-1.3-0.8-3.4-1.3c-2.6-0.5-3.6-0.5-3.6-0.5l-0.5-1.7c0,0,1.3,0.5,2.5,0
	c0.5-0.1,0.6-0.2,0.7-0.4c0.7,0.2,10,3.7,16.7-3.1c1.9-1.9,3.3-5.2,3.7-7.4c0.2-1.2,0.3-2.2,0.1-2.1
	C10.7,125.5,10.5,126.3,10.2,127.2z"/>
<g>
	<path class="st3" d="M97.5,166.7c-1.9-0.2-1.2,1.9-3.3,1.5c-3.6-0.3-5-2.4-9.8-2.6c-2.6,0-4.8,1.5-5.6,1.5c-1.2-0.2-3.4-1-3.3-3.9
		c0.2-2.9,3.6-6.5,8.2-3.3c1.9,1.9,6.3,5.3,9.9,3.3c4.8-2.9,0.9-6.8,0-7s-1,0.7-0.2,1.2c1.9,2.1,1.2,3.6-0.2,4.4
		c-1.4,0.7-3.8,1.9-8.2-2.6c-8.2-6.7-12.3,2.1-12.3,4.3s1.2,6,5.1,6.2c0.7,0,0.9,0.5,0.7,1c-0.2,0.5-0.2,2.9,0.2,3.9
		c0.3,1,0,1-0.9,1.5s-4.3,2.2-4.3,2.2s-0.7,0.7-0.2,1.4s2.4,3.8,4.1,2.9c0.7-0.3-0.7-1.7-2.1-2.6c-0.3-0.3-0.7-0.7,0.5-0.9
		s6-0.9,6.2-4.4c0-0.7,0.2-0.5,0.7-0.2c0.7,0.3,2.6,0.9,2.4,1.9s-0.3,3.3-0.3,4.1c-0.3,0.2-0.7,1.4,1,2.1c1.9,0.5,4.3,1,4.1,0.3
		c0-0.7-2.4-1-3.6-1.5c-0.7-0.3-0.5-0.7,0.2-2.1c0.7-1.2,1.9-4.3,0.7-5.1c-0.5-0.2-0.2-0.7,0.9-0.5c1,0.2,1.4,0.2,0.9,1
		c-0.5,0.7-0.9,1.7-0.3,3.3c0.3,1.5,1.4,4.4,1.4,4.4s0,0.9,0.9,1c0.9,0.2,2.6,0.3,2.6-0.5c0-0.9-1.4-0.7-1.9-0.7s-0.9-0.7-0.7-1.7
		s0.2-4.4,0.9-4.1c0.9,0.2,0,1.5,3.8,5.1c1.2,1.4,2.1,1.4,3.3,1.4s1.5-0.9-0.7-1.2c-1.4-0.2-1,0-1.7-1.4s-1.9-2.4-1.9-3.3
		c0-0.9,1-2.1,1-3.9c0-0.9,0.5-0.9,1.2-0.3c0.7,0.3,2.2,0.2,2.9-0.7c0.7-0.9,0.2-1.5-0.3-2.4C99.4,168.2,99.9,166.9,97.5,166.7z"/>
	<path class="st4" d="M66.2,166.7c-1.9-0.2-1.2,1.9-3.3,1.5c-3.6-0.3-5-2.4-9.8-2.6c-2.6,0-4.8,1.5-5.6,1.5c-1.2-0.2-3.4-1-3.3-3.9
		c0.2-2.9,3.6-6.5,8.2-3.3c1.9,1.9,6.3,5.3,9.9,3.3c4.8-2.9,0.9-6.8,0-7s-1,0.7-0.2,1.2c1.9,2.1,1.2,3.6-0.2,4.4
		c-1.4,0.7-3.8,1.9-8.2-2.6c-8.2-6.7-12.3,2.1-12.3,4.3s1.2,6,5.1,6.2c0.7,0,0.9,0.5,0.7,1s-0.2,2.9,0.2,3.9c0.3,1,0,1-0.9,1.5
		s-4.3,2.2-4.3,2.2s-0.7,0.7-0.2,1.4s2.4,3.8,4.1,2.9c0.7-0.3-0.7-1.7-2.1-2.6c-0.3-0.3-0.7-0.7,0.5-0.9s6-0.9,6.2-4.4
		c0-0.7,0.2-0.5,0.7-0.2c0.7,0.3,2.6,0.9,2.4,1.9s-0.3,3.3-0.3,4.1c-0.3,0.2-0.7,1.4,1,2.1c1.9,0.5,4.3,1,4.1,0.3
		c0-0.7-2.4-1-3.6-1.5c-0.7-0.3-0.5-0.7,0.2-2.1c0.7-1.2,1.9-4.3,0.7-5.1c-0.5-0.2-0.2-0.7,0.9-0.5c1,0.2,1.4,0.2,0.9,1
		c-0.5,0.7-0.9,1.7-0.3,3.3c0.3,1.5,1.4,4.4,1.4,4.4s0,0.9,0.9,1c0.9,0.2,2.6,0.3,2.6-0.5c0-0.9-1.4-0.7-1.9-0.7s-0.9-0.7-0.7-1.7
		c0.2-1,0.2-4.4,0.9-4.1c0.9,0.2,0,1.5,3.8,5.1c1.2,1.4,2.1,1.4,3.3,1.4c1.2,0,1.5-0.9-0.7-1.2c-1.4-0.2-1,0-1.7-1.4
		s-1.9-2.4-1.9-3.3c0-0.9,1-2.1,1-3.9c0-0.9,0.5-0.9,1.2-0.3c0.7,0.3,2.2,0.2,2.9-0.7c0.7-0.9,0.2-1.5-0.3-2.4
		C68.1,168.2,68.6,166.9,66.2,166.7z"/>
	<path class="st5" d="M35,166.7c-1.9-0.2-1.2,1.9-3.3,1.5c-3.6-0.3-5-2.4-9.8-2.6c-2.6,0-4.8,1.5-5.6,1.5c-1.2-0.2-3.4-1-3.3-3.9
		c0.2-2.9,3.6-6.5,8.2-3.3c1.9,1.9,6.3,5.3,9.9,3.3c4.8-2.9,0.9-6.8,0-7s-1,0.7-0.2,1.2c1.9,2.1,1.2,3.6-0.2,4.4
		c-1.4,0.7-3.8,1.9-8.2-2.6c-8.2-6.7-12.3,2.1-12.3,4.3s1.2,6,5.1,6.2c0.7,0,0.9,0.5,0.7,1c-0.2,0.5-0.2,2.9,0.2,3.9
		c0.3,1,0,1-0.9,1.5c-0.9,0.5-4.3,2.2-4.3,2.2s-0.7,0.7-0.2,1.4s2.4,3.8,4.1,2.9c0.7-0.3-0.7-1.7-2.1-2.6c-0.3-0.3-0.7-0.7,0.5-0.9
		s6-0.9,6.2-4.4c0-0.7,0.2-0.5,0.7-0.2c0.7,0.3,2.6,0.9,2.4,1.9s-0.3,3.3-0.3,4.1c-0.3,0.2-0.7,1.4,1,2.1c1.9,0.5,4.3,1,4.1,0.3
		c0-0.7-2.4-1-3.6-1.5c-0.7-0.3-0.5-0.7,0.2-2.1c0.7-1.2,1.9-4.3,0.7-5.1c-0.5-0.2-0.2-0.7,0.9-0.5c1,0.2,1.4,0.2,0.9,1
		c-0.5,0.7-0.9,1.7-0.3,3.3c0.3,1.5,1.4,4.4,1.4,4.4s0,0.9,0.9,1c0.9,0.2,2.6,0.3,2.6-0.5c0-0.9-1.4-0.7-1.9-0.7s-0.9-0.7-0.7-1.7
		s0.2-4.4,0.9-4.1c0.9,0.2,0,1.5,3.8,5.1c1.2,1.4,2.1,1.4,3.3,1.4s1.5-0.9-0.7-1.2c-1.4-0.2-1,0-1.7-1.4s-1.9-2.4-1.9-3.3
		c0-0.9,1-2.1,1-3.9c0-0.9,0.5-0.9,1.2-0.3c0.7,0.3,2.2,0.2,2.9-0.7s0.2-1.5-0.3-2.4C36.9,168.2,37.4,166.9,35,166.7z"/>
</g>
</svg>
