<?xml version="1.0" encoding="utf-8"?>
<!-- Generator: Adobe Illustrator 22.1.0, SVG Export Plug-In . SVG Version: 6.00 Build 0)  -->
<svg version="1.1" id="Layer_1" xmlns="http://www.w3.org/2000/svg" xmlns:xlink="http://www.w3.org/1999/xlink" x="0px" y="0px"
	 viewBox="0 0 100 62.3" style="enable-background:new 0 0 100 62.3;" xml:space="preserve">
<style type="text/css">
	.st0{fill:#19382B;}
	.st1{fill:#244F3B;}
	.st2{fill:#163024;}
	.st3{fill:#9D1C1F;}
	.st4{fill:#680E10;}
	.st5{fill:#330000;}
</style>
<rect x="86.3" y="102.1" class="st0" width="107.3" height="120.5"/>
<g>
	<g>
		<path class="st1" d="M62.9,31l0.2,0.6c0,0.2,0.2,0.2,0.4,0.4l0.6,0.2l-0.6,0.2c-0.2,0-0.2,0.2-0.4,0.4l-0.2,0.6l-0.2-0.6
			c0-0.2-0.2-0.2-0.4-0.4l-0.6-0.2l0.6-0.2c0.2,0,0.2-0.2,0.4-0.4L62.9,31z"/>
		<path class="st1" d="M40.9,21.8l0.1,0.4c0,0.1,0.1,0.3,0.3,0.3l0.4,0.1l-0.4,0.1c-0.1,0-0.3,0.1-0.3,0.3l-0.1,0.4L40.8,23
			c0-0.1-0.1-0.3-0.3-0.3l-0.4-0.1l0.4-0.1c0.1,0,0.3-0.1,0.3-0.3L40.9,21.8z"/>
		<path class="st1" d="M75.7,15.5l0.1,0.3c0,0.1,0.1,0.2,0.2,0.2l0.3,0.1L76,16.2c-0.1,0-0.2,0.1-0.2,0.2l-0.1,0.3l-0.1-0.3
			c0-0.1-0.1-0.2-0.2-0.2l-0.3-0.1l0.3-0.1c0.1,0,0.2-0.1,0.2-0.2L75.7,15.5z"/>
		<path class="st1" d="M39.9,25l0.2,0.4c0,0.2,0.2,0.4,0.4,0.4l0.4,0.2l-0.4,0.2c-0.2,0-0.4,0.2-0.4,0.4L39.9,27l-0.2-0.4
			c0-0.2-0.2-0.4-0.4-0.4L38.9,26l0.4-0.2c0.2,0,0.4-0.2,0.4-0.4L39.9,25z"/>
		<path class="st1" d="M37.3,30l0.2,0.4c0,0.2,0.2,0.3,0.3,0.3l0.4,0.2l-0.4,0.2c-0.2,0-0.3,0.2-0.3,0.3l-0.2,0.4l-0.2-0.4
			c0-0.2-0.2-0.3-0.3-0.3l-0.4-0.2l0.4-0.2c0.2,0,0.3-0.2,0.3-0.3L37.3,30z"/>
		<path class="st1" d="M72.8,16.8l0.1,0.4c0,0.1,0.1,0.2,0.2,0.2l0.4,0.1l-0.4,0.1c-0.1,0-0.2,0.1-0.2,0.2l-0.1,0.4l-0.1-0.4
			c0-0.1-0.1-0.2-0.2-0.2l-0.4-0.1l0.4-0.1c0.1,0,0.2-0.1,0.2-0.2L72.8,16.8z"/>
		<path class="st1" d="M72.5,28.7l0.2,0.7c0,0.2,0.2,0.4,0.5,0.5l0.7,0.2l-0.7,0.2c-0.2,0-0.4,0.2-0.5,0.5l-0.2,0.7l-0.2-0.7
			c0-0.2-0.2-0.4-0.5-0.5l-0.7-0.2l0.7-0.2c0.2,0,0.4-0.2,0.5-0.5L72.5,28.7z"/>
		<path class="st1" d="M47.7,36.7l0.2,0.5c0,0.2,0.2,0.4,0.4,0.4l0.5,0.2L48.3,38c-0.2,0-0.4,0.2-0.4,0.4l-0.2,0.5l-0.2-0.5
			c0-0.2-0.2-0.4-0.4-0.4l-0.5-0.2l0.5-0.2c0.2,0,0.4-0.2,0.4-0.4L47.7,36.7z"/>
		<path class="st1" d="M48.1,18.2l0.2,0.4c0,0.2,0.2,0.3,0.3,0.3l0.4,0.2l-0.4,0.2c-0.2,0-0.3,0.2-0.3,0.3L48.1,20l-0.2-0.4
			c0-0.2-0.2-0.3-0.3-0.3l-0.4-0.2l0.4-0.2c0.2,0,0.3-0.2,0.3-0.3L48.1,18.2z"/>
		<path class="st1" d="M95.7,33.9l0.1,0.4c0,0.1,0.1,0.3,0.3,0.3l0.4,0.1l-0.4,0.1c-0.1,0-0.3,0.1-0.3,0.3l-0.1,0.4l-0.1-0.4
			c0-0.1-0.1-0.3-0.3-0.3l-0.4-0.1l0.4-0.1c0.1,0,0.3-0.1,0.3-0.3L95.7,33.9z"/>
		<path class="st1" d="M95.5,39.4l0.2,0.8c0,0.2,0.2,0.4,0.4,0.4l0.8,0.2L96.1,41c-0.2,0-0.4,0.2-0.4,0.4l-0.2,0.8l-0.2-0.8
			c0-0.2-0.2-0.4-0.4-0.4l-0.8-0.2l0.8-0.2c0.2,0,0.4-0.2,0.4-0.4L95.5,39.4z"/>
		<path class="st1" d="M74.9,11.6L75,12c0,0.1,0.1,0.2,0.4,0.4l0.4,0.1l-0.4,0.1c-0.1,0-0.2,0.1-0.4,0.4l-0.1,0.4L74.8,13
			c0-0.1-0.1-0.2-0.4-0.4L74,12.5l0.4-0.1c0.1,0,0.2-0.1,0.4-0.4L74.9,11.6z"/>
		<path class="st1" d="M41.2,17.1l0.2,0.6c0,0.2,0.2,0.4,0.4,0.4l0.6,0.2l-0.6,0.2c-0.2,0-0.4,0.2-0.4,0.4l-0.2,0.6L41,18.9
			c0-0.2-0.2-0.4-0.4-0.4L40,18.3l0.6-0.2c0.2,0,0.4-0.2,0.4-0.4L41.2,17.1z"/>
		<path class="st1" d="M85.1,30.4l0.2,0.6c0,0.2,0.2,0.4,0.4,0.4l0.6,0.2l-0.6,0.2c-0.2,0-0.4,0.2-0.4,0.4l-0.2,0.6l-0.2-0.6
			c0-0.2-0.2-0.4-0.4-0.4l-0.6-0.2l0.6-0.2c0.2,0,0.4-0.2,0.4-0.4L85.1,30.4z"/>
		<path class="st1" d="M85.9,15l0.2,0.6c0,0.2,0.2,0.2,0.4,0.4l0.6,0.2l-0.6,0.2c-0.2,0-0.2,0.2-0.4,0.4l-0.2,0.6l-0.2-0.6
			c0-0.2-0.2-0.2-0.4-0.4l-0.6-0.2l0.6-0.2c0.2,0,0.2-0.2,0.4-0.4L85.9,15z"/>
		<path class="st1" d="M19.3,26.1l0.2,0.4c0,0.2,0.2,0.3,0.3,0.3l0.4,0.2l-0.4,0.2c-0.2,0-0.3,0.2-0.3,0.3l-0.2,0.4l-0.2-0.4
			c0-0.2-0.2-0.3-0.3-0.3L18.4,27l0.4-0.2c0.2,0,0.3-0.2,0.3-0.3L19.3,26.1z"/>
		<path class="st1" d="M89.8,42.7l0.1,0.4c0,0.1,0.1,0.3,0.4,0.4l0.4,0.1l-0.4,0.1c-0.1,0-0.3,0.1-0.4,0.4l-0.1,0.4l-0.1-0.4
			c0-0.1-0.1-0.3-0.4-0.4l-0.4-0.1l0.4-0.1c0.1,0,0.3-0.1,0.4-0.4L89.8,42.7z"/>
		<path class="st1" d="M68.2,38.1l0.2,0.6c0,0.2,0.2,0.4,0.4,0.4l0.6,0.2l-0.6,0.2c-0.2,0-0.4,0.2-0.4,0.4l-0.2,0.6L68,39.9
			c0-0.2-0.2-0.4-0.4-0.4L67,39.3l0.6-0.2c0.2,0,0.4-0.2,0.4-0.4L68.2,38.1z"/>
		<path class="st1" d="M59.5,17.5l0.1,0.4c0,0.1,0.1,0.3,0.3,0.3l0.4,0.1l-0.4,0.1c-0.1,0-0.3,0.1-0.3,0.3l-0.1,0.4l-0.1-0.4
			c0-0.1-0.1-0.3-0.3-0.3l-0.4-0.1l0.4-0.1c0.1,0,0.3-0.1,0.3-0.3L59.5,17.5z"/>
		<path class="st1" d="M82.3,36.8l0.2,0.4c0,0.2,0.2,0.2,0.3,0.3l0.4,0.2l-0.4,0.2c-0.2,0-0.2,0.2-0.3,0.3l-0.2,0.4l-0.2-0.4
			c0-0.2-0.2-0.2-0.3-0.3l-0.4-0.2l0.4-0.2c0.2,0,0.2-0.2,0.3-0.3L82.3,36.8z"/>
		<path class="st1" d="M52.8,18l0.1,0.4c0,0.1,0.1,0.2,0.2,0.2l0.4,0.1l-0.4,0.1c-0.1,0-0.2,0.1-0.2,0.2l-0.1,0.4L52.7,19
			c0-0.1-0.1-0.2-0.2-0.2l-0.4-0.1l0.4-0.1c0.1,0,0.2-0.1,0.2-0.2L52.8,18z"/>
		<path class="st1" d="M86.9,26.5l0.2,0.4c0,0.2,0.2,0.3,0.3,0.3l0.4,0.2l-0.4,0.2c-0.2,0-0.3,0.2-0.3,0.3l-0.2,0.4l-0.2-0.4
			c0-0.2-0.2-0.3-0.3-0.3L86,27.4l0.4-0.2c0.2,0,0.3-0.2,0.3-0.3L86.9,26.5z"/>
		<path class="st1" d="M61,28.2l0.2,0.6c0,0.2,0.2,0.4,0.4,0.4l0.6,0.2l-0.6,0.2c-0.2,0-0.4,0.2-0.4,0.4L61,30.6L60.8,30
			c0-0.2-0.2-0.4-0.4-0.4l-0.6-0.2l0.6-0.2c0.2,0,0.4-0.2,0.4-0.4L61,28.2z"/>
		<path class="st1" d="M30.4,27.9l0.2,0.4c0,0.2,0.2,0.3,0.3,0.3l0.4,0.2L30.9,29c-0.2,0-0.3,0.2-0.3,0.3l-0.2,0.4l-0.2-0.4
			c0-0.2-0.2-0.3-0.3-0.3l-0.4-0.2l0.4-0.2c0.2,0,0.3-0.2,0.3-0.3L30.4,27.9z"/>
		<path class="st1" d="M72.5,39l0.1,0.4c0,0.1,0.1,0.2,0.2,0.2l0.4,0.1l-0.4,0.1c-0.1,0-0.2,0.1-0.2,0.2l-0.1,0.4L72.4,40
			c0-0.1-0.1-0.2-0.2-0.2l-0.4-0.1l0.4-0.1c0.1,0,0.2-0.1,0.2-0.2L72.5,39z"/>
		<path class="st1" d="M68.8,20.3l0.1,0.4c0,0.1,0.1,0.1,0.3,0.3l0.4,0.1l-0.4,0.1c-0.1,0-0.1,0.1-0.3,0.3l-0.1,0.4l-0.1-0.4
			c0-0.1-0.1-0.1-0.3-0.3L68,21.1l0.4-0.1c0.1,0,0.1-0.1,0.3-0.3L68.8,20.3z"/>
		<path class="st1" d="M80.4,27.1l0.1,0.4c0,0.1,0.1,0.2,0.2,0.2l0.4,0.1l-0.4,0.1c-0.1,0-0.2,0.1-0.2,0.2l-0.1,0.4l-0.1-0.4
			c0-0.1-0.1-0.2-0.2-0.2l-0.4-0.1l0.4-0.1c0.1,0,0.2-0.1,0.2-0.2L80.4,27.1z"/>
		<path class="st1" d="M32.9,19.6L33,20c0,0.1,0.1,0.2,0.2,0.2l0.4,0.1l-0.4,0.1c-0.1,0-0.2,0.1-0.2,0.2L32.9,21l-0.1-0.4
			c0-0.1-0.1-0.2-0.2-0.2l-0.4-0.1l0.4-0.1c0.1,0,0.2-0.1,0.2-0.2L32.9,19.6z"/>
		<path class="st1" d="M30.8,21.2l0.1,0.4c0,0.1,0.1,0.3,0.3,0.3l0.4,0.1l-0.4,0.1c-0.1,0-0.3,0.1-0.3,0.3l-0.1,0.4l-0.1-0.4
			c0-0.1-0.1-0.3-0.3-0.3L30,22l0.4-0.1c0.1,0,0.3-0.1,0.3-0.3L30.8,21.2z"/>
		<path class="st1" d="M88.4,40.3l0.2,0.4c0,0.2,0.1,0.3,0.3,0.3l0.4,0.1l-0.4,0.1c-0.1,0-0.3,0.2-0.3,0.3l-0.2,0.4l-0.1-0.4
			c0-0.2-0.2-0.3-0.3-0.3l-0.4-0.1L88,41c0.1,0,0.3-0.2,0.3-0.3L88.4,40.3z"/>
		<path class="st1" d="M69.1,12.2l0.2,0.9c0,0.2,0.2,0.4,0.6,0.6l0.9,0.2l-0.9,0.2c-0.2,0-0.4,0.2-0.6,0.6l-0.2,0.9l-0.2-0.9
			c0-0.2-0.2-0.4-0.6-0.6l-0.9-0.2l0.9-0.2c0.2,0,0.4-0.2,0.6-0.6L69.1,12.2z"/>
		<path class="st1" d="M43.8,34.3l0.2,0.5c0,0.2,0.2,0.4,0.4,0.4l0.5,0.2l-0.5,0.2c-0.2,0-0.4,0.2-0.4,0.4l-0.2,0.5L43.6,36
			c0-0.2-0.2-0.4-0.4-0.4l-0.5-0.2l0.5-0.2c0.2,0,0.4-0.2,0.4-0.4L43.8,34.3z"/>
		<path class="st1" d="M68.1,18.9l0.1,0.4c0,0.1,0.1,0.2,0.2,0.2l0.4,0.1l-0.4,0.1c-0.1,0-0.2,0.1-0.2,0.2l-0.1,0.4L68,19.9
			c0-0.1-0.1-0.2-0.2-0.2l-0.4-0.1l0.4-0.1c0.1,0,0.2-0.1,0.2-0.2L68.1,18.9z"/>
		<path class="st1" d="M77,32.3l0.2,0.5c0,0.2,0.2,0.2,0.4,0.4l0.5,0.2l-0.5,0.2c-0.2,0-0.2,0.2-0.4,0.4L77,34.5L76.8,34
			c0-0.2-0.2-0.2-0.4-0.4l-0.5-0.2l0.5-0.2c0.2,0,0.2-0.2,0.4-0.4L77,32.3z"/>
		<path class="st1" d="M63.5,12.9l0.1,0.5c0,0.1,0.1,0.3,0.3,0.3l0.5,0.1l-0.5,0.1c-0.1,0-0.3,0.1-0.3,0.3l-0.1,0.5l-0.1-0.5
			c0-0.1-0.1-0.3-0.3-0.3l-0.5-0.1l0.5-0.1c0.1,0,0.3-0.1,0.3-0.3L63.5,12.9z"/>
		<path class="st1" d="M45.4,24.9l0.1,0.3c0,0.1,0.1,0.2,0.2,0.2l0.3,0.1l-0.3,0.1c-0.1,0-0.2,0.1-0.2,0.2l-0.1,0.3l-0.1-0.3
			c0-0.1-0.1-0.2-0.2-0.2l-0.3-0.1l0.3-0.1c0.1,0,0.2-0.1,0.2-0.2L45.4,24.9z"/>
		<path class="st1" d="M46,15.3l0.1,0.4c0,0.1,0.1,0.3,0.3,0.3l0.4,0.1l-0.4,0.1c-0.1,0-0.3,0.1-0.3,0.3L46,16.9l-0.1-0.4
			c0-0.1-0.1-0.3-0.3-0.3l-0.4-0.1l0.4-0.1c0.1,0,0.3-0.1,0.3-0.3L46,15.3z"/>
		<path class="st1" d="M66.1,34l0.2,0.6c0,0.2,0.2,0.4,0.4,0.4l0.6,0.2l-0.6,0.2c-0.2,0-0.4,0.2-0.4,0.4l-0.2,0.6l-0.2-0.6
			c0-0.2-0.2-0.4-0.4-0.4l-0.6-0.2l0.6-0.2c0.2,0,0.4-0.2,0.4-0.4L66.1,34z"/>
		<path class="st1" d="M53.4,22.9l0.1,0.4c0,0.1,0.1,0.2,0.2,0.2l0.4,0.1l-0.4,0.1c-0.1,0-0.2,0.1-0.2,0.2l-0.1,0.4l-0.1-0.4
			c0-0.1-0.1-0.2-0.2-0.2l-0.4-0.1l0.4-0.1c0.1,0,0.2-0.1,0.2-0.2L53.4,22.9z"/>
		<path class="st1" d="M90.2,29.5l0.1,0.4c0,0.1,0.1,0.2,0.2,0.2l0.4,0.1l-0.4,0.1c-0.1,0-0.2,0.1-0.2,0.2l-0.1,0.4l-0.1-0.4
			c0-0.1-0.1-0.2-0.2-0.2l-0.4-0.1l0.4-0.1c0.1,0,0.2-0.1,0.2-0.2L90.2,29.5z"/>
		<path class="st1" d="M96.8,43.5l0.1,0.4c0,0.1,0.1,0.3,0.3,0.3l0.4,0.1l-0.4,0.1c-0.1,0-0.3,0.1-0.3,0.3l-0.1,0.4l-0.1-0.4
			c0-0.1-0.1-0.3-0.3-0.3L96,44.3l0.4-0.1c0.1,0,0.3-0.1,0.3-0.3L96.8,43.5z"/>
		<path class="st1" d="M93.7,33.5l0.1,0.3c0,0.1,0.1,0.2,0.2,0.2l0.3,0.1L94,34.2c-0.1,0-0.2,0.1-0.2,0.2l-0.1,0.3l-0.1-0.3
			c0-0.1-0.1-0.2-0.2-0.2l-0.3-0.1l0.3-0.1c0.1,0,0.2-0.1,0.2-0.2L93.7,33.5z"/>
		<path class="st1" d="M74.5,41.5l0.2,0.5c0,0.2,0.2,0.2,0.4,0.4l0.5,0.2l-0.5,0.2c-0.2,0-0.2,0.2-0.4,0.4l-0.2,0.5l-0.2-0.5
			c0-0.2-0.2-0.2-0.4-0.4l-0.5-0.2l0.5-0.2c0.2,0,0.2-0.2,0.4-0.4L74.5,41.5z"/>
		<path class="st1" d="M29.1,10.3l0.1,0.5c0,0.1,0.1,0.3,0.4,0.4l0.5,0.1l-0.5,0.1c-0.1,0-0.3,0.1-0.4,0.4l-0.1,0.5L29,11.8
			c0-0.1-0.1-0.3-0.4-0.4l-0.5-0.1l0.5-0.1c0.1,0,0.3-0.1,0.4-0.4L29.1,10.3z"/>
		<path class="st1" d="M34,9.5l0.1,0.4c0,0.1,0.1,0.2,0.4,0.4l0.4,0.1l-0.4,0.1c-0.1,0-0.2,0.1-0.4,0.4L34,11.3l-0.1-0.4
			c0-0.1-0.1-0.2-0.4-0.4l-0.4-0.1l0.4-0.1c0.1,0,0.2-0.1,0.4-0.4L34,9.5z"/>
		<path class="st1" d="M37.7,13.1l0.2,0.8c0,0.2,0.2,0.4,0.4,0.4l0.8,0.2l-0.8,0.2c-0.2,0-0.4,0.2-0.4,0.4l-0.2,0.8l-0.2-0.8
			c0-0.2-0.2-0.4-0.4-0.4l-0.8-0.2l0.8-0.2c0.2,0,0.4-0.2,0.4-0.4L37.7,13.1z"/>
		<path class="st1" d="M68.2,30.5l0.2,0.6c0,0.2,0.2,0.4,0.4,0.4l0.6,0.2l-0.6,0.2c-0.2,0-0.4,0.2-0.4,0.4l-0.2,0.6L68,32.3
			c0-0.2-0.2-0.4-0.4-0.4L67,31.7l0.6-0.2c0.2,0,0.4-0.2,0.4-0.4L68.2,30.5z"/>
		<path class="st1" d="M40.7,28l0.2,0.8c0,0.2,0.2,0.4,0.4,0.4l0.8,0.2l-0.8,0.2c-0.2,0-0.4,0.2-0.4,0.4l-0.2,0.8L40.5,30
			c0-0.2-0.2-0.4-0.4-0.4l-0.8-0.2l0.8-0.2c0.2,0,0.4-0.2,0.4-0.4L40.7,28z"/>
		<path class="st1" d="M63.6,17.3l0.2,0.6c0,0.2,0.2,0.4,0.4,0.4l0.6,0.2l-0.6,0.2c-0.2,0-0.4,0.2-0.4,0.4l-0.2,0.6l-0.2-0.6
			c0-0.2-0.2-0.4-0.4-0.4l-0.6-0.2l0.6-0.2c0.2,0,0.4-0.2,0.4-0.4L63.6,17.3z"/>
		<path class="st1" d="M36.3,19.5l0.2,0.5c0,0.2,0.2,0.3,0.3,0.3l0.5,0.2l-0.5,0.2c-0.2,0-0.3,0.2-0.3,0.3l-0.2,0.5L36.1,21
			c0-0.2-0.2-0.3-0.3-0.3l-0.5-0.2l0.5-0.2c0.2,0,0.3-0.2,0.3-0.3L36.3,19.5z"/>
		<path class="st1" d="M34,14.1l0.1,0.4c0,0.1,0.1,0.3,0.3,0.3l0.4,0.1L34.4,15c-0.1,0-0.3,0.1-0.3,0.3L34,15.7l-0.1-0.4
			c0-0.1-0.1-0.3-0.3-0.3l-0.4-0.1l0.4-0.1c0.1,0,0.3-0.1,0.3-0.3L34,14.1z"/>
		<path class="st1" d="M97.6,33.5l0.2,0.5c0,0.2,0.2,0.4,0.4,0.4l0.5,0.2l-0.5,0.2c-0.2,0-0.4,0.2-0.4,0.4l-0.2,0.5l-0.2-0.5
			c0-0.2-0.2-0.4-0.4-0.4l-0.5-0.2l0.5-0.2c0.2,0,0.4-0.2,0.4-0.4L97.6,33.5z"/>
		<path class="st1" d="M93.3,19.7l0.1,0.4c0,0.1,0.1,0.3,0.3,0.3l0.4,0.1l-0.4,0.1c-0.1,0-0.3,0.1-0.3,0.3l-0.1,0.4l-0.1-0.4
			c0-0.1-0.1-0.3-0.3-0.3l-0.4-0.1l0.4-0.1c0.1,0,0.3-0.1,0.3-0.3L93.3,19.7z"/>
		<path class="st1" d="M23.8,21.5l0.2,0.6c0,0.2,0.2,0.3,0.3,0.3l0.6,0.2l-0.6,0.2c-0.2,0-0.3,0.2-0.3,0.3l-0.2,0.6l-0.2-0.6
			c0-0.2-0.2-0.3-0.3-0.3l-0.6-0.2l0.6-0.2c0.2,0,0.3-0.2,0.3-0.3L23.8,21.5z"/>
		<path class="st1" d="M59.9,33.1l0.2,0.6c0,0.2,0.2,0.4,0.4,0.4l0.6,0.2l-0.6,0.2c-0.2,0-0.4,0.2-0.4,0.4l-0.2,0.6l-0.2-0.6
			c0-0.2-0.2-0.4-0.4-0.4l-0.6-0.2l0.6-0.2c0.2,0,0.4-0.2,0.4-0.4L59.9,33.1z"/>
		<path class="st1" d="M93.6,23.1l0.1,0.4c0,0.1,0.1,0.1,0.3,0.3l0.4,0.1L94,24c-0.1,0-0.1,0.1-0.3,0.3l-0.1,0.4l-0.1-0.4
			c0-0.1-0.1-0.1-0.3-0.3l-0.4-0.1l0.4-0.1c0.1,0,0.1-0.1,0.3-0.3L93.6,23.1z"/>
		<path class="st1" d="M63.4,43.5l0.1,0.4c0,0.1,0.1,0.3,0.3,0.3l0.4,0.1l-0.4,0.1c-0.1,0-0.3,0.1-0.3,0.3l-0.1,0.4l-0.1-0.4
			c0-0.1-0.1-0.3-0.3-0.3l-0.4-0.1l0.4-0.1c0.1,0,0.3-0.1,0.3-0.3L63.4,43.5z"/>
		<path class="st1" d="M26.1,11.6l0.1,0.3c0,0.1,0.1,0.2,0.2,0.2l0.3,0.1l-0.3,0.1c-0.1,0-0.2,0.1-0.2,0.2l-0.1,0.3L26,12.5
			c0-0.1-0.1-0.2-0.2-0.2l-0.3-0.1l0.3-0.1c0.1,0,0.2-0.1,0.2-0.2L26.1,11.6z"/>
		<path class="st1" d="M26.5,23.6l0.2,0.5c0,0.2,0.2,0.4,0.4,0.4l0.5,0.2l-0.5,0.2c-0.2,0-0.4,0.2-0.4,0.4l-0.2,0.5l-0.2-0.5
			c0-0.2-0.2-0.4-0.4-0.4l-0.5-0.2l0.5-0.2c0.2,0,0.4-0.2,0.4-0.4L26.5,23.6z"/>
		<path class="st1" d="M47.8,4.2L48,4.8c0,0.2,0.2,0.4,0.4,0.4L49,5.4l-0.6,0.2C48.2,5.6,48,5.8,48,6l-0.2,0.6L47.6,6
			c0-0.2-0.2-0.4-0.4-0.4l-0.6-0.2l0.6-0.2c0.2,0,0.4-0.2,0.4-0.4L47.8,4.2z"/>
		<path class="st1" d="M84.9,9.1l0.2,0.6c0,0.2,0.2,0.3,0.3,0.3l0.6,0.2l-0.6,0.2c-0.2,0-0.3,0.2-0.3,0.3l-0.2,0.6l-0.2-0.6
			c0-0.2-0.2-0.3-0.3-0.3l-0.6-0.2l0.6-0.2c0.2,0,0.3-0.2,0.3-0.3L84.9,9.1z"/>
		<path class="st1" d="M57.3,3.4l0.2,0.7c0,0.2,0.2,0.4,0.5,0.5l0.7,0.2L58,5c-0.2,0-0.4,0.2-0.5,0.5l-0.2,0.7l-0.2-0.7
			c0-0.2-0.2-0.4-0.5-0.5l-0.7-0.2l0.7-0.2c0.2,0,0.4-0.2,0.5-0.5L57.3,3.4z"/>
		<path class="st1" d="M41,6.1l0.2,0.6c0,0.2,0.2,0.4,0.4,0.4l0.6,0.2l-0.6,0.2c-0.2,0-0.4,0.2-0.4,0.4L41,8.5l-0.2-0.6
			c0-0.2-0.2-0.4-0.4-0.4l-0.6-0.2l0.6-0.2c0.2,0,0.4-0.2,0.4-0.4L41,6.1z"/>
		<path class="st1" d="M44,5l0.1,0.4c0,0.1,0.1,0.3,0.3,0.3l0.4,0.1l-0.4,0.1c-0.1,0-0.3,0.1-0.3,0.3L44,6.6l-0.1-0.4
			c0-0.1-0.1-0.3-0.3-0.3l-0.4-0.1l0.4-0.1c0.1,0,0.3-0.1,0.3-0.3L44,5z"/>
		<path class="st1" d="M91.1,12.4l0.2,0.4c0,0.2,0.2,0.3,0.3,0.3l0.4,0.2l-0.4,0.2c-0.2,0-0.3,0.2-0.3,0.3l-0.2,0.4l-0.2-0.4
			c0-0.2-0.2-0.3-0.3-0.3l-0.4-0.2l0.4-0.2c0.2,0,0.3-0.2,0.3-0.3L91.1,12.4z"/>
		<path class="st1" d="M26.5,15.1l0.2,0.8c0,0.2,0.2,0.4,0.4,0.4l0.8,0.2l-0.8,0.2c-0.2,0-0.4,0.2-0.4,0.4l-0.2,0.8l-0.2-0.8
			c0-0.2-0.2-0.4-0.4-0.4l-0.8-0.2l0.8-0.2c0.2,0,0.4-0.2,0.4-0.4L26.5,15.1z"/>
		<path class="st1" d="M37.3,3.7l0.2,0.7c0,0.2,0.2,0.4,0.4,0.4L38.6,5l-0.7,0.2c-0.2,0-0.4,0.2-0.4,0.4l-0.2,0.7l-0.2-0.7
			c0-0.2-0.2-0.4-0.4-0.4L36,5l0.7-0.2c0.2,0,0.4-0.2,0.4-0.4L37.3,3.7z"/>
		<path class="st1" d="M77.9,10.9l0.2,0.5c0,0.2,0.2,0.3,0.3,0.3l0.5,0.2l-0.5,0.2c-0.2,0-0.3,0.2-0.3,0.3l-0.2,0.5l-0.2-0.5
			c0-0.2-0.2-0.3-0.3-0.3l-0.5-0.2l0.5-0.2c0.2,0,0.3-0.2,0.3-0.3L77.9,10.9z"/>
		<path class="st1" d="M82.6,8.8l0.2,0.6c0,0.2,0.2,0.2,0.4,0.4l0.6,0.2l-0.6,0.2c-0.2,0-0.2,0.2-0.4,0.4l-0.2,0.6l-0.2-0.6
			c0-0.2-0.2-0.2-0.4-0.4L81.4,10L82,9.8c0.2,0,0.2-0.2,0.4-0.4L82.6,8.8z"/>
		<path class="st1" d="M20.8,18.1l0.2,0.5c0,0.2,0.2,0.3,0.4,0.4l0.5,0.2l-0.5,0.2c-0.2,0-0.3,0.2-0.4,0.4l-0.2,0.5l-0.2-0.5
			c0-0.2-0.2-0.3-0.4-0.4l-0.5-0.2l0.5-0.2c0.2,0,0.3-0.2,0.4-0.4L20.8,18.1z"/>
		<path class="st1" d="M53,12.8l0.2,0.6c0,0.2,0.2,0.4,0.4,0.4l0.6,0.2l-0.6,0.2c-0.2,0-0.4,0.2-0.4,0.4L53,15.2l-0.2-0.6
			c0-0.2-0.2-0.4-0.4-0.4L51.8,14l0.6-0.2c0.2,0,0.4-0.2,0.4-0.4L53,12.8z"/>
		<path class="st1" d="M58.2,1.5l0.1,0.3c0,0.1,0.1,0.2,0.2,0.2l0.3,0.1l-0.3,0.1c-0.1,0-0.2,0.1-0.2,0.2l-0.1,0.3l-0.1-0.3
			c0-0.1-0.1-0.2-0.2-0.2l-0.3-0.1L57.9,2c0.1,0,0.2-0.1,0.2-0.2L58.2,1.5z"/>
		<path class="st1" d="M74,12.8l0.2,0.6c0,0.2,0.2,0.2,0.4,0.4l0.6,0.2l-0.6,0.2c-0.2,0-0.2,0.2-0.4,0.4L74,15.2l-0.2-0.6
			c0-0.2-0.2-0.2-0.4-0.4L72.8,14l0.6-0.2c0.2,0,0.2-0.2,0.4-0.4L74,12.8z"/>
		<path class="st1" d="M74.5,20.6l0.2,0.4c0,0.2,0.1,0.3,0.3,0.3l0.4,0.2L75,21.7c-0.1,0-0.3,0.1-0.3,0.3l-0.2,0.4L74.4,22
			c0-0.1-0.2-0.3-0.3-0.3l-0.4-0.2l0.4-0.2c0.1,0,0.3-0.1,0.3-0.3L74.5,20.6z"/>
		<path class="st1" d="M56.8,26.6l0.2,0.6c0,0.2,0.2,0.4,0.4,0.4l0.6,0.2L57.4,28c-0.2,0-0.4,0.2-0.4,0.4L56.8,29l-0.2-0.6
			c0-0.2-0.2-0.4-0.4-0.4l-0.6-0.2l0.6-0.2c0.2,0,0.4-0.2,0.4-0.4L56.8,26.6z"/>
		<path class="st1" d="M17,26.2l0.2,0.6c0,0.2,0.2,0.4,0.4,0.4l0.6,0.2l-0.6,0.2c-0.2,0-0.4,0.2-0.4,0.4L17,28.6L16.8,28
			c0-0.2-0.2-0.4-0.4-0.4l-0.6-0.2l0.6-0.2c0.2,0,0.4-0.2,0.4-0.4L17,26.2z"/>
		<path class="st1" d="M62.5,8.7l0.1,0.4c0,0.1,0.1,0.2,0.2,0.2l0.4,0.1l-0.4,0.1c-0.1,0-0.2,0.1-0.2,0.2l-0.1,0.4l-0.1-0.4
			c0-0.1-0.1-0.2-0.2-0.2l-0.4-0.1l0.4-0.1c0.1,0,0.2-0.1,0.2-0.2L62.5,8.7z"/>
		<path class="st1" d="M60.8,41.8l0.1,0.4c0,0.1,0.1,0.2,0.2,0.2l0.4,0.1l-0.4,0.1c-0.1,0-0.2,0.1-0.2,0.2l-0.1,0.4l-0.1-0.4
			c0-0.1-0.1-0.2-0.2-0.2l-0.4-0.1l0.4-0.1c0.1,0,0.2-0.1,0.2-0.2L60.8,41.8z"/>
		<path class="st1" d="M19.4,15.3l0.2,0.6c0,0.2,0.2,0.4,0.4,0.4l0.6,0.2L20,16.7c-0.2,0-0.4,0.2-0.4,0.4l-0.2,0.6l-0.2-0.6
			c0-0.2-0.2-0.4-0.4-0.4l-0.6-0.2l0.6-0.2c0.2,0,0.4-0.2,0.4-0.4L19.4,15.3z"/>
		<path class="st1" d="M94.6,16.8l0.2,0.5c0,0.2,0.2,0.3,0.4,0.4l0.5,0.2l-0.5,0.2c-0.2,0-0.3,0.2-0.4,0.4L94.6,19l-0.2-0.5
			c0-0.2-0.2-0.3-0.4-0.4l-0.5-0.2l0.5-0.2c0.2,0,0.3-0.2,0.4-0.4L94.6,16.8z"/>
		<path class="st1" d="M18.7,21.5l0.1,0.3c0,0.1,0.1,0.2,0.2,0.2l0.3,0.1L19,22.2c-0.1,0-0.2,0.1-0.2,0.2l-0.1,0.3l-0.1-0.3
			c0-0.1-0.1-0.2-0.2-0.2l-0.3-0.1l0.3-0.1c0.1,0,0.2-0.1,0.2-0.2L18.7,21.5z"/>
		<path class="st1" d="M66.8,1.9L67,2.8c0,0.2,0.2,0.4,0.4,0.4l0.9,0.2l-0.9,0.2C67.2,3.6,67,3.8,67,4l-0.2,0.9L66.6,4
			c0-0.2-0.2-0.4-0.4-0.4l-0.9-0.2l0.9-0.2c0.2,0,0.4-0.2,0.4-0.4L66.8,1.9z"/>
		<path class="st1" d="M61.8,7.5l0.1,0.3c0,0.1,0.1,0.1,0.2,0.2l0.3,0.1l-0.3,0.1c-0.1,0-0.1,0.1-0.2,0.2l-0.1,0.3l-0.1-0.3
			c0-0.1-0.1-0.1-0.2-0.2l-0.3-0.1L61.5,8c0.1,0,0.1-0.1,0.2-0.2L61.8,7.5z"/>
		<path class="st1" d="M84.4,44l0.2,0.7c0,0.2,0.2,0.4,0.4,0.4l0.7,0.2L85,45.5c-0.2,0-0.4,0.2-0.4,0.4l-0.2,0.7l-0.2-0.7
			c0-0.2-0.2-0.4-0.4-0.4l-0.7-0.2l0.7-0.2c0.2,0,0.4-0.2,0.4-0.4L84.4,44z"/>
		<path class="st1" d="M41.4,11.6l0.1,0.3c0,0.1,0.1,0.2,0.2,0.2l0.3,0.1l-0.3,0.1c-0.1,0-0.2,0.1-0.2,0.2l-0.1,0.3l-0.1-0.3
			c0-0.1-0.1-0.2-0.2-0.2l-0.3-0.1l0.3-0.1c0.1,0,0.2-0.1,0.2-0.2L41.4,11.6z"/>
		<path class="st1" d="M42,1.4l0.2,0.8c0,0.2,0.2,0.4,0.4,0.4l0.8,0.2L42.6,3c-0.2,0-0.4,0.2-0.4,0.4L42,4.2l-0.2-0.8
			c0-0.2-0.2-0.4-0.4-0.4l-0.8-0.2l0.8-0.2c0.2,0,0.4-0.2,0.4-0.4L42,1.4z"/>
		<path class="st1" d="M50.9,8.9l0.2,0.5c0,0.2,0.2,0.4,0.4,0.4L52,10l-0.5,0.2c-0.2,0-0.4,0.2-0.4,0.4l-0.2,0.5l-0.2-0.5
			c0-0.2-0.2-0.4-0.4-0.4L49.8,10l0.5-0.2c0.2,0,0.4-0.2,0.4-0.4L50.9,8.9z"/>
		<path class="st1" d="M49.6,31l0.3,0.9c0,0.3,0.3,0.4,0.4,0.4l0.9,0.3l-0.9,0.3c-0.3,0-0.4,0.3-0.4,0.4l-0.3,0.9l-0.3-0.9
			c0-0.3-0.3-0.4-0.4-0.4L48,32.6l0.9-0.3c0.3,0,0.4-0.3,0.4-0.4L49.6,31z"/>
		<path class="st1" d="M23.9,29.2l0.3,0.9c0,0.3,0.3,0.4,0.4,0.4l0.9,0.3l-0.9,0.3c-0.3,0-0.4,0.3-0.4,0.4l-0.3,0.9l-0.3-0.9
			c0-0.3-0.3-0.4-0.4-0.4l-0.9-0.3l0.9-0.3c0.3,0,0.4-0.3,0.4-0.4L23.9,29.2z"/>
		<path class="st1" d="M53.3,2.6l0.1,0.5c0,0.1,0.1,0.3,0.3,0.3l0.5,0.1l-0.5,0.1c-0.1,0-0.3,0.1-0.3,0.3l-0.1,0.5l-0.1-0.5
			c0-0.1-0.1-0.3-0.3-0.3l-0.5-0.1l0.5-0.1c0.1,0,0.3-0.1,0.3-0.3L53.3,2.6z"/>
		<path class="st1" d="M89.1,12.3l0.1,0.3c0,0.1,0.1,0.2,0.2,0.2l0.3,0.1L89.4,13c-0.1,0-0.2,0.1-0.2,0.2l-0.1,0.3L89,13.2
			c0-0.1-0.1-0.2-0.2-0.2l-0.3-0.1l0.3-0.1c0.1,0,0.2-0.1,0.2-0.2L89.1,12.3z"/>
		<path class="st1" d="M59.2,13.6l0.2,0.5c0,0.2,0.2,0.2,0.4,0.4l0.5,0.2l-0.5,0.2c-0.2,0-0.2,0.2-0.4,0.4l-0.2,0.5L59,15.3
			c0-0.2-0.2-0.2-0.4-0.4l-0.5-0.2l0.5-0.2c0.2,0,0.2-0.2,0.4-0.4L59.2,13.6z"/>
		<path class="st1" d="M59.5,38.2l0.2,0.9c0,0.2,0.2,0.4,0.6,0.6l0.9,0.2l-0.9,0.2c-0.2,0-0.4,0.2-0.6,0.6l-0.2,0.9l-0.2-0.9
			c0-0.2-0.2-0.4-0.6-0.6l-0.9-0.2l0.9-0.2c0.2,0,0.4-0.2,0.6-0.6L59.5,38.2z"/>
		<path class="st1" d="M62.5,37.1l0.2,0.6c0,0.2,0.2,0.3,0.4,0.4l0.6,0.2l-0.6,0.2c-0.2,0-0.3,0.2-0.4,0.4l-0.2,0.6l-0.2-0.6
			c0-0.2-0.2-0.3-0.4-0.4l-0.6-0.2l0.6-0.2c0.2,0,0.3-0.2,0.4-0.4L62.5,37.1z"/>
		<path class="st1" d="M53,5.8l0.1,0.3c0,0.1,0.1,0.2,0.2,0.2l0.3,0.1l-0.3,0.1c-0.1,0-0.2,0.1-0.2,0.2L53,7l-0.1-0.3
			c0-0.1-0.1-0.2-0.2-0.2l-0.3-0.1l0.3-0.1c0.1,0,0.2-0.1,0.2-0.2L53,5.8z"/>
		<path class="st1" d="M97.7,24.8l0.2,0.9c0,0.2,0.2,0.4,0.4,0.4l0.9,0.2l-0.9,0.2c-0.2,0-0.4,0.2-0.4,0.4l-0.2,0.9l-0.2-0.9
			c0-0.2-0.2-0.4-0.4-0.4l-0.9-0.2l0.9-0.2c0.2,0,0.4-0.2,0.4-0.4L97.7,24.8z"/>
		<path class="st1" d="M22.2,13.3l0.2,0.8c0,0.2,0.2,0.4,0.4,0.4l0.8,0.2l-0.8,0.2c-0.2,0-0.4,0.2-0.4,0.4l-0.2,0.8L22,15.3
			c0-0.2-0.2-0.4-0.4-0.4l-0.8-0.2l0.8-0.2c0.2,0,0.4-0.2,0.4-0.4L22.2,13.3z"/>
		<path class="st1" d="M62.1,3.7l0.2,0.5c0,0.2,0.2,0.4,0.4,0.4l0.5,0.2L62.7,5c-0.2,0-0.4,0.2-0.4,0.4l-0.2,0.5l-0.2-0.5
			c0-0.2-0.2-0.4-0.4-0.4L61,4.8l0.5-0.2c0.2,0,0.4-0.2,0.4-0.4L62.1,3.7z"/>
		<path class="st1" d="M29.6,17.6l0.2,0.7c0,0.2,0.2,0.4,0.4,0.4l0.7,0.2l-0.7,0.2c-0.2,0-0.4,0.2-0.4,0.4l-0.2,0.7l-0.2-0.7
			c0-0.2-0.2-0.4-0.4-0.4l-0.7-0.2l0.7-0.2c0.2,0,0.4-0.2,0.4-0.4L29.6,17.6z"/>
		<path class="st1" d="M72.7,4.7l0.2,0.6c0,0.2,0.2,0.4,0.4,0.4l0.6,0.2l-0.6,0.2c-0.2,0-0.4,0.2-0.4,0.4l-0.2,0.6l-0.2-0.6
			c0-0.2-0.2-0.4-0.4-0.4l-0.6-0.2l0.6-0.2c0.2,0,0.4-0.2,0.4-0.4L72.7,4.7z"/>
		<path class="st1" d="M67,48.9l-0.2-0.6c0-0.2-0.2-0.4-0.4-0.4l-0.6-0.2l0.6-0.2c0.2,0,0.4-0.2,0.4-0.4l0.2-0.6l0.2,0.6
			c0,0.2,0.2,0.4,0.4,0.4l0.6,0.2l-0.6,0.2c-0.2,0-0.4,0.2-0.4,0.4L67,48.9z"/>
		<path class="st1" d="M57.5,49.7L57.3,49c0-0.2-0.2-0.4-0.5-0.5l-0.7-0.2l0.7-0.2c0.2,0,0.4-0.2,0.5-0.5l0.2-0.7l0.2,0.7
			c0,0.2,0.2,0.4,0.5,0.5l0.7,0.2l-0.7,0.2c-0.2,0-0.4,0.2-0.5,0.5L57.5,49.7z"/>
		<path class="st1" d="M73.8,47l-0.2-0.6c0-0.2-0.2-0.4-0.4-0.4l-0.6-0.2l0.6-0.2c0.2,0,0.4-0.2,0.4-0.4l0.2-0.6l0.2,0.6
			c0,0.2,0.2,0.4,0.4,0.4l0.6,0.2L74.4,46c-0.2,0-0.4,0.2-0.4,0.4L73.8,47z"/>
		<path class="st1" d="M70.8,48.1l-0.1-0.4c0-0.1-0.1-0.3-0.3-0.3L70,47.3l0.4-0.1c0.1,0,0.3-0.1,0.3-0.3l0.1-0.4l0.1,0.4
			c0,0.1,0.1,0.3,0.3,0.3l0.4,0.1l-0.4,0.1c-0.1,0-0.3,0.1-0.3,0.3L70.8,48.1z"/>
		<path class="st1" d="M77.5,49.4l-0.2-0.7c0-0.2-0.2-0.4-0.4-0.4l-0.7-0.2l0.7-0.2c0.2,0,0.4-0.2,0.4-0.4l0.2-0.7l0.2,0.7
			c0,0.2,0.2,0.4,0.4,0.4l0.7,0.2l-0.7,0.2c-0.2,0-0.4,0.2-0.4,0.4L77.5,49.4z"/>
		<path class="st1" d="M56.6,51.6l-0.1-0.3c0-0.1-0.1-0.2-0.2-0.2L56,51l0.3-0.1c0.1,0,0.2-0.1,0.2-0.2l0.1-0.3l0.1,0.3
			c0,0.1,0.1,0.2,0.2,0.2l0.3,0.1l-0.3,0.1c-0.1,0-0.2,0.1-0.2,0.2L56.6,51.6z"/>
		<path class="st1" d="M48,51.2l-0.2-0.9c0-0.2-0.2-0.4-0.4-0.4l-0.9-0.2l0.9-0.2c0.2,0,0.4-0.2,0.4-0.4l0.2-0.9l0.2,0.9
			c0,0.2,0.2,0.4,0.4,0.4l0.9,0.2l-0.9,0.2c-0.2,0-0.4,0.2-0.4,0.4L48,51.2z"/>
		<path class="st1" d="M72.8,51.7l-0.2-0.8c0-0.2-0.2-0.4-0.4-0.4l-0.8-0.2l0.8-0.2c0.2,0,0.4-0.2,0.4-0.4l0.2-0.8l0.2,0.8
			c0,0.2,0.2,0.4,0.4,0.4l0.8,0.2l-0.8,0.2c-0.2,0-0.4,0.2-0.4,0.4L72.8,51.7z"/>
		<path class="st1" d="M61.5,50.5L61.4,50c0-0.1-0.1-0.3-0.3-0.3l-0.5-0.1l0.5-0.1c0.1,0,0.3-0.1,0.3-0.3l0.1-0.5l0.1,0.5
			c0,0.1,0.1,0.3,0.3,0.3l0.5,0.1l-0.5,0.1c-0.1,0-0.3,0.1-0.3,0.3L61.5,50.5z"/>
		<path class="st1" d="M61.8,47.3L61.7,47c0-0.1-0.1-0.2-0.2-0.2l-0.3-0.1l0.3-0.1c0.1,0,0.2-0.1,0.2-0.2l0.1-0.3l0.1,0.3
			c0,0.1,0.1,0.2,0.2,0.2l0.3,0.1l-0.3,0.1c-0.1,0-0.2,0.1-0.2,0.2L61.8,47.3z"/>
		<path class="st1" d="M52.7,49.4l-0.2-0.5c0-0.2-0.2-0.4-0.4-0.4l-0.5-0.2l0.5-0.2c0.2,0,0.4-0.2,0.4-0.4l0.2-0.5l0.2,0.5
			c0,0.2,0.2,0.4,0.4,0.4l0.5,0.2l-0.5,0.2c-0.2,0-0.4,0.2-0.4,0.4L52.7,49.4z"/>
		<path class="st1" d="M42.1,48.4l-0.2-0.6c0-0.2-0.2-0.4-0.4-0.4l-0.6-0.2l0.6-0.2c0.2,0,0.4-0.2,0.4-0.4l0.2-0.6l0.2,0.6
			c0,0.2,0.2,0.4,0.4,0.4l0.6,0.2l-0.6,0.2c-0.2,0-0.4,0.2-0.4,0.4L42.1,48.4z"/>
		<path class="st1" d="M93,12.1l0.2,0.6c0,0.2,0.2,0.4,0.4,0.4l0.6,0.2l-0.6,0.2c-0.2,0-0.4,0.2-0.4,0.4L93,14.5l-0.2-0.6
			c0-0.2-0.2-0.4-0.4-0.4l-0.6-0.2l0.6-0.2c0.2,0,0.4-0.2,0.4-0.4L93,12.1z"/>
		<path class="st1" d="M69.5,24.6l0.1,0.3c0,0.1,0.1,0.2,0.2,0.2l0.3,0.1l-0.3,0.1c-0.1,0-0.2,0.1-0.2,0.2l-0.1,0.3l-0.1-0.3
			c0-0.1-0.1-0.2-0.2-0.2l-0.3-0.1l0.3-0.1c0.1,0,0.2-0.1,0.2-0.2L69.5,24.6z"/>
		<path class="st1" d="M97.6,20.4l0.1,0.4c0,0.1,0.1,0.2,0.2,0.2l0.4,0.1l-0.4,0.1c-0.1,0-0.2,0.1-0.2,0.2l-0.1,0.4l-0.1-0.4
			c0-0.1-0.1-0.2-0.2-0.2l-0.4-0.1l0.4-0.1c0.1,0,0.2-0.1,0.2-0.2L97.6,20.4z"/>
		<path class="st1" d="M59.9,23.7l0.2,0.4c0,0.2,0.2,0.3,0.3,0.3l0.4,0.2l-0.4,0.2c-0.2,0-0.3,0.2-0.3,0.3l-0.2,0.4l-0.2-0.4
			c0-0.2-0.2-0.3-0.3-0.3L59,24.6l0.4-0.2c0.2,0,0.3-0.2,0.3-0.3L59.9,23.7z"/>
		<path class="st1" d="M83.6,4.5l0.2,0.6c0,0.2,0.2,0.2,0.4,0.4l0.6,0.2l-0.6,0.2c-0.2,0-0.2,0.2-0.4,0.4l-0.2,0.6l-0.2-0.6
			c0-0.2-0.2-0.2-0.4-0.4l-0.6-0.2L83,5.5c0.2,0,0.2-0.2,0.4-0.4L83.6,4.5z"/>
		<path class="st1" d="M55.5,42.1l0.2,0.6c0,0.2,0.2,0.3,0.3,0.3l0.6,0.2L56,43.4c-0.2,0-0.3,0.2-0.3,0.3l-0.2,0.6l-0.2-0.6
			c0-0.2-0.2-0.3-0.3-0.3l-0.6-0.2L55,43c0.2,0,0.3-0.2,0.3-0.3L55.5,42.1z"/>
		<path class="st1" d="M27.9,36.4l0.2,0.7c0,0.2,0.2,0.4,0.5,0.5l0.7,0.2L28.6,38c-0.2,0-0.4,0.2-0.5,0.5l-0.2,0.7l-0.2-0.7
			c0-0.2-0.2-0.4-0.5-0.5l-0.7-0.2l0.7-0.2c0.2,0,0.4-0.2,0.5-0.5L27.9,36.4z"/>
		<path class="st1" d="M48.5,43.9l0.2,0.5c0,0.2,0.2,0.3,0.3,0.3l0.5,0.2L49,45.1c-0.2,0-0.3,0.2-0.3,0.3l-0.2,0.5l-0.2-0.5
			c0-0.2-0.2-0.3-0.3-0.3l-0.5-0.2l0.5-0.2c0.2,0,0.3-0.2,0.3-0.3L48.5,43.9z"/>
		<path class="st1" d="M52.4,40.7l0.2,0.6c0,0.2,0.2,0.2,0.4,0.4l0.6,0.2L53,42.1c-0.2,0-0.2,0.2-0.4,0.4l-0.2,0.6l-0.2-0.6
			c0-0.2-0.2-0.2-0.4-0.4l-0.6-0.2l0.6-0.2c0.2,0,0.2-0.2,0.4-0.4L52.4,40.7z"/>
		<path class="st1" d="M28.8,34.5l0.1,0.3c0,0.1,0.1,0.2,0.2,0.2l0.3,0.1l-0.3,0.1c-0.1,0-0.2,0.1-0.2,0.2l-0.1,0.3l-0.1-0.3
			c0-0.1-0.1-0.2-0.2-0.2l-0.3-0.1l0.3-0.1c0.1,0,0.2-0.1,0.2-0.2L28.8,34.5z"/>
		<path class="st1" d="M41.7,41.5l0.2,0.6c0,0.2,0.2,0.2,0.4,0.4l0.6,0.2l-0.6,0.2c-0.2,0-0.2,0.2-0.4,0.4l-0.2,0.6l-0.2-0.6
			c0-0.2-0.2-0.2-0.4-0.4l-0.6-0.2l0.6-0.2c0.2,0,0.2-0.2,0.4-0.4L41.7,41.5z"/>
		<path class="st1" d="M33.1,41.7l0.1,0.4c0,0.1,0.1,0.2,0.2,0.2l0.4,0.1l-0.4,0.1c-0.1,0-0.2,0.1-0.2,0.2l-0.1,0.4L33,42.7
			c0-0.1-0.1-0.2-0.2-0.2l-0.4-0.1l0.4-0.1c0.1,0,0.2-0.1,0.2-0.2L33.1,41.7z"/>
		<path class="st1" d="M37.4,34.9l0.2,0.9c0,0.2,0.2,0.4,0.4,0.4l0.9,0.2L38,36.6c-0.2,0-0.4,0.2-0.4,0.4l-0.2,0.9L37.2,37
			c0-0.2-0.2-0.4-0.4-0.4l-0.9-0.2l0.9-0.2c0.2,0,0.4-0.2,0.4-0.4L37.4,34.9z"/>
		<path class="st1" d="M32.4,40.5l0.1,0.3c0,0.1,0.1,0.1,0.2,0.2l0.3,0.1l-0.3,0.1c-0.1,0-0.1,0.1-0.2,0.2l-0.1,0.3l-0.1-0.3
			c0-0.1-0.1-0.1-0.2-0.2l-0.3-0.1l0.3-0.1c0.1,0,0.1-0.1,0.2-0.2L32.4,40.5z"/>
		<path class="st1" d="M21.5,41.9l0.2,0.5c0,0.2,0.2,0.4,0.4,0.4l0.5,0.2l-0.5,0.2c-0.2,0-0.4,0.2-0.4,0.4l-0.2,0.5l-0.2-0.5
			c0-0.2-0.2-0.4-0.4-0.4L20.4,43l0.5-0.2c0.2,0,0.4-0.2,0.4-0.4L21.5,41.9z"/>
		<path class="st1" d="M23.9,35.6l0.1,0.5c0,0.1,0.1,0.3,0.3,0.3l0.5,0.1l-0.5,0.1c-0.1,0-0.3,0.1-0.3,0.3l-0.1,0.5l-0.1-0.5
			c0-0.1-0.1-0.3-0.3-0.3L23,36.5l0.5-0.1c0.1,0,0.3-0.1,0.3-0.3L23.9,35.6z"/>
		<path class="st1" d="M23.6,38.8l0.1,0.3c0,0.1,0.1,0.2,0.2,0.2l0.3,0.1l-0.3,0.1c-0.1,0-0.2,0.1-0.2,0.2L23.6,40l-0.1-0.3
			c0-0.1-0.1-0.2-0.2-0.2L23,39.4l0.3-0.1c0.1,0,0.2-0.1,0.2-0.2L23.6,38.8z"/>
		<path class="st1" d="M32.7,36.7l0.2,0.5c0,0.2,0.2,0.4,0.4,0.4l0.5,0.2L33.3,38c-0.2,0-0.4,0.2-0.4,0.4l-0.2,0.5l-0.2-0.5
			c0-0.2-0.2-0.4-0.4-0.4l-0.5-0.2l0.5-0.2c0.2,0,0.4-0.2,0.4-0.4L32.7,36.7z"/>
		<path class="st1" d="M43.3,37.7l0.2,0.6c0,0.2,0.2,0.4,0.4,0.4l0.6,0.2l-0.6,0.2c-0.2,0-0.4,0.2-0.4,0.4l-0.2,0.6l-0.2-0.6
			c0-0.2-0.2-0.4-0.4-0.4l-0.6-0.2l0.6-0.2c0.2,0,0.4-0.2,0.4-0.4L43.3,37.7z"/>
		<path class="st1" d="M54.2,37.5l0.2,0.6c0,0.2,0.2,0.2,0.4,0.4l0.6,0.2l-0.6,0.2c-0.2,0-0.2,0.2-0.4,0.4l-0.2,0.6L54,39.3
			c0-0.2-0.2-0.2-0.4-0.4L53,38.7l0.6-0.2c0.2,0,0.2-0.2,0.4-0.4L54.2,37.5z"/>
	</g>
</g>
<path class="st2" d="M-46,134.9c-0.5,1.6-0.5,2.5-3.6,5.8c-6.1,6.4-13.1,3.1-13.1,3.1l0.6-0.7c0,0,8.5,0.5,11.9-5c2-3.6,2.6-7,2.5-8
	c-0.4-2.5-1-0.1-1,0c0,0-0.5,4.2-3.4,7c-4.8,5-7.9,3.7-7.9,3.7s2.3-2.4,3.1-5.4c1.3-4.6,0.5-8-4.2-11.5c-5-3.7-11.5-2.6-14.2,0.2
	c-1.7,1.8-2.2,2.8-3.1,3.8c-1.2,1.3-2.6,0.6-3,1c-0.8,0.8,0.7,1,1.4,1.6c0.6,0.5-1.2,1.3-0.5,1.4c0.7,0.1,2.4-0.5,3-1
	c0.8-0.6,1.7-1.8,3.6-3.7c2.4-2.5,5.8-3,9-0.5c2.3,1.6,3.4,5,0.8,7.7c-4.2,4.3-11.4,1.6-13.1,1.6c-1.6,0-2.5,1.2-3.5,1.3
	c-1,0.1-4.6,0.5-4.6,0.5s-3.6-2-6.8,0.7c-3.4,2.8-2.2,6.5-5.3,9.5c-0.6,0.6-1,1.6-1.3,2.5c-1,1.1-1.8,2.4-1.6,3.4
	c0,0-9.2,1-11.2,1.9c-1.7,0.8-3.2,1.6-5.4,4.7c0,0-4.2,5.5,1.6,19c0,0,0.5,2.2-0.5,4.7c0,0-1,7-1.1,8.4s-1.6,3,0.5,3.6
	c0,0,7.8,1.3,9-1.1c0.4-0.6,0.2-1.8-1.3-2.6c0,0-0.5-0.8-0.2-2.3c0.2-1.4,2.4-4.6,2.8-6.1c0.4-1.2,0.1-4.7,0.1-4.7s6.8,0,7.3,0
	s2.8,10.2,2.2,11c-0.7,0.7-3,5.3,3.7,3.7l-0.4,1.2c-1.3,2.6,0,3,0,3c4.4,1.4,10,0.1,10.2-1.1c0.2-0.7-1.8-3.5-1.8-3.5
	c0.5-1.4,0-6,0-6c0.5-0.8,1.6-10.4,1.6-10.4c1.3,0,2.6-0.5,2.6-0.5s9.5-1.8,9.6,5.6c0,2.5-0.7,3.5-1,4.7c-0.4,2.2,5,1.8,5,1.8
	s4.3,0,5-1.3c0.7-1.3-1.8-3.8-2.4-4.3c-0.6-0.5-0.5-7.3-0.5-7.3c2-6.5-7.4-8.4-7.4-8.4c0.4-1.4,0.4-6.8,0.4-9.8
	c1.1-1.6,2.6-3.4,3.7-4.4c2-2.2,2.2-2.4,3.5-2.4c1.6,0,2.2-0.4,2.8-1c0,0-1.3-0.8-3.4-1.3c-2.5-0.5-3.6-0.5-3.6-0.5l-0.5-1.7
	c0,0,1.3,0.5,2.5,0c0.5-0.1,0.6-0.2,0.7-0.4c0.7,0.2,10,3.7,16.7-3.1c1.9-1.9,3.3-5.2,3.7-7.4c0.2-1.2,0.3-2.2,0.1-2.1
	C-45.5,133.2-45.8,134-46,134.9z"/>
<path class="st0" d="M-108,134.9c-0.5,1.6-0.5,2.5-3.6,5.8c-6.1,6.4-13.1,3.1-13.1,3.1l0.6-0.7c0,0,8.5,0.5,11.9-5
	c2-3.6,2.6-7,2.5-8c-0.4-2.5-1-0.1-1,0c0,0-0.5,4.2-3.4,7c-4.8,5-7.9,3.7-7.9,3.7s2.3-2.4,3.1-5.4c1.3-4.6,0.5-8-4.2-11.5
	c-5-3.7-11.5-2.6-14.2,0.2c-1.7,1.8-2.2,2.8-3.1,3.8c-1.2,1.3-2.6,0.6-3,1c-0.8,0.8,0.7,1,1.4,1.6c0.6,0.5-1.2,1.3-0.5,1.4
	s2.4-0.5,3-1c0.8-0.6,1.7-1.8,3.6-3.7c2.4-2.5,5.8-3,9-0.5c2.3,1.6,3.4,5,0.8,7.7c-4.2,4.3-11.4,1.6-13.1,1.6
	c-1.6,0-2.5,1.2-3.5,1.3c-1,0.1-4.6,0.5-4.6,0.5s-3.6-2-6.8,0.7c-3.4,2.8-2.2,6.5-5.3,9.5c-0.6,0.6-1,1.6-1.3,2.5
	c-1,1.1-1.8,2.4-1.6,3.4c0,0-9.2,1-11.2,1.9c-1.7,0.8-3.2,1.6-5.4,4.7c0,0-4.2,5.5,1.6,19c0,0,0.5,2.2-0.5,4.7c0,0-1,7-1.1,8.4
	s-1.6,3,0.5,3.6c0,0,7.8,1.3,9-1.1c0.4-0.6,0.2-1.8-1.3-2.6c0,0-0.5-0.8-0.2-2.3c0.2-1.4,2.4-4.6,2.8-6.1c0.4-1.2,0.1-4.7,0.1-4.7
	s6.8,0,7.3,0c0.5,0,2.8,10.2,2.2,11c-0.7,0.7-3,5.3,3.7,3.7l-0.4,1.2c-1.3,2.6,0,3,0,3c4.4,1.4,10,0.1,10.2-1.1
	c0.2-0.7-1.8-3.5-1.8-3.5c0.5-1.4,0-6,0-6c0.5-0.8,1.6-10.4,1.6-10.4c1.3,0,2.6-0.5,2.6-0.5s9.5-1.8,9.6,5.6c0,2.5-0.7,3.5-1,4.7
	c-0.4,2.2,5,1.8,5,1.8s4.3,0,5-1.3s-1.8-3.8-2.4-4.3c-0.6-0.5-0.5-7.3-0.5-7.3c2-6.5-7.4-8.4-7.4-8.4c0.4-1.4,0.4-6.8,0.4-9.8
	c1.1-1.6,2.6-3.4,3.7-4.4c2-2.2,2.2-2.4,3.5-2.4c1.6,0,2.2-0.4,2.8-1c0,0-1.3-0.8-3.4-1.3c-2.5-0.5-3.6-0.5-3.6-0.5l-0.5-1.7
	c0,0,1.3,0.5,2.5,0c0.5-0.1,0.6-0.2,0.7-0.4c0.7,0.2,10,3.7,16.7-3.1c1.9-1.9,3.3-5.2,3.7-7.4c0.2-1.2,0.3-2.2,0.1-2.1
	C-107.6,133.2-107.8,134-108,134.9z"/>
<path class="st1" d="M22.5,134.9c-0.5,1.6-0.5,2.5-3.6,5.8c-6.1,6.4-13.1,3.1-13.1,3.1l0.6-0.7c0,0,8.5,0.5,11.9-5
	c2-3.6,2.6-7,2.5-8c-0.4-2.5-1-0.1-1,0c0,0-0.5,4.2-3.4,7c-4.8,5-7.9,3.7-7.9,3.7s2.3-2.4,3.1-5.4c1.3-4.6,0.5-8-4.2-11.5
	C2.5,120-4,121.1-6.6,124c-1.7,1.8-2.2,2.8-3.1,3.8c-1.2,1.3-2.6,0.6-3,1c-0.8,0.8,0.7,1,1.4,1.6c0.6,0.5-1.2,1.3-0.5,1.4
	c0.7,0.1,2.4-0.5,3-1c0.8-0.6,1.7-1.8,3.6-3.7c2.4-2.5,5.8-3,9-0.5c2.3,1.6,3.4,5,0.8,7.7c-4.2,4.3-11.4,1.6-13.1,1.6
	c-1.6,0-2.5,1.2-3.5,1.3s-4.6,0.5-4.6,0.5s-3.6-2-6.8,0.7c-3.4,2.8-2.2,6.5-5.3,9.5c-0.6,0.6-1,1.6-1.3,2.5c-1,1.1-1.8,2.4-1.6,3.4
	c0,0-9.2,1-11.2,1.9c-1.7,0.8-3.2,1.6-5.4,4.7c0,0-4.2,5.5,1.6,19c0,0,0.5,2.2-0.5,4.7c0,0-1,7-1.1,8.4s-1.6,3,0.5,3.6
	c0,0,7.8,1.3,9-1.1c0.4-0.6,0.2-1.8-1.3-2.6c0,0-0.5-0.8-0.2-2.3c0.2-1.4,2.4-4.6,2.8-6.1c0.4-1.2,0.1-4.7,0.1-4.7s6.8,0,7.3,0
	s2.8,10.2,2.2,11c-0.7,0.7-3,5.3,3.7,3.7l-0.4,1.2c-1.3,2.6,0,3,0,3c4.4,1.4,10,0.1,10.2-1.1c0.2-0.7-1.8-3.5-1.8-3.5
	c0.5-1.4,0-6,0-6c0.5-0.8,1.6-10.4,1.6-10.4c1.3,0,2.6-0.5,2.6-0.5s9.5-1.8,9.6,5.6c0,2.5-0.7,3.5-1,4.7c-0.4,2.2,5,1.8,5,1.8
	s4.3,0,5-1.3s-1.8-3.8-2.4-4.3c-0.6-0.5-0.5-7.3-0.5-7.3c2-6.5-7.4-8.4-7.4-8.4C-3,166-3,160.6-3,157.6c1.1-1.6,2.6-3.4,3.7-4.4
	c2-2.2,2.2-2.4,3.5-2.4c1.6,0,2.2-0.4,2.8-1c0,0-1.3-0.8-3.4-1.3C1,148,0,148,0,148l-0.5-1.7c0,0,1.3,0.5,2.5,0
	c0.5-0.1,0.6-0.2,0.7-0.4c0.7,0.2,10,3.7,16.7-3.1c1.9-1.9,3.3-5.2,3.7-7.4c0.2-1.2,0.3-2.2,0.1-2.1C23,133.2,22.8,134,22.5,134.9z"
	/>
<g>
	<path class="st3" d="M109.8,174.4c-1.9-0.2-1.2,1.9-3.3,1.5c-3.6-0.3-5-2.4-9.8-2.6c-2.6,0-4.8,1.5-5.6,1.5c-1.2-0.2-3.4-1-3.3-3.9
		c0.2-2.9,3.6-6.5,8.2-3.3c1.9,1.9,6.3,5.3,9.9,3.3c4.8-2.9,0.9-6.8,0-7s-1,0.7-0.2,1.2c1.9,2.1,1.2,3.6-0.2,4.4
		c-1.4,0.7-3.8,1.9-8.2-2.6c-8.2-6.7-12.3,2.1-12.3,4.3c0,2.2,1.2,6,5.1,6.2c0.7,0,0.9,0.5,0.7,1c-0.2,0.5-0.2,2.9,0.2,3.9
		c0.3,1,0,1-0.9,1.5c-0.9,0.5-4.3,2.2-4.3,2.2s-0.7,0.7-0.2,1.4c0.5,0.7,2.4,3.8,4.1,2.9c0.7-0.3-0.7-1.7-2.1-2.6
		c-0.3-0.3-0.7-0.7,0.5-0.9c1.2-0.2,6-0.9,6.2-4.4c0-0.7,0.2-0.5,0.7-0.2c0.7,0.3,2.6,0.9,2.4,1.9s-0.3,3.3-0.3,4.1
		c-0.3,0.2-0.7,1.4,1,2.1c1.9,0.5,4.3,1,4.1,0.3c0-0.7-2.4-1-3.6-1.5c-0.7-0.3-0.5-0.7,0.2-2.1c0.7-1.2,1.9-4.3,0.7-5.1
		c-0.5-0.2-0.2-0.7,0.9-0.5c1,0.2,1.4,0.2,0.9,1c-0.5,0.7-0.9,1.7-0.3,3.3c0.3,1.5,1.4,4.4,1.4,4.4s0,0.9,0.9,1
		c0.9,0.2,2.6,0.3,2.6-0.5c0-0.9-1.4-0.7-1.9-0.7s-0.9-0.7-0.7-1.7s0.2-4.4,0.9-4.1c0.9,0.2,0,1.5,3.8,5.1c1.2,1.4,2.1,1.4,3.3,1.4
		s1.5-0.9-0.7-1.2c-1.4-0.2-1,0-1.7-1.4c-0.7-1.4-1.9-2.4-1.9-3.3c0-0.9,1-2.1,1-3.9c0-0.9,0.5-0.9,1.2-0.3c0.7,0.3,2.2,0.2,2.9-0.7
		c0.7-0.9,0.2-1.5-0.3-2.4C111.7,175.9,112.2,174.6,109.8,174.4z"/>
	<path class="st4" d="M78.5,174.4c-1.9-0.2-1.2,1.9-3.3,1.5c-3.6-0.3-5-2.4-9.8-2.6c-2.6,0-4.8,1.5-5.6,1.5c-1.2-0.2-3.4-1-3.3-3.9
		c0.2-2.9,3.6-6.5,8.2-3.3c1.9,1.9,6.3,5.3,9.9,3.3c4.8-2.9,0.9-6.8,0-7s-1,0.7-0.2,1.2c1.9,2.1,1.2,3.6-0.2,4.4
		c-1.4,0.7-3.8,1.9-8.2-2.6c-8.2-6.7-12.3,2.1-12.3,4.3c0,2.2,1.2,6,5.1,6.2c0.7,0,0.9,0.5,0.7,1c-0.2,0.5-0.2,2.9,0.2,3.9
		c0.3,1,0,1-0.9,1.5c-0.9,0.5-4.3,2.2-4.3,2.2s-0.7,0.7-0.2,1.4c0.5,0.7,2.4,3.8,4.1,2.9c0.7-0.3-0.7-1.7-2.1-2.6
		c-0.3-0.3-0.7-0.7,0.5-0.9c1.2-0.2,6-0.9,6.2-4.4c0-0.7,0.2-0.5,0.7-0.2c0.7,0.3,2.6,0.9,2.4,1.9s-0.3,3.3-0.3,4.1
		c-0.3,0.2-0.7,1.4,1,2.1c1.9,0.5,4.3,1,4.1,0.3c0-0.7-2.4-1-3.6-1.5c-0.7-0.3-0.5-0.7,0.2-2.1c0.7-1.2,1.9-4.3,0.7-5.1
		c-0.5-0.2-0.2-0.7,0.9-0.5c1,0.2,1.4,0.2,0.9,1c-0.5,0.7-0.9,1.7-0.3,3.3c0.3,1.5,1.4,4.4,1.4,4.4s0,0.9,0.9,1
		c0.9,0.2,2.6,0.3,2.6-0.5c0-0.9-1.4-0.7-1.9-0.7s-0.9-0.7-0.7-1.7c0.2-1,0.2-4.4,0.9-4.1c0.9,0.2,0,1.5,3.8,5.1
		c1.2,1.4,2.1,1.4,3.3,1.4c1.2,0,1.5-0.9-0.7-1.2c-1.4-0.2-1,0-1.7-1.4c-0.7-1.4-1.9-2.4-1.9-3.3c0-0.9,1-2.1,1-3.9
		c0-0.9,0.5-0.9,1.2-0.3c0.7,0.3,2.2,0.2,2.9-0.7c0.7-0.9,0.2-1.5-0.3-2.4C80.4,175.9,80.9,174.6,78.5,174.4z"/>
	<path class="st5" d="M47.3,174.4c-1.9-0.2-1.2,1.9-3.3,1.5c-3.6-0.3-5-2.4-9.8-2.6c-2.6,0-4.8,1.5-5.6,1.5c-1.2-0.2-3.4-1-3.3-3.9
		c0.2-2.9,3.6-6.5,8.2-3.3c1.9,1.9,6.3,5.3,9.9,3.3c4.8-2.9,0.9-6.8,0-7s-1,0.7-0.2,1.2c1.9,2.1,1.2,3.6-0.2,4.4
		c-1.4,0.7-3.8,1.9-8.2-2.6c-8.2-6.7-12.3,2.1-12.3,4.3c0,2.2,1.2,6,5.1,6.2c0.7,0,0.9,0.5,0.7,1c-0.2,0.5-0.2,2.9,0.2,3.9
		c0.3,1,0,1-0.9,1.5s-4.3,2.2-4.3,2.2s-0.7,0.7-0.2,1.4c0.5,0.7,2.4,3.8,4.1,2.9c0.7-0.3-0.7-1.7-2.1-2.6c-0.3-0.3-0.7-0.7,0.5-0.9
		c1.2-0.2,6-0.9,6.2-4.4c0-0.7,0.2-0.5,0.7-0.2c0.7,0.3,2.6,0.9,2.4,1.9s-0.3,3.3-0.3,4.1c-0.3,0.2-0.7,1.4,1,2.1
		c1.9,0.5,4.3,1,4.1,0.3c0-0.7-2.4-1-3.6-1.5c-0.7-0.3-0.5-0.7,0.2-2.1c0.7-1.2,1.9-4.3,0.7-5.1c-0.5-0.2-0.2-0.7,0.9-0.5
		c1,0.2,1.4,0.2,0.9,1c-0.5,0.7-0.9,1.7-0.3,3.3c0.3,1.5,1.4,4.4,1.4,4.4s0,0.9,0.9,1c0.9,0.2,2.6,0.3,2.6-0.5
		c0-0.9-1.4-0.7-1.9-0.7s-0.9-0.7-0.7-1.7s0.2-4.4,0.9-4.1c0.9,0.2,0,1.5,3.8,5.1c1.2,1.4,2.1,1.4,3.3,1.4s1.5-0.9-0.7-1.2
		c-1.4-0.2-1,0-1.7-1.4c-0.7-1.4-1.9-2.4-1.9-3.3c0-0.9,1-2.1,1-3.9c0-0.9,0.5-0.9,1.2-0.3c0.7,0.3,2.2,0.2,2.9-0.7s0.2-1.5-0.3-2.4
		C49.2,175.9,49.7,174.6,47.3,174.4z"/>
</g>
</svg>
