<?xml version="1.0" encoding="utf-8"?>
<!-- Generator: Adobe Illustrator 19.0.0, SVG Export Plug-In . SVG Version: 6.00 Build 0)  -->
<svg version="1.1" id="Layer_1" xmlns="http://www.w3.org/2000/svg" xmlns:xlink="http://www.w3.org/1999/xlink" x="0px" y="0px"
	 viewBox="-252 42.8 574 530.2" style="enable-background:new -252 42.8 574 530.2;" xml:space="preserve">
<style type="text/css">
	.st0{fill:url(#SVGID_1_);}
	.st1{fill:url(#SVGID_2_);}
	.st2{fill:url(#SVGID_3_);}
	.st3{fill:url(#SVGID_4_);}
	.st4{fill:url(#SVGID_5_);}
	.st5{fill:url(#SVGID_6_);}
	.st6{fill:url(#SVGID_7_);}
	.st7{fill:url(#SVGID_8_);}
	.st8{fill:url(#SVGID_9_);}
	.st9{fill:url(#SVGID_10_);}
	.st10{fill:url(#SVGID_11_);}
	.st11{fill:url(#SVGID_12_);}
	.st12{fill:url(#SVGID_13_);}
	.st13{fill:url(#SVGID_14_);}
	.st14{fill:url(#SVGID_15_);}
	.st15{fill:url(#SVGID_16_);}
	.st16{fill:url(#SVGID_17_);}
	.st17{fill:url(#SVGID_18_);}
	.st18{fill:url(#SVGID_19_);}
	.st19{fill:url(#SVGID_20_);}
	.st20{fill:url(#SVGID_21_);}
	.st21{fill:url(#SVGID_22_);}
	.st22{fill:url(#SVGID_23_);}
	.st23{fill:url(#SVGID_24_);}
	.st24{fill:url(#SVGID_25_);}
	.st25{fill:url(#SVGID_26_);}
	.st26{fill:url(#SVGID_27_);}
	.st27{fill:url(#SVGID_28_);}
	.st28{fill:url(#SVGID_29_);}
	.st29{fill:url(#SVGID_30_);}
	.st30{fill:url(#SVGID_31_);}
	.st31{fill:url(#SVGID_32_);}
	.st32{fill:url(#SVGID_33_);}
	.st33{fill:url(#SVGID_34_);}
	.st34{fill:url(#SVGID_35_);}
	.st35{fill:url(#SVGID_36_);}
	.st36{fill:url(#SVGID_37_);}
	.st37{fill:url(#SVGID_38_);}
	.st38{fill:url(#SVGID_39_);}
	.st39{fill:url(#SVGID_40_);}
	.st40{fill:url(#SVGID_41_);}
	.st41{fill:url(#SVGID_42_);}
	.st42{fill:url(#SVGID_43_);}
	.st43{fill:url(#SVGID_44_);}
	.st44{fill:url(#SVGID_45_);}
	.st45{fill:url(#SVGID_46_);}
	.st46{fill:url(#SVGID_47_);}
	.st47{fill:url(#SVGID_48_);}
	.st48{fill:url(#SVGID_49_);}
	.st49{fill:url(#SVGID_50_);}
	.st50{fill:url(#SVGID_51_);}
	.st51{fill:url(#SVGID_52_);}
	.st52{fill:url(#SVGID_53_);}
	.st53{fill:url(#SVGID_54_);}
	.st54{fill:url(#SVGID_55_);}
	.st55{fill:url(#SVGID_56_);}
	.st56{fill:url(#SVGID_57_);}
	.st57{fill:url(#SVGID_58_);}
	.st58{fill:url(#SVGID_59_);}
	.st59{fill:url(#SVGID_60_);}
	.st60{fill:url(#SVGID_61_);}
	.st61{fill:url(#SVGID_62_);}
	.st62{fill:url(#SVGID_63_);}
	.st63{fill:url(#SVGID_64_);}
	.st64{fill:url(#SVGID_65_);}
	.st65{fill:url(#SVGID_66_);}
	.st66{fill:url(#SVGID_67_);}
	.st67{fill:url(#SVGID_68_);}
	.st68{fill:url(#SVGID_69_);}
	.st69{fill:url(#SVGID_70_);}
	.st70{fill:url(#SVGID_71_);}
	.st71{clip-path:url(#SVGID_73_);fill:url(#SVGID_74_);}
	.st72{clip-path:url(#SVGID_76_);}
	.st73{fill:url(#SVGID_77_);}
	.st74{fill:url(#SVGID_78_);}
	.st75{fill:url(#SVGID_79_);}
	.st76{fill:url(#SVGID_80_);}
	.st77{fill:url(#SVGID_81_);}
	.st78{fill:url(#SVGID_82_);}
	.st79{fill:url(#SVGID_83_);}
	.st80{fill:url(#SVGID_84_);}
	.st81{fill:url(#SVGID_85_);}
	.st82{fill:url(#SVGID_86_);}
	.st83{fill:url(#SVGID_87_);}
</style>
<radialGradient id="SVGID_1_" cx="-353.2538" cy="1055.7592" r="447.5638" fx="-345.5254" fy="1055.4354" gradientTransform="matrix(0.6441 -0.7964 0.7811 0.5571 -536.2637 -760.2331)" gradientUnits="userSpaceOnUse">
	<stop  offset="0" style="stop-color:#00274D;stop-opacity:0"/>
	<stop  offset="7.737053e-002" style="stop-color:#00274D;stop-opacity:0"/>
	<stop  offset="0.7185" style="stop-color:#00274D"/>
	<stop  offset="0.8592" style="stop-color:#001931"/>
	<stop  offset="1" style="stop-color:#000D1A"/>
</radialGradient>
<path class="st0" d="M197.8,362.5c0,108.6-93.7,154.8-209.4,154.8S-221,471.1-221,362.5S-127.3,52.9-11.6,52.9
	S197.8,253.9,197.8,362.5z"/>
<g>
	<g>
		<g>
			<g>
				
					<linearGradient id="SVGID_2_" gradientUnits="userSpaceOnUse" x1="90.2739" y1="-100.5062" x2="-125.1667" y2="159.9519" gradientTransform="matrix(1 0 0 1 0 3.6)">
					<stop  offset="0" style="stop-color:#00274D"/>
					<stop  offset="1" style="stop-color:#00274D;stop-opacity:0"/>
				</linearGradient>
				<path class="st1" d="M-120.7,172.8v2.5h-11.4v-2.5h3.8v-16.5l-3.5,1.9l-1.3-2.2l6.3-3.4h2.5v20.2H-120.7L-120.7,172.8
					L-120.7,172.8z"/>
			</g>
			<g>
				
					<linearGradient id="SVGID_3_" gradientUnits="userSpaceOnUse" x1="88.4295" y1="-104.2138" x2="-127.9189" y2="157.3415" gradientTransform="matrix(1 0 0 1 0 3.6)">
					<stop  offset="0" style="stop-color:#00274D"/>
					<stop  offset="1" style="stop-color:#00274D;stop-opacity:0"/>
				</linearGradient>
				<path class="st2" d="M-104,143.7c-5.5,0.1-8.3-3.8-8.4-11.6c0.1-7.8,2.9-11.7,8.4-11.7s8.3,3.8,8.4,11.7
					C-95.8,139.9-98.6,143.7-104,143.7z M-99.7,132.1c0-3-0.2-5.2-0.9-6.7c-0.6-1.5-1.8-2.3-3.4-2.3s-2.8,0.8-3.4,2.3
					s-0.9,3.8-0.9,6.7s0.3,5.2,0.9,6.7s1.8,2.2,3.4,2.2c1.7,0,2.8-0.7,3.4-2.2C-100,137.3-99.7,135-99.7,132.1L-99.7,132.1
					L-99.7,132.1z"/>
				
					<linearGradient id="SVGID_4_" gradientUnits="userSpaceOnUse" x1="104.5645" y1="-89.6143" x2="-110.8761" y2="170.8439" gradientTransform="matrix(1 0 0 1 0 3.6)">
					<stop  offset="0" style="stop-color:#00274D"/>
					<stop  offset="1" style="stop-color:#00274D;stop-opacity:0"/>
				</linearGradient>
				<path class="st3" d="M-97.4,172.8v2.5h-11.4v-2.5h3.8v-16.5l-3.5,1.9l-1.3-2.2l6.3-3.4h2.5v20.2H-97.4L-97.4,172.8L-97.4,172.8z
					"/>
				
					<linearGradient id="SVGID_5_" gradientUnits="userSpaceOnUse" x1="120.2808" y1="-79.0009" x2="-96.0675" y2="182.5545" gradientTransform="matrix(1 0 0 1 0 3.6)">
					<stop  offset="0" style="stop-color:#00274D"/>
					<stop  offset="1" style="stop-color:#00274D;stop-opacity:0"/>
				</linearGradient>
				<path class="st4" d="M-104,207.4c-5.5,0.1-8.3-3.8-8.4-11.6c0.1-7.8,2.9-11.7,8.4-11.7s8.3,3.8,8.4,11.7
					C-95.8,203.6-98.6,207.5-104,207.4z M-99.7,195.8c0-3-0.2-5.2-0.9-6.7c-0.6-1.5-1.8-2.3-3.4-2.3s-2.8,0.8-3.4,2.3
					s-0.9,3.8-0.9,6.7s0.3,5.2,0.9,6.7s1.8,2.2,3.4,2.2c1.7,0,2.8-0.7,3.4-2.2C-100,201-99.7,198.8-99.7,195.8L-99.7,195.8
					L-99.7,195.8z"/>
			</g>
			<g>
				
					<linearGradient id="SVGID_6_" gradientUnits="userSpaceOnUse" x1="87.0385" y1="-104.1783" x2="-128.4021" y2="156.2798" gradientTransform="matrix(1 0 0 1 0 3.6)">
					<stop  offset="0" style="stop-color:#00274D"/>
					<stop  offset="1" style="stop-color:#00274D;stop-opacity:0"/>
				</linearGradient>
				<path class="st5" d="M-74.2,109v2.5h-11.4V109h3.8V92.5l-3.5,1.9l-1.3-2.2l6.3-3.4h2.5V109H-74.2L-74.2,109L-74.2,109z"/>
				
					<linearGradient id="SVGID_7_" gradientUnits="userSpaceOnUse" x1="102.6448" y1="-93.3068" x2="-113.7034" y2="168.2486" gradientTransform="matrix(1 0 0 1 0 3.6)">
					<stop  offset="0" style="stop-color:#00274D"/>
					<stop  offset="1" style="stop-color:#00274D;stop-opacity:0"/>
				</linearGradient>
				<path class="st6" d="M-80.8,143.7c-5.5,0.1-8.3-3.8-8.4-11.6c0.1-7.8,2.9-11.7,8.4-11.7s8.3,3.8,8.4,11.7
					C-72.5,139.9-75.3,143.7-80.8,143.7z M-76.4,132.1c0-3-0.2-5.2-0.9-6.7c-0.6-1.5-1.8-2.3-3.4-2.3s-2.8,0.8-3.4,2.3
					s-0.9,3.8-0.9,6.7s0.3,5.2,0.9,6.7s1.8,2.2,3.4,2.2c1.7,0,2.8-0.7,3.4-2.2S-76.4,135-76.4,132.1L-76.4,132.1L-76.4,132.1z"/>
				
					<linearGradient id="SVGID_8_" gradientUnits="userSpaceOnUse" x1="118.7958" y1="-78.7713" x2="-96.645" y2="181.6868" gradientTransform="matrix(1 0 0 1 0 3.6)">
					<stop  offset="0" style="stop-color:#00274D"/>
					<stop  offset="1" style="stop-color:#00274D;stop-opacity:0"/>
				</linearGradient>
				<path class="st7" d="M-74.2,172.8v2.5h-11.4v-2.5h3.8v-16.5l-3.5,1.9l-1.3-2.2l6.3-3.4h2.5v20.2H-74.2L-74.2,172.8L-74.2,172.8z
					"/>
				
					<linearGradient id="SVGID_9_" gradientUnits="userSpaceOnUse" x1="134.4963" y1="-68.0938" x2="-81.852" y2="193.4615" gradientTransform="matrix(1 0 0 1 0 3.6)">
					<stop  offset="0" style="stop-color:#00274D"/>
					<stop  offset="1" style="stop-color:#00274D;stop-opacity:0"/>
				</linearGradient>
				<path class="st8" d="M-80.8,207.4c-5.5,0.1-8.3-3.8-8.4-11.6c0.1-7.8,2.9-11.7,8.4-11.7s8.3,3.8,8.4,11.7
					C-72.5,203.6-75.3,207.5-80.8,207.4z M-76.4,195.8c0-3-0.2-5.2-0.9-6.7c-0.6-1.5-1.8-2.3-3.4-2.3s-2.8,0.8-3.4,2.3
					s-0.9,3.8-0.9,6.7s0.3,5.2,0.9,6.7s1.8,2.2,3.4,2.2c1.7,0,2.8-0.7,3.4-2.2S-76.4,198.8-76.4,195.8L-76.4,195.8L-76.4,195.8z"/>
				
					<linearGradient id="SVGID_10_" gradientUnits="userSpaceOnUse" x1="150.5037" y1="-53.405" x2="-64.9369" y2="207.0532" gradientTransform="matrix(1 0 0 1 0 3.6)">
					<stop  offset="0" style="stop-color:#00274D"/>
					<stop  offset="1" style="stop-color:#00274D;stop-opacity:0"/>
				</linearGradient>
				<path class="st9" d="M-74.2,236.5v2.5h-11.4v-2.5h3.8V220l-3.5,1.9l-1.3-2.2l6.3-3.4h2.5v20.2H-74.2L-74.2,236.5L-74.2,236.5z"
					/>
			</g>
			<g>
				
					<linearGradient id="SVGID_11_" gradientUnits="userSpaceOnUse" x1="101.3291" y1="-93.2863" x2="-114.1116" y2="167.1718" gradientTransform="matrix(1 0 0 1 0 3.6)">
					<stop  offset="0" style="stop-color:#00274D"/>
					<stop  offset="1" style="stop-color:#00274D;stop-opacity:0"/>
				</linearGradient>
				<path class="st10" d="M-50.9,109v2.5h-11.4V109h3.8V92.5l-3.5,1.9l-1.3-2.2l6.3-3.4h2.5V109H-50.9L-50.9,109L-50.9,109z"/>
				
					<linearGradient id="SVGID_12_" gradientUnits="userSpaceOnUse" x1="116.8975" y1="-82.369" x2="-99.4508" y2="179.1865" gradientTransform="matrix(1 0 0 1 0 3.6)">
					<stop  offset="0" style="stop-color:#00274D"/>
					<stop  offset="1" style="stop-color:#00274D;stop-opacity:0"/>
				</linearGradient>
				<path class="st11" d="M-57.5,143.7c-5.5,0.1-8.3-3.8-8.4-11.6c0.1-7.8,2.9-11.7,8.4-11.7s8.3,3.8,8.4,11.7
					C-49.2,139.9-52,143.7-57.5,143.7z M-53.2,132.1c0-3-0.2-5.2-0.9-6.7c-0.6-1.5-1.8-2.3-3.4-2.3s-2.8,0.8-3.4,2.3
					s-0.9,3.8-0.9,6.7s0.3,5.2,0.9,6.7s1.8,2.2,3.4,2.2c1.7,0,2.8-0.7,3.4-2.2C-53.4,137.3-53.1,135-53.2,132.1L-53.2,132.1
					L-53.2,132.1z"/>
				
					<linearGradient id="SVGID_13_" gradientUnits="userSpaceOnUse" x1="133.0862" y1="-67.8793" x2="-82.3544" y2="192.5788" gradientTransform="matrix(1 0 0 1 0 3.6)">
					<stop  offset="0" style="stop-color:#00274D"/>
					<stop  offset="1" style="stop-color:#00274D;stop-opacity:0"/>
				</linearGradient>
				<path class="st12" d="M-50.9,172.8v2.5h-11.4v-2.5h3.8v-16.5l-3.5,1.9l-1.3-2.2l6.3-3.4h2.5v20.2H-50.9L-50.9,172.8L-50.9,172.8
					z"/>
				
					<linearGradient id="SVGID_14_" gradientUnits="userSpaceOnUse" x1="148.749" y1="-57.1561" x2="-67.5993" y2="204.3993" gradientTransform="matrix(1 0 0 1 0 3.6)">
					<stop  offset="0" style="stop-color:#00274D"/>
					<stop  offset="1" style="stop-color:#00274D;stop-opacity:0"/>
				</linearGradient>
				<path class="st13" d="M-57.5,207.4c-5.5,0.1-8.3-3.8-8.4-11.6c0.1-7.8,2.9-11.7,8.4-11.7s8.3,3.8,8.4,11.7
					C-49.2,203.6-52,207.5-57.5,207.4z M-53.2,195.8c0-3-0.2-5.2-0.9-6.7c-0.6-1.5-1.8-2.3-3.4-2.3s-2.8,0.8-3.4,2.3
					s-0.9,3.8-0.9,6.7s0.3,5.2,0.9,6.7s1.8,2.2,3.4,2.2c1.7,0,2.8-0.7,3.4-2.2C-53.4,201-53.1,198.8-53.2,195.8L-53.2,195.8
					L-53.2,195.8z"/>
				
					<linearGradient id="SVGID_15_" gradientUnits="userSpaceOnUse" x1="164.6944" y1="-44.5333" x2="-51.6539" y2="217.022" gradientTransform="matrix(1 0 0 1 0 3.6)">
					<stop  offset="0" style="stop-color:#00274D"/>
					<stop  offset="1" style="stop-color:#00274D;stop-opacity:0"/>
				</linearGradient>
				<path class="st14" d="M-57.5,239.3c-5.5,0.1-8.3-3.8-8.4-11.6c0.1-7.8,2.9-11.7,8.4-11.7s8.3,3.8,8.4,11.7
					C-49.2,235.5-52,239.4-57.5,239.3z M-53.2,227.7c0-3-0.2-5.2-0.9-6.7c-0.6-1.5-1.8-2.3-3.4-2.3s-2.8,0.8-3.4,2.3
					s-0.9,3.8-0.9,6.7s0.3,5.2,0.9,6.7s1.8,2.2,3.4,2.2c1.7,0,2.8-0.7,3.4-2.2C-53.4,232.9-53.1,230.6-53.2,227.7L-53.2,227.7
					L-53.2,227.7z"/>
			</g>
			<g>
				
					<linearGradient id="SVGID_16_" gradientUnits="userSpaceOnUse" x1="99.7903" y1="-95.0572" x2="-115.6505" y2="165.4009" gradientTransform="matrix(1 0 0 1 0 3.6)">
					<stop  offset="0" style="stop-color:#00274D"/>
					<stop  offset="1" style="stop-color:#00274D;stop-opacity:0"/>
				</linearGradient>
				<path class="st15" d="M-27.6,77.2v2.5H-39v-2.5h3.8V60.7l-3.5,1.9l-1.3-2.2l6.3-3.4h2.5v20.2H-27.6L-27.6,77.2L-27.6,77.2z"/>
				
					<linearGradient id="SVGID_17_" gradientUnits="userSpaceOnUse" x1="115.6197" y1="-82.3943" x2="-99.821" y2="178.0638" gradientTransform="matrix(1 0 0 1 0 3.6)">
					<stop  offset="0" style="stop-color:#00274D"/>
					<stop  offset="1" style="stop-color:#00274D;stop-opacity:0"/>
				</linearGradient>
				<path class="st16" d="M-27.6,109v2.5H-39V109h3.8V92.5l-3.5,1.9l-1.3-2.2l6.3-3.4h2.5V109H-27.6L-27.6,109L-27.6,109z"/>
				
					<linearGradient id="SVGID_18_" gradientUnits="userSpaceOnUse" x1="131.4983" y1="-69.6908" x2="-83.9425" y2="190.7673" gradientTransform="matrix(1 0 0 1 0 3.6)">
					<stop  offset="0" style="stop-color:#00274D"/>
					<stop  offset="1" style="stop-color:#00274D;stop-opacity:0"/>
				</linearGradient>
				<path class="st17" d="M-27.6,140.9v2.5H-39v-2.5h3.8v-16.5l-3.5,1.9l-1.3-2.2l6.3-3.4h2.5v20.2H-27.6L-27.6,140.9L-27.6,140.9z"
					/>
				
					<linearGradient id="SVGID_19_" gradientUnits="userSpaceOnUse" x1="147.0423" y1="-58.8519" x2="-69.3056" y2="202.7032" gradientTransform="matrix(1 0 0 1 0 3.6)">
					<stop  offset="0" style="stop-color:#00274D"/>
					<stop  offset="1" style="stop-color:#00274D;stop-opacity:0"/>
				</linearGradient>
				<path class="st18" d="M-34.2,175.5c-5.5,0.1-8.3-3.8-8.4-11.6c0.1-7.8,2.9-11.7,8.4-11.7s8.3,3.8,8.4,11.7
					C-26,171.8-28.8,175.6-34.2,175.5z M-29.9,164c0-3-0.2-5.2-0.9-6.7c-0.6-1.5-1.8-2.3-3.4-2.3s-2.8,0.8-3.4,2.3s-0.9,3.8-0.9,6.7
					s0.3,5.2,0.9,6.7s1.8,2.2,3.4,2.2c1.7,0,2.8-0.7,3.4-2.2C-30.2,169.1-29.9,166.9-29.9,164L-29.9,164L-29.9,164z"/>
				
					<linearGradient id="SVGID_20_" gradientUnits="userSpaceOnUse" x1="163.2554" y1="-44.2837" x2="-52.1853" y2="216.1744" gradientTransform="matrix(1 0 0 1 0 3.6)">
					<stop  offset="0" style="stop-color:#00274D"/>
					<stop  offset="1" style="stop-color:#00274D;stop-opacity:0"/>
				</linearGradient>
				<path class="st19" d="M-27.6,204.7v2.5H-39v-2.5h3.8v-16.5l-3.5,1.9l-1.3-2.2l6.3-3.4h2.5v20.2H-27.6L-27.6,204.7L-27.6,204.7z"
					/>
				
					<linearGradient id="SVGID_21_" gradientUnits="userSpaceOnUse" x1="178.9245" y1="-33.6134" x2="-37.4234" y2="227.9415" gradientTransform="matrix(1 0 0 1 0 3.6)">
					<stop  offset="0" style="stop-color:#00274D"/>
					<stop  offset="1" style="stop-color:#00274D;stop-opacity:0"/>
				</linearGradient>
				<path class="st20" d="M-34.2,239.3c-5.5,0.1-8.3-3.8-8.4-11.6c0.1-7.8,2.9-11.7,8.4-11.7s8.3,3.8,8.4,11.7
					C-26,235.5-28.8,239.4-34.2,239.3z M-29.9,227.7c0-3-0.2-5.2-0.9-6.7c-0.6-1.5-1.8-2.3-3.4-2.3s-2.8,0.8-3.4,2.3
					s-0.9,3.8-0.9,6.7s0.3,5.2,0.9,6.7s1.8,2.2,3.4,2.2c1.7,0,2.8-0.7,3.4-2.2S-29.9,230.6-29.9,227.7L-29.9,227.7L-29.9,227.7z"/>
			</g>
		</g>
		<g>
			<g>
				
					<linearGradient id="SVGID_22_" gradientUnits="userSpaceOnUse" x1="113.7449" y1="-85.5619" x2="-102.6034" y2="175.9934" gradientTransform="matrix(1 0 0 1 0 3.6)">
					<stop  offset="0" style="stop-color:#00274D"/>
					<stop  offset="1" style="stop-color:#00274D;stop-opacity:0"/>
				</linearGradient>
				<path class="st21" d="M-10.5,79.9c-5.5,0.1-8.3-3.8-8.4-11.6c0.1-7.8,2.9-11.7,8.4-11.7s8.3,3.8,8.4,11.7
					C-2.3,76.1-5.1,80-10.5,79.9z M-6.2,68.4c0-3-0.2-5.2-0.9-6.7c-0.6-1.5-1.8-2.3-3.4-2.3s-2.8,0.8-3.4,2.3
					c-0.6,1.5-0.9,3.8-0.9,6.7s0.3,5.2,0.9,6.7c0.6,1.5,1.8,2.2,3.4,2.2c1.7,0,2.8-0.7,3.4-2.2C-6.5,73.5-6.2,71.3-6.2,68.4
					L-6.2,68.4L-6.2,68.4z"/>
				
					<linearGradient id="SVGID_23_" gradientUnits="userSpaceOnUse" x1="130.1562" y1="-71.3161" x2="-85.2845" y2="189.142" gradientTransform="matrix(1 0 0 1 0 3.6)">
					<stop  offset="0" style="stop-color:#00274D"/>
					<stop  offset="1" style="stop-color:#00274D;stop-opacity:0"/>
				</linearGradient>
				<path class="st22" d="M-3.9,109v2.5h-11.4V109h3.8V92.5l-3.5,1.9l-1.3-2.2l6.3-3.4h2.5V109H-3.9L-3.9,109L-3.9,109z"/>
				
					<linearGradient id="SVGID_24_" gradientUnits="userSpaceOnUse" x1="145.6259" y1="-60.3246" x2="-70.7223" y2="201.2308" gradientTransform="matrix(1 0 0 1 0 3.6)">
					<stop  offset="0" style="stop-color:#00274D"/>
					<stop  offset="1" style="stop-color:#00274D;stop-opacity:0"/>
				</linearGradient>
				<path class="st23" d="M-10.5,143.7c-5.5,0.1-8.3-3.8-8.4-11.6c0.1-7.8,2.9-11.7,8.4-11.7s8.3,3.8,8.4,11.7
					C-2.3,139.9-5.1,143.7-10.5,143.7z M-6.2,132.1c0-3-0.2-5.2-0.9-6.7c-0.6-1.5-1.8-2.3-3.4-2.3s-2.8,0.8-3.4,2.3
					c-0.6,1.5-0.9,3.8-0.9,6.7s0.3,5.2,0.9,6.7c0.6,1.5,1.8,2.2,3.4,2.2c1.7,0,2.8-0.7,3.4-2.2S-6.2,135-6.2,132.1L-6.2,132.1
					L-6.2,132.1z"/>
				
					<linearGradient id="SVGID_25_" gradientUnits="userSpaceOnUse" x1="161.5406" y1="-47.7273" x2="-54.8077" y2="213.828" gradientTransform="matrix(1 0 0 1 0 3.6)">
					<stop  offset="0" style="stop-color:#00274D"/>
					<stop  offset="1" style="stop-color:#00274D;stop-opacity:0"/>
				</linearGradient>
				<path class="st24" d="M-10.5,175.5c-5.5,0.1-8.3-3.8-8.4-11.6c0.1-7.8,2.9-11.7,8.4-11.7s8.3,3.8,8.4,11.7
					C-2.3,171.8-5.1,175.6-10.5,175.5z M-6.2,164c0-3-0.2-5.2-0.9-6.7c-0.6-1.5-1.8-2.3-3.4-2.3s-2.8,0.8-3.4,2.3
					c-0.6,1.5-0.9,3.8-0.9,6.7s0.3,5.2,0.9,6.7c0.6,1.5,1.8,2.2,3.4,2.2c1.7,0,2.8-0.7,3.4-2.2C-6.5,169.1-6.2,166.9-6.2,164
					L-6.2,164L-6.2,164z"/>
				
					<linearGradient id="SVGID_26_" gradientUnits="userSpaceOnUse" x1="177.792" y1="-33.2055" x2="-37.6487" y2="227.2525" gradientTransform="matrix(1 0 0 1 0 3.6)">
					<stop  offset="0" style="stop-color:#00274D"/>
					<stop  offset="1" style="stop-color:#00274D;stop-opacity:0"/>
				</linearGradient>
				<path class="st25" d="M-3.9,204.7v2.5h-11.4v-2.5h3.8v-16.5l-3.5,1.9l-1.3-2.2l6.3-3.4h2.5v20.2H-3.9L-3.9,204.7L-3.9,204.7z"/>
				
					<linearGradient id="SVGID_27_" gradientUnits="userSpaceOnUse" x1="193.4228" y1="-22.489" x2="-22.9254" y2="239.0664" gradientTransform="matrix(1 0 0 1 0 3.6)">
					<stop  offset="0" style="stop-color:#00274D"/>
					<stop  offset="1" style="stop-color:#00274D;stop-opacity:0"/>
				</linearGradient>
				<path class="st26" d="M-10.5,239.3c-5.5,0.1-8.3-3.8-8.4-11.6c0.1-7.8,2.9-11.7,8.4-11.7s8.3,3.8,8.4,11.7
					C-2.3,235.5-5.1,239.4-10.5,239.3z M-6.2,227.7c0-3-0.2-5.2-0.9-6.7c-0.6-1.5-1.8-2.3-3.4-2.3s-2.8,0.8-3.4,2.3
					c-0.6,1.5-0.9,3.8-0.9,6.7s0.3,5.2,0.9,6.7c0.6,1.5,1.8,2.2,3.4,2.2c1.7,0,2.8-0.7,3.4-2.2S-6.2,230.6-6.2,227.7L-6.2,227.7
					L-6.2,227.7z"/>
				
					<linearGradient id="SVGID_28_" gradientUnits="userSpaceOnUse" x1="209.5" y1="-7.8392" x2="-5.9407" y2="252.6189" gradientTransform="matrix(1 0 0 1 0 3.6)">
					<stop  offset="0" style="stop-color:#00274D"/>
					<stop  offset="1" style="stop-color:#00274D;stop-opacity:0"/>
				</linearGradient>
				<path class="st27" d="M-3.9,268.4v2.5h-11.4v-2.5h3.8v-16.5l-3.5,1.9l-1.3-2.2l6.3-3.4h2.5v20.2H-3.9L-3.9,268.4L-3.9,268.4z"/>
			</g>
			<g>
				
					<linearGradient id="SVGID_29_" gradientUnits="userSpaceOnUse" x1="128.5579" y1="-73.1361" x2="-86.8828" y2="187.3221" gradientTransform="matrix(1 0 0 1 0 3.6)">
					<stop  offset="0" style="stop-color:#00274D"/>
					<stop  offset="1" style="stop-color:#00274D;stop-opacity:0"/>
				</linearGradient>
				<path class="st28" d="M19.3,77.2v2.5H7.9v-2.5h3.8V60.7l-3.5,1.9l-1.3-2.2l6.3-3.4h2.5v20.2H19.3L19.3,77.2L19.3,77.2z"/>
				
					<linearGradient id="SVGID_30_" gradientUnits="userSpaceOnUse" x1="143.9058" y1="-62.0322" x2="-72.4425" y2="199.5232" gradientTransform="matrix(1 0 0 1 0 3.6)">
					<stop  offset="0" style="stop-color:#00274D"/>
					<stop  offset="1" style="stop-color:#00274D;stop-opacity:0"/>
				</linearGradient>
				<path class="st29" d="M12.7,111.8c-5.5,0.1-8.3-3.8-8.4-11.6c0.1-7.8,2.9-11.7,8.4-11.7s8.3,3.8,8.4,11.7
					C21,108,18.2,111.9,12.7,111.8z M17.1,100.2c0-3-0.2-5.2-0.9-6.7c-0.6-1.5-1.8-2.3-3.4-2.3S10,92,9.4,93.5
					c-0.6,1.5-0.9,3.8-0.9,6.7s0.3,5.2,0.9,6.7c0.6,1.5,1.8,2.2,3.4,2.2c1.7,0,2.8-0.7,3.4-2.2S17.1,103.2,17.1,100.2L17.1,100.2
					L17.1,100.2z"/>
				
					<linearGradient id="SVGID_31_" gradientUnits="userSpaceOnUse" x1="160.266" y1="-47.7697" x2="-55.1747" y2="212.6884" gradientTransform="matrix(1 0 0 1 0 3.6)">
					<stop  offset="0" style="stop-color:#00274D"/>
					<stop  offset="1" style="stop-color:#00274D;stop-opacity:0"/>
				</linearGradient>
				<path class="st30" d="M19.3,140.9v2.5H7.9v-2.5h3.8v-16.5l-3.5,1.9l-1.3-2.2l6.3-3.4h2.5v20.2H19.3L19.3,140.9L19.3,140.9z"/>
				
					<linearGradient id="SVGID_32_" gradientUnits="userSpaceOnUse" x1="175.756" y1="-36.8202" x2="-40.5923" y2="224.7351" gradientTransform="matrix(1 0 0 1 0 3.6)">
					<stop  offset="0" style="stop-color:#00274D"/>
					<stop  offset="1" style="stop-color:#00274D;stop-opacity:0"/>
				</linearGradient>
				<path class="st31" d="M12.7,175.5c-5.5,0.1-8.3-3.8-8.4-11.6c0.1-7.8,2.9-11.7,8.4-11.7s8.3,3.8,8.4,11.7
					C21,171.8,18.2,175.6,12.7,175.5z M17.1,164c0-3-0.2-5.2-0.9-6.7c-0.6-1.5-1.8-2.3-3.4-2.3s-2.8,0.8-3.4,2.3
					c-0.6,1.5-0.9,3.8-0.9,6.7s0.3,5.2,0.9,6.7c0.6,1.5,1.8,2.2,3.4,2.2c1.7,0,2.8-0.7,3.4-2.2C16.8,169.1,17.1,166.9,17.1,164
					L17.1,164L17.1,164z"/>
				
					<linearGradient id="SVGID_33_" gradientUnits="userSpaceOnUse" x1="192.0231" y1="-22.3627" x2="-23.4175" y2="238.0954" gradientTransform="matrix(1 0 0 1 0 3.6)">
					<stop  offset="0" style="stop-color:#00274D"/>
					<stop  offset="1" style="stop-color:#00274D;stop-opacity:0"/>
				</linearGradient>
				<path class="st32" d="M19.3,204.7v2.5H7.9v-2.5h3.8v-16.5l-3.5,1.9l-1.3-2.2l6.3-3.4h2.5v20.2H19.3L19.3,204.7L19.3,204.7z"/>
				
					<linearGradient id="SVGID_34_" gradientUnits="userSpaceOnUse" x1="207.6382" y1="-11.5819" x2="-8.71" y2="249.9735" gradientTransform="matrix(1 0 0 1 0 3.6)">
					<stop  offset="0" style="stop-color:#00274D"/>
					<stop  offset="1" style="stop-color:#00274D;stop-opacity:0"/>
				</linearGradient>
				<path class="st33" d="M12.7,239.3c-5.5,0.1-8.3-3.8-8.4-11.6c0.1-7.8,2.9-11.7,8.4-11.7s8.3,3.8,8.4,11.7
					C21,235.5,18.2,239.4,12.7,239.3z M17.1,227.7c0-3-0.2-5.2-0.9-6.7c-0.6-1.5-1.8-2.3-3.4-2.3s-2.8,0.8-3.4,2.3
					c-0.6,1.5-0.9,3.8-0.9,6.7s0.3,5.2,0.9,6.7c0.6,1.5,1.8,2.2,3.4,2.2c1.7,0,2.8-0.7,3.4-2.2S17.1,230.6,17.1,227.7L17.1,227.7
					L17.1,227.7z"/>
				
					<linearGradient id="SVGID_35_" gradientUnits="userSpaceOnUse" x1="223.7311" y1="3.0036" x2="8.2905" y2="263.4619" gradientTransform="matrix(1 0 0 1 0 3.6)">
					<stop  offset="0" style="stop-color:#00274D"/>
					<stop  offset="1" style="stop-color:#00274D;stop-opacity:0"/>
				</linearGradient>
				<path class="st34" d="M19.3,268.4v2.5H7.9v-2.5h3.8v-16.5l-3.5,1.9l-1.3-2.2l6.3-3.4h2.5v20.2H19.3L19.3,268.4L19.3,268.4z"/>
			</g>
			<g>
				
					<linearGradient id="SVGID_36_" gradientUnits="userSpaceOnUse" x1="158.1482" y1="-51.1029" x2="-58.2001" y2="210.4525" gradientTransform="matrix(1 0 0 1 0 3.6)">
					<stop  offset="0" style="stop-color:#00274D"/>
					<stop  offset="1" style="stop-color:#00274D;stop-opacity:0"/>
				</linearGradient>
				<path class="st35" d="M36,111.8c-5.5,0.1-8.3-3.8-8.4-11.6c0.1-7.8,2.9-11.7,8.4-11.7s8.3,3.8,8.4,11.7
					C44.2,108,41.5,111.9,36,111.8z M40.3,100.2c0-3-0.2-5.2-0.9-6.7c-0.6-1.5-1.8-2.3-3.4-2.3c-1.6,0-2.8,0.8-3.4,2.3
					c-0.6,1.5-0.9,3.8-0.9,6.7s0.3,5.2,0.9,6.7c0.6,1.5,1.8,2.2,3.4,2.2c1.7,0,2.8-0.7,3.4-2.2C40.1,105.4,40.4,103.2,40.3,100.2
					L40.3,100.2L40.3,100.2z"/>
				
					<linearGradient id="SVGID_37_" gradientUnits="userSpaceOnUse" x1="174.0837" y1="-38.4882" x2="-42.2646" y2="223.0671" gradientTransform="matrix(1 0 0 1 0 3.6)">
					<stop  offset="0" style="stop-color:#00274D"/>
					<stop  offset="1" style="stop-color:#00274D;stop-opacity:0"/>
				</linearGradient>
				<path class="st36" d="M36,143.7c-5.5,0.1-8.3-3.8-8.4-11.6c0.1-7.8,2.9-11.7,8.4-11.7s8.3,3.8,8.4,11.7
					C44.2,139.9,41.5,143.7,36,143.7z M40.3,132.1c0-3-0.2-5.2-0.9-6.7c-0.6-1.5-1.8-2.3-3.4-2.3c-1.6,0-2.8,0.8-3.4,2.3
					c-0.6,1.5-0.9,3.8-0.9,6.7s0.3,5.2,0.9,6.7c0.6,1.5,1.8,2.2,3.4,2.2c1.7,0,2.8-0.7,3.4-2.2C40.1,137.3,40.4,135,40.3,132.1
					L40.3,132.1L40.3,132.1z"/>
				
					<linearGradient id="SVGID_38_" gradientUnits="userSpaceOnUse" x1="190.4351" y1="-24.1742" x2="-25.0055" y2="236.2839" gradientTransform="matrix(1 0 0 1 0 3.6)">
					<stop  offset="0" style="stop-color:#00274D"/>
					<stop  offset="1" style="stop-color:#00274D;stop-opacity:0"/>
				</linearGradient>
				<path class="st37" d="M42.6,172.8v2.5H31.2v-2.5H35v-16.5l-3.5,1.9l-1.3-2.2l6.3-3.4H39v20.2H42.6L42.6,172.8L42.6,172.8z"/>
				
					<linearGradient id="SVGID_39_" gradientUnits="userSpaceOnUse" x1="205.9352" y1="-13.2754" x2="-10.4131" y2="248.2801" gradientTransform="matrix(1 0 0 1 0 3.6)">
					<stop  offset="0" style="stop-color:#00274D"/>
					<stop  offset="1" style="stop-color:#00274D;stop-opacity:0"/>
				</linearGradient>
				<path class="st38" d="M36,207.4c-5.5,0.1-8.3-3.8-8.4-11.6c0.1-7.8,2.9-11.7,8.4-11.7s8.3,3.8,8.4,11.7
					C44.2,203.6,41.5,207.5,36,207.4z M40.3,195.8c0-3-0.2-5.2-0.9-6.7c-0.6-1.5-1.8-2.3-3.4-2.3c-1.6,0-2.8,0.8-3.4,2.3
					c-0.6,1.5-0.9,3.8-0.9,6.7s0.3,5.2,0.9,6.7c0.6,1.5,1.8,2.2,3.4,2.2c1.7,0,2.8-0.7,3.4-2.2C40.1,201,40.4,198.8,40.3,195.8
					L40.3,195.8L40.3,195.8z"/>
				
					<linearGradient id="SVGID_40_" gradientUnits="userSpaceOnUse" x1="222.1432" y1="1.1922" x2="6.7024" y2="261.6504" gradientTransform="matrix(1 0 0 1 0 3.6)">
					<stop  offset="0" style="stop-color:#00274D"/>
					<stop  offset="1" style="stop-color:#00274D;stop-opacity:0"/>
				</linearGradient>
				<path class="st39" d="M42.6,236.5v2.5H31.2v-2.5H35V220l-3.5,1.9l-1.3-2.2l6.3-3.4H39v20.2H42.6L42.6,236.5L42.6,236.5z"/>
				
					<linearGradient id="SVGID_41_" gradientUnits="userSpaceOnUse" x1="237.8162" y1="11.962" x2="21.4679" y2="273.5174" gradientTransform="matrix(1 0 0 1 0 3.6)">
					<stop  offset="0" style="stop-color:#00274D"/>
					<stop  offset="1" style="stop-color:#00274D;stop-opacity:0"/>
				</linearGradient>
				<path class="st40" d="M36,271.2c-5.5,0.1-8.3-3.8-8.4-11.6c0.1-7.8,2.9-11.7,8.4-11.7s8.3,3.8,8.4,11.7
					C44.2,267.4,41.5,271.2,36,271.2z M40.3,259.6c0-3-0.2-5.2-0.9-6.7c-0.6-1.5-1.8-2.3-3.4-2.3c-1.6,0-2.8,0.8-3.4,2.3
					c-0.6,1.5-0.9,3.8-0.9,6.7s0.3,5.2,0.9,6.7c0.6,1.5,1.8,2.2,3.4,2.2c1.7,0,2.8-0.7,3.4-2.2C40.1,264.7,40.4,262.5,40.3,259.6
					L40.3,259.6L40.3,259.6z"/>
				
					<linearGradient id="SVGID_42_" gradientUnits="userSpaceOnUse" x1="253.9002" y1="26.5993" x2="38.4596" y2="287.0574" gradientTransform="matrix(1 0 0 1 0 3.6)">
					<stop  offset="0" style="stop-color:#00274D"/>
					<stop  offset="1" style="stop-color:#00274D;stop-opacity:0"/>
				</linearGradient>
				<path class="st41" d="M42.6,300.3v2.5H31.2v-2.5H35v-16.5l-3.5,1.9l-1.3-2.2l6.3-3.4H39v20.2H42.6L42.6,300.3L42.6,300.3z"/>
			</g>
			<g>
				
					<linearGradient id="SVGID_43_" gradientUnits="userSpaceOnUse" x1="172.9685" y1="-38.6892" x2="-42.4722" y2="221.769" gradientTransform="matrix(1 0 0 1 0 3.6)">
					<stop  offset="0" style="stop-color:#00274D"/>
					<stop  offset="1" style="stop-color:#00274D;stop-opacity:0"/>
				</linearGradient>
				<path class="st42" d="M65.9,109v2.5H54.5V109h3.8V92.5l-3.5,1.9l-1.3-2.2l6.3-3.4h2.5V109H65.9L65.9,109L65.9,109z"/>
				
					<linearGradient id="SVGID_44_" gradientUnits="userSpaceOnUse" x1="188.3246" y1="-27.5604" x2="-28.0237" y2="233.9952" gradientTransform="matrix(1 0 0 1 0 3.6)">
					<stop  offset="0" style="stop-color:#00274D"/>
					<stop  offset="1" style="stop-color:#00274D;stop-opacity:0"/>
				</linearGradient>
				<path class="st43" d="M59.3,143.7c-5.5,0.1-8.3-3.8-8.4-11.6c0.1-7.8,2.9-11.7,8.4-11.7s8.3,3.8,8.4,11.7
					C67.5,139.9,64.7,143.7,59.3,143.7z M63.6,132.1c0-3-0.2-5.2-0.9-6.7c-0.6-1.5-1.8-2.3-3.4-2.3c-1.6,0-2.8,0.8-3.4,2.3
					c-0.6,1.5-0.9,3.8-0.9,6.7s0.3,5.2,0.9,6.7c0.6,1.5,1.8,2.2,3.4,2.2c1.7,0,2.8-0.7,3.4-2.2S63.6,135,63.6,132.1L63.6,132.1
					L63.6,132.1z"/>
				
					<linearGradient id="SVGID_45_" gradientUnits="userSpaceOnUse" x1="204.7258" y1="-13.2821" x2="-10.715" y2="247.1759" gradientTransform="matrix(1 0 0 1 0 3.6)">
					<stop  offset="0" style="stop-color:#00274D"/>
					<stop  offset="1" style="stop-color:#00274D;stop-opacity:0"/>
				</linearGradient>
				<path class="st44" d="M65.9,172.8v2.5H54.5v-2.5h3.8v-16.5l-3.5,1.9l-1.3-2.2l6.3-3.4h2.5v20.2H65.9L65.9,172.8L65.9,172.8z"/>
				
					<linearGradient id="SVGID_46_" gradientUnits="userSpaceOnUse" x1="220.1761" y1="-2.3473" x2="3.8278" y2="259.208" gradientTransform="matrix(1 0 0 1 0 3.6)">
					<stop  offset="0" style="stop-color:#00274D"/>
					<stop  offset="1" style="stop-color:#00274D;stop-opacity:0"/>
				</linearGradient>
				<path class="st45" d="M59.3,207.4c-5.5,0.1-8.3-3.8-8.4-11.6c0.1-7.8,2.9-11.7,8.4-11.7s8.3,3.8,8.4,11.7
					C67.5,203.6,64.7,207.5,59.3,207.4z M63.6,195.8c0-3-0.2-5.2-0.9-6.7c-0.6-1.5-1.8-2.3-3.4-2.3c-1.6,0-2.8,0.8-3.4,2.3
					c-0.6,1.5-0.9,3.8-0.9,6.7s0.3,5.2,0.9,6.7c0.6,1.5,1.8,2.2,3.4,2.2c1.7,0,2.8-0.7,3.4-2.2S63.6,198.8,63.6,195.8L63.6,195.8
					L63.6,195.8z"/>
				
					<linearGradient id="SVGID_47_" gradientUnits="userSpaceOnUse" x1="236.4337" y1="12.0843" x2="20.993" y2="272.5424" gradientTransform="matrix(1 0 0 1 0 3.6)">
					<stop  offset="0" style="stop-color:#00274D"/>
					<stop  offset="1" style="stop-color:#00274D;stop-opacity:0"/>
				</linearGradient>
				<path class="st46" d="M65.9,236.5v2.5H54.5v-2.5h3.8V220l-3.5,1.9l-1.3-2.2l6.3-3.4h2.5v20.2H65.9L65.9,236.5L65.9,236.5z"/>
				
					<linearGradient id="SVGID_48_" gradientUnits="userSpaceOnUse" x1="252.057" y1="22.89" x2="35.7088" y2="284.4454" gradientTransform="matrix(1 0 0 1 0 3.6)">
					<stop  offset="0" style="stop-color:#00274D"/>
					<stop  offset="1" style="stop-color:#00274D;stop-opacity:0"/>
				</linearGradient>
				<path class="st47" d="M59.3,271.2c-5.5,0.1-8.3-3.8-8.4-11.6c0.1-7.8,2.9-11.7,8.4-11.7s8.3,3.8,8.4,11.7
					C67.5,267.4,64.7,271.2,59.3,271.2z M63.6,259.6c0-3-0.2-5.2-0.9-6.7c-0.6-1.5-1.8-2.3-3.4-2.3c-1.6,0-2.8,0.8-3.4,2.3
					c-0.6,1.5-0.9,3.8-0.9,6.7s0.3,5.2,0.9,6.7c0.6,1.5,1.8,2.2,3.4,2.2c1.7,0,2.8-0.7,3.4-2.2C63.3,264.7,63.6,262.5,63.6,259.6
					L63.6,259.6L63.6,259.6z"/>
				
					<linearGradient id="SVGID_49_" gradientUnits="userSpaceOnUse" x1="268.1909" y1="37.4912" x2="52.7502" y2="297.9494" gradientTransform="matrix(1 0 0 1 0 3.6)">
					<stop  offset="0" style="stop-color:#00274D"/>
					<stop  offset="1" style="stop-color:#00274D;stop-opacity:0"/>
				</linearGradient>
				<path class="st48" d="M65.9,300.3v2.5H54.5v-2.5h3.8v-16.5l-3.5,1.9l-1.3-2.2l6.3-3.4h2.5v20.2H65.9L65.9,300.3L65.9,300.3z"/>
			</g>
			<g>
				
					<linearGradient id="SVGID_50_" gradientUnits="userSpaceOnUse" x1="202.54" y1="-16.6532" x2="-13.8083" y2="244.9022" gradientTransform="matrix(1 0 0 1 0 3.6)">
					<stop  offset="0" style="stop-color:#00274D"/>
					<stop  offset="1" style="stop-color:#00274D;stop-opacity:0"/>
				</linearGradient>
				<path class="st49" d="M82.5,143.7c-5.5,0.1-8.3-3.8-8.4-11.6c0.1-7.8,2.9-11.7,8.4-11.7s8.3,3.8,8.4,11.7
					C90.8,139.9,88,143.7,82.5,143.7z M86.8,132.1c0-3-0.2-5.2-0.9-6.7c-0.6-1.5-1.8-2.3-3.4-2.3s-2.8,0.8-3.4,2.3s-0.9,3.8-0.9,6.7
					s0.3,5.2,0.9,6.7s1.8,2.2,3.4,2.2c1.7,0,2.8-0.7,3.4-2.2C86.6,137.3,86.9,135,86.8,132.1L86.8,132.1L86.8,132.1z"/>
				
					<linearGradient id="SVGID_51_" gradientUnits="userSpaceOnUse" x1="218.9569" y1="-2.4392" x2="3.5161" y2="258.0188" gradientTransform="matrix(1 0 0 1 0 3.6)">
					<stop  offset="0" style="stop-color:#00274D"/>
					<stop  offset="1" style="stop-color:#00274D;stop-opacity:0"/>
				</linearGradient>
				<path class="st50" d="M89.1,172.8v2.5H77.7v-2.5h3.8v-16.5l-3.5,1.9l-1.3-2.2l6.3-3.4h2.5v20.2H89.1L89.1,172.8L89.1,172.8z"/>
				
					<linearGradient id="SVGID_52_" gradientUnits="userSpaceOnUse" x1="234.3915" y1="8.5597" x2="18.0432" y2="270.1151" gradientTransform="matrix(1 0 0 1 0 3.6)">
					<stop  offset="0" style="stop-color:#00274D"/>
					<stop  offset="1" style="stop-color:#00274D;stop-opacity:0"/>
				</linearGradient>
				<path class="st51" d="M82.5,207.4c-5.5,0.1-8.3-3.8-8.4-11.6c0.1-7.8,2.9-11.7,8.4-11.7s8.3,3.8,8.4,11.7
					C90.8,203.6,88,207.5,82.5,207.4z M86.8,195.8c0-3-0.2-5.2-0.9-6.7c-0.6-1.5-1.8-2.3-3.4-2.3s-2.8,0.8-3.4,2.3s-0.9,3.8-0.9,6.7
					s0.3,5.2,0.9,6.7s1.8,2.2,3.4,2.2c1.7,0,2.8-0.7,3.4-2.2C86.6,201,86.9,198.8,86.8,195.8L86.8,195.8L86.8,195.8z"/>
				
					<linearGradient id="SVGID_53_" gradientUnits="userSpaceOnUse" x1="250.6649" y1="22.9272" x2="35.2242" y2="283.3852" gradientTransform="matrix(1 0 0 1 0 3.6)">
					<stop  offset="0" style="stop-color:#00274D"/>
					<stop  offset="1" style="stop-color:#00274D;stop-opacity:0"/>
				</linearGradient>
				<path class="st52" d="M89.1,236.5v2.5H77.7v-2.5h3.8V220l-3.5,1.9l-1.3-2.2l6.3-3.4h2.5v20.2H89.1L89.1,236.5L89.1,236.5z"/>
				
					<linearGradient id="SVGID_54_" gradientUnits="userSpaceOnUse" x1="266.2726" y1="33.7973" x2="49.9243" y2="295.3524" gradientTransform="matrix(1 0 0 1 0 3.6)">
					<stop  offset="0" style="stop-color:#00274D"/>
					<stop  offset="1" style="stop-color:#00274D;stop-opacity:0"/>
				</linearGradient>
				<path class="st53" d="M82.5,271.2c-5.5,0.1-8.3-3.8-8.4-11.6c0.1-7.8,2.9-11.7,8.4-11.7s8.3,3.8,8.4,11.7
					C90.8,267.4,88,271.2,82.5,271.2z M86.8,259.6c0-3-0.2-5.2-0.9-6.7c-0.6-1.5-1.8-2.3-3.4-2.3s-2.8,0.8-3.4,2.3s-0.9,3.8-0.9,6.7
					s0.3,5.2,0.9,6.7s1.8,2.2,3.4,2.2c1.7,0,2.8-0.7,3.4-2.2C86.6,264.7,86.9,262.5,86.8,259.6L86.8,259.6L86.8,259.6z"/>
				
					<linearGradient id="SVGID_55_" gradientUnits="userSpaceOnUse" x1="282.4221" y1="48.3343" x2="66.9813" y2="308.7923" gradientTransform="matrix(1 0 0 1 0 3.6)">
					<stop  offset="0" style="stop-color:#00274D"/>
					<stop  offset="1" style="stop-color:#00274D;stop-opacity:0"/>
				</linearGradient>
				<path class="st54" d="M89.1,300.3v2.5H77.7v-2.5h3.8v-16.5l-3.5,1.9l-1.3-2.2l6.3-3.4h2.5v20.2H89.1L89.1,300.3L89.1,300.3z"/>
			</g>
			<g>
				
					<linearGradient id="SVGID_56_" gradientUnits="userSpaceOnUse" x1="233.2474" y1="8.4528" x2="17.8067" y2="268.9109" gradientTransform="matrix(1 0 0 1 0 3.6)">
					<stop  offset="0" style="stop-color:#00274D"/>
					<stop  offset="1" style="stop-color:#00274D;stop-opacity:0"/>
				</linearGradient>
				<path class="st55" d="M112.4,172.8v2.5H101v-2.5h3.8v-16.5l-3.5,1.9L100,156l6.3-3.4h2.5v20.2H112.4L112.4,172.8L112.4,172.8z"
					/>
				
					<linearGradient id="SVGID_57_" gradientUnits="userSpaceOnUse" x1="248.6338" y1="19.489" x2="32.2856" y2="281.0444" gradientTransform="matrix(1 0 0 1 0 3.6)">
					<stop  offset="0" style="stop-color:#00274D"/>
					<stop  offset="1" style="stop-color:#00274D;stop-opacity:0"/>
				</linearGradient>
				<path class="st56" d="M105.8,207.4c-5.5,0.1-8.3-3.8-8.4-11.6c0.1-7.8,2.9-11.7,8.4-11.7s8.3,3.8,8.4,11.7
					C114,203.6,111.3,207.5,105.8,207.4z M110.1,195.8c0-3-0.2-5.2-0.9-6.7c-0.6-1.5-1.8-2.3-3.4-2.3s-2.8,0.8-3.4,2.3
					s-0.9,3.8-0.9,6.7s0.3,5.2,0.9,6.7s1.8,2.2,3.4,2.2c1.7,0,2.8-0.7,3.4-2.2C109.9,201,110.2,198.8,110.1,195.8L110.1,195.8
					L110.1,195.8z"/>
				
					<linearGradient id="SVGID_58_" gradientUnits="userSpaceOnUse" x1="264.5792" y1="32.1118" x2="48.2309" y2="293.6672" gradientTransform="matrix(1 0 0 1 0 3.6)">
					<stop  offset="0" style="stop-color:#00274D"/>
					<stop  offset="1" style="stop-color:#00274D;stop-opacity:0"/>
				</linearGradient>
				<path class="st57" d="M105.8,239.3c-5.5,0.1-8.3-3.8-8.4-11.6c0.1-7.8,2.9-11.7,8.4-11.7s8.3,3.8,8.4,11.7
					C114,235.5,111.3,239.4,105.8,239.3z M110.1,227.7c0-3-0.2-5.2-0.9-6.7c-0.6-1.5-1.8-2.3-3.4-2.3s-2.8,0.8-3.4,2.3
					s-0.9,3.8-0.9,6.7s0.3,5.2,0.9,6.7s1.8,2.2,3.4,2.2c1.7,0,2.8-0.7,3.4-2.2C109.9,232.9,110.2,230.6,110.1,227.7L110.1,227.7
					L110.1,227.7z"/>
				
					<linearGradient id="SVGID_59_" gradientUnits="userSpaceOnUse" x1="280.5097" y1="44.7326" x2="64.1614" y2="306.288" gradientTransform="matrix(1 0 0 1 0 3.6)">
					<stop  offset="0" style="stop-color:#00274D"/>
					<stop  offset="1" style="stop-color:#00274D;stop-opacity:0"/>
				</linearGradient>
				<path class="st58" d="M105.8,271.2c-5.5,0.1-8.3-3.8-8.4-11.6c0.1-7.8,2.9-11.7,8.4-11.7s8.3,3.8,8.4,11.7
					C114,267.4,111.3,271.2,105.8,271.2z M110.1,259.6c0-3-0.2-5.2-0.9-6.7c-0.6-1.5-1.8-2.3-3.4-2.3s-2.8,0.8-3.4,2.3
					s-0.9,3.8-0.9,6.7s0.3,5.2,0.9,6.7s1.8,2.2,3.4,2.2c1.7,0,2.8-0.7,3.4-2.2C109.9,264.7,110.2,262.5,110.1,259.6L110.1,259.6
					L110.1,259.6z"/>
				
					<linearGradient id="SVGID_60_" gradientUnits="userSpaceOnUse" x1="296.7125" y1="59.2261" x2="81.2719" y2="319.6843" gradientTransform="matrix(1 0 0 1 0 3.6)">
					<stop  offset="0" style="stop-color:#00274D"/>
					<stop  offset="1" style="stop-color:#00274D;stop-opacity:0"/>
				</linearGradient>
				<path class="st59" d="M112.4,300.3v2.5H101v-2.5h3.8v-16.5l-3.5,1.9l-1.3-2.2l6.3-3.4h2.5v20.2H112.4L112.4,300.3L112.4,300.3z"
					/>
			</g>
			<g>
				
					<linearGradient id="SVGID_61_" gradientUnits="userSpaceOnUse" x1="263.3868" y1="32.0237" x2="47.9462" y2="292.4818" gradientTransform="matrix(1 0 0 1 0 3.6)">
					<stop  offset="0" style="stop-color:#00274D"/>
					<stop  offset="1" style="stop-color:#00274D;stop-opacity:0"/>
				</linearGradient>
				<path class="st60" d="M135.7,204.7v2.5h-11.5v-2.5h3.8v-16.5l-3.5,1.9l-1.3-2.2l6.3-3.4h2.5v20.2H135.7L135.7,204.7L135.7,204.7
					z"/>
				
					<linearGradient id="SVGID_62_" gradientUnits="userSpaceOnUse" x1="278.8199" y1="43.0401" x2="62.4718" y2="304.595" gradientTransform="matrix(1 0 0 1 0 3.6)">
					<stop  offset="0" style="stop-color:#00274D"/>
					<stop  offset="1" style="stop-color:#00274D;stop-opacity:0"/>
				</linearGradient>
				<path class="st61" d="M129.1,239.3c-5.5,0.1-8.3-3.8-8.4-11.6c0.1-7.8,2.9-11.7,8.4-11.7s8.3,3.8,8.4,11.7
					C137.3,235.5,134.5,239.4,129.1,239.3z M133.4,227.7c0-3-0.2-5.2-0.9-6.7c-0.6-1.5-1.8-2.3-3.4-2.3c-1.6,0-2.8,0.8-3.4,2.3
					s-0.9,3.8-0.9,6.7s0.3,5.2,0.9,6.7s1.8,2.2,3.4,2.2c1.7,0,2.8-0.7,3.4-2.2S133.4,230.6,133.4,227.7L133.4,227.7L133.4,227.7z"/>
				
					<linearGradient id="SVGID_63_" gradientUnits="userSpaceOnUse" x1="294.7553" y1="55.6548" x2="78.4075" y2="317.2097" gradientTransform="matrix(1 0 0 1 0 3.6)">
					<stop  offset="0" style="stop-color:#00274D"/>
					<stop  offset="1" style="stop-color:#00274D;stop-opacity:0"/>
				</linearGradient>
				<path class="st62" d="M129.1,271.2c-5.5,0.1-8.3-3.8-8.4-11.6c0.1-7.8,2.9-11.7,8.4-11.7s8.3,3.8,8.4,11.7
					C137.3,267.4,134.5,271.2,129.1,271.2z M133.4,259.6c0-3-0.2-5.2-0.9-6.7c-0.6-1.5-1.8-2.3-3.4-2.3c-1.6,0-2.8,0.8-3.4,2.3
					s-0.9,3.8-0.9,6.7s0.3,5.2,0.9,6.7s1.8,2.2,3.4,2.2c1.7,0,2.8-0.7,3.4-2.2C133.1,264.7,133.4,262.5,133.4,259.6L133.4,259.6
					L133.4,259.6z"/>
				
					<linearGradient id="SVGID_64_" gradientUnits="userSpaceOnUse" x1="310.9734" y1="70.0937" x2="95.5328" y2="330.5518" gradientTransform="matrix(1 0 0 1 0 3.6)">
					<stop  offset="0" style="stop-color:#00274D"/>
					<stop  offset="1" style="stop-color:#00274D;stop-opacity:0"/>
				</linearGradient>
				<path class="st63" d="M135.7,300.3v2.5h-11.5v-2.5h3.8v-16.5l-3.5,1.9l-1.3-2.2l6.3-3.4h2.5v20.2H135.7L135.7,300.3L135.7,300.3
					z"/>
			</g>
			<g>
				
					<linearGradient id="SVGID_65_" gradientUnits="userSpaceOnUse" x1="293.0354" y1="53.9468" x2="76.6872" y2="315.5022" gradientTransform="matrix(1 0 0 1 0 3.6)">
					<stop  offset="0" style="stop-color:#00274D"/>
					<stop  offset="1" style="stop-color:#00274D;stop-opacity:0"/>
				</linearGradient>
				<path class="st64" d="M152.3,239.3c-5.5,0.1-8.3-3.8-8.4-11.6c0.1-7.8,2.9-11.7,8.4-11.7s8.3,3.8,8.4,11.7
					C160.6,235.5,157.8,239.4,152.3,239.3z M156.6,227.7c0-3-0.2-5.2-0.9-6.7c-0.6-1.5-1.8-2.3-3.4-2.3c-1.6,0-2.8,0.8-3.4,2.3
					s-0.9,3.8-0.9,6.7s0.3,5.2,0.9,6.7s1.8,2.2,3.4,2.2c1.7,0,2.8-0.7,3.4-2.2C156.4,232.9,156.7,230.6,156.6,227.7L156.6,227.7
					L156.6,227.7z"/>
				
					<linearGradient id="SVGID_66_" gradientUnits="userSpaceOnUse" x1="309.3557" y1="68.2576" x2="93.915" y2="328.7158" gradientTransform="matrix(1 0 0 1 0 3.6)">
					<stop  offset="0" style="stop-color:#00274D"/>
					<stop  offset="1" style="stop-color:#00274D;stop-opacity:0"/>
				</linearGradient>
				<path class="st65" d="M158.9,268.4v2.5h-11.4v-2.5h3.8v-16.5l-3.5,1.9l-1.3-2.2l6.3-3.4h2.5v20.2H158.9L158.9,268.4L158.9,268.4
					z"/>
				
					<linearGradient id="SVGID_67_" gradientUnits="userSpaceOnUse" x1="324.8772" y1="79.1517" x2="108.5289" y2="340.707" gradientTransform="matrix(1 0 0 1 0 3.6)">
					<stop  offset="0" style="stop-color:#00274D"/>
					<stop  offset="1" style="stop-color:#00274D;stop-opacity:0"/>
				</linearGradient>
				<path class="st66" d="M152.3,303c-5.5,0.1-8.3-3.8-8.4-11.6c0.1-7.8,2.9-11.7,8.4-11.7s8.3,3.8,8.4,11.7
					C160.6,299.2,157.8,303.1,152.3,303z M156.6,291.4c0-3-0.2-5.2-0.9-6.7c-0.6-1.5-1.8-2.3-3.4-2.3c-1.6,0-2.8,0.8-3.4,2.3
					s-0.9,3.8-0.9,6.7c0,2.9,0.3,5.2,0.9,6.7s1.8,2.2,3.4,2.2c1.7,0,2.8-0.7,3.4-2.2C156.4,296.6,156.7,294.4,156.6,291.4
					L156.6,291.4L156.6,291.4z"/>
			</g>
			<g>
				
					<linearGradient id="SVGID_68_" gradientUnits="userSpaceOnUse" x1="339.1077" y1="90.0711" x2="122.7594" y2="351.6265" gradientTransform="matrix(1 0 0 1 0 3.6)">
					<stop  offset="0" style="stop-color:#00274D"/>
					<stop  offset="1" style="stop-color:#00274D;stop-opacity:0"/>
				</linearGradient>
				<path class="st67" d="M175.6,303c-5.5,0.1-8.3-3.8-8.4-11.6c0.1-7.8,2.9-11.7,8.4-11.7s8.3,3.8,8.4,11.7
					C183.8,299.2,181,303.1,175.6,303z M179.9,291.4c0-3-0.2-5.2-0.9-6.7c-0.6-1.5-1.8-2.3-3.4-2.3c-1.6,0-2.8,0.8-3.4,2.3
					s-0.9,3.8-0.9,6.7c0,2.9,0.3,5.2,0.9,6.7c0.6,1.5,1.8,2.2,3.4,2.2c1.7,0,2.8-0.7,3.4-2.2C179.7,296.6,180,294.4,179.9,291.4
					L179.9,291.4L179.9,291.4z"/>
			</g>
		</g>
	</g>
</g>
<linearGradient id="SVGID_69_" gradientUnits="userSpaceOnUse" x1="-122.8018" y1="126.2571" x2="-101.048" y2="365.5471" gradientTransform="matrix(1 0 0 1 0 3.6)">
	<stop  offset="0" style="stop-color:#00274D"/>
	<stop  offset="0.5699" style="stop-color:#00274D"/>
	<stop  offset="0.6885" style="stop-color:#002B52;stop-opacity:0.7303"/>
	<stop  offset="0.8219" style="stop-color:#00355F;stop-opacity:0.4269"/>
	<stop  offset="0.962" style="stop-color:#004676;stop-opacity:0.1083"/>
	<stop  offset="1" style="stop-color:#004C7D;stop-opacity:2.192997e-002"/>
</linearGradient>
<path class="st68" d="M-97.2,245.8c-1.1,11.8-7.4,22.9-13.2,33.8c-5.8,10.9-11.2,22.4-10.3,34.3c1,13.5,10.1,25.6,17.5,37.8
	C-75.9,397-71.1,451-90.1,499.1c-1.1,2.8-3,6.1-6.6,6.5c-4.6,0.5-7.5-3.9-8.8-7.5c-10.4-29.7-8.6-62.1,5-90.9
	c5.7-11.9,13.3-23.4,16.4-35.9c3.7-15.2,0.5-31-5.6-45.6s-15-28.4-22.9-42.4c-5.1-9-9.9-19.1-6.6-28.6c2.5-7.3,9.4-13.1,13.2-20
	c8.3-15,1.4-32.4-5.5-47.9c4.4,9.7-5.2,20.7,1.8,30.5C-102.7,227.1-96.1,233.5-97.2,245.8z"/>
<linearGradient id="SVGID_70_" gradientUnits="userSpaceOnUse" x1="-81.4393" y1="520.894" x2="-73.4401" y2="176.9318" gradientTransform="matrix(1 0 0 1 0 3.6)">
	<stop  offset="0" style="stop-color:#004E7F;stop-opacity:0"/>
	<stop  offset="0.2917" style="stop-color:#004B7B;stop-opacity:0.2917"/>
	<stop  offset="0.5662" style="stop-color:#004270;stop-opacity:0.5662"/>
	<stop  offset="0.833" style="stop-color:#00335D;stop-opacity:0.833"/>
	<stop  offset="1" style="stop-color:#00274D"/>
</linearGradient>
<path class="st69" d="M-89.3,442.1c7-23.9,16.3-47.7,15.5-72.3c-1.1-30.5-17.8-60.6-11.1-90.6c3.4-15.1,12.5-29.1,14.7-44.4
	c2-13.9-1.9-27.8-3.9-41.7c-4.1-28.1-0.7-56.6,2.7-84.8c13,23.5,11.9,52.3-2.9,75.1c-4,6.2-9,12.1-10.4,19
	c-2.8,13.5,8.4,25.8,13.1,38.9c9.1,24.9-5.6,50.9-13.5,76.1c-8.4,26.8-9.1,55.4-2,82.5c8.9,34,29.9,67.9,20.5,101.7
	c-5.4,19.5-25.1,17.3-28.7-1C-99.1,481.2-94.8,461-89.3,442.1z"/>
<g>
	
		<radialGradient id="SVGID_71_" cx="97.3128" cy="278.6343" r="180.7042" gradientTransform="matrix(1.059 0.1049 -0.1117 0.9945 122.9319 111.3066)" gradientUnits="userSpaceOnUse">
		<stop  offset="0" style="stop-color:#FFDD00"/>
		<stop  offset="0.173" style="stop-color:#FAD800"/>
		<stop  offset="0.3677" style="stop-color:#EDCB01"/>
		<stop  offset="0.5729" style="stop-color:#D6B503"/>
		<stop  offset="0.7853" style="stop-color:#B79505"/>
		<stop  offset="1" style="stop-color:#8F6E07"/>
	</radialGradient>
	<path class="st70" d="M238.5,523.3c0.1-3.9-5.2-4.3-3.9-9.2c15.3-8.1-21.1-28.3-25.3-37.5c-5.4-16.8,4.1-33.6,3.7-50.5
		c-0.2-3.6-9.5-6.1-11.1-11.3c-3.9-13.7-5.1-27.9-9.4-41.5c-10-25.3-24.3-53.5-53.3-60.5c-29.7-6.8-69.6-3.4-99.2,2.8
		c18.4,3.8,38.5-0.8,56.4,5.3c27.3,10.1-12.5,44-21.9,49.5c-11.4,7.1-22.7,18.9-37.2,13.6c-16.6-6.7-23.1-25.8-40.3-32.2
		c-0.1,13,12.2,22.8,9.2,35.9c-4.9,10.6-19.4,17.8-21.7,29.1c16.5-3.9,35-14.5,52.2-9.3c-5.3,9.4-3.1,21.7-4.9,32.2
		c-5.4,9.9-17.4,15.8-20.8,26.6c0.1,10.8,18,9.2,25.2,11.1c22.8,6,41.7,17.9,59.2,33.4c-6.5-3.4-17.2-2.4-17.2-0.6
		c15,19.3,51,46.3,76.7,41.5c16.8-4.2,25.3-22.5,42.9-25.6C207.5,528.9,233.6,535.6,238.5,523.3
		C238.6,521.9,239.1,525.8,238.5,523.3z"/>
</g>
<g>
	<g>
		<g>
			<defs>
				<path id="SVGID_72_" d="M197.8,362.5c0,108.6-93.7,154.8-209.4,154.8S-221,471.1-221,362.5S-127.3,52.9-11.6,52.9
					S197.8,253.9,197.8,362.5z"/>
			</defs>
			<clipPath id="SVGID_73_">
				<use xlink:href="#SVGID_72_"  style="overflow:visible;"/>
			</clipPath>
			
				<linearGradient id="SVGID_74_" gradientUnits="userSpaceOnUse" x1="-133.6155" y1="82.7712" x2="-140.6667" y2="416.994" gradientTransform="matrix(1 0 0 1 0 3.6)">
				<stop  offset="0" style="stop-color:#00274D"/>
				<stop  offset="0.2697" style="stop-color:#002B52;stop-opacity:0.7303"/>
				<stop  offset="0.573" style="stop-color:#00355F;stop-opacity:0.427"/>
				<stop  offset="0.8914" style="stop-color:#004776;stop-opacity:0.1086"/>
				<stop  offset="1" style="stop-color:#004E7F;stop-opacity:0"/>
			</linearGradient>
			<path class="st71" d="M-144.1,533.6c-20.9-25.2-20.7-54.8-15-82.7s16.4-55.7,15.2-83.8c-0.9-19.8-7.8-39.6-6.5-59.4
				c1.2-18.8,9.7-37.1,12.7-55.8c6.1-38.3-10.8-77.9,7.1-114.8c17.4,17.6,14.8,39.7,8.3,59.7c-6.6,20.1-16.6,40.3-12.6,60.6
				c3.1,15.9,14.7,32.2,5.7,47.3c-4.8,8.1-15.2,14.8-18.8,23.1c-8.3,19.5,23.2,37.4,24.8,57.5c1.3,16-16.5,30.3-20.5,46.2
				c-4.7,18.8,10.2,37.1,18,55.6c7.8,18.4,5,41.9-22.6,51.2"/>
		</g>
	</g>
	<g>
		<g>
			<defs>
				<path id="SVGID_75_" d="M197.8,362.5c0,108.6-93.7,154.8-209.4,154.8S-221,471.1-221,362.5S-127.3,52.9-11.6,52.9
					S197.8,253.9,197.8,362.5z"/>
			</defs>
			<clipPath id="SVGID_76_">
				<use xlink:href="#SVGID_75_"  style="overflow:visible;"/>
			</clipPath>
			<g class="st72">
				
					<radialGradient id="SVGID_77_" cx="-2043.3138" cy="-184.2437" r="108.6005" fx="-2126.0344" fy="-174.3889" gradientTransform="matrix(-0.7287 0.7293 -0.9858 -0.8686 -1796.1028 1628.4519)" gradientUnits="userSpaceOnUse">
					<stop  offset="0" style="stop-color:#00C962"/>
					<stop  offset="0.3423" style="stop-color:#00C761"/>
					<stop  offset="0.5265" style="stop-color:#00BF5F"/>
					<stop  offset="0.673" style="stop-color:#00B15A"/>
					<stop  offset="0.7997" style="stop-color:#009E54"/>
					<stop  offset="0.9125" style="stop-color:#00854C"/>
					<stop  offset="1" style="stop-color:#006C44"/>
				</radialGradient>
				<path class="st73" d="M-102.4,391.4c0.5-1.8-1.7-3-0.6-5c10.1-1-7.5-13.3-8.4-19.3c-1.3-8.3,5.6-13.9,6.1-20.5
					c0.2-1.5-4.6-3.1-5-5.4c-1.2-5.7-0.5-12.2-2-17.9c-3.7-14.4-12-27.8-23.8-36.9c-14.9-11-37.4-23.9-56.6-20.7
					c11.5,2.8,24.1,6,33,14.2c11.1,12.5-6.5,23.9-16.5,27.9c-9.6,4.1-13.6,10.7-21.8,6c-8.9-6.4-11.7-18.3-22.6-22.4
					c-0.8,7.8,7.9,15.4,5.3,23.4c-2.3,6.8-12.2,13.8-11.3,17c1.4,1.2,21.1-6.3,27.1-2.3c-2.5,1.5-3,17.9-4.1,20.7
					c-1.9,5.3-10.8,12.4-11.1,17.1c-0.6,6.8,4.6,4.5,11.8,5.1c9.7,0.4,21.5,3.1,29.7,8.5c-3.3-0.7-9.1,1.2-9.2,2.1
					c9.8,7.2,26.5,11.9,38.5,10.8c8.5-1.4,14.3-8.4,23-7.7C-120.4,386.5-102.7,396-102.4,391.4
					C-102.2,390.8-102.4,392.7-102.4,391.4z"/>
			</g>
		</g>
	</g>
</g>
<g>
	
		<radialGradient id="SVGID_78_" cx="-140.5756" cy="50.3967" r="72.9849" gradientTransform="matrix(1.0365 0.2296 -0.2445 0.9733 139.9254 270.5763)" gradientUnits="userSpaceOnUse">
		<stop  offset="2.688172e-002" style="stop-color:#D9272B"/>
		<stop  offset="0.1566" style="stop-color:#CB2529"/>
		<stop  offset="0.4009" style="stop-color:#A71F22"/>
		<stop  offset="0.7308" style="stop-color:#6D1617"/>
		<stop  offset="1" style="stop-color:#380E0E"/>
	</radialGradient>
	<path class="st74" d="M7.8,333.3c0.1-1.7-1.5-2.1-1-4.1c6.6-3.6-6.7-8.3-8-12.4c-2-5.7,2.1-11.7,1.6-16.8c-0.1-1.2-3.6-0.8-4.2-2.4
		c-1.6-3.9-2-10.2-3.8-15.1c-4.2-11.9-11.6-23.6-21.9-31.2c-12.9-8.5-29-7.2-42.1,0c8.1-2.3,18.9-5,24.8-1.3
		c9.4,5.8,0.6,16.4-6.9,20.1c-5.8,3.4-7.5,7.1-13.7,5.9c-6.9-1.3-10.3-7.4-18.8-3.5c0.8,4.1,7.8,3.8,7.4,8.9
		c-0.4,4.3-5.9,14-4.7,15.4c1.1,0,12.9-12.3,17.6-10.3c-1.4,1.5,0.8,13.9,0.5,16.2c-0.4,4.4-5.2,11.1-4.7,14.8
		c0.7,5.3,3.7,3.2,8.5,3.1c7,0,13.5,1,20.8,6.1c-2.3-0.7-5.8,0.9-5.8,1.6c7.3,5.2,18,8.5,26.9,9.2c5.5-0.4,8.4-5,14.3-5.3
		C-4.8,332.4,8.2,337.3,7.8,333.3C7.9,332.7,7.9,334.4,7.8,333.3z"/>
</g>
<linearGradient id="SVGID_79_" gradientUnits="userSpaceOnUse" x1="-1433.2534" y1="-291.85" x2="-1431.692" y2="-274.6747" gradientTransform="matrix(-0.2897 1.1792 -1.2641 -0.3105 -811.5535 2030.9625)">
	<stop  offset="0" style="stop-color:#EDF7F7;stop-opacity:0"/>
	<stop  offset="1" style="stop-color:#EDF7F7"/>
</linearGradient>
<path class="st75" d="M-46.6,418.2c7.2,1.7,11.8,8.2,10.1,14.5c-1.3,4.9-5.9,8.3-11.3,8.8c6.9,0.3,13.1-3.7,14.7-9.8
	c1.8-7-3.2-14.2-11.2-16.1c-8-1.8-15.9,2.3-17.8,9.2C-59.6,419.6-53.1,416.7-46.6,418.2z"/>
<linearGradient id="SVGID_80_" gradientUnits="userSpaceOnUse" x1="-1011.151" y1="-302.6557" x2="-1008.5376" y2="-273.9086" gradientTransform="matrix(0.2545 1.1873 -1.2728 0.2729 -186.1139 1726.4102)">
	<stop  offset="0" style="stop-color:#EDF7F7;stop-opacity:0"/>
	<stop  offset="1" style="stop-color:#EDF7F7"/>
</linearGradient>
<path class="st76" d="M-97.2,437.2c12.2-2.5,24.1,4.2,26.6,15c1.9,8.3-2.4,16.6-10.1,21c10.6-4.3,16.9-14.6,14.6-24.9
	c-2.7-11.9-15.9-19.3-29.5-16.6c-13.4,2.7-22.2,14.4-19.7,26.1C-115.7,448.3-108.2,439.4-97.2,437.2z"/>
<linearGradient id="SVGID_81_" gradientUnits="userSpaceOnUse" x1="-905.2438" y1="-547.9207" x2="-904.5801" y2="-540.6193" gradientTransform="matrix(0.3405 0.9403 -0.9403 0.3405 -248.4318 1402.8816)">
	<stop  offset="0" style="stop-color:#EDF7F7;stop-opacity:0"/>
	<stop  offset="1" style="stop-color:#EDF7F7"/>
</linearGradient>
<path class="st77" d="M-49.3,365.6c2.4-0.6,5.1,0.2,5.9,1.8c0.7,1.2,0.1,2.5-1.3,3.3c2-0.8,2.9-2.4,2.1-3.9c-1-1.7-3.9-2.6-6.6-2
	c-2.6,0.6-4,2.5-3.1,4.2C-52.7,367.5-51.5,366.1-49.3,365.6z"/>
<linearGradient id="SVGID_82_" gradientUnits="userSpaceOnUse" x1="-389.7399" y1="-62.9049" x2="-388.971" y2="-54.447" gradientTransform="matrix(0.8782 0.6238 -0.6852 0.9647 236.5554 692.5876)">
	<stop  offset="0" style="stop-color:#EDF7F7;stop-opacity:0"/>
	<stop  offset="1" style="stop-color:#EDF7F7"/>
</linearGradient>
<path class="st78" d="M-71.8,394.3c1.9-2.7,5.7-3.4,8.3-1.5c2.1,1.5,2.9,4,2.3,6.4c1.2-2.8,0.4-6.2-2.2-8c-3-2.1-7.1-1.3-9.2,1.7
	s-1.5,7.1,1.4,9.2C-73.2,400-73.5,396.7-71.8,394.3z"/>
<linearGradient id="SVGID_83_" gradientUnits="userSpaceOnUse" x1="-1765.04" y1="1094.9419" x2="-1762.454" y2="1123.3873" gradientTransform="matrix(-0.728 0.9718 1.0418 0.7805 -2204.8047 1283.4001)">
	<stop  offset="0" style="stop-color:#004E7F;stop-opacity:0"/>
	<stop  offset="1" style="stop-color:#004E7F"/>
</linearGradient>
<path class="st79" d="M259.1,432.9c-10.1-7.1-24.1-5.7-31.2,3.2c-5.5,6.9-5.2,16.2-0.2,23.3c-7.8-8.2-9-20.1-2.2-28.7
	c7.8-9.8,23.3-11.4,34.5-3.5c11.1,7.8,13.9,22,6.3,31.8C271.1,450.4,268.2,439.3,259.1,432.9z"/>
<linearGradient id="SVGID_84_" gradientUnits="userSpaceOnUse" x1="-2065.0098" y1="1125.1985" x2="-2063.9094" y2="1137.3005" gradientTransform="matrix(-0.7027 0.7115 0.7115 0.7027 -2012.777 1015.6625)">
	<stop  offset="0" style="stop-color:#004E7F;stop-opacity:0"/>
	<stop  offset="1" style="stop-color:#004E7F"/>
</linearGradient>
<path class="st80" d="M250.6,343.2c-3.3-2.5-8-3-10.5-1.2c-1.9,1.4-2,3.8-0.4,5.9c-2.5-2.6-2.7-5.7-0.3-7.4c2.8-2,8-1.4,11.6,1.4
	c3.6,2.7,4.3,6.5,1.6,8.5C254.4,348.4,253.5,345.4,250.6,343.2z"/>
<linearGradient id="SVGID_85_" gradientUnits="userSpaceOnUse" x1="-2024.7548" y1="1019.7249" x2="-2023.4413" y2="1034.1729" gradientTransform="matrix(-0.8012 0.7201 0.791 0.8801 -2167.0886 939.8421)">
	<stop  offset="0" style="stop-color:#004E7F;stop-opacity:0"/>
	<stop  offset="1" style="stop-color:#004E7F"/>
</linearGradient>
<path class="st81" d="M278.2,386.9c-3.8-4.2-10.2-4.7-14.3-1c-3.2,2.8-4,7.3-2.5,11.1c-2.7-4.5-1.9-10.3,2-13.9
	c4.6-4.1,11.7-3.5,15.9,1.1s4,11.6-0.5,15.7C281.8,396.3,281.6,390.7,278.2,386.9z"/>
<linearGradient id="SVGID_86_" gradientUnits="userSpaceOnUse" x1="-1327.3831" y1="-654.0585" x2="-1326.3794" y2="-643.0184" gradientTransform="matrix(4.489659e-011 1 -1 4.489659e-011 -623.7308 1642.7446)">
	<stop  offset="0" style="stop-color:#EDF7F7;stop-opacity:0"/>
	<stop  offset="1" style="stop-color:#EDF7F7"/>
</linearGradient>
<path class="st82" d="M19.5,311.3c3.7,0,6.7,2.7,6.7,5.9c0,2.5-1.8,4.7-4.3,5.5c3.3-0.6,5.8-3.3,5.8-6.4c0-3.6-3.3-6.6-7.4-6.6
	c-4,0-7.3,2.9-7.4,6.5C13.5,313.4,16.2,311.3,19.5,311.3z"/>
<linearGradient id="SVGID_87_" gradientUnits="userSpaceOnUse" x1="-1352.6488" y1="-648.4409" x2="-1352.0327" y2="-641.6642" gradientTransform="matrix(4.489659e-011 1 -1 4.489659e-011 -623.7308 1642.7446)">
	<stop  offset="0" style="stop-color:#EDF7F7;stop-opacity:0"/>
	<stop  offset="1" style="stop-color:#EDF7F7"/>
</linearGradient>
<path class="st83" d="M18,286c2.3,0,4.1,2.4,4.1,5.5c0,2.3-1.1,4.3-2.6,5.1c2-0.6,3.6-3,3.6-5.9c0-3.3-2-6.1-4.5-6.1s-4.5,2.7-4.5,6
	C14.3,288,16,286,18,286z"/>
</svg>
