<?xml version="1.0" encoding="utf-8"?>
<!-- Generator: Adobe Illustrator 22.1.0, SVG Export Plug-In . SVG Version: 6.00 Build 0)  -->
<svg version="1.1" xmlns="http://www.w3.org/2000/svg" xmlns:xlink="http://www.w3.org/1999/xlink" x="0px" y="0px"
	 viewBox="0 0 1023 841" style="enable-background:new 0 0 1023 841;" xml:space="preserve">
<style type="text/css">
	.st0{display:none;}
	.st1{display:inline;fill:#19382B;}
	.st2{fill:url(#SVGID_1_);}
	.st3{fill:url(#SVGID_2_);}
	.st4{fill:url(#SVGID_3_);}
	.st5{fill:url(#SVGID_4_);}
	.st6{fill:url(#SVGID_5_);}
	.st7{fill:#244F3B;}
	.st8{display:inline;}
	.st9{fill:#F2F8F9;}
	.st10{fill:url(#SVGID_6_);}
	.st11{fill:url(#SVGID_7_);}
	.st12{fill:url(#SVGID_8_);}
	.st13{fill:url(#SVGID_9_);}
	.st14{fill:url(#SVGID_10_);}
	.st15{fill:url(#SVGID_11_);}
	.st16{fill:url(#SVGID_12_);}
	.st17{fill:url(#SVGID_13_);}
	.st18{fill:url(#SVGID_14_);}
	.st19{fill:url(#SVGID_15_);}
	.st20{fill:url(#SVGID_16_);}
	.st21{fill:url(#SVGID_17_);}
	.st22{fill:url(#SVGID_18_);}
	.st23{fill:url(#SVGID_19_);}
	.st24{fill:url(#SVGID_20_);}
	.st25{fill:url(#SVGID_21_);}
	.st26{fill:url(#SVGID_22_);}
	.st27{fill:url(#SVGID_23_);}
	.st28{fill:url(#SVGID_24_);}
	.st29{fill:url(#SVGID_25_);}
	.st30{fill:url(#SVGID_26_);}
	.st31{fill:url(#SVGID_27_);}
	.st32{fill:url(#SVGID_28_);}
	.st33{fill:url(#SVGID_29_);}
	.st34{fill:url(#SVGID_30_);}
	.st35{fill:url(#SVGID_31_);}
	.st36{fill:url(#SVGID_32_);}
	.st37{fill:url(#SVGID_33_);}
	.st38{fill:url(#SVGID_34_);}
	.st39{fill:url(#SVGID_35_);}
	.st40{fill:url(#SVGID_36_);}
	.st41{fill:url(#SVGID_37_);}
	.st42{fill:url(#SVGID_38_);}
	.st43{fill:url(#SVGID_39_);}
	.st44{fill:url(#SVGID_40_);}
	.st45{fill:url(#SVGID_41_);}
	.st46{fill:url(#SVGID_42_);}
	.st47{fill:url(#SVGID_43_);}
	.st48{fill:url(#SVGID_44_);}
	.st49{fill:url(#SVGID_45_);}
	.st50{fill:url(#SVGID_46_);}
	.st51{fill:url(#SVGID_47_);}
	.st52{fill:url(#SVGID_48_);}
	.st53{fill:url(#SVGID_49_);}
	.st54{fill:url(#SVGID_50_);}
	.st55{fill:url(#SVGID_51_);}
	.st56{fill:url(#SVGID_52_);}
	.st57{fill:url(#SVGID_53_);}
	.st58{fill:url(#SVGID_54_);}
	.st59{fill:url(#SVGID_55_);}
	.st60{fill:url(#SVGID_56_);}
	.st61{fill:url(#SVGID_57_);}
	.st62{fill:url(#SVGID_58_);}
	.st63{fill:url(#SVGID_59_);}
	.st64{fill:url(#SVGID_60_);}
	.st65{fill:url(#SVGID_61_);}
	.st66{fill:url(#SVGID_62_);}
	.st67{fill:url(#SVGID_63_);}
	.st68{fill:url(#SVGID_64_);}
	.st69{fill:url(#SVGID_65_);}
	.st70{fill:url(#SVGID_66_);}
	.st71{fill:url(#SVGID_67_);}
	.st72{fill:url(#SVGID_68_);}
	.st73{fill:url(#SVGID_69_);}
	.st74{fill:url(#SVGID_70_);}
	.st75{fill:url(#SVGID_71_);}
	.st76{fill:url(#SVGID_72_);}
	.st77{fill:url(#SVGID_73_);}
	.st78{fill:url(#SVGID_74_);}
	.st79{fill:url(#SVGID_75_);}
	.st80{fill:#FFF200;}
	.st81{fill:#705A00;}
	.st82{fill:url(#SVGID_76_);}
	.st83{clip-path:url(#SVGID_78_);}
	.st84{fill:#8EEF8E;}
	.st85{clip-path:url(#SVGID_78_);fill:#043F04;}
	.st86{fill:#FF313C;}
	.st87{fill:#5E1216;}
	.st88{fill:url(#SVGID_79_);}
	.st89{fill:url(#SVGID_80_);}
	.st90{fill:url(#SVGID_81_);}
	.st91{fill:url(#SVGID_82_);}
	.st92{fill:url(#SVGID_83_);}
	.st93{fill:url(#SVGID_84_);}
	.st94{fill:url(#SVGID_85_);}
	.st95{fill:url(#SVGID_86_);}
	.st96{fill:url(#SVGID_87_);}
	.st97{fill:#B79800;}
	.st98{fill:#F2F8F9;fill-opacity:0.72;}
</style>
<g id="Layer_1" class="st0">
	<rect x="-556.8" y="-65.2" class="st1" width="1619.7" height="1187.5"/>
</g>
<g id="Layer_2">
	
		<linearGradient id="SVGID_1_" gradientUnits="userSpaceOnUse" x1="404.2039" y1="793.5305" x2="558.6962" y2="31.5686" gradientTransform="matrix(1.001 -5.853391e-03 -5.853391e-03 1.0336 4.5812 -26.2887)">
		<stop  offset="0" style="stop-color:#19382B;stop-opacity:0"/>
		<stop  offset="4.648837e-02" style="stop-color:#152F24;stop-opacity:8.975476e-03"/>
		<stop  offset="0.1503" style="stop-color:#0F211A;stop-opacity:2.901522e-02"/>
		<stop  offset="0.2804" style="stop-color:#0C1914;stop-opacity:5.413434e-02"/>
		<stop  offset="0.5179" style="stop-color:#0B1712;stop-opacity:0.1"/>
		<stop  offset="0.6804" style="stop-color:#0D1C16;stop-opacity:6.631015e-02"/>
		<stop  offset="0.8737" style="stop-color:#132A21;stop-opacity:2.619433e-02"/>
		<stop  offset="1" style="stop-color:#19382B;stop-opacity:0"/>
	</linearGradient>
	<polygon class="st2" points="482.9,842.8 334.4,817 484.1,-42.2 632.6,-16.3 	"/>
	
		<linearGradient id="SVGID_2_" gradientUnits="userSpaceOnUse" x1="509.5637" y1="752.7192" x2="664.056" y2="-9.2427" gradientTransform="matrix(0.5087 -9.165630e-02 -9.165630e-02 1.0186 318.2542 28.374)">
		<stop  offset="0" style="stop-color:#19382B;stop-opacity:0"/>
		<stop  offset="4.648837e-02" style="stop-color:#152F24;stop-opacity:8.975476e-03"/>
		<stop  offset="0.1503" style="stop-color:#0F211A;stop-opacity:2.901522e-02"/>
		<stop  offset="0.2804" style="stop-color:#0C1914;stop-opacity:5.413434e-02"/>
		<stop  offset="0.5179" style="stop-color:#0B1712;stop-opacity:0.1"/>
		<stop  offset="0.6804" style="stop-color:#0D1C16;stop-opacity:6.631015e-02"/>
		<stop  offset="0.8737" style="stop-color:#132A21;stop-opacity:2.619433e-02"/>
		<stop  offset="1" style="stop-color:#19382B;stop-opacity:0"/>
	</linearGradient>
	<polygon class="st3" points="543.8,792.2 470.7,779.5 620.4,-79.7 693.5,-66.9 	"/>
	
		<linearGradient id="SVGID_3_" gradientUnits="userSpaceOnUse" x1="765.0687" y1="795.5741" x2="919.561" y2="33.6122" gradientTransform="matrix(0.7451 -5.044384e-02 -5.044384e-02 1.0258 245.2431 15.6506)">
		<stop  offset="0" style="stop-color:#19382B;stop-opacity:0"/>
		<stop  offset="4.648837e-02" style="stop-color:#152F24;stop-opacity:8.975476e-03"/>
		<stop  offset="0.1503" style="stop-color:#0F211A;stop-opacity:2.901522e-02"/>
		<stop  offset="0.2804" style="stop-color:#0C1914;stop-opacity:5.413434e-02"/>
		<stop  offset="0.5179" style="stop-color:#0B1712;stop-opacity:0.1"/>
		<stop  offset="0.6804" style="stop-color:#0D1C16;stop-opacity:6.631015e-02"/>
		<stop  offset="0.8737" style="stop-color:#132A21;stop-opacity:2.619433e-02"/>
		<stop  offset="1" style="stop-color:#19382B;stop-opacity:0"/>
	</linearGradient>
	<polygon class="st4" points="831.2,840.6 721.9,821.5 871.6,-37.6 980.9,-18.6 	"/>
	
		<linearGradient id="SVGID_4_" gradientUnits="userSpaceOnUse" x1="889.0629" y1="812.762" x2="1043.5552" y2="50.8001" gradientTransform="matrix(0.7451 -5.044384e-02 -5.044384e-02 1.0258 245.2431 15.6506)">
		<stop  offset="0" style="stop-color:#19382B;stop-opacity:0"/>
		<stop  offset="4.648837e-02" style="stop-color:#152F24;stop-opacity:8.975476e-03"/>
		<stop  offset="0.1503" style="stop-color:#0F211A;stop-opacity:2.901522e-02"/>
		<stop  offset="0.2804" style="stop-color:#0C1914;stop-opacity:5.413434e-02"/>
		<stop  offset="0.5179" style="stop-color:#0B1712;stop-opacity:0.1"/>
		<stop  offset="0.6804" style="stop-color:#0D1C16;stop-opacity:6.631015e-02"/>
		<stop  offset="0.8737" style="stop-color:#132A21;stop-opacity:2.619433e-02"/>
		<stop  offset="1" style="stop-color:#19382B;stop-opacity:0"/>
	</linearGradient>
	<polygon class="st5" points="922.7,852 813.4,832.9 963.1,-26.3 1072.4,-7.2 	"/>
	
		<linearGradient id="SVGID_5_" gradientUnits="userSpaceOnUse" x1="769.5742" y1="671.1743" x2="924.0664" y2="-90.7876" gradientTransform="matrix(0.3791 -9.341655e-02 -9.341654e-02 0.8988 453.0346 188.9333)">
		<stop  offset="0" style="stop-color:#19382B;stop-opacity:0"/>
		<stop  offset="4.648837e-02" style="stop-color:#152F24;stop-opacity:8.975476e-03"/>
		<stop  offset="0.1503" style="stop-color:#0F211A;stop-opacity:2.901522e-02"/>
		<stop  offset="0.2804" style="stop-color:#0C1914;stop-opacity:5.413434e-02"/>
		<stop  offset="0.5179" style="stop-color:#0B1712;stop-opacity:0.1"/>
		<stop  offset="0.6804" style="stop-color:#0D1C16;stop-opacity:6.631015e-02"/>
		<stop  offset="0.8737" style="stop-color:#132A21;stop-opacity:2.619433e-02"/>
		<stop  offset="1" style="stop-color:#19382B;stop-opacity:0"/>
	</linearGradient>
	<polygon class="st6" points="707.1,758 653.3,748.6 785.7,-11.3 839.6,-1.9 	"/>
	<path class="st7" d="M608.8,566.7c-9.7,11.4-11.6,29.8-1.8,41c7.2,8.3,18.9,11.3,30,12c21.5,1.5,43.4-3.5,62.1-14.3
		c7.1-4.1,13.9-9.2,18-16.3c4-7.1,4.7-16.6-0.1-23.3c-4.5-6.1-12.3-8.6-19.7-10.2C670.1,549.6,629.5,542.4,608.8,566.7z"/>
	<path class="st7" d="M745.3,626.9c6.8,7.2,18.2,10,27.4,6.2c8.1-3.3,13.9-11.4,14.7-20.1c1.4-16.2-17.2-33.6-33.7-29.4
		C735.4,588.3,734.1,615.1,745.3,626.9z"/>
	<path class="st7" d="M601.9,292.6c3.9-10.3-0.2-22.5-8.2-30.1c-8-7.5-19.3-10.9-30.3-11.4c-11-0.5-22,1.6-32.8,3.7
		c-6.2,1.2-13.2,2.9-16.3,8.4c-2.9,5.2-1.2,11.9,2.3,16.7c6.7,9.1,18.4,12.8,29.5,15.3C563,298.9,592.3,317.7,601.9,292.6z"/>
	<path class="st7" d="M713.9,676.6c9.7-3.7,17.9-12.3,19.3-22.6c1.4-10.3-5.1-21.6-15.2-24.1c-11.9-2.9-24.7,5.2-36,7.7
		c-8.9,2-19,3.3-21.2,14.3C656,675.5,698.9,682.2,713.9,676.6z"/>
	<path class="st7" d="M879.8,719.3c3.3,0.8,6.8,0.9,10.1,0.4c8.2-1.4,15.8-6.7,19.2-14.3c9.2-20.3-15.7-22.8-29.5-19.1
		C859.1,691.7,855.4,713.1,879.8,719.3z"/>
	<path class="st7" d="M987.9,707.5c-6.9-1.7-14.3,5.4-12.9,12.4c1.4,6.9,11,10.6,16.7,6.3s4.8-14.5-1.5-17.8"/>
	<path class="st7" d="M815.1,682.6c18.3,0.8,19.2-34.1,2.5-36C799.9,644.5,795.8,681.7,815.1,682.6z"/>
	<path class="st7" d="M526.2,554c6.2,3.6,16.1,2.3,19-4.3c2.5-5.5-0.1-15.6-5.7-17.6C523.5,526.7,519.8,550.4,526.2,554z"/>
	<path class="st7" d="M690.4,237.5c-4.5,5.8-5.8,14.6,0.5,18.3c6.2,3.6,14.8-0.4,17.7-6.9c2.5-5.5,1.1-12.8-4-15.9
		C699.5,229.9,693.8,233.2,690.4,237.5z"/>
	<path class="st7" d="M813.8,547.3c-3.2-5.8-12-7.2-17.6-3.6c-5.5,3.7-7.2,12.1-3.3,17.5c3.8,5.4,12.4,6.6,17.6,2.4
		S816.5,552.2,813.8,547.3z"/>
	<path class="st7" d="M576.6,589c-3.6-5.6-12-7.2-17.6-3.6c-5.5,3.7-7.2,12.1-3.3,17.5c3.8,5.4,12.4,6.6,17.6,2.4
		S580,594.3,576.6,589z"/>
	<path class="st7" d="M668.3,364.4c-7.4-7-18.5-11.1-27-5.5c-8.5,5.6-11,18.6-5.1,26.9c5.9,8.3,19.1,10.2,27,3.7s13-10,10.3-17.5
		C672.7,370,669.7,365.8,668.3,364.4z"/>
	<path class="st7" d="M950.3,751.5c5.1,4.9,14.2-5.1,9.8-9.8C955.5,736.6,944.9,746.4,950.3,751.5z"/>
	<path class="st7" d="M953.4,782.3c-2.4-1-5.2,0.1-5.9,2.6c-0.2,0.7-0.2,1.5,0,2.2c0.9,2.6,4.4,3.6,6.9,2.5c0,0,0,0,0.1,0
		c2.9-1.4,2.7-5.7-0.3-6.9L953.4,782.3z"/>
	<path class="st7" d="M998.3,598.2c-6.4-0.5-12.3,6.3-10.2,12.4c2,5.9,10,8.3,15.7,5.6c4.8-2.2,8.1-7.8,6.5-12.8
		C1008.7,598.4,1001.6,598.4,998.3,598.2z"/>
	<path class="st7" d="M997.9,667.4c5.4-5.2,3.9-14.5-3.2-17.1c-0.7-0.2-1.4-0.4-2.1-0.5c-5.8-0.8-11.7,3.9-12.3,9.6
		c-0.6,5.8,4.4,11.5,10.2,11.7C993.2,671.2,995.8,669.4,997.9,667.4z"/>
	<path class="st7" d="M919.5,751.2c3.6-3.4,2.9-9.4-1.6-11.5c-0.6-0.3-1.2-0.4-1.9-0.5c-3.9-0.5-7.9,2.6-8.3,6.5
		c-0.4,3.9,3,7.8,6.9,7.9C916.4,753.7,918.1,752.5,919.5,751.2z"/>
	<path class="st7" d="M661.8,221.6c-3.7-9.5-18.5-11.1-27-5.5c-8.5,5.6-11,18.6-5.1,26.9c5.9,8.3,19.1,10.2,27,3.7
		S664.1,227.6,661.8,221.6z"/>
	<path class="st7" d="M343.1,49.7c-5,5.3-4.6,16,1.7,19.6c6.2,3.6,14.8-0.4,17.7-6.9c2.5-5.5,1.1-12.8-4-15.9
		C353.4,43.5,346.5,46.1,343.1,49.7z"/>
	<path class="st7" d="M342,98.8c-5.7-8.5-18.5-11.1-27-5.5s-10.5,18.2-5.1,26.9c6.3,10.2,17.1,8.6,26.5,4.9
		c5.4-2.1,7.9-8.4,7.9-17.4C344.3,102.6,342,98.8,342,98.8z"/>
	<path class="st7" d="M723.7,529.1c-2.2,3.6-7.4,5-11.1,3c-3.7-2.1-5.3-7.2-3.3-11s7.2-5.8,10.8-3.7
		C723.9,519.6,725.9,525.5,723.7,529.1z"/>
	<path class="st7" d="M858.2,639.7c-7.8,3.6-9.6,14.2-2.9,19.6c0.6,0.5,1.3,1,2.1,1.3c5.9,3,14.1,0.1,16.8-5.9
		c2.8-6-0.5-14.1-6.7-16.4C864.7,637.3,861.2,638.3,858.2,639.7z"/>
	<path class="st7" d="M933.7,652.7c0.2-4.2,4.2-7.9,8.4-7.8c4.2,0.1,8,3.9,8.1,8.1c0.1,4.2-3.6,8.2-7.8,8.4
		c-4.2,0.2-8.3-3.3-8.7-7.5"/>
	<path class="st7" d="M919.1,411.6c-1.8-0.4-3.8,1.3-3.4,3c0.4,1.7,3,2.5,4.5,1.5c1.5-1,1.3-3.5-0.4-4.3"/>
	<path class="st7" d="M909.1,422.2c1.2,1.2,3.4-1.2,2.4-2.4C910.3,418.6,907.8,421,909.1,422.2z"/>
	<path class="st7" d="M909.8,429.6c-0.6-0.2-1.3,0-1.4,0.6c-0.1,0.2-0.1,0.4,0,0.5c0.2,0.6,1.1,0.9,1.7,0.6c0,0,0,0,0,0
		c0.7-0.3,0.7-1.4-0.1-1.7L909.8,429.6z"/>
	<path class="st7" d="M865.9,368.9c-1.5-0.1-3,1.5-2.5,3c0.5,1.4,2.4,2,3.8,1.4c1.1-0.5,2-1.9,1.6-3.1
		C868.4,368.9,866.7,368.9,865.9,368.9z"/>
	<path class="st7" d="M921.8,401.9c1.5-1.3,1-3.5-0.8-4.1c-0.2-0.1-0.4-0.1-0.6-0.1c-1.5-0.2-3.1,0.9-3.3,2.3
		c-0.2,1.4,1.2,2.8,2.7,2.8C920.5,402.8,921.2,402.4,921.8,401.9z"/>
	<path class="st7" d="M917.5,377.3c1.5-1.3,1-3.5-0.8-4.1c-0.2-0.1-0.4-0.1-0.6-0.1c-1.5-0.2-3.1,0.9-3.3,2.3
		c-0.2,1.4,1.2,2.8,2.7,2.8C916.3,378.2,917,377.8,917.5,377.3z"/>
	<path class="st7" d="M901.6,422.1c0.9-0.8,0.7-2.3-0.4-2.8c-0.1-0.1-0.3-0.1-0.4-0.1c-0.9-0.1-1.9,0.6-2,1.6s0.7,1.9,1.7,1.9
		C900.9,422.7,901.3,422.4,901.6,422.1z"/>
	<path class="st7" d="M900.2,443.2c0.1-1,1-1.9,2-1.9c1,0,1.9,0.9,2,2s-0.9,2-1.9,2c-1,0.1-2-0.8-2.1-1.8"/>
	<path class="st7" d="M889.6,319.1c1.7,0.3,3.4-1.4,3-3.1s-2.8-2.4-4.1-1.4c-1.3,1.1-1,3.5,0.5,4.3"/>
	<path class="st7" d="M909.5,386.2c-1.3-1.1-3.4,1.3-2.3,2.5C908.3,389.8,910.8,387.4,909.5,386.2z"/>
	<path class="st7" d="M908,369.8c-1.3-1.1-3.4,1.3-2.3,2.5C906.9,373.4,909.3,370.9,908,369.8z"/>
	<path class="st7" d="M884.4,330.6c0.6,0.2,1.3-0.1,1.4-0.7c0-0.2,0-0.4,0-0.5c-0.2-0.6-1.1-0.8-1.7-0.5c0,0,0,0,0,0
		c-0.7,0.4-0.6,1.4,0.1,1.7L884.4,330.6z"/>
	<path class="st7" d="M869,406c1.5,0.1,2.9-1.6,2.3-3.1c-0.5-1.4-2.5-1.9-3.8-1.2c-1.1,0.6-1.9,2-1.5,3.2
		C866.5,406,868.2,406,869,406z"/>
	<path class="st7" d="M860.7,385.8c-1.3,1.3-0.8,3.5,0.9,4.1c0.2,0.1,0.3,0.1,0.5,0.1c1.4,0.1,2.8-1,2.9-2.4
		c0.1-1.4-1.2-2.7-2.6-2.7C861.8,384.9,861.2,385.4,860.7,385.8z"/>
	<path class="st7" d="M878.5,313.8c-0.8,0.8-0.6,2.3,0.5,2.7c0.1,0.1,0.3,0.1,0.5,0.1c0.9,0.1,1.9-0.7,1.9-1.6
		c0.1-0.9-0.8-1.8-1.7-1.8C879.2,313.2,878.8,313.5,878.5,313.8z"/>
	<path class="st7" d="M913.8,349.4c-0.8,0.8-0.6,2.3,0.5,2.7c0.1,0.1,0.3,0.1,0.5,0.1c0.9,0.1,1.9-0.7,1.9-1.6s-0.8-1.8-1.7-1.8
		C914.5,348.8,914.1,349.1,913.8,349.4z"/>
	<path class="st7" d="M911,407.9c0,1-0.9,1.9-1.9,2c-1,0-2-0.9-2-1.9c-0.1-1,0.8-2,1.8-2.1s2,0.7,2.2,1.7"/>
	<path class="st7" d="M911.1,299.4c1.7,0.4,3.4-1.3,3.1-3s-2.7-2.5-4-1.5s-1.2,3.5,0.4,4.3"/>
	<path class="st7" d="M925.2,273.7c-1.2-1.2-3.4,1.2-2.4,2.4C923.9,277.3,926.5,274.9,925.2,273.7z"/>
	<path class="st7" d="M924.4,266.2c0.6,0.2,1.3,0,1.4-0.6c0.1-0.2,0.1-0.4,0-0.5c-0.2-0.6-1.1-0.9-1.7-0.6c0,0,0,0,0,0
		c-0.7,0.3-0.7,1.4,0.1,1.7L924.4,266.2z"/>
	<path class="st7" d="M884.4,280.3c1.5,0.1,3-1.5,2.5-3c-0.5-1.4-2.4-2-3.8-1.4c-1.1,0.5-2,1.9-1.6,3.1
		C881.9,280.3,883.6,280.2,884.4,280.3z"/>
	<path class="st7" d="M908.7,309.1c-1.3,1.3-0.9,3.5,0.8,4.1c0.2,0.1,0.3,0.1,0.5,0.1c1.4,0.2,2.8-0.9,3-2.3
		c0.1-1.4-1.1-2.8-2.5-2.8C909.9,308.2,909.2,308.6,908.7,309.1z"/>
	<path class="st7" d="M912.6,333.7c-1.3,1.3-0.9,3.5,0.8,4.1c0.2,0.1,0.3,0.1,0.5,0.1c1.4,0.2,2.8-0.9,3-2.3
		c0.1-1.4-1.1-2.8-2.5-2.8C913.7,332.8,913.1,333.2,912.6,333.7z"/>
	<path class="st7" d="M932.6,273.8c-0.9,0.8-0.7,2.3,0.4,2.8c0.1,0.1,0.3,0.1,0.4,0.1c0.9,0.1,1.9-0.6,2-1.6s-0.7-1.9-1.7-1.9
		C933.3,273.2,932.9,273.4,932.6,273.8z"/>
	<path class="st7" d="M934,252.6c-0.1,1-1,1.9-2,1.9s-1.9-0.9-2-2s0.9-2,1.9-2c1-0.1,2,0.8,2.1,1.8"/>
	<path class="st7" d="M880.4,298.3c-1.7-0.3-3.4,1.4-3,3.1c0.4,1.7,2.8,2.4,4.1,1.4c1.3-1.1,1-3.5-0.5-4.3"/>
	<path class="st7" d="M924.8,309.7c1.3,1.1,3.4-1.3,2.3-2.5C925.9,306,923.4,308.5,924.8,309.7z"/>
	<path class="st7" d="M926.2,326.1c1.3,1.1,3.4-1.3,2.3-2.5C927.4,322.5,924.9,324.9,926.2,326.1z"/>
	<path class="st7" d="M885.6,286.8c-0.6-0.2-1.3,0.1-1.4,0.7c0,0.2,0,0.4,0,0.5c0.2,0.6,1.1,0.8,1.7,0.5c0,0,0,0,0,0
		c0.7-0.4,0.6-1.4-0.1-1.7L885.6,286.8z"/>
	<path class="st7" d="M933.4,280.9c-1.5-0.1-2.9,1.6-2.3,3.1c0.5,1.4,2.5,1.9,3.8,1.2c1.1-0.6,1.9-2,1.5-3.2
		S934.2,280.9,933.4,280.9z"/>
	<path class="st7" d="M941.7,301c1.3-1.3,0.8-3.5-0.9-4.1c-0.2-0.1-0.3-0.1-0.5-0.1c-1.4-0.1-2.8,1-2.9,2.4s1.2,2.7,2.6,2.7
		C940.7,302,941.3,301.5,941.7,301z"/>
	<path class="st7" d="M891.5,303.6c0.8-0.8,0.6-2.3-0.5-2.7c-0.1-0.1-0.3-0.1-0.5-0.1c-0.9-0.1-1.9,0.7-1.9,1.6
		c-0.1,0.9,0.8,1.8,1.7,1.8C890.8,304.2,891.2,303.9,891.5,303.6z"/>
	<path class="st7" d="M915.5,361.6c0.8-0.8,0.6-2.3-0.5-2.7c-0.1-0.1-0.3-0.1-0.5-0.1c-0.9-0.1-1.9,0.7-1.9,1.6
		c-0.1,0.9,0.8,1.8,1.7,1.8C914.7,362.2,915.1,361.9,915.5,361.6z"/>
	<path class="st7" d="M923.2,288c0-1,0.9-1.9,1.9-2c1,0,2,0.9,2,1.9s-0.8,2-1.8,2.1c-1,0.1-2-0.7-2.2-1.7"/>
	<path class="st7" d="M445.2,287.6c-13.2-23.1-36.4-39.2-61.1-49c-26.9-10.6-57.3-17.9-85-25.9c-31.8-9.2-74.2,0.2-102.5,15.9
		c-34.2,19-59.5,56-58,95.1c1.4,34.7,23.8,66.5,53.6,84.3c29.8,17.8,66,22.7,100.5,19.1s67.7-15.1,99.8-28.3
		c19.7-8.2,40.2-17.8,52.3-35.4C460.1,341.4,458.5,310.7,445.2,287.6z M411.7,359.8c-8.9,7.7-21.2,10-32.8,12
		c-31.5,5.5-62.9,10.9-94.4,16.4c-14.9,2.6-30.2,5.2-45.1,2.7c-35.3-6-61.2-42.9-58.4-78.6c2.8-35.7,31.3-66.9,65.8-76.6
		c33.9-9.6,67.1,1,96.5,18.1c22.6,13.2,51.8,24.5,68.4,45.1C425.9,316.3,428.8,345.1,411.7,359.8z"/>
	<path class="st7" d="M636.2,151.4c-6-11.6-15.7-20.8-25.7-29.1c-21.6-18-45.5-33.2-70.9-45.2c-26.3-12.3-56-21.3-84.2-14.6
		c-37.9,9-78.9,72.9-39.3,103.6c10.6,8.3,24.3,11.4,37.4,14.3c36.6,8.1,73.2,16.3,109.7,24.4c13.4,3,27.1,6,40.8,4.5
		c13.7-1.5,27.5-8.3,33.9-20.4C643.9,177.4,642.2,163,636.2,151.4z M621.1,164.7c-0.6,8.1-7.4,14.6-14.9,17.4
		c-7.6,2.8-15.9,2.5-24,1.9c-38.3-2.7-109.7-8.6-137.9-38.2c-13.7-14.3-9.9-34.2,5-46.4c20.3-16.8,38.6-2.7,55.8,10.7
		c21,16.2,46.5,26.4,72.9,29c9.3,0.9,18.9,1,27.6,4.5C614.2,147.1,621.8,155.4,621.1,164.7z"/>
	<path class="st7" d="M265.5,117.9c-6.9-10.3-18.2-17-29.7-21.7C186.4,76,125.5,88.4,88,126.3c-7.5,7.5-14.3,16.6-15.4,27.2
		c-1,10.1,5.9,23.6,16.9,24.8c10.4,1.1,24.5-10.3,34.3-13.8c25.6-9.1,53.7-11.2,80.3-5.6c10.9,2.3,21.7,5.9,32.8,6.2
		c11.2,0.4,23.2-3.1,29.8-12.1C274,142.9,272.4,128.3,265.5,117.9z M239.1,146.6c-49.3-3.5-100.6-22.1-138.3,10
		c-2.3,1.9-5.1,3-8.1,2.9c-16.1-0.7,4.9-26.3,8.6-29.9c10.4-10.3,24-17.2,38.1-20.9c22.5-5.8,46.2-4.2,69.3-2
		c7.6,0.7,15.4,1.6,22.5,4.5c7.1,3,11.9,9.2,15.7,15.8C255.3,141.7,246.7,147.2,239.1,146.6z"/>
	<path class="st7" d="M636.5,419.9c-4.6-15.2-21.3-23.3-36.8-26.6c-35.7-7.6-85.4,0.9-111.4,28.8c-30.3,32.4,18.4,65.8,48.9,67.4
		c28.2,1.5,56.8-7.6,78.8-25.2C629.6,453.6,641.4,436.5,636.5,419.9z M624.1,440.3c-2.9,8.5-9.7,15.1-17.1,20.3
		c-26.2,18.4-62.5,21.3-91.3,7.4c-15.3-7.4-28-29-4.6-35.3c10.9-2.9,23.8-1.2,35.1-3.1c12.6-2.1,25-5.6,36.9-10.4
		c11.2-4.5,24.6-10.1,34.5-3.2C625,421.2,627,431.8,624.1,440.3z"/>
	<path class="st7" d="M461.7,540.9c-10.4-12.2-26.1-32.8-41.5-36.9c-20.4-5.5-46.4-5.9-67.3-3.1c-23.5,3.1-47.1,13.8-60.5,33.4
		c-13.4,19.6-13.7,48.9,3.3,65.5c11.3,11.1,27.7,14.9,43.4,17.2c26.2,3.9,52.8,4.8,79.2,2.8c11.5-0.9,23.1-2.4,33.6-7
		s19.9-12.8,23.7-23.7C481.4,572.5,473.1,554.2,461.7,540.9z M416.4,601.5c-13.7,2.6-27.6-2.4-40.7-7.3
		c-14.6-5.5-29.1-10.9-43.7-16.4c-9.2-3.5-19.3-7.6-23.9-16.3C302,550,308.5,535,319,527.4c10.6-7.6,24-9.7,37-11.5
		c27.2-3.7,62.3-1.8,81.8,21.2C456.6,559.2,445.3,595.9,416.4,601.5z"/>
	<path class="st7" d="M803.5,463.5c-6.7-9.1-18.4-12.8-29.5-15.3c-16.9-3.7-46.2-22.5-55.8,2.6c-3.9,10.3,0.2,22.5,8.2,30.1
		c8,7.5,19.3,10.9,30.3,11.4c11,0.5,22-1.6,32.8-3.7c6.2-1.2,13.2-2.9,16.3-8.4C808.7,475,807,468.2,803.5,463.5z M793.3,480.9
		c-2.7,1.3-5.9,0.9-8.9,0.5c-9.1-1.2-18.2-2.4-27.3-3.6c-7.5-1-15.4-2.1-21.4-6.6c-5.9-4.4-9.4-11.8-8.9-19.2c0.2-3.8,1.9-8,5.4-9.4
		c2.6-1,5.5-0.3,8.2,0.4c6,1.6,12,3.2,17.9,4.8c5.4,1.4,10.5,3.4,15.8,4.9c5.3,1.5,10.1,2.7,14.9,5.7c3.9,2.5,7.6,6,8.9,10.5
		S797.6,478.9,793.3,480.9z"/>
</g>
<g id="Layer_3" class="st0">
	<g class="st8">
		<path class="st9" d="M308.1,578.9c0,108.6-93.7,154.8-209.4,154.8s-209.4-46.2-209.4-154.8S-17,269.3,98.7,269.3
			S308.1,470.3,308.1,578.9z"/>
		<linearGradient id="SVGID_6_" gradientUnits="userSpaceOnUse" x1="243.0876" y1="323.3351" x2="-4.9124" y2="720.0018">
			<stop  offset="0" style="stop-color:#B2D7E8"/>
			<stop  offset="0.2513" style="stop-color:#6994A8"/>
			<stop  offset="0.5822" style="stop-color:#6792A6"/>
			<stop  offset="0.7014" style="stop-color:#618BA1"/>
			<stop  offset="0.7864" style="stop-color:#558097"/>
			<stop  offset="0.8551" style="stop-color:#456F89"/>
			<stop  offset="0.9139" style="stop-color:#305976"/>
			<stop  offset="0.9651" style="stop-color:#163E60"/>
			<stop  offset="1" style="stop-color:#00274D"/>
		</linearGradient>
		<path class="st10" d="M312,574.9c0,108.6-93.7,154.8-209.4,154.8s-209.4-46.2-209.4-154.8s93.7-309.6,209.4-309.6
			S312,466.3,312,574.9z"/>
		<g>
			<g>
				<g>
					<g>
						
							<linearGradient id="SVGID_7_" gradientUnits="userSpaceOnUse" x1="208.1243" y1="262.2392" x2="-7.3163" y2="1.7811" gradientTransform="matrix(1 0 0 -1 0 433.5898)">
							<stop  offset="0" style="stop-color:#00274D"/>
							<stop  offset="1" style="stop-color:#00274D;stop-opacity:0"/>
						</linearGradient>
						<path class="st11" d="M-2.9,441.1v2.5h-11.4v-2.5h3.8v-16.5l-3.5,1.9l-1.3-2.2l6.3-3.4h2.5v20.2H-2.9L-2.9,441.1L-2.9,441.1z"
							/>
					</g>
					<g>
						
							<linearGradient id="SVGID_8_" gradientUnits="userSpaceOnUse" x1="206.2799" y1="265.9467" x2="-10.0685" y2="4.3915" gradientTransform="matrix(1 0 0 -1 0 433.5898)">
							<stop  offset="0" style="stop-color:#00274D"/>
							<stop  offset="1" style="stop-color:#00274D;stop-opacity:0"/>
						</linearGradient>
						<path class="st12" d="M13.8,412c-5.5,0.1-8.3-3.8-8.4-11.6c0.1-7.8,2.9-11.7,8.4-11.7s8.3,3.8,8.4,11.7
							C22,408.2,19.2,412,13.8,412z M18.1,400.4c0-3-0.2-5.2-0.9-6.7c-0.6-1.5-1.8-2.3-3.4-2.3s-2.8,0.8-3.4,2.3s-0.9,3.8-0.9,6.7
							s0.3,5.2,0.9,6.7s1.8,2.2,3.4,2.2c1.7,0,2.8-0.7,3.4-2.2S18.1,403.3,18.1,400.4L18.1,400.4L18.1,400.4z"/>
						
							<linearGradient id="SVGID_9_" gradientUnits="userSpaceOnUse" x1="222.4148" y1="251.3473" x2="6.9742" y2="-9.1109" gradientTransform="matrix(1 0 0 -1 0 433.5898)">
							<stop  offset="0" style="stop-color:#00274D"/>
							<stop  offset="1" style="stop-color:#00274D;stop-opacity:0"/>
						</linearGradient>
						<path class="st13" d="M20.4,441.1v2.5H9v-2.5h3.8v-16.5l-3.5,1.9L8,424.3l6.3-3.4h2.5v20.2H20.4L20.4,441.1L20.4,441.1z"/>
						
							<linearGradient id="SVGID_10_" gradientUnits="userSpaceOnUse" x1="238.1312" y1="240.7339" x2="21.7829" y2="-20.8215" gradientTransform="matrix(1 0 0 -1 0 433.5898)">
							<stop  offset="0" style="stop-color:#00274D"/>
							<stop  offset="1" style="stop-color:#00274D;stop-opacity:0"/>
						</linearGradient>
						<path class="st14" d="M13.8,475.7c-5.5,0.1-8.3-3.8-8.4-11.6c0.1-7.8,2.9-11.7,8.4-11.7s8.3,3.8,8.4,11.7
							C22,471.9,19.2,475.8,13.8,475.7z M18.1,464.1c0-3-0.2-5.2-0.9-6.7c-0.6-1.5-1.8-2.3-3.4-2.3s-2.8,0.8-3.4,2.3
							s-0.9,3.8-0.9,6.7s0.3,5.2,0.9,6.7s1.8,2.2,3.4,2.2c1.7,0,2.8-0.7,3.4-2.2S18.1,467.1,18.1,464.1L18.1,464.1L18.1,464.1z"/>
					</g>
					<g>
						
							<linearGradient id="SVGID_11_" gradientUnits="userSpaceOnUse" x1="204.8889" y1="265.9113" x2="-10.5518" y2="5.4532" gradientTransform="matrix(1 0 0 -1 0 433.5898)">
							<stop  offset="0" style="stop-color:#00274D"/>
							<stop  offset="1" style="stop-color:#00274D;stop-opacity:0"/>
						</linearGradient>
						<path class="st15" d="M43.6,377.3v2.5H32.2v-2.5H36v-16.5l-3.5,1.9l-1.3-2.2l6.3-3.4H40v20.2H43.6L43.6,377.3L43.6,377.3z"/>
						
							<linearGradient id="SVGID_12_" gradientUnits="userSpaceOnUse" x1="220.4951" y1="255.0398" x2="4.1469" y2="-6.5156" gradientTransform="matrix(1 0 0 -1 0 433.5898)">
							<stop  offset="0" style="stop-color:#00274D"/>
							<stop  offset="1" style="stop-color:#00274D;stop-opacity:0"/>
						</linearGradient>
						<path class="st16" d="M37,412c-5.5,0.1-8.3-3.8-8.4-11.6c0.1-7.8,2.9-11.7,8.4-11.7s8.3,3.8,8.4,11.7
							C45.3,408.2,42.5,412,37,412z M41.4,400.4c0-3-0.2-5.2-0.9-6.7c-0.6-1.5-1.8-2.3-3.4-2.3s-2.8,0.8-3.4,2.3s-0.9,3.8-0.9,6.7
							s0.3,5.2,0.9,6.7s1.8,2.2,3.4,2.2c1.7,0,2.8-0.7,3.4-2.2S41.4,403.3,41.4,400.4L41.4,400.4L41.4,400.4z"/>
						
							<linearGradient id="SVGID_13_" gradientUnits="userSpaceOnUse" x1="236.6461" y1="240.5043" x2="21.2054" y2="-19.9538" gradientTransform="matrix(1 0 0 -1 0 433.5898)">
							<stop  offset="0" style="stop-color:#00274D"/>
							<stop  offset="1" style="stop-color:#00274D;stop-opacity:0"/>
						</linearGradient>
						<path class="st17" d="M43.6,441.1v2.5H32.2v-2.5H36v-16.5l-3.5,1.9l-1.3-2.2l6.3-3.4H40v20.2H43.6L43.6,441.1L43.6,441.1z"/>
						
							<linearGradient id="SVGID_14_" gradientUnits="userSpaceOnUse" x1="252.3467" y1="229.8268" x2="35.9984" y2="-31.7285" gradientTransform="matrix(1 0 0 -1 0 433.5898)">
							<stop  offset="0" style="stop-color:#00274D"/>
							<stop  offset="1" style="stop-color:#00274D;stop-opacity:0"/>
						</linearGradient>
						<path class="st18" d="M37,475.7c-5.5,0.1-8.3-3.8-8.4-11.6c0.1-7.8,2.9-11.7,8.4-11.7s8.3,3.8,8.4,11.7
							C45.3,471.9,42.5,475.8,37,475.7z M41.4,464.1c0-3-0.2-5.2-0.9-6.7c-0.6-1.5-1.8-2.3-3.4-2.3s-2.8,0.8-3.4,2.3
							s-0.9,3.8-0.9,6.7s0.3,5.2,0.9,6.7s1.8,2.2,3.4,2.2c1.7,0,2.8-0.7,3.4-2.2S41.4,467.1,41.4,464.1L41.4,464.1L41.4,464.1z"/>
						
							<linearGradient id="SVGID_15_" gradientUnits="userSpaceOnUse" x1="268.354" y1="215.138" x2="52.9134" y2="-45.3202" gradientTransform="matrix(1 0 0 -1 0 433.5898)">
							<stop  offset="0" style="stop-color:#00274D"/>
							<stop  offset="1" style="stop-color:#00274D;stop-opacity:0"/>
						</linearGradient>
						<path class="st19" d="M43.6,504.8v2.5H32.2v-2.5H36v-16.5l-3.5,1.9l-1.3-2.2l6.3-3.4H40v20.2H43.6L43.6,504.8L43.6,504.8z"/>
					</g>
					<g>
						
							<linearGradient id="SVGID_16_" gradientUnits="userSpaceOnUse" x1="219.1795" y1="255.0192" x2="3.7388" y2="-5.4388" gradientTransform="matrix(1 0 0 -1 0 433.5898)">
							<stop  offset="0" style="stop-color:#00274D"/>
							<stop  offset="1" style="stop-color:#00274D;stop-opacity:0"/>
						</linearGradient>
						<path class="st20" d="M66.9,377.3v2.5H55.5v-2.5h3.8v-16.5l-3.5,1.9l-1.3-2.2l6.3-3.4h2.5v20.2H66.9L66.9,377.3L66.9,377.3z"
							/>
						
							<linearGradient id="SVGID_17_" gradientUnits="userSpaceOnUse" x1="234.7479" y1="244.102" x2="18.3995" y2="-17.4535" gradientTransform="matrix(1 0 0 -1 0 433.5898)">
							<stop  offset="0" style="stop-color:#00274D"/>
							<stop  offset="1" style="stop-color:#00274D;stop-opacity:0"/>
						</linearGradient>
						<path class="st21" d="M60.3,412c-5.5,0.1-8.3-3.8-8.4-11.6c0.1-7.8,2.9-11.7,8.4-11.7s8.3,3.8,8.4,11.7
							C68.6,408.2,65.8,412,60.3,412z M64.6,400.4c0-3-0.2-5.2-0.9-6.7c-0.6-1.5-1.8-2.3-3.4-2.3s-2.8,0.8-3.4,2.3s-0.9,3.8-0.9,6.7
							s0.3,5.2,0.9,6.7s1.8,2.2,3.4,2.2c1.7,0,2.8-0.7,3.4-2.2C64.4,405.6,64.7,403.3,64.6,400.4L64.6,400.4L64.6,400.4z"/>
						
							<linearGradient id="SVGID_18_" gradientUnits="userSpaceOnUse" x1="250.9366" y1="229.6123" x2="35.496" y2="-30.8458" gradientTransform="matrix(1 0 0 -1 0 433.5898)">
							<stop  offset="0" style="stop-color:#00274D"/>
							<stop  offset="1" style="stop-color:#00274D;stop-opacity:0"/>
						</linearGradient>
						<path class="st22" d="M66.9,441.1v2.5H55.5v-2.5h3.8v-16.5l-3.5,1.9l-1.3-2.2l6.3-3.4h2.5v20.2H66.9L66.9,441.1L66.9,441.1z"
							/>
						
							<linearGradient id="SVGID_19_" gradientUnits="userSpaceOnUse" x1="266.5994" y1="218.8891" x2="50.2511" y2="-42.6663" gradientTransform="matrix(1 0 0 -1 0 433.5898)">
							<stop  offset="0" style="stop-color:#00274D"/>
							<stop  offset="1" style="stop-color:#00274D;stop-opacity:0"/>
						</linearGradient>
						<path class="st23" d="M60.3,475.7c-5.5,0.1-8.3-3.8-8.4-11.6c0.1-7.8,2.9-11.7,8.4-11.7s8.3,3.8,8.4,11.7
							C68.6,471.9,65.8,475.8,60.3,475.7z M64.6,464.1c0-3-0.2-5.2-0.9-6.7c-0.6-1.5-1.8-2.3-3.4-2.3s-2.8,0.8-3.4,2.3
							s-0.9,3.8-0.9,6.7s0.3,5.2,0.9,6.7s1.8,2.2,3.4,2.2c1.7,0,2.8-0.7,3.4-2.2C64.4,469.3,64.7,467.1,64.6,464.1L64.6,464.1
							L64.6,464.1z"/>
						
							<linearGradient id="SVGID_20_" gradientUnits="userSpaceOnUse" x1="282.5448" y1="206.2663" x2="66.1965" y2="-55.289" gradientTransform="matrix(1 0 0 -1 0 433.5898)">
							<stop  offset="0" style="stop-color:#00274D"/>
							<stop  offset="1" style="stop-color:#00274D;stop-opacity:0"/>
						</linearGradient>
						<path class="st24" d="M60.3,507.6c-5.5,0.1-8.3-3.8-8.4-11.6c0.1-7.8,2.9-11.7,8.4-11.7s8.3,3.8,8.4,11.7
							C68.6,503.8,65.8,507.7,60.3,507.6z M64.6,496c0-3-0.2-5.2-0.9-6.7c-0.6-1.5-1.8-2.3-3.4-2.3s-2.8,0.8-3.4,2.3
							S56,493.1,56,496s0.3,5.2,0.9,6.7s1.8,2.2,3.4,2.2c1.7,0,2.8-0.7,3.4-2.2C64.4,501.2,64.7,498.9,64.6,496L64.6,496L64.6,496z"
							/>
					</g>
					<g>
						
							<linearGradient id="SVGID_21_" gradientUnits="userSpaceOnUse" x1="217.6406" y1="256.7902" x2="2.1999" y2="-3.6679" gradientTransform="matrix(1 0 0 -1 0 433.5898)">
							<stop  offset="0" style="stop-color:#00274D"/>
							<stop  offset="1" style="stop-color:#00274D;stop-opacity:0"/>
						</linearGradient>
						<path class="st25" d="M90.2,345.5v2.5H78.8v-2.5h3.8V329l-3.5,1.9l-1.3-2.2l6.3-3.4h2.5v20.2H90.2L90.2,345.5L90.2,345.5z"/>
						
							<linearGradient id="SVGID_22_" gradientUnits="userSpaceOnUse" x1="233.4701" y1="244.1273" x2="18.0293" y2="-16.3308" gradientTransform="matrix(1 0 0 -1 0 433.5898)">
							<stop  offset="0" style="stop-color:#00274D"/>
							<stop  offset="1" style="stop-color:#00274D;stop-opacity:0"/>
						</linearGradient>
						<path class="st26" d="M90.2,377.3v2.5H78.8v-2.5h3.8v-16.5l-3.5,1.9l-1.3-2.2l6.3-3.4h2.5v20.2H90.2L90.2,377.3L90.2,377.3z"
							/>
						
							<linearGradient id="SVGID_23_" gradientUnits="userSpaceOnUse" x1="249.3487" y1="231.4238" x2="33.9079" y2="-29.0343" gradientTransform="matrix(1 0 0 -1 0 433.5898)">
							<stop  offset="0" style="stop-color:#00274D"/>
							<stop  offset="1" style="stop-color:#00274D;stop-opacity:0"/>
						</linearGradient>
						<path class="st27" d="M90.2,409.2v2.5H78.8v-2.5h3.8v-16.5l-3.5,1.9l-1.3-2.2l6.3-3.4h2.5v20.2H90.2L90.2,409.2L90.2,409.2z"
							/>
						
							<linearGradient id="SVGID_24_" gradientUnits="userSpaceOnUse" x1="264.8926" y1="220.5849" x2="48.5447" y2="-40.9702" gradientTransform="matrix(1 0 0 -1 0 433.5898)">
							<stop  offset="0" style="stop-color:#00274D"/>
							<stop  offset="1" style="stop-color:#00274D;stop-opacity:0"/>
						</linearGradient>
						<path class="st28" d="M83.6,443.8c-5.5,0.1-8.3-3.8-8.4-11.6c0.1-7.8,2.9-11.7,8.4-11.7s8.3,3.8,8.4,11.7
							C91.8,440.1,89,443.9,83.6,443.8z M87.9,432.3c0-3-0.2-5.2-0.9-6.7c-0.6-1.5-1.8-2.3-3.4-2.3c-1.6,0-2.8,0.8-3.4,2.3
							c-0.6,1.5-0.9,3.8-0.9,6.7s0.3,5.2,0.9,6.7c0.6,1.5,1.8,2.2,3.4,2.2c1.7,0,2.8-0.7,3.4-2.2C87.6,437.4,87.9,435.2,87.9,432.3
							L87.9,432.3L87.9,432.3z"/>
						
							<linearGradient id="SVGID_25_" gradientUnits="userSpaceOnUse" x1="281.1058" y1="206.0167" x2="65.665" y2="-54.4414" gradientTransform="matrix(1 0 0 -1 0 433.5898)">
							<stop  offset="0" style="stop-color:#00274D"/>
							<stop  offset="1" style="stop-color:#00274D;stop-opacity:0"/>
						</linearGradient>
						<path class="st29" d="M90.2,473v2.5H78.8V473h3.8v-16.5l-3.5,1.9l-1.3-2.2l6.3-3.4h2.5V473H90.2L90.2,473L90.2,473z"/>
						
							<linearGradient id="SVGID_26_" gradientUnits="userSpaceOnUse" x1="296.7749" y1="195.3464" x2="80.427" y2="-66.2085" gradientTransform="matrix(1 0 0 -1 0 433.5898)">
							<stop  offset="0" style="stop-color:#00274D"/>
							<stop  offset="1" style="stop-color:#00274D;stop-opacity:0"/>
						</linearGradient>
						<path class="st30" d="M83.6,507.6c-5.5,0.1-8.3-3.8-8.4-11.6c0.1-7.8,2.9-11.7,8.4-11.7s8.3,3.8,8.4,11.7
							C91.8,503.8,89,507.7,83.6,507.6z M87.9,496c0-3-0.2-5.2-0.9-6.7c-0.6-1.5-1.8-2.3-3.4-2.3c-1.6,0-2.8,0.8-3.4,2.3
							c-0.6,1.5-0.9,3.8-0.9,6.7s0.3,5.2,0.9,6.7c0.6,1.5,1.8,2.2,3.4,2.2c1.7,0,2.8-0.7,3.4-2.2C87.6,501.2,87.9,498.9,87.9,496
							L87.9,496L87.9,496z"/>
					</g>
				</g>
				<g>
					<g>
						
							<linearGradient id="SVGID_27_" gradientUnits="userSpaceOnUse" x1="231.5953" y1="247.2949" x2="15.247" y2="-14.2604" gradientTransform="matrix(1 0 0 -1 0 433.5898)">
							<stop  offset="0" style="stop-color:#00274D"/>
							<stop  offset="1" style="stop-color:#00274D;stop-opacity:0"/>
						</linearGradient>
						<path class="st31" d="M107.3,348.2c-5.5,0.1-8.3-3.8-8.4-11.6c0.1-7.8,2.9-11.7,8.4-11.7s8.3,3.8,8.4,11.7
							C115.5,344.4,112.7,348.3,107.3,348.2z M111.6,336.7c0-3-0.2-5.2-0.9-6.7c-0.6-1.5-1.8-2.3-3.4-2.3c-1.6,0-2.8,0.8-3.4,2.3
							c-0.6,1.5-0.9,3.8-0.9,6.7c0,2.9,0.3,5.2,0.9,6.7c0.6,1.5,1.8,2.2,3.4,2.2c1.7,0,2.8-0.7,3.4-2.2
							C111.3,341.8,111.6,339.6,111.6,336.7L111.6,336.7L111.6,336.7z"/>
						
							<linearGradient id="SVGID_28_" gradientUnits="userSpaceOnUse" x1="248.0066" y1="233.049" x2="32.5659" y2="-27.409" gradientTransform="matrix(1 0 0 -1 0 433.5898)">
							<stop  offset="0" style="stop-color:#00274D"/>
							<stop  offset="1" style="stop-color:#00274D;stop-opacity:0"/>
						</linearGradient>
						<path class="st32" d="M113.9,377.3v2.5h-11.4v-2.5h3.8v-16.5l-3.5,1.9l-1.3-2.2l6.3-3.4h2.5v20.2H113.9L113.9,377.3
							L113.9,377.3z"/>
						
							<linearGradient id="SVGID_29_" gradientUnits="userSpaceOnUse" x1="263.4762" y1="222.0576" x2="47.128" y2="-39.4978" gradientTransform="matrix(1 0 0 -1 0 433.5898)">
							<stop  offset="0" style="stop-color:#00274D"/>
							<stop  offset="1" style="stop-color:#00274D;stop-opacity:0"/>
						</linearGradient>
						<path class="st33" d="M107.3,412c-5.5,0.1-8.3-3.8-8.4-11.6c0.1-7.8,2.9-11.7,8.4-11.7s8.3,3.8,8.4,11.7
							C115.5,408.2,112.7,412,107.3,412z M111.6,400.4c0-3-0.2-5.2-0.9-6.7c-0.6-1.5-1.8-2.3-3.4-2.3c-1.6,0-2.8,0.8-3.4,2.3
							c-0.6,1.5-0.9,3.8-0.9,6.7s0.3,5.2,0.9,6.7c0.6,1.5,1.8,2.2,3.4,2.2c1.7,0,2.8-0.7,3.4-2.2S111.6,403.3,111.6,400.4
							L111.6,400.4L111.6,400.4z"/>
						
							<linearGradient id="SVGID_30_" gradientUnits="userSpaceOnUse" x1="279.391" y1="209.4603" x2="63.0427" y2="-52.095" gradientTransform="matrix(1 0 0 -1 0 433.5898)">
							<stop  offset="0" style="stop-color:#00274D"/>
							<stop  offset="1" style="stop-color:#00274D;stop-opacity:0"/>
						</linearGradient>
						<path class="st34" d="M107.3,443.8c-5.5,0.1-8.3-3.8-8.4-11.6c0.1-7.8,2.9-11.7,8.4-11.7s8.3,3.8,8.4,11.7
							C115.5,440.1,112.7,443.9,107.3,443.8z M111.6,432.3c0-3-0.2-5.2-0.9-6.7c-0.6-1.5-1.8-2.3-3.4-2.3c-1.6,0-2.8,0.8-3.4,2.3
							c-0.6,1.5-0.9,3.8-0.9,6.7s0.3,5.2,0.9,6.7c0.6,1.5,1.8,2.2,3.4,2.2c1.7,0,2.8-0.7,3.4-2.2
							C111.3,437.4,111.6,435.2,111.6,432.3L111.6,432.3L111.6,432.3z"/>
						
							<linearGradient id="SVGID_31_" gradientUnits="userSpaceOnUse" x1="295.6423" y1="194.9385" x2="80.2017" y2="-65.5195" gradientTransform="matrix(1 0 0 -1 0 433.5898)">
							<stop  offset="0" style="stop-color:#00274D"/>
							<stop  offset="1" style="stop-color:#00274D;stop-opacity:0"/>
						</linearGradient>
						<path class="st35" d="M113.9,473v2.5h-11.4V473h3.8v-16.5l-3.5,1.9l-1.3-2.2l6.3-3.4h2.5V473H113.9L113.9,473L113.9,473z"/>
						
							<linearGradient id="SVGID_32_" gradientUnits="userSpaceOnUse" x1="311.2731" y1="184.222" x2="94.9249" y2="-77.3334" gradientTransform="matrix(1 0 0 -1 0 433.5898)">
							<stop  offset="0" style="stop-color:#00274D"/>
							<stop  offset="1" style="stop-color:#00274D;stop-opacity:0"/>
						</linearGradient>
						<path class="st36" d="M107.3,507.6c-5.5,0.1-8.3-3.8-8.4-11.6c0.1-7.8,2.9-11.7,8.4-11.7s8.3,3.8,8.4,11.7
							C115.5,503.8,112.7,507.7,107.3,507.6z M111.6,496c0-3-0.2-5.2-0.9-6.7c-0.6-1.5-1.8-2.3-3.4-2.3c-1.6,0-2.8,0.8-3.4,2.3
							c-0.6,1.5-0.9,3.8-0.9,6.7s0.3,5.2,0.9,6.7c0.6,1.5,1.8,2.2,3.4,2.2c1.7,0,2.8-0.7,3.4-2.2S111.6,498.9,111.6,496L111.6,496
							L111.6,496z"/>
						
							<linearGradient id="SVGID_33_" gradientUnits="userSpaceOnUse" x1="327.3504" y1="169.5721" x2="111.9097" y2="-90.8859" gradientTransform="matrix(1 0 0 -1 0 433.5898)">
							<stop  offset="0" style="stop-color:#00274D"/>
							<stop  offset="1" style="stop-color:#00274D;stop-opacity:0"/>
						</linearGradient>
						<path class="st37" d="M113.9,536.7v2.5h-11.4v-2.5h3.8v-16.5l-3.5,1.9l-1.3-2.2l6.3-3.4h2.5v20.2H113.9L113.9,536.7
							L113.9,536.7z"/>
					</g>
					<g>
						
							<linearGradient id="SVGID_34_" gradientUnits="userSpaceOnUse" x1="246.4083" y1="234.8691" x2="30.9676" y2="-25.5891" gradientTransform="matrix(1 0 0 -1 0 433.5898)">
							<stop  offset="0" style="stop-color:#00274D"/>
							<stop  offset="1" style="stop-color:#00274D;stop-opacity:0"/>
						</linearGradient>
						<path class="st38" d="M137.1,345.5v2.5h-11.4v-2.5h3.8V329l-3.5,1.9l-1.3-2.2l6.3-3.4h2.5v20.2H137.1L137.1,345.5L137.1,345.5
							z"/>
						
							<linearGradient id="SVGID_35_" gradientUnits="userSpaceOnUse" x1="261.7562" y1="223.7652" x2="45.4079" y2="-37.7902" gradientTransform="matrix(1 0 0 -1 0 433.5898)">
							<stop  offset="0" style="stop-color:#00274D"/>
							<stop  offset="1" style="stop-color:#00274D;stop-opacity:0"/>
						</linearGradient>
						<path class="st39" d="M130.5,380.1c-5.5,0.1-8.3-3.8-8.4-11.6c0.1-7.8,2.9-11.7,8.4-11.7s8.3,3.8,8.4,11.7
							C138.8,376.3,136,380.2,130.5,380.1z M134.9,368.5c0-3-0.2-5.2-0.9-6.7c-0.6-1.5-1.8-2.3-3.4-2.3c-1.6,0-2.8,0.8-3.4,2.3
							s-0.9,3.8-0.9,6.7s0.3,5.2,0.9,6.7s1.8,2.2,3.4,2.2c1.7,0,2.8-0.7,3.4-2.2C134.6,373.7,134.9,371.5,134.9,368.5L134.9,368.5
							L134.9,368.5z"/>
						
							<linearGradient id="SVGID_36_" gradientUnits="userSpaceOnUse" x1="278.1164" y1="209.5027" x2="62.6757" y2="-50.9554" gradientTransform="matrix(1 0 0 -1 0 433.5898)">
							<stop  offset="0" style="stop-color:#00274D"/>
							<stop  offset="1" style="stop-color:#00274D;stop-opacity:0"/>
						</linearGradient>
						<path class="st40" d="M137.1,409.2v2.5h-11.4v-2.5h3.8v-16.5l-3.5,1.9l-1.3-2.2l6.3-3.4h2.5v20.2H137.1L137.1,409.2
							L137.1,409.2z"/>
						
							<linearGradient id="SVGID_37_" gradientUnits="userSpaceOnUse" x1="293.6064" y1="198.5532" x2="77.2581" y2="-63.0021" gradientTransform="matrix(1 0 0 -1 0 433.5898)">
							<stop  offset="0" style="stop-color:#00274D"/>
							<stop  offset="1" style="stop-color:#00274D;stop-opacity:0"/>
						</linearGradient>
						<path class="st41" d="M130.5,443.8c-5.5,0.1-8.3-3.8-8.4-11.6c0.1-7.8,2.9-11.7,8.4-11.7s8.3,3.8,8.4,11.7
							C138.8,440.1,136,443.9,130.5,443.8z M134.9,432.3c0-3-0.2-5.2-0.9-6.7c-0.6-1.5-1.8-2.3-3.4-2.3c-1.6,0-2.8,0.8-3.4,2.3
							s-0.9,3.8-0.9,6.7s0.3,5.2,0.9,6.7c0.6,1.5,1.8,2.2,3.4,2.2c1.7,0,2.8-0.7,3.4-2.2C134.6,437.4,134.9,435.2,134.9,432.3
							L134.9,432.3L134.9,432.3z"/>
						
							<linearGradient id="SVGID_38_" gradientUnits="userSpaceOnUse" x1="309.8735" y1="184.0957" x2="94.4329" y2="-76.3624" gradientTransform="matrix(1 0 0 -1 0 433.5898)">
							<stop  offset="0" style="stop-color:#00274D"/>
							<stop  offset="1" style="stop-color:#00274D;stop-opacity:0"/>
						</linearGradient>
						<path class="st42" d="M137.1,473v2.5h-11.4V473h3.8v-16.5l-3.5,1.9l-1.3-2.2l6.3-3.4h2.5V473H137.1L137.1,473L137.1,473z"/>
						
							<linearGradient id="SVGID_39_" gradientUnits="userSpaceOnUse" x1="325.4885" y1="173.3149" x2="109.1403" y2="-88.2405" gradientTransform="matrix(1 0 0 -1 0 433.5898)">
							<stop  offset="0" style="stop-color:#00274D"/>
							<stop  offset="1" style="stop-color:#00274D;stop-opacity:0"/>
						</linearGradient>
						<path class="st43" d="M130.5,507.6c-5.5,0.1-8.3-3.8-8.4-11.6c0.1-7.8,2.9-11.7,8.4-11.7s8.3,3.8,8.4,11.7
							C138.8,503.8,136,507.7,130.5,507.6z M134.9,496c0-3-0.2-5.2-0.9-6.7c-0.6-1.5-1.8-2.3-3.4-2.3c-1.6,0-2.8,0.8-3.4,2.3
							s-0.9,3.8-0.9,6.7s0.3,5.2,0.9,6.7c0.6,1.5,1.8,2.2,3.4,2.2c1.7,0,2.8-0.7,3.4-2.2C134.6,501.2,134.9,498.9,134.9,496
							L134.9,496L134.9,496z"/>
						
							<linearGradient id="SVGID_40_" gradientUnits="userSpaceOnUse" x1="341.5814" y1="158.7294" x2="126.1408" y2="-101.7289" gradientTransform="matrix(1 0 0 -1 0 433.5898)">
							<stop  offset="0" style="stop-color:#00274D"/>
							<stop  offset="1" style="stop-color:#00274D;stop-opacity:0"/>
						</linearGradient>
						<path class="st44" d="M137.1,536.7v2.5h-11.4v-2.5h3.8v-16.5l-3.5,1.9l-1.3-2.2l6.3-3.4h2.5v20.2H137.1L137.1,536.7
							L137.1,536.7z"/>
					</g>
					<g>
						
							<linearGradient id="SVGID_41_" gradientUnits="userSpaceOnUse" x1="275.9985" y1="212.8359" x2="59.6503" y2="-48.7195" gradientTransform="matrix(1 0 0 -1 0 433.5898)">
							<stop  offset="0" style="stop-color:#00274D"/>
							<stop  offset="1" style="stop-color:#00274D;stop-opacity:0"/>
						</linearGradient>
						<path class="st45" d="M153.8,380.1c-5.5,0.1-8.3-3.8-8.4-11.6c0.1-7.8,2.9-11.7,8.4-11.7s8.3,3.8,8.4,11.7
							C162,376.3,159.3,380.2,153.8,380.1z M158.1,368.5c0-3-0.2-5.2-0.9-6.7c-0.6-1.5-1.8-2.3-3.4-2.3c-1.6,0-2.8,0.8-3.4,2.3
							s-0.9,3.8-0.9,6.7s0.3,5.2,0.9,6.7c0.6,1.5,1.8,2.2,3.4,2.2c1.7,0,2.8-0.7,3.4-2.2C157.9,373.7,158.2,371.5,158.1,368.5
							L158.1,368.5L158.1,368.5z"/>
						
							<linearGradient id="SVGID_42_" gradientUnits="userSpaceOnUse" x1="291.9341" y1="200.2212" x2="75.5858" y2="-61.3341" gradientTransform="matrix(1 0 0 -1 0 433.5898)">
							<stop  offset="0" style="stop-color:#00274D"/>
							<stop  offset="1" style="stop-color:#00274D;stop-opacity:0"/>
						</linearGradient>
						<path class="st46" d="M153.8,412c-5.5,0.1-8.3-3.8-8.4-11.6c0.1-7.8,2.9-11.7,8.4-11.7s8.3,3.8,8.4,11.7
							C162,408.2,159.3,412,153.8,412z M158.1,400.4c0-3-0.2-5.2-0.9-6.7c-0.6-1.5-1.8-2.3-3.4-2.3c-1.6,0-2.8,0.8-3.4,2.3
							s-0.9,3.8-0.9,6.7s0.3,5.2,0.9,6.7c0.6,1.5,1.8,2.2,3.4,2.2c1.7,0,2.8-0.7,3.4-2.2C157.9,405.6,158.2,403.3,158.1,400.4
							L158.1,400.4L158.1,400.4z"/>
						
							<linearGradient id="SVGID_43_" gradientUnits="userSpaceOnUse" x1="308.2855" y1="185.9072" x2="92.8448" y2="-74.5509" gradientTransform="matrix(1 0 0 -1 0 433.5898)">
							<stop  offset="0" style="stop-color:#00274D"/>
							<stop  offset="1" style="stop-color:#00274D;stop-opacity:0"/>
						</linearGradient>
						<path class="st47" d="M160.4,441.1v2.5H149v-2.5h3.8v-16.5l-3.5,1.9l-1.3-2.2l6.3-3.4h2.5v20.2H160.4L160.4,441.1L160.4,441.1
							z"/>
						
							<linearGradient id="SVGID_44_" gradientUnits="userSpaceOnUse" x1="323.7856" y1="175.0084" x2="107.4373" y2="-86.5471" gradientTransform="matrix(1 0 0 -1 0 433.5898)">
							<stop  offset="0" style="stop-color:#00274D"/>
							<stop  offset="1" style="stop-color:#00274D;stop-opacity:0"/>
						</linearGradient>
						<path class="st48" d="M153.8,475.7c-5.5,0.1-8.3-3.8-8.4-11.6c0.1-7.8,2.9-11.7,8.4-11.7s8.3,3.8,8.4,11.7
							C162,471.9,159.3,475.8,153.8,475.7z M158.1,464.1c0-3-0.2-5.2-0.9-6.7c-0.6-1.5-1.8-2.3-3.4-2.3c-1.6,0-2.8,0.8-3.4,2.3
							s-0.9,3.8-0.9,6.7s0.3,5.2,0.9,6.7c0.6,1.5,1.8,2.2,3.4,2.2c1.7,0,2.8-0.7,3.4-2.2C157.9,469.3,158.2,467.1,158.1,464.1
							L158.1,464.1L158.1,464.1z"/>
						
							<linearGradient id="SVGID_45_" gradientUnits="userSpaceOnUse" x1="339.9936" y1="160.5408" x2="124.5528" y2="-99.9174" gradientTransform="matrix(1 0 0 -1 0 433.5898)">
							<stop  offset="0" style="stop-color:#00274D"/>
							<stop  offset="1" style="stop-color:#00274D;stop-opacity:0"/>
						</linearGradient>
						<path class="st49" d="M160.4,504.8v2.5H149v-2.5h3.8v-16.5l-3.5,1.9L148,488l6.3-3.4h2.5v20.2H160.4L160.4,504.8L160.4,504.8z
							"/>
						
							<linearGradient id="SVGID_46_" gradientUnits="userSpaceOnUse" x1="355.6666" y1="149.771" x2="139.3183" y2="-111.7844" gradientTransform="matrix(1 0 0 -1 0 433.5898)">
							<stop  offset="0" style="stop-color:#00274D"/>
							<stop  offset="1" style="stop-color:#00274D;stop-opacity:0"/>
						</linearGradient>
						<path class="st50" d="M153.8,539.5c-5.5,0.1-8.3-3.8-8.4-11.6c0.1-7.8,2.9-11.7,8.4-11.7s8.3,3.8,8.4,11.7
							C162,535.7,159.3,539.5,153.8,539.5z M158.1,527.9c0-3-0.2-5.2-0.9-6.7c-0.6-1.5-1.8-2.3-3.4-2.3c-1.6,0-2.8,0.8-3.4,2.3
							s-0.9,3.8-0.9,6.7c0,2.9,0.3,5.2,0.9,6.7c0.6,1.5,1.8,2.2,3.4,2.2c1.7,0,2.8-0.7,3.4-2.2C157.9,533,158.2,530.8,158.1,527.9
							L158.1,527.9L158.1,527.9z"/>
						
							<linearGradient id="SVGID_47_" gradientUnits="userSpaceOnUse" x1="371.7506" y1="135.1337" x2="156.31" y2="-125.3244" gradientTransform="matrix(1 0 0 -1 0 433.5898)">
							<stop  offset="0" style="stop-color:#00274D"/>
							<stop  offset="1" style="stop-color:#00274D;stop-opacity:0"/>
						</linearGradient>
						<path class="st51" d="M160.4,568.6v2.5H149v-2.5h3.8v-16.5l-3.5,1.9l-1.3-2.2l6.3-3.4h2.5v20.2H160.4L160.4,568.6L160.4,568.6
							z"/>
					</g>
					<g>
						
							<linearGradient id="SVGID_48_" gradientUnits="userSpaceOnUse" x1="290.8189" y1="200.4222" x2="75.3782" y2="-60.036" gradientTransform="matrix(1 0 0 -1 0 433.5898)">
							<stop  offset="0" style="stop-color:#00274D"/>
							<stop  offset="1" style="stop-color:#00274D;stop-opacity:0"/>
						</linearGradient>
						<path class="st52" d="M183.7,377.3v2.5h-11.4v-2.5h3.8v-16.5l-3.5,1.9l-1.3-2.2l6.3-3.4h2.5v20.2H183.7L183.7,377.3
							L183.7,377.3z"/>
						
							<linearGradient id="SVGID_49_" gradientUnits="userSpaceOnUse" x1="306.175" y1="189.2934" x2="89.8266" y2="-72.2622" gradientTransform="matrix(1 0 0 -1 0 433.5898)">
							<stop  offset="0" style="stop-color:#00274D"/>
							<stop  offset="1" style="stop-color:#00274D;stop-opacity:0"/>
						</linearGradient>
						<path class="st53" d="M177.1,412c-5.5,0.1-8.3-3.8-8.4-11.6c0.1-7.8,2.9-11.7,8.4-11.7s8.3,3.8,8.4,11.7
							C185.3,408.2,182.5,412,177.1,412z M181.4,400.4c0-3-0.2-5.2-0.9-6.7c-0.6-1.5-1.8-2.3-3.4-2.3c-1.6,0-2.8,0.8-3.4,2.3
							c-0.6,1.5-0.9,3.8-0.9,6.7s0.3,5.2,0.9,6.7c0.6,1.5,1.8,2.2,3.4,2.2c1.7,0,2.8-0.7,3.4-2.2
							C181.1,405.6,181.4,403.3,181.4,400.4L181.4,400.4L181.4,400.4z"/>
						
							<linearGradient id="SVGID_50_" gradientUnits="userSpaceOnUse" x1="322.5761" y1="175.0151" x2="107.1353" y2="-85.4429" gradientTransform="matrix(1 0 0 -1 0 433.5898)">
							<stop  offset="0" style="stop-color:#00274D"/>
							<stop  offset="1" style="stop-color:#00274D;stop-opacity:0"/>
						</linearGradient>
						<path class="st54" d="M183.7,441.1v2.5h-11.4v-2.5h3.8v-16.5l-3.5,1.9l-1.3-2.2l6.3-3.4h2.5v20.2H183.7L183.7,441.1
							L183.7,441.1z"/>
						
							<linearGradient id="SVGID_51_" gradientUnits="userSpaceOnUse" x1="338.0265" y1="164.0803" x2="121.6782" y2="-97.475" gradientTransform="matrix(1 0 0 -1 0 433.5898)">
							<stop  offset="0" style="stop-color:#00274D"/>
							<stop  offset="1" style="stop-color:#00274D;stop-opacity:0"/>
						</linearGradient>
						<path class="st55" d="M177.1,475.7c-5.5,0.1-8.3-3.8-8.4-11.6c0.1-7.8,2.9-11.7,8.4-11.7s8.3,3.8,8.4,11.7
							C185.3,471.9,182.5,475.8,177.1,475.7z M181.4,464.1c0-3-0.2-5.2-0.9-6.7c-0.6-1.5-1.8-2.3-3.4-2.3c-1.6,0-2.8,0.8-3.4,2.3
							c-0.6,1.5-0.9,3.8-0.9,6.7s0.3,5.2,0.9,6.7c0.6,1.5,1.8,2.2,3.4,2.2c1.7,0,2.8-0.7,3.4-2.2
							C181.1,469.3,181.4,467.1,181.4,464.1L181.4,464.1L181.4,464.1z"/>
						
							<linearGradient id="SVGID_52_" gradientUnits="userSpaceOnUse" x1="354.2841" y1="149.6487" x2="138.8434" y2="-110.8094" gradientTransform="matrix(1 0 0 -1 0 433.5898)">
							<stop  offset="0" style="stop-color:#00274D"/>
							<stop  offset="1" style="stop-color:#00274D;stop-opacity:0"/>
						</linearGradient>
						<path class="st56" d="M183.7,504.8v2.5h-11.4v-2.5h3.8v-16.5l-3.5,1.9l-1.3-2.2l6.3-3.4h2.5v20.2H183.7L183.7,504.8
							L183.7,504.8z"/>
						
							<linearGradient id="SVGID_53_" gradientUnits="userSpaceOnUse" x1="369.9073" y1="138.843" x2="153.5592" y2="-122.7124" gradientTransform="matrix(1 0 0 -1 0 433.5898)">
							<stop  offset="0" style="stop-color:#00274D"/>
							<stop  offset="1" style="stop-color:#00274D;stop-opacity:0"/>
						</linearGradient>
						<path class="st57" d="M177.1,539.5c-5.5,0.1-8.3-3.8-8.4-11.6c0.1-7.8,2.9-11.7,8.4-11.7s8.3,3.8,8.4,11.7
							C185.3,535.7,182.5,539.5,177.1,539.5z M181.4,527.9c0-3-0.2-5.2-0.9-6.7c-0.6-1.5-1.8-2.3-3.4-2.3c-1.6,0-2.8,0.8-3.4,2.3
							c-0.6,1.5-0.9,3.8-0.9,6.7c0,2.9,0.3,5.2,0.9,6.7c0.6,1.5,1.8,2.2,3.4,2.2c1.7,0,2.8-0.7,3.4-2.2
							C181.1,533,181.4,530.8,181.4,527.9L181.4,527.9L181.4,527.9z"/>
						
							<linearGradient id="SVGID_54_" gradientUnits="userSpaceOnUse" x1="386.0412" y1="124.2418" x2="170.6005" y2="-136.2164" gradientTransform="matrix(1 0 0 -1 0 433.5898)">
							<stop  offset="0" style="stop-color:#00274D"/>
							<stop  offset="1" style="stop-color:#00274D;stop-opacity:0"/>
						</linearGradient>
						<path class="st58" d="M183.7,568.6v2.5h-11.4v-2.5h3.8v-16.5l-3.5,1.9l-1.3-2.2l6.3-3.4h2.5v20.2H183.7L183.7,568.6
							L183.7,568.6z"/>
					</g>
					<g>
						
							<linearGradient id="SVGID_55_" gradientUnits="userSpaceOnUse" x1="320.3904" y1="178.3862" x2="104.0421" y2="-83.1692" gradientTransform="matrix(1 0 0 -1 0 433.5898)">
							<stop  offset="0" style="stop-color:#00274D"/>
							<stop  offset="1" style="stop-color:#00274D;stop-opacity:0"/>
						</linearGradient>
						<path class="st59" d="M200.3,412c-5.5,0.1-8.3-3.8-8.4-11.6c0.1-7.8,2.9-11.7,8.4-11.7s8.3,3.8,8.4,11.7
							C208.6,408.2,205.8,412,200.3,412z M204.6,400.4c0-3-0.2-5.2-0.9-6.7c-0.6-1.5-1.8-2.3-3.4-2.3c-1.6,0-2.8,0.8-3.4,2.3
							c-0.6,1.5-0.9,3.8-0.9,6.7s0.3,5.2,0.9,6.7c0.6,1.5,1.8,2.2,3.4,2.2c1.7,0,2.8-0.7,3.4-2.2
							C204.4,405.6,204.7,403.3,204.6,400.4L204.6,400.4L204.6,400.4z"/>
						
							<linearGradient id="SVGID_56_" gradientUnits="userSpaceOnUse" x1="336.8073" y1="164.1722" x2="121.3665" y2="-96.2859" gradientTransform="matrix(1 0 0 -1 0 433.5898)">
							<stop  offset="0" style="stop-color:#00274D"/>
							<stop  offset="1" style="stop-color:#00274D;stop-opacity:0"/>
						</linearGradient>
						<path class="st60" d="M206.9,441.1v2.5h-11.4v-2.5h3.8v-16.5l-3.5,1.9l-1.3-2.2l6.3-3.4h2.5v20.2H206.9L206.9,441.1
							L206.9,441.1z"/>
						
							<linearGradient id="SVGID_57_" gradientUnits="userSpaceOnUse" x1="352.2419" y1="153.1733" x2="135.8936" y2="-108.3821" gradientTransform="matrix(1 0 0 -1 0 433.5898)">
							<stop  offset="0" style="stop-color:#00274D"/>
							<stop  offset="1" style="stop-color:#00274D;stop-opacity:0"/>
						</linearGradient>
						<path class="st61" d="M200.3,475.7c-5.5,0.1-8.3-3.8-8.4-11.6c0.1-7.8,2.9-11.7,8.4-11.7s8.3,3.8,8.4,11.7
							C208.6,471.9,205.8,475.8,200.3,475.7z M204.6,464.1c0-3-0.2-5.2-0.9-6.7c-0.6-1.5-1.8-2.3-3.4-2.3c-1.6,0-2.8,0.8-3.4,2.3
							c-0.6,1.5-0.9,3.8-0.9,6.7s0.3,5.2,0.9,6.7c0.6,1.5,1.8,2.2,3.4,2.2c1.7,0,2.8-0.7,3.4-2.2
							C204.4,469.3,204.7,467.1,204.6,464.1L204.6,464.1L204.6,464.1z"/>
						
							<linearGradient id="SVGID_58_" gradientUnits="userSpaceOnUse" x1="368.5153" y1="138.8058" x2="153.0746" y2="-121.6523" gradientTransform="matrix(1 0 0 -1 0 433.5898)">
							<stop  offset="0" style="stop-color:#00274D"/>
							<stop  offset="1" style="stop-color:#00274D;stop-opacity:0"/>
						</linearGradient>
						<path class="st62" d="M206.9,504.8v2.5h-11.4v-2.5h3.8v-16.5l-3.5,1.9l-1.3-2.2l6.3-3.4h2.5v20.2H206.9L206.9,504.8
							L206.9,504.8z"/>
						
							<linearGradient id="SVGID_59_" gradientUnits="userSpaceOnUse" x1="384.123" y1="127.9357" x2="167.7746" y2="-133.6194" gradientTransform="matrix(1 0 0 -1 0 433.5898)">
							<stop  offset="0" style="stop-color:#00274D"/>
							<stop  offset="1" style="stop-color:#00274D;stop-opacity:0"/>
						</linearGradient>
						<path class="st63" d="M200.3,539.5c-5.5,0.1-8.3-3.8-8.4-11.6c0.1-7.8,2.9-11.7,8.4-11.7s8.3,3.8,8.4,11.7
							C208.6,535.7,205.8,539.5,200.3,539.5z M204.6,527.9c0-3-0.2-5.2-0.9-6.7c-0.6-1.5-1.8-2.3-3.4-2.3c-1.6,0-2.8,0.8-3.4,2.3
							c-0.6,1.5-0.9,3.8-0.9,6.7c0,2.9,0.3,5.2,0.9,6.7c0.6,1.5,1.8,2.2,3.4,2.2c1.7,0,2.8-0.7,3.4-2.2
							C204.4,533,204.7,530.8,204.6,527.9L204.6,527.9L204.6,527.9z"/>
						
							<linearGradient id="SVGID_60_" gradientUnits="userSpaceOnUse" x1="400.2725" y1="113.3987" x2="184.8317" y2="-147.0594" gradientTransform="matrix(1 0 0 -1 0 433.5898)">
							<stop  offset="0" style="stop-color:#00274D"/>
							<stop  offset="1" style="stop-color:#00274D;stop-opacity:0"/>
						</linearGradient>
						<path class="st64" d="M206.9,568.6v2.5h-11.4v-2.5h3.8v-16.5l-3.5,1.9l-1.3-2.2l6.3-3.4h2.5v20.2H206.9L206.9,568.6
							L206.9,568.6z"/>
					</g>
					<g>
						
							<linearGradient id="SVGID_61_" gradientUnits="userSpaceOnUse" x1="351.0978" y1="153.2802" x2="135.657" y2="-107.1779" gradientTransform="matrix(1 0 0 -1 0 433.5898)">
							<stop  offset="0" style="stop-color:#00274D"/>
							<stop  offset="1" style="stop-color:#00274D;stop-opacity:0"/>
						</linearGradient>
						<path class="st65" d="M230.2,441.1v2.5h-11.4v-2.5h3.8v-16.5l-3.5,1.9l-1.3-2.2l6.3-3.4h2.5v20.2H230.2L230.2,441.1
							L230.2,441.1z"/>
						
							<linearGradient id="SVGID_62_" gradientUnits="userSpaceOnUse" x1="366.4842" y1="142.244" x2="150.136" y2="-119.3114" gradientTransform="matrix(1 0 0 -1 0 433.5898)">
							<stop  offset="0" style="stop-color:#00274D"/>
							<stop  offset="1" style="stop-color:#00274D;stop-opacity:0"/>
						</linearGradient>
						<path class="st66" d="M223.6,475.7c-5.5,0.1-8.3-3.8-8.4-11.6c0.1-7.8,2.9-11.7,8.4-11.7s8.3,3.8,8.4,11.7
							C231.8,471.9,229.1,475.8,223.6,475.7z M227.9,464.1c0-3-0.2-5.2-0.9-6.7c-0.6-1.5-1.8-2.3-3.4-2.3c-1.6,0-2.8,0.8-3.4,2.3
							c-0.6,1.5-0.9,3.8-0.9,6.7s0.3,5.2,0.9,6.7c0.6,1.5,1.8,2.2,3.4,2.2c1.7,0,2.8-0.7,3.4-2.2C227.7,469.3,228,467.1,227.9,464.1
							L227.9,464.1L227.9,464.1z"/>
						
							<linearGradient id="SVGID_63_" gradientUnits="userSpaceOnUse" x1="382.4296" y1="129.6212" x2="166.0813" y2="-131.9342" gradientTransform="matrix(1 0 0 -1 0 433.5898)">
							<stop  offset="0" style="stop-color:#00274D"/>
							<stop  offset="1" style="stop-color:#00274D;stop-opacity:0"/>
						</linearGradient>
						<path class="st67" d="M223.6,507.6c-5.5,0.1-8.3-3.8-8.4-11.6c0.1-7.8,2.9-11.7,8.4-11.7s8.3,3.8,8.4,11.7
							C231.8,503.8,229.1,507.7,223.6,507.6z M227.9,496c0-3-0.2-5.2-0.9-6.7c-0.6-1.5-1.8-2.3-3.4-2.3c-1.6,0-2.8,0.8-3.4,2.3
							c-0.6,1.5-0.9,3.8-0.9,6.7s0.3,5.2,0.9,6.7c0.6,1.5,1.8,2.2,3.4,2.2c1.7,0,2.8-0.7,3.4-2.2C227.7,501.2,228,498.9,227.9,496
							L227.9,496L227.9,496z"/>
						
							<linearGradient id="SVGID_64_" gradientUnits="userSpaceOnUse" x1="398.36" y1="117.0004" x2="182.0118" y2="-144.555" gradientTransform="matrix(1 0 0 -1 0 433.5898)">
							<stop  offset="0" style="stop-color:#00274D"/>
							<stop  offset="1" style="stop-color:#00274D;stop-opacity:0"/>
						</linearGradient>
						<path class="st68" d="M223.6,539.5c-5.5,0.1-8.3-3.8-8.4-11.6c0.1-7.8,2.9-11.7,8.4-11.7s8.3,3.8,8.4,11.7
							C231.8,535.7,229.1,539.5,223.6,539.5z M227.9,527.9c0-3-0.2-5.2-0.9-6.7c-0.6-1.5-1.8-2.3-3.4-2.3c-1.6,0-2.8,0.8-3.4,2.3
							c-0.6,1.5-0.9,3.8-0.9,6.7c0,2.9,0.3,5.2,0.9,6.7c0.6,1.5,1.8,2.2,3.4,2.2c1.7,0,2.8-0.7,3.4-2.2
							C227.7,533,228,530.8,227.9,527.9L227.9,527.9L227.9,527.9z"/>
						
							<linearGradient id="SVGID_65_" gradientUnits="userSpaceOnUse" x1="414.5629" y1="102.5069" x2="199.1223" y2="-157.9513" gradientTransform="matrix(1 0 0 -1 0 433.5898)">
							<stop  offset="0" style="stop-color:#00274D"/>
							<stop  offset="1" style="stop-color:#00274D;stop-opacity:0"/>
						</linearGradient>
						<path class="st69" d="M230.2,568.6v2.5h-11.4v-2.5h3.8v-16.5l-3.5,1.9l-1.3-2.2l6.3-3.4h2.5v20.2H230.2L230.2,568.6
							L230.2,568.6z"/>
					</g>
					<g>
						
							<linearGradient id="SVGID_66_" gradientUnits="userSpaceOnUse" x1="381.2372" y1="129.7093" x2="165.7966" y2="-130.7488" gradientTransform="matrix(1 0 0 -1 0 433.5898)">
							<stop  offset="0" style="stop-color:#00274D"/>
							<stop  offset="1" style="stop-color:#00274D;stop-opacity:0"/>
						</linearGradient>
						<path class="st70" d="M253.5,473v2.5H242V473h3.8v-16.5l-3.5,1.9l-1.3-2.2l6.3-3.4h2.5V473H253.5L253.5,473L253.5,473z"/>
						
							<linearGradient id="SVGID_67_" gradientUnits="userSpaceOnUse" x1="396.6703" y1="118.6929" x2="180.3222" y2="-142.862" gradientTransform="matrix(1 0 0 -1 0 433.5898)">
							<stop  offset="0" style="stop-color:#00274D"/>
							<stop  offset="1" style="stop-color:#00274D;stop-opacity:0"/>
						</linearGradient>
						<path class="st71" d="M246.9,507.6c-5.5,0.1-8.3-3.8-8.4-11.6c0.1-7.8,2.9-11.7,8.4-11.7s8.3,3.8,8.4,11.7
							C255.1,503.8,252.3,507.7,246.9,507.6z M251.2,496c0-3-0.2-5.2-0.9-6.7c-0.6-1.5-1.8-2.3-3.4-2.3c-1.6,0-2.8,0.8-3.4,2.3
							c-0.6,1.5-0.9,3.8-0.9,6.7s0.3,5.2,0.9,6.7c0.6,1.5,1.8,2.2,3.4,2.2c1.7,0,2.8-0.7,3.4-2.2S251.2,498.9,251.2,496L251.2,496
							L251.2,496z"/>
						
							<linearGradient id="SVGID_68_" gradientUnits="userSpaceOnUse" x1="412.6057" y1="106.0782" x2="196.2579" y2="-155.4767" gradientTransform="matrix(1 0 0 -1 0 433.5898)">
							<stop  offset="0" style="stop-color:#00274D"/>
							<stop  offset="1" style="stop-color:#00274D;stop-opacity:0"/>
						</linearGradient>
						<path class="st72" d="M246.9,539.5c-5.5,0.1-8.3-3.8-8.4-11.6c0.1-7.8,2.9-11.7,8.4-11.7s8.3,3.8,8.4,11.7
							C255.1,535.7,252.3,539.5,246.9,539.5z M251.2,527.9c0-3-0.2-5.2-0.9-6.7c-0.6-1.5-1.8-2.3-3.4-2.3c-1.6,0-2.8,0.8-3.4,2.3
							c-0.6,1.5-0.9,3.8-0.9,6.7c0,2.9,0.3,5.2,0.9,6.7c0.6,1.5,1.8,2.2,3.4,2.2c1.7,0,2.8-0.7,3.4-2.2
							C250.9,533,251.2,530.8,251.2,527.9L251.2,527.9L251.2,527.9z"/>
						
							<linearGradient id="SVGID_69_" gradientUnits="userSpaceOnUse" x1="428.8237" y1="91.6393" x2="213.3831" y2="-168.8188" gradientTransform="matrix(1 0 0 -1 0 433.5898)">
							<stop  offset="0" style="stop-color:#00274D"/>
							<stop  offset="1" style="stop-color:#00274D;stop-opacity:0"/>
						</linearGradient>
						<path class="st73" d="M253.5,568.6v2.5H242v-2.5h3.8v-16.5l-3.5,1.9l-1.3-2.2l6.3-3.4h2.5v20.2H253.5L253.5,568.6L253.5,568.6
							z"/>
					</g>
					<g>
						
							<linearGradient id="SVGID_70_" gradientUnits="userSpaceOnUse" x1="410.8858" y1="107.7862" x2="194.5376" y2="-153.7693" gradientTransform="matrix(1 0 0 -1 0 433.5898)">
							<stop  offset="0" style="stop-color:#00274D"/>
							<stop  offset="1" style="stop-color:#00274D;stop-opacity:0"/>
						</linearGradient>
						<path class="st74" d="M270.1,507.6c-5.5,0.1-8.3-3.8-8.4-11.6c0.1-7.8,2.9-11.7,8.4-11.7s8.3,3.8,8.4,11.7
							C278.4,503.8,275.6,507.7,270.1,507.6z M274.4,496c0-3-0.2-5.2-0.9-6.7c-0.6-1.5-1.8-2.3-3.4-2.3s-2.8,0.8-3.4,2.3
							c-0.6,1.5-0.9,3.8-0.9,6.7s0.3,5.2,0.9,6.7c0.6,1.5,1.8,2.2,3.4,2.2c1.7,0,2.8-0.7,3.4-2.2C274.2,501.2,274.5,498.9,274.4,496
							L274.4,496L274.4,496z"/>
						
							<linearGradient id="SVGID_71_" gradientUnits="userSpaceOnUse" x1="427.2061" y1="93.4754" x2="211.7654" y2="-166.9828" gradientTransform="matrix(1 0 0 -1 0 433.5898)">
							<stop  offset="0" style="stop-color:#00274D"/>
							<stop  offset="1" style="stop-color:#00274D;stop-opacity:0"/>
						</linearGradient>
						<path class="st75" d="M276.7,536.7v2.5h-11.4v-2.5h3.8v-16.5l-3.5,1.9l-1.3-2.2l6.3-3.4h2.5v20.2H276.7L276.7,536.7
							L276.7,536.7z"/>
						
							<linearGradient id="SVGID_72_" gradientUnits="userSpaceOnUse" x1="442.7276" y1="82.5813" x2="226.3793" y2="-178.974" gradientTransform="matrix(1 0 0 -1 0 433.5898)">
							<stop  offset="0" style="stop-color:#00274D"/>
							<stop  offset="1" style="stop-color:#00274D;stop-opacity:0"/>
						</linearGradient>
						<path class="st76" d="M270.1,571.3c-5.5,0.1-8.3-3.8-8.4-11.6c0.1-7.8,2.9-11.7,8.4-11.7s8.3,3.8,8.4,11.7
							C278.4,567.5,275.6,571.4,270.1,571.3z M274.4,559.7c0-3-0.2-5.2-0.9-6.7c-0.6-1.5-1.8-2.3-3.4-2.3s-2.8,0.8-3.4,2.3
							c-0.6,1.5-0.9,3.8-0.9,6.7c0,2.9,0.3,5.2,0.9,6.7c0.6,1.5,1.8,2.2,3.4,2.2c1.7,0,2.8-0.7,3.4-2.2
							C274.2,564.9,274.5,562.7,274.4,559.7L274.4,559.7L274.4,559.7z"/>
					</g>
					<g>
						
							<linearGradient id="SVGID_73_" gradientUnits="userSpaceOnUse" x1="456.9581" y1="71.6619" x2="240.6098" y2="-189.8935" gradientTransform="matrix(1 0 0 -1 0 433.5898)">
							<stop  offset="0" style="stop-color:#00274D"/>
							<stop  offset="1" style="stop-color:#00274D;stop-opacity:0"/>
						</linearGradient>
						<path class="st77" d="M293.4,571.3c-5.5,0.1-8.3-3.8-8.4-11.6c0.1-7.8,2.9-11.7,8.4-11.7s8.3,3.8,8.4,11.7
							C301.6,567.5,298.8,571.4,293.4,571.3z M297.7,559.7c0-3-0.2-5.2-0.9-6.7c-0.6-1.5-1.8-2.3-3.4-2.3s-2.8,0.8-3.4,2.3
							c-0.6,1.5-0.9,3.8-0.9,6.7c0,2.9,0.3,5.2,0.9,6.7c0.6,1.5,1.8,2.2,3.4,2.2c1.7,0,2.8-0.7,3.4-2.2
							C297.5,564.9,297.8,562.7,297.7,559.7L297.7,559.7L297.7,559.7z"/>
					</g>
				</g>
			</g>
		</g>
		
			<linearGradient id="SVGID_74_" gradientUnits="userSpaceOnUse" x1="6.5039" y1="90.0046" x2="27.4082" y2="-139.9417" gradientTransform="matrix(1 0 0 -1 0 433.5898)">
			<stop  offset="0" style="stop-color:#00274D"/>
			<stop  offset="0.5699" style="stop-color:#00274D"/>
			<stop  offset="0.6885" style="stop-color:#002B52;stop-opacity:0.7303"/>
			<stop  offset="0.8219" style="stop-color:#00355F;stop-opacity:0.4269"/>
			<stop  offset="0.962" style="stop-color:#004676;stop-opacity:0.1083"/>
			<stop  offset="1" style="stop-color:#004C7D;stop-opacity:2.192997e-02"/>
		</linearGradient>
		<path class="st78" d="M31.1,455.3c-1.4,11.3-9.3,22-16.6,32.4c-7.3,10.5-14.1,21.5-12.9,32.9c1.3,13,12.7,24.6,22,36.3
			c34.3,43.5,40.3,95.3,16.4,141.5c-1.4,2.7-3.8,5.9-8.3,6.2c-5.8,0.5-9.4-3.7-11-7.2C7.6,668.9,9.9,637.8,27,610.2
			c7.2-11.4,16.7-22.5,20.6-34.5c4.6-14.6,0.6-29.8-7-43.8s-18.8-27.3-28.7-40.7c-6.4-8.6-12.4-18.3-8.3-27.4
			c3.1-7,11.8-12.6,16.6-19.2c10.4-14.4,1.8-31.1-6.9-46c5.5,9.3-6.5,19.9,2.3,29.3S32.5,443.5,31.1,455.3z"/>
		
			<linearGradient id="SVGID_75_" gradientUnits="userSpaceOnUse" x1="83.9861" y1="-305.7215" x2="92.6559" y2="67.0772" gradientTransform="matrix(1 0 0 -1 0 433.5898)">
			<stop  offset="0" style="stop-color:#004E7F;stop-opacity:0"/>
			<stop  offset="0.2917" style="stop-color:#004B7B;stop-opacity:0.2917"/>
			<stop  offset="0.5662" style="stop-color:#004270;stop-opacity:0.5662"/>
			<stop  offset="0.833" style="stop-color:#00335D;stop-opacity:0.833"/>
			<stop  offset="1" style="stop-color:#00274D"/>
		</linearGradient>
		<path class="st79" d="M73.9,650c8.8-25.9,20.5-51.7,19.5-78.4C92,538.6,71.1,506,79.5,473.5c4.3-16.4,15.7-31.5,18.5-48.1
			c2.5-15.1-2.4-30.1-4.9-45.2c-5.1-30.5-0.9-61.3,3.4-91.9c16.3,25.5,14.9,56.7-3.6,81.4c-5,6.7-11.3,13.1-13.1,20.6
			c-3.5,14.6,10.5,28,16.4,42.2c11.4,27-7,55.2-16.9,82.5c-10.5,29-11.4,60-2.5,89.4c11.2,36.8,37.5,73.6,25.7,110.2
			c-6.8,21.1-31.5,18.7-36-1.1C61.6,692.4,67,670.5,73.9,650z"/>
		<g>
			<path class="st80" d="M352.7,735.7c0.1-3.9-5.2-4.3-3.9-9.2c15.3-8.1-21.1-28.3-25.3-37.5c-5.4-16.8,4.1-33.6,3.7-50.5
				c-0.2-3.6-9.5-6.1-11.1-11.3c-3.9-13.7-5.1-27.9-9.4-41.5c-10-25.3-24.3-53.5-53.3-60.5c-29.7-6.8-69.6-3.4-99.2,2.8
				c18.4,3.8,38.5-0.8,56.4,5.3c27.3,10.1-12.5,44-21.9,49.5c-11.4,7.1-22.7,18.9-37.2,13.6c-16.6-6.7-23.1-25.8-40.3-32.2
				c-0.1,13,12.2,22.8,9.2,35.9c-4.9,10.6-19.4,17.8-21.7,29.1c16.5-3.9,35-14.5,52.2-9.3c-5.3,9.4-3.1,21.7-4.9,32.2
				c-5.4,9.9-17.4,15.8-20.8,26.6c0.1,10.8,18,9.2,25.2,11.1c22.8,6,41.7,17.9,59.2,33.4c-6.5-3.4-17.2-2.4-17.2-0.6
				c15,19.3,51,46.3,76.7,41.5c16.8-4.2,25.3-22.5,42.9-25.6C321.7,741.3,347.8,748,352.7,735.7
				C352.8,734.3,353.3,738.2,352.7,735.7z"/>
		</g>
		<path class="st81" d="M337.6,738.8c-1.4-1.5-3.1-2.7-2.3-5.7c14.8-7.8-20.4-27.3-24.4-36.2c-5.2-16.2,4-32.5,3.6-48.8
			c-0.2-3.5-9.2-5.9-10.7-10.9c-3.8-13.2-4.9-26.9-9.1-40.1c-9.7-24.4-16.1-55.3-44.1-62c-11.7-2.7-25.9-7.4-39.5-7.3
			c2,0.4,4.1,1,6.1,1.6c18,6.7,1.4,33.4-11.1,45.4c-7.5,9.8-20.9,16.9-25.4,19.5c-11,6.9-21.9,18.3-35.9,13.1
			c-9.7-3.9-14.9-20.1-21.9-27.4c1.7,4.2,1.8,16.5,0.7,21.2c-2.3,4.9-6.6,9-10.8,13.2c-1.9,2.8-1,1.8-3.5,4.4
			c-1.5,2.2-5,4.6-5.5,7.1c15.9-3.8,34.7-13.4,51.3-8.4c-5.1,9.1-5,23.8-6.7,34c-2.5,4.5-6.4,8.2-10.2,11.9c-2,2.9-4.5,5.5-7.1,8
			c-1.2,1.8-2.2,3.6-2.8,5.7c0.1,10.4,17.4,8.9,24.3,10.7c22,5.8,42.5,22.2,59.4,37.2c-6.3-3.3-16.6-3.1-16.6-1.4
			c14.5,18.6,47,40.6,71.8,36c16.2-4.1,24.4-21.7,41.4-24.7C314.8,736.7,328,740.2,337.6,738.8z"/>
		<g>
			
				<linearGradient id="SVGID_76_" gradientUnits="userSpaceOnUse" x1="-20.0578" y1="132.58" x2="-26.2395" y2="-160.429" gradientTransform="matrix(1 0 0 -1 0 433.5898)">
				<stop  offset="0" style="stop-color:#00274D"/>
				<stop  offset="0.2697" style="stop-color:#002B52;stop-opacity:0.7303"/>
				<stop  offset="0.573" style="stop-color:#00355F;stop-opacity:0.427"/>
				<stop  offset="0.8914" style="stop-color:#004776;stop-opacity:0.1086"/>
				<stop  offset="1" style="stop-color:#004E7F;stop-opacity:0"/>
			</linearGradient>
			<path class="st82" d="M-30,693c-26.2-22.1-26-48-18.8-72.5s20.6-48.8,19.1-73.4c-1.1-17.4-9.8-34.7-8.2-52.1
				c1.5-16.5,12.2-32.5,15.9-48.9c7.7-33.6-13.6-68.3,8.9-100.6C8.8,361,5.5,380.4-2.6,397.9c-8.3,17.6-20.8,35.3-15.8,53.1
				c3.9,13.9,18.5,28.2,7.2,41.5c-6,7.1-19.1,13-23.6,20.2c-10.4,17.1,29.1,32.8,31.1,50.4c1.6,14-20.7,26.6-25.7,40.5
				c-5.9,16.5,12.8,32.5,22.6,48.7c9.8,16.1,6.3,36.7-28.4,44.9"/>
			<g>
				<g>
					<g>
						<defs>
							<path id="SVGID_77_" d="M312,574.9c0,108.6-93.7,154.8-209.4,154.8s-209.4-46.2-209.4-154.8s93.7-309.6,209.4-309.6
								S312,466.3,312,574.9z"/>
						</defs>
						<clipPath id="SVGID_78_">
							<use xlink:href="#SVGID_77_"  style="overflow:visible;"/>
						</clipPath>
						<g class="st83">
							<path class="st84" d="M11.9,599.9c0.5-1.8-1.7-3-0.6-5c10.1-1-7.5-13.3-8.4-19.3c-1.3-8.3,5.6-13.9,6.1-20.5
								c0.2-1.5-4.6-3.1-5-5.4c-1.2-5.7-0.5-12.2-2-17.9c-3.7-14.4-12-27.8-23.8-36.9c-14.9-11-37.4-23.9-56.6-20.7
								c11.5,2.8,24.1,6,33,14.2c11.1,12.5-6.5,23.9-16.5,27.9c-9.6,4.1-13.6,10.7-21.8,6c-8.9-6.4-11.7-18.3-22.6-22.4
								c-0.8,7.8,7.9,15.4,5.3,23.4c-2.3,6.8-12.2,13.8-11.3,17c1.4,1.2,21.1-6.3,27.1-2.3c-2.5,1.5-3,17.9-4.1,20.7
								c-1.9,5.3-10.8,12.4-11.1,17.1c-0.6,6.8,4.6,4.5,11.8,5.1c9.7,0.4,21.5,3.1,29.7,8.5c-3.3-0.7-9.1,1.2-9.2,2.1
								c9.8,7.2,26.5,11.9,38.5,10.8c8.5-1.4,14.3-8.4,23-7.7C-6.1,595,11.6,604.5,11.9,599.9C12.1,599.3,11.9,601.2,11.9,599.9z"/>
						</g>
						<path class="st85" d="M3.4,558.5c0.2-1.5-4.6-3.1-5-5.4c-1.2-5.7-0.5-12.2-2-17.9c-3.7-14.4-12-27.8-23.8-36.9
							c-7-5.1-15.6-10.7-24.7-14.8c2.4,1.4,4.7,3.1,6.8,5c6.5,7.3,3.2,14.2-2.6,19.5c-4.3,4.8-11,8.5-15.9,10.4
							c-6.5,2.8-10.4,6.6-14.8,7.5c-3.4,1.7-6.5,2.3-10.7-0.1c-6.4-4.6-9.7-12.1-15.1-17.5c2.1,5,5.2,10,3.5,15.1
							c-2.3,6.8-12.2,13.8-11.3,17c1.4,1.2,21.1-6.3,27.1-2.3c-2.5,1.5-3,17.9-4.1,20.7c-1.9,5.3-10.8,12.4-11.1,17.1
							c-0.6,6.8,4.6,4.5,11.8,5.1c9.7,0.4,21.5,3.1,29.7,8.5c-1.4-0.3-3.3-0.1-5,0.2c1,0.5,2,1.1,3,1.8c-1.5-0.3-3.5-0.1-5.3,0.3
							c0.6,0.3,1.1,0.7,1.6,1c-0.6-0.1-1.2-0.1-1.9-0.1c9.9,6.6,25.5,10.7,36.9,9.7c8.5-1.4,14.3-8.4,23-7.7c0.3,0.2,6.8,3.8,12,5.6
							c-0.2-0.6-0.2-1.2,0.2-1.9c10.1-1-7.5-13.3-8.4-19.3C-4,570.7,2.9,565.1,3.4,558.5z"/>
					</g>
				</g>
			</g>
		</g>
		<g>
			<path class="st86" d="M122,545.7c0.1-1.7-1.5-2.1-1-4.1c6.6-3.6-6.7-8.3-8-12.4c-2-5.7,2.1-11.7,1.6-16.8
				c-0.1-1.2-3.6-0.8-4.2-2.4c-1.6-3.9-2-10.2-3.8-15.1c-4.2-11.9-11.6-23.6-21.9-31.2c-12.9-8.5-29-7.2-42.1,0
				c8.1-2.3,18.9-5,24.8-1.3c9.4,5.8,0.6,16.4-6.9,20.1c-5.8,3.4-7.5,7.1-13.7,5.9c-6.9-1.3-10.3-7.4-18.8-3.5
				c0.8,4.1,7.8,3.8,7.4,8.9c-0.4,4.3-5.9,14-4.7,15.4c1.1,0,12.9-12.3,17.6-10.3c-1.4,1.5,0.8,13.9,0.5,16.2
				c-0.4,4.4-5.2,11.1-4.7,14.8c0.7,5.3,3.7,3.2,8.5,3.1c7,0,13.5,1,20.8,6.1c-2.3-0.7-5.8,0.9-5.8,1.6c7.3,5.2,18,8.5,26.9,9.2
				c5.5-0.4,8.4-5,14.3-5.3C109.4,544.8,122.4,549.7,122,545.7C122.1,545.1,122.1,546.8,122,545.7z"/>
		</g>
		<path class="st87" d="M111.5,531c-2-5.7,2.1-11.7,1.6-16.8c-0.1-1.2-3.6-0.8-4.2-2.4c-1.6-3.9-2-10.2-3.8-15.1
			c-4.2-11.9-11.6-23.6-21.9-31.2c-10.3-6.8-22.7-7.3-34-3.6c6.7-1.5,13.8-2.3,18.2,0.4c6.4,3.9,4.4,10.1,0.1,14.8
			c-2.2,3-5.4,5.7-8.5,7.2c-5.8,3.4-7.5,7.1-13.7,5.9c-6.4-1.2-9.7-6.5-16.9-4.2c1.7,3,7.3,3.2,7,7.8c-0.4,4.3-5.9,14-4.7,15.4
			c1.1,0,12.9-12.3,17.6-10.3c-1.4,1.5,0.8,13.9,0.5,16.2c-0.4,4.4-5.2,11.1-4.7,14.8c0.7,5.3,3.7,3.2,8.5,3.1c7,0,13.5,1,20.8,6.1
			c-1.2-0.4-2.7-0.1-3.9,0.3c0.8,0.5,1.6,1,2.4,1.5c-1.1-0.3-2.5-0.1-3.6,0.2c7.3,4.9,17.6,8.1,26.2,8.7c5.5-0.4,8.4-5,14.3-5.3
			c0.5,0.2,8.3,3.1,11.7,2.6c-0.1-1.4-1.4-1.9-1-3.8c0.7-0.4,1.1-0.7,1.4-1.1c0-0.2,0-0.5,0.1-0.7c0.1-0.1,0.2-0.1,0.3-0.2
			C121.7,538.1,112.5,534.4,111.5,531z"/>
		
			<linearGradient id="SVGID_79_" gradientUnits="userSpaceOnUse" x1="-693.6229" y1="781.0832" x2="-692.0615" y2="763.9079" gradientTransform="matrix(-0.2897 1.1792 1.2641 0.3105 -1101.5643 1219.2227)">
			<stop  offset="0" style="stop-color:#004E7F;stop-opacity:0"/>
			<stop  offset="0.2917" style="stop-color:#004B7B;stop-opacity:0.2917"/>
			<stop  offset="0.5662" style="stop-color:#004270;stop-opacity:0.5662"/>
			<stop  offset="0.833" style="stop-color:#00335D;stop-opacity:0.833"/>
			<stop  offset="1" style="stop-color:#00274D"/>
		</linearGradient>
		<path class="st88" d="M67.6,630.6c7.2,1.7,11.8,8.2,10.1,14.5c-1.3,4.9-5.9,8.3-11.3,8.8c6.9,0.3,13.1-3.7,14.7-9.8
			c1.8-7-3.2-14.2-11.2-16.1c-8-1.8-15.9,2.3-17.8,9.2C54.6,632,61.1,629.1,67.6,630.6z"/>
		
			<linearGradient id="SVGID_80_" gradientUnits="userSpaceOnUse" x1="-365.2704" y1="655.1318" x2="-362.657" y2="626.3846" gradientTransform="matrix(0.2545 1.1873 1.2728 -0.2729 -684.9712 1268.0953)">
			<stop  offset="0" style="stop-color:#004E7F;stop-opacity:0"/>
			<stop  offset="0.2917" style="stop-color:#004B7B;stop-opacity:0.2917"/>
			<stop  offset="0.5662" style="stop-color:#004270;stop-opacity:0.5662"/>
			<stop  offset="0.833" style="stop-color:#00335D;stop-opacity:0.833"/>
			<stop  offset="1" style="stop-color:#00274D"/>
		</linearGradient>
		<path class="st89" d="M17,649.6c12.2-2.5,24.1,4.2,26.6,15c1.9,8.3-2.4,16.6-10.1,21c10.6-4.3,16.9-14.6,14.6-24.9
			c-2.7-11.9-15.9-19.3-29.5-16.6c-13.4,2.7-22.2,14.4-19.7,26.1C-1.5,660.7,6,651.8,17,649.6z"/>
		
			<linearGradient id="SVGID_81_" gradientUnits="userSpaceOnUse" x1="-249.8781" y1="780.6806" x2="-249.2144" y2="773.3792" gradientTransform="matrix(0.3405 0.9403 0.9403 -0.3405 -576.2973 1078.248)">
			<stop  offset="0" style="stop-color:#004E7F;stop-opacity:0"/>
			<stop  offset="0.2917" style="stop-color:#004B7B;stop-opacity:0.2917"/>
			<stop  offset="0.5662" style="stop-color:#004270;stop-opacity:0.5662"/>
			<stop  offset="0.833" style="stop-color:#00335D;stop-opacity:0.833"/>
			<stop  offset="1" style="stop-color:#00274D"/>
		</linearGradient>
		<path class="st90" d="M64.9,578c2.4-0.6,5.1,0.2,5.9,1.8c0.7,1.2,0.1,2.5-1.3,3.3c2-0.8,2.9-2.4,2.1-3.9c-1-1.7-3.9-2.6-6.6-2
			c-2.6,0.6-4,2.5-3.1,4.2C61.5,579.9,62.7,578.5,64.9,578z"/>
		
			<linearGradient id="SVGID_82_" gradientUnits="userSpaceOnUse" x1="-0.9368" y1="275.709" x2="-0.1679" y2="267.2511" gradientTransform="matrix(0.8782 0.6238 0.6852 -0.9647 -136.5451 867.7081)">
			<stop  offset="0" style="stop-color:#004E7F;stop-opacity:0"/>
			<stop  offset="0.2917" style="stop-color:#004B7B;stop-opacity:0.2917"/>
			<stop  offset="0.5662" style="stop-color:#004270;stop-opacity:0.5662"/>
			<stop  offset="0.833" style="stop-color:#00335D;stop-opacity:0.833"/>
			<stop  offset="1" style="stop-color:#00274D"/>
		</linearGradient>
		<path class="st91" d="M42.4,606.7c1.9-2.7,5.7-3.4,8.3-1.5c2.1,1.5,2.9,4,2.3,6.4c1.2-2.8,0.4-6.2-2.2-8c-3-2.1-7.1-1.3-9.2,1.7
			s-1.5,7.1,1.4,9.2C41,612.4,40.7,609.1,42.4,606.7z"/>
		
			<radialGradient id="SVGID_83_" cx="-1001.267" cy="-530.9459" r="18.829" gradientTransform="matrix(-0.728 0.9718 -1.0418 -0.7805 -921.9982 1215.8234)" gradientUnits="userSpaceOnUse">
			<stop  offset="0" style="stop-color:#00BAE2;stop-opacity:0.1"/>
			<stop  offset="0.8308" style="stop-color:#95D2E7"/>
			<stop  offset="1" style="stop-color:#FFFFFF"/>
		</radialGradient>
		<path class="st92" d="M373.3,645.3c-10.1-7.1-24.1-5.7-31.2,3.2c-5.5,6.9-5.2,16.2-0.2,23.3c-7.8-8.2-9-20.1-2.2-28.7
			c7.8-9.8,23.3-11.4,34.5-3.5c11.1,7.8,13.9,22,6.3,31.8C385.3,662.8,382.4,651.7,373.3,645.3z"/>
		
			<radialGradient id="SVGID_84_" cx="-1227.5793" cy="-616.673" r="7.2709" gradientTransform="matrix(-0.7027 0.7115 -0.7115 -0.7027 -941.2443 997.9025)" gradientUnits="userSpaceOnUse">
			<stop  offset="0" style="stop-color:#00BAE2;stop-opacity:0.1"/>
			<stop  offset="0.8308" style="stop-color:#95D2E7"/>
			<stop  offset="1" style="stop-color:#FFFFFF"/>
		</radialGradient>
		<path class="st93" d="M364.8,555.6c-3.3-2.5-8-3-10.5-1.2c-1.9,1.4-2,3.8-0.4,5.9c-2.5-2.6-2.7-5.7-0.3-7.4c2.8-2,8-1.4,11.6,1.4
			c3.6,2.7,4.3,6.5,1.6,8.5C368.6,560.8,367.7,557.8,364.8,555.6z"/>
		
			<radialGradient id="SVGID_85_" cx="-1226.1741" cy="-522.1488" r="9.8935" gradientTransform="matrix(-0.8012 0.7201 -0.791 -0.8801 -1010.1429 1027.2562)" gradientUnits="userSpaceOnUse">
			<stop  offset="0" style="stop-color:#00BAE2;stop-opacity:0.1"/>
			<stop  offset="0.8308" style="stop-color:#95D2E7"/>
			<stop  offset="1" style="stop-color:#FFFFFF"/>
		</radialGradient>
		<path class="st94" d="M392.4,599.3c-3.8-4.2-10.2-4.7-14.3-1c-3.2,2.8-4,7.3-2.5,11.1c-2.7-4.5-1.9-10.3,2-13.9
			c4.6-4.1,11.7-3.5,15.9,1.1c4.2,4.6,4,11.6-0.5,15.7C396,608.7,395.8,603.1,392.4,599.3z"/>
		
			<linearGradient id="SVGID_86_" gradientUnits="userSpaceOnUse" x1="-560.0344" y1="1005.2065" x2="-559.0308" y2="994.1664" gradientTransform="matrix(4.489659e-11 1 1 -4.489659e-11 -860.7256 1087.7395)">
			<stop  offset="0" style="stop-color:#004E7F;stop-opacity:0"/>
			<stop  offset="0.2917" style="stop-color:#004B7B;stop-opacity:0.2917"/>
			<stop  offset="0.5662" style="stop-color:#004270;stop-opacity:0.5662"/>
			<stop  offset="0.833" style="stop-color:#00335D;stop-opacity:0.833"/>
			<stop  offset="1" style="stop-color:#00274D"/>
		</linearGradient>
		<path class="st95" d="M133.7,523.7c3.7,0,6.7,2.7,6.7,5.9c0,2.5-1.8,4.7-4.3,5.5c3.3-0.6,5.8-3.3,5.8-6.4c0-3.6-3.3-6.6-7.4-6.6
			c-4,0-7.3,2.9-7.4,6.5C127.7,525.8,130.4,523.7,133.7,523.7z"/>
		
			<linearGradient id="SVGID_87_" gradientUnits="userSpaceOnUse" x1="-585.3002" y1="999.589" x2="-584.6841" y2="992.8123" gradientTransform="matrix(4.489659e-11 1 1 -4.489659e-11 -860.7256 1087.7395)">
			<stop  offset="0" style="stop-color:#004E7F;stop-opacity:0"/>
			<stop  offset="0.2917" style="stop-color:#004B7B;stop-opacity:0.2917"/>
			<stop  offset="0.5662" style="stop-color:#004270;stop-opacity:0.5662"/>
			<stop  offset="0.833" style="stop-color:#00335D;stop-opacity:0.833"/>
			<stop  offset="1" style="stop-color:#00274D"/>
		</linearGradient>
		<path class="st96" d="M132.2,498.4c2.3,0,4.1,2.4,4.1,5.5c0,2.3-1.1,4.3-2.6,5.1c2-0.6,3.6-3,3.6-5.9c0-3.3-2-6.1-4.5-6.1
			s-4.5,2.7-4.5,6C128.5,500.4,130.2,498.4,132.2,498.4z"/>
		<g>
			<path class="st97" d="M352.7,735.7C353.3,738.2,352.8,734.3,352.7,735.7L352.7,735.7z"/>
		</g>
		
			<ellipse transform="matrix(0.7897 -0.6135 0.6135 0.7897 -177.5966 183.0611)" class="st98" cx="178.2" cy="350.6" rx="23.6" ry="56.7"/>
	</g>
</g>
</svg>
