<?xml version="1.0" encoding="utf-8"?>
<!-- Generator: Adobe Illustrator 22.1.0, SVG Export Plug-In . SVG Version: 6.00 Build 0)  -->
<svg version="1.1" id="Layer_1" xmlns="http://www.w3.org/2000/svg" xmlns:xlink="http://www.w3.org/1999/xlink" x="0px" y="0px"
	 viewBox="0 0 574 530.2" style="enable-background:new 0 0 574 530.2;" xml:space="preserve">
<style type="text/css">
	.st0{fill:#F2F8F9;}
	.st1{fill:url(#SVGID_1_);}
	.st2{opacity:0.24;}
	.st3{fill:url(#SVGID_2_);}
	.st4{fill:url(#SVGID_3_);}
	.st5{fill:url(#SVGID_4_);}
	.st6{fill:url(#SVGID_5_);}
	.st7{fill:url(#SVGID_6_);}
	.st8{fill:url(#SVGID_7_);}
	.st9{fill:url(#SVGID_8_);}
	.st10{fill:url(#SVGID_9_);}
	.st11{fill:url(#SVGID_10_);}
	.st12{fill:url(#SVGID_11_);}
	.st13{fill:url(#SVGID_12_);}
	.st14{fill:url(#SVGID_13_);}
	.st15{fill:url(#SVGID_14_);}
	.st16{fill:url(#SVGID_15_);}
	.st17{fill:url(#SVGID_16_);}
	.st18{fill:url(#SVGID_17_);}
	.st19{fill:url(#SVGID_18_);}
	.st20{fill:url(#SVGID_19_);}
	.st21{fill:url(#SVGID_20_);}
	.st22{fill:url(#SVGID_21_);}
	.st23{fill:url(#SVGID_22_);}
	.st24{fill:url(#SVGID_23_);}
	.st25{fill:url(#SVGID_24_);}
	.st26{fill:url(#SVGID_25_);}
	.st27{fill:url(#SVGID_26_);}
	.st28{fill:url(#SVGID_27_);}
	.st29{fill:url(#SVGID_28_);}
	.st30{fill:url(#SVGID_29_);}
	.st31{fill:url(#SVGID_30_);}
	.st32{fill:url(#SVGID_31_);}
	.st33{fill:url(#SVGID_32_);}
	.st34{fill:url(#SVGID_33_);}
	.st35{fill:url(#SVGID_34_);}
	.st36{fill:url(#SVGID_35_);}
	.st37{fill:url(#SVGID_36_);}
	.st38{fill:url(#SVGID_37_);}
	.st39{fill:url(#SVGID_38_);}
	.st40{fill:url(#SVGID_39_);}
	.st41{fill:url(#SVGID_40_);}
	.st42{fill:url(#SVGID_41_);}
	.st43{fill:url(#SVGID_42_);}
	.st44{fill:url(#SVGID_43_);}
	.st45{fill:url(#SVGID_44_);}
	.st46{fill:url(#SVGID_45_);}
	.st47{fill:url(#SVGID_46_);}
	.st48{fill:url(#SVGID_47_);}
	.st49{fill:url(#SVGID_48_);}
	.st50{fill:url(#SVGID_49_);}
	.st51{fill:url(#SVGID_50_);}
	.st52{fill:url(#SVGID_51_);}
	.st53{fill:url(#SVGID_52_);}
	.st54{fill:url(#SVGID_53_);}
	.st55{fill:url(#SVGID_54_);}
	.st56{fill:url(#SVGID_55_);}
	.st57{fill:url(#SVGID_56_);}
	.st58{fill:url(#SVGID_57_);}
	.st59{fill:url(#SVGID_58_);}
	.st60{fill:url(#SVGID_59_);}
	.st61{fill:url(#SVGID_60_);}
	.st62{fill:url(#SVGID_61_);}
	.st63{fill:url(#SVGID_62_);}
	.st64{fill:url(#SVGID_63_);}
	.st65{fill:url(#SVGID_64_);}
	.st66{fill:url(#SVGID_65_);}
	.st67{fill:url(#SVGID_66_);}
	.st68{fill:url(#SVGID_67_);}
	.st69{fill:url(#SVGID_68_);}
	.st70{fill:url(#SVGID_69_);}
	.st71{fill:url(#SVGID_70_);}
	.st72{fill:#FFF200;}
	.st73{fill:#705A00;}
	.st74{fill:url(#SVGID_71_);}
	.st75{clip-path:url(#SVGID_73_);}
	.st76{fill:#8EEF8E;}
	.st77{clip-path:url(#SVGID_75_);fill:#043F04;}
	.st78{fill:#FF313C;}
	.st79{fill:#5E1216;}
	.st80{fill:url(#SVGID_76_);}
	.st81{fill:url(#SVGID_77_);}
	.st82{fill:url(#SVGID_78_);}
	.st83{fill:url(#SVGID_79_);}
	.st84{fill:url(#SVGID_80_);}
	.st85{fill:url(#SVGID_81_);}
	.st86{fill:#B79800;}
	.st87{fill:#F2F8F9;fill-opacity:0.72;}
</style>
<path class="st0" d="M445.9,323.7c0,108.6-93.7,154.8-209.4,154.8S27.1,432.3,27.1,323.7S120.8,14.1,236.5,14.1
	S445.9,215.1,445.9,323.7z"/>
<linearGradient id="SVGID_1_" gradientUnits="userSpaceOnUse" x1="380.9329" y1="304.1743" x2="132.9329" y2="700.8409" gradientTransform="matrix(1 0 0 1 0 -236)">
	<stop  offset="0" style="stop-color:#B2D7E8"/>
	<stop  offset="0.2513" style="stop-color:#6994A8"/>
	<stop  offset="0.5822" style="stop-color:#6792A6"/>
	<stop  offset="0.7014" style="stop-color:#618BA1"/>
	<stop  offset="0.7864" style="stop-color:#558097"/>
	<stop  offset="0.8551" style="stop-color:#456F89"/>
	<stop  offset="0.9139" style="stop-color:#305976"/>
	<stop  offset="0.9651" style="stop-color:#163E60"/>
	<stop  offset="1" style="stop-color:#00274D"/>
</linearGradient>
<path class="st1" d="M449.8,319.7c0,108.6-93.7,154.8-209.4,154.8S31,428.3,31,319.7S124.7,10.1,240.4,10.1S449.8,211.1,449.8,319.7
	z"/>
<g class="st2">
	<g>
		<g>
			
				<linearGradient id="SVGID_2_" gradientUnits="userSpaceOnUse" x1="341.4604" y1="408.2873" x2="126.0198" y2="147.8292" gradientTransform="matrix(1 0 0 -1 0 275.6)">
				<stop  offset="0" style="stop-color:#00274D"/>
				<stop  offset="1" style="stop-color:#00274D;stop-opacity:0"/>
			</linearGradient>
			<path class="st3" d="M130.5,137v2.5h-11.4V137h3.8v-16.5l-3.5,1.9l-1.3-2.2l6.3-3.4h2.5V137H130.5L130.5,137L130.5,137z"/>
		</g>
		<g>
			
				<linearGradient id="SVGID_3_" gradientUnits="userSpaceOnUse" x1="339.6161" y1="411.9949" x2="123.2676" y2="150.4396" gradientTransform="matrix(1 0 0 -1 0 275.6)">
				<stop  offset="0" style="stop-color:#00274D"/>
				<stop  offset="1" style="stop-color:#00274D;stop-opacity:0"/>
			</linearGradient>
			<path class="st4" d="M147.2,107.9c-5.5,0.1-8.3-3.8-8.4-11.6c0.1-7.8,2.9-11.7,8.4-11.7s8.3,3.8,8.4,11.7
				C155.4,104.1,152.6,107.9,147.2,107.9z M151.5,96.3c0-3-0.2-5.2-0.9-6.7c-0.6-1.5-1.8-2.3-3.4-2.3s-2.8,0.8-3.4,2.3
				c-0.6,1.5-0.9,3.8-0.9,6.7s0.3,5.2,0.9,6.7c0.6,1.5,1.8,2.2,3.4,2.2c1.7,0,2.8-0.7,3.4-2.2S151.5,99.2,151.5,96.3L151.5,96.3
				L151.5,96.3z"/>
			
				<linearGradient id="SVGID_4_" gradientUnits="userSpaceOnUse" x1="355.751" y1="397.3956" x2="140.3105" y2="136.9373" gradientTransform="matrix(1 0 0 -1 0 275.6)">
				<stop  offset="0" style="stop-color:#00274D"/>
				<stop  offset="1" style="stop-color:#00274D;stop-opacity:0"/>
			</linearGradient>
			<path class="st5" d="M153.8,137v2.5h-11.4V137h3.8v-16.5l-3.5,1.9l-1.3-2.2l6.3-3.4h2.5V137H153.8L153.8,137L153.8,137z"/>
			
				<linearGradient id="SVGID_5_" gradientUnits="userSpaceOnUse" x1="371.4673" y1="386.782" x2="155.119" y2="125.2266" gradientTransform="matrix(1 0 0 -1 0 275.6)">
				<stop  offset="0" style="stop-color:#00274D"/>
				<stop  offset="1" style="stop-color:#00274D;stop-opacity:0"/>
			</linearGradient>
			<path class="st6" d="M147.2,171.6c-5.5,0.1-8.3-3.8-8.4-11.6c0.1-7.8,2.9-11.7,8.4-11.7s8.3,3.8,8.4,11.7
				C155.4,167.8,152.6,171.7,147.2,171.6z M151.5,160c0-3-0.2-5.2-0.9-6.7c-0.6-1.5-1.8-2.3-3.4-2.3s-2.8,0.8-3.4,2.3
				c-0.6,1.5-0.9,3.8-0.9,6.7s0.3,5.2,0.9,6.7c0.6,1.5,1.8,2.2,3.4,2.2c1.7,0,2.8-0.7,3.4-2.2S151.5,163,151.5,160L151.5,160
				L151.5,160z"/>
		</g>
		<g>
			
				<linearGradient id="SVGID_6_" gradientUnits="userSpaceOnUse" x1="338.225" y1="411.9594" x2="122.7845" y2="151.5014" gradientTransform="matrix(1 0 0 -1 0 275.6)">
				<stop  offset="0" style="stop-color:#00274D"/>
				<stop  offset="1" style="stop-color:#00274D;stop-opacity:0"/>
			</linearGradient>
			<path class="st7" d="M177,73.2v2.5h-11.4v-2.5h3.8V56.7l-3.5,1.9l-1.3-2.2l6.3-3.4h2.5v20.2H177L177,73.2L177,73.2z"/>
			
				<linearGradient id="SVGID_7_" gradientUnits="userSpaceOnUse" x1="353.8313" y1="401.088" x2="137.4832" y2="139.5327" gradientTransform="matrix(1 0 0 -1 0 275.6)">
				<stop  offset="0" style="stop-color:#00274D"/>
				<stop  offset="1" style="stop-color:#00274D;stop-opacity:0"/>
			</linearGradient>
			<path class="st8" d="M170.4,107.9c-5.5,0.1-8.3-3.8-8.4-11.6c0.1-7.8,2.9-11.7,8.4-11.7s8.3,3.8,8.4,11.7
				C178.7,104.1,175.9,107.9,170.4,107.9z M174.8,96.3c0-3-0.2-5.2-0.9-6.7c-0.6-1.5-1.8-2.3-3.4-2.3c-1.6,0-2.8,0.8-3.4,2.3
				s-0.9,3.8-0.9,6.7s0.3,5.2,0.9,6.7s1.8,2.2,3.4,2.2c1.7,0,2.8-0.7,3.4-2.2S174.8,99.2,174.8,96.3L174.8,96.3L174.8,96.3z"/>
			
				<linearGradient id="SVGID_8_" gradientUnits="userSpaceOnUse" x1="369.9824" y1="386.5524" x2="154.5415" y2="126.0943" gradientTransform="matrix(1 0 0 -1 0 275.6)">
				<stop  offset="0" style="stop-color:#00274D"/>
				<stop  offset="1" style="stop-color:#00274D;stop-opacity:0"/>
			</linearGradient>
			<path class="st9" d="M177,137v2.5h-11.4V137h3.8v-16.5l-3.5,1.9l-1.3-2.2l6.3-3.4h2.5V137H177L177,137L177,137z"/>
			
				<linearGradient id="SVGID_9_" gradientUnits="userSpaceOnUse" x1="385.6828" y1="375.8748" x2="169.3345" y2="114.3196" gradientTransform="matrix(1 0 0 -1 0 275.6)">
				<stop  offset="0" style="stop-color:#00274D"/>
				<stop  offset="1" style="stop-color:#00274D;stop-opacity:0"/>
			</linearGradient>
			<path class="st10" d="M170.4,171.6c-5.5,0.1-8.3-3.8-8.4-11.6c0.1-7.8,2.9-11.7,8.4-11.7s8.3,3.8,8.4,11.7
				C178.7,167.8,175.9,171.7,170.4,171.6z M174.8,160c0-3-0.2-5.2-0.9-6.7c-0.6-1.5-1.8-2.3-3.4-2.3c-1.6,0-2.8,0.8-3.4,2.3
				s-0.9,3.8-0.9,6.7s0.3,5.2,0.9,6.7s1.8,2.2,3.4,2.2c1.7,0,2.8-0.7,3.4-2.2S174.8,163,174.8,160L174.8,160L174.8,160z"/>
			
				<linearGradient id="SVGID_10_" gradientUnits="userSpaceOnUse" x1="401.6902" y1="361.1862" x2="186.2497" y2="100.728" gradientTransform="matrix(1 0 0 -1 0 275.6)">
				<stop  offset="0" style="stop-color:#00274D"/>
				<stop  offset="1" style="stop-color:#00274D;stop-opacity:0"/>
			</linearGradient>
			<path class="st11" d="M177,200.7v2.5h-11.4v-2.5h3.8v-16.5l-3.5,1.9l-1.3-2.2l6.3-3.4h2.5v20.2H177L177,200.7L177,200.7z"/>
		</g>
		<g>
			
				<linearGradient id="SVGID_11_" gradientUnits="userSpaceOnUse" x1="352.5157" y1="401.0674" x2="137.075" y2="140.6093" gradientTransform="matrix(1 0 0 -1 0 275.6)">
				<stop  offset="0" style="stop-color:#00274D"/>
				<stop  offset="1" style="stop-color:#00274D;stop-opacity:0"/>
			</linearGradient>
			<path class="st12" d="M200.3,73.2v2.5h-11.4v-2.5h3.8V56.7l-3.5,1.9l-1.3-2.2l6.3-3.4h2.5v20.2H200.3L200.3,73.2L200.3,73.2z"/>
			
				<linearGradient id="SVGID_12_" gradientUnits="userSpaceOnUse" x1="368.084" y1="390.1501" x2="151.7358" y2="128.5947" gradientTransform="matrix(1 0 0 -1 0 275.6)">
				<stop  offset="0" style="stop-color:#00274D"/>
				<stop  offset="1" style="stop-color:#00274D;stop-opacity:0"/>
			</linearGradient>
			<path class="st13" d="M193.7,107.9c-5.5,0.1-8.3-3.8-8.4-11.6c0.1-7.8,2.9-11.7,8.4-11.7s8.3,3.8,8.4,11.7
				C202,104.1,199.2,107.9,193.7,107.9z M198,96.3c0-3-0.2-5.2-0.9-6.7c-0.6-1.5-1.8-2.3-3.4-2.3s-2.8,0.8-3.4,2.3
				c-0.6,1.5-0.9,3.8-0.9,6.7s0.3,5.2,0.9,6.7c0.6,1.5,1.8,2.2,3.4,2.2c1.7,0,2.8-0.7,3.4-2.2C197.8,101.5,198.1,99.2,198,96.3
				L198,96.3L198,96.3z"/>
			
				<linearGradient id="SVGID_13_" gradientUnits="userSpaceOnUse" x1="384.2727" y1="375.6605" x2="168.8322" y2="115.2023" gradientTransform="matrix(1 0 0 -1 0 275.6)">
				<stop  offset="0" style="stop-color:#00274D"/>
				<stop  offset="1" style="stop-color:#00274D;stop-opacity:0"/>
			</linearGradient>
			<path class="st14" d="M200.3,137v2.5h-11.4V137h3.8v-16.5l-3.5,1.9l-1.3-2.2l6.3-3.4h2.5V137H200.3L200.3,137L200.3,137z"/>
			
				<linearGradient id="SVGID_14_" gradientUnits="userSpaceOnUse" x1="399.9356" y1="364.9373" x2="183.5872" y2="103.3818" gradientTransform="matrix(1 0 0 -1 0 275.6)">
				<stop  offset="0" style="stop-color:#00274D"/>
				<stop  offset="1" style="stop-color:#00274D;stop-opacity:0"/>
			</linearGradient>
			<path class="st15" d="M193.7,171.6c-5.5,0.1-8.3-3.8-8.4-11.6c0.1-7.8,2.9-11.7,8.4-11.7s8.3,3.8,8.4,11.7
				C202,167.8,199.2,171.7,193.7,171.6z M198,160c0-3-0.2-5.2-0.9-6.7c-0.6-1.5-1.8-2.3-3.4-2.3s-2.8,0.8-3.4,2.3
				c-0.6,1.5-0.9,3.8-0.9,6.7s0.3,5.2,0.9,6.7c0.6,1.5,1.8,2.2,3.4,2.2c1.7,0,2.8-0.7,3.4-2.2C197.8,165.2,198.1,163,198,160
				L198,160L198,160z"/>
			
				<linearGradient id="SVGID_15_" gradientUnits="userSpaceOnUse" x1="415.881" y1="352.3144" x2="199.5326" y2="90.7591" gradientTransform="matrix(1 0 0 -1 0 275.6)">
				<stop  offset="0" style="stop-color:#00274D"/>
				<stop  offset="1" style="stop-color:#00274D;stop-opacity:0"/>
			</linearGradient>
			<path class="st16" d="M193.7,203.5c-5.5,0.1-8.3-3.8-8.4-11.6c0.1-7.8,2.9-11.7,8.4-11.7s8.3,3.8,8.4,11.7
				C202,199.7,199.2,203.6,193.7,203.5z M198,191.9c0-3-0.2-5.2-0.9-6.7c-0.6-1.5-1.8-2.3-3.4-2.3s-2.8,0.8-3.4,2.3
				c-0.6,1.5-0.9,3.8-0.9,6.7s0.3,5.2,0.9,6.7c0.6,1.5,1.8,2.2,3.4,2.2c1.7,0,2.8-0.7,3.4-2.2C197.8,197.1,198.1,194.8,198,191.9
				L198,191.9L198,191.9z"/>
		</g>
		<g>
			
				<linearGradient id="SVGID_16_" gradientUnits="userSpaceOnUse" x1="350.9768" y1="402.8383" x2="135.536" y2="142.3802" gradientTransform="matrix(1 0 0 -1 0 275.6)">
				<stop  offset="0" style="stop-color:#00274D"/>
				<stop  offset="1" style="stop-color:#00274D;stop-opacity:0"/>
			</linearGradient>
			<path class="st17" d="M223.6,41.4v2.5h-11.4v-2.5h3.8V24.9l-3.5,1.9l-1.3-2.2l6.3-3.4h2.5v20.2H223.6L223.6,41.4L223.6,41.4z"/>
			
				<linearGradient id="SVGID_17_" gradientUnits="userSpaceOnUse" x1="366.8062" y1="390.1754" x2="151.3656" y2="129.7173" gradientTransform="matrix(1 0 0 -1 0 275.6)">
				<stop  offset="0" style="stop-color:#00274D"/>
				<stop  offset="1" style="stop-color:#00274D;stop-opacity:0"/>
			</linearGradient>
			<path class="st18" d="M223.6,73.2v2.5h-11.4v-2.5h3.8V56.7l-3.5,1.9l-1.3-2.2l6.3-3.4h2.5v20.2H223.6L223.6,73.2L223.6,73.2z"/>
			
				<linearGradient id="SVGID_18_" gradientUnits="userSpaceOnUse" x1="382.6848" y1="377.4719" x2="167.2441" y2="117.0137" gradientTransform="matrix(1 0 0 -1 0 275.6)">
				<stop  offset="0" style="stop-color:#00274D"/>
				<stop  offset="1" style="stop-color:#00274D;stop-opacity:0"/>
			</linearGradient>
			<path class="st19" d="M223.6,105.1v2.5h-11.4v-2.5h3.8V88.6l-3.5,1.9l-1.3-2.2l6.3-3.4h2.5v20.2L223.6,105.1L223.6,105.1
				L223.6,105.1z"/>
			
				<linearGradient id="SVGID_19_" gradientUnits="userSpaceOnUse" x1="398.2289" y1="366.6331" x2="181.8809" y2="105.078" gradientTransform="matrix(1 0 0 -1 0 275.6)">
				<stop  offset="0" style="stop-color:#00274D"/>
				<stop  offset="1" style="stop-color:#00274D;stop-opacity:0"/>
			</linearGradient>
			<path class="st20" d="M217,139.7c-5.5,0.1-8.3-3.8-8.4-11.6c0.1-7.8,2.9-11.7,8.4-11.7s8.3,3.8,8.4,11.7
				C225.2,136,222.4,139.8,217,139.7z M221.3,128.2c0-3-0.2-5.2-0.9-6.7c-0.6-1.5-1.8-2.3-3.4-2.3c-1.6,0-2.8,0.8-3.4,2.3
				s-0.9,3.8-0.9,6.7s0.3,5.2,0.9,6.7c0.6,1.5,1.8,2.2,3.4,2.2c1.7,0,2.8-0.7,3.4-2.2C221,133.3,221.3,131.1,221.3,128.2
				L221.3,128.2L221.3,128.2z"/>
			
				<linearGradient id="SVGID_20_" gradientUnits="userSpaceOnUse" x1="414.442" y1="352.0648" x2="199.0013" y2="91.6068" gradientTransform="matrix(1 0 0 -1 0 275.6)">
				<stop  offset="0" style="stop-color:#00274D"/>
				<stop  offset="1" style="stop-color:#00274D;stop-opacity:0"/>
			</linearGradient>
			<path class="st21" d="M223.6,168.9v2.5h-11.4v-2.5h3.8v-16.5l-3.5,1.9l-1.3-2.2l6.3-3.4h2.5v20.2H223.6L223.6,168.9L223.6,168.9z
				"/>
			
				<linearGradient id="SVGID_21_" gradientUnits="userSpaceOnUse" x1="430.1112" y1="341.3945" x2="213.7631" y2="79.8396" gradientTransform="matrix(1 0 0 -1 0 275.6)">
				<stop  offset="0" style="stop-color:#00274D"/>
				<stop  offset="1" style="stop-color:#00274D;stop-opacity:0"/>
			</linearGradient>
			<path class="st22" d="M217,203.5c-5.5,0.1-8.3-3.8-8.4-11.6c0.1-7.8,2.9-11.7,8.4-11.7s8.3,3.8,8.4,11.7
				C225.2,199.7,222.4,203.6,217,203.5z M221.3,191.9c0-3-0.2-5.2-0.9-6.7c-0.6-1.5-1.8-2.3-3.4-2.3c-1.6,0-2.8,0.8-3.4,2.3
				s-0.9,3.8-0.9,6.7s0.3,5.2,0.9,6.7s1.8,2.2,3.4,2.2c1.7,0,2.8-0.7,3.4-2.2C221,197.1,221.3,194.8,221.3,191.9L221.3,191.9
				L221.3,191.9z"/>
		</g>
	</g>
	<g>
		<g>
			
				<linearGradient id="SVGID_22_" gradientUnits="userSpaceOnUse" x1="364.9315" y1="393.3429" x2="148.5832" y2="131.7878" gradientTransform="matrix(1 0 0 -1 0 275.6)">
				<stop  offset="0" style="stop-color:#00274D"/>
				<stop  offset="1" style="stop-color:#00274D;stop-opacity:0"/>
			</linearGradient>
			<path class="st23" d="M240.7,44.1c-5.5,0.1-8.3-3.8-8.4-11.6c0.1-7.8,2.9-11.7,8.4-11.7s8.3,3.8,8.4,11.7
				C248.9,40.3,246.1,44.2,240.7,44.1z M245,32.6c0-3-0.2-5.2-0.9-6.7c-0.6-1.5-1.8-2.3-3.4-2.3s-2.8,0.8-3.4,2.3
				c-0.6,1.5-0.9,3.8-0.9,6.7s0.3,5.2,0.9,6.7c0.6,1.5,1.8,2.2,3.4,2.2c1.7,0,2.8-0.7,3.4-2.2C244.7,37.7,245,35.5,245,32.6
				L245,32.6L245,32.6z"/>
			
				<linearGradient id="SVGID_23_" gradientUnits="userSpaceOnUse" x1="381.3428" y1="379.0972" x2="165.902" y2="118.6391" gradientTransform="matrix(1 0 0 -1 0 275.6)">
				<stop  offset="0" style="stop-color:#00274D"/>
				<stop  offset="1" style="stop-color:#00274D;stop-opacity:0"/>
			</linearGradient>
			<path class="st24" d="M247.3,73.2v2.5h-11.4v-2.5h3.8V56.7l-3.5,1.9l-1.3-2.2l6.3-3.4h2.5v20.2H247.3L247.3,73.2L247.3,73.2z"/>
			
				<linearGradient id="SVGID_24_" gradientUnits="userSpaceOnUse" x1="396.8124" y1="368.1057" x2="180.4642" y2="106.5504" gradientTransform="matrix(1 0 0 -1 0 275.6)">
				<stop  offset="0" style="stop-color:#00274D"/>
				<stop  offset="1" style="stop-color:#00274D;stop-opacity:0"/>
			</linearGradient>
			<path class="st25" d="M240.7,107.9c-5.5,0.1-8.3-3.8-8.4-11.6c0.1-7.8,2.9-11.7,8.4-11.7s8.3,3.8,8.4,11.7
				C248.9,104.1,246.1,107.9,240.7,107.9z M245,96.3c0-3-0.2-5.2-0.9-6.7c-0.6-1.5-1.8-2.3-3.4-2.3s-2.8,0.8-3.4,2.3
				c-0.6,1.5-0.9,3.8-0.9,6.7s0.3,5.2,0.9,6.7c0.6,1.5,1.8,2.2,3.4,2.2c1.7,0,2.8-0.7,3.4-2.2S245,99.2,245,96.3L245,96.3L245,96.3z
				"/>
			
				<linearGradient id="SVGID_25_" gradientUnits="userSpaceOnUse" x1="412.7271" y1="355.5084" x2="196.3788" y2="93.9531" gradientTransform="matrix(1 0 0 -1 0 275.6)">
				<stop  offset="0" style="stop-color:#00274D"/>
				<stop  offset="1" style="stop-color:#00274D;stop-opacity:0"/>
			</linearGradient>
			<path class="st26" d="M240.7,139.7c-5.5,0.1-8.3-3.8-8.4-11.6c0.1-7.8,2.9-11.7,8.4-11.7s8.3,3.8,8.4,11.7
				C248.9,136,246.1,139.8,240.7,139.7z M245,128.2c0-3-0.2-5.2-0.9-6.7c-0.6-1.5-1.8-2.3-3.4-2.3s-2.8,0.8-3.4,2.3
				c-0.6,1.5-0.9,3.8-0.9,6.7s0.3,5.2,0.9,6.7c0.6,1.5,1.8,2.2,3.4,2.2c1.7,0,2.8-0.7,3.4-2.2C244.7,133.3,245,131.1,245,128.2
				L245,128.2L245,128.2z"/>
			
				<linearGradient id="SVGID_26_" gradientUnits="userSpaceOnUse" x1="428.9785" y1="340.9868" x2="213.5378" y2="80.5286" gradientTransform="matrix(1 0 0 -1 0 275.6)">
				<stop  offset="0" style="stop-color:#00274D"/>
				<stop  offset="1" style="stop-color:#00274D;stop-opacity:0"/>
			</linearGradient>
			<path class="st27" d="M247.3,168.9v2.5h-11.4v-2.5h3.8v-16.5l-3.5,1.9l-1.3-2.2l6.3-3.4h2.5v20.2H247.3L247.3,168.9L247.3,168.9z
				"/>
			
				<linearGradient id="SVGID_27_" gradientUnits="userSpaceOnUse" x1="444.6093" y1="330.2703" x2="228.2611" y2="68.7147" gradientTransform="matrix(1 0 0 -1 0 275.6)">
				<stop  offset="0" style="stop-color:#00274D"/>
				<stop  offset="1" style="stop-color:#00274D;stop-opacity:0"/>
			</linearGradient>
			<path class="st28" d="M240.7,203.5c-5.5,0.1-8.3-3.8-8.4-11.6c0.1-7.8,2.9-11.7,8.4-11.7s8.3,3.8,8.4,11.7
				C248.9,199.7,246.1,203.6,240.7,203.5z M245,191.9c0-3-0.2-5.2-0.9-6.7c-0.6-1.5-1.8-2.3-3.4-2.3s-2.8,0.8-3.4,2.3
				c-0.6,1.5-0.9,3.8-0.9,6.7s0.3,5.2,0.9,6.7c0.6,1.5,1.8,2.2,3.4,2.2c1.7,0,2.8-0.7,3.4-2.2C244.7,197.1,245,194.8,245,191.9
				L245,191.9L245,191.9z"/>
			
				<linearGradient id="SVGID_28_" gradientUnits="userSpaceOnUse" x1="460.6866" y1="315.6203" x2="245.2459" y2="55.1622" gradientTransform="matrix(1 0 0 -1 0 275.6)">
				<stop  offset="0" style="stop-color:#00274D"/>
				<stop  offset="1" style="stop-color:#00274D;stop-opacity:0"/>
			</linearGradient>
			<path class="st29" d="M247.3,232.6v2.5h-11.4v-2.5h3.8v-16.5l-3.5,1.9l-1.3-2.2l6.3-3.4h2.5v20.2H247.3L247.3,232.6L247.3,232.6z
				"/>
		</g>
		<g>
			
				<linearGradient id="SVGID_29_" gradientUnits="userSpaceOnUse" x1="379.7445" y1="380.9171" x2="164.3038" y2="120.4591" gradientTransform="matrix(1 0 0 -1 0 275.6)">
				<stop  offset="0" style="stop-color:#00274D"/>
				<stop  offset="1" style="stop-color:#00274D;stop-opacity:0"/>
			</linearGradient>
			<path class="st30" d="M270.5,41.4v2.5h-11.4v-2.5h3.8V24.9l-3.5,1.9l-1.3-2.2l6.3-3.4h2.5v20.2H270.5L270.5,41.4L270.5,41.4z"/>
			
				<linearGradient id="SVGID_30_" gradientUnits="userSpaceOnUse" x1="395.0924" y1="369.8133" x2="178.744" y2="108.258" gradientTransform="matrix(1 0 0 -1 0 275.6)">
				<stop  offset="0" style="stop-color:#00274D"/>
				<stop  offset="1" style="stop-color:#00274D;stop-opacity:0"/>
			</linearGradient>
			<path class="st31" d="M263.9,76c-5.5,0.1-8.3-3.8-8.4-11.6c0.1-7.8,2.9-11.7,8.4-11.7s8.3,3.8,8.4,11.7
				C272.2,72.2,269.4,76.1,263.9,76z M268.3,64.4c0-3-0.2-5.2-0.9-6.7c-0.6-1.5-1.8-2.3-3.4-2.3s-2.8,0.8-3.4,2.3s-0.9,3.8-0.9,6.7
				s0.3,5.2,0.9,6.7s1.8,2.2,3.4,2.2c1.7,0,2.8-0.7,3.4-2.2S268.3,67.4,268.3,64.4L268.3,64.4L268.3,64.4z"/>
			
				<linearGradient id="SVGID_31_" gradientUnits="userSpaceOnUse" x1="411.4525" y1="355.5508" x2="196.0119" y2="95.0927" gradientTransform="matrix(1 0 0 -1 0 275.6)">
				<stop  offset="0" style="stop-color:#00274D"/>
				<stop  offset="1" style="stop-color:#00274D;stop-opacity:0"/>
			</linearGradient>
			<path class="st32" d="M270.5,105.1v2.5h-11.4v-2.5h3.8V88.6l-3.5,1.9l-1.3-2.2l6.3-3.4h2.5v20.2L270.5,105.1L270.5,105.1
				L270.5,105.1z"/>
			
				<linearGradient id="SVGID_32_" gradientUnits="userSpaceOnUse" x1="426.9426" y1="344.6012" x2="210.5943" y2="83.046" gradientTransform="matrix(1 0 0 -1 0 275.6)">
				<stop  offset="0" style="stop-color:#00274D"/>
				<stop  offset="1" style="stop-color:#00274D;stop-opacity:0"/>
			</linearGradient>
			<path class="st33" d="M263.9,139.7c-5.5,0.1-8.3-3.8-8.4-11.6c0.1-7.8,2.9-11.7,8.4-11.7s8.3,3.8,8.4,11.7
				C272.2,136,269.4,139.8,263.9,139.7z M268.3,128.2c0-3-0.2-5.2-0.9-6.7c-0.6-1.5-1.8-2.3-3.4-2.3s-2.8,0.8-3.4,2.3
				s-0.9,3.8-0.9,6.7s0.3,5.2,0.9,6.7s1.8,2.2,3.4,2.2c1.7,0,2.8-0.7,3.4-2.2C268,133.3,268.3,131.1,268.3,128.2L268.3,128.2
				L268.3,128.2z"/>
			
				<linearGradient id="SVGID_33_" gradientUnits="userSpaceOnUse" x1="443.2096" y1="330.1439" x2="227.769" y2="69.6857" gradientTransform="matrix(1 0 0 -1 0 275.6)">
				<stop  offset="0" style="stop-color:#00274D"/>
				<stop  offset="1" style="stop-color:#00274D;stop-opacity:0"/>
			</linearGradient>
			<path class="st34" d="M270.5,168.9v2.5h-11.4v-2.5h3.8v-16.5l-3.5,1.9l-1.3-2.2l6.3-3.4h2.5v20.2H270.5L270.5,168.9L270.5,168.9z
				"/>
			
				<linearGradient id="SVGID_34_" gradientUnits="userSpaceOnUse" x1="458.8247" y1="319.3631" x2="242.4765" y2="57.8076" gradientTransform="matrix(1 0 0 -1 0 275.6)">
				<stop  offset="0" style="stop-color:#00274D"/>
				<stop  offset="1" style="stop-color:#00274D;stop-opacity:0"/>
			</linearGradient>
			<path class="st35" d="M263.9,203.5c-5.5,0.1-8.3-3.8-8.4-11.6c0.1-7.8,2.9-11.7,8.4-11.7s8.3,3.8,8.4,11.7
				C272.2,199.7,269.4,203.6,263.9,203.5z M268.3,191.9c0-3-0.2-5.2-0.9-6.7c-0.6-1.5-1.8-2.3-3.4-2.3s-2.8,0.8-3.4,2.3
				s-0.9,3.8-0.9,6.7s0.3,5.2,0.9,6.7s1.8,2.2,3.4,2.2c1.7,0,2.8-0.7,3.4-2.2C268,197.1,268.3,194.8,268.3,191.9L268.3,191.9
				L268.3,191.9z"/>
			
				<linearGradient id="SVGID_35_" gradientUnits="userSpaceOnUse" x1="474.9177" y1="304.7775" x2="259.477" y2="44.3192" gradientTransform="matrix(1 0 0 -1 0 275.6)">
				<stop  offset="0" style="stop-color:#00274D"/>
				<stop  offset="1" style="stop-color:#00274D;stop-opacity:0"/>
			</linearGradient>
			<path class="st36" d="M270.5,232.6v2.5h-11.4v-2.5h3.8v-16.5l-3.5,1.9l-1.3-2.2l6.3-3.4h2.5v20.2H270.5L270.5,232.6L270.5,232.6z
				"/>
		</g>
		<g>
			
				<linearGradient id="SVGID_36_" gradientUnits="userSpaceOnUse" x1="409.3347" y1="358.8841" x2="192.9865" y2="97.3287" gradientTransform="matrix(1 0 0 -1 0 275.6)">
				<stop  offset="0" style="stop-color:#00274D"/>
				<stop  offset="1" style="stop-color:#00274D;stop-opacity:0"/>
			</linearGradient>
			<path class="st37" d="M287.2,76c-5.5,0.1-8.3-3.8-8.4-11.6c0.1-7.8,2.9-11.7,8.4-11.7s8.3,3.8,8.4,11.7
				C295.4,72.2,292.7,76.1,287.2,76z M291.5,64.4c0-3-0.2-5.2-0.9-6.7c-0.6-1.5-1.8-2.3-3.4-2.3s-2.8,0.8-3.4,2.3s-0.9,3.8-0.9,6.7
				s0.3,5.2,0.9,6.7s1.8,2.2,3.4,2.2c1.7,0,2.8-0.7,3.4-2.2C291.3,69.6,291.6,67.4,291.5,64.4L291.5,64.4L291.5,64.4z"/>
			
				<linearGradient id="SVGID_37_" gradientUnits="userSpaceOnUse" x1="425.2702" y1="346.2693" x2="208.922" y2="84.714" gradientTransform="matrix(1 0 0 -1 0 275.6)">
				<stop  offset="0" style="stop-color:#00274D"/>
				<stop  offset="1" style="stop-color:#00274D;stop-opacity:0"/>
			</linearGradient>
			<path class="st38" d="M287.2,107.9c-5.5,0.1-8.3-3.8-8.4-11.6c0.1-7.8,2.9-11.7,8.4-11.7s8.3,3.8,8.4,11.7
				C295.4,104.1,292.7,107.9,287.2,107.9z M291.5,96.3c0-3-0.2-5.2-0.9-6.7c-0.6-1.5-1.8-2.3-3.4-2.3s-2.8,0.8-3.4,2.3
				s-0.9,3.8-0.9,6.7s0.3,5.2,0.9,6.7s1.8,2.2,3.4,2.2c1.7,0,2.8-0.7,3.4-2.2C291.3,101.5,291.6,99.2,291.5,96.3L291.5,96.3
				L291.5,96.3z"/>
			
				<linearGradient id="SVGID_38_" gradientUnits="userSpaceOnUse" x1="441.6216" y1="331.9553" x2="226.181" y2="71.4972" gradientTransform="matrix(1 0 0 -1 0 275.6)">
				<stop  offset="0" style="stop-color:#00274D"/>
				<stop  offset="1" style="stop-color:#00274D;stop-opacity:0"/>
			</linearGradient>
			<path class="st39" d="M293.8,137v2.5h-11.4V137h3.8v-16.5l-3.5,1.9l-1.3-2.2l6.3-3.4h2.5V137H293.8L293.8,137L293.8,137z"/>
			
				<linearGradient id="SVGID_39_" gradientUnits="userSpaceOnUse" x1="457.1219" y1="321.0565" x2="240.7734" y2="59.501" gradientTransform="matrix(1 0 0 -1 0 275.6)">
				<stop  offset="0" style="stop-color:#00274D"/>
				<stop  offset="1" style="stop-color:#00274D;stop-opacity:0"/>
			</linearGradient>
			<path class="st40" d="M287.2,171.6c-5.5,0.1-8.3-3.8-8.4-11.6c0.1-7.8,2.9-11.7,8.4-11.7s8.3,3.8,8.4,11.7
				C295.4,167.8,292.7,171.7,287.2,171.6z M291.5,160c0-3-0.2-5.2-0.9-6.7c-0.6-1.5-1.8-2.3-3.4-2.3s-2.8,0.8-3.4,2.3
				s-0.9,3.8-0.9,6.7s0.3,5.2,0.9,6.7s1.8,2.2,3.4,2.2c1.7,0,2.8-0.7,3.4-2.2C291.3,165.2,291.6,163,291.5,160L291.5,160L291.5,160z
				"/>
			
				<linearGradient id="SVGID_40_" gradientUnits="userSpaceOnUse" x1="473.3297" y1="306.5889" x2="257.8889" y2="46.1307" gradientTransform="matrix(1 0 0 -1 0 275.6)">
				<stop  offset="0" style="stop-color:#00274D"/>
				<stop  offset="1" style="stop-color:#00274D;stop-opacity:0"/>
			</linearGradient>
			<path class="st41" d="M293.8,200.7v2.5h-11.4v-2.5h3.8v-16.5l-3.5,1.9l-1.3-2.2l6.3-3.4h2.5v20.2H293.8L293.8,200.7L293.8,200.7z
				"/>
			
				<linearGradient id="SVGID_41_" gradientUnits="userSpaceOnUse" x1="489.0028" y1="295.8192" x2="272.6544" y2="34.2637" gradientTransform="matrix(1 0 0 -1 0 275.6)">
				<stop  offset="0" style="stop-color:#00274D"/>
				<stop  offset="1" style="stop-color:#00274D;stop-opacity:0"/>
			</linearGradient>
			<path class="st42" d="M287.2,235.4c-5.5,0.1-8.3-3.8-8.4-11.6c0.1-7.8,2.9-11.7,8.4-11.7s8.3,3.8,8.4,11.7
				C295.4,231.6,292.7,235.4,287.2,235.4z M291.5,223.8c0-3-0.2-5.2-0.9-6.7c-0.6-1.5-1.8-2.3-3.4-2.3s-2.8,0.8-3.4,2.3
				s-0.9,3.8-0.9,6.7s0.3,5.2,0.9,6.7s1.8,2.2,3.4,2.2c1.7,0,2.8-0.7,3.4-2.2C291.3,228.9,291.6,226.7,291.5,223.8L291.5,223.8
				L291.5,223.8z"/>
			
				<linearGradient id="SVGID_42_" gradientUnits="userSpaceOnUse" x1="505.0867" y1="281.1818" x2="289.6462" y2="20.7237" gradientTransform="matrix(1 0 0 -1 0 275.6)">
				<stop  offset="0" style="stop-color:#00274D"/>
				<stop  offset="1" style="stop-color:#00274D;stop-opacity:0"/>
			</linearGradient>
			<path class="st43" d="M293.8,264.5v2.5h-11.4v-2.5h3.8V248l-3.5,1.9l-1.3-2.2l6.3-3.4h2.5v20.2H293.8L293.8,264.5L293.8,264.5z"
				/>
		</g>
		<g>
			
				<linearGradient id="SVGID_43_" gradientUnits="userSpaceOnUse" x1="424.1551" y1="346.4702" x2="208.7144" y2="86.0122" gradientTransform="matrix(1 0 0 -1 0 275.6)">
				<stop  offset="0" style="stop-color:#00274D"/>
				<stop  offset="1" style="stop-color:#00274D;stop-opacity:0"/>
			</linearGradient>
			<path class="st44" d="M317.1,73.2v2.5h-11.4v-2.5h3.8V56.7l-3.5,1.9l-1.3-2.2L311,53h2.5v20.2H317.1L317.1,73.2L317.1,73.2z"/>
			
				<linearGradient id="SVGID_44_" gradientUnits="userSpaceOnUse" x1="439.5112" y1="335.3416" x2="223.1629" y2="73.7859" gradientTransform="matrix(1 0 0 -1 0 275.6)">
				<stop  offset="0" style="stop-color:#00274D"/>
				<stop  offset="1" style="stop-color:#00274D;stop-opacity:0"/>
			</linearGradient>
			<path class="st45" d="M310.5,107.9c-5.5,0.1-8.3-3.8-8.4-11.6c0.1-7.8,2.9-11.7,8.4-11.7s8.3,3.8,8.4,11.7
				C318.7,104.1,315.9,107.9,310.5,107.9z M314.8,96.3c0-3-0.2-5.2-0.9-6.7c-0.6-1.5-1.8-2.3-3.4-2.3s-2.8,0.8-3.4,2.3
				s-0.9,3.8-0.9,6.7s0.3,5.2,0.9,6.7s1.8,2.2,3.4,2.2c1.7,0,2.8-0.7,3.4-2.2S314.8,99.2,314.8,96.3L314.8,96.3L314.8,96.3z"/>
			
				<linearGradient id="SVGID_45_" gradientUnits="userSpaceOnUse" x1="455.9124" y1="321.0634" x2="240.4716" y2="60.6052" gradientTransform="matrix(1 0 0 -1 0 275.6)">
				<stop  offset="0" style="stop-color:#00274D"/>
				<stop  offset="1" style="stop-color:#00274D;stop-opacity:0"/>
			</linearGradient>
			<path class="st46" d="M317.1,137v2.5h-11.4V137h3.8v-16.5l-3.5,1.9l-1.3-2.2l6.3-3.4h2.5V137H317.1L317.1,137L317.1,137z"/>
			
				<linearGradient id="SVGID_46_" gradientUnits="userSpaceOnUse" x1="471.3627" y1="310.1284" x2="255.0143" y2="48.5732" gradientTransform="matrix(1 0 0 -1 0 275.6)">
				<stop  offset="0" style="stop-color:#00274D"/>
				<stop  offset="1" style="stop-color:#00274D;stop-opacity:0"/>
			</linearGradient>
			<path class="st47" d="M310.5,171.6c-5.5,0.1-8.3-3.8-8.4-11.6c0.1-7.8,2.9-11.7,8.4-11.7s8.3,3.8,8.4,11.7
				C318.7,167.8,315.9,171.7,310.5,171.6z M314.8,160c0-3-0.2-5.2-0.9-6.7c-0.6-1.5-1.8-2.3-3.4-2.3s-2.8,0.8-3.4,2.3
				s-0.9,3.8-0.9,6.7s0.3,5.2,0.9,6.7s1.8,2.2,3.4,2.2c1.7,0,2.8-0.7,3.4-2.2S314.8,163,314.8,160L314.8,160L314.8,160z"/>
			
				<linearGradient id="SVGID_47_" gradientUnits="userSpaceOnUse" x1="487.6202" y1="295.6968" x2="272.1795" y2="35.2387" gradientTransform="matrix(1 0 0 -1 0 275.6)">
				<stop  offset="0" style="stop-color:#00274D"/>
				<stop  offset="1" style="stop-color:#00274D;stop-opacity:0"/>
			</linearGradient>
			<path class="st48" d="M317.1,200.7v2.5h-11.4v-2.5h3.8v-16.5l-3.5,1.9l-1.3-2.2l6.3-3.4h2.5v20.2H317.1L317.1,200.7L317.1,200.7z
				"/>
			
				<linearGradient id="SVGID_48_" gradientUnits="userSpaceOnUse" x1="503.2435" y1="284.8912" x2="286.8954" y2="23.3357" gradientTransform="matrix(1 0 0 -1 0 275.6)">
				<stop  offset="0" style="stop-color:#00274D"/>
				<stop  offset="1" style="stop-color:#00274D;stop-opacity:0"/>
			</linearGradient>
			<path class="st49" d="M310.5,235.4c-5.5,0.1-8.3-3.8-8.4-11.6c0.1-7.8,2.9-11.7,8.4-11.7s8.3,3.8,8.4,11.7
				C318.7,231.6,315.9,235.4,310.5,235.4z M314.8,223.8c0-3-0.2-5.2-0.9-6.7c-0.6-1.5-1.8-2.3-3.4-2.3s-2.8,0.8-3.4,2.3
				s-0.9,3.8-0.9,6.7s0.3,5.2,0.9,6.7s1.8,2.2,3.4,2.2c1.7,0,2.8-0.7,3.4-2.2C314.5,228.9,314.8,226.7,314.8,223.8L314.8,223.8
				L314.8,223.8z"/>
			
				<linearGradient id="SVGID_49_" gradientUnits="userSpaceOnUse" x1="519.3774" y1="270.2899" x2="303.9368" y2="9.8318" gradientTransform="matrix(1 0 0 -1 0 275.6)">
				<stop  offset="0" style="stop-color:#00274D"/>
				<stop  offset="1" style="stop-color:#00274D;stop-opacity:0"/>
			</linearGradient>
			<path class="st50" d="M317.1,264.5v2.5h-11.4v-2.5h3.8V248l-3.5,1.9l-1.3-2.2l6.3-3.4h2.5v20.2H317.1L317.1,264.5L317.1,264.5z"
				/>
		</g>
		<g>
			
				<linearGradient id="SVGID_50_" gradientUnits="userSpaceOnUse" x1="453.7265" y1="324.4343" x2="237.3783" y2="62.8789" gradientTransform="matrix(1 0 0 -1 0 275.6)">
				<stop  offset="0" style="stop-color:#00274D"/>
				<stop  offset="1" style="stop-color:#00274D;stop-opacity:0"/>
			</linearGradient>
			<path class="st51" d="M333.7,107.9c-5.5,0.1-8.3-3.8-8.4-11.6c0.1-7.8,2.9-11.7,8.4-11.7s8.3,3.8,8.4,11.7
				C342,104.1,339.2,107.9,333.7,107.9z M338,96.3c0-3-0.2-5.2-0.9-6.7c-0.6-1.5-1.8-2.3-3.4-2.3s-2.8,0.8-3.4,2.3s-0.9,3.8-0.9,6.7
				s0.3,5.2,0.9,6.7s1.8,2.2,3.4,2.2c1.7,0,2.8-0.7,3.4-2.2C337.8,101.5,338.1,99.2,338,96.3L338,96.3L338,96.3z"/>
			
				<linearGradient id="SVGID_51_" gradientUnits="userSpaceOnUse" x1="470.1434" y1="310.2203" x2="254.7026" y2="49.7622" gradientTransform="matrix(1 0 0 -1 0 275.6)">
				<stop  offset="0" style="stop-color:#00274D"/>
				<stop  offset="1" style="stop-color:#00274D;stop-opacity:0"/>
			</linearGradient>
			<path class="st52" d="M340.3,137v2.5h-11.4V137h3.8v-16.5l-3.5,1.9l-1.3-2.2l6.3-3.4h2.5V137H340.3L340.3,137L340.3,137z"/>
			
				<linearGradient id="SVGID_52_" gradientUnits="userSpaceOnUse" x1="485.5781" y1="299.2215" x2="269.2297" y2="37.666" gradientTransform="matrix(1 0 0 -1 0 275.6)">
				<stop  offset="0" style="stop-color:#00274D"/>
				<stop  offset="1" style="stop-color:#00274D;stop-opacity:0"/>
			</linearGradient>
			<path class="st53" d="M333.7,171.6c-5.5,0.1-8.3-3.8-8.4-11.6c0.1-7.8,2.9-11.7,8.4-11.7s8.3,3.8,8.4,11.7
				C342,167.8,339.2,171.7,333.7,171.6z M338,160c0-3-0.2-5.2-0.9-6.7c-0.6-1.5-1.8-2.3-3.4-2.3s-2.8,0.8-3.4,2.3s-0.9,3.8-0.9,6.7
				s0.3,5.2,0.9,6.7s1.8,2.2,3.4,2.2c1.7,0,2.8-0.7,3.4-2.2C337.8,165.2,338.1,163,338,160L338,160L338,160z"/>
			
				<linearGradient id="SVGID_53_" gradientUnits="userSpaceOnUse" x1="501.8515" y1="284.8539" x2="286.4108" y2="24.3959" gradientTransform="matrix(1 0 0 -1 0 275.6)">
				<stop  offset="0" style="stop-color:#00274D"/>
				<stop  offset="1" style="stop-color:#00274D;stop-opacity:0"/>
			</linearGradient>
			<path class="st54" d="M340.3,200.7v2.5h-11.4v-2.5h3.8v-16.5l-3.5,1.9l-1.3-2.2l6.3-3.4h2.5v20.2H340.3L340.3,200.7L340.3,200.7z
				"/>
			
				<linearGradient id="SVGID_54_" gradientUnits="userSpaceOnUse" x1="517.4592" y1="273.9839" x2="301.1109" y2="12.4288" gradientTransform="matrix(1 0 0 -1 0 275.6)">
				<stop  offset="0" style="stop-color:#00274D"/>
				<stop  offset="1" style="stop-color:#00274D;stop-opacity:0"/>
			</linearGradient>
			<path class="st55" d="M333.7,235.4c-5.5,0.1-8.3-3.8-8.4-11.6c0.1-7.8,2.9-11.7,8.4-11.7s8.3,3.8,8.4,11.7
				C342,231.6,339.2,235.4,333.7,235.4z M338,223.8c0-3-0.2-5.2-0.9-6.7c-0.6-1.5-1.8-2.3-3.4-2.3s-2.8,0.8-3.4,2.3
				s-0.9,3.8-0.9,6.7s0.3,5.2,0.9,6.7s1.8,2.2,3.4,2.2c1.7,0,2.8-0.7,3.4-2.2C337.8,228.9,338.1,226.7,338,223.8L338,223.8
				L338,223.8z"/>
			
				<linearGradient id="SVGID_55_" gradientUnits="userSpaceOnUse" x1="533.6086" y1="259.4468" x2="318.1678" y2="-1.0112" gradientTransform="matrix(1 0 0 -1 0 275.6)">
				<stop  offset="0" style="stop-color:#00274D"/>
				<stop  offset="1" style="stop-color:#00274D;stop-opacity:0"/>
			</linearGradient>
			<path class="st56" d="M340.3,264.5v2.5h-11.4v-2.5h3.8V248l-3.5,1.9l-1.3-2.2l6.3-3.4h2.5v20.2H340.3L340.3,264.5L340.3,264.5z"
				/>
		</g>
		<g>
			
				<linearGradient id="SVGID_56_" gradientUnits="userSpaceOnUse" x1="484.4339" y1="299.3283" x2="268.9933" y2="38.8703" gradientTransform="matrix(1 0 0 -1 0 275.6)">
				<stop  offset="0" style="stop-color:#00274D"/>
				<stop  offset="1" style="stop-color:#00274D;stop-opacity:0"/>
			</linearGradient>
			<path class="st57" d="M363.6,137v2.5h-11.4V137h3.8v-16.5l-3.5,1.9l-1.3-2.2l6.3-3.4h2.5V137H363.6L363.6,137L363.6,137z"/>
			
				<linearGradient id="SVGID_57_" gradientUnits="userSpaceOnUse" x1="499.8204" y1="288.2921" x2="283.4721" y2="26.7367" gradientTransform="matrix(1 0 0 -1 0 275.6)">
				<stop  offset="0" style="stop-color:#00274D"/>
				<stop  offset="1" style="stop-color:#00274D;stop-opacity:0"/>
			</linearGradient>
			<path class="st58" d="M357,171.6c-5.5,0.1-8.3-3.8-8.4-11.6c0.1-7.8,2.9-11.7,8.4-11.7s8.3,3.8,8.4,11.7
				C365.2,167.8,362.5,171.7,357,171.6z M361.3,160c0-3-0.2-5.2-0.9-6.7c-0.6-1.5-1.8-2.3-3.4-2.3s-2.8,0.8-3.4,2.3
				s-0.9,3.8-0.9,6.7s0.3,5.2,0.9,6.7s1.8,2.2,3.4,2.2c1.7,0,2.8-0.7,3.4-2.2C361.1,165.2,361.4,163,361.3,160L361.3,160L361.3,160z
				"/>
			
				<linearGradient id="SVGID_58_" gradientUnits="userSpaceOnUse" x1="515.7657" y1="275.6693" x2="299.4174" y2="14.1139" gradientTransform="matrix(1 0 0 -1 0 275.6)">
				<stop  offset="0" style="stop-color:#00274D"/>
				<stop  offset="1" style="stop-color:#00274D;stop-opacity:0"/>
			</linearGradient>
			<path class="st59" d="M357,203.5c-5.5,0.1-8.3-3.8-8.4-11.6c0.1-7.8,2.9-11.7,8.4-11.7s8.3,3.8,8.4,11.7
				C365.2,199.7,362.5,203.6,357,203.5z M361.3,191.9c0-3-0.2-5.2-0.9-6.7c-0.6-1.5-1.8-2.3-3.4-2.3s-2.8,0.8-3.4,2.3
				s-0.9,3.8-0.9,6.7s0.3,5.2,0.9,6.7s1.8,2.2,3.4,2.2c1.7,0,2.8-0.7,3.4-2.2C361.1,197.1,361.4,194.8,361.3,191.9L361.3,191.9
				L361.3,191.9z"/>
			
				<linearGradient id="SVGID_59_" gradientUnits="userSpaceOnUse" x1="531.6963" y1="263.0484" x2="315.348" y2="1.4933" gradientTransform="matrix(1 0 0 -1 0 275.6)">
				<stop  offset="0" style="stop-color:#00274D"/>
				<stop  offset="1" style="stop-color:#00274D;stop-opacity:0"/>
			</linearGradient>
			<path class="st60" d="M357,235.4c-5.5,0.1-8.3-3.8-8.4-11.6c0.1-7.8,2.9-11.7,8.4-11.7s8.3,3.8,8.4,11.7
				C365.2,231.6,362.5,235.4,357,235.4z M361.3,223.8c0-3-0.2-5.2-0.9-6.7c-0.6-1.5-1.8-2.3-3.4-2.3s-2.8,0.8-3.4,2.3
				s-0.9,3.8-0.9,6.7s0.3,5.2,0.9,6.7s1.8,2.2,3.4,2.2c1.7,0,2.8-0.7,3.4-2.2C361.1,228.9,361.4,226.7,361.3,223.8L361.3,223.8
				L361.3,223.8z"/>
			
				<linearGradient id="SVGID_60_" gradientUnits="userSpaceOnUse" x1="547.8992" y1="248.555" x2="332.4584" y2="-11.9033" gradientTransform="matrix(1 0 0 -1 0 275.6)">
				<stop  offset="0" style="stop-color:#00274D"/>
				<stop  offset="1" style="stop-color:#00274D;stop-opacity:0"/>
			</linearGradient>
			<path class="st61" d="M363.6,264.5v2.5h-11.4v-2.5h3.8V248l-3.5,1.9l-1.3-2.2l6.3-3.4h2.5v20.2H363.6L363.6,264.5L363.6,264.5z"
				/>
		</g>
		<g>
			
				<linearGradient id="SVGID_61_" gradientUnits="userSpaceOnUse" x1="514.5734" y1="275.7574" x2="299.1328" y2="15.2994" gradientTransform="matrix(1 0 0 -1 0 275.6)">
				<stop  offset="0" style="stop-color:#00274D"/>
				<stop  offset="1" style="stop-color:#00274D;stop-opacity:0"/>
			</linearGradient>
			<path class="st62" d="M386.9,168.9v2.5h-11.5v-2.5h3.8v-16.5l-3.5,1.9l-1.3-2.2l6.3-3.4h2.5v20.2H386.9L386.9,168.9L386.9,168.9z
				"/>
			
				<linearGradient id="SVGID_62_" gradientUnits="userSpaceOnUse" x1="530.0065" y1="264.741" x2="313.6583" y2="3.1861" gradientTransform="matrix(1 0 0 -1 0 275.6)">
				<stop  offset="0" style="stop-color:#00274D"/>
				<stop  offset="1" style="stop-color:#00274D;stop-opacity:0"/>
			</linearGradient>
			<path class="st63" d="M380.3,203.5c-5.5,0.1-8.3-3.8-8.4-11.6c0.1-7.8,2.9-11.7,8.4-11.7s8.3,3.8,8.4,11.7
				C388.5,199.7,385.7,203.6,380.3,203.5z M384.6,191.9c0-3-0.2-5.2-0.9-6.7c-0.6-1.5-1.8-2.3-3.4-2.3s-2.8,0.8-3.4,2.3
				s-0.9,3.8-0.9,6.7s0.3,5.2,0.9,6.7s1.8,2.2,3.4,2.2c1.7,0,2.8-0.7,3.4-2.2S384.6,194.8,384.6,191.9L384.6,191.9L384.6,191.9z"/>
			
				<linearGradient id="SVGID_63_" gradientUnits="userSpaceOnUse" x1="545.9419" y1="252.1263" x2="329.5941" y2="-9.4285" gradientTransform="matrix(1 0 0 -1 0 275.6)">
				<stop  offset="0" style="stop-color:#00274D"/>
				<stop  offset="1" style="stop-color:#00274D;stop-opacity:0"/>
			</linearGradient>
			<path class="st64" d="M380.3,235.4c-5.5,0.1-8.3-3.8-8.4-11.6c0.1-7.8,2.9-11.7,8.4-11.7s8.3,3.8,8.4,11.7
				C388.5,231.6,385.7,235.4,380.3,235.4z M384.6,223.8c0-3-0.2-5.2-0.9-6.7c-0.6-1.5-1.8-2.3-3.4-2.3s-2.8,0.8-3.4,2.3
				s-0.9,3.8-0.9,6.7s0.3,5.2,0.9,6.7s1.8,2.2,3.4,2.2c1.7,0,2.8-0.7,3.4-2.2C384.3,228.9,384.6,226.7,384.6,223.8L384.6,223.8
				L384.6,223.8z"/>
			
				<linearGradient id="SVGID_64_" gradientUnits="userSpaceOnUse" x1="562.16" y1="237.6873" x2="346.7193" y2="-22.7706" gradientTransform="matrix(1 0 0 -1 0 275.6)">
				<stop  offset="0" style="stop-color:#00274D"/>
				<stop  offset="1" style="stop-color:#00274D;stop-opacity:0"/>
			</linearGradient>
			<path class="st65" d="M386.9,264.5v2.5h-11.5v-2.5h3.8V248l-3.5,1.9l-1.3-2.2l6.3-3.4h2.5v20.2H386.9L386.9,264.5L386.9,264.5z"
				/>
		</g>
		<g>
			
				<linearGradient id="SVGID_65_" gradientUnits="userSpaceOnUse" x1="544.222" y1="253.8343" x2="327.8738" y2="-7.7211" gradientTransform="matrix(1 0 0 -1 0 275.6)">
				<stop  offset="0" style="stop-color:#00274D"/>
				<stop  offset="1" style="stop-color:#00274D;stop-opacity:0"/>
			</linearGradient>
			<path class="st66" d="M403.5,203.5c-5.5,0.1-8.3-3.8-8.4-11.6c0.1-7.8,2.9-11.7,8.4-11.7s8.3,3.8,8.4,11.7
				C411.8,199.7,409,203.6,403.5,203.5z M407.8,191.9c0-3-0.2-5.2-0.9-6.7c-0.6-1.5-1.8-2.3-3.4-2.3s-2.8,0.8-3.4,2.3
				s-0.9,3.8-0.9,6.7s0.3,5.2,0.9,6.7s1.8,2.2,3.4,2.2c1.7,0,2.8-0.7,3.4-2.2C407.6,197.1,407.9,194.8,407.8,191.9L407.8,191.9
				L407.8,191.9z"/>
			
				<linearGradient id="SVGID_66_" gradientUnits="userSpaceOnUse" x1="560.5422" y1="239.5235" x2="345.1015" y2="-20.9347" gradientTransform="matrix(1 0 0 -1 0 275.6)">
				<stop  offset="0" style="stop-color:#00274D"/>
				<stop  offset="1" style="stop-color:#00274D;stop-opacity:0"/>
			</linearGradient>
			<path class="st67" d="M410.1,232.6v2.5h-11.4v-2.5h3.8v-16.5L399,218l-1.3-2.2l6.3-3.4h2.5v20.2H410.1L410.1,232.6L410.1,232.6z"
				/>
			
				<linearGradient id="SVGID_67_" gradientUnits="userSpaceOnUse" x1="576.0637" y1="228.6294" x2="359.7154" y2="-32.9259" gradientTransform="matrix(1 0 0 -1 0 275.6)">
				<stop  offset="0" style="stop-color:#00274D"/>
				<stop  offset="1" style="stop-color:#00274D;stop-opacity:0"/>
			</linearGradient>
			<path class="st68" d="M403.5,267.2c-5.5,0.1-8.3-3.8-8.4-11.6c0.1-7.8,2.9-11.7,8.4-11.7s8.3,3.8,8.4,11.7
				C411.8,263.4,409,267.3,403.5,267.2z M407.8,255.6c0-3-0.2-5.2-0.9-6.7c-0.6-1.5-1.8-2.3-3.4-2.3s-2.8,0.8-3.4,2.3
				s-0.9,3.8-0.9,6.7s0.3,5.2,0.9,6.7s1.8,2.2,3.4,2.2c1.7,0,2.8-0.7,3.4-2.2C407.6,260.8,407.9,258.6,407.8,255.6L407.8,255.6
				L407.8,255.6z"/>
		</g>
		<g>
			
				<linearGradient id="SVGID_68_" gradientUnits="userSpaceOnUse" x1="590.2942" y1="217.7101" x2="373.9459" y2="-43.8455" gradientTransform="matrix(1 0 0 -1 0 275.6)">
				<stop  offset="0" style="stop-color:#00274D"/>
				<stop  offset="1" style="stop-color:#00274D;stop-opacity:0"/>
			</linearGradient>
			<path class="st69" d="M426.8,267.2c-5.5,0.1-8.3-3.8-8.4-11.6c0.1-7.8,2.9-11.7,8.4-11.7s8.3,3.8,8.4,11.7
				C435,263.4,432.2,267.3,426.8,267.2z M431.1,255.6c0-3-0.2-5.2-0.9-6.7c-0.6-1.5-1.8-2.3-3.4-2.3s-2.8,0.8-3.4,2.3
				s-0.9,3.8-0.9,6.7s0.3,5.2,0.9,6.7s1.8,2.2,3.4,2.2c1.7,0,2.8-0.7,3.4-2.2C430.9,260.8,431.2,258.6,431.1,255.6L431.1,255.6
				L431.1,255.6z"/>
		</g>
	</g>
</g>
<linearGradient id="SVGID_69_" gradientUnits="userSpaceOnUse" x1="144.4099" y1="187.1812" x2="165.3143" y2="-42.7651" gradientTransform="matrix(1 0 0 -1 0 275.6)">
	<stop  offset="0" style="stop-color:#00274D"/>
	<stop  offset="0.5699" style="stop-color:#00274D"/>
	<stop  offset="0.6885" style="stop-color:#002B52;stop-opacity:0.7303"/>
	<stop  offset="0.8219" style="stop-color:#00355F;stop-opacity:0.4269"/>
	<stop  offset="0.962" style="stop-color:#004676;stop-opacity:0.1083"/>
	<stop  offset="1" style="stop-color:#004C7D;stop-opacity:2.192997e-02"/>
</linearGradient>
<path class="st70" d="M169,200.1c-1.4,11.3-9.3,22-16.6,32.4c-7.3,10.5-14.1,21.5-12.9,32.9c1.3,13,12.7,24.6,22,36.3
	c34.3,43.5,40.3,95.3,16.4,141.5c-1.4,2.7-3.8,5.9-8.3,6.2c-5.8,0.5-9.4-3.7-11-7.2c-13.1-28.5-10.8-59.6,6.3-87.2
	c7.2-11.4,16.7-22.5,20.6-34.5c4.6-14.6,0.6-29.8-7-43.8c-7.7-14-18.8-27.3-28.7-40.7c-6.4-8.6-12.4-18.3-8.3-27.4
	c3.1-7,11.8-12.6,16.6-19.2c10.4-14.4,1.8-31.1-6.9-46c5.5,9.3-6.5,19.9,2.3,29.3C162.1,182.2,170.3,188.3,169,200.1z"/>
<linearGradient id="SVGID_70_" gradientUnits="userSpaceOnUse" x1="221.9293" y1="-208.5527" x2="230.5991" y2="164.246" gradientTransform="matrix(1 0 0 -1 0 275.6)">
	<stop  offset="0" style="stop-color:#004E7F;stop-opacity:0"/>
	<stop  offset="0.2917" style="stop-color:#004B7B;stop-opacity:0.2917"/>
	<stop  offset="0.5662" style="stop-color:#004270;stop-opacity:0.5662"/>
	<stop  offset="0.833" style="stop-color:#00335D;stop-opacity:0.833"/>
	<stop  offset="1" style="stop-color:#00274D"/>
</linearGradient>
<path class="st71" d="M211.8,394.9c8.8-25.9,20.5-51.7,19.5-78.4c-1.4-33.1-22.3-65.7-13.9-98.2c4.3-16.4,15.7-31.5,18.5-48.1
	c2.5-15.1-2.4-30.1-4.9-45.2c-5.1-30.5-0.9-61.3,3.4-91.9c16.3,25.5,14.9,56.7-3.6,81.4c-5,6.7-11.3,13.1-13.1,20.6
	c-3.5,14.6,10.5,28,16.4,42.2c11.4,27-7,55.2-16.9,82.5c-10.5,29-11.4,60-2.5,89.4c11.2,36.8,37.5,73.6,25.7,110.2
	c-6.8,21.1-31.5,18.7-36-1.1C199.5,437.2,204.9,415.3,211.8,394.9z"/>
<g>
	<path class="st72" d="M490.5,480.5c0.1-3.9-5.2-4.3-3.9-9.2c15.3-8.1-21.1-28.3-25.3-37.5c-5.4-16.8,4.1-33.6,3.7-50.5
		c-0.2-3.6-9.5-6.1-11.1-11.3c-3.9-13.7-5.1-27.9-9.4-41.5c-10-25.3-24.3-53.5-53.3-60.5c-29.7-6.8-69.6-3.4-99.2,2.8
		c18.4,3.8,38.5-0.8,56.4,5.3c27.3,10.1-12.5,44-21.9,49.5c-11.4,7.1-22.7,18.9-37.2,13.6c-16.6-6.7-23.1-25.8-40.3-32.2
		c-0.1,13,12.2,22.8,9.2,35.9c-4.9,10.6-19.4,17.8-21.7,29.1c16.5-3.9,35-14.5,52.2-9.3c-5.3,9.4-3.1,21.7-4.9,32.2
		c-5.4,9.9-17.4,15.8-20.8,26.6c0.1,10.8,18,9.2,25.2,11.1c22.8,6,41.7,17.9,59.2,33.4c-6.5-3.4-17.2-2.4-17.2-0.6
		c15,19.3,51,46.3,76.7,41.5c16.8-4.2,25.3-22.5,42.9-25.6C459.5,486.1,485.6,492.8,490.5,480.5C490.6,479.1,491.1,483,490.5,480.5z
		"/>
</g>
<path class="st73" d="M475.4,483.6c-1.4-1.5-3.1-2.7-2.3-5.7c14.8-7.8-20.4-27.3-24.4-36.2c-5.2-16.2,4-32.5,3.6-48.8
	c-0.2-3.5-9.2-5.9-10.7-10.9c-3.8-13.2-4.9-26.9-9.1-40.1c-9.7-24.4-16.1-55.3-44.1-62c-11.7-2.7-25.9-7.4-39.5-7.3
	c2,0.4,4.1,1,6.1,1.6c18,6.7,1.4,33.4-11.1,45.4c-7.5,9.8-20.9,16.9-25.4,19.5c-11,6.9-21.9,18.3-35.9,13.1
	c-9.7-3.9-14.9-20.1-21.9-27.4c1.7,4.2,1.8,16.5,0.7,21.2c-2.3,4.9-6.6,9-10.8,13.2c-1.9,2.8-1,1.8-3.5,4.4c-1.5,2.2-5,4.6-5.5,7.1
	c15.9-3.8,34.7-13.4,51.3-8.4c-5.1,9.1-5,23.8-6.7,34c-2.5,4.5-6.4,8.2-10.2,11.9c-2,2.9-4.5,5.5-7.1,8c-1.2,1.8-2.2,3.6-2.8,5.7
	c0.1,10.4,17.4,8.9,24.3,10.7c22,5.8,42.5,22.2,59.4,37.2c-6.3-3.3-16.6-3.1-16.6-1.4c14.5,18.6,47,40.6,71.8,36
	c16.2-4.1,24.4-21.7,41.4-24.7C452.6,481.5,465.9,485,475.4,483.6z"/>
<g>
	
		<linearGradient id="SVGID_71_" gradientUnits="userSpaceOnUse" x1="117.753" y1="229.7518" x2="111.5713" y2="-63.2573" gradientTransform="matrix(1 0 0 -1 0 275.6)">
		<stop  offset="0" style="stop-color:#00274D"/>
		<stop  offset="0.2697" style="stop-color:#002B52;stop-opacity:0.7303"/>
		<stop  offset="0.573" style="stop-color:#00355F;stop-opacity:0.427"/>
		<stop  offset="0.8914" style="stop-color:#004776;stop-opacity:0.1086"/>
		<stop  offset="1" style="stop-color:#004E7F;stop-opacity:0"/>
	</linearGradient>
	<path class="st74" d="M107.8,437.9c-26.2-22.1-26-48-18.8-72.5c7.2-24.4,20.6-48.8,19.1-73.4c-1.1-17.4-9.8-34.7-8.2-52.1
		c1.5-16.5,12.2-32.5,15.9-48.9c7.7-33.6-13.6-68.3,8.9-100.6c21.8,15.4,18.6,34.8,10.4,52.3c-8.3,17.6-20.8,35.3-15.8,53.1
		c3.9,13.9,18.5,28.2,7.2,41.5c-6,7.1-19.1,13-23.6,20.2c-10.4,17.1,29.1,32.8,31.1,50.4c1.6,14-20.7,26.6-25.7,40.5
		c-5.9,16.5,12.8,32.5,22.6,48.7c9.8,16.1,6.3,36.7-28.4,44.9"/>
	<g>
		<g>
			<g>
				<g>
					<g>
						<defs>
							<path id="SVGID_72_" d="M449.8,319.7c0,108.6-93.7,154.8-209.4,154.8S31,428.3,31,319.7S124.7,10.1,240.4,10.1
								S449.8,211.1,449.8,319.7z"/>
						</defs>
						<clipPath id="SVGID_73_">
							<use xlink:href="#SVGID_72_"  style="overflow:visible;"/>
						</clipPath>
						<g class="st75">
							<path class="st76" d="M149.8,344.8c0.5-1.8-1.7-3-0.6-5c10.1-1-7.5-13.3-8.4-19.3c-1.3-8.3,5.6-13.9,6.1-20.5
								c0.2-1.5-4.6-3.1-5-5.4c-1.2-5.7-0.5-12.2-2-17.9c-3.7-14.4-12-27.8-23.8-36.9c-14.9-11-37.4-23.9-56.6-20.7
								c11.5,2.8,24.1,6,33,14.2c11.1,12.5-6.5,23.9-16.5,27.9c-9.6,4.1-13.6,10.7-21.8,6c-8.9-6.4-11.7-18.3-22.6-22.4
								c-0.8,7.8,7.9,15.4,5.3,23.4c-2.3,6.8-12.2,13.8-11.3,17c1.4,1.2,21.1-6.3,27.1-2.3c-2.5,1.5-3,17.9-4.1,20.7
								c-1.9,5.3-10.8,12.4-11.1,17.1c-0.6,6.8,4.6,4.5,11.8,5.1c9.7,0.4,21.5,3.1,29.7,8.5c-3.3-0.7-9.1,1.2-9.2,2.1
								c9.8,7.2,26.5,11.9,38.5,10.8c8.5-1.4,14.3-8.4,23-7.7C131.8,339.9,149.5,349.4,149.8,344.8
								C150,344.2,149.8,346.1,149.8,344.8z"/>
						</g>
					</g>
				</g>
				<g>
					<g>
						<defs>
							<path id="SVGID_74_" d="M449.8,319.7c0,108.6-93.7,154.8-209.4,154.8S31,428.3,31,319.7S124.7,10.1,240.4,10.1
								S449.8,211.1,449.8,319.7z"/>
						</defs>
						<clipPath id="SVGID_75_">
							<use xlink:href="#SVGID_74_"  style="overflow:visible;"/>
						</clipPath>
						<path class="st77" d="M141.2,303.3c0.2-1.5-4.6-3.1-5-5.4c-1.2-5.7-0.5-12.2-2-17.9c-3.7-14.4-12-27.8-23.8-36.9
							c-7-5.1-15.6-10.7-24.7-14.8c2.4,1.4,4.7,3.1,6.8,5c6.5,7.3,3.2,14.2-2.6,19.5c-4.3,4.8-11,8.5-15.9,10.4
							c-6.5,2.8-10.4,6.6-14.8,7.5c-3.4,1.7-6.5,2.3-10.7-0.1c-6.4-4.6-9.7-12.1-15.1-17.5c2.1,5,5.2,10,3.5,15.1
							c-2.3,6.8-12.2,13.8-11.3,17c1.4,1.2,21.1-6.3,27.1-2.3c-2.5,1.5-3,17.9-4.1,20.7c-1.9,5.3-10.8,12.4-11.1,17.1
							c-0.6,6.8,4.6,4.5,11.8,5.1c9.7,0.4,21.5,3.1,29.7,8.5c-1.4-0.3-3.3-0.1-5,0.2c1,0.5,2,1.1,3,1.8c-1.5-0.3-3.5-0.1-5.3,0.3
							c0.6,0.3,1.1,0.7,1.6,1c-0.6-0.1-1.2-0.1-1.9-0.1c9.9,6.6,25.5,10.7,36.9,9.7c8.5-1.4,14.3-8.4,23-7.7c0.3,0.2,6.8,3.8,12,5.6
							c-0.2-0.6-0.2-1.2,0.2-1.9c10.1-1-7.5-13.3-8.4-19.3C133.8,315.5,140.7,309.9,141.2,303.3z"/>
					</g>
				</g>
			</g>
		</g>
	</g>
</g>
<g>
	<path class="st78" d="M259.8,290.5c0.1-1.7-1.5-2.1-1-4.1c6.6-3.6-6.7-8.3-8-12.4c-2-5.7,2.1-11.7,1.6-16.8
		c-0.1-1.2-3.6-0.8-4.2-2.4c-1.6-3.9-2-10.2-3.8-15.1c-4.2-11.9-11.6-23.6-21.9-31.2c-12.9-8.5-29-7.2-42.1,0
		c8.1-2.3,18.9-5,24.8-1.3c9.4,5.8,0.6,16.4-6.9,20.1c-5.8,3.4-7.5,7.1-13.7,5.9c-6.9-1.3-10.3-7.4-18.8-3.5
		c0.8,4.1,7.8,3.8,7.4,8.9c-0.4,4.3-5.9,14-4.7,15.4c1.1,0,12.9-12.3,17.6-10.3c-1.4,1.5,0.8,13.9,0.5,16.2
		c-0.4,4.4-5.2,11.1-4.7,14.8c0.7,5.3,3.7,3.2,8.5,3.1c7,0,13.5,1,20.8,6.1c-2.3-0.7-5.8,0.9-5.8,1.6c7.3,5.2,18,8.5,26.9,9.2
		c5.5-0.4,8.4-5,14.3-5.3C247.2,289.6,260.2,294.5,259.8,290.5C259.9,289.9,259.9,291.6,259.8,290.5z"/>
</g>
<path class="st79" d="M249.3,275.8c-2-5.7,2.1-11.7,1.6-16.8c-0.1-1.2-3.6-0.8-4.2-2.4c-1.6-3.9-2-10.2-3.8-15.1
	c-4.2-11.9-11.6-23.6-21.9-31.2c-10.3-6.8-22.7-7.3-34-3.6c6.7-1.5,13.8-2.3,18.2,0.4c6.4,3.9,4.4,10.1,0.1,14.8
	c-2.2,3-5.4,5.7-8.5,7.2c-5.8,3.4-7.5,7.1-13.7,5.9c-6.4-1.2-9.7-6.5-16.9-4.2c1.7,3,7.3,3.2,7,7.8c-0.4,4.3-5.9,14-4.7,15.4
	c1.1,0,12.9-12.3,17.6-10.3c-1.4,1.5,0.8,13.9,0.5,16.2c-0.4,4.4-5.2,11.1-4.7,14.8c0.7,5.3,3.7,3.2,8.5,3.1c7,0,13.5,1,20.8,6.1
	c-1.2-0.4-2.7-0.1-3.9,0.3c0.8,0.5,1.6,1,2.4,1.5c-1.1-0.3-2.5-0.1-3.6,0.2c7.3,4.9,17.6,8.1,26.2,8.7c5.5-0.4,8.4-5,14.3-5.3
	c0.5,0.2,8.3,3.1,11.7,2.6c-0.1-1.4-1.4-1.9-1-3.8c0.7-0.4,1.1-0.7,1.4-1.1c0-0.2,0-0.5,0.1-0.7c0.1-0.1,0.2-0.1,0.3-0.2
	C259.5,283,250.4,279.2,249.3,275.8z"/>
<linearGradient id="SVGID_76_" gradientUnits="userSpaceOnUse" x1="-1730.3615" y1="1512.8425" x2="-1728.8" y2="1495.6672" gradientTransform="matrix(-0.2897 1.1792 1.2641 0.3105 -2189.0791 1959.3727)">
	<stop  offset="0" style="stop-color:#004E7F;stop-opacity:0"/>
	<stop  offset="0.2917" style="stop-color:#004B7B;stop-opacity:0.2917"/>
	<stop  offset="0.5662" style="stop-color:#004270;stop-opacity:0.5662"/>
	<stop  offset="0.833" style="stop-color:#00335D;stop-opacity:0.833"/>
	<stop  offset="1" style="stop-color:#00274D"/>
</linearGradient>
<path class="st80" d="M205.4,375.4c7.2,1.7,11.8,8.2,10.1,14.5c-1.3,4.9-5.9,8.3-11.3,8.8c6.9,0.3,13.1-3.7,14.7-9.8
	c1.8-7-3.2-14.2-11.2-16.1c-8-1.8-15.9,2.3-17.8,9.2C192.4,376.8,198.9,373.9,205.4,375.4z"/>
<linearGradient id="SVGID_77_" gradientUnits="userSpaceOnUse" x1="-1054.3252" y1="1411.7179" x2="-1051.7117" y2="1382.9708" gradientTransform="matrix(0.2545 1.1873 1.2728 -0.2729 -1334.7444 2037.5215)">
	<stop  offset="0" style="stop-color:#004E7F;stop-opacity:0"/>
	<stop  offset="0.2917" style="stop-color:#004B7B;stop-opacity:0.2917"/>
	<stop  offset="0.5662" style="stop-color:#004270;stop-opacity:0.5662"/>
	<stop  offset="0.833" style="stop-color:#00335D;stop-opacity:0.833"/>
	<stop  offset="1" style="stop-color:#00274D"/>
</linearGradient>
<path class="st81" d="M154.8,394.4c12.2-2.5,24.1,4.2,26.6,15c1.9,8.3-2.4,16.6-10.1,21c10.6-4.3,16.9-14.6,14.6-24.9
	c-2.7-11.9-15.9-19.3-29.5-16.6c-13.4,2.7-22.2,14.4-19.7,26.1C136.3,405.5,143.8,396.6,154.8,394.4z"/>
<linearGradient id="SVGID_78_" gradientUnits="userSpaceOnUse" x1="-788.5606" y1="1725.954" x2="-787.8969" y2="1718.6526" gradientTransform="matrix(0.3405 0.9403 0.9403 -0.3405 -1143.8713 1651.476)">
	<stop  offset="0" style="stop-color:#004E7F;stop-opacity:0"/>
	<stop  offset="0.2917" style="stop-color:#004B7B;stop-opacity:0.2917"/>
	<stop  offset="0.5662" style="stop-color:#004270;stop-opacity:0.5662"/>
	<stop  offset="0.833" style="stop-color:#00335D;stop-opacity:0.833"/>
	<stop  offset="1" style="stop-color:#00274D"/>
</linearGradient>
<path class="st82" d="M202.7,322.8c2.4-0.6,5.1,0.2,5.9,1.8c0.7,1.2,0.1,2.5-1.3,3.3c2-0.8,2.9-2.4,2.1-3.9c-1-1.7-3.9-2.6-6.6-2
	c-2.6,0.6-4,2.5-3.1,4.2C199.3,324.7,200.5,323.3,202.7,322.8z"/>
<linearGradient id="SVGID_79_" gradientUnits="userSpaceOnUse" x1="-123.6138" y1="816.2162" x2="-122.8449" y2="807.7583" gradientTransform="matrix(0.8782 0.6238 0.6852 -0.9647 -261.3204 1210.5004)">
	<stop  offset="0" style="stop-color:#004E7F;stop-opacity:0"/>
	<stop  offset="0.2917" style="stop-color:#004B7B;stop-opacity:0.2917"/>
	<stop  offset="0.5662" style="stop-color:#004270;stop-opacity:0.5662"/>
	<stop  offset="0.833" style="stop-color:#00335D;stop-opacity:0.833"/>
	<stop  offset="1" style="stop-color:#00274D"/>
</linearGradient>
<path class="st83" d="M180.2,351.5c1.9-2.7,5.7-3.4,8.3-1.5c2.1,1.5,2.9,4,2.3,6.4c1.2-2.8,0.4-6.2-2.2-8c-3-2.1-7.1-1.3-9.2,1.7
	s-1.5,7.1,1.4,9.2C178.8,357.2,178.5,353.9,180.2,351.5z"/>
<linearGradient id="SVGID_80_" gradientUnits="userSpaceOnUse" x1="-1423.2003" y1="1987.0569" x2="-1422.1967" y2="1976.0167" gradientTransform="matrix(4.489659e-11 1 1 -4.489659e-11 -1704.7307 1695.7446)">
	<stop  offset="0" style="stop-color:#004E7F;stop-opacity:0"/>
	<stop  offset="0.2917" style="stop-color:#004B7B;stop-opacity:0.2917"/>
	<stop  offset="0.5662" style="stop-color:#004270;stop-opacity:0.5662"/>
	<stop  offset="0.833" style="stop-color:#00335D;stop-opacity:0.833"/>
	<stop  offset="1" style="stop-color:#00274D"/>
</linearGradient>
<path class="st84" d="M271.5,268.5c3.7,0,6.7,2.7,6.7,5.9c0,2.5-1.8,4.7-4.3,5.5c3.3-0.6,5.8-3.3,5.8-6.4c0-3.6-3.3-6.6-7.4-6.6
	c-4,0-7.3,2.9-7.4,6.5C265.5,270.6,268.2,268.5,271.5,268.5z"/>
<linearGradient id="SVGID_81_" gradientUnits="userSpaceOnUse" x1="-1448.4662" y1="1981.4392" x2="-1447.8501" y2="1974.6626" gradientTransform="matrix(4.489659e-11 1 1 -4.489659e-11 -1704.7307 1695.7446)">
	<stop  offset="0" style="stop-color:#004E7F;stop-opacity:0"/>
	<stop  offset="0.2917" style="stop-color:#004B7B;stop-opacity:0.2917"/>
	<stop  offset="0.5662" style="stop-color:#004270;stop-opacity:0.5662"/>
	<stop  offset="0.833" style="stop-color:#00335D;stop-opacity:0.833"/>
	<stop  offset="1" style="stop-color:#00274D"/>
</linearGradient>
<path class="st85" d="M270,243.2c2.3,0,4.1,2.4,4.1,5.5c0,2.3-1.1,4.3-2.6,5.1c2-0.6,3.6-3,3.6-5.9c0-3.3-2-6.1-4.5-6.1
	s-4.5,2.7-4.5,6C266.3,245.2,268,243.2,270,243.2z"/>
<g>
	<path class="st86" d="M490.5,480.5C491.1,483,490.6,479.1,490.5,480.5L490.5,480.5z"/>
</g>
<ellipse transform="matrix(0.7897 -0.6135 0.6135 0.7897 7.9609 213.9933)" class="st87" cx="316.1" cy="95.4" rx="23.6" ry="56.7"/>
</svg>
