<?xml version="1.0" encoding="utf-8"?>
<!-- Generator: Adobe Illustrator 19.0.0, SVG Export Plug-In . SVG Version: 6.00 Build 0)  -->
<svg version="1.1" id="Layer_1" xmlns="http://www.w3.org/2000/svg" xmlns:xlink="http://www.w3.org/1999/xlink" x="0px" y="0px"
	 viewBox="-255 345.8 100 100" style="enable-background:new -255 345.8 100 100;" xml:space="preserve">
<path d="M-156,415.6c-0.3-1.1-2.1-1.1-2.1-2.5c5.9-3.4-9.2-5.1-11.7-8.2c-3.6-4.3-1.2-9.2-3.1-13.1c-0.4-0.9-3.8-0.7-4.8-1.9
	c-2.6-3-4.3-7-7-10.1c-6.6-7.6-16.3-14.9-25.2-18.5c-8.7-3.5-29.4-9.7-36.6-4c6.7,0,15.7,0.1,21.6,3.9c9.3,6,4.1,16.3-1.4,23.3
	c-4.3,5.4-4.9,11.6-10.8,10.6c-6.5-1.1-10.9-11.4-18.2-10.7c1.4,6.6,8.1,9.9,8.5,17.2c0.3,6.2-4,16-2.7,18.3
	c1.1,0.4,11-13.3,15.6-12.4c-1.1,2,2.8,14.6,2.9,17.2c0.2,4.8-3.6,14.5-2.7,18.4c1.3,5.6,4.1,1,8.9-2c6.9-4.3,13.3-7.3,21.2-7.3
	c-2.3,0.9-5.4,4.7-5.2,5.3c0.2,1.1,20.3-2.9,27.6-8.6c4.9-3.9,6.2-9.8,11.8-12.1C-168.9,418.3-154.6,418.1-156,415.6
	C-156.1,415.2-155.6,416.3-156,415.6z"/>
</svg>
