<?xml version="1.0" encoding="utf-8"?>
<!-- Generator: Adobe Illustrator 19.0.0, SVG Export Plug-In . SVG Version: 6.00 Build 0)  -->
<svg version="1.1" id="Layer_1" xmlns="http://www.w3.org/2000/svg" xmlns:xlink="http://www.w3.org/1999/xlink" x="0px" y="0px"
	 viewBox="-260.5 346.6 100 100" style="enable-background:new -260.5 346.6 100 100;" xml:space="preserve">
<path d="M-196.1,411.5c0,0-1.5,1.6-2.8,2.8c-1.3,1.1-2.4,2.1-2.4,2.9c0,0.8,4.7,1.8,4.7,8.1c0,3.7-3.9,6.3-15.1,6.3
	c-7.8,0-14.5-0.4-14.5,0.2c0,0.7,6.7,2.4,12.9,2.2c8.7-0.2,14.7-1.3,15.2-0.3c0.4,0.8-0.4,1.4-1.7,1.7c-1.3,0.3-4.9,0.8-4.9,1.5
	c0,0.7,5,0.1,6.5,0.2c2.8,0.1,3.3,0.5,3.3,1.5c0,1.4-2.4,1.1-4.8,1c-2.2-0.1-3.9-0.4-4.4,0.3c-0.4,0.7,7.1,2.1,6.6,3.8
	c-0.4,1.3-2.7,0.6-5.4-0.4c-2-0.8-5.6-1.8-8-2c-2.4-0.2-10.2-0.2-18-0.9c-10.6-1-29.1-11.5-29.1-18.1c0-2.6,3.1-3.9,3.4-4.9
	c2.4-8.6,8.7-25.6,16-31.7c6.2-5.1,13.4-5.5,27.7-12.1c10.6-4.8,13.4-5.7,16.4-7.8c1.9-1.3,3.6-4.5,4.5-5.6c1-1.1,3.6-2.3,5.5-2.3
	c3.3,0,4.9,2.8,8.6,4.1c3,1,12.3,2.4,12.3,6c0,3.9-0.6,9.2-6,17.5c-5.4,8.3-11.5,15.1-12.3,16.7c-0.8,1.6-1.1,5.2-2.4,8.6
	c-1.3,3.4-2.7,6.6-2.3,7.6c0.3,1,8.4,8.2,10,8.2c1.6,0,6.1-1.6,7.9-2.5c2.8-1.4,4.8-1.3,4.9-0.4c0.2,1.4-6.4,3.1-5.9,4.3
	c0.5,1.2,8.5-0.1,8.5,1.4c0,0.8-1.1,1.2-2.9,1.3c-2.3,0.2-4.7,0.1-4.7,1.2c0,1.1,6.4,1.1,6.4,2.6c0,0.4-0.4,0.8-1.7,0.8
	c-3.6,0-11.8-1.6-13-2.1c-1.6-0.6-18-7.9-18.4-13.1c-0.5-5.2,0-8.4,0-8.4L-196.1,411.5z"/>
</svg>
