<?xml version="1.0" encoding="utf-8"?>
<!-- Generator: Adobe Illustrator 22.1.0, SVG Export Plug-In . SVG Version: 6.00 Build 0)  -->
<svg version="1.1" id="Layer_1" xmlns="http://www.w3.org/2000/svg" xmlns:xlink="http://www.w3.org/1999/xlink" x="0px" y="0px"
	 viewBox="0 0 153.2 153.2" style="enable-background:new 0 0 153.2 153.2;" xml:space="preserve">
<style type="text/css">
	.st0{fill:#FFFFFF;}
	.st1{fill:#9D1C1F;}
	.st2{fill:#EBFFFC;}
</style>
<g>
	<circle class="st0" cx="76.6" cy="76.6" r="65.2"/>
	<path class="st1" d="M108.6,120.2c-12.7,0-20.9-6-24.9-14l11.1-6.5c2.9,4.8,6.7,8.3,13.5,8.3c5.7,0,9.3-2.8,9.3-6.7
		c0-4.7-3.7-6.3-10-9.1l-3.4-1.5c-9.9-4.2-16.4-9.5-16.4-20.6c0-10.3,7.8-18.1,20-18.1c8.7,0,14.9,3,19.4,10.9l-10.6,6.8
		c-2.3-4.2-4.9-5.9-8.8-5.9c-4,0-6.5,2.5-6.5,5.9c0,4.1,2.5,5.8,8.4,8.3l3.4,1.5c11.6,5,18.2,10.1,18.2,21.5c0,1.3-0.1,2.5-0.3,3.7
		c4.4-8.5,6.9-18.1,6.9-28.3c0-33.8-27.4-61.2-61.2-61.2S15.4,42.8,15.4,76.6s27.4,61.2,61.2,61.2c18.6,0,35.2-8.3,46.4-21.3
		C119.2,119,114.2,120.2,108.6,120.2z M76.3,99.6c0,14.2-8.3,20.6-20.4,20.6c-10.9,0-17.3-5.7-20.5-12.5l11.1-6.7
		c2.1,3.8,4.1,7,8.8,7c4.5,0,7.3-1.8,7.3-8.6V52.9h13.7C76.3,52.9,76.3,99.6,76.3,99.6z"/>
</g>
<g>
	<path class="st2" d="M29.8,72.6c0-0.2,0.1-0.4,0.1-0.6c0.1-0.5-0.1-1-0.8-1.1L21.5,70l0.2-1.7l7.5,0.9c2,0.2,2.4,1.5,2.2,2.8
		c0,0.3-0.1,0.5-0.1,0.8L29.8,72.6z"/>
	<path class="st2" d="M33.2,62.4l-0.4,1.7L31,63.9L30.5,66l1.7,0.7l-0.4,1.5L22.5,64l0.6-2.5L33.2,62.4z M29.2,65.4l0.4-1.6
		l-5.1-0.4L29.2,65.4z"/>
	<path class="st2" d="M32.8,58.4L25.7,54l0.6-1.5l8.6,5.4l-1,2.4l-10-2.3l0.7-1.6L32.8,58.4z"/>
	<path class="st2" d="M39,50.8l-0.9,1.5l-1.7-0.7l-1.1,1.8l1.4,1.2L35.9,56l-7.8-6.7l1.3-2.2L39,50.8z M34.2,52.6l0.9-1.4l-4.8-1.9
		L34.2,52.6z"/>
	<path class="st2" d="M33.3,41.6c1.1-1.3,2.3-1.4,3.6-0.4l0.2,0.2l-1,1.3l-0.3-0.3c-0.6-0.5-1-0.4-1.3,0.1c-0.3,0.4-0.3,0.8,0.2,1.3
		c1.6,1.3,4.1-1.1,6.3,0.7c1.3,1,1.4,2.3,0.3,3.6s-2.3,1.4-3.6,0.4l-0.5-0.4l1-1.3l0.6,0.5c0.6,0.5,1,0.3,1.3-0.1
		c0.3-0.4,0.4-0.9-0.2-1.3c-1.6-1.3-4.1,1.1-6.3-0.7C32.4,44.2,32.2,42.9,33.3,41.6z"/>
	<path class="st2" d="M45,38.7l0.9,1c1.1,1.2,1.1,2.5-0.2,3.6c-1.3,1.2-2.5,1.1-3.6-0.1l-3.6-3.8c-1.1-1.2-1.1-2.5,0.2-3.6
		c1.3-1.2,2.5-1.1,3.6,0.1l0.7,0.7l-1.2,1.1l-0.7-0.8c-0.5-0.5-0.9-0.5-1.3-0.1s-0.5,0.8,0,1.3l3.7,4c0.5,0.5,0.9,0.5,1.3,0.1
		s0.5-0.8,0-1.3l-1-1.1L45,38.7z"/>
	<path class="st2" d="M51.7,38.5c-0.2-0.2-0.4-0.3-0.8-0.9L50,36.3c-0.5-0.8-1-0.9-1.7-0.4l-0.5,0.3l2.3,3.4l-1.4,1L43,32.3l2.2-1.5
		c1.5-1,2.6-0.8,3.4,0.4l0.4,0.7c0.6,0.9,0.7,1.6,0.2,2.3c0.9-0.2,1.6,0.2,2.2,1.1l0.9,1.3c0.3,0.4,0.5,0.7,0.9,0.9L51.7,38.5z
		 M45.2,32.5L47,35l0.6-0.4c0.5-0.4,0.7-0.8,0.3-1.5l-0.6-0.8c-0.4-0.6-0.8-0.7-1.3-0.3L45.2,32.5z"/>
	<path class="st2" d="M49.7,27.9l1.5-0.8l4.7,8.9l-1.5,0.8L49.7,27.9z"/>
	<path class="st2" d="M59.5,26.2l0.5,1.2c0.6,1.5,0.1,2.6-1.5,3.3L57.7,31l1.4,3.5l-1.6,0.6l-3.7-9.4l2.4-0.9
		C57.8,24.2,59,24.7,59.5,26.2z M56,26.5l1.3,3.2l0.8-0.3c0.5-0.2,0.7-0.5,0.4-1.2l-0.6-1.4c-0.3-0.7-0.6-0.8-1.1-0.6L56,26.5z"/>
	<path class="st2" d="M60.7,23.3l5.2-1.3l0.3,1.4l-1.8,0.4l2.1,8.4l-1.7,0.4l-2.1-8.4l-1.8,0.4L60.7,23.3z"/>
</g>
</svg>
