<?xml version="1.0" encoding="utf-8"?>
<!-- Generator: Adobe Illustrator 19.0.0, SVG Export Plug-In . SVG Version: 6.00 Build 0)  -->
<svg version="1.1" id="Layer_1" xmlns="http://www.w3.org/2000/svg" xmlns:xlink="http://www.w3.org/1999/xlink" x="0px" y="0px"
	 viewBox="74.4 203.4 153.2 153.2" style="enable-background:new 74.4 203.4 153.2 153.2;" xml:space="preserve">
<style type="text/css">
	.st0{fill:url(#SVGID_1_);}
	.st1{fill:url(#SVGID_2_);}
	.st2{fill:#EBFFFC;}
</style>
<g>
	<radialGradient id="SVGID_1_" cx="151" cy="280" r="65.1906" gradientUnits="userSpaceOnUse">
		<stop  offset="0" style="stop-color:#EBFFFC"/>
		<stop  offset="0.9624" style="stop-color:#BBBDCC"/>
		<stop  offset="1" style="stop-color:#BDBFCE"/>
	</radialGradient>
	<circle class="st0" cx="151" cy="280" r="65.2"/>
	<linearGradient id="SVGID_2_" gradientUnits="userSpaceOnUse" x1="89.7607" y1="280.0242" x2="212.2392" y2="280.0242">
		<stop  offset="0" style="stop-color:#9D1C1F"/>
		<stop  offset="1" style="stop-color:#240808"/>
	</linearGradient>
	<path class="st1" d="M183,323.6c-12.7,0-20.9-6-24.9-14l11.1-6.5c2.9,4.8,6.7,8.3,13.5,8.3c5.7,0,9.3-2.8,9.3-6.7
		c0-4.7-3.7-6.3-10-9.1l-3.4-1.5c-9.9-4.2-16.4-9.5-16.4-20.6c0-10.3,7.8-18.1,20-18.1c8.7,0,14.9,3,19.4,10.9l-10.6,6.8
		c-2.3-4.2-4.9-5.9-8.8-5.9c-4,0-6.5,2.5-6.5,5.9c0,4.1,2.5,5.8,8.4,8.3l3.4,1.5c11.6,5,18.2,10.1,18.2,21.5c0,1.3-0.1,2.5-0.3,3.7
		c4.4-8.5,6.9-18.1,6.9-28.3c0-33.8-27.4-61.2-61.2-61.2S89.8,246.2,89.8,280s27.4,61.2,61.2,61.2c18.6,0,35.2-8.3,46.4-21.3
		C193.6,322.4,188.6,323.6,183,323.6z M150.7,303c0,14.2-8.3,20.6-20.4,20.6c-10.9,0-17.3-5.7-20.5-12.5l11.1-6.7
		c2.1,3.8,4.1,7,8.8,7c4.5,0,7.3-1.8,7.3-8.6v-46.5h13.7V303z"/>
</g>
<g>
	<path class="st2" d="M104.2,276c0-0.2,0.1-0.4,0.1-0.6c0.1-0.5-0.1-1-0.8-1.1l-7.6-0.9l0.2-1.7l7.5,0.9c2,0.2,2.4,1.5,2.2,2.8
		c0,0.3-0.1,0.5-0.1,0.8L104.2,276z"/>
	<path class="st2" d="M107.6,265.8l-0.4,1.7l-1.8-0.2l-0.5,2.1l1.7,0.7l-0.4,1.5l-9.3-4.2l0.6-2.5L107.6,265.8z M103.6,268.8
		l0.4-1.6l-5.1-0.4L103.6,268.8z"/>
	<path class="st2" d="M107.2,261.8l-7.1-4.4l0.6-1.5l8.6,5.4l-1,2.4l-10-2.3l0.7-1.6L107.2,261.8z"/>
	<path class="st2" d="M113.4,254.2l-0.9,1.5l-1.7-0.7l-1.1,1.8l1.4,1.2l-0.8,1.4l-7.8-6.7l1.3-2.2L113.4,254.2z M108.6,256l0.9-1.4
		l-4.8-1.9L108.6,256z"/>
	<path class="st2" d="M107.7,245c1.1-1.3,2.3-1.4,3.6-0.4l0.2,0.2l-1,1.3l-0.3-0.3c-0.6-0.5-1-0.4-1.3,0.1c-0.3,0.4-0.3,0.8,0.2,1.3
		c1.6,1.3,4.1-1.1,6.3,0.7c1.3,1,1.4,2.3,0.3,3.6c-1.1,1.3-2.3,1.4-3.6,0.4l-0.5-0.4l1-1.3l0.6,0.5c0.6,0.5,1,0.3,1.3-0.1
		c0.3-0.4,0.4-0.9-0.2-1.3c-1.6-1.3-4.1,1.1-6.3-0.7C106.8,247.6,106.6,246.3,107.7,245z"/>
	<path class="st2" d="M119.4,242.1l0.9,1c1.1,1.2,1.1,2.5-0.2,3.6c-1.3,1.2-2.5,1.1-3.6-0.1l-3.6-3.8c-1.1-1.2-1.1-2.5,0.2-3.6
		c1.3-1.2,2.5-1.1,3.6,0.1l0.7,0.7l-1.2,1.1l-0.7-0.8c-0.5-0.5-0.9-0.5-1.3-0.1c-0.4,0.4-0.5,0.8,0,1.3l3.7,4
		c0.5,0.5,0.9,0.5,1.3,0.1c0.4-0.4,0.5-0.8,0-1.3l-1-1.1L119.4,242.1z"/>
	<path class="st2" d="M126.1,241.9c-0.2-0.2-0.4-0.3-0.8-0.9l-0.9-1.3c-0.5-0.8-1-0.9-1.7-0.4l-0.5,0.3l2.3,3.4l-1.4,1l-5.7-8.3
		l2.2-1.5c1.5-1,2.6-0.8,3.4,0.4l0.4,0.7c0.6,0.9,0.7,1.6,0.2,2.3c0.9-0.2,1.6,0.2,2.2,1.1l0.9,1.3c0.3,0.4,0.5,0.7,0.9,0.9
		L126.1,241.9z M119.6,235.9l1.8,2.5l0.6-0.4c0.5-0.4,0.7-0.8,0.3-1.5l-0.6-0.8c-0.4-0.6-0.8-0.7-1.3-0.3L119.6,235.9z"/>
	<path class="st2" d="M124.1,231.3l1.5-0.8l4.7,8.9l-1.5,0.8L124.1,231.3z"/>
	<path class="st2" d="M133.9,229.6l0.5,1.2c0.6,1.5,0.1,2.6-1.5,3.3l-0.8,0.3l1.4,3.5l-1.6,0.6l-3.7-9.4l2.4-0.9
		C132.2,227.6,133.4,228.1,133.9,229.6z M130.4,229.9l1.3,3.2l0.8-0.3c0.5-0.2,0.7-0.5,0.4-1.2l-0.6-1.4c-0.3-0.7-0.6-0.8-1.1-0.6
		L130.4,229.9z"/>
	<path class="st2" d="M135.1,226.7l5.2-1.3l0.3,1.4l-1.8,0.4l2.1,8.4l-1.7,0.4l-2.1-8.4l-1.8,0.4L135.1,226.7z"/>
</g>
</svg>
