<?xml version="1.0" encoding="utf-8"?>
<!-- Generator: Adobe Illustrator 19.0.0, SVG Export Plug-In . SVG Version: 6.00 Build 0)  -->
<svg version="1.1" id="Layer_1" xmlns="http://www.w3.org/2000/svg" xmlns:xlink="http://www.w3.org/1999/xlink" x="0px" y="0px"
	 viewBox="0 0 370 370" style="enable-background:new 0 0 370 370;" xml:space="preserve">
<style type="text/css">
	.st0{fill:#9D1C1F;}
</style>
<path id="XMLID_333_" class="st0" d="M86.3,311.6c16.9,8.7,32.2,6.1,44.8-6c10-9.6,18.7-20.6,28.4-30.9c4.6-4.7,10.4-8,16-12.2
	c1,0.6,2.2,1.9,3.2,2.5c-4.3,20.7-6.8,41.7-13.8,61.5c-6.3,19.6-32.8,30.5-51.2,22.2c-25.5-12.2-50.8-27-62.2-55.1
	c-3.2-8.4-4.3-18.2-4.9-29.1c10.9,20.6,26.5,30.5,49.6,25.7c11.2-2.3,23.4-4.1,32.4-16.8c-5.1-0.2-9.3,0.1-12.6,0.2
	c-6.7,0.2-13.4,0.4-20.1,0.6c-28.1-0.5-42-10.9-51.2-37.1c-9.4-27-9.4-54-3.6-81.1c1.2-4.6,2.7-8.4,6.3-13.6
	c18.7,36.1,49.2,51.1,86.9,55.7c0.6-1,1.3-1.2,1.1-2c-1.8-0.3-3-1.7-4.8-2c-13.6-6.3-27.3-12.5-40.6-20.6c-6-3.4-11.7-8.5-16.6-13.9
	c-19.7-21.5-21.2-32.9-5.2-56.9c6.4-10.3,14.6-20.2,22.2-29.2c2.5-3.2,6.2-5.1,11.7-9.3c-3.1,39.8,15.5,63.3,47,78.9
	c-6.6-8.3-14.7-16.1-20.8-25.4c-6.2-10.1-12.7-20.9-15.8-31.9c-5.2-15.4,0.1-26.3,14.7-34.6c7.4-3.8,14-7.4,21.6-10.4
	c12.1-5.1,23.2-10.8,29.7-23.7C200.8,30.2,222,42,242.7,55.6c12.3,7.5,15.2,17.7,11.7,32.2c-4.3,14.8-12.8,26.5-23.3,37.1
	c-8.6,8.4-18.2,16.2-26.9,24.6c-1.9,2.2-2.4,6.6-4,9.6c3.4-0.1,8.9,1.7,10.8-0.5c19.2-15.6,40.7-29.4,50-53.2
	c4.4-11.4,4.9-24.3,7.3-36.8c8.7,6.8,16.5,16.5,23.8,27.1c5.6,7.7,10.4,15.7,15.7,22.6c9.7,13.3,10.6,22.4,0.5,34.5
	c-10.6,13.2-22.1,26.6-35.4,36.3c-9.1,6.8-23,8.2-35,10.8c-9.6,1.9-18.7,2.8-28.5,3.9c-3.1,0.9-6.3,1.8-11.5,4.1
	c15.2,11.8,29.9,16,46.4,11.3c10.2-2.9,19.7-8.1,28.7-14.9c16.2-11.4,29-26,38.3-43.9c2.2-4,4.7-7.3,8.1-13.3
	c1.1,3.9,1.8,6.3,2.5,8.6c2,30.7,5.5,61,6.5,91.2c1.3,28.4-23.2,46.4-51.1,37.4c-12-3.4-23-9.5-35.2-13.7c-4.8-2-11-2.8-16.7-2
	c10.8,17.2,29.2,22.2,46.7,27.3c19.3,5.5,35.6-5.9,52.9-13.4c-4.4,11.4-8,22.6-13.3,33.4c-3.4,6-10.3,11.4-15.9,15.5
	c-9.8,7-20.7,13.5-31,19c-6.6,3.6-13.8,8.1-20.8,10.2c-24.3,6.9-45.7-9-49.4-36.7c-2.7-21.2-4.5-42.7-7-63.2
	c-0.2-0.8,0.3-1.8,1.5-3.8c2.9,4.3,5.6,7.7,8,10.4c12.5,14.2,25.5,30,39.3,43c6.9,6.5,17.3,10.3,26.9,14.3c3,1.7,7.7,0.3,11.8,0
	c-42.9-8.1-58.5-45.1-82.8-73.8c22.6,8,45.6,5.6,67.5-0.6c22.1-5.5,41.7-16.9,53.7-37.3c-0.2-0.8-1.2-1.3-1.5-2.1
	c-3.2,3.5-5.9,5.9-9.2,9.4c-27.4,25.6-59.7,33.9-95.9,25.6c-12.7-3.1-15.4-6.6-16.6-19.8c-0.4-1.6-0.1-3.4,0-5.9
	c-0.6-26-0.6-26,24.2-34c20.9-6.8,39.1-17.1,54.3-32.4c7.8-8.2,13.7-17.4,12.9-29.1c-1.3,1.2-3.2,3.5-4.6,4.7
	c-18,28.8-47.2,42.2-77.4,55c-8.4,3.2-10.2-3-10.4-9.7c-1.3-22.5-2.4-44.2-3.7-66.6c-0.8-23.5-2.1-45.9-2.8-69.4
	c-0.8,0.2-2.6-0.1-3.4,0.1c-0.3,13.6-1.5,27.5-1,40.9c0.8,29.4,2.5,59.4,4,88.5c0.9,15-2.6,17.7-16.6,13.2
	c-33.1-9.2-57.7-30.1-72.5-61.5c-2.1-4.5-4.2-8.9-6.4-13.4c0,0-0.8,0.2-3.8-1.5c4.1,11.5,7,21.7,11.3,30.6
	c14.5,27.2,37,43.6,67.2,51.9c5.6,1.8,14.8,4.3,16.1,9c2.7,9.4,2.2,19.7,1.5,29.2c-0.3,1.8-4.6,4.7-7.7,5.6
	c-30.8,7.9-61.6,6.5-89.2-10.2c-3-1.7-5.5-4.4-7.7-6.3c-0.6,1-1.7,3-2.2,4c13.3,14,28.5,25.7,48,26.1s38.2-2.4,58.7-4.9
	c2.3,5.3-0.5,10.3-6.8,14.6c-7.7,5.6-15.7,10.4-21.1,17.9C134.9,295.2,117.8,315.3,86.3,311.6z"/>
</svg>
