<?xml version="1.0" encoding="utf-8"?>
<!-- Generator: Adobe Illustrator 19.0.0, SVG Export Plug-In . SVG Version: 6.00 Build 0)  -->
<svg version="1.1" id="Layer_1" xmlns="http://www.w3.org/2000/svg" xmlns:xlink="http://www.w3.org/1999/xlink" x="0px" y="0px"
	 viewBox="-298 249 362.5 63" style="enable-background:new -298 249 362.5 63;" xml:space="preserve">
<style type="text/css">
	.st0{fill:#FFFFFF;}
	.st1{fill:none;stroke:#FFFFFF;stroke-linecap:round;stroke-miterlimit:10;}
</style>
<path id="XMLID_178_" class="st0" d="M-117.9,302.8c0.9-3.5,1.1-7.1,0.9-10.9c-0.4,0.3-0.6,0.5-0.9,0.6c-1.6,1.2-3.3,2-5.3,2
	c-1.5,0.1-2.7-0.5-3.8-1.4c-1.6-1.2-3.2-3.2-3.7-4.7c0.5,0.1,0.9,0.2,1.3,0.3c2,0.3,4.1,0.8,6.1,1c1.7,0.1,2.8-1,2.8-2.7
	c0-0.5-0.2-0.7-0.7-0.6c-0.2,0-0.5,0.1-0.7,0.1c-3,1.2-6.1,0.6-9.1,0.5c-0.2,0-0.6-0.3-0.7-0.6c-1.1-2.9-1.3-5.8-1-9
	c0.3,0.2,0.6,0.4,0.8,0.6c1.9,2.1,4.3,3.3,6.9,4.1c0.9,0.3,1.8,0.5,2.8,0.7c1.1,0.2,2.3-0.5,2.4-1.2c0.1-0.6-0.8-1.5-1.8-1.9
	c-0.3-0.1-0.7-0.2-1.1-0.2c-3.5-0.3-6.4-1.9-9.3-3.6c-0.2-0.1-0.4-0.5-0.4-0.8c0.5-2.8,1.4-5.4,2.8-8c0.9,1,1.7,1.9,2.4,2.9
	c1.3,1.7,2.6,3.4,3.9,5c0.3,0.4,0.9,0.8,1.4,0.9c0.9,0.3,1.6-0.4,1.2-1.2c-0.4-1-0.9-2-1.7-2.8c-1.6-1.7-3.5-3.2-5.2-4.9
	c-1.6-1.6-1.5-1.3-0.1-2.8s2.9-2.8,4.4-4.2c0.1,0,0.1,0.1,0.2,0.1c0.1,1.1,0.2,2.2,0.5,3.2c0.5,1.7,1.2,3.4,1.8,5
	c0.1,0.2,0.2,0.5,0.4,0.6c0.4,0.2,0.8,0.4,1.2,0.4c0.2,0,0.4-0.6,0.4-0.9c0.2-2.2-0.7-4.1-1.5-6c-0.4-1-0.8-2-1.1-3
	c-0.1-0.2,0.1-0.7,0.2-0.8c1-0.8,2.1-1.6,3.2-2.3c0.1-0.1,0.5-0.1,0.6,0c1.9,1.1,3.7,2.3,5.5,3.4c0.2,0.1,0.2,0.5,0.2,0.7
	c-0.2,0.6-0.5,1.1-0.7,1.7c-0.6,1.6-1.3,3.2-1.9,4.8c-0.2,0.5-0.3,1.1,0.3,1.4c0.6,0.3,1.2,0.3,1.6-0.4c0.5-1,1-2.1,1.4-3.2
	c0.4-1.1,0.8-2.3,1.2-3.7c1.1,1.1,2.1,2.1,3.1,3.1c0.1,0.1,0,0.5-0.1,0.7c-0.9,1.2-1.8,2.5-2.7,3.7c-1.1,1.5-2.3,2.8-3.8,3.9
	c-0.3,0.2-0.6,0.9-0.4,1.2c0.2,0.4,0.7,0.7,1.1,0.8c0.5,0.1,1.1-0.1,1.5-0.4c1.2-0.8,2.5-1.7,3.6-2.7c0.6-0.6,1-1.4,1.3-2.2
	c0.4-0.9,0.6-1.9,0.9-3c1.1,1.6,1.9,3.3,2.6,5c0.2,0.4,0.3,0.9,0.5,1.3c0.3,0.7,0.2,1.3-0.5,1.8c-2.1,1.6-4.2,3.3-6.3,4.9
	c-0.8,0.6-1.7,1-2.5,1.4c-0.6,0.4-1.3,0.9-1,1.6c0.3,0.7,1.1,0.7,1.8,0.6c0.7-0.2,1.4-0.4,2-0.7c2.1-0.9,4-2,5.4-3.9
	c0.5-0.7,1.2-1.3,1.9-2c0.5,3.5,0.6,6.7-0.3,9.9c-0.5-0.1-1-0.1-1.4-0.2c-2.6-0.6-5.1,0.3-7.5,0.9c-1.1,0.3-2.2,0.4-3.3,0.7
	c-0.3,0.1-0.6,0.3-0.9,0.4c0.2,0.4,0.3,0.9,0.6,1.1c0.5,0.3,1.1,0.4,1.7,0.3c3.1-0.3,6.1-0.4,9-1.8c0.4-0.2,0.9-0.3,1.3-0.4
	c0.1,0.1,0.1,0.1,0.2,0.2c-0.6,1-1.1,2-1.7,2.8c-1.1,1.5-2.5,2.7-4.2,3.5c-1.7,0.8-3.4,0.7-5-0.1c-0.9-0.5-1.8-1-2.8-1.5
	c0,0.1-0.1,0.2-0.1,0.3c-0.2,3.1-0.5,6.2-0.7,9.3c0,0.1,0,0.2,0.1,0.3C-116.9,302.1-117.4,302.5-117.9,302.8z"/>
<g id="XMLID_94_">
	<line id="XMLID_1_" class="st1" x1="-268.5" y1="280.8" x2="-172.5" y2="280.8"/>
	<line id="XMLID_3_" class="st1" x1="-60.5" y1="280.8" x2="35.5" y2="280.8"/>
</g>
</svg>
