<?xml version="1.0" encoding="utf-8"?>
<!-- Generator: Adobe Illustrator 19.0.0, SVG Export Plug-In . SVG Version: 6.00 Build 0)  -->
<svg version="1.1" id="Layer_1" xmlns="http://www.w3.org/2000/svg" xmlns:xlink="http://www.w3.org/1999/xlink" x="0px" y="0px"
	 viewBox="-470 260.2 17.2 41.8" style="enable-background:new -470 260.2 17.2 41.8;" xml:space="preserve">
<style type="text/css">
	.st0{fill:#E4F9F6;}
</style>
<path id="XMLID_179_" class="st0" d="M-471.6,301.3c-0.5-1,0.9-1.9,0.7-3.7c0-0.4-0.1-0.8-0.1-1.4c-0.3,0.2-0.5,0.4-0.6,0.6
	c-1.2,1.2-2.7,1.5-4.2,1.4c-2.7-0.1-4.7-1.5-6.4-3.5v-0.1c0.4-0.1,1,0,1.9,0.5c1.6,0.8,3.5,0.6,4.8-0.7c0.1-0.1,0.2-0.2,0.2-0.3
	c0.1-0.2,0.3-0.6,0.2-0.7c-0.2-0.2-0.6-0.4-0.8-0.3c-0.7,0.1-1.4,0.2-2.1,0.5c-0.9,0.5-1.8,0.5-2.7,0c-1-0.5-1.9-1.1-2.8-1.7
	c-1-0.7-1.5-1.7-1.8-2.9c-0.4-1.4-0.6-2.9-0.9-4.3c-0.1-0.4,0-0.8,0-1.2c0-0.9,0.7-1.3,1.4-0.7c2.2,1.8,5,2.5,7.3,4
	c0.2,0.2,0.6,0.4,0.8,0c0.1-0.2,0-0.6-0.1-0.9c-0.1-0.2-0.4-0.4-0.6-0.5c-2.4-1-4.9-2-7.3-2.9c-0.7-0.3-1.1-0.8-1-1.6
	c0.1-1,0.3-1.9,0.6-2.9c0.3-1.2,0.8-2.3,1.2-3.5c0.2-0.5,0.6-0.7,1-0.4c0.4,0.3,0.8,0.6,1,1.1c0.6,1.3,1.7,2.1,3,2.8
	c1.1,0.6,2.1,1.3,3,2.2c0.6,0.6,1.3,1,2.1,1.2c0.3,0,0.6-0.1,0.8-0.2c0.1-0.1,0-0.6-0.1-0.7c-0.5-0.5-1-1.1-1.6-1.5s-1.4-0.7-2-1.1
	c-1.1-0.7-2.3-1.4-3.4-2.2c-0.6-0.4-1.3-0.8-1.9-1.3c-0.3-0.2-0.5-0.5-0.7-0.7c-0.3-0.4-0.4-0.8-0.2-1.3c0.3-0.6,0.6-1.3,0.9-1.9
	c0.4-0.7,1-0.7,1.4,0c0.5,0.8,1.2,1.4,2.1,1.9c1,0.6,2,1.2,2.9,2.1c0.6,0.6,1.4,1,2.1,1.5c0.2,0.1,0.6,0.1,0.7,0
	c0.2-0.2,0.2-0.5,0.1-0.8c-0.1-0.8-0.7-1.2-1.4-1.5c-0.4-0.2-0.9-0.3-1.3-0.4c-0.9-0.3-1.7-0.7-2.3-1.5s-1.3-1.5-1.9-2.3
	s-0.4-1.5,0.3-2.2c0.5-0.5,1-1,1.5-1.4c0.8-0.6,1.3-0.4,1.8,0.4c0.9,1.5,1.8,2.9,2.7,4.4c0.2,0.4,0.5,0.8,0.8,1.2
	c0.1,0.2,0.4,0.3,0.5,0.3c0.2,0,0.4-0.3,0.4-0.5c0.3-0.8,0.2-1.5-0.4-2.2c-1.3-1.5-2.6-3-3.9-4.5c-0.1-0.1-0.1-0.3-0.1-0.4
	c0.3-0.6,0.8-1.1,1.5-1.3c0.5-0.1,0.8,0.1,1,0.6c0.2,0.7,0.3,1.4,0.4,2.1c0.1,0.4,0.3,0.6,0.7,0.6c0.5,0,0.8-0.2,0.8-0.8
	c0-1-0.4-1.7-1.1-2.4c-0.4-0.4-0.4-0.7,0-1.1c0.3-0.3,0.6-0.5,0.9-0.7c0.2-0.2,0.6-0.2,0.8-0.4c0.6-0.5,1.1-0.3,1.6,0
	c0.7,0.4,1.4,0.8,2,1.2c0.2,0.1,0.3,0.4,0.3,0.5c-0.1,0.6-0.3,1.1-0.5,1.7c-0.3,0.8-0.6,1.6-0.8,2.4c-0.1,0.3,0,0.8,0.2,1.1
	c0.1,0.4,0.5,0.5,0.9,0.3c0.2-0.1,0.5-0.3,0.6-0.5c0.7-0.9,1.4-1.8,1.4-3c0-0.5,0.3-0.7,0.8-0.7c0.8,0,2.1,1.1,2.3,1.8
	c0.1,0.2,0,0.5-0.2,0.7c-0.6,1.2-1.6,2.1-2.7,2.9c-0.7,0.5-1.4,0.9-1.8,1.8c-0.3,0.7-0.6,1.4-0.7,2.1c-0.1,0.2,0.1,0.6,0.2,0.8
	c0.1,0.1,0.5,0,0.7-0.1c1.1-0.6,1.9-1.6,2.4-2.7c0.6-1.2,1.2-2.5,1.8-3.7c0.4-0.9,1.5-1.2,2.3-0.6c0.9,0.7,1.5,1.7,2,2.8
	c0.1,0.3,0.1,0.7,0,1c-0.4,1.2-1.1,2.1-2.4,2.5c-0.9,0.3-1.9,0.4-2.8,0.5c-1.3,0.1-2.3,0.8-2.7,2.1c-0.3,1,0.3,1.9,1.3,1.8
	c0.5,0,1-0.2,1.4-0.4c2.4-1.3,4.3-3,5.4-5.5c0.1-0.3,0.4-0.4,0.6-0.2c0.4,0.3,0.7,0.6,0.9,1c0.4,0.8,0.8,1.8,1.2,2.7
	c-0.4,0.3-0.8,0.6-1.2,0.9c-1.5,1.1-3.1,2.2-4.6,3.3c-0.7,0.5-1.4,0.9-2.2,1.1c-0.6,0.1-1.1,0.6-1.4,1.1c-0.1,0.2-0.1,0.4,0,0.5
	s0.4,0.2,0.5,0.1c1-0.4,1.9-0.8,2.8-1.3c1.9-1.1,3.5-2.3,5-3.9c0.5-0.6,1.1-0.5,1.6,0c0.7,0.9,0.8,1.9,0.9,3
	c0.1,1.2-0.7,1.9-1.6,2.6c-1.3,1-2.8,1.2-4.4,1.1c-1.3-0.1-2.5,0.2-3.7,0.8c-0.3,0.2-0.7,0.6-0.7,0.9c0,0.4,0.4,0.8,0.7,1
	c0.5,0.2,1.2,0.4,1.7,0.2c2.1-0.4,4-1.2,5.8-2.3c0.5-0.3,0.8-0.8,1.2-1.2c0.2-0.2,0.5-0.4,0.8-0.6c0.1,0.3,0.3,0.6,0.3,1
	c0,0.9-0.2,1.8-0.3,2.7c-0.1,0.8-0.7,1.2-1.4,1.4c-0.7,0.2-1.5,0.3-2.2,0.3c-1.3,0-2.6,0-3.9,0c-1.2,0-2.3,0-3.3,0.8
	c-0.8,0.6-0.8,1.3,0.2,1.8c0.6,0.3,1.3,0.4,1.9,0.1c1.7-0.8,3.5-1.2,5.3-1.6c0.7-0.2,1.4-0.3,2.3-0.5c0,0.4,0,0.7-0.2,1
	c-0.5,1.4-1.3,2.7-2.2,3.8c-0.4,0.4-0.9,0.6-1.4,0.4c-0.6-0.2-1.2-0.6-1.8-0.9c-1.4-0.8-2.9-1.4-4.5-1c-0.4,0.1-0.9,0.4-1.3,0.6
	c-0.2,0.1-0.3,0.4-0.4,0.6c0.2,0.1,0.4,0.3,0.7,0.4c0.6,0.1,1.2,0.1,1.9,0.2c1.1,0.2,2.1,0.4,3.2,0.6c0.3,0.1,0.7,0,0.9,0.2
	c0.2,0.1,0.5,0.4,0.6,0.7c0,0.1-0.2,0.4-0.3,0.5c-0.4,0.3-0.8,0.6-1.2,0.9c-2.3,1.8-4.7,1.6-7.1,0.3c-0.6-0.4-1.2-0.9-1.8-1.3
	c0,0.7,0,1.4,0,2c-0.1,1.7-0.6,3.1-0.6,3.2C-470.7,301.3-471.2,301.3-471.6,301.3z M-485.1,286.4c0.2,0.8,0.4,1.4,1,1.9
	c1.9,1.9,4.1,2.5,6.7,2.2c0.2,0,0.6-0.2,0.6-0.4c0-0.2-0.2-0.5-0.3-0.7c-0.6-0.6-1.4-0.9-2.2-1c-1.2-0.1-2.3-0.4-3.3-0.9
	C-483.4,287.2-484.2,286.9-485.1,286.4z M-477.7,283.7c0.8,0,1.2-0.5,1-1.1c-0.1-0.3-0.3-0.6-0.6-0.7c-1-0.6-2.1-1.3-3.2-1.9
	c-0.7-0.4-1.5-0.5-2.3-0.7c-0.2,0-0.4,0.1-0.6,0.2c0.1,0.2,0.1,0.4,0.3,0.5c0.6,0.4,1.1,0.8,1.7,1.2c1.1,0.6,2.3,1.2,3.1,2.2
	C-478.1,283.5-477.8,283.6-477.7,283.7z M-467.6,282.8c-0.6,0.1-1.2,0.2-1.6,0.8c-0.1,0.2-0.2,0.6-0.1,0.9c0.1,0.2,0.5,0.4,0.7,0.4
	c0.5-0.1,1.1-0.3,1.6-0.5c0.4-0.2,0.6-0.5,0.5-1C-466.7,282.9-467.1,282.8-467.6,282.8z M-474,288.3c0.4-0.1,0.8-0.1,1.1-0.2
	c0.4-0.1,0.5-0.4,0.3-0.8c-0.3-0.5-0.8-0.8-1.4-0.8s-1,0.2-1.4,0.7c-0.2,0.3-0.2,0.7,0.2,0.8C-474.8,288.2-474.3,288.2-474,288.3z
	 M-467.7,291.1c0.2,0,0.4,0,0.6-0.1c0.6-0.2,0.8-0.7,0.6-1.3c-0.2-0.6-0.7-0.7-1.3-0.5c-0.2,0.1-0.4,0.1-0.5,0.2
	c-0.4,0.2-0.9,0.4-0.7,1c0.1,0.5,0.6,0.6,1.1,0.7C-467.9,291-467.8,291.1-467.7,291.1z M-473.8,285.1c0.6,0,1-0.2,1.1-0.6
	s-0.1-0.7-0.5-0.9c-0.6-0.3-1.3-0.3-1.9,0c-0.3,0.1-0.4,0.4-0.2,0.7C-474.9,284.7-474.3,285-473.8,285.1z M-467.9,287.6
	c0.4-0.1,0.8-0.2,1.2-0.3c0.2-0.1,0.4-0.4,0.4-0.6s-0.3-0.4-0.4-0.5c-0.7-0.3-1.9,0-2.3,0.5c-0.3,0.3-0.2,0.6,0.2,0.7
	C-468.6,287.4-468.3,287.5-467.9,287.6z M-468.9,281.2c0.6-0.1,1.1-0.4,1.6-0.9c0.2-0.3,0.3-0.6,0-0.9s-0.6-0.4-1-0.2
	c-0.6,0.3-1,0.8-1.2,1.4C-469.6,281-469.4,281.2-468.9,281.2z M-472.5,289.6c-0.4,0.1-0.7,0.1-1,0.2c-0.1,0-0.3,0.4-0.2,0.5
	c0.3,0.8,1.7,1,2.3,0.4c0.3-0.3,0.3-0.6-0.1-0.8C-471.8,289.8-472.2,289.7-472.5,289.6z"/>
</svg>
