<?xml version="1.0" encoding="utf-8"?>
<!-- Generator: Adobe Illustrator 19.0.0, SVG Export Plug-In . SVG Version: 6.00 Build 0)  -->
<svg version="1.1" id="Layer_1" xmlns="http://www.w3.org/2000/svg" xmlns:xlink="http://www.w3.org/1999/xlink" x="0px" y="0px"
	 viewBox="-285 374.8 175.8 45.2" style="enable-background:new -285 374.8 175.8 45.2;" xml:space="preserve">
<style type="text/css">
	.st0{fill:#EDF7F7;}
	.st1{display:none;}
	.st2{display:inline;fill:#EDF7F7;}
	.st3{font-family:'Lato-Bold';}
	.st4{font-size:21px;}
</style>
<image style="display:none;overflow:visible;enable-background:new    ;" width="3001" height="1921" id="XMLID_2_" xlink:href="5B51ABA8.jpeg"  transform="matrix(0.9997 0 0 0.9995 -1847.6516 434.4597)">
</image>
<g id="XMLID_49_">
	<g id="XMLID_159_">
		<path id="XMLID_174_" class="st0" d="M-259.9,407c-0.2,0.1-0.4,0.2-0.6,0.3c-0.4,0.3-1,0.5-0.8,1.1c0.2,0.6,0.7,0.7,1.3,0.8
			c0.1,0,0.1,0,0.2,0c0.2,0,0.5-0.1,0.7-0.1c0.7-0.2,1-0.8,0.7-1.5C-258.7,406.9-259.2,406.7-259.9,407z"/>
		<path id="XMLID_173_" class="st0" d="M-250.3,401.5c-1.5-0.1-3,0.2-4.3,0.9c-0.4,0.2-0.8,0.7-0.8,1c0,0.4,0.5,1,0.9,1.1
			c0.6,0.3,1.3,0.4,2,0.3c2.4-0.5,4.6-1.4,6.7-2.7c0.1-0.1,0.2-0.1,0.3-0.2v-1.5C-247,401.5-248.6,401.6-250.3,401.5z"/>
		<path id="XMLID_172_" class="st0" d="M-260.8,401.9c0.6-0.1,1.3-0.3,1.8-0.6c0.4-0.2,0.7-0.6,0.5-1.1s-0.7-0.6-1.2-0.6
			c-0.7,0.1-1.4,0.2-1.8,0.9c-0.2,0.3-0.2,0.7-0.1,1C-261.5,401.7-261.1,402-260.8,401.9z"/>
		<path id="XMLID_171_" class="st0" d="M-261.3,397.8c0.7-0.1,1.3-0.5,1.8-1.1c0.3-0.3,0.4-0.7,0.1-1.1c-0.3-0.4-0.7-0.4-1.1-0.2
			c-0.7,0.4-1.1,0.9-1.4,1.7C-262.1,397.6-261.9,397.8-261.3,397.8z"/>
		<path id="XMLID_170_" class="st0" d="M-261.7,374.8c0.8,0.5,1.6,0.9,2.4,1.3c0.1,0.2,0.3,0.5,0.2,0.7c-0.2,0.7-0.4,1.3-0.6,2
			c-0.3,0.9-0.7,1.8-0.9,2.8c-0.1,0.4,0.1,0.9,0.2,1.3c0.2,0.5,0.6,0.6,1,0.3c0.3-0.2,0.6-0.4,0.8-0.6c0.8-1,1.7-2,1.6-3.5
			c0-0.6,0.3-0.8,0.9-0.8c0.9,0.1,2.5,1.3,2.7,2.1c0.1,0.2-0.1,0.6-0.2,0.8c-0.7,1.4-1.9,2.4-3.1,3.4c-0.8,0.6-1.7,1.1-2.1,2.1
			c-0.3,0.8-0.6,1.6-0.9,2.5c-0.1,0.3,0.1,0.7,0.3,0.9c0.1,0.1,0.6,0,0.8-0.1c1.3-0.7,2.2-1.8,2.8-3.1c0.8-1.4,1.4-2.9,2.1-4.3
			c0.5-1.1,1.7-1.4,2.7-0.7c1.1,0.8,1.8,2,2.4,3.2c0.2,0.3,0.1,0.8,0,1.2c-0.5,1.4-1.3,2.5-2.7,2.9c-1,0.3-2.2,0.5-3.3,0.6
			c-1.5,0.1-2.6,1-3.1,2.4c-0.3,1.1,0.3,2.1,1.5,2.1c0.6,0,1.2-0.2,1.6-0.4c2.7-1.5,5-3.4,6.3-6.4c0.2-0.4,0.4-0.5,0.7-0.3
			c0.4,0.3,0.8,0.7,1.1,1.2c0.3,0.6,0.6,1.3,0.9,2v-15.6H-261.7C-261.8,374.8-261.7,374.8-261.7,374.8z"/>
		<path id="XMLID_169_" class="st0" d="M-251.8,396.5c-0.8,0.6-1.6,1.1-2.6,1.3c-0.8,0.2-1.3,0.7-1.6,1.3c-0.1,0.2-0.1,0.5,0,0.6
			s0.4,0.2,0.6,0.1c1.1-0.5,2.2-0.9,3.3-1.5c2.1-1.2,4.1-2.7,5.8-4.5c0.2-0.2,0.5-0.4,0.7-0.4v-1.3c-0.3,0.2-0.6,0.5-0.9,0.7
			C-248.2,393.9-250,395.2-251.8,396.5z"/>
		<path id="XMLID_168_" class="st0" d="M-255.9,409.2c0.7,0.4,1.5,0.5,2.2,0.1c2-1,4.1-1.4,6.2-1.8c0.6-0.1,1.3-0.3,2-0.5v-1
			c-0.7,0.1-1.4,0.2-2.2,0.3c-1.5,0-3,0-4.6,0c-1.3,0-2.7,0.1-3.8,0.9C-257.1,407.8-257,408.7-255.9,409.2z"/>
		<path id="XMLID_167_" class="st0" d="M-258.7,403.5c-0.8-0.4-2.2-0.1-2.7,0.6c-0.3,0.4-0.2,0.7,0.2,0.8c0.4,0.1,0.8,0.2,1.2,0.3
			c0.4-0.1,0.9-0.2,1.3-0.4c0.2-0.1,0.5-0.4,0.5-0.7C-258.2,403.9-258.5,403.6-258.7,403.5z"/>
		<path id="XMLID_166_" class="st0" d="M-270.7,407.3c-0.7-0.6-1.6-1.1-2.5-1.1c-1.4-0.1-2.6-0.5-3.8-1c-1-0.4-1.9-0.9-3-1.4
			c0.2,0.9,0.5,1.6,1.1,2.2c2.2,2.2,4.8,2.9,7.8,2.5c0.3,0,0.7-0.3,0.7-0.5C-270.3,407.8-270.5,407.5-270.7,407.3z"/>
		<path id="XMLID_165_" class="st0" d="M-271,398.5c-1.2-0.8-2.4-1.5-3.7-2.1c-0.8-0.4-1.8-0.6-2.7-0.9c-0.2-0.1-0.4,0.1-0.7,0.2
			c0.1,0.2,0.2,0.4,0.3,0.6c0.6,0.5,1.3,1,2,1.4c1.3,0.8,2.6,1.4,3.6,2.6c0.2,0.2,0.5,0.3,0.6,0.4c0.9,0,1.4-0.6,1.2-1.3
			C-270.5,399-270.7,398.7-271,398.5z"/>
		<path id="XMLID_164_" class="st0" d="M-247.7,412.5c-0.4,0.5-1.1,0.6-1.7,0.4c-0.7-0.3-1.4-0.7-2.1-1c-1.6-0.9-3.3-1.6-5.2-1.2
			c-0.5,0.1-1,0.4-1.5,0.7c-0.2,0.1-0.3,0.5-0.5,0.7c0.3,0.1,0.5,0.4,0.8,0.4c0.7,0.1,1.4,0.1,2.1,0.2c1.3,0.2,2.5,0.5,3.7,0.7
			c0.4,0.1,0.8,0,1.1,0.2c0.3,0.1,0.5,0.5,0.7,0.8c0.1,0.1-0.2,0.5-0.4,0.6c-0.4,0.4-0.9,0.7-1.4,1c-2.7,2.1-5.4,1.9-8.2,0.3
			c-0.7-0.4-1.4-1-2.1-1.5c0,0.8,0,1.6,0,2.4c0,0.9,0.1,1.8,0.2,2.7h16.5v-10.6C-246.1,410.4-246.8,411.5-247.7,412.5z"/>
		<path id="XMLID_163_" class="st0" d="M-264.2,408.8c0.3-0.3,0.3-0.8-0.1-1c-0.4-0.2-0.8-0.2-1.1-0.3c-0.5,0.1-0.8,0.1-1.2,0.3
			c-0.1,0.1-0.3,0.4-0.3,0.5C-266.5,409.3-264.9,409.5-264.2,408.8z"/>
		<path id="XMLID_162_" class="st0" d="M-268.5,405.7c0.5,0.2,0.9,0.2,1.4,0.3c0.5-0.1,0.9-0.1,1.3-0.2c0.5-0.1,0.6-0.5,0.3-0.9
			c-0.4-0.6-1-0.9-1.7-0.9c-0.7,0-1.2,0.3-1.6,0.9C-269.1,405.1-269,405.5-268.5,405.7z"/>
		<path id="XMLID_161_" class="st0" d="M-267,402.2c0.8,0,1.1-0.2,1.3-0.7c0.1-0.5-0.1-0.8-0.6-1.1c-0.7-0.4-1.5-0.3-2.3,0
			c-0.4,0.1-0.5,0.5-0.2,0.8C-268.2,401.8-267.5,402.2-267,402.2z"/>
		<path id="XMLID_160_" class="st0" d="M-263.6,416.8c-0.1-0.5-0.1-1-0.2-1.6c-0.3,0.3-0.5,0.5-0.7,0.7c-1.4,1.4-3.1,1.7-4.9,1.6
			c-3.1-0.1-5.5-1.8-7.5-4v-0.1c0.5-0.1,1.2,0.1,2.2,0.6c1.9,1,4.1,0.7,5.6-0.8c0.1-0.1,0.2-0.2,0.3-0.3c0.1-0.3,0.4-0.7,0.3-0.8
			c-0.2-0.2-0.6-0.4-0.9-0.4c-0.8,0.1-1.7,0.3-2.4,0.6c-1.1,0.6-2.1,0.6-3.1,0c-1.1-0.6-2.2-1.3-3.2-2c-1.2-0.8-1.8-2-2.1-3.3
			c-0.4-1.6-0.7-3.3-1-5c-0.1-0.4,0-0.9,0-1.4c0.1-1,0.8-1.5,1.6-0.8c2.6,2,5.7,2.9,8.5,4.6c0.3,0.2,0.7,0.5,1,0
			c0.1-0.3,0-0.7-0.1-1.1c-0.1-0.3-0.5-0.5-0.8-0.6c-2.8-1.2-5.7-2.3-8.5-3.4c-0.8-0.3-1.3-0.9-1.2-1.9c0.1-1.1,0.4-2.2,0.7-3.3
			c0-1.3,0.5-2.7,1-4c0.2-0.6,0.6-0.8,1.1-0.4c0.4,0.3,0.9,0.8,1.2,1.2c0.7,1.5,2,2.5,3.4,3.2c1.3,0.7,2.5,1.5,3.5,2.5
			c0.7,0.7,1.5,1.2,2.5,1.4c0.3,0,0.7-0.1,1-0.3c0.1-0.1,0-0.7-0.1-0.9c-0.6-0.6-1.2-1.2-1.8-1.7c-0.7-0.5-1.6-0.8-2.3-1.2
			c-1.3-0.8-2.6-1.7-3.9-2.5c-0.7-0.5-1.5-0.9-2.2-1.5c-0.3-0.2-0.6-0.5-0.8-0.9c-0.3-0.5-0.5-1-0.2-1.5c0.4-0.7,0.7-1.5,1.1-2.2
			c0.5-0.9,1.1-0.8,1.7,0c0.6,1,1.4,1.6,2.4,2.2c1.2,0.7,2.4,1.5,3.3,2.5c0.7,0.7,1.6,1.2,2.5,1.8c0.2,0.1,0.7,0.1,0.8,0
			c0.2-0.2,0.2-0.6,0.2-0.9c-0.2-0.9-0.9-1.4-1.7-1.7c-0.5-0.2-1-0.4-1.5-0.5c-1-0.3-2-0.8-2.7-1.7c-0.7-0.9-1.5-1.7-2.2-2.7
			c-0.7-1-0.5-1.7,0.4-2.5c0.6-0.5,1.1-1.1,1.8-1.6c0.9-0.7,1.6-0.5,2.1,0.5c1,1.7,2.1,3.4,3.2,5.1c0.3,0.5,0.5,1,0.9,1.4
			c0.1,0.2,0.4,0.4,0.6,0.4c0.2,0,0.4-0.3,0.5-0.5c0.3-0.9,0.2-1.8-0.4-2.5c-1.5-1.7-3-3.5-4.5-5.2c-0.1-0.1-0.2-0.3-0.1-0.4
			c0.4-0.7,0.9-1.3,1.8-1.5c0.6-0.1,1,0.1,1.1,0.7c0.2,0.8,0.3,1.6,0.5,2.5c0.1,0.5,0.4,0.7,0.9,0.7c0.6,0,0.9-0.3,0.9-0.9
			c0-1.1-0.5-2-1.2-2.8c-0.4-0.5-0.5-0.8-0.1-1.3c0.3-0.3,0.7-0.6,1.1-0.8c0.3-0.2,0.7-0.2,0.9-0.5l0,0H-285v45.2h21.8
			C-263.4,418.9-263.5,417.9-263.6,416.8z"/>
	</g>
</g>
<g id="XMLID_29_" class="st1">
	<text id="XMLID_87_" transform="matrix(1 0 0 1 -211.5791 405.9949)" class="st2 st3 st4">Portfolio</text>
</g>
<g id="XMLID_30_" class="st1">
	<text id="XMLID_88_" transform="matrix(1 0 0 1 -99.5791 405.9949)" class="st2 st3 st4">Projects</text>
</g>
<g id="XMLID_31_" class="st1">
	<text id="XMLID_89_" transform="matrix(1 0 0 1 10.4209 405.9949)" class="st2 st3 st4">About</text>
</g>
<g>
	<path class="st0" d="M-216.3,419.8h-6.6v-24.6h-5.7v24.6h-6.6v-45h6.6v14.9h5.7v-14.9h6.6V419.8z"/>
	<path class="st0" d="M-202.2,420.4c-1.9,0-3.4-0.1-4.6-0.3c-1.2-0.2-2.1-0.6-2.8-1.3c-0.7-0.7-1.2-1.6-1.4-2.9s-0.4-2.9-0.4-5
		v-36.1h6.6v36.1c0,0.8,0,1.4,0.1,1.9c0.1,0.5,0.2,0.8,0.4,1.1c0.2,0.2,0.5,0.4,0.9,0.5c0.4,0.1,0.8,0.1,1.5,0.1c0.6,0,1,0,1.4-0.1
		s0.6-0.3,0.8-0.5c0.2-0.2,0.3-0.6,0.4-1.1s0.1-1.1,0.1-1.9v-36.1h6.4v36.1c0,2.1-0.1,3.8-0.4,5c-0.3,1.3-0.7,2.2-1.4,2.9
		c-0.7,0.7-1.6,1.1-2.8,1.3C-198.8,420.3-200.4,420.4-202.2,420.4z"/>
	<path class="st0" d="M-175.5,419.8l-6.8-28.1h-0.2v28.1h-5.6v-45h7.2l6.5,28.9h0.2v-28.9h5.7v45H-175.5z"/>
	<path class="st0" d="M-148.9,380.3h-4.9v39.6h-6.6v-39.6h-5v-5.5h16.4V380.3z"/>
	<path class="st0" d="M-132.7,419.8h-12.9v-45h12.8v5.4h-6.3v6.6h6.1v5.2h-6.1v22.2h6.3V419.8z"/>
	<path class="st0" d="M-122.3,419.8h-6.6v-45h9.3c1.9,0,3.5,0.1,4.7,0.3c1.2,0.2,2.2,0.6,2.9,1.3c0.7,0.7,1.2,1.6,1.4,2.8
		c0.2,1.2,0.4,2.8,0.4,4.8v4.7c0,1.2-0.1,2.1-0.4,2.9c-0.2,0.7-0.6,1.3-1,1.8c-0.4,0.5-0.8,0.8-1.3,1c-0.5,0.2-0.9,0.4-1.4,0.5v0.2
		c0.6,0.2,1.2,0.4,1.7,0.6c0.5,0.2,0.9,0.6,1.3,1.1c0.4,0.5,0.6,1.2,0.8,2s0.3,1.8,0.3,3.1v18h-6.6v-19c0-1.2-0.2-2.1-0.5-2.5
		c-0.3-0.5-1-0.7-2.2-0.7h-3V419.8z M-122.3,392.4h3c1.1,0,1.8-0.2,2.1-0.6c0.3-0.4,0.5-1.2,0.5-2.3V384c0-0.7,0-1.3-0.1-1.7
		c-0.1-0.4-0.2-0.8-0.4-1.1c-0.2-0.3-0.5-0.4-0.9-0.5c-0.4-0.1-0.9-0.1-1.5-0.1h-2.8V392.4z"/>
</g>
</svg>
