<?xml version="1.0" encoding="utf-8"?>
<!-- Generator: Adobe Illustrator 22.1.0, SVG Export Plug-In . SVG Version: 6.00 Build 0)  -->
<svg version="1.1" id="Capa_1" xmlns="http://www.w3.org/2000/svg" xmlns:xlink="http://www.w3.org/1999/xlink" x="0px" y="0px"
	 viewBox="0 0 212.8 179.3" style="enable-background:new 0 0 212.8 179.3;" xml:space="preserve">
<style type="text/css">
	.st0{fill:#163024;}
	.st1{fill:#19382B;}
	.st2{fill:#244F3B;}
</style>
<rect x="36" y="51.8" class="st0" width="34.7" height="56.1"/>
<rect x="63.4" y="111" class="st0" width="34.7" height="56.1"/>
<rect x="102" y="53" class="st0" width="56.1" height="90.7"/>
<rect x="18.2" y="33.9" class="st0" width="11.4" height="18.4"/>
<rect x="81.8" y="83.8" class="st0" width="11.4" height="18.4"/>
<rect x="56.4" y="30.7" class="st0" width="7.7" height="12.5"/>
<rect x="130.1" y="33.9" class="st0" width="7.7" height="12.5"/>
<rect x="52.6" y="112.4" class="st0" width="3.9" height="8.8"/>
<rect x="36" y="23.4" class="st0" width="9.6" height="15.5"/>
<rect x="71.5" y="27.7" class="st0" width="18.4" height="18.4"/>
<rect x="14.7" y="61.4" class="st0" width="18.4" height="29.8"/>
<rect x="80.2" y="56" transform="matrix(-1.836970e-16 1 -1 -1.836970e-16 151.1049 -20.6402)" class="st0" width="11.4" height="18.4"/>
<rect x="100.8" y="12.8" transform="matrix(-1.836970e-16 1 -1 -1.836970e-16 137.6962 -82.271)" class="st0" width="18.4" height="29.8"/>
<polygon class="st1" points="-21.9,75.5 -30.9,52.4 -21.9,57.4 -12.8,52.4 "/>
<polygon class="st1" points="-79.1,97.5 -33.8,97.7 -48.4,109.7 -46,128.5 "/>
<polygon class="st1" points="-147.3,61.3 -122.9,57 -129.6,64.9 -126.5,74.7 "/>
<polygon class="st1" points="-138.2,94.5 -122.8,91.8 -127,96.7 -125.1,102.9 "/>
<polygon class="st1" points="-117.8,70.5 -107.8,68.7 -110.6,71.9 -109.3,76 "/>
<polygon class="st1" points="-94.6,38.3 -70.2,34 -76.9,41.9 -73.8,51.7 "/>
<polygon class="st1" points="-77.9,72.1 -62.5,69.4 -66.7,74.4 -64.8,80.6 "/>
<polygon class="st1" points="-49.8,62.3 -39.8,60.5 -42.6,63.7 -41.3,67.7 "/>
<polygon class="st1" points="-150.5,-2.6 -126.1,-6.9 -132.8,1 -129.7,10.9 "/>
<polygon class="st1" points="-151.6,36.3 -136.2,33.6 -140.4,38.6 -138.4,44.8 "/>
<polygon class="st1" points="-232.4,6.3 -207.9,2 -214.6,9.9 -211.5,19.7 "/>
<polygon class="st1" points="-169.2,9 -159.3,7.3 -162,10.5 -160.7,14.5 "/>
<polygon class="st1" points="-210.4,-22.5 -186,-26.8 -192.6,-18.9 -189.6,-9 "/>
<polygon class="st1" points="-193.7,19.7 -178.3,17 -182.5,21.9 -180.6,28.1 "/>
<polygon class="st1" points="-176.1,-18.4 -166.1,-20.1 -168.8,-16.9 -167.6,-12.9 "/>
<g id="Layer_2_1_">
	<g>
		<g>
			<circle class="st2" cx="-224.4" cy="506.9" r="53.3"/>
			<path class="st0" d="M-469.9,548.6c0.3,0,0.5,0,0.8,0c12.3,0,22.2-6.5,22.2-14.6s-9.9-14.6-22.2-14.6c-0.5,0-1.1,0-1.6,0
				c1-1.7,1.6-3.5,1.6-5.4c0-8-9.9-14.6-22.2-14.6c-0.1,0-0.2,0-0.2,0c-1.4-7.1-10.8-12.6-22-12.6c-10.8,0-19.7,5-21.8,11.7
				c-2.3-0.5-4.7-0.8-7.3-0.8c-7.8,0-14.6,2.6-18.6,6.6c-9.6,0.9-17.3,5.9-18.8,12.2c-3.3-1.3-7.2-2.1-11.4-2.1
				c-11.9,0-21.6,6.1-22.2,13.8c-6.7,2.5-11.2,7.2-11.2,12.6c0,8,9.9,14.6,22.3,14.6c0.1,0,0.2,0,0.2,0c1.4,7.1,10.8,12.6,22,12.6
				c2.7,0,5.3-0.3,7.7-0.9c2.4,0.6,5,0.9,7.7,0.9c0.1,0,0.2,0,0.2,0c1.4,7.1,10.8,12.6,22,12.6c1.6,0,3.2-0.1,4.7-0.3
				c4.1,3.4,10.4,5.6,17.5,5.6c9.6,0,17.8-4,20.9-9.6c3.9-1.2,7.2-3.1,9.5-5.4c4,4.1,10.9,6.7,18.7,6.7c12.3,0,22.3-6.5,22.3-14.6
				C-449,555.4-458.2,549.1-469.9,548.6z M-489.7,528.7c-1,1.7-1.6,3.5-1.6,5.4c0,0.7,0.1,1.3,0.2,2c-0.5,0-1,0-1.5-0.1
				c-1.3-2.5-3.7-4.7-6.7-6.4c0.3-0.6,0.5-1.1,0.7-1.7c2.3,0.5,4.7,0.8,7.3,0.8C-490.8,528.7-490.2,528.7-489.7,528.7z
				 M-471.4,548.6L-471.4,548.6c0.3,0,0.7,0,1,0c-0.3,0-0.5,0-0.8,0C-471.3,548.6-471.4,548.6-471.4,548.6z"/>
			<path class="st0" d="M-502.2,694.7c0.1,0,0.3,0,0.4,0c5.8,0,10.4-3,10.4-6.8c0-3.8-4.6-6.8-10.4-6.8c-0.2,0-0.5,0-0.7,0
				c0.5-0.8,0.7-1.6,0.7-2.5c0-3.8-4.6-6.8-10.4-6.8c0,0-0.1,0-0.1,0c-0.7-3.3-5-5.9-10.3-5.9c-5,0-9.3,2.4-10.2,5.4
				c-1.1-0.2-2.2-0.4-3.4-0.4c-3.6,0-6.8,1.2-8.7,3c-4.5,0.4-8.1,2.7-8.8,5.7c-1.6-0.6-3.4-1-5.3-1c-5.6,0-10.1,2.9-10.4,6.4
				c-3.1,1.2-5.2,3.4-5.2,5.9c0,3.8,4.6,6.8,10.4,6.8c0,0,0.1,0,0.1,0c0.7,3.3,5,5.9,10.3,5.9c1.3,0,2.5-0.2,3.6-0.4
				c1.1,0.3,2.4,0.4,3.6,0.4c0,0,0.1,0,0.1,0c0.7,3.3,5,5.9,10.3,5.9c0.8,0,1.5,0,2.2-0.2c1.9,1.6,4.9,2.6,8.2,2.6
				c4.5,0,8.3-1.9,9.8-4.5c1.8-0.5,3.4-1.4,4.4-2.6c1.8,1.9,5.1,3.2,8.8,3.2c5.8,0,10.4-3,10.4-6.8
				C-492.4,697.9-496.7,694.9-502.2,694.7z M-502.9,694.7L-502.9,694.7c0.2,0,0.3,0,0.5,0c-0.1,0-0.3,0-0.4,0
				C-502.8,694.7-502.9,694.7-502.9,694.7z"/>
			<path class="st0" d="M-513.4,674.6c0.1,0,0.3,0,0.4,0c5.8,0,10.4-3,10.4-6.8c0-3.8-4.6-6.8-10.4-6.8c-0.2,0-0.5,0-0.7,0
				c0.5-0.8,0.7-1.6,0.7-2.5c0-3.8-4.6-6.8-10.4-6.8c0,0-0.1,0-0.1,0c-0.7-3.3-5-5.9-10.3-5.9c-5,0-9.3,2.4-10.2,5.4
				c-1.1-0.2-2.2-0.4-3.4-0.4c-3.6,0-6.8,1.2-8.7,3c-4.5,0.4-8.1,2.7-8.8,5.7c-1.6-0.6-3.4-1-5.3-1c-5.6,0-10.1,2.9-10.4,6.4
				c-3.1,1.2-5.2,3.4-5.2,5.9c0,3.8,4.6,6.8,10.4,6.8c0,0,0.1,0,0.1,0c0.7,3.3,5,5.9,10.3,5.9c1.3,0,2.5-0.2,3.6-0.4
				c1.1,0.3,2.4,0.4,3.6,0.4c0,0,0.1,0,0.1,0c0.7,3.3,5,5.9,10.3,5.9c0.8,0,1.5,0,2.2-0.2c1.9,1.6,4.9,2.6,8.2,2.6
				c4.5,0,8.3-1.9,9.8-4.5c1.8-0.5,3.4-1.4,4.4-2.6c1.8,1.9,5.1,3.2,8.8,3.2c5.8,0,10.4-3,10.4-6.8
				C-503.7,677.8-508,674.8-513.4,674.6z M-327.6,614.6c0.1,0,0.3,0,0.4,0c5.8,0,10.4-3,10.4-6.8s-4.6-6.8-10.4-6.8
				c-0.2,0-0.5,0-0.7,0c0.5-0.8,0.7-1.6,0.7-2.5c0-3.8-4.6-6.8-10.4-6.8c0,0-0.1,0-0.1,0c-0.7-3.3-5-5.9-10.3-5.9
				c-5,0-9.3,2.4-10.2,5.4c-1.1-0.2-2.2-0.4-3.4-0.4c-3.6,0-6.8,1.2-8.7,3c-4.5,0.4-8.1,2.7-8.8,5.7c-1.6-0.6-3.4-1-5.3-1
				c-5.6,0-10.1,2.9-10.4,6.4c-3.1,1.2-5.2,3.4-5.2,5.9c0,3.8,4.6,6.8,10.4,6.8c0,0,0.1,0,0.1,0c0.7,3.3,5,5.9,10.3,5.9
				c1.3,0,2.5-0.2,3.6-0.4c1.1,0.3,2.4,0.4,3.6,0.4c0,0,0.1,0,0.1,0c0.7,3.3,5,5.9,10.3,5.9c0.8,0,1.5,0,2.2-0.2
				c1.9,1.6,4.9,2.6,8.2,2.6c4.5,0,8.3-1.9,9.8-4.5c1.8-0.5,3.4-1.4,4.4-2.6c1.8,1.9,5.1,3.2,8.8,3.2c5.8,0,10.4-3,10.4-6.8
				C-317.8,617.8-322.1,614.8-327.6,614.6z M-522.7,665.3c-0.5,0.8-0.7,1.6-0.7,2.5c0,0.3,0,0.6,0.1,1c-0.2,0-0.5,0-0.7,0
				c-0.6-1.2-1.7-2.2-3.2-3c0.2-0.3,0.2-0.5,0.3-0.8c1.1,0.2,2.2,0.4,3.4,0.4C-523.2,665.3-523,665.3-522.7,665.3z M-514.2,674.6
				C-514.2,674.6-514.2,674.6-514.2,674.6c0.2,0,0.3,0,0.5,0c-0.1,0-0.3,0-0.4,0C-514.1,674.6-514.2,674.6-514.2,674.6z"/>
			<path class="st0" d="M-559.3,667.2c0.1,0,0.3,0,0.4,0c5.8,0,10.4-3,10.4-6.8c0-3.8-4.6-6.8-10.4-6.8c-0.2,0-0.5,0-0.7,0
				c0.5-0.8,0.7-1.6,0.7-2.5c0-3.8-4.6-6.8-10.4-6.8c0,0-0.1,0-0.1,0c-0.7-3.3-5-5.9-10.3-5.9c-5,0-9.3,2.4-10.2,5.4
				c-1.1-0.2-2.2-0.4-3.4-0.4c-3.6,0-6.8,1.2-8.7,3c-4.5,0.4-8.1,2.7-8.8,5.7c-1.6-0.6-3.4-1-5.3-1c-5.6,0-10.1,2.9-10.4,6.4
				c-3.1,1.2-5.2,3.4-5.2,5.9c0,3.8,4.6,6.8,10.4,6.8c0,0,0.1,0,0.1,0c0.7,3.3,5,5.9,10.3,5.9c1.3,0,2.5-0.2,3.6-0.4
				c1.1,0.3,2.4,0.4,3.6,0.4c0,0,0.1,0,0.1,0c0.7,3.3,5,5.9,10.3,5.9c0.8,0,1.5,0,2.2-0.2c1.9,1.6,4.9,2.6,8.2,2.6
				c4.5,0,8.3-1.9,9.8-4.5c1.8-0.5,3.4-1.4,4.4-2.6c1.8,1.9,5.1,3.2,8.8,3.2c5.8,0,10.4-3,10.4-6.8
				C-549.5,670.4-553.8,667.4-559.3,667.2z M-373.4,607.2c0.1,0,0.3,0,0.4,0c5.8,0,10.4-3,10.4-6.8c0-3.8-4.6-6.8-10.4-6.8
				c-0.2,0-0.5,0-0.7,0c0.5-0.8,0.7-1.6,0.7-2.5c0-3.8-4.6-6.8-10.4-6.8c0,0-0.1,0-0.1,0c-0.7-3.3-5-5.9-10.3-5.9
				c-5,0-9.3,2.4-10.2,5.4c-1.1-0.2-2.2-0.4-3.4-0.4c-3.6,0-6.8,1.2-8.7,3c-4.5,0.4-8.1,2.7-8.8,5.7c-1.6-0.6-3.4-1-5.3-1
				c-5.6,0-10.1,2.9-10.4,6.4c-3.1,1.2-5.2,3.4-5.2,5.9c0,3.8,4.6,6.8,10.4,6.8c0,0,0.1,0,0.1,0c0.7,3.3,5,5.9,10.3,5.9
				c1.3,0,2.5-0.2,3.6-0.4c1.1,0.3,2.4,0.4,3.6,0.4c0,0,0.1,0,0.1,0c0.7,3.3,5,5.9,10.3,5.9c0.8,0,1.5,0,2.2-0.2
				c1.9,1.6,4.9,2.6,8.2,2.6c4.5,0,8.3-1.9,9.8-4.5c1.8-0.5,3.4-1.4,4.4-2.6c1.8,1.9,5.1,3.2,8.8,3.2c5.8,0,10.4-3,10.4-6.8
				C-363.6,610.4-368,607.4-373.4,607.2z M-560,667.2L-560,667.2c0.2,0,0.3,0,0.5,0c-0.1,0-0.3,0-0.4,0
				C-559.9,667.2-560,667.2-560,667.2z"/>
			<path class="st0" d="M-366.6,577.6c0.3,0,0.6,0,1,0c14.1,0,25.5-4.7,25.5-10.6c0-5.9-11.4-10.6-25.5-10.6c-0.6,0-1.2,0-1.8,0
				c1.1-1.2,1.8-2.5,1.8-3.9c0-5.9-11.4-10.6-25.5-10.6c-0.1,0-0.2,0-0.2,0c-1.7-5.2-12.3-9.1-25.3-9.1c-12.3,0-22.7,3.7-25,8.5
				c-2.6-0.4-5.4-0.6-8.4-0.6c-8.9,0-16.7,1.9-21.3,4.8c-11.1,0.6-19.9,4.3-21.6,8.8c-3.8-1-8.3-1.5-13.1-1.5
				c-13.6,0-24.8,4.5-25.5,10c-7.7,1.8-12.8,5.3-12.8,9.2c0,5.9,11.4,10.6,25.5,10.6c0.1,0,0.2,0,0.2,0c1.7,5.2,12.3,9.1,25.3,9.1
				c3.1,0,6.1-0.2,8.8-0.6c2.7,0.4,5.8,0.6,8.9,0.6c0.1,0,0.2,0,0.2,0c1.7,5.2,12.3,9.1,25.3,9.1c1.9,0,3.7-0.1,5.4-0.2
				c4.7,2.5,11.9,4.1,20.1,4.1c11.1,0,20.4-2.9,24-7c4.5-0.8,8.2-2.2,10.9-3.9c4.5,3,12.5,4.9,21.5,4.9c14.1,0,25.5-4.7,25.5-10.6
				C-342.6,582.5-353.2,577.9-366.6,577.6z M-368.4,577.6C-368.4,577.5-368.4,577.5-368.4,577.6c0.4,0,0.8,0,1.2,0c-0.3,0-0.6,0-1,0
				C-368.2,577.6-368.3,577.6-368.4,577.6z"/>
			<path class="st0" d="M-411.7,534.6c0,7.1,11.4,12.8,25.5,12.8c9.1,0,17-2.4,21.5-5.9c2.6,2.1,6.4,3.7,10.9,4.8
				c3.5,4.9,13,8.5,24,8.5c8.2,0,15.4-1.9,20.1-4.9c1.8,0.2,3.6,0.3,5.4,0.3c12.9,0,23.6-4.8,25.3-11.1c0.1,0,0.2,0,0.2,0
				c3.1,0,6.1-0.3,8.9-0.8c2.7,0.5,5.7,0.8,8.8,0.8c12.9,0,23.6-4.8,25.3-11.1c0.1,0,0.2,0,0.2,0c14.1,0,25.5-5.8,25.5-12.8
				c0-4.8-5.1-8.9-12.8-11.1c-0.7-6.8-11.9-12.2-25.5-12.2c-4.8,0-9.3,0.6-13.1,1.8c-1.7-5.5-10.5-9.9-21.6-10.7
				c-4.6-3.5-12.4-5.8-21.3-5.8c-2.9,0-5.8,0.3-8.4,0.7c-2.3-5.9-12.7-10.3-25-10.3c-12.9,0-23.6,4.8-25.3,11.1c-0.1,0-0.2,0-0.2,0
				c-14.1,0-25.5,5.8-25.5,12.8c0,1.7,0.6,3.3,1.8,4.7c-0.6,0-1.2,0-1.8,0c-14.1,0-25.5,5.8-25.5,12.8c0,7.1,11.4,12.8,25.5,12.8
				c0.3,0,0.6,0,1,0C-401.1,522.3-411.7,527.8-411.7,534.6z M-363.1,504.3c2.9,0,5.8-0.3,8.4-0.7c0.2,0.5,0.5,1,0.8,1.5
				c-3.5,1.4-6.2,3.4-7.7,5.6c-0.6,0-1.1,0-1.7,0.1c0.2-0.6,0.2-1.2,0.2-1.8c0-1.7-0.6-3.3-1.8-4.7
				C-364.4,504.3-363.8,504.3-363.1,504.3z M-386.2,521.8c-0.3,0-0.6,0-1,0c0.4,0,0.8,0,1.2,0v0C-386,521.8-386.1,521.8-386.2,521.8
				z"/>
			<path class="st0" d="M-609.3,738.4c28.8-24.4,59.8-46.9,92.6-67.4c45.7-28.6,96.1-53.5,151.8-63.2
				c-47.1,3.1-92.6,17.1-134.4,35.9c-41.8,18.8-80.3,42.3-118.7,65.8"/>
			<path class="st0" d="M-483.2,541.8c50-9.8,101.3-13.8,152.5-17.6c-47.2,2.2-94.4,4.4-141.1,10.6c-46.7,6.1-93,16.3-135.5,33.6
				c-5.9,2.4-11.8,5-16.1,9.1c-2.9,2.8-9,12.6-3.5,15.4c4.8,2.5,14.1-5.6,17.7-7.6c12.7-7,26-13.3,39.7-18.7
				C-542.1,555.5-512.9,547.6-483.2,541.8z"/>
			<path class="st0" d="M-351.1,490.5c-20.5,7.5-41.1,15-61.7,22.5c-10,3.7-20,7.3-30.1,10.9c-8.1,3-18.7,8.8-27.4,9.5
				c1.5-12.4,38.2-21.4,49.6-25.3C-398.2,500.4-374.8,494.5-351.1,490.5z"/>
			<g>
				<path class="st0" d="M-493.7,806.6c0,8,9.9,14.6,22.2,14.6c7.9,0,14.8-2.7,18.7-6.7c2.3,2.4,5.6,4.2,9.5,5.4
					c3.1,5.6,11.3,9.6,20.9,9.6c7.1,0,13.5-2.2,17.5-5.6c1.5,0.2,3.1,0.3,4.7,0.3c11.3,0,20.6-5.5,22-12.6c0.1,0,0.2,0,0.2,0
					c2.7,0,5.3-0.3,7.7-0.9c2.4,0.6,5,0.9,7.7,0.9c11.3,0,20.6-5.5,22-12.6c0.1,0,0.2,0,0.2,0c12.3,0,22.2-6.5,22.2-14.6
					c0-5.4-4.5-10.1-11.2-12.6c-0.6-7.7-10.3-13.8-22.2-13.8c-4.2,0-8,0.8-11.4,2.1c-1.5-6.3-9.1-11.2-18.8-12.2
					c-4-3.9-10.8-6.6-18.6-6.6c-2.6,0-5,0.3-7.3,0.8c-2.1-6.7-11-11.7-21.8-11.7c-11.3,0-20.6,5.5-22,12.6c-0.1,0-0.2,0-0.2,0
					c-12.3,0-22.2,6.5-22.2,14.6c0,1.9,0.6,3.7,1.6,5.4c-0.5,0-1,0-1.6,0c-12.3,0-22.2,6.5-22.2,14.6s9.9,14.6,22.2,14.6
					c0.3,0,0.5,0,0.8,0C-484.4,792.5-493.7,798.9-493.7,806.6z M-451.4,772.2c2.6,0,5-0.3,7.3-0.8c0.2,0.6,0.4,1.2,0.7,1.7
					c-3,1.7-5.4,3.8-6.7,6.4c-0.5,0-1,0-1.5,0.1c0.2-0.6,0.2-1.3,0.2-2c0-1.9-0.6-3.7-1.6-5.4C-452.4,772.2-451.9,772.2-451.4,772.2
					z M-471.4,792c-0.3,0-0.5,0-0.8,0c0.3,0,0.7,0,1,0v0C-471.3,792-471.3,792-471.4,792z"/>
				<path class="st0" d="M-396.3,795.6c0.3,0,0.5,0,0.8,0c12.3,0,22.2-6.5,22.2-14.6c0-8-9.9-14.6-22.2-14.6c-0.5,0-1.1,0-1.6,0
					c1-1.7,1.6-3.5,1.6-5.4c0-8-9.9-14.6-22.2-14.6c-0.1,0-0.2,0-0.2,0c-1.4-7.1-10.8-12.6-22-12.6c-10.8,0-19.7,5-21.8,11.7
					c-2.3-0.5-4.7-0.8-7.3-0.8c-7.8,0-14.6,2.6-18.6,6.6c-9.6,0.9-17.3,5.9-18.8,12.2c-3.3-1.3-7.2-2.1-11.4-2.1
					c-11.9,0-21.6,6.1-22.2,13.8c-6.7,2.5-11.2,7.2-11.2,12.6c0,8,9.9,14.6,22.2,14.6c0.1,0,0.2,0,0.2,0c1.4,7.1,10.8,12.6,22,12.6
					c2.7,0,5.3-0.3,7.7-0.9c2.4,0.6,5,0.9,7.7,0.9c0.1,0,0.2,0,0.2,0c1.4,7.1,10.8,12.6,22,12.6c1.6,0,3.2-0.1,4.7-0.3
					c4.1,3.4,10.4,5.6,17.5,5.6c9.6,0,17.8-4,20.9-9.6c3.9-1.2,7.2-3.1,9.5-5.4c4,4.1,10.9,6.7,18.7,6.7c12.3,0,22.2-6.5,22.2-14.6
					C-375.4,802.3-384.6,796-396.3,795.6z M-416.2,775.6c-1,1.7-1.6,3.5-1.6,5.4c0,0.7,0.1,1.3,0.2,2c-0.5,0-1,0-1.5-0.1
					c-1.3-2.5-3.7-4.7-6.7-6.4c0.3-0.6,0.5-1.1,0.7-1.7c2.3,0.5,4.7,0.8,7.3,0.8C-417.2,775.7-416.7,775.7-416.2,775.6z M-467,795.5
					L-467,795.5c0.3,0,0.6,0,0.9,0c-0.2,0-0.5,0-0.7,0C-466.8,795.5-466.9,795.5-467,795.5z"/>
				<path class="st0" d="M-558.9,881.1c-50.8-100-74-358-27-459.4c9.5-20.5-62-24.8-102.1-21.1c0,119.9,0,339,0,462.7
					c0,2.6,1.3,9.1,1.3,9.1s18.3-4.6,30.3,0.4c6,6.1,16.7-3.5,26.1-3.2s1.8,1.1,10.9-1"/>
				<path class="st0" d="M-622.4,844.1c18.6-19.7,43-34.6,67.2-49.3c15.7-9.6,31.5-19.2,47.3-28.8c-33.7,24.8-67.4,49.5-101.2,74.3"
					/>
				<path class="st0" d="M-387.6,797.1c-45,12.4-193.4,45.3-239.8,53.1c0.6-0.1,2.9-3.8,3.4-4.3c1.4-1.5,2.9-2.9,4.5-4.2
					c2.7-2.2,6.1-4.6,9.8-5.4c2.7-0.6,5.5-0.2,8.2-0.4c4.9-0.4,9.8-1.8,14.5-2.7c20.3-4,40.8-7.2,61.5-9.7
					C-513.8,822.1-399.4,798-387.6,797.1z"/>
				<path class="st0" d="M-600.5,827.2c-3.2,1.7-6.1,5.9-8.8,8.3c-3.2,2.7-6.5,5.2-10,7.6c-7,4.8-14.7,9.1-22.7,12.6
					c-4,1.8-8.1,3.3-12.2,4.7c-2.5,0.8-9.3,1.9-5.5-1.8c3-3,9.9-5.3,13.9-7.4c4.6-2.4,9.3-4.9,13.9-7.4
					C-621.5,838.4-611,832.8-600.5,827.2z"/>
				<path class="st0" d="M-504.3,808.8c-21.1-2.6-42.5-3.6-63.9-2.9c-0.3,0-1.9,2.4-1.9,2.6c0.3,1.3,0,0.5,1.6,1
					c2.3,0.7,6.8-0.1,9.3-0.1c6.1-0.1,12.1-0.1,18.2-0.2C-528.8,809-516.6,808.9-504.3,808.8z"/>
			</g>
			<path class="st2" d="M-336.2,383.6"/>
		</g>
	</g>
</g>
</svg>
