<?xml version="1.0" encoding="utf-8"?>
<!-- Generator: Adobe Illustrator 22.1.0, SVG Export Plug-In . SVG Version: 6.00 Build 0)  -->
<svg version="1.1" id="Capa_1" xmlns="http://www.w3.org/2000/svg" xmlns:xlink="http://www.w3.org/1999/xlink" x="0px" y="0px"
	 viewBox="0 0 165.9 140.5" style="enable-background:new 0 0 165.9 140.5;" xml:space="preserve">
<style type="text/css">
	.st0{fill:none;stroke:#244F3B;stroke-miterlimit:10;}
	.st1{fill:#561114;}
	.st2{fill:#9D1C1F;}
	.st3{fill:#330000;}
	.st4{fill:#244F3B;}
	.st5{fill:#19382B;}
</style>
<g>
	<polygon class="st0" points="11.5,10.1 153.4,10.3 153.4,127.8 11.5,127.8 	"/>
	<line class="st0" x1="11.5" y1="120.4" x2="153.4" y2="120.4"/>
	<line class="st0" x1="11.5" y1="113.1" x2="153.4" y2="113.1"/>
	<line class="st0" x1="11.5" y1="105.8" x2="153.4" y2="105.8"/>
	<line class="st0" x1="11.5" y1="98.4" x2="153.4" y2="98.4"/>
	<line class="st0" x1="11.5" y1="91.1" x2="153.4" y2="91.1"/>
	<line class="st0" x1="11.5" y1="83.8" x2="153.4" y2="83.8"/>
	<line class="st0" x1="11.5" y1="76.4" x2="153.4" y2="76.4"/>
	<line class="st0" x1="11.5" y1="69" x2="153.4" y2="69"/>
	<line class="st0" x1="11.5" y1="61.8" x2="153.4" y2="61.8"/>
	<line class="st0" x1="11.5" y1="54.4" x2="153.4" y2="54.4"/>
	<line class="st0" x1="11.5" y1="47" x2="153.4" y2="47"/>
	<line class="st0" x1="11.5" y1="39.7" x2="153.4" y2="39.7"/>
	<line class="st0" x1="11.5" y1="32.3" x2="153.4" y2="32.3"/>
	<line class="st0" x1="11.5" y1="25" x2="153.4" y2="25"/>
	<line class="st0" x1="11.5" y1="17.7" x2="153.4" y2="17.7"/>
	<line class="st0" x1="129.8" y1="10.3" x2="129.8" y2="127.8"/>
	<line class="st0" x1="106.1" y1="10.3" x2="106.1" y2="127.8"/>
	<line class="st0" x1="82.5" y1="10.3" x2="82.5" y2="127.8"/>
	<line class="st0" x1="58.8" y1="10.3" x2="58.8" y2="127.8"/>
	<line class="st0" x1="35.2" y1="10.3" x2="35.2" y2="127.8"/>
</g>
<path class="st1" d="M153.4,7.2c-1.5,0-2.8,1.2-2.8,2.8c0,0.1,0,0.1,0,0.2l-17.9,4.7c-0.4-1-1.4-1.6-2.5-1.6c-1.5,0-2.8,1.2-2.8,2.8
	c0,0.8,0.3,1.5,0.9,2l-20.8,31.7c-0.3-0.1-0.7-0.2-1.1-0.2c-1.5,0-2.8,1.2-2.8,2.8c0,0.7,0.2,1.3,0.6,1.7L84.7,67.3
	c-0.6-1-1.7-1.2-2.2-1.1c-2.2,0-2.8,2-2.8,2.8l-17.9-0.2c-0.1-0.9-1.1-2.2-2.7-2.2s-2.8,1.2-2.8,2.8c0,0.6,0.2,1.2,0.6,1.7L37,92.5
	c-0.4-0.3-0.9-0.4-1.5-0.4c-1.5,0-2.8,1.2-2.8,2.8c0,0.7,0.3,1.4,0.8,1.9l-22,30.3l0.8,0.6l22-30.3c0.4,0.2,0.8,0.3,1.2,0.3
	c1.5,0,2.8-1.2,2.8-2.8c0-0.6-0.2-1.2-0.6-1.7l19.9-21.4c0.4,0.3,0.9,0.4,1.5,0.4c1.3,0,2.6-0.9,2.8-2.5L79.8,70
	c0,0,0.8,1.8,2.7,1.8c1.5,0,2.7-1.2,2.8-2.8c0-0.1,0-0.4-0.1-0.4L105,54.8c0.4,0.2,0.9,0.4,1.4,0.4c1.5,0,2.8-1.2,2.8-2.8
	c0-0.8-0.3-1.5-0.9-2l20.8-31.7c0.3,0.1,0.7,0.2,1.1,0.2c1.5,0,2.8-1.2,2.8-2.8c0-0.1,0-0.1,0-0.2l17.9-4.7c0.4,1,1.4,1.6,2.5,1.6
	c1.5,0,2.8-1.2,2.8-2.8S154.9,7.2,153.4,7.2z M35.5,96.5c-1,0-1.8-0.8-1.8-1.8s0.8-1.8,1.8-1.8s1.8,0.8,1.8,1.8S36.5,96.5,35.5,96.5
	z M59.1,71.1c-1,0-1.8-0.8-1.8-1.8s0.8-1.8,1.8-1.8s1.8,0.8,1.8,1.8S60.1,71.1,59.1,71.1z M82.5,70.8c-1,0-1.8-0.8-1.8-1.8
	s0.8-1.8,1.8-1.8s1.8,0.8,1.8,1.8S83.5,70.8,82.5,70.8z M106.3,54c-1,0-1.8-0.8-1.8-1.8s0.8-1.8,1.8-1.8s1.8,0.8,1.8,1.8
	S107.3,54,106.3,54z M130.2,17.8c-1,0-1.8-0.8-1.8-1.8s0.8-1.8,1.8-1.8S132,15,132,16S131.2,17.8,130.2,17.8z M153.4,11.8
	c-1,0-1.8-0.8-1.8-1.8s0.8-1.8,1.8-1.8s1.8,0.8,1.8,1.8S154.4,11.8,153.4,11.8z"/>
<path class="st2" d="M45.3,127.6c-0.5,0-1-0.1-1.4-0.2c-0.3,0-0.6-0.1-0.8-0.3c-0.3,0.1-0.6,0.1-0.8,0.1c-0.8,0-2-0.2-3.7-0.7
	l-0.1,0l-0.1,0c-1.5-0.6-1.8-1.6-1.9-2.2c0-0.4,0.1-0.9,0.3-1.2c0-1,0.1-2.8,0.3-3.8c-0.2-0.2-0.8-0.5-1.2-0.7
	c-0.5,2.1-2.5,3.6-6,4.3c0.8,0.7,1.8,1.6,1.7,2.5c0,0.5-0.3,0.9-0.8,1.1c-0.3,0.1-0.6,0.2-1,0.2c-1.9,0-3.4-2.2-4.1-3.3l-0.1-0.2
	c-0.7-1-0.3-2.1,0.3-2.7l0.1-0.1l0.1-0.1c0,0,3.4-1.7,4.3-2.2c0,0,0.4-0.2,0.5-0.2c0,0,0-0.1,0-0.1c-0.4-1-0.5-3.2-0.3-4.2
	c-4.3-0.4-5.8-4.5-5.8-7.2c0-2.3,2.7-7.8,7.6-7.8c2,0,4.1,0.9,6.3,2.7l0.1,0.1c1.9,2,3.6,3,5.1,3c0.8,0,1.4-0.3,2-0.6
	c0.3-0.2,0.7-0.5,0.8-1c0.1-0.5-0.2-1.1-0.8-1.8c-0.7-0.5-1-1.3-0.8-2c0.2-0.6,0.7-1,1.4-1c0.1,0,0.3,0,0.5,0.1c1,0.2,2.8,2,3.1,3.9
	c0.2,1.3-0.1,3.3-2.8,4.9c-0.9,0.5-1.9,0.8-2.9,0.8c-3.6,0-7.1-3.1-8.1-4.1c-1-0.7-2-1-2.9-1c-2.2,0-3.6,2.1-3.7,3.6
	c-0.1,1.9,1.2,2.6,2.3,2.8c0.2,0,0.6-0.2,0.9-0.4c1.1-0.5,2.8-1.1,4.6-1.1c2.9,0.1,4.6,0.9,6.2,1.5c1.2,0.5,2.3,1,3.7,1.1l0.1,0
	c0.1,0,0.2,0,0.3,0c0.2,0,0.2,0,0.5-0.4c0.3-0.5,0.9-1.2,2.1-1.2c0.1,0,0.2,0,0.3,0c2.9,0.2,2.9,2.1,2.9,3.2c0,0.1,0,0.3,0,0.5
	l0,0.1c0.5,0.8,1.1,1.9,0.1,3.2c-0.6,0.8-1.7,1.2-2.8,1.2l0,0c-0.4,0-0.8-0.1-1.1-0.2c-0.1,0.9-0.4,1.7-0.7,2.3
	c-0.1,0.3-0.3,0.7-0.3,0.9c0,0.2,0.4,0.8,0.7,1.2c0.4,0.5,0.8,1,1.1,1.7c0.1,0.3,0.2,0.5,0.3,0.7c0,0,0,0.1,0,0.1
	c0.1,0,0.6,0.1,0.6,0.1c2.2,0.3,2.5,1.3,2.5,1.8c0,0.7-0.7,1.4-1.9,1.4c-1.2,0-2.5,0-4-1.7c-1.5-1.4-2.3-2.5-2.8-3.4
	c0,0.2,0,0.3,0,0.5c0,0.6-0.1,1.1-0.2,1.4c0,0.2,0,0.4,0,0.5c0.1,0,0.3,0,0.4,0c2.1,0,2.2,1.3,2.2,1.7
	C47.6,126.4,47.4,127.6,45.3,127.6z M40,123.7c0.3,0.1,0.7,0.2,1,0.3c0.2,0,0.3,0.1,0.5,0.1c-0.2-0.7-0.5-1.5-0.7-2.2
	c-0.3,0.6-0.5,1-0.5,1C40.2,123.2,40.1,123.5,40,123.7z"/>
<path class="st2" d="M50.5,109.8c-1.9-0.2-1.2,1.9-3.3,1.5c-3.6-0.3-5-2.4-9.8-2.6c-2.6,0-4.8,1.5-5.6,1.5c-1.2-0.2-3.4-1-3.3-3.9
	c0.2-2.9,3.6-6.5,8.2-3.3c1.9,1.9,6.3,5.3,9.9,3.3c4.8-2.9,0.9-6.8,0-7s-1,0.7-0.2,1.2c1.9,2.1,1.2,3.6-0.2,4.4
	c-1.4,0.7-3.8,1.9-8.2-2.6c-8.2-6.7-12.3,2.1-12.3,4.3c0,2.2,1.2,6,5.1,6.2c0.7,0,0.9,0.5,0.7,1c-0.2,0.5-0.2,2.9,0.2,3.9
	c0.3,1,0,1-0.9,1.5s-4.3,2.2-4.3,2.2s-0.7,0.7-0.2,1.4c0.5,0.7,2.4,3.8,4.1,2.9c0.7-0.3-0.7-1.7-2.1-2.6c-0.3-0.3-0.7-0.7,0.5-0.9
	c1.2-0.2,6-0.9,6.2-4.4c0-0.7,0.2-0.5,0.7-0.2c0.7,0.3,2.6,0.9,2.4,1.9s-0.3,3.3-0.3,4.1c-0.3,0.2-0.7,1.4,1,2.1
	c1.9,0.5,4.3,1,4.1,0.3c0-0.7-2.4-1-3.6-1.5c-0.7-0.3-0.5-0.7,0.2-2.1c0.7-1.2,1.9-4.3,0.7-5.1c-0.5-0.2-0.2-0.7,0.9-0.5
	c1,0.2,1.4,0.2,0.9,1c-0.5,0.7-0.9,1.7-0.3,3.3c0.3,1.5,1.4,4.4,1.4,4.4s0,0.9,0.9,1c0.9,0.2,2.6,0.3,2.6-0.5c0-0.9-1.4-0.7-1.9-0.7
	s-0.9-0.7-0.7-1.7s0.2-4.4,0.9-4.1c0.9,0.2,0,1.5,3.8,5.1c1.2,1.4,2.1,1.4,3.3,1.4s1.5-0.9-0.7-1.2c-1.4-0.2-1,0-1.7-1.4
	s-1.9-2.4-1.9-3.3s1-2.1,1-3.9c0-0.9,0.5-0.9,1.2-0.3c0.7,0.3,2.2,0.2,2.9-0.7c0.7-0.9,0.2-1.5-0.3-2.4
	C52.4,111.3,52.9,110,50.5,109.8z"/>
<g>
	<path class="st2" d="M112.6,90.5c-0.2-0.5,0-2.4,0.5-3.9c0.4-1.1,0-1.5-0.5-2c0,0-0.4,0-0.8,0.3l0.2-1.1c-0.6-0.9-1.2-2.8-4.4-3.4
		c-3.5-0.7-7.2,2-7.2,2l-2.5,1.8c0,0-12.4-1.6-17.3,1.2c-4.9,2.8-6.1,2.2-12.4,6.7c-2.3,1.7-2.9,7-2.9,7c0.3,2.8,1.2,11.1,1.7,12.4
		c0,0-8.8,8.6-7.7,11.9c0,0-0.2,1.3,2,1.6c2.3,0.3,6,1.3,7,1.3s0.4-1,2-1.3c0.8-0.2,0.8-1.1,0-1.7s-5.2-1.9-5.2-1.9s6.6-4.3,7.6-6.8
		c0.1-0.2,0.8-1,1.6-1.9c0.2,0.2,0.5,0.4,0.7,0.7c1.6,1.3,2.8,1.9,2.8,1.9c1.8,7,5.4,9.8,7.2,12c1.9,2.2,6.6-0.6,8.2-1.1
		S95,125,95,125c1.2,0.1,0.8-1.2,0.8-1.2c-1.8-1.9-4.1-1.8-5.5-1.4c-1.3,0.4-2.7,0-2.7,0s-3.4-8.4-3.6-9.8c-0.7-4.1-4.6-8.8-4.6-8.8
		c4,0.2,8.2-0.8,9.6-1.3c-0.2-1.3,0.1-3.5,1.3-7.5c0,0-0.6,6.8,0.7,9.5c3.3,4.7,9.4,10.2,9.4,11.1c0,1.1,1,2.9,1,3.4
		s-1.8,2.4-1.8,2.4l-1.4-0.7c0.7-1.1-0.3-2-0.3-2l-1.3,1.5c-0.4,0.4-0.3,1.2,0.2,1.5l2.3,1.6c0.3,0.2,0.8,0.3,1.2,0.1
		c6.2-3.8,6.2-6.7,5.1-8.4c-1.1-1.7-6.8-11.1-6.8-11.1c0.6-2.6,0.7-5,1-6.7c0.7-5-2-9.4-2-9.4c2.1,2.2,2.8,5.2,3.1,7.2
		c0.1,0,0.1-0.1,0.1-0.1c1.6-0.7,7.1,3.5,9.2,2.9c1.8-0.5,2.6-1,3-2.1l0.3-0.8C113.6,93.1,112.8,91,112.6,90.5z"/>
	<path class="st2" d="M99.7,103.8l5.7,9.5c0,0-3.1-11.9-4.9-17.1C100.6,96.1,100.2,102,99.7,103.8z"/>
	<path class="st2" d="M98.6,103.9l0.1-0.4c0.4-1.5,0.8-6.2,0.8-7.1l-0.2-0.5l0.7-0.7l1.3,0l0.1,0.8c1.8,5.2,4.7,16.5,4.9,17
		l-1.8,0.8L98.6,103.9z"/>
	<path class="st2" d="M107.2,127.2c-0.5,0-1.2,0-1.5-0.1c-0.6-0.1-1.8-0.3-1.8-1.7c0-0.5,0.3-0.9,0.8-1.2c-0.6-1-0.7-2.8-0.8-3.4
		l0-0.4l0.3-0.3c1.9-2-1.5-7.2-1.5-7.2l3.8-0.1c0.5,1.3,0.3,1.7,0.7,2.7c0.5,1.2,2.6,5.2,2.7,7.1c0,0.8,0.1,1.2,0.4,1.6
		c0.5,0.9,0.3,1.6,0.1,1.9C109.8,126.8,108.8,127.2,107.2,127.2L107.2,127.2z"/>
	<path class="st2" d="M106.8,116.8c0,0,0.4,1.4-2,4c0,0,0.1,2.3,0.7,3c0.2,0.3,0.3,0.6,0.3,1c0,0-1,0.2-1,0.6s0.1,0.6,1,0.7
		c0.3,0.1,4.5,0.5,3.5-1.3C108.1,123,109.7,121.8,106.8,116.8z"/>
	<path class="st2" d="M113.5,90.2c-0.1-0.4,0.1-1.9,0.5-3.2c0.6-1.7-0.2-2.5-0.7-3l-0.3-0.3l0-0.1l-0.2-0.3
		c-0.1-0.1-0.2-0.2-0.2-0.4c-0.6-1.1-1.6-2.8-4.8-3.4c-0.4-0.1-0.9-0.1-1.4-0.1c-3.4,0-6.5,2.2-6.6,2.3l-2.2,1.6
		c-1-0.1-4-0.4-7.3-0.4c-4.7,0-8.2,0.6-10.2,1.8c-1.8,1-3.1,1.6-4.4,2.2c-2.1,0.9-4.1,1.8-8.1,4.6c-2.6,1.9-3.2,7.1-3.3,7.7l0,0.1
		l0,0.1c0.8,7.9,1.3,10.8,1.6,12c-2.1,2.1-8.4,8.8-7.6,12.3c0,0.3,0.1,0.8,0.4,1.3c0.5,0.7,1.3,1.1,2.4,1.2c1.1,0.1,2.5,0.5,3.8,0.7
		c1.7,0.4,2.7,0.6,3.3,0.6c1,0,1.4-0.6,1.6-1c0.1-0.2,0.2-0.3,0.7-0.4c0.7-0.2,1.2-0.7,1.3-1.3c0.2-0.8-0.2-1.6-1-2.1
		c-0.5-0.4-2.1-1-3.5-1.4c2.1-1.5,5.4-4.1,6.2-6c0.1-0.1,0.3-0.4,0.8-0.9l0,0c1.1,0.9,2.1,1.5,2.6,1.8c1.6,5.7,4.3,8.7,6.2,10.7
		c0.2,0.2,0.3,0.3,0.5,0.5h9.8c0.1,0,0.1,0,0.2-0.1c1.1-0.3,1.7-0.8,2.1-1.2c0.5-0.1,0.8-0.4,1-0.6c0.5-0.7,0.3-1.7,0.2-1.8
		l-0.1-0.2l-0.2-0.2c-1.2-1.3-2.8-1.9-4.5-1.9c-0.7,0-1.3,0.1-2,0.3c-0.3,0.1-0.6,0.1-1,0.1c-0.3,0-0.5,0-0.7-0.1
		c-1.3-3.2-3.2-8.2-3.3-9.1c-0.5-2.8-2.3-5.8-3.6-7.6c3.3-0.1,6.6-0.9,7.9-1.4l0.2-0.1c0.1,0.6,0.3,1.1,0.5,1.6l0,0.1l0,0.1
		c1.8,2.6,4.4,5.3,6.4,7.5c1.2,1.3,2.5,2.7,2.8,3.2c0,0.8,0.4,1.7,0.7,2.5c0.1,0.2,0.2,0.5,0.3,0.7c-0.2,0.2-0.5,0.7-0.9,1.2
		c0.1-1-0.5-1.8-0.9-2.1l-0.8-0.7l-1.9,2.2c-0.4,0.4-0.6,1-0.5,1.6c0.1,0.6,0.4,1.2,0.9,1.4l2.3,1.6c0.4,0.2,0.8,0.4,1.3,0.4
		c0.3,0,0.6-0.1,1-0.3c3.5-2.2,5.5-4.3,6-6.4c0.3-1.2,0.1-2.3-0.6-3.4c-1-1.5-5.5-9-6.6-10.7c0.3-1.5,0.5-3,0.6-4.3
		c0.1-0.8,0.2-1.5,0.3-2.1c0.1-0.5,0.1-0.9,0.1-1.3c0.2,0,0.4-0.1,0.6-0.2c0.7,0,2.1,0.7,3.4,1.3c1.7,0.8,3.5,1.7,4.9,1.7h0
		c0.3,0,0.5,0,0.7-0.1c1.9-0.5,3.1-1.1,3.7-2.7l0.3-0.9l0-0.1C114.6,93.1,113.9,91,113.5,90.2z"/>
</g>
<g>
	<path class="st2" d="M162.7,115.5c-1.3,0.6-2.6,1-4,1.1c-1.6-0.6-3.3-0.8-5.1-0.7l-0.1,0.1l-0.7-1.5l0.2,0c-0.5-2.1-1.5-5-1.7-7.3
		c-1.2-4.3-0.5-10.5-0.3-14.9c-2-5.1-4-10.2-6-15.3c1.6-1.2,2.8-2.8,3.6-4.6c-0.5-1.7-1.5-3.2-2.9-4.2c0.1-1.8,0.2-3.6,0.3-5.3
		l1.1-0.2c-0.3,1.4,0.4,5.3,0.8,6.5c3.9-2.8,0.6-15.7-0.7-19.8c-0.5-1-1-2-1.7-3c-0.1-0.4,0.4-0.8,0.5-1.6l-0.3-0.4l0,0l0,0
		l-0.2-0.2c0.3-0.4,0.9-0.8,1.2-1.2c2.5,0.2,2.5,0.1,3.7-2.2c0.3-0.5,1-3.5,1.5-4.4c0.3-1.3,0.5-2.6,0.3-4l0,0
		c-0.7-6.9-10.8-6.3-10.7,0.7c-0.1,0-0.1-0.1-0.2-0.1l-0.1,0l-0.2,0.4c0,0.8,0.9,2.6,0.7,3.1l-0.4,2.3l0.1-0.3
		c0,0.4-0.3,0.2-0.4,0.1c0,0.4-0.1,0.8-0.3,1.1c-6.6,1.6-10.2,6.3-10,13c0,0-1.2,4.1-1.2,4.2l-0.4-0.4c0.7-2.1,1.2-4.2,1.7-6.3
		c-0.8,1.7-1.4,3.5-2.2,5.2c0,0.2-0.1,0.3-0.2,0.4l-0.3-0.3l-4.5-0.8c-4.6,2.3-7.7,5.9-9.2,10.8c2.8,4.2,6.6,8.3,10.8,11.5
		c0.5,2.1,2,6.3,1.4,8.7c0.1,3.3-1.5,6.9-2.1,10.1c0.2,0.3,0,1.3-0.1,1.7c-4.3,6-5.3,12.8-6.1,20.3l1.2,0.2l-1.2,3.9
		c-0.3-0.1-0.5-0.2-0.8-0.2l-0.3,2.8l-0.2,0c0.1,0.2,0.2,0.4,0.1,0.7c3.4,0.2,6.7,0.8,10.1,1l0,0c2.4,0.5,4.7,0.2,6.9-0.8l-0.5-1.2
		c-1.4,0-2.7-0.1-4.1-0.5c-1.1-1.2-2.6-2-4.3-2.5l-0.1,0.1l0.2-2.3l0.4,0c1.8-5.6,3.7-10.7,5-16.4c0-0.1,0.6-0.7,0.6-0.7
		c2.1-4.8,3.8-9.9,5.7-14.8c-1.1,1.5,6.6,8.7,6.3,11c-0.4,5.9,0.5,11.8,2.2,17.5l1.4,0l0.9,4.2c-0.3,0-0.6,0-0.8,0.2l1.1,2.7
		l-0.2,0.1c0.2,0.2,0.4,0.3,0.5,0.6c3.3-1.1,6.5-1.8,9.6-2.9l0,0c2.4-0.4,4.4-1.5,5.8-3.4L162.7,115.5z M147,54.1
		c0.5,1.4,0.8,2.7,0.8,4c-0.3-0.3-0.6-0.4-0.9-0.4l-0.1-0.1c0.1-0.4,0.2-0.8,0.4-1.2l-0.1,0l0.1-0.3l-0.8,0c0.2-1,0.3-2.1,0.4-3.1
		C146.8,53.3,146.9,53.6,147,54.1C147.5,55.4,146.9,53.6,147,54.1z"/>
	<path class="st2" d="M129.7,127.6c-0.9,0-1.8-0.1-2.6-0.3c-1.7-0.1-3.4-0.3-5-0.5c-1.6-0.2-3.3-0.4-5-0.5l-0.9-0.1l0-1.1
		c0,0,0.1-0.8,0.1-0.8l0.1-0.7l0.3-2.8l0.9,0c0,0,0.1,0,0.1,0l0.6-1.9l-1-0.1l0.1-1c0.7-7.3,1.7-14.4,6.1-20.6
		c0.1-0.3,0.1-0.7,0.1-0.8l-0.2-0.2l0.1-0.4c0.2-1.1,0.6-2.3,0.9-3.5c0.6-2.2,1.2-4.4,1.2-6.5l0-0.1l0-0.1c0.5-1.7-0.4-4.8-1-6.9
		c-0.1-0.3-0.2-0.7-0.3-0.9c-4.2-3.2-8-7.2-10.8-11.5l-0.3-0.4l0.1-0.4c1.5-5.1,4.8-8.9,9.7-11.4l0.3-0.1l4.5,0.8
		c0.3-0.7,0.6-1.4,0.8-2.1c0.4-0.9,0.7-1.8,1.1-2.7l0,0c0.8-5.5,4.4-9.4,10.1-11c0-0.1,0-0.2,0-0.2l0.6-1.8l0.1-0.6
		c0-0.2-0.2-0.8-0.3-1.1c-0.2-0.6-0.4-1.2-0.4-1.7l0-0.2l0.5-1.2c0.4-3.5,3.3-5.5,6.2-5.5c2.8-0.1,6,1.7,6.4,5.7
		c0.3,1.5,0,2.9-0.3,4.3l0,0.1l-0.1,0.1c-0.2,0.4-0.6,1.6-0.8,2.5c-0.3,1.1-0.5,1.7-0.7,2l0,0.1c-0.8,1.7-1.3,2.7-3,2.7
		c-0.3,0-0.7,0-1,0c-0.1,0.1-0.2,0.2-0.2,0.2l0.2,0.3l0,0.4c-0.1,0.6-0.3,1-0.4,1.3c0,0,0,0,0,0c0.6,0.9,1,1.8,1.5,2.7l0,0.1l0,0.1
		c0.9,2.9,5.2,17.3,0.4,20.9c0.4,0.7,0.7,1.4,1,2.2l0.1,0.4l-0.1,0.3c-0.7,1.7-1.8,3.2-3.3,4.5c0.9,2.3,1.8,4.6,2.7,7
		c1,2.6,2,5.1,3,7.6l0.1,0.2l0,0.2c0,0.7-0.1,1.5-0.1,2.4c-0.2,3.9-0.5,8.8,0.4,12.2l0,0.1l0,0.1c0.1,1.7,0.7,3.7,1.2,5.5
		c0.2,0.6,0.3,1.1,0.4,1.6l0.2,0.6c0.1,0,0.1,0,0.2,0c1.5,0,3.1,0.2,4.6,0.7c1.3-0.1,2.4-0.4,3.4-1l0.8-0.4l1.9,2.8l-0.4,0.6
		c-1.6,2.1-3.7,3.4-6.4,3.8c-1.7,0.6-3.3,1-5,1.5c-1.5,0.4-3.1,0.9-4.6,1.4l-0.9,0.3l-0.3-0.9c0,0,0,0,0,0c0,0,0,0-0.1,0
		c-0.1-0.1-0.1-0.1-0.2-0.2l-0.4-1.3l-1-2.4l0.4-0.5c0.1-0.1,0.2-0.2,0.3-0.3l-0.5-2.4l-1.3,0l-0.2-0.7c-1.8-6-2.6-12-2.2-17.8
		c0.1-0.8-1.9-3.4-3.1-4.9c-0.9-1.2-1.7-2.2-2.2-3c-0.3,0.8-0.6,1.6-0.9,2.4c-1.2,3.3-2.4,6.7-3.9,9.9l-0.1,0.2l-0.1,0.1
		c0,0-0.2,0.2-0.4,0.4c-0.9,4.2-2.2,7.9-3.5,11.9c-0.5,1.4-1,2.9-1.4,4.4l-0.2,0.7l-0.2,0l0,0.5c1.5,0.5,2.8,1.3,3.8,2.3
		c1.2,0.3,2.4,0.4,3.6,0.4l0.7,0l1.2,2.7l-0.9,0.4C133,127.2,131.4,127.6,129.7,127.6z"/>
	<g>
		<path class="st2" d="M148.5,123.1l0.4,0.8c2.2-0.5,4.3-1.5,6.1-2.6C152.7,121.6,150.6,122.2,148.5,123.1z"/>
		<path class="st2" d="M163.8,116.8c-1.9,2.1-4.4,3.5-7.2,4.1l0.1,0.2c2.8-0.6,5.5-1.8,7.4-3.8L163.8,116.8z"/>
		<path class="st2" d="M116.9,125.4l-0.1,0.9c2.3,0.4,4.6,0.3,6.9,0C121.5,125.7,119.2,125.3,116.9,125.4z"/>
		<path class="st2" d="M131.6,126.5c-2-0.2-3.9-0.2-5.9-0.2l0,0.2c2.9,0.6,5.8,0.4,8.5-0.6l0.1-0.6
			C133.8,125.4,132.2,126.5,131.6,126.5z"/>
		<path class="st2" d="M147.1,122.6l1-0.4c2-0.9,4.2-1.5,6.8-1.9l0.7,1.8c-2.1,1.3-4.3,2.2-6.4,2.7l-0.8,0.2L147.1,122.6z"/>
		<path class="st2" d="M155.1,120.1l1.3-0.3c2.7-0.5,5-1.8,6.7-3.7l0.9-1l1.5,2.3l-0.6,0.6c-2,2-4.8,3.4-7.9,4l-0.7,0.1L155.1,120.1
			z"/>
		<path class="st2" d="M120.6,127.5c-1.3,0-2.6-0.1-3.9-0.2l-0.9-0.1l0.2-2.7l0.9,0c2.2,0,4.5,0.2,7.1,0.9l-0.1,2
			C122.8,127.4,121.6,127.5,120.6,127.5L120.6,127.5z"/>
	</g>
</g>
<path class="st3" d="M50.5,109.8c-1.9-0.2-1.2,1.9-3.3,1.5c-3.6-0.3-5-2.4-9.8-2.6c-2.6,0-4.8,1.5-5.6,1.5c-1.2-0.2-3.4-1-3.3-3.9
	c0.2-2.9,3.6-6.5,8.2-3.3c1.9,1.9,6.3,5.3,9.9,3.3c4.8-2.9,0.9-6.8,0-7s-1,0.7-0.2,1.2c1.9,2.1,1.2,3.6-0.2,4.4
	c-1.4,0.7-3.8,1.9-8.2-2.6c-8.2-6.7-12.3,2.1-12.3,4.3c0,2.2,1.2,6,5.1,6.2c0.7,0,0.9,0.5,0.7,1c-0.2,0.5-0.2,2.9,0.2,3.9
	c0.3,1,0,1-0.9,1.5s-4.3,2.2-4.3,2.2s-0.7,0.7-0.2,1.4c0.5,0.7,2.4,3.8,4.1,2.9c0.7-0.3-0.7-1.7-2.1-2.6c-0.3-0.3-0.7-0.7,0.5-0.9
	c1.2-0.2,6-0.9,6.2-4.4c0-0.7,0.2-0.5,0.7-0.2c0.7,0.3,2.6,0.9,2.4,1.9s-0.3,3.3-0.3,4.1c-0.3,0.2-0.7,1.4,1,2.1
	c1.9,0.5,4.3,1,4.1,0.3c0-0.7-2.4-1-3.6-1.5c-0.7-0.3-0.5-0.7,0.2-2.1c0.7-1.2,1.9-4.3,0.7-5.1c-0.5-0.2-0.2-0.7,0.9-0.5
	c1,0.2,1.4,0.2,0.9,1c-0.5,0.7-0.9,1.7-0.3,3.3c0.3,1.5,1.4,4.4,1.4,4.4s0,0.9,0.9,1c0.9,0.2,2.6,0.3,2.6-0.5c0-0.9-1.4-0.7-1.9-0.7
	s-0.9-0.7-0.7-1.7s0.2-4.4,0.9-4.1c0.9,0.2,0,1.5,3.8,5.1c1.2,1.4,2.1,1.4,3.3,1.4s1.5-0.9-0.7-1.2c-1.4-0.2-1,0-1.7-1.4
	s-1.9-2.4-1.9-3.3s1-2.1,1-3.9c0-0.9,0.5-0.9,1.2-0.3c0.7,0.3,2.2,0.2,2.9-0.7c0.7-0.9,0.2-1.5-0.3-2.4
	C52.4,111.3,52.9,110,50.5,109.8z"/>
<g>
	<path class="st4" d="M7.2,113.6H3.6c-0.3,0-0.5-0.2-0.5-0.5s0.2-0.5,0.5-0.5h3.6c0.3,0,0.5,0.2,0.5,0.5S7.5,113.6,7.2,113.6z"/>
</g>
<g>
	<path class="st3" d="M112.6,90.5c-0.2-0.5,0-2.4,0.5-3.9c0.4-1.1,0-1.5-0.5-2c0,0-0.4,0-0.8,0.3l0.2-1.1c-0.6-0.9-1.2-2.8-4.4-3.4
		c-3.5-0.7-7.2,2-7.2,2l-2.5,1.8c0,0-12.4-1.6-17.3,1.2c-4.9,2.8-6.1,2.2-12.4,6.7c-2.3,1.7-2.9,7-2.9,7c0.3,2.8,1.2,11.1,1.7,12.4
		c0,0-8.8,8.6-7.7,11.9c0,0-0.2,1.3,2,1.6c2.3,0.3,6,1.3,7,1.3s0.4-1,2-1.3c0.8-0.2,0.8-1.1,0-1.7s-5.2-1.9-5.2-1.9s6.6-4.3,7.6-6.8
		c0.1-0.2,0.8-1,1.6-1.9c0.2,0.2,0.5,0.4,0.7,0.7c1.6,1.3,2.8,1.9,2.8,1.9c1.8,7,5.4,9.8,7.2,12c1.9,2.2,6.6-0.6,8.2-1.1
		S95,125,95,125c1.2,0.1,0.8-1.2,0.8-1.2c-1.8-1.9-4.1-1.8-5.5-1.4c-1.3,0.4-2.7,0-2.7,0s-3.4-8.4-3.6-9.8c-0.7-4.1-4.6-8.8-4.6-8.8
		c4,0.2,8.2-0.8,9.6-1.3c-0.2-1.3,0.1-3.5,1.3-7.5c0,0-0.6,6.8,0.7,9.5c3.3,4.7,9.4,10.2,9.4,11.1c0,1.1,1,2.9,1,3.4
		s-1.8,2.4-1.8,2.4l-1.4-0.7c0.7-1.1-0.3-2-0.3-2l-1.3,1.5c-0.4,0.4-0.3,1.2,0.2,1.5l2.3,1.6c0.3,0.2,0.8,0.3,1.2,0.1
		c6.2-3.8,6.2-6.7,5.1-8.4c-1.1-1.7-6.8-11.1-6.8-11.1c0.6-2.6,0.7-5,1-6.7c0.7-5-2-9.4-2-9.4c2.1,2.2,2.8,5.2,3.1,7.2
		c0.1,0,0.1-0.1,0.1-0.1c1.6-0.7,7.1,3.5,9.2,2.9c1.8-0.5,2.6-1,3-2.1l0.3-0.8C113.6,93.1,112.8,91,112.6,90.5z"/>
	<path class="st3" d="M99.7,103.8l5.7,9.5c0,0-3.1-11.9-4.9-17.1C100.6,96.1,100.2,102,99.7,103.8z"/>
	<path class="st3" d="M106.8,116.8c0,0,0.4,1.4-2,4c0,0,0.1,2.3,0.7,3c0.2,0.3,0.3,0.6,0.3,1c0,0-1,0.2-1,0.6s0.1,0.6,1,0.7
		c0.3,0.1,4.5,0.5,3.5-1.3C108.1,123,109.7,121.8,106.8,116.8z"/>
</g>
<g>
	<path class="st4" d="M7.2,106.3H3.6c-0.3,0-0.5-0.2-0.5-0.5s0.2-0.5,0.5-0.5h3.6c0.3,0,0.5,0.2,0.5,0.5S7.5,106.3,7.2,106.3z"/>
</g>
<g>
	<path class="st4" d="M7.2,98.9H3.6c-0.3,0-0.5-0.2-0.5-0.5s0.2-0.5,0.5-0.5h3.6c0.3,0,0.5,0.2,0.5,0.5S7.5,98.9,7.2,98.9z"/>
</g>
<g>
	<path class="st4" d="M7.2,91.6H3.6c-0.3,0-0.5-0.2-0.5-0.5s0.2-0.5,0.5-0.5h3.6c0.3,0,0.5,0.2,0.5,0.5S7.5,91.6,7.2,91.6z"/>
</g>
<g>
	<path class="st4" d="M7.2,84.3H3.6c-0.3,0-0.5-0.2-0.5-0.5s0.2-0.5,0.5-0.5h3.6c0.3,0,0.5,0.2,0.5,0.5S7.5,84.3,7.2,84.3z"/>
</g>
<g>
	<path class="st4" d="M7.2,76.9H3.6c-0.3,0-0.5-0.2-0.5-0.5s0.2-0.5,0.5-0.5h3.6c0.3,0,0.5,0.2,0.5,0.5S7.5,76.9,7.2,76.9z"/>
</g>
<g>
	<path class="st4" d="M7.2,69.5H3.6c-0.3,0-0.5-0.2-0.5-0.5s0.2-0.5,0.5-0.5h3.6c0.3,0,0.5,0.2,0.5,0.5S7.5,69.5,7.2,69.5z"/>
</g>
<g>
	<path class="st4" d="M7.2,62.3H3.6c-0.3,0-0.5-0.2-0.5-0.5s0.2-0.5,0.5-0.5h3.6c0.3,0,0.5,0.2,0.5,0.5S7.5,62.3,7.2,62.3z"/>
</g>
<g>
	<path class="st4" d="M7.2,54.9H3.6c-0.3,0-0.5-0.2-0.5-0.5s0.2-0.5,0.5-0.5h3.6c0.3,0,0.5,0.2,0.5,0.5S7.5,54.9,7.2,54.9z"/>
</g>
<g>
	<path class="st4" d="M7.2,47.5H3.6c-0.3,0-0.5-0.2-0.5-0.5s0.2-0.5,0.5-0.5h3.6c0.3,0,0.5,0.2,0.5,0.5S7.5,47.5,7.2,47.5z"/>
</g>
<g>
	<path class="st4" d="M7.2,40.2H3.6c-0.3,0-0.5-0.2-0.5-0.5s0.2-0.5,0.5-0.5h3.6c0.3,0,0.5,0.2,0.5,0.5S7.5,40.2,7.2,40.2z"/>
</g>
<g>
	<path class="st4" d="M7.2,32.8H3.6c-0.3,0-0.5-0.2-0.5-0.5s0.2-0.5,0.5-0.5h3.6c0.3,0,0.5,0.2,0.5,0.5S7.5,32.8,7.2,32.8z"/>
</g>
<g>
	<path class="st4" d="M7.2,25.5H3.6c-0.3,0-0.5-0.2-0.5-0.5s0.2-0.5,0.5-0.5h3.6c0.3,0,0.5,0.2,0.5,0.5S7.5,25.5,7.2,25.5z"/>
</g>
<g>
	<path class="st4" d="M7.2,18.2H3.6c-0.3,0-0.5-0.2-0.5-0.5s0.2-0.5,0.5-0.5h3.6c0.3,0,0.5,0.2,0.5,0.5S7.5,18.2,7.2,18.2z"/>
</g>
<circle class="st4" cx="35.2" cy="132.8" r="1.6"/>
<circle class="st4" cx="59" cy="132.8" r="1.6"/>
<circle class="st4" cx="82.7" cy="132.8" r="1.6"/>
<circle class="st4" cx="106.1" cy="132.8" r="1.6"/>
<circle class="st4" cx="130.2" cy="132.8" r="1.6"/>
<g>
	<path class="st3" d="M162.7,115.5c-1.3,0.6-2.6,1-4,1.1c-1.6-0.6-3.3-0.8-5.1-0.7l-0.1,0.1l-0.7-1.5l0.2,0c-0.5-2.1-1.5-5-1.7-7.3
		c-1.2-4.3-0.5-10.5-0.3-14.9c-2-5.1-4-10.2-6-15.3c1.6-1.2,2.8-2.8,3.6-4.6c-0.5-1.7-1.5-3.2-2.9-4.2c0.1-1.8,0.2-3.6,0.3-5.3
		l1.1-0.2c-0.3,1.4,0.4,5.3,0.8,6.5c3.9-2.8,0.6-15.7-0.7-19.8c-0.5-1-1-2-1.7-3c-0.1-0.4,0.4-0.8,0.5-1.6l-0.3-0.4l0,0l0,0
		l-0.2-0.2c0.3-0.4,0.9-0.8,1.2-1.2c2.5,0.2,2.5,0.1,3.7-2.2c0.3-0.5,1-3.5,1.5-4.4c0.3-1.3,0.5-2.6,0.3-4l0,0
		c-0.7-6.9-10.8-6.3-10.7,0.7c-0.1,0-0.1-0.1-0.2-0.1l-0.1,0l-0.2,0.4c0,0.8,0.9,2.6,0.7,3.1l-0.4,2.3l0,0c0-0.1-0.2-0.1-0.3-0.2
		c0,0.4-0.1,0.8-0.3,1.1c-6.6,1.6-10.2,6.3-10,13c0,0-1.2,4.1-1.2,4.2l-0.4-0.4c0.7-2.1,1.2-4.2,1.7-6.3c-0.8,1.7-1.4,3.5-2.2,5.2
		c0,0.2-0.1,0.3-0.2,0.4l-0.3-0.3l-4.5-0.8c-4.6,2.3-7.7,5.9-9.2,10.8c2.8,4.2,6.6,8.3,10.8,11.5c0.5,2.1,2,6.3,1.4,8.7
		c0.1,3.3-1.5,6.9-2.1,10.1c0.2,0.3,0,1.3-0.1,1.7c-4.3,6-5.3,12.8-6.1,20.3l1.2,0.2l-1.2,3.9c-0.3-0.1-0.5-0.2-0.8-0.2l-0.3,2.8
		l-0.2,0c0.1,0.2,0.2,0.4,0.1,0.7c3.4,0.2,6.7,0.8,10.1,1l0,0c2.4,0.5,4.7,0.2,6.9-0.8l-0.5-1.2c-1.4,0-2.7-0.1-4.1-0.5
		c-1.1-1.2-2.6-2-4.3-2.5l-0.1,0.1l0.2-2.3l0.4,0c1.8-5.6,3.7-10.7,5-16.4c0-0.1,0.6-0.7,0.6-0.7c2.1-4.8,3.8-9.9,5.7-14.8
		c-1.1,1.5,6.6,8.7,6.3,11c-0.4,5.9,0.5,11.8,2.2,17.5l1.4,0l0.9,4.2c-0.3,0-0.6,0-0.8,0.2l1.1,2.7l-0.2,0.1
		c0.2,0.2,0.4,0.3,0.5,0.6c3.3-1.1,6.5-1.8,9.6-2.9l0,0c2.4-0.4,4.4-1.5,5.8-3.4L162.7,115.5z M147,54.1c0.5,1.4,0.8,2.7,0.8,4
		c-0.3-0.3-0.6-0.4-0.9-0.4l-0.1-0.1c0.1-0.4,0.2-0.8,0.4-1.2l-0.1,0l0.1-0.3l-0.8,0c0.2-1,0.3-2.1,0.4-3.1
		C146.8,53.3,146.9,53.6,147,54.1C147.5,55.4,146.9,53.6,147,54.1z"/>
	<g>
		<path class="st3" d="M148.5,123.1l0.4,0.8c2.2-0.5,4.3-1.5,6.1-2.6C152.7,121.6,150.6,122.2,148.5,123.1z"/>
		<path class="st3" d="M163.8,116.8c-1.9,2.1-4.8,2.7-7.2,4.1l0.1,0.2c2.8-0.6,5.5-1.8,7.4-3.8L163.8,116.8z"/>
		<path class="st3" d="M116.9,125.4l-0.1,0.9c2.3,0.4,5.7,0.2,8-0.2C122.7,125.5,119.2,125.3,116.9,125.4z"/>
		<path class="st3" d="M131.5,126.2c-2-0.2-4-0.2-6-0.1l0.3,0.4c2.9,0.6,5.8,0.4,8.5-0.6l0.1-0.6
			C133.8,125.4,132.1,126.2,131.5,126.2z"/>
	</g>
</g>
<path class="st4" d="M162.9,126.5l-5.1-2.2c-0.5-0.2-1.1,0-1.3,0.5s0,1.1,0.5,1.3l0.7,0.3H12.8V7.2l0.3,0.7c0.2,0.4,0.5,0.6,0.9,0.6
	c0.1,0,0.3,0,0.4-0.1c0.5-0.2,0.7-0.8,0.5-1.3L12.7,2c-0.2-0.4-0.5-0.6-0.9-0.6S11,1.6,10.9,2L8.7,7.1c-0.2,0.5,0,1.1,0.5,1.3
	s1.1,0,1.3-0.5l0.3-0.7v119.2H6.3l0.7-0.3c0.5-0.2,0.7-0.8,0.5-1.3s-0.8-0.7-1.3-0.5l-5.1,2.2c-0.4,0.2-0.6,0.5-0.6,0.9
	s0.2,0.8,0.6,0.9l5.1,2.2c0.1,0.1,0.3,0.1,0.4,0.1c0.4,0,0.8-0.2,0.9-0.6c0.2-0.5,0-1.1-0.5-1.3l-0.7-0.3h4.5v4.8l-0.3-0.7
	c-0.2-0.5-0.8-0.7-1.3-0.5s-0.7,0.8-0.5,1.3l2.2,5.1c0.2,0.4,0.5,0.6,0.9,0.6s0.8-0.2,0.9-0.6l2.2-5.1c0.2-0.5,0-1.1-0.5-1.3
	s-1.1,0-1.3,0.5l-0.3,0.7v-4.7h144.9l-0.7,0.3c-0.5,0.2-0.7,0.8-0.5,1.3c0.2,0.4,0.5,0.6,0.9,0.6c0.1,0,0.3,0,0.4-0.1l5.1-2.2
	c0.4-0.2,0.6-0.5,0.6-0.9S163.3,126.8,162.9,126.5z"/>
<g>
	<path class="st5" d="M-252.6,212c-0.1,0-0.3,0-0.4,0C-252.9,212-252.8,212-252.6,212C-252.7,212-252.7,212-252.6,212L-252.6,212z"
		/>
	<path class="st5" d="M-225.2,13.2c-0.5,0-1,0-1.5,0.1h3C-224.2,13.2-224.6,13.2-225.2,13.2z"/>
	<path class="st5" d="M-246.2,33.8c-0.1,0-0.3,0-0.4,0C-246.5,33.8-246.4,33.8-246.2,33.8C-246.3,33.8-246.3,33.8-246.2,33.8
		L-246.2,33.8z"/>
	<path class="st5" d="M-189.2,205.2c-0.3-2.6-4.5-4.6-9.7-4.6c-1.8,0-3.5,0.2-5,0.7c-0.7-2.1-4-3.8-8.2-4.1
		c-1.7-1.3-4.7-2.2-8.1-2.2c-1.1,0-2.2,0.1-3.2,0.3c-0.9-2.2-4.8-3.9-9.5-3.9c-4.4,0-8.1,1.5-9.3,3.5v13h57.2
		C-185.5,206.8-187.1,205.8-189.2,205.2z"/>
	<path class="st5" d="M-231.2,43.1c1.3,1.9,4.9,3.2,9.1,3.2c3.1,0,5.9-0.7,7.6-1.9c0.7,0.1,1.4,0.1,2.1,0.1c4.9,0,8.9-1.8,9.6-4.2
		c0,0,0.1,0,0.1,0c1.2,0,2.3-0.1,3.4-0.3c1,0.2,2.2,0.3,3.3,0.3c4.9,0,8.9-1.8,9.6-4.2c0,0,0.1,0,0.1,0c5.3,0,9.7-2.2,9.7-4.9
		c0-1.8-2-3.4-4.9-4.2c-0.3-2.6-4.5-4.6-9.7-4.6c-1.8,0-3.5,0.2-5,0.7c-0.7-2.1-4-3.8-8.2-4.1c-1.7-1.3-4.7-2.2-8.1-2.2
		c-1.1,0-2.2,0.1-3.2,0.3c-0.8-2-4-3.5-8-3.8h-3c-4.2,0.3-7.5,2-8.1,4.1c0,0-0.1,0-0.1,0c-2.8,0-5.4,0.6-7.2,1.6v24.4
		c2.8-0.2,5.2-1,6.6-2.2C-234.4,42-232.9,42.7-231.2,43.1z"/>
</g>
</svg>
