<?xml version="1.0" encoding="utf-8"?>
<!-- Generator: Adobe Illustrator 19.0.0, SVG Export Plug-In . SVG Version: 6.00 Build 0)  -->
<svg version="1.1" id="Capa_1" xmlns="http://www.w3.org/2000/svg" xmlns:xlink="http://www.w3.org/1999/xlink" x="0px" y="0px"
	 viewBox="-397 210.5 164 140.5" style="enable-background:new -397 210.5 164 140.5;" xml:space="preserve">
<style type="text/css">
	.st0{fill:url(#SVGID_1_);}
	.st1{fill:none;stroke:#D8EDEF;stroke-miterlimit:10;}
	.st2{fill:url(#SVGID_2_);}
	.st3{fill:url(#SVGID_3_);}
	.st4{fill:none;stroke:url(#SVGID_4_);stroke-linecap:round;stroke-miterlimit:10;}
	.st5{fill:url(#SVGID_5_);}
	.st6{fill:url(#SVGID_6_);}
	.st7{fill:url(#SVGID_7_);}
	.st8{fill:none;stroke:url(#SVGID_8_);stroke-linecap:round;stroke-miterlimit:10;}
	.st9{fill:none;stroke:url(#SVGID_9_);stroke-linecap:round;stroke-miterlimit:10;}
	.st10{fill:none;stroke:url(#SVGID_10_);stroke-linecap:round;stroke-miterlimit:10;}
	.st11{fill:none;stroke:url(#SVGID_11_);stroke-linecap:round;stroke-miterlimit:10;}
	.st12{fill:none;stroke:url(#SVGID_12_);stroke-linecap:round;stroke-miterlimit:10;}
	.st13{fill:none;stroke:url(#SVGID_13_);stroke-linecap:round;stroke-miterlimit:10;}
	.st14{fill:none;stroke:url(#SVGID_14_);stroke-linecap:round;stroke-miterlimit:10;}
	.st15{fill:none;stroke:url(#SVGID_15_);stroke-linecap:round;stroke-miterlimit:10;}
	.st16{fill:none;stroke:url(#SVGID_16_);stroke-linecap:round;stroke-miterlimit:10;}
	.st17{fill:none;stroke:url(#SVGID_17_);stroke-linecap:round;stroke-miterlimit:10;}
	.st18{fill:none;stroke:url(#SVGID_18_);stroke-linecap:round;stroke-miterlimit:10;}
	.st19{fill:none;stroke:url(#SVGID_19_);stroke-linecap:round;stroke-miterlimit:10;}
	.st20{fill:none;stroke:url(#SVGID_20_);stroke-linecap:round;stroke-miterlimit:10;}
	.st21{fill:url(#SVGID_21_);}
	.st22{fill:url(#SVGID_22_);}
	.st23{fill:url(#SVGID_23_);}
	.st24{fill:url(#SVGID_24_);}
	.st25{fill:url(#SVGID_25_);}
	.st26{fill:url(#SVGID_26_);}
	.st27{fill:#430D0E;}
	.st28{fill:url(#SVGID_27_);}
	.st29{fill:#D8EDEF;}
</style>
<linearGradient id="SVGID_1_" gradientUnits="userSpaceOnUse" x1="-314.425" y1="335.3125" x2="-314.425" y2="218.2125" gradientTransform="matrix(1 0 0 1 0 3)">
	<stop  offset="0" style="stop-color:#00274D;stop-opacity:0"/>
	<stop  offset="1" style="stop-color:#00274D;stop-opacity:0.4"/>
</linearGradient>
<polygon class="st0" points="-385.4,337.7 -383.7,336.3 -362.9,307.6 -361.4,307.8 -359.6,306.8 -359.3,305.3 -359.6,303.5 
	-339.4,281.8 -337.8,282.3 -335.5,280.9 -335.3,279.8 -316.6,280.5 -315.3,281.7 -313.6,281.7 -312.2,280.5 -312.2,278.8 
	-292,264.6 -290.2,265.2 -288.3,263.6 -289.2,261 -268,228.5 -266.4,228.9 -264.9,227.7 -263.4,225.7 -245.9,221.2 -243.5,223.4 
	-243.5,338.3 -384.6,338.3 "/>
<g>
	<polygon class="st1" points="-385.5,220.6 -243.6,220.8 -243.6,338.3 -385.5,338.3 	"/>
	<line class="st1" x1="-385.5" y1="330.9" x2="-243.6" y2="330.9"/>
	<line class="st1" x1="-385.5" y1="323.6" x2="-243.6" y2="323.6"/>
	<line class="st1" x1="-385.5" y1="316.3" x2="-243.6" y2="316.3"/>
	<line class="st1" x1="-385.5" y1="308.9" x2="-243.6" y2="308.9"/>
	<line class="st1" x1="-385.5" y1="301.6" x2="-243.6" y2="301.6"/>
	<line class="st1" x1="-385.5" y1="294.3" x2="-243.6" y2="294.3"/>
	<line class="st1" x1="-385.5" y1="286.9" x2="-243.6" y2="286.9"/>
	<line class="st1" x1="-385.5" y1="279.5" x2="-243.6" y2="279.5"/>
	<line class="st1" x1="-385.5" y1="272.3" x2="-243.6" y2="272.3"/>
	<line class="st1" x1="-385.5" y1="264.9" x2="-243.6" y2="264.9"/>
	<line class="st1" x1="-385.5" y1="257.5" x2="-243.6" y2="257.5"/>
	<line class="st1" x1="-385.5" y1="250.2" x2="-243.6" y2="250.2"/>
	<line class="st1" x1="-385.5" y1="242.8" x2="-243.6" y2="242.8"/>
	<line class="st1" x1="-385.5" y1="235.5" x2="-243.6" y2="235.5"/>
	<line class="st1" x1="-385.5" y1="228.2" x2="-243.6" y2="228.2"/>
	<line class="st1" x1="-267.2" y1="220.8" x2="-267.2" y2="338.3"/>
	<line class="st1" x1="-290.9" y1="220.8" x2="-290.9" y2="338.3"/>
	<line class="st1" x1="-314.5" y1="220.8" x2="-314.5" y2="338.3"/>
	<line class="st1" x1="-338.2" y1="220.8" x2="-338.2" y2="338.3"/>
	<line class="st1" x1="-361.8" y1="220.8" x2="-361.8" y2="338.3"/>
</g>
<linearGradient id="SVGID_2_" gradientUnits="userSpaceOnUse" x1="-250.0801" y1="588.9879" x2="-382.3593" y2="458.1742" gradientTransform="matrix(1 0 0 -1 0 799)">
	<stop  offset="0" style="stop-color:#00C962"/>
	<stop  offset="1" style="stop-color:#006C44"/>
</linearGradient>
<path class="st2" d="M-243.6,217.7c-1.5,0-2.8,1.2-2.8,2.8c0,0.1,0,0.1,0,0.2l-17.9,4.7c-0.4-1-1.4-1.6-2.5-1.6
	c-1.5,0-2.8,1.2-2.8,2.8c0,0.8,0.3,1.5,0.9,2l-20.8,31.7c-0.3-0.1-0.7-0.2-1.1-0.2c-1.5,0-2.8,1.2-2.8,2.8c0,0.7,0.2,1.3,0.6,1.7
	l-19.5,13.2c-0.6-1-1.7-1.2-2.2-1.1c-2.2,0-2.8,2-2.8,2.8l-17.9-0.2c-0.1-0.9-1.1-2.2-2.7-2.2s-2.8,1.2-2.8,2.8
	c0,0.6,0.2,1.2,0.6,1.7L-360,303c-0.4-0.3-0.9-0.4-1.5-0.4c-1.5,0-2.8,1.2-2.8,2.8c0,0.7,0.3,1.4,0.8,1.9l-22,30.3l0.8,0.6l22-30.3
	c0.4,0.2,0.8,0.3,1.2,0.3c1.5,0,2.8-1.2,2.8-2.8c0-0.6-0.2-1.2-0.6-1.7l19.9-21.4c0.4,0.3,0.9,0.4,1.5,0.4c1.3,0,2.6-0.9,2.8-2.5
	l17.9,0.3c0,0,0.8,1.8,2.7,1.8c1.5,0,2.7-1.2,2.8-2.8c0-0.1,0-0.4-0.1-0.4l19.8-13.8c0.4,0.2,0.9,0.4,1.4,0.4c1.5,0,2.8-1.2,2.8-2.8
	c0-0.8-0.3-1.5-0.9-2l20.8-31.7c0.3,0.1,0.7,0.2,1.1,0.2c1.5,0,2.8-1.2,2.8-2.8c0-0.1,0-0.1,0-0.2l17.9-4.7c0.4,1,1.4,1.6,2.5,1.6
	c1.5,0,2.8-1.2,2.8-2.8S-242.1,217.7-243.6,217.7z M-361.5,307c-1,0-1.8-0.8-1.8-1.8s0.8-1.8,1.8-1.8s1.8,0.8,1.8,1.8
	S-360.5,307-361.5,307z M-337.9,281.6c-1,0-1.8-0.8-1.8-1.8s0.8-1.8,1.8-1.8s1.8,0.8,1.8,1.8S-336.9,281.6-337.9,281.6z
	 M-314.5,281.3c-1,0-1.8-0.8-1.8-1.8s0.8-1.8,1.8-1.8s1.8,0.8,1.8,1.8S-313.5,281.3-314.5,281.3z M-290.7,264.5
	c-1,0-1.8-0.8-1.8-1.8s0.8-1.8,1.8-1.8s1.8,0.8,1.8,1.8S-289.7,264.5-290.7,264.5z M-266.8,228.3c-1,0-1.8-0.8-1.8-1.8
	s0.8-1.8,1.8-1.8s1.8,0.8,1.8,1.8S-265.8,228.3-266.8,228.3z M-243.6,222.3c-1,0-1.8-0.8-1.8-1.8s0.8-1.8,1.8-1.8s1.8,0.8,1.8,1.8
	S-242.6,222.3-243.6,222.3z"/>
<linearGradient id="SVGID_3_" gradientUnits="userSpaceOnUse" x1="-357.5772" y1="462.1202" x2="-357.5772" y2="489.066" gradientTransform="matrix(1 0 0 -1 0 799)">
	<stop  offset="0" style="stop-color:#240808"/>
	<stop  offset="1" style="stop-color:#9D1C1F"/>
</linearGradient>
<path class="st3" d="M-346.5,320.3c-1.9-0.2-1.2,1.9-3.3,1.5c-3.6-0.3-5-2.4-9.8-2.6c-2.6,0-4.8,1.5-5.6,1.5c-1.2-0.2-3.4-1-3.3-3.9
	c0.2-2.9,3.6-6.5,8.2-3.3c1.9,1.9,6.3,5.3,9.9,3.3c4.8-2.9,0.9-6.8,0-7s-1,0.7-0.2,1.2c1.9,2.1,1.2,3.6-0.2,4.4
	c-1.4,0.7-3.8,1.9-8.2-2.6c-8.2-6.7-12.3,2.1-12.3,4.3c0,2.2,1.2,6,5.1,6.2c0.7,0,0.9,0.5,0.7,1c-0.2,0.5-0.2,2.9,0.2,3.9
	c0.3,1,0,1-0.9,1.5s-4.3,2.2-4.3,2.2s-0.7,0.7-0.2,1.4c0.5,0.7,2.4,3.8,4.1,2.9c0.7-0.3-0.7-1.7-2.1-2.6c-0.3-0.3-0.7-0.7,0.5-0.9
	c1.2-0.2,6-0.9,6.2-4.4c0-0.7,0.2-0.5,0.7-0.2c0.7,0.3,2.6,0.9,2.4,1.9s-0.3,3.3-0.3,4.1c-0.3,0.2-0.7,1.4,1,2.1
	c1.9,0.5,4.3,1,4.1,0.3c0-0.7-2.4-1-3.6-1.5c-0.7-0.3-0.5-0.7,0.2-2.1c0.7-1.2,1.9-4.3,0.7-5.1c-0.5-0.2-0.2-0.7,0.9-0.5
	c1,0.2,1.4,0.2,0.9,1c-0.5,0.7-0.9,1.7-0.3,3.3c0.3,1.5,1.4,4.4,1.4,4.4s0,0.9,0.9,1c0.9,0.2,2.6,0.3,2.6-0.5c0-0.9-1.4-0.7-1.9-0.7
	s-0.9-0.7-0.7-1.7c0.2-1,0.2-4.4,0.9-4.1c0.9,0.2,0,1.5,3.8,5.1c1.2,1.4,2.1,1.4,3.3,1.4s1.5-0.9-0.7-1.2c-1.4-0.2-1,0-1.7-1.4
	s-1.9-2.4-1.9-3.3s1-2.1,1-3.9c0-0.9,0.5-0.9,1.2-0.3c0.7,0.3,2.2,0.2,2.9-0.7c0.7-0.9,0.2-1.5-0.3-2.4
	C-344.6,321.8-344.1,320.5-346.5,320.3z"/>
<linearGradient id="SVGID_4_" gradientUnits="userSpaceOnUse" x1="-1946.0125" y1="-961.2708" x2="-1946.0125" y2="-956.6042" gradientTransform="matrix(4.489659e-011 1 -1 4.489659e-011 -1350.5375 2269.6624)">
	<stop  offset="0" style="stop-color:#00C962"/>
	<stop  offset="1" style="stop-color:#006C44"/>
</linearGradient>
<line class="st4" x1="-389.8" y1="323.6" x2="-393.4" y2="323.6"/>
<g>
	
		<linearGradient id="SVGID_5_" gradientUnits="userSpaceOnUse" x1="-310.7142" y1="224.513" x2="-310.7142" y2="272.2151" gradientTransform="matrix(1 0 0 -1 0 563)">
		<stop  offset="0" style="stop-color:#240808"/>
		<stop  offset="1" style="stop-color:#9D1C1F"/>
	</linearGradient>
	<path class="st5" d="M-284.4,301c-0.2-0.5,0-2.4,0.5-3.9c0.4-1.1,0-1.5-0.5-2c0,0-0.4,0-0.8,0.3l0.2-1.1c-0.6-0.9-1.2-2.8-4.4-3.4
		c-3.5-0.7-7.2,2-7.2,2l-2.5,1.8c0,0-12.4-1.6-17.3,1.2c-4.9,2.8-6.1,2.2-12.4,6.7c-2.3,1.7-2.9,7-2.9,7c0.3,2.8,1.2,11.1,1.7,12.4
		c0,0-8.8,8.6-7.7,11.9c0,0-0.2,1.3,2,1.6c2.3,0.3,6,1.3,7,1.3s0.4-1,2-1.3c0.8-0.2,0.8-1.1,0-1.7s-5.2-1.9-5.2-1.9s6.6-4.3,7.6-6.8
		c0.1-0.2,0.8-1,1.6-1.9c0.2,0.2,0.5,0.4,0.7,0.7c1.6,1.3,2.8,1.9,2.8,1.9c1.8,7,5.4,9.8,7.2,12c1.9,2.2,6.6-0.6,8.2-1.1
		s1.8-1.2,1.8-1.2c1.2,0.1,0.8-1.2,0.8-1.2c-1.8-1.9-4.1-1.8-5.5-1.4c-1.3,0.4-2.7,0-2.7,0s-3.4-8.4-3.6-9.8
		c-0.7-4.1-4.6-8.8-4.6-8.8c4,0.2,8.2-0.8,9.6-1.3c-0.2-1.3,0.1-3.5,1.3-7.5c0,0-0.6,6.8,0.7,9.5c3.3,4.7,9.4,10.2,9.4,11.1
		c0,1.1,1,2.9,1,3.4s-1.8,2.4-1.8,2.4l-1.4-0.7c0.7-1.1-0.3-2-0.3-2l-1.3,1.5c-0.4,0.4-0.3,1.2,0.2,1.5l2.3,1.6
		c0.3,0.2,0.8,0.3,1.2,0.1c6.2-3.8,6.2-6.7,5.1-8.4c-1.1-1.7-6.8-11.1-6.8-11.1c0.6-2.6,0.7-5,1-6.7c0.7-5-2-9.4-2-9.4
		c2.1,2.2,2.8,5.2,3.1,7.2c0.1,0,0.1-0.1,0.1-0.1c1.6-0.7,7.1,3.5,9.2,2.9c1.8-0.5,2.6-1,3-2.1l0.3-0.8
		C-283.4,303.6-284.2,301.5-284.4,301z"/>
	
		<linearGradient id="SVGID_6_" gradientUnits="userSpaceOnUse" x1="-294.45" y1="239.201" x2="-294.45" y2="256.3023" gradientTransform="matrix(1 0 0 -1 0 563)">
		<stop  offset="0" style="stop-color:#240808"/>
		<stop  offset="1" style="stop-color:#9D1C1F"/>
	</linearGradient>
	<path class="st6" d="M-297.3,314.3l5.7,9.5c0,0-3.1-11.9-4.9-17.1C-296.4,306.6-296.8,312.5-297.3,314.3z"/>
	
		<linearGradient id="SVGID_7_" gradientUnits="userSpaceOnUse" x1="-289.8732" y1="226.1199" x2="-289.8732" y2="235.6135" gradientTransform="matrix(1 0 0 -1 0 563)">
		<stop  offset="0" style="stop-color:#240808"/>
		<stop  offset="1" style="stop-color:#9D1C1F"/>
	</linearGradient>
	<path class="st7" d="M-290.2,327.3c0,0,0.4,1.4-2,4c0,0,0.1,2.3,0.7,3c0.2,0.3,0.3,0.6,0.3,1c0,0-1,0.2-1,0.6s0.1,0.6,1,0.7
		c0.3,0.1,4.5,0.5,3.5-1.3C-288.9,333.5-287.3,332.3-290.2,327.3z"/>
</g>
<linearGradient id="SVGID_8_" gradientUnits="userSpaceOnUse" x1="-1953.4125" y1="-961.2708" x2="-1953.4125" y2="-956.6042" gradientTransform="matrix(4.489659e-011 1 -1 4.489659e-011 -1350.5375 2269.6624)">
	<stop  offset="0" style="stop-color:#00C962"/>
	<stop  offset="1" style="stop-color:#006C44"/>
</linearGradient>
<line class="st8" x1="-389.8" y1="316.3" x2="-393.4" y2="316.3"/>
<linearGradient id="SVGID_9_" gradientUnits="userSpaceOnUse" x1="-1960.7125" y1="-961.2708" x2="-1960.7125" y2="-956.6042" gradientTransform="matrix(4.489659e-011 1 -1 4.489659e-011 -1350.5375 2269.6624)">
	<stop  offset="0" style="stop-color:#00C962"/>
	<stop  offset="1" style="stop-color:#006C44"/>
</linearGradient>
<line class="st9" x1="-389.8" y1="308.9" x2="-393.4" y2="308.9"/>
<linearGradient id="SVGID_10_" gradientUnits="userSpaceOnUse" x1="-1968.0125" y1="-961.2708" x2="-1968.0125" y2="-956.6042" gradientTransform="matrix(4.489659e-011 1 -1 4.489659e-011 -1350.5375 2269.6624)">
	<stop  offset="0" style="stop-color:#00C962"/>
	<stop  offset="1" style="stop-color:#006C44"/>
</linearGradient>
<line class="st10" x1="-389.8" y1="301.6" x2="-393.4" y2="301.6"/>
<linearGradient id="SVGID_11_" gradientUnits="userSpaceOnUse" x1="-1975.4125" y1="-961.2708" x2="-1975.4125" y2="-956.6042" gradientTransform="matrix(4.489659e-011 1 -1 4.489659e-011 -1350.5375 2269.6624)">
	<stop  offset="0" style="stop-color:#00C962"/>
	<stop  offset="1" style="stop-color:#006C44"/>
</linearGradient>
<line class="st11" x1="-389.8" y1="294.3" x2="-393.4" y2="294.3"/>
<linearGradient id="SVGID_12_" gradientUnits="userSpaceOnUse" x1="-1982.7125" y1="-961.2708" x2="-1982.7125" y2="-956.6042" gradientTransform="matrix(4.489659e-011 1 -1 4.489659e-011 -1350.5375 2269.6624)">
	<stop  offset="0" style="stop-color:#00C962"/>
	<stop  offset="1" style="stop-color:#006C44"/>
</linearGradient>
<line class="st12" x1="-389.8" y1="286.9" x2="-393.4" y2="286.9"/>
<linearGradient id="SVGID_13_" gradientUnits="userSpaceOnUse" x1="-1990.1124" y1="-961.2708" x2="-1990.1124" y2="-956.6042" gradientTransform="matrix(4.489659e-011 1 -1 4.489659e-011 -1350.5375 2269.6624)">
	<stop  offset="0" style="stop-color:#00C962"/>
	<stop  offset="1" style="stop-color:#006C44"/>
</linearGradient>
<line class="st13" x1="-389.8" y1="279.5" x2="-393.4" y2="279.5"/>
<linearGradient id="SVGID_14_" gradientUnits="userSpaceOnUse" x1="-1997.4125" y1="-961.2708" x2="-1997.4125" y2="-956.6042" gradientTransform="matrix(4.489659e-011 1 -1 4.489659e-011 -1350.5375 2269.6624)">
	<stop  offset="0" style="stop-color:#00C962"/>
	<stop  offset="1" style="stop-color:#006C44"/>
</linearGradient>
<line class="st14" x1="-389.8" y1="272.3" x2="-393.4" y2="272.3"/>
<linearGradient id="SVGID_15_" gradientUnits="userSpaceOnUse" x1="-2004.7125" y1="-961.2708" x2="-2004.7125" y2="-956.6042" gradientTransform="matrix(4.489659e-011 1 -1 4.489659e-011 -1350.5375 2269.6624)">
	<stop  offset="0" style="stop-color:#00C962"/>
	<stop  offset="1" style="stop-color:#006C44"/>
</linearGradient>
<line class="st15" x1="-389.8" y1="264.9" x2="-393.4" y2="264.9"/>
<linearGradient id="SVGID_16_" gradientUnits="userSpaceOnUse" x1="-2012.1124" y1="-961.2708" x2="-2012.1124" y2="-956.6042" gradientTransform="matrix(4.489659e-011 1 -1 4.489659e-011 -1350.5375 2269.6624)">
	<stop  offset="0" style="stop-color:#00C962"/>
	<stop  offset="1" style="stop-color:#006C44"/>
</linearGradient>
<line class="st16" x1="-389.8" y1="257.5" x2="-393.4" y2="257.5"/>
<linearGradient id="SVGID_17_" gradientUnits="userSpaceOnUse" x1="-2019.4125" y1="-961.2708" x2="-2019.4125" y2="-956.6042" gradientTransform="matrix(4.489659e-011 1 -1 4.489659e-011 -1350.5375 2269.6624)">
	<stop  offset="0" style="stop-color:#00C962"/>
	<stop  offset="1" style="stop-color:#006C44"/>
</linearGradient>
<line class="st17" x1="-389.8" y1="250.2" x2="-393.4" y2="250.2"/>
<linearGradient id="SVGID_18_" gradientUnits="userSpaceOnUse" x1="-2026.8125" y1="-961.2708" x2="-2026.8125" y2="-956.6042" gradientTransform="matrix(4.489659e-011 1 -1 4.489659e-011 -1350.5375 2269.6624)">
	<stop  offset="0" style="stop-color:#00C962"/>
	<stop  offset="1" style="stop-color:#006C44"/>
</linearGradient>
<line class="st18" x1="-389.8" y1="242.8" x2="-393.4" y2="242.8"/>
<linearGradient id="SVGID_19_" gradientUnits="userSpaceOnUse" x1="-2034.1124" y1="-961.2708" x2="-2034.1124" y2="-956.6042" gradientTransform="matrix(4.489659e-011 1 -1 4.489659e-011 -1350.5375 2269.6624)">
	<stop  offset="0" style="stop-color:#00C962"/>
	<stop  offset="1" style="stop-color:#006C44"/>
</linearGradient>
<line class="st19" x1="-389.8" y1="235.5" x2="-393.4" y2="235.5"/>
<linearGradient id="SVGID_20_" gradientUnits="userSpaceOnUse" x1="-2041.4125" y1="-961.2708" x2="-2041.4125" y2="-956.6042" gradientTransform="matrix(4.489659e-011 1 -1 4.489659e-011 -1350.5375 2269.6624)">
	<stop  offset="0" style="stop-color:#00C962"/>
	<stop  offset="1" style="stop-color:#006C44"/>
</linearGradient>
<line class="st20" x1="-389.8" y1="228.2" x2="-393.4" y2="228.2"/>
<linearGradient id="SVGID_21_" gradientUnits="userSpaceOnUse" x1="-361.8" y1="338.7333" x2="-361.8" y2="341.9333" gradientTransform="matrix(1 0 0 1 0 3)">
	<stop  offset="0" style="stop-color:#00C962"/>
	<stop  offset="1" style="stop-color:#006C44"/>
</linearGradient>
<circle class="st21" cx="-361.8" cy="343.3" r="1.6"/>
<linearGradient id="SVGID_22_" gradientUnits="userSpaceOnUse" x1="-338" y1="338.7333" x2="-338" y2="341.9333" gradientTransform="matrix(1 0 0 1 0 3)">
	<stop  offset="0" style="stop-color:#00C962"/>
	<stop  offset="1" style="stop-color:#006C44"/>
</linearGradient>
<circle class="st22" cx="-338" cy="343.3" r="1.6"/>
<linearGradient id="SVGID_23_" gradientUnits="userSpaceOnUse" x1="-314.3" y1="338.7333" x2="-314.3" y2="341.9333" gradientTransform="matrix(1 0 0 1 0 3)">
	<stop  offset="0" style="stop-color:#00C962"/>
	<stop  offset="1" style="stop-color:#006C44"/>
</linearGradient>
<circle class="st23" cx="-314.3" cy="343.3" r="1.6"/>
<linearGradient id="SVGID_24_" gradientUnits="userSpaceOnUse" x1="-290.9" y1="338.7333" x2="-290.9" y2="341.9333" gradientTransform="matrix(1 0 0 1 0 3)">
	<stop  offset="0" style="stop-color:#00C962"/>
	<stop  offset="1" style="stop-color:#006C44"/>
</linearGradient>
<circle class="st24" cx="-290.9" cy="343.3" r="1.6"/>
<linearGradient id="SVGID_25_" gradientUnits="userSpaceOnUse" x1="-266.8" y1="338.7333" x2="-266.8" y2="341.9333" gradientTransform="matrix(1 0 0 1 0 3)">
	<stop  offset="0" style="stop-color:#00C962"/>
	<stop  offset="1" style="stop-color:#006C44"/>
</linearGradient>
<circle class="st25" cx="-266.8" cy="343.3" r="1.6"/>
<g>
	
		<linearGradient id="SVGID_26_" gradientUnits="userSpaceOnUse" x1="-258.1499" y1="215.7831" x2="-258.1499" y2="325.5026" gradientTransform="matrix(1 0 0 -1 0 563)">
		<stop  offset="0" style="stop-color:#240808"/>
		<stop  offset="1" style="stop-color:#9D1C1F"/>
	</linearGradient>
	<path class="st26" d="M-235.1,326.5c-1.3,0.6-2.6,0.9-4,1c-1.6-0.6-3.3-0.9-5.1-0.8l-0.1,0.1l-0.7-1.5h0.2c-0.5-2.1-1.4-5-1.5-7.3
		c-1.1-4.3-0.3-10.5,0-14.9c-1.9-5.1-3.8-10.3-5.7-15.4c1.6-1.2,2.9-2.7,3.7-4.5c-0.5-1.7-1.4-3.2-2.8-4.3c0.1-1.8,0.3-3.6,0.4-5.3
		l1.1-0.2c-0.3,1.4,0.3,5.3,0.7,6.5c4-2.7,0.9-15.7-0.3-19.8c-0.5-1-1-2-1.6-3c-0.1-0.4,0.4-0.8,0.5-1.6l-0.3-0.4l0,0l0,0l-0.2-0.2
		c0.3-0.4,0.9-0.8,1.2-1.2c2.5,0.3,2.5,0.2,3.7-2.1c0.3-0.5,1.1-3.5,1.6-4.4c0.3-1.3,0.6-2.6,0.4-4l0,0c-0.6-6.9-10.7-6.5-10.7,0.5
		c-0.1,0-0.1-0.1-0.2-0.1h-0.1l-0.2,0.4c0,0.8,0.8,2.6,0.6,3.1l-0.4,2.3l0.1-0.3c0,0.4-0.3,0.2-0.4,0.1c0,0.4-0.1,0.8-0.3,1.1
		c-6.6,1.5-10.3,6.1-10.3,12.8c0,0-1.3,4.1-1.3,4.2l-0.4-0.4c0.7-2.1,1.3-4.2,1.8-6.3c-0.8,1.7-1.5,3.5-2.3,5.2
		c0,0.2-0.1,0.3-0.2,0.4l-0.3-0.3l-4.5-0.9c-4.6,2.2-7.8,5.7-9.4,10.6c2.7,4.3,6.4,8.4,10.6,11.7c0.5,2.1,1.9,6.3,1.2,8.7
		c0,3.3-1.6,6.9-2.3,10.1c0.2,0.3,0,1.3-0.1,1.7c-4.4,5.9-5.6,12.7-6.5,20.2l1.2,0.2l-1.3,3.9c-0.3-0.1-0.5-0.2-0.8-0.2l-0.4,2.8
		h-0.2c0.1,0.2,0.2,0.4,0.1,0.7c3.4,0.3,6.7,0.9,10.1,1.2l0,0c2.4,0.6,4.7,0.3,6.9-0.7l-0.5-1.2c-1.4,0-2.7-0.2-4.1-0.6
		c-1.1-1.2-2.6-2.1-4.2-2.6l-0.1,0.1l0.2-2.3l0.4,0c1.9-5.6,3.9-10.6,5.3-16.3c0-0.1,0.6-0.7,0.6-0.7c2.2-4.8,4-9.8,6-14.7
		c-1.1,1.5,6.4,8.8,6.1,11.1c-0.5,5.9,0.2,11.8,1.8,17.5h1.4l0.8,4.2c-0.3,0-0.6,0-0.8,0.2l1,2.7l-0.2,0.1c0.2,0.2,0.4,0.3,0.5,0.6
		c3.3-1,6.5-1.7,9.7-2.7l0,0c2.4-0.3,4.4-1.4,5.9-3.3L-235.1,326.5z M-249.5,264.8c0.5,1.4,0.7,2.7,0.7,4c-0.3-0.3-0.6-0.4-0.9-0.4
		l-0.1-0.1c0.1-0.4,0.2-0.8,0.4-1.2h-0.1l0.1-0.3h-0.8c0.2-1,0.3-2.1,0.5-3.1C-249.7,264-249.6,264.3-249.5,264.8
		C-249,266.1-249.6,264.3-249.5,264.8z"/>
	<g>
		<path class="st27" d="M-249.5,333.8l0.4,0.8c2.2-0.5,4.3-1.4,6.2-2.5C-245.2,332.4-247.4,332.9-249.5,333.8z"/>
		<path class="st27" d="M-234,327.8c-1.9,2.1-4.5,3.4-7.3,3.9l0.1,0.2c2.8-0.5,5.5-1.7,7.5-3.6L-234,327.8z"/>
		<path class="st27" d="M-281.1,335.4l-0.1,0.9c2.3,0.4,4.6,0.4,6.9,0.1C-276.5,335.8-278.8,335.4-281.1,335.4z"/>
		<path class="st27" d="M-266.4,336.8c-2-0.2-3.9-0.3-5.9-0.3v0.2c2.9,0.7,5.8,0.5,8.5-0.4l0.1-0.6
			C-264.2,335.8-265.8,336.8-266.4,336.8z"/>
	</g>
</g>
<linearGradient id="SVGID_27_" gradientUnits="userSpaceOnUse" x1="-225.5033" y1="606.9345" x2="-406.0033" y2="428.4345" gradientTransform="matrix(1 0 0 -1 0 799)">
	<stop  offset="0" style="stop-color:#00C962"/>
	<stop  offset="1" style="stop-color:#006C44"/>
</linearGradient>
<path class="st28" d="M-234.1,337l-5.1-2.2c-0.5-0.2-1.1,0-1.3,0.5s0,1.1,0.5,1.3l0.7,0.3h-144.9V217.7l0.3,0.7
	c0.2,0.4,0.5,0.6,0.9,0.6c0.1,0,0.3,0,0.4-0.1c0.5-0.2,0.7-0.8,0.5-1.3l-2.2-5.1c-0.2-0.4-0.5-0.6-0.9-0.6s-0.8,0.2-0.9,0.6
	l-2.2,5.1c-0.2,0.5,0,1.1,0.5,1.3s1.1,0,1.3-0.5l0.3-0.7v119.2h-4.5l0.7-0.3c0.5-0.2,0.7-0.8,0.5-1.3s-0.8-0.7-1.3-0.5l-5.1,2.2
	c-0.4,0.2-0.6,0.5-0.6,0.9s0.2,0.8,0.6,0.9l5.1,2.2c0.1,0.1,0.3,0.1,0.4,0.1c0.4,0,0.8-0.2,0.9-0.6c0.2-0.5,0-1.1-0.5-1.3l-0.7-0.3
	h4.5v4.8l-0.3-0.7c-0.2-0.5-0.8-0.7-1.3-0.5s-0.7,0.8-0.5,1.3l2.2,5.1c0.2,0.4,0.5,0.6,0.9,0.6s0.8-0.2,0.9-0.6l2.2-5.1
	c0.2-0.5,0-1.1-0.5-1.3c-0.5-0.2-1.1,0-1.3,0.5l-0.3,0.7V339h144.9l-0.7,0.3c-0.5,0.2-0.7,0.8-0.5,1.3c0.2,0.4,0.5,0.6,0.9,0.6
	c0.1,0,0.3,0,0.4-0.1l5.1-2.2c0.4-0.2,0.6-0.5,0.6-0.9S-233.7,337.3-234.1,337z"/>
<g>
	<path class="st29" d="M-225.6,247.4c0.4,0.2,0.7,0.7,0.6,1.2c0,0.4-0.3,0.9-0.6,1.1c-0.3,0.2-0.7,0.3-1,0.2c-0.1,0-0.3,0-0.4-0.2
		c-0.1-0.1-0.5-0.5-0.5-1.4C-227.4,247.3-226.3,247.1-225.6,247.4z"/>
	<path class="st29" d="M-229.9,246.1c-0.6-0.1-1.3,0.2-1.6,0.8c-0.2,0.5-0.1,1.1,0.2,1.6c0.3,0.4,0.7,0.6,1.2,0.7
		c0.2,0,0.4,0.1,0.5,0c0.1,0,0.8-0.3,1.2-1.1C-228,247.2-229,246.3-229.9,246.1z"/>
</g>
<path class="st29" d="M-229.2,239.5c1,0.2,2,0.9,2.2,2c0.1,0.8-0.2,1.8-0.9,2.4c-0.6,0.6-1.4,0.7-2.3,0.8c-0.3,0-0.7,0-0.9-0.1
	c-0.2-0.1-1.3-0.7-1.6-2.3C-233.1,240.3-230.8,239.3-229.2,239.5z"/>
</svg>
