<?xml version="1.0" encoding="utf-8"?>
<!-- Generator: Adobe Illustrator 22.1.0, SVG Export Plug-In . SVG Version: 6.00 Build 0)  -->
<svg version="1.1" id="Layer_1" xmlns="http://www.w3.org/2000/svg" xmlns:xlink="http://www.w3.org/1999/xlink" x="0px" y="0px"
	 viewBox="0 0 612 455" style="enable-background:new 0 0 612 455;" xml:space="preserve">
<style type="text/css">
	.st0{fill:#102319;}
</style>
<g>
	<g>
		<path class="st0" d="M607,195c-1.4,0.5-2.9,0.9-4.2,1.6c-12.9,7-26.8,11.7-40.4,17.1c-10.8,4.4-21.6,8.7-31.3,15.3
			c-4.3,2.9-8.2,6.2-11.1,10.6c-0.7,1.1-1.3,2.2-2.1,3.6c2.5,1.6,4.9,0.6,6.7-0.3c3.9-2,8-2,12.2-1.9c10.3,0.4,19.9,3,28.9,7.9
			c0.4,0.2,0.8,0.5,1.9,1.3c-1.7,0.5-2.5,0.8-3.3,0.9c-3.9,0.5-7.9,0.6-11.8,1.4c-3.8,0.8-7.5,0.8-11.4,0.1
			c-8.1-1.4-16-0.3-23.4,2.9c-5.2,2.3-8.7,6.8-10.5,12.1c-6.2,17.9-10.3,36.3-14,54.9c-0.3,1.6-0.4,3.3-0.6,5.3
			c1.5,0.7,3.1,1.4,4.8,2.1c1.7,0.8,3.4,1.4,4.9,2.4c2.1,1.3,3.1,3.9,2.4,6.1c-2.9,8.9-3.4,18.2-3.8,27.4c-0.2,5-1,9.9-1.6,14.8
			c-0.1,0.7-0.3,1.3-0.3,2c-0.4,6.5-0.7,12.9-1,19.4c-0.3,5.3-0.3,10.6-1.1,15.9c-0.9,6-4,10.4-9.6,13.5c-4.5,2.5-9.1,4.1-13.9,5
			c-8.1,1.5-16.3,2.4-24.7,1.2c-4.6-0.6-9.1-1.6-13.6-2.5c-5.6-1.2-10.3-3.8-13.9-8.2c-2.1-2.5-2.8-5.6-3.1-8.8
			c-0.9-8.1-1.9-16.1-2.9-24.2c-1.1-8.7-1.9-17.5-3.3-26.2c-0.8-4.9-0.5-9.9-2.9-14.6c-1.4-2.8-2-5.9-2.8-9
			c-0.6-2.3-0.5-4.7,1.6-6.4c1.5-1.3,3-2.6,4.8-3.6c2.9-1.6,5.9-3,9.5-4.7c-2.6-0.8-4.7-1.4-7.3-2.2c4.3-3.7,9.5-3.1,14.2-5.4
			c-0.1-1.3-0.3-2.9-0.4-4.3c-4.2-1.2-5.8,1.7-7.7,4.3c-4.1-4.1-4.5-9.2-5.4-14.1c1.8-4.8,6.4-1.6,9.2-3.4c-0.5-4-2.1-6.9-6-8.9
			c-3.5-1.7-6.3-4.8-9.7-7.6c-11.5,5.3-23,11.7-36.6,13.9c0.2-1.1,0-2.2,0.5-2.8c7.1-9.2,14.7-17.7,26.3-21.2
			c0.5-0.1,0.9-0.5,1.7-0.9c-0.9-1.3-1.8-2.6-2.8-4c4.7-2.8,9.4,1.7,14.2-0.9c-1-2-2-4-3.1-5.9c-5.3-9.5-11.3-18.4-18.8-26.3
			c-3.9-4.2-8.9-6.6-14-8.3c-9.6-3.2-19.6-5.2-29.8-5.5c-5.1-0.2-10.3-0.4-15.4-1c-3.2-0.4-6.3-1.6-9.5-2.9c2.5-1.9,5.2-2.9,8-3.1
			c7.6-0.5,15.2-0.7,22.9-1c7.5-0.3,14.9,0.4,21.9,4c-2.4-6.9-3.8-8.4-10.4-7.8c-9,0.8-16.6-2.2-24-6.7c-0.6-0.4-1.2-0.9-2.5-1.9
			c1.8-0.2,2.8-0.5,3.6-0.4c4.6,0.9,9.1,2,13.6,2.7c4.9,0.8,9.8,1.5,14.8,1.8c3.9,0.3,7.5,1.5,10.9,3.3c2.3,1.2,4.6,1.8,7.1,2
			c5.3,0.4,10.5,1.1,16,1.7c2.6-5.7,4.4-12.1,11.1-14.9c-3.7-4.8-9.2-5.5-14.2-6.7c-10.8-2.4-21.8-4.4-32.7-6.4
			c-1.4-0.3-2.9-0.1-4.4,0c-6,0.5-12,0.4-17.4-2.8c-2.7-1.5-3.4-2.4-4.8-5.8c1.1,0.1,2,0.2,2.9,0.2c4.5,0.1,9,0.6,13.4,0.3
			c10.3-0.7,20.3-3.4,30.5-4.4c8.9-0.9,18-1.4,26.8,0.6c2.9,0.6,5.6,2,8.4,3.1c0.7,1.5,1.3,3,2,4.6c0.3-2.1-0.3-3.6-2-4.5
			c-2.1-5-4.4-10-6.1-15.2c-1.3-4.1-1.9-8.4-1.4-12.7c0.1-0.8,0.1-1.7-0.1-2.4c-3.2-8.6-6.4-17.1-9.8-25.6c-1-2.4-1.9-4.9-5.3-5.4
			c-1.3-0.2-2.2-2.3-3.6-3.2c-8.2-5.4-16.3-10.9-24.8-15.9c-5.9-3.4-12.4-5.6-19.1-7c-6.7-1.3-13.1-3.8-19.8-4.7
			c-5.6-0.8-9.1-3.2-12.1-7.9c-6.5-9.9-12.7-19.9-15.8-31.5c-0.3-1.3-0.8-2.6-0.9-3.9c-0.5-4.4,0.2-5.3,4.3-7.1
			c5.6-2.5,11.4-3.6,17.5-2c0.9,0.2,2,0.3,3,0.1c7.6-1.7,15.2,0.6,22.8,0.3c2.6-0.1,5.3,0.5,7.8,1.3c10.5,3.2,21.1,6.2,30.7,11.6
			c8.1,4.6,15.6,9.9,20.2,18.1c6.5,11.5,9,23.8,4.9,36.9c-1,3.2-2.9,5.6-5.4,7.6c-2.6,2-3.4,4.3-2,7.4c1.1,2.6,1.9,5.3,3,7.9
			c1.7,4.1,3.5,8.2,5.7,13.2c0.6-3,1.2-5.1,1.3-7.2c0.3-6.7,2.2-12.9,5.9-18.3c4.4-6.4,8.5-13.1,14.4-18.4
			c7.4-6.8,15.6-12.3,24.4-17.1c3.6,0.8,4.3,4.7,7,6.6c2.3-4.1,1.7-10.5,8.4-10.7c2.7,2.5,4,5.4,5.3,8.5c2.9,6.9,6.3,13.5,11.8,18.9
			c4.6,4.5,8.6,9.7,12.8,14.6c1.1,1.2,2.1,2.5,3.6,4.4c1.1-3,2-5.4,3-8.1c-3.7-2.9-7.1-5.8-10.6-8.4c-2.5-1.9-4.4-4-4.8-7.2
			c-0.1-0.5-0.1-1.1-0.3-1.4c-3.2-4.6-2.5-9.8-2.7-15c-0.3-7.1-0.9-14.2-1.3-21.4c-0.1-0.9,0.3-1.9,0.4-2.8c0.3-1.7,0.6-3.4,1-6
			c4.9-3.8,10,0.3,15.4,1.7c0.9-0.8,2-1.6,2.9-2.5c9.7-10.5,21.8-17.3,35-22.4c8.7-3.3,17.3-6.8,26-10c7.3-2.6,14.8-4.9,22.2-7.3
			c1.5-0.5,3.1-0.5,5.2-0.9c0,1.6,0.2,2.7-0.1,3.7c-0.4,1.4-1.3,2.7-1.6,4.1c-1.4,6.2-5.1,10.8-9.8,14.6
			c-6.5,5.2-13.4,9.9-19.7,15.3c-7.1,6.2-15.2,11.3-21.3,18.7c-2.5,3-5.4,5.8-8.4,8.4c-5,4.4-8,10.1-11.1,15.8
			c-1.3,2.3-3.1,4.4-4.1,6.8c-3.4,7.9-8.7,14.8-11,23.3c-1.3,4.7-1.8,9,0.6,13.4c1.2,2.2,1.9,4.6,2.8,6.9c2.1,4.9,3.1,10.2,3.6,15.5
			c0.3,2.8,1.1,4.7,3.5,6.1c0.4,0.2,0.5,0.8,0.9,1.4c-0.5,0.8-1.1,1.6-1.5,2.4c-1.1,2.2-2.8,4.3-3.2,6.6c-0.6,4.2-1.8,8.1-3.3,12
			c-0.2,0.4,0,0.9,0,1.9c2.1-0.6,4.5-0.7,6.1-1.9c3-2.3,6.4-2.5,9.8-3.2c5.8-1.3,11.2-1.3,17.1-0.2c5.5,1.1,11.2,2.6,17.2,1.1
			c3.1-0.8,6.8,0.6,10.4,1.7c-0.6,0.3-1.2,0.7-1.8,0.9c-0.6,0.2-1.3,0.1-2,0.1c-15.5-1.7-29.9,3.1-44.4,7.2
			c-6.1,1.8-12,3.9-17.4,7.4c-7,4.5-12,10.9-16.4,17.9c-2.6,4.1-3.8,8.2-3.9,13.1c-0.1,5.4-1,10.9-1.6,16.3
			c-0.1,0.8-0.1,1.7-0.2,2.5c-0.6,8.8-1.3,17.5-1.9,26.3c-0.3,4.6-0.5,9.3-0.7,13.9c0,0.2,0.4,0.5,0.6,0.8c2.2-0.2,3.5-1.5,4.3-3.5
			c3.5-8.8,7-17.6,10.6-26.4c0.6-1.6,0.7-3.1,0.1-4.8c-1.1-2.6-1.9-5.3-2.8-8.1c2-2.4,4.8-3.4,7.8-3.8c2.9-0.4,4.8-2,6-4.7
			c0.8-1.8,1-3.4,0.1-5.2c-2-4-1.3-7.4,1.4-11.1c2.1-2.9,3.5-6.4,4.5-9.9c1.7-5.9,5.2-9.9,10.7-12.4c2.4-1.1,4.7-2.5,7.2-3.5
			c4.7-2,9.6-2.5,14.7-2.2c4,0.2,7.9-0.7,11.8-1.5c5.8-1.2,11.8-2,17.7-2.3c7.6-0.4,15.3-0.1,23-0.1C607,192.3,607,193.7,607,195z
			 M402.8,229.3c-6.8-3.1-13.7-4.4-20.8-4.1c6.1,2.1,10.2,5.8,12,12.2c0.5,1.9,1.3,3.7,2.4,5.3c4.5,6.6,9.3,13,13.8,19.5
			c2.1,3,3.8,6.2,5.4,8.9c5,0.8,9.5,1.5,14,2.2c-0.1-0.5-0.1-0.9-0.2-1.4c-3.2-9.3-7.1-18.3-12.1-26.8c-1.6-2.8-2.7-6.2-5.8-7.7
			c-2.2,0.8-3,4-6.4,3.2C404.4,237.2,403.7,233.5,402.8,229.3z M427.1,220.7c-4.2,5.3-9.5,9.3-9.6,16.8c1.4,2.5,2.9,5.2,4.3,8
			c3.2,6.5,6.4,13.1,9.4,19.7c1.7,3.8,3.1,7.7,4.7,11.5c0.6,1.4,1.5,2.7,3.9,1.6c-0.3-2.6-0.7-5.3-0.8-8.1
			c-0.4-6.3-0.7-12.6-1.1-18.8c0-0.7-0.1-1.3-0.3-2C435.1,239.8,431.5,230.4,427.1,220.7z M476.9,229c0-4,0.1-7.5,0-10.9
			c-0.2-3.6-0.5-7.3-1.1-10.9c-0.3-1.7-1.1-3.7-2.3-4.8c-2.8-2.6-5.7-5.1-9.5-6.1c-2.9,1.3-5.8,2.6-8.8,4c-0.3,8.8-1,17.5,0.1,26.5
			c4.6-1.9,8.9-3.6,13.3-5.4C471.4,223.2,472.3,227.4,476.9,229z M461,184.4c1.1,0.9,1.9,1.7,2.8,2.4c0.9,0.8,1.8,1.5,2.7,2.3
			c2.4,2.1,5.8,2.6,8.7,1.1c2.5-1.3,4.9-2.7,7.8-4.3c-2-12-2.6-24.3-4.9-37.5C470.9,160.6,465.3,172.1,461,184.4z M466.7,288.3
			c1.6-5.5,3.3-11,4.8-16.6c0.3-0.9,0.4-2.1,0.1-2.9c-1.3-3.3-2.8-6.6-4.4-10.1c-2.7,0.8-4.8,1.5-7.4,2.3
			C460.6,270.7,463.5,279.5,466.7,288.3z M479.5,208.1c0.6,9.8,1.1,18.9,1.6,28.2c1.2-0.5,2.2-0.9,3.2-1.2
			c0.6-3.9-0.3-25.8-1.3-29.7C481.7,206.4,480.5,207.4,479.5,208.1z M468.8,304.9c4.9-1,6.3-3.4,6.3-7.3c-0.1-3.8,0.6-7.6,0.7-11.4
			c0.2-3.8,0.5-7.7-0.5-11.6C472.3,284.3,469.6,294.1,468.8,304.9z M451.2,233c0-10.2,0-20.4,0-30.6c-2.6,0.4-3.6,1.2-3.9,3.8
			c-0.5,3.4-0.7,6.9-1.1,10.3C445.6,222.6,448.2,227.8,451.2,233z M460,275.8c-2,14.3-1.6,24.6,0.7,28.8c1.7-3,3.2-6,2.8-9.4
			C462.5,288.6,461.1,282.2,460,275.8z M473.5,119.1c-2.5,3.4-4.5,6.1-6.4,8.8c3.7,5.9,3.8,6,9,8.7c-0.4-3-0.8-5.7-1.2-8.4
			C474.5,125.3,474.1,122.6,473.5,119.1z M435.5,308c1-3.7,0.1-6.8-1-9.9c-3.8-2.3-3.8-2.3-7.5-1.2c0.8,2.8,1.5,5.6,2.3,8.4
			C431.3,306.2,433.1,307,435.5,308z M456.5,284.4c1.6-13.1,1.3-19.1-1.1-23.7c0,7.6,0,15.1,0,22.7
			C455.4,283.8,456.1,284.1,456.5,284.4z M435,230.6c-0.5-5.5-0.2-11-2.5-16.7c-1.3,1.9-2.3,3.2-3.1,4.4
			C431.3,222.6,433.1,226.6,435,230.6z M446.1,229.7c0.9,7.7,1.6,14.4,2.4,21.1c0.1,0.5,0.3,1,0.5,1.4c0.1,0.3,0.3,0.6,0.6,1.1
			C450.6,245.3,450.1,237.8,446.1,229.7z M431.1,203.7c-1.4-4.9-2.5-8.8-3.6-12.8c-0.6,3.6-1.3,7.1-1.9,10.9
			C427.1,202.3,428.8,202.9,431.1,203.7z M437.4,324.4c-0.7-4-1-6.9-1.8-9.6c-0.5-1.7-1.8-2.2-3.6-0.6
			C433.4,317.3,433.3,321.1,437.4,324.4z M473.4,322.3c0.3-4.8,0.5-9.7,0.8-14.5C471.2,312.5,471,317.4,473.4,322.3z M429.3,282.8
			c1-0.8,1.8-1.4,2.6-2c-1.5-1.7-2.9-2-4.9-0.9C427.8,280.9,428.5,281.7,429.3,282.8z M456,303.4c0.3-0.1,0.7-0.1,1-0.2
			c-0.4-1.8-0.8-3.6-1.1-5.4c-0.3,0.1-0.7,0.1-1,0.2C455.3,299.7,455.6,301.6,456,303.4z M440.1,204c-2.5-0.7-2.5-0.7-2.7,1.5
			C438.3,205,439.1,204.6,440.1,204z"/>
	</g>
</g>
</svg>
