<?xml version="1.0" encoding="utf-8"?>
<!-- Generator: Adobe Illustrator 19.0.0, SVG Export Plug-In . SVG Version: 6.00 Build 0)  -->
<svg version="1.1" id="Layer_1" xmlns="http://www.w3.org/2000/svg" xmlns:xlink="http://www.w3.org/1999/xlink" x="0px" y="0px"
	 viewBox="-434 224.3 91 90.7" style="enable-background:new -434 224.3 91 90.7;" xml:space="preserve">
<style type="text/css">
	.st0{fill:#EBFFFC;}
</style>
<g>
	<g>
		<path class="st0" d="M-372.8,257c-1-0.5-2.3-0.1-2.8,0.9l-9.2,17.8c-0.5,1-0.1,2.3,0.9,2.8c0.3,0.2,0.6,0.2,1,0.2
			c0.8,0,1.5-0.4,1.9-1.1l9.2-17.8C-371.4,258.9-371.8,257.6-372.8,257z"/>
		<path class="st0" d="M-365.4,257.3c-0.9-0.8-2.2-0.7-3,0.2c-0.8,0.9-0.7,2.2,0.2,3l8.2,7.3l-8.2,7.3c-0.9,0.8-0.9,2.1-0.2,3
			c0.4,0.5,1,0.7,1.6,0.7c0.5,0,1-0.2,1.4-0.5l10-8.9c0.4-0.4,0.7-1,0.7-1.6c0-0.6-0.3-1.2-0.7-1.6L-365.4,257.3z"/>
		<path class="st0" d="M-387.9,257.5c-0.8-0.9-2.1-0.9-3-0.2l-10,8.9c-0.4,0.4-0.7,1-0.7,1.6c0,0.6,0.3,1.2,0.7,1.6l10,8.9
			c0.4,0.4,0.9,0.5,1.4,0.5c0.6,0,1.2-0.2,1.6-0.7c0.8-0.9,0.7-2.2-0.2-3l-8.2-7.3l8.2-7.3C-387.2,259.7-387.1,258.4-387.9,257.5z"
			/>
		<path class="st0" d="M-383,290.5c0-1.2-0.9-2.1-2.1-2.1h-13.2c-1.2,0-2.1,0.9-2.1,2.1c0,1.2,0.9,2.1,2.1,2.1h13.2
			C-383.9,292.6-383,291.7-383,290.5z"/>
		<path class="st0" d="M-378.1,288.4c-1.2,0-2.1,0.9-2.1,2.1c0,1.2,0.9,2.1,2.1,2.1h3.5c1.2,0,2.1-0.9,2.1-2.1
			c0-1.2-0.9-2.1-2.1-2.1H-378.1z"/>
		<path class="st0" d="M-356.6,288.4h-9.3c-1.2,0-2.1,0.9-2.1,2.1c0,1.2,0.9,2.1,2.1,2.1h9.3c1.2,0,2.1-0.9,2.1-2.1
			C-354.5,289.4-355.5,288.4-356.6,288.4z"/>
		<path class="st0" d="M-398.3,296.9c-1.2,0-2.1,0.9-2.1,2.1c0,1.2,0.9,2.1,2.1,2.1h3.3c1.2,0,2.1-0.9,2.1-2.1
			c0-1.2-0.9-2.1-2.1-2.1H-398.3z"/>
		<path class="st0" d="M-388.2,301.1h19.7c1.2,0,2.1-0.9,2.1-2.1c0-1.2-0.9-2.1-2.1-2.1h-19.7c-1.2,0-2.1,0.9-2.1,2.1
			C-390.3,300.1-389.3,301.1-388.2,301.1z"/>
		<path class="st0" d="M-356.6,296.9h-4.7c-1.2,0-2.1,0.9-2.1,2.1c0,1.2,0.9,2.1,2.1,2.1h4.7c1.2,0,2.1-0.9,2.1-2.1
			C-354.5,297.8-355.5,296.9-356.6,296.9z"/>
		<circle class="st0" cx="-400.2" cy="235.7" r="2.1"/>
		<circle class="st0" cx="-391.8" cy="235.7" r="2.1"/>
		<circle class="st0" cx="-383.4" cy="235.7" r="2.1"/>
		<path class="st0" d="M-345.5,224.6h-86.2c-1.2,0-2.1,0.9-2.1,2.1v11c0,1.2,0.9,2.1,2.1,2.1s2.1-0.9,2.1-2.1v-8.9h17.7v9.2
			c0,1.2,0.9,2.1,2.1,2.1c1.2,0,2.1-0.9,2.1-2.1v-9.2h60l0,76.2c0,3.2-2.6,5.8-5.8,5.8h-76.2V247h17.7v59.6c0,1.2,0.9,2.1,2.1,2.1
			c1.2,0,2.1-0.9,2.1-2.1V247h50.6c1.2,0,2.1-0.9,2.1-2.1s-0.9-2.1-2.1-2.1h-74.6c-1.2,0-2.1,0.9-2.1,2.1v68c0,1.2,0.9,2.1,2.1,2.1
			h78.3c5.5,0,10-4.5,10-10l0-78.3C-343.4,225.5-344.3,224.6-345.5,224.6z"/>
		<path class="st0" d="M-416,257.1c0-1.2-0.9-2.1-2.1-2.1h-5.7c-1.2,0-2.1,0.9-2.1,2.1c0,1.2,0.9,2.1,2.1,2.1h5.7
			C-417,259.2-416,258.2-416,257.1z"/>
		<path class="st0" d="M-423.8,262c-1.2,0-2.1,0.9-2.1,2.1c0,1.2,0.9,2.1,2.1,2.1h2.3c1.2,0,2.1-0.9,2.1-2.1s-0.9-2.1-2.1-2.1
			H-423.8z"/>
	</g>
</g>
</svg>
