<?xml version="1.0" encoding="utf-8"?>
<!-- Generator: Adobe Illustrator 19.0.0, SVG Export Plug-In . SVG Version: 6.00 Build 0)  -->
<svg version="1.1" id="Layer_1" xmlns="http://www.w3.org/2000/svg" xmlns:xlink="http://www.w3.org/1999/xlink" x="0px" y="0px"
	 viewBox="0 0 960 960" style="enable-background:new 0 0 960 960;" xml:space="preserve">
<style type="text/css">
	.st0{fill:#FFFFFF;}
</style>
<path id="XMLID_1_" class="st0" d="M480,30.4c60.7,0,119.6,11.9,175,35.3c53.5,22.6,101.6,55.1,142.9,96.4
	c41.3,41.3,73.7,89.4,96.4,142.9c23.4,55.4,35.3,114.3,35.3,175s-11.9,119.6-35.3,175c-22.6,53.5-55.1,101.6-96.4,142.9
	c-41.3,41.3-89.4,73.7-142.9,96.4c-55.4,23.4-114.3,35.3-175,35.3s-119.6-11.9-175-35.3c-53.5-22.6-101.6-55.1-142.9-96.4
	c-41.3-41.3-73.7-89.4-96.4-142.9c-23.4-55.4-35.3-114.3-35.3-175s11.9-119.6,35.3-175c22.6-53.5,55.1-101.6,96.4-142.9
	c41.3-41.3,89.4-73.7,142.9-96.4C360.4,42.3,419.3,30.4,480,30.4 M480,10.4C220.7,10.4,10.4,220.7,10.4,480S220.7,949.6,480,949.6
	S949.6,739.3,949.6,480S739.3,10.4,480,10.4L480,10.4z"/>
<g id="XMLID_2_">
	<path id="XMLID_4_" class="st0" d="M255.2,658.6V475.7l107-174.3h96.6l-85.6,163.3h85.6v193.9H255.2z M501.7,658.6V475.7
		l108.9-174.3h94.2L621,464.7h83.8v193.9H501.7z"/>
</g>
</svg>
