<?xml version="1.0" encoding="utf-8"?>
<!-- Generator: Adobe Illustrator 19.0.0, SVG Export Plug-In . SVG Version: 6.00 Build 0)  -->
<svg version="1.1" id="Layer_2_1_" xmlns="http://www.w3.org/2000/svg" xmlns:xlink="http://www.w3.org/1999/xlink" x="0px" y="0px"
	 viewBox="-399 401.7 159.3 159.3" style="enable-background:new -399 401.7 159.3 159.3;" xml:space="preserve">
<style type="text/css">
	.st0{fill:url(#SVGID_1_);}
	.st1{fill:url(#SVGID_2_);}
	.st2{fill:url(#SVGID_3_);}
	.st3{fill:url(#SVGID_4_);}
	.st4{fill:url(#SVGID_5_);}
	.st5{fill:url(#SVGID_6_);}
	.st6{fill:url(#SVGID_7_);}
	.st7{fill:url(#SVGID_8_);}
	.st8{fill:url(#SVGID_9_);}
	.st9{fill:url(#SVGID_10_);}
	.st10{fill:url(#SVGID_11_);}
	.st11{fill:url(#SVGID_12_);}
	.st12{fill:url(#SVGID_13_);}
	.st13{fill:url(#SVGID_14_);}
	.st14{fill:url(#SVGID_15_);}
	.st15{fill:url(#SVGID_16_);}
	.st16{fill:#EBFFFC;}
</style>
<g>
	
		<radialGradient id="SVGID_1_" cx="-319.6" cy="484.05" r="64.3" gradientTransform="matrix(1 0 0 -1 0 965.4)" gradientUnits="userSpaceOnUse">
		<stop  offset="0" style="stop-color:#EBFFFC"/>
		<stop  offset="0.9624" style="stop-color:#BBBDCC"/>
		<stop  offset="1" style="stop-color:#BDBFCE"/>
	</radialGradient>
	<circle class="st0" cx="-319.6" cy="481.4" r="64.3"/>
	<g>
		
			<linearGradient id="SVGID_2_" gradientUnits="userSpaceOnUse" x1="-318.976" y1="495.2639" x2="-300.0231" y2="462.4367" gradientTransform="matrix(1 0 0 -1 0 965.4)">
			<stop  offset="0" style="stop-color:#9D1C1F"/>
			<stop  offset="1" style="stop-color:#240808"/>
		</linearGradient>
		<path class="st1" d="M-319,503c3.1,0.3,6.3,0.4,9.5,0.4c3.2,0,6.4-0.1,9.5-0.4c1.7-2.5,3.4-5.2,5.1-8c1.6-2.8,3-5.6,4.4-8.4
			c-1.3-2.8-2.8-5.6-4.4-8.4c-1.6-2.8-3.3-5.5-5.1-8c-3.1-0.3-6.3-0.4-9.5-0.4c-3.2,0-6.4,0.1-9.5,0.4c-1.7,2.5-3.4,5.2-5.1,8
			c-1.6,2.8-3.1,5.6-4.4,8.4c1.3,2.8,2.8,5.6,4.4,8.4C-322.4,497.8-320.7,500.5-319,503z M-309.5,476.9c5.3,0,9.6,4.3,9.6,9.6
			c0,5.3-4.3,9.6-9.6,9.6s-9.6-4.3-9.6-9.6C-319.1,481.2-314.8,476.9-309.5,476.9z"/>
		
			<linearGradient id="SVGID_3_" gradientUnits="userSpaceOnUse" x1="-350.1981" y1="536.265" x2="-289.7724" y2="431.6047" gradientTransform="matrix(1 0 0 -1 0 965.4)">
			<stop  offset="0" style="stop-color:#9D1C1F"/>
			<stop  offset="1" style="stop-color:#240808"/>
		</linearGradient>
		<path class="st2" d="M-288.4,532.5c-5.8,0-13.4-4.1-21-11.2c-7.7,7.1-15.2,11.3-21,11.3c-1.7,0-3.3-0.4-4.7-1.2
			c-5.9-3.4-7.3-14.1-4.2-27.4c-13.1-4-21.7-10.5-21.7-17.3s8.5-13.3,21.6-17.3c-3.1-13.4-1.7-24,4.2-27.4c1.4-0.8,3-1.2,4.8-1.2
			l0,0c5.8,0,13.4,4.1,21,11.2c7.7-7.1,15.2-11.3,21-11.3l0,0c1.7,0,3.3,0.4,4.7,1.2c5.9,3.4,7.3,14.1,4.2,27.4
			c9.6,2.9,16.7,7.2,19.9,11.9c-0.1-33.2-27.1-60.1-60.4-60.1s-60.4,27-60.4,60.4c0,33.4,27,60.4,60.4,60.4
			c11.9,0,22.9-3.4,32.3-9.3C-288,532.4-288.2,532.5-288.4,532.5z"/>
		
			<linearGradient id="SVGID_4_" gradientUnits="userSpaceOnUse" x1="-330.9006" y1="494.6239" x2="-326.548" y2="487.085" gradientTransform="matrix(1 0 0 -1 0 965.4)">
			<stop  offset="0" style="stop-color:#9D1C1F"/>
			<stop  offset="1" style="stop-color:#240808"/>
		</linearGradient>
		<path class="st3" d="M-325.1,470.8c-3,0.4-5.9,1-8.7,1.7c0.8,2.7,1.8,5.6,2.9,8.4c0.8-1.7,1.8-3.4,2.7-5.1
			C-327.2,474-326.2,472.5-325.1,470.8z"/>
		
			<linearGradient id="SVGID_5_" gradientUnits="userSpaceOnUse" x1="-292.4242" y1="470.7534" x2="-288.0716" y2="463.2146" gradientTransform="matrix(1 0 0 -1 0 965.4)">
			<stop  offset="0" style="stop-color:#9D1C1F"/>
			<stop  offset="1" style="stop-color:#240808"/>
		</linearGradient>
		<path class="st4" d="M-288.1,492.2c-0.8,1.7-1.8,3.4-2.7,5.1c-1,1.7-2,3.3-3,5c3-0.4,5.9-1,8.7-1.7
			C-286,497.9-287,495-288.1,492.2z"/>
		
			<linearGradient id="SVGID_6_" gradientUnits="userSpaceOnUse" x1="-333.7371" y1="471.512" x2="-327.9664" y2="461.5169" gradientTransform="matrix(1 0 0 -1 0 965.4)">
			<stop  offset="0" style="stop-color:#9D1C1F"/>
			<stop  offset="1" style="stop-color:#240808"/>
		</linearGradient>
		<path class="st5" d="M-325.1,502.3c-1-1.6-2.1-3.3-3-4.9c-1-1.7-1.9-3.4-2.8-5.1c-1.1,2.8-2.1,5.6-2.8,8.3
			C-331,501.3-328.1,501.8-325.1,502.3z"/>
		
			<linearGradient id="SVGID_7_" gradientUnits="userSpaceOnUse" x1="-291.0557" y1="496.2213" x2="-285.285" y2="486.2263" gradientTransform="matrix(1 0 0 -1 0 965.4)">
			<stop  offset="0" style="stop-color:#9D1C1F"/>
			<stop  offset="1" style="stop-color:#240808"/>
		</linearGradient>
		<path class="st6" d="M-293.9,470.9c1,1.6,2.1,3.2,3,4.9c1,1.7,1.9,3.4,2.8,5.1c1.1-2.8,2.1-5.6,2.8-8.3
			C-288,471.9-290.9,471.3-293.9,470.9z"/>
		
			<linearGradient id="SVGID_8_" gradientUnits="userSpaceOnUse" x1="-297.121" y1="517.2337" x2="-285.3102" y2="496.7767" gradientTransform="matrix(1 0 0 -1 0 965.4)">
			<stop  offset="0" style="stop-color:#9D1C1F"/>
			<stop  offset="1" style="stop-color:#240808"/>
		</linearGradient>
		<path class="st7" d="M-306.2,455c3,3.1,5.9,6.6,8.7,10.5c4.7,0.5,9.2,1.3,13.4,2.3c0.4-2.1,0.8-4.2,1.1-6.2c1-8-0.3-14.3-3.1-15.9
			c-0.6-0.3-1.4-0.5-2.4-0.5l0,0C-292.9,445.3-299.4,448.8-306.2,455z"/>
		
			<linearGradient id="SVGID_9_" gradientUnits="userSpaceOnUse" x1="-281.946" y1="490.9306" x2="-270.1514" y2="470.5018" gradientTransform="matrix(1 0 0 -1 0 965.4)">
			<stop  offset="0" style="stop-color:#9D1C1F"/>
			<stop  offset="1" style="stop-color:#240808"/>
		</linearGradient>
		<path class="st8" d="M-262.5,486.5c0-3.3-4.8-7.5-12.3-10.7c-1.8-0.8-3.8-1.5-5.9-2.1c-1.2,4.1-2.7,8.4-4.7,12.8
			c1.9,4.4,3.5,8.7,4.7,12.8c2-0.7,4-1.3,5.8-2.1C-267.4,494-262.5,489.9-262.5,486.5z"/>
		
			<linearGradient id="SVGID_10_" gradientUnits="userSpaceOnUse" x1="-297.4128" y1="458.0426" x2="-285.9867" y2="438.2519" gradientTransform="matrix(1 0 0 -1 0 965.4)">
			<stop  offset="0" style="stop-color:#9D1C1F"/>
			<stop  offset="1" style="stop-color:#240808"/>
		</linearGradient>
		<path class="st9" d="M-286,527.2c2.8-1.7,4-7.9,3.1-16c-0.2-1.9-0.6-4-1.1-6.1c-4.1,1-8.6,1.8-13.4,2.3c-2.8,3.9-5.7,7.4-8.7,10.5
			c6.9,6.3,13.3,9.8,17.7,9.8C-287.5,527.8-286.6,527.5-286,527.2z"/>
		
			<linearGradient id="SVGID_11_" gradientUnits="userSpaceOnUse" x1="-312.517" y1="505.3023" x2="-308.1325" y2="497.7081" gradientTransform="matrix(1 0 0 -1 0 965.4)">
			<stop  offset="0" style="stop-color:#9D1C1F"/>
			<stop  offset="1" style="stop-color:#240808"/>
		</linearGradient>
		<path class="st10" d="M-315.4,465.2c1.9-0.1,3.9-0.1,5.8-0.1c2,0,3.9,0.1,5.8,0.1c-1.9-2.5-3.9-4.7-5.8-6.7
			C-311.5,460.5-313.4,462.7-315.4,465.2z"/>
		
			<linearGradient id="SVGID_12_" gradientUnits="userSpaceOnUse" x1="-275.0795" y1="464.0881" x2="-265.4666" y2="447.4381" gradientTransform="matrix(1 0 0 -1 0 965.4)">
			<stop  offset="0" style="stop-color:#9D1C1F"/>
			<stop  offset="1" style="stop-color:#240808"/>
		</linearGradient>
		<path class="st11" d="M-279.4,503.9c2.1,9.1,2.1,17,0,22.2c9.3-8.4,15.9-19.7,18.5-32.4C-264.5,497.7-271,501.3-279.4,503.9z"/>
		
			<linearGradient id="SVGID_13_" gradientUnits="userSpaceOnUse" x1="-333.7206" y1="460.9886" x2="-321.915" y2="440.541" gradientTransform="matrix(1 0 0 -1 0 965.4)">
			<stop  offset="0" style="stop-color:#9D1C1F"/>
			<stop  offset="1" style="stop-color:#240808"/>
		</linearGradient>
		<path class="st12" d="M-332.9,527.3c0.6,0.3,1.4,0.5,2.3,0.6c4.4,0,10.8-3.5,17.7-9.9c-3-3.1-5.9-6.6-8.7-10.5
			c-4.7-0.5-9.2-1.3-13.4-2.3c-0.4,2.1-0.8,4.2-1.1,6.2C-337,519.4-335.7,525.7-332.9,527.3z"/>
		
			<linearGradient id="SVGID_14_" gradientUnits="userSpaceOnUse" x1="-310.9357" y1="460.0367" x2="-306.5512" y2="452.4425" gradientTransform="matrix(1 0 0 -1 0 965.4)">
			<stop  offset="0" style="stop-color:#9D1C1F"/>
			<stop  offset="1" style="stop-color:#240808"/>
		</linearGradient>
		<path class="st13" d="M-303.7,507.9c-1.9,0.1-3.9,0.1-5.8,0.1c-2,0-3.9-0.1-5.8-0.1c1.9,2.5,3.9,4.7,5.8,6.7
			C-307.5,512.7-305.5,510.4-303.7,507.9z"/>
		
			<linearGradient id="SVGID_15_" gradientUnits="userSpaceOnUse" x1="-333.0108" y1="519.5438" x2="-321.5872" y2="499.7574" gradientTransform="matrix(1 0 0 -1 0 965.4)">
			<stop  offset="0" style="stop-color:#9D1C1F"/>
			<stop  offset="1" style="stop-color:#240808"/>
		</linearGradient>
		<path class="st14" d="M-330.6,445.4c-1,0-1.8,0.2-2.4,0.5c-2.8,1.7-4,7.9-3.1,16c0.3,2,0.6,4,1.1,6.1c4.1-1,8.6-1.8,13.4-2.3
			c2.8-3.9,5.7-7.4,8.7-10.5C-319.7,448.8-326.2,445.3-330.6,445.4L-330.6,445.4z"/>
		
			<linearGradient id="SVGID_16_" gradientUnits="userSpaceOnUse" x1="-348.8817" y1="487.2351" x2="-337.0821" y2="466.7977" gradientTransform="matrix(1 0 0 -1 0 965.4)">
			<stop  offset="0" style="stop-color:#9D1C1F"/>
			<stop  offset="1" style="stop-color:#240808"/>
		</linearGradient>
		<path class="st15" d="M-344.2,475.9c-7.5,3.1-12.3,7.3-12.3,10.7s4.8,7.5,12.3,10.7c1.8,0.8,3.8,1.5,5.9,2.1
			c1.2-4.1,2.7-8.4,4.7-12.8c-1.9-4.4-3.5-8.7-4.7-12.8C-340.4,474.4-342.4,475-344.2,475.9z"/>
	</g>
</g>
<g>
	<path class="st16" d="M-365.9,473.4c-0.3,0.1-0.4,0.1-1.3,0l-1.6-0.2c-1-0.1-1.4,0.2-1.5,1l-0.1,0.6l4.2,0.6l-0.3,1.8l-10.3-1.5
		l0.4-2.7c0.3-1.8,1.2-2.5,2.8-2.3l0.8,0.1c1.1,0.2,1.7,0.6,1.9,1.5c0.5-0.8,1.3-1,2.4-0.9l1.6,0.2c0.5,0.1,0.9,0.1,1.3,0
		L-365.9,473.4z M-375,474l3.2,0.5l0.1-0.7c0.1-0.7-0.1-1.1-0.9-1.2l-1-0.1c-0.7-0.1-1.1,0.1-1.2,0.7L-375,474z"/>
	<path class="st16" d="M-370.6,466.7l0.7-2.4l1.4,0.4l-0.7,2.4l2.9,0.9l0.9-3l1.4,0.4l-1.4,4.7l-9.9-3l1.4-4.7l1.4,0.4l-0.9,3
		L-370.6,466.7z"/>
	<path class="st16" d="M-360.9,458.7l-0.8,1.6l-1.8-0.5l-0.9,2l1.6,1.1l-0.7,1.5l-8.6-6l1.1-2.4L-360.9,458.7z M-365.6,461l0.7-1.6
		l-5.1-1.4L-365.6,461z"/>
	<path class="st16" d="M-360.6,451.2l1.2,0.8c1.4,0.9,1.7,2.2,0.7,3.7s-2.3,1.7-3.7,0.8l-4.5-3c-1.4-0.9-1.7-2.2-0.7-3.7
		s2.3-1.7,3.7-0.8l0.8,0.6l-0.9,1.4l-0.9-0.6c-0.6-0.4-1.1-0.3-1.4,0.2c-0.3,0.5-0.3,0.9,0.3,1.3l4.7,3.1c0.6,0.4,1,0.3,1.4-0.2
		c0.3-0.5,0.3-0.9-0.3-1.3l-1.2-0.8L-360.6,451.2z"/>
	<path class="st16" d="M-364.6,445.5l3.7-4.2l1.1,1l-1.2,1.4l6.7,5.9l-1.2,1.3l-6.7-5.9l-1.2,1.4L-364.6,445.5z"/>
	<path class="st16" d="M-350.7,438.8l1.8-1.3l0.7,0.9l-1.8,1.3l1.2,1.6l-1,0.8l-1.2-1.6l-1.8,1.3l-0.7-0.9l1.8-1.3l-1.2-1.6l1-0.8
		L-350.7,438.8z"/>
	<path class="st16" d="M-338.1,438.2c-0.2-0.2-0.3-0.3-0.7-1.1l-0.7-1.5c-0.4-0.9-0.9-1.1-1.6-0.7l-0.6,0.3l1.8,3.8l-1.6,0.7
		l-4.3-9.5l2.5-1.1c1.7-0.8,2.7-0.4,3.4,1.1l0.3,0.7c0.4,1,0.4,1.8-0.2,2.4c1-0.1,1.6,0.5,2,1.5l0.7,1.5c0.2,0.5,0.4,0.8,0.7,1.1
		L-338.1,438.2z M-343.6,430.9l1.3,2.9l0.6-0.3c0.6-0.3,0.9-0.7,0.5-1.4l-0.4-0.9c-0.3-0.7-0.7-0.9-1.3-0.6L-343.6,430.9z"/>
	<path class="st16" d="M-335,430.7l2.4-0.7l0.4,1.4l-2.4,0.7l0.9,2.9l3-0.9l0.4,1.4l-4.7,1.4l-2.9-10l4.7-1.4l0.4,1.4l-3,0.9
		L-335,430.7z"/>
	<path class="st16" d="M-330.3,425l2.8-0.4c1.8-0.2,2.8,0.5,3,2.2l0.7,5.2c0.2,1.6-0.5,2.7-2.3,2.9l-2.8,0.4L-330.3,425z
		 M-328.3,426.2l1,7.3l1-0.1c0.6-0.1,0.9-0.4,0.8-1.1l-0.7-5.3c-0.1-0.7-0.5-1-1-0.9L-328.3,426.2z"/>
	<path class="st16" d="M-319.9,424l-0.1,8c0,0.7,0.3,1,0.9,1s0.9-0.3,0.9-1l0.1-8h1.7l-0.1,7.9c0,1.7-1,2.6-2.7,2.6
		c-1.8,0-2.7-1-2.6-2.7l0.1-7.9L-319.9,424z"/>
	<path class="st16" d="M-307.3,425.3l-2.7,4.7l1.1,5.6l-1.9-0.3l-0.8-4.3l-2.1,3.8l-1.7-0.3l2.8-5l-1-5.3l1.8,0.3l0.7,4l2-3.6
		L-307.3,425.3z"/>
</g>
</svg>
