<?xml version="1.0" encoding="utf-8"?>
<!-- Generator: Adobe Illustrator 22.1.0, SVG Export Plug-In . SVG Version: 6.00 Build 0)  -->
<svg version="1.1" id="Layer_2_1_" xmlns="http://www.w3.org/2000/svg" xmlns:xlink="http://www.w3.org/1999/xlink" x="0px" y="0px"
	 viewBox="0 0 159.3 159.3" style="enable-background:new 0 0 159.3 159.3;" xml:space="preserve">
<style type="text/css">
	.st0{fill:#FFFFFF;}
	.st1{fill:#9D1C1F;}
	.st2{fill:#EBFFFC;}
</style>
<g>
	<circle class="st0" cx="79.4" cy="79.7" r="64.3"/>
	<g>
		<path class="st1" d="M80,101.3c3.1,0.3,6.3,0.4,9.5,0.4s6.4-0.1,9.5-0.4c1.7-2.5,3.4-5.2,5.1-8c1.6-2.8,3-5.6,4.4-8.4
			c-1.3-2.8-2.8-5.6-4.4-8.4s-3.3-5.5-5.1-8c-3.1-0.3-6.3-0.4-9.5-0.4s-6.4,0.1-9.5,0.4c-1.7,2.5-3.4,5.2-5.1,8
			c-1.6,2.8-3.1,5.6-4.4,8.4c1.3,2.8,2.8,5.6,4.4,8.4C76.6,96.1,78.3,98.8,80,101.3z M89.5,75.2c5.3,0,9.6,4.3,9.6,9.6
			c0,5.3-4.3,9.6-9.6,9.6s-9.6-4.3-9.6-9.6S84.2,75.2,89.5,75.2z"/>
		<path class="st1" d="M110.6,130.8c-5.8,0-13.4-4.1-21-11.2c-7.7,7.1-15.2,11.3-21,11.3c-1.7,0-3.3-0.4-4.7-1.2
			c-5.9-3.4-7.3-14.1-4.2-27.4C46.6,98.3,38,91.8,38,85s8.5-13.3,21.6-17.3c-3.1-13.4-1.7-24,4.2-27.4c1.4-0.8,3-1.2,4.8-1.2l0,0
			c5.8,0,13.4,4.1,21,11.2c7.7-7.1,15.2-11.3,21-11.3l0,0c1.7,0,3.3,0.4,4.7,1.2c5.9,3.4,7.3,14.1,4.2,27.4
			c9.6,2.9,16.7,7.2,19.9,11.9c-0.1-33.2-27.1-60.1-60.4-60.1s-60.4,27-60.4,60.4s27,60.4,60.4,60.4c11.9,0,22.9-3.4,32.3-9.3
			C111,130.7,110.8,130.8,110.6,130.8z"/>
		<path class="st1" d="M73.9,69.1c-3,0.4-5.9,1-8.7,1.7c0.8,2.7,1.8,5.6,2.9,8.4c0.8-1.7,1.8-3.4,2.7-5.1
			C71.8,72.3,72.8,70.8,73.9,69.1z"/>
		<path class="st1" d="M110.9,90.5c-0.8,1.7-1.8,3.4-2.7,5.1c-1,1.7-2,3.3-3,5c3-0.4,5.9-1,8.7-1.7C113,96.2,112,93.3,110.9,90.5z"
			/>
		<path class="st1" d="M73.9,100.6c-1-1.6-2.1-3.3-3-4.9c-1-1.7-1.9-3.4-2.8-5.1c-1.1,2.8-2.1,5.6-2.8,8.3
			C68,99.6,70.9,100.1,73.9,100.6z"/>
		<path class="st1" d="M105.1,69.2c1,1.6,2.1,3.2,3,4.9c1,1.7,1.9,3.4,2.8,5.1c1.1-2.8,2.1-5.6,2.8-8.3
			C111,70.2,108.1,69.6,105.1,69.2z"/>
		<path class="st1" d="M92.8,53.3c3,3.1,5.9,6.6,8.7,10.5c4.7,0.5,9.2,1.3,13.4,2.3c0.4-2.1,0.8-4.2,1.1-6.2c1-8-0.3-14.3-3.1-15.9
			c-0.6-0.3-1.4-0.5-2.4-0.5l0,0C106.1,43.6,99.6,47.1,92.8,53.3z"/>
		<path class="st1" d="M136.5,84.8c0-3.3-4.8-7.5-12.3-10.7c-1.8-0.8-3.8-1.5-5.9-2.1c-1.2,4.1-2.7,8.4-4.7,12.8
			c1.9,4.4,3.5,8.7,4.7,12.8c2-0.7,4-1.3,5.8-2.1C131.6,92.3,136.5,88.2,136.5,84.8z"/>
		<path class="st1" d="M113,125.5c2.8-1.7,4-7.9,3.1-16c-0.2-1.9-0.6-4-1.1-6.1c-4.1,1-8.6,1.8-13.4,2.3c-2.8,3.9-5.7,7.4-8.7,10.5
			c6.9,6.3,13.3,9.8,17.7,9.8C111.5,126.1,112.4,125.8,113,125.5z"/>
		<path class="st1" d="M83.6,63.5c1.9-0.1,3.9-0.1,5.8-0.1c2,0,3.9,0.1,5.8,0.1c-1.9-2.5-3.9-4.7-5.8-6.7
			C87.5,58.8,85.6,61,83.6,63.5z"/>
		<path class="st1" d="M119.6,102.2c2.1,9.1,2.1,17,0,22.2c9.3-8.4,15.9-19.7,18.5-32.4C134.5,96,128,99.6,119.6,102.2z"/>
		<path class="st1" d="M66.1,125.6c0.6,0.3,1.4,0.5,2.3,0.6c4.4,0,10.8-3.5,17.7-9.9c-3-3.1-5.9-6.6-8.7-10.5
			c-4.7-0.5-9.2-1.3-13.4-2.3c-0.4,2.1-0.8,4.2-1.1,6.2C62,117.7,63.3,124,66.1,125.6z"/>
		<path class="st1" d="M95.3,106.2c-1.9,0.1-3.9,0.1-5.8,0.1c-2,0-3.9-0.1-5.8-0.1c1.9,2.5,3.9,4.7,5.8,6.7
			C91.5,111,93.5,108.7,95.3,106.2z"/>
		<path class="st1" d="M68.4,43.7c-1,0-1.8,0.2-2.4,0.5c-2.8,1.7-4,7.9-3.1,16c0.3,2,0.6,4,1.1,6.1c4.1-1,8.6-1.8,13.4-2.3
			c2.8-3.9,5.7-7.4,8.7-10.5C79.3,47.1,72.8,43.6,68.4,43.7L68.4,43.7z"/>
		<path class="st1" d="M54.8,74.2c-7.5,3.1-12.3,7.3-12.3,10.7s4.8,7.5,12.3,10.7c1.8,0.8,3.8,1.5,5.9,2.1c1.2-4.1,2.7-8.4,4.7-12.8
			c-1.9-4.4-3.5-8.7-4.7-12.8C58.6,72.7,56.6,73.3,54.8,74.2z"/>
	</g>
</g>
<g>
	<path class="st2" d="M33.1,71.7c-0.3,0.1-0.4,0.1-1.3,0l-1.6-0.2c-1-0.1-1.4,0.2-1.5,1l-0.1,0.6l4.2,0.6l-0.3,1.8L22.2,74l0.4-2.7
		c0.3-1.8,1.2-2.5,2.8-2.3l0.8,0.1c1.1,0.2,1.7,0.6,1.9,1.5c0.5-0.8,1.3-1,2.4-0.9l1.6,0.2c0.5,0.1,0.9,0.1,1.3,0L33.1,71.7z
		 M24,72.3l3.2,0.5l0.1-0.7c0.1-0.7-0.1-1.1-0.9-1.2l-1-0.1c-0.7-0.1-1.1,0.1-1.2,0.7L24,72.3z"/>
	<path class="st2" d="M28.4,65l0.7-2.4l1.4,0.4l-0.7,2.4l2.9,0.9l0.9-3l1.4,0.4l-1.4,4.7l-9.9-3l1.4-4.7l1.4,0.4l-0.9,3L28.4,65z"/>
	<path class="st2" d="M38.1,57l-0.8,1.6l-1.8-0.5l-0.9,2l1.6,1.1l-0.7,1.5l-8.6-6l1.1-2.4L38.1,57z M33.4,59.3l0.7-1.6L29,56.3
		L33.4,59.3z"/>
	<path class="st2" d="M38.4,49.5l1.2,0.8c1.4,0.9,1.7,2.2,0.7,3.7s-2.3,1.7-3.7,0.8l-4.5-3c-1.4-0.9-1.7-2.2-0.7-3.7
		s2.3-1.7,3.7-0.8l0.8,0.6L35,49.3l-0.9-0.6c-0.6-0.4-1.1-0.3-1.4,0.2s-0.3,0.9,0.3,1.3l4.7,3.1c0.6,0.4,1,0.3,1.4-0.2
		c0.3-0.5,0.3-0.9-0.3-1.3L37.6,51L38.4,49.5z"/>
	<path class="st2" d="M34.4,43.8l3.7-4.2l1.1,1L38,42l6.7,5.9l-1.2,1.3l-6.7-5.9l-1.2,1.4L34.4,43.8z"/>
	<path class="st2" d="M48.3,37.1l1.8-1.3l0.7,0.9L49,38l1.2,1.6l-1,0.8L48,38.8l-1.8,1.3l-0.7-0.9l1.8-1.3l-1.2-1.6l1-0.8L48.3,37.1
		z"/>
	<path class="st2" d="M60.9,36.5c-0.2-0.2-0.3-0.3-0.7-1.1l-0.7-1.5c-0.4-0.9-0.9-1.1-1.6-0.7l-0.6,0.3l1.8,3.8L57.5,38l-4.3-9.5
		l2.5-1.1c1.7-0.8,2.7-0.4,3.4,1.1l0.3,0.7c0.4,1,0.4,1.8-0.2,2.4c1-0.1,1.6,0.5,2,1.5l0.7,1.5c0.2,0.5,0.4,0.8,0.7,1.1L60.9,36.5z
		 M55.4,29.2l1.3,2.9l0.6-0.3c0.6-0.3,0.9-0.7,0.5-1.4l-0.4-0.9c-0.3-0.7-0.7-0.9-1.3-0.6L55.4,29.2z"/>
	<path class="st2" d="M64,29l2.4-0.7l0.4,1.4l-2.4,0.7l0.9,2.9l3-0.9l0.4,1.4L64,35.2l-2.9-10l4.7-1.4l0.4,1.4l-3,0.9L64,29z"/>
	<path class="st2" d="M68.7,23.3l2.8-0.4c1.8-0.2,2.8,0.5,3,2.2l0.7,5.2c0.2,1.6-0.5,2.7-2.3,2.9l-2.8,0.4L68.7,23.3z M70.7,24.5
		l1,7.3l1-0.1c0.6-0.1,0.9-0.4,0.8-1.1l-0.7-5.3c-0.1-0.7-0.5-1-1-0.9L70.7,24.5z"/>
	<path class="st2" d="M79.1,22.3l-0.1,8c0,0.7,0.3,1,0.9,1s0.9-0.3,0.9-1l0.1-8h1.7l-0.1,7.9c0,1.7-1,2.6-2.7,2.6
		c-1.8,0-2.7-1-2.6-2.7l0.1-7.9L79.1,22.3z"/>
	<path class="st2" d="M91.7,23.6L89,28.3l1.1,5.6l-1.9-0.3l-0.8-4.3l-2.1,3.8l-1.7-0.3l2.8-5l-1-5.3l1.8,0.3l0.7,4l2-3.6L91.7,23.6z
		"/>
</g>
</svg>
