<?xml version="1.0" encoding="utf-8"?>
<!-- Generator: Adobe Illustrator 22.1.0, SVG Export Plug-In . SVG Version: 6.00 Build 0)  -->
<svg version="1.1" id="Layer_1" xmlns="http://www.w3.org/2000/svg" xmlns:xlink="http://www.w3.org/1999/xlink" x="0px" y="0px"
	 viewBox="0 0 2531 1341.6" style="enable-background:new 0 0 2531 1341.6;" xml:space="preserve">
<style type="text/css">
	.st0{fill:none;}
	.st1{fill:#163024;}
	.st2{fill:#244F3B;}
	.st3{display:none;fill:#163024;}
	.st4{display:none;}
	.st5{display:inline;}
	.st6{fill:#561114;}
	.st7{fill:url(#SVGID_1_);}
	.st8{fill:url(#SVGID_2_);}
	.st9{fill:url(#SVGID_3_);}
	.st10{fill:url(#SVGID_4_);}
	.st11{fill:url(#SVGID_5_);}
	.st12{fill:#77171C;}
	.st13{fill:#190506;}
	.st14{fill:#9D1C1F;}
	.st15{fill:url(#SVGID_6_);}
	.st16{fill:url(#SVGID_7_);}
	.st17{fill:url(#SVGID_8_);}
	.st18{fill:url(#SVGID_9_);}
	.st19{fill:url(#SVGID_10_);}
	.st20{fill:url(#SVGID_11_);}
	.st21{fill:#380E0E;}
	.st22{fill:#DD3C3C;}
	.st23{fill:#19382B;}
</style>
<g>
	<line class="st0" x1="169.6" y1="587.3" x2="615.5" y2="685.3"/>
	
		<rect x="390.5" y="408" transform="matrix(0.2147 -0.9767 0.9767 0.2147 -313.2447 883.0584)" class="st1" width="4" height="456.6"/>
</g>
<g>
	<line class="st0" x1="192" y1="631.4" x2="677.9" y2="611.2"/>
	
		<rect x="191.8" y="619.3" transform="matrix(0.9991 -4.150520e-02 4.150520e-02 0.9991 -25.4114 18.5873)" class="st1" width="486.3" height="4"/>
</g>
<g>
	<line class="st0" x1="192.1" y1="669.1" x2="557.6" y2="559.5"/>
	
		<rect x="184" y="612.3" transform="matrix(0.9579 -0.2871 0.2871 0.9579 -160.5964 133.4632)" class="st1" width="381.6" height="4"/>
</g>
<g>
	<line class="st0" x1="204.3" y1="707.8" x2="530.3" y2="511.8"/>
	
		<rect x="177.1" y="607.8" transform="matrix(0.857 -0.5154 0.5154 0.857 -261.7359 276.5438)" class="st1" width="380.4" height="4"/>
</g>
<g>
	<line class="st0" x1="190.6" y1="544.8" x2="527.9" y2="723"/>
	
		<rect x="357.2" y="443.2" transform="matrix(0.4672 -0.8841 0.8841 0.4672 -369.1405 655.2961)" class="st1" width="4" height="381.4"/>
</g>
<g>
	<line class="st0" x1="236.7" y1="527.9" x2="486.2" y2="759.9"/>
	<polygon class="st1" points="482.3,759 235.3,529.4 238,526.5 487.5,758.4 	"/>
</g>
<g>
	<path class="st1" d="M380.2,756.7l-0.1-4.7l1.1-4.6l2.2-4.1l3.2-3.4l3.9-2.4l4.4-1.3l4.6-0.1l4.5,1.1l4.1,2.3l3.4,3.3l2.6,4.2
		c0.3,0.5,0.8,0.7,1.3,0.7c0.3,0,0.5-0.1,0.8-0.2c0.7-0.4,0.9-1.3,0.5-2.1l-2.6-4.2l-1.3-4.6l-0.2-4.7l1.1-4.5l2.2-4.1l3.2-3.3
		l3.9-2.4l4.5-1.3l4.7-0.1l4.6,1.1l4.2,2.3l3.6,3.4c0.3,0.3,0.7,0.4,1,0.4c0.4,0,0.8-0.2,1.1-0.5c0.6-0.6,0.5-1.6-0.1-2.1l-3.6-3.4
		l-2.5-4l-1.4-4.5l-0.2-4.6l1-4.4l2.1-4l3.1-3.3l3.9-2.4l4.4-1.3l4.7-0.1l4.6,1.1l4.4,2.3c0.2,0.1,0.5,0.2,0.7,0.2
		c0.5,0,1.1-0.3,1.3-0.8c0.4-0.7,0.1-1.6-0.6-2l-4.4-2.3l-3.5-3.2l-2.5-3.9l-1.4-4.4l-0.2-4.5l1-4.4l2.1-3.9l3.1-3.3l3.9-2.3
		l4.4-1.3l4.7-0.2l4.7,1.1c0.1,0,0.2,0,0.3,0c0.7,0,1.3-0.5,1.5-1.2c0.2-0.8-0.3-1.6-1.1-1.8l-4.8-1.1l-4.2-2.1l-3.5-3.1l-2.5-3.7
		l-1.4-4.2l-0.2-4.4l1-4.2l2.1-3.8l3.1-3.2l3.8-2.3l4.4-1.3l4.8-0.2c0.8,0,1.5-0.7,1.4-1.5c0-0.8-0.6-1.5-1.6-1.4l-4.8,0.2l-4.5-0.9
		l-4.1-2l-3.4-2.9l-2.5-3.6l-1.4-4l-0.2-4.2l0.9-4.1l2-3.7l3-3.1l3.8-2.3l4.5-1.3c0.8-0.2,1.2-1.1,1-1.9c-0.2-0.8-1.1-1.2-1.9-1
		l-4.5,1.3l-4.5,0.2l-4.4-0.9l-4-1.9l-3.3-2.8l-2.4-3.5l-1.3-3.9l-0.2-4.1l0.9-4l2-3.6l3-3.1l3.9-2.4c0.7-0.4,0.9-1.3,0.5-2.1
		c-0.4-0.7-1.3-0.9-2.1-0.5l-3.9,2.4l-4.2,1.3l-4.4,0.2l-4.3-0.8l-3.9-1.8l-3.2-2.7l-2.3-3.4l-1.3-3.8l-0.1-4l0.9-3.9l2-3.5l3.1-3.1
		c0.6-0.6,0.6-1.5,0-2.1s-1.5-0.6-2.1,0l-3.1,3.1l-3.7,2.2l-4.2,1.3l-4.3,0.2l-4.2-0.8l-3.8-1.8l-3.1-2.6l-2.2-3.2l-1.2-3.7
		l-0.1-3.8l1-3.8l2.1-3.6c0.4-0.7,0.2-1.6-0.6-2c-0.7-0.4-1.6-0.2-2,0.6l-2.1,3.6l-2.9,2.9l-3.6,2.2l-4.1,1.3l-4.2,0.3l-4.1-0.8
		l-3.6-1.7l-3-2.5l-2.1-3.2l-1.1-3.6l-0.1-3.8l1-3.9c0.2-0.8-0.3-1.6-1.1-1.8c-0.8-0.2-1.6,0.3-1.8,1.1l-1,3.9l-2,3.4l-2.9,2.9
		l-3.6,2.2l-4,1.2l-4.2,0.3l-4-0.7l-3.6-1.7l-2.9-2.5l-2-3.1l-1.1-3.5v-3.9c0-0.8-0.7-1.5-1.5-1.5l0,0c-0.8,0-1.5,0.7-1.5,1.5v3.9
		l-1,3.7l-2,3.4l-2.9,2.9l-3.6,2.1l-4,1.2l-4.1,0.2L318,514l-3.5-1.7l-2.8-2.5l-1.9-3.1l-1-3.7c-0.2-0.8-1-1.3-1.8-1
		c-0.8,0.2-1.3,1-1,1.8l1,3.7v3.7l-1.1,3.7l-2.1,3.4l-2.9,2.9l-3.6,2.1l-3.9,1.2l-4,0.2l-3.9-0.7l-3.4-1.7l-2.7-2.5l-2-3.3
		c-0.4-0.7-1.3-0.9-2.1-0.5c-0.7,0.4-0.9,1.4-0.5,2.1l2,3.3l0.9,3.5l-0.1,3.8l-1.1,3.7l-2.1,3.4l-2.9,2.9l-3.6,2.1L264,542l-4,0.2
		l-3.8-0.8l-3.3-1.7l-2.8-2.6c-0.6-0.6-1.6-0.5-2.1,0.1c-0.6,0.6-0.5,1.5,0.1,2.1l2.8,2.6l1.8,3.1l0.9,3.6l-0.1,3.8l-1.2,3.8
		l-2.1,3.5l-3,2.9l-3.6,2.1l-3.9,1.2l-4,0.2l-3.8-0.8l-3.5-1.8c-0.7-0.4-1.6-0.1-2,0.6c-0.4,0.7-0.1,1.6,0.6,2l3.5,1.8l2.7,2.6
		l1.8,3.2l0.9,3.7l-0.1,3.9l-1.2,3.9l-2.2,3.6l-3,3l-3.6,2.2l-3.9,1.2l-4,0.2l-4-0.9c-0.8-0.2-1.6,0.3-1.8,1.1s0.3,1.6,1.1,1.8
		l4,0.9l3.3,1.8l2.7,2.7l1.8,3.3l0.9,3.8l-0.2,4l-1.2,4l-2.2,3.6l-3,3l-3.7,2.2l-4,1.2l-4.3,0.2c-0.8,0-1.5,0.7-1.4,1.6
		c0,0.8,0.7,1.4,1.5,1.4c0,0,0,0,0.1,0l4.2-0.2l3.9,0.9l3.4,1.9l2.7,2.8l1.9,3.5l0.9,3.9l-0.2,4.1l-1.2,4.1l-2.2,3.7l-3.1,3.1
		l-3.7,2.2l-4.2,1.3c-0.8,0.2-1.2,1.1-1,1.9c0.2,0.6,0.8,1.1,1.4,1.1c0.1,0,0.3,0,0.4-0.1l4.2-1.3l4.1-0.1l3.9,1l3.5,2l2.8,2.9
		l1.9,3.6l0.9,4.1l-0.2,4.3l-1.3,4.2l-2.3,3.8l-3.1,3.2l-3.9,2.4c-0.7,0.4-0.9,1.3-0.5,2.1c0.3,0.5,0.8,0.7,1.3,0.7
		c0.3,0,0.5-0.1,0.8-0.2l3.9-2.4l4.1-1.2l4.2-0.1l4,1l3.6,2.1l2.9,3l2,3.7l1,4.2l-0.1,4.4l-1.3,4.4l-2.3,3.9l-3.3,3.4
		c-0.6,0.6-0.6,1.5,0,2.1c0.3,0.3,0.7,0.4,1,0.4c0.4,0,0.8-0.1,1.1-0.4l3.3-3.4l3.8-2.3l4.2-1.2l4.3-0.1l4.1,1.1l3.7,2.2l3,3.1
		l2.1,3.9l1,4.3l-0.1,4.6l-1.2,4.4l-2.4,4.2c-0.4,0.7-0.2,1.6,0.6,2c0.2,0.1,0.5,0.2,0.7,0.2c0.5,0,1-0.3,1.3-0.8l2.4-4.2l3.2-3.3
		l3.9-2.3l4.3-1.2l4.4-0.1l4.2,1.1l3.8,2.2l3.1,3.2l2.2,4l1.1,4.5v4.6l-1.3,4.7c-0.2,0.8,0.3,1.6,1.1,1.8c0.1,0,0.3,0.1,0.4,0.1
		c0.7,0,1.3-0.4,1.4-1.1l1.3-4.7l2.3-4.1l3.2-3.3l3.9-2.4l4.3-1.3l4.5-0.1l4.3,1.1l3.9,2.3l3.2,3.3l2.3,4l1.2,4.5v4.9
		c0,0.8,0.7,1.5,1.5,1.5l0,0c0.8,0,1.5-0.7,1.5-1.5V762l1.2-4.6l2.3-4.1l3.2-3.4l3.9-2.4l4.4-1.3l4.6-0.1l4.4,1.2l4,2.3l3.3,3.3
		l2.4,4.1l1.3,4.8c0.2,0.7,0.8,1.1,1.4,1.1c0.1,0,0.3,0,0.4-0.1c0.8-0.2,1.3-1.1,1-1.8L380.2,756.7z M373.5,747.9
		c0,0-0.1-0.1-0.2-0.1s-0.1-0.1-0.1-0.1l-4.4-2.5c-0.1,0-0.1,0-0.2-0.1c-0.1,0-0.1-0.1-0.2-0.1l-4.6-1.2l0,0l-0.2-0.1
		c-0.1,0-0.1,0-0.2,0s-0.1,0-0.2,0l-5,0.1c-0.1,0-0.1,0-0.2,0s-0.1,0-0.2,0l-4.8,1.4c-0.1,0-0.1,0.1-0.2,0.1s-0.1,0-0.2,0.1
		l-4.3,2.6c-0.1,0-0.1,0.1-0.1,0.1c-0.1,0-0.1,0.1-0.2,0.1l-3.5,3.6c0,0.1-0.1,0.1-0.1,0.2c0,0.1-0.1,0.1-0.1,0.1l-0.9,1.7
		l-0.1-15.2v-3.9l0.9-3.6l1.8-3.2l2.5-2.6l3.1-1.9l3.4-1l3.6-0.1l3.5,0.9l3.1,1.8l2.6,2.5l1.8,3.2l1.1,3.7l0,0l4.2,14.8L373.5,747.9
		z M335.8,748.4c0,0-0.1-0.1-0.2-0.1s-0.1-0.1-0.2-0.1l-4.3-2.5c-0.1,0-0.1,0-0.2-0.1c-0.1,0-0.1-0.1-0.2-0.1l-4.7-1.2
		c-0.1,0-0.1,0-0.2,0s-0.1,0-0.2,0l0,0l-4.9,0.1c-0.1,0-0.1,0-0.2,0s-0.1,0-0.2,0l-4.7,1.4c-0.1,0-0.1,0.1-0.2,0.1s-0.1,0-0.2,0.1
		l-4.2,2.6c-0.1,0-0.1,0.1-0.1,0.1c-0.1,0-0.1,0.1-0.2,0.1l-1.3,1.3l3.9-14.6l0,0l1-3.7l1.8-3.2l2.5-2.6l3.1-1.8l3.4-1l3.5-0.1
		l3.4,0.9l3.1,1.8l2.5,2.5l1.8,3.1l0.9,3.5v3.9l0.1,15.3l-1-1.7c0-0.1-0.1-0.1-0.1-0.1c0-0.1-0.1-0.1-0.1-0.2L335.8,748.4z
		 M300.1,739c0-0.1-0.1-0.1-0.2-0.1s-0.1-0.1-0.2-0.1l-4.1-2.4c-0.1,0-0.1,0-0.2-0.1c-0.1,0-0.1-0.1-0.2-0.1l-4.3-1.1
		c-0.2-0.1-0.4-0.1-0.7-0.1l-4.8,0.1c-0.1,0-0.1,0-0.2,0s-0.1,0-0.2,0l-4.6,1.3c-0.1,0-0.1,0.1-0.2,0.1s-0.1,0-0.2,0.1l-1.4,0.9
		l7.4-12.8l1.9-3.3l2.5-2.6l3-1.8l3.4-1l3.5-0.1l3.3,0.8l3,1.7l2.4,2.4l1.7,3.1l0.9,3.5v3.6l-1,3.7l0,0l-3.9,14.5l-0.4-1.7
		c0-0.1-0.1-0.1-0.1-0.2c0-0.1,0-0.1-0.1-0.2l-2.4-4.3c0-0.1-0.1-0.1-0.1-0.2c0-0.1-0.1-0.1-0.1-0.2L300.1,739z M269,720.8
		c0-0.1-0.1-0.1-0.2-0.1s-0.1-0.1-0.2-0.1l-4-2.4c-0.1,0-0.1,0-0.2-0.1c-0.1,0-0.1-0.1-0.2-0.1l-4.5-1.2c-0.1,0-0.1,0-0.2,0
		s-0.1,0-0.2,0l0,0l-4.7,0.1c-0.1,0-0.1,0-0.2,0c-0.1,0-0.1,0-0.2,0l-1.4,0.4L263,707l0,0l0,0l2.6-2.7l3-1.8l3.3-1l3.4-0.1l3.3,0.8
		l2.9,1.7l2.4,2.4l1.7,3l0.8,3.4l-0.1,3.6l-1,3.5l-1.9,3.3l-7.3,12.8v-1.7c0-0.1,0-0.1,0-0.2c0-0.1,0-0.1,0-0.2l-1.1-4.7
		c0-0.1-0.1-0.1-0.1-0.2c0-0.1,0-0.1-0.1-0.2l-2.3-4.2c0-0.1-0.1-0.1-0.1-0.2c0-0.1-0.1-0.1-0.1-0.2L269,720.8z M244.6,695.4
		c0-0.1-0.1-0.1-0.2-0.1c-0.1-0.1-0.1-0.1-0.2-0.1l-3.9-2.3c-0.1,0-0.1,0-0.2-0.1c-0.1,0-0.1-0.1-0.2-0.1l-4.4-1.1
		c-0.1,0-0.2,0-0.2,0c-0.1,0-0.1,0-0.2,0h-1.4l12.1-7.3l3.1-1.9l3.3-1l3.3-0.1l3.2,0.8l2.8,1.6l2.3,2.3l1.6,2.9l0.8,3.3l-0.1,3.5
		l-1,3.4l-1.8,3.1l-2.6,2.7l0,0l-10,10.2l0.4-1.4c0-0.1,0-0.1,0-0.2c0-0.1,0-0.1,0-0.2l0.2-4.8c0-0.1,0-0.1,0-0.2c0-0.1,0-0.1,0-0.2
		l-1.1-4.6c0-0.1-0.1-0.1-0.1-0.2c0-0.1,0-0.1-0.1-0.2l-2-4.1c0-0.1-0.1-0.1-0.1-0.2c0-0.1-0.1-0.1-0.1-0.2L244.6,695.4z M228.4,665
		c0-0.1-0.1-0.1-0.2-0.1c-0.1-0.1-0.1-0.1-0.2-0.1l-3.8-2.2c-0.1,0-0.1,0-0.2-0.1c-0.1,0-0.1-0.1-0.2-0.1l-1.2-0.3l13.1-3.9l3.4-1
		l3.3-0.1l3.1,0.8l2.8,1.6l2.2,2.3l1.6,2.8l0.8,3.2l-0.1,3.4l-1,3.3l-1.8,3l-2.5,2.5l-3.1,1.9l-11.8,7.1l0.7-1.2
		c0-0.1,0.1-0.2,0.1-0.3c0,0,0-0.1,0.1-0.1l1.4-4.6c0-0.1,0-0.1,0-0.2c0-0.1,0-0.1,0-0.2l0.2-4.7c0-0.1,0-0.1,0-0.2
		c0-0.1,0-0.1,0-0.2l-1-4.5c0-0.1-0.1-0.1-0.1-0.2c0-0.1,0-0.1-0.1-0.2l-2.1-4c0-0.1-0.1-0.1-0.1-0.2c0-0.1-0.1-0.1-0.1-0.2
		L228.4,665z M223.1,658.3c0.1-0.1,0.1-0.1,0.1-0.2l0.1-0.1l2.4-4c0-0.1,0.1-0.2,0.1-0.3l0.1-0.1l1.3-4.4c0-0.1,0-0.1,0-0.2
		c0-0.1,0-0.1,0-0.2l0.2-4.5c0-0.1,0-0.1,0-0.2c0-0.1,0-0.1,0-0.2l-1-4.3c0-0.1-0.1-0.1-0.1-0.2c0-0.1,0-0.1-0.1-0.2l-2.1-3.8
		c0-0.1-0.1-0.1-0.1-0.2c0-0.1-0.1-0.1-0.1-0.2l-3-3.1c-0.1-0.1-0.1-0.1-0.2-0.1c-0.1,0-0.1-0.1-0.2-0.1l-1.1-0.6l13.2-0.5l0,0
		l3.4-0.1l3.1,0.7l2.7,1.5l2.2,2.2l1.5,2.7l0.7,3.1l-0.1,3.3l-1,3.2l-1.8,2.9l-2.4,2.4l-2.9,1.8l-3.4,1l-12.7,3.8L223.1,658.3z
		 M221,627.4c0.1,0,0.1-0.1,0.1-0.1l0.1-0.1l3.3-3.3c0.1-0.1,0.1-0.1,0.1-0.2l0.1-0.1l2.4-3.9c0-0.1,0.1-0.2,0.1-0.2l0.1-0.1
		l1.3-4.3c0-0.1,0-0.1,0-0.2c0-0.1,0-0.1,0-0.2l0.2-4.4c0-0.1,0-0.1,0-0.2c0-0.1,0-0.1,0-0.2l-1-4.2c0-0.1-0.1-0.1-0.1-0.2
		c0-0.1,0-0.1-0.1-0.2l-2.1-3.7c0-0.1-0.1-0.1-0.1-0.2c0-0.1-0.1-0.1-0.1-0.2l-0.8-0.8l12.5,2.8l0,0l3.2,0.7l2.7,1.4l2.1,2.1
		l1.5,2.7l0.7,3l-0.1,3.2l-0.9,3.2l-1.7,2.9l-2.4,2.4l-2.9,1.7l-3.2,1l-3.4,0.1l0,0l0,0l-12.7,0.5L221,627.4z M226.9,597.2
		c0.1,0,0.1-0.1,0.2-0.1h0.1l3.9-2.4c0.1,0,0.1-0.1,0.1-0.1c0.1,0,0.1-0.1,0.2-0.1l3.2-3.2c0.1-0.1,0.1-0.1,0.1-0.2l0.1-0.1l2.3-3.9
		c0-0.1,0.1-0.2,0.1-0.3c0,0,0.1,0,0.1-0.1l1.3-4.2c0-0.1,0-0.1,0-0.2c0-0.1,0-0.1,0-0.2l0.2-4.3c0-0.1,0-0.1,0-0.2
		c0-0.1,0-0.1,0-0.2l-1-4.1c0-0.1-0.1-0.1-0.1-0.2c0-0.1,0-0.1-0.1-0.2l-0.6-1l10.9,5.7l0,0l2.8,1.5l2.1,2.1l1.5,2.6l0.7,2.9
		l-0.1,3.1l-0.9,3.1l-1.7,2.8l-2.4,2.4l-2.9,1.7l-3.2,1L241,601l-3.2-0.7l0,0l-12-2.7L226.9,597.2z M240.1,569.4L240.1,569.4
		c0.2,0,0.3,0,0.4-0.1l4.3-1.3c0.1,0,0.1-0.1,0.2-0.1h0.1l3.9-2.3c0.1,0,0.1-0.1,0.1-0.1c0.1,0,0.1-0.1,0.2-0.1l3.2-3.2
		c0.1-0.1,0.1-0.1,0.1-0.2l0.1-0.1l2.3-3.8c0.1-0.1,0.1-0.2,0.1-0.3l0.1-0.1l1.3-4.2c0-0.1,0-0.1,0-0.2c0-0.1,0-0.1,0-0.2l0.1-4.2
		c0-0.1,0-0.1,0-0.2c0-0.1,0-0.1,0-0.2l-0.3-1.2l8.8,8.2l2.3,2.1l1.5,2.5l0.7,2.9l-0.1,3.1l-0.9,3l-1.7,2.8l-2.3,2.3l-2.8,1.7
		l-3.1,1l-3.2,0.2l-3-0.6l-2.8-1.5l0,0l-10.6-5.6L240.1,569.4z M259.6,545.5c0.1,0,0.2,0,0.3,0l0,0l0,0l0,0l0,0h0.1l4.4-0.2h0.1
		c0.1,0,0.2,0,0.3,0l4.3-1.3c0.1,0,0.1-0.1,0.2-0.1h0.1l3.9-2.3c0.1,0,0.1-0.1,0.1-0.1l0.1-0.1l3.2-3.2c0.1-0.1,0.1-0.1,0.1-0.2
		l0.1-0.1l2.3-3.8c0.1-0.1,0.1-0.2,0.1-0.3l0.1-0.1l1.2-4.1c0-0.1,0-0.1,0-0.2c0-0.1,0-0.1,0-0.2V528l6.2,10.1l0,0l1.6,2.7l0.8,2.8
		l-0.1,3l-0.9,3l-1.7,2.8l-2.3,2.3l-2.8,1.7l-3.1,1l-3.2,0.2l-3-0.6l-2.7-1.4l-2.3-2.1l-8.6-8.1L259.6,545.5z M284.3,526.9
		c0.1,0,0.1,0,0.2,0s0.1,0.1,0.2,0.1l4.2,0.8c0.1,0,0.2,0,0.3,0l0,0l0,0l0,0l0,0h0.1l4.4-0.3h0.1c0.1,0,0.2,0,0.3,0l4.3-1.3
		c0.1,0,0.1-0.1,0.2-0.1h0.1l3.9-2.3c0.1,0,0.1-0.1,0.1-0.1s0.1-0.1,0.2-0.1l3.2-3.1c0.1-0.1,0.1-0.1,0.1-0.2l0.1-0.1l2.3-3.7
		c0.1-0.1,0.1-0.2,0.1-0.3l0.1-0.1l0.3-1.1l3.2,11.3l0,0l0.9,3v3l-0.9,3l-1.6,2.7l-2.3,2.3l-2.8,1.7l-3.2,1l-3.2,0.2l-3.1-0.6
		l-2.7-1.3l-2.2-2l-1.6-2.7l0,0l-6.1-10.1L284.3,526.9z M312.8,514.7c0.1,0.1,0.1,0.1,0.2,0.1s0.1,0.1,0.1,0.1l3.8,1.8
		c0.1,0,0.1,0,0.2,0s0.1,0.1,0.2,0.1l4.3,0.8c0.1,0,0.2,0,0.3,0l0,0l0,0l0,0l0,0h0.1l4.5-0.3h0.1c0.1,0,0.2,0,0.3,0l4.3-1.4
		c0.1,0,0.1-0.1,0.2-0.1h0.1l3.9-2.3c0.1,0,0.1-0.1,0.1-0.1l0.1-0.1l3.2-3.2c0.1-0.1,0.1-0.1,0.1-0.2l0.1-0.1l0.6-1v11.9l0,0l0,0
		v3.2l-0.8,3l-1.6,2.7l-2.3,2.3l-2.8,1.7l-3.2,1l-3.3,0.2l-3.1-0.6l-2.8-1.4l-2.2-2l-1.6-2.5l-0.8-3l0,0l-3.2-11.5L312.8,514.7z
		 M343.5,509.8l3.2,2.8c0.1,0.1,0.1,0.1,0.2,0.1l0.1,0.1l3.9,1.8c0.1,0,0.1,0,0.2,0s0.1,0.1,0.2,0.1l4.4,0.8c0.1,0,0.2,0,0.3,0l0,0
		l0,0l0,0l0,0h0.1l4.5-0.3h0.1c0.1,0,0.2,0,0.3,0l4.4-1.4c0.1,0,0.1-0.1,0.2-0.1h0.1l3.9-2.4c0.1,0,0.1-0.1,0.1-0.1l0.1-0.1l0.9-0.9
		l-3.2,11.8l0,0l-0.9,3.2L365,528l-2.3,2.3l-2.9,1.7l-3.2,1l-3.3,0.2l-3.2-0.6l-2.8-1.4l-2.3-2l-1.6-2.5l-0.8-2.8v-3.2l0,0v-12.3
		l0.6,1l0.1,0.1C343.4,509.7,343.4,509.7,343.5,509.8z M376.8,516l3.3,2.8c0.1,0.1,0.1,0.1,0.2,0.1l0.1,0.1l4,1.9c0.1,0,0.1,0,0.2,0
		s0.1,0.1,0.2,0.1l4.5,0.8c0.1,0,0.2,0,0.3,0l0,0l0,0l0,0l0,0h0.1l4.6-0.3h0.1c0.1,0,0.2,0,0.3,0l4.4-1.4c0.1,0,0.1-0.1,0.2-0.1h0.1
		l1.1-0.6l-6.3,10.9l0,0l-1.7,2.9l-2.3,2.3l-2.9,1.7l-3.2,1l-3.3,0.2l-3.3-0.6l-2.9-1.4l-2.3-2l-1.7-2.5l-0.9-2.9v-3l0.9-3.2l0,0
		l3.3-12.2l0.3,1.1c0,0,0,0.1,0.1,0.1c0,0.1,0.1,0.2,0.1,0.3l2.3,3.5l0.1,0.1C376.7,515.9,376.7,515.9,376.8,516z M407.6,530.4
		l3.4,2.9c0.1,0.1,0.1,0.1,0.2,0.1l0.1,0.1l4.1,1.9c0.1,0,0.1,0,0.2,0s0.1,0.1,0.2,0.1l4.6,0.9c0.1,0,0.2,0,0.3,0l0,0l0,0l0,0l0,0
		h0.1l4.7-0.3h0.1c0.1,0,0.2,0,0.3,0l1.2-0.4l-9.2,9.4l0,0l-2.5,2.5l-2.9,1.8l-3.3,1l-3.4,0.2l-3.3-0.7l-3-1.4l-2.4-2.1l-1.7-2.6
		l-0.9-2.9l-0.1-3.1l0.8-3l1.7-2.9l0,0l6.5-11.3v1.2c0,0.1,0,0.1,0.1,0.2c0,0.1,0,0.1,0,0.2l1.3,4.1l0.1,0.1c0,0.1,0.1,0.2,0.1,0.3
		l2.4,3.6L407.6,530.4C407.5,530.3,407.5,530.3,407.6,530.4z M433.8,552.4l3.5,2.9c0.1,0,0.1,0.1,0.2,0.1l0.1,0.1l4.2,2
		c0.1,0,0.1,0,0.2,0s0.1,0.1,0.2,0.1l4.7,0.9c0.1,0,0.2,0,0.3,0l0,0l0,0l0,0l0,0c0,0,0,0,0.1,0l1.3-0.1l-11.7,7l0,0l-3.1,1.9l-3.3,1
		l-3.5,0.2l-3.4-0.7l-3-1.5l-2.5-2.1l-1.8-2.7l-1-3l-0.1-3.2l0.8-3.1l1.6-2.8l2.5-2.5l0,0l0,0l9.5-9.7l-0.3,1.2c0,0.1,0,0.1,0,0.2
		c0,0.1,0,0.1,0,0.2l0.2,4.4c0,0.1,0,0.2,0.1,0.2c0,0.1,0,0.1,0,0.2l1.4,4.2c0,0,0,0.1,0.1,0.1c0,0.1,0.1,0.2,0.1,0.3l2.6,3.7
		l0.1,0.1C433.7,552.3,433.7,552.4,433.8,552.4z M453.4,581l3.6,3.1c0.1,0,0.1,0.1,0.2,0.1l0.1,0.1l4.3,2.1c0.1,0,0.1,0,0.2,0
		s0.1,0.1,0.2,0.1l1.4,0.3l-13.6,4.1l0,0l-3.6,1.1l-3.5,0.2l-3.5-0.7l-3.1-1.5l-2.6-2.2l-1.9-2.8l-1-3.1l-0.1-3.2l0.8-3.2l1.6-2.9
		l2.4-2.4l3.1-1.9l0,0l12-7.2l-0.6,1.2c0,0.1,0,0.1-0.1,0.2c0,0.1-0.1,0.1-0.1,0.2l-1,4.4c0,0.1,0,0.1,0,0.2c0,0.1,0,0.1,0,0.2
		l0.2,4.5c0,0.1,0,0.1,0.1,0.2c0,0.1,0,0.1,0,0.2l1.5,4.3l0.1,0.1c0,0.1,0.1,0.2,0.1,0.3l2.6,3.8L453.4,581
		C453.3,580.8,453.3,580.9,453.4,581z M463.5,590.6c-0.1,0.1-0.1,0.1-0.1,0.2c0,0.1-0.1,0.1-0.1,0.2l-2.3,4c0,0.1,0,0.1-0.1,0.2
		c0,0.1-0.1,0.1-0.1,0.2l-1,4.5c0,0.1,0,0.1,0,0.2c0,0.1,0,0.1,0,0.2l0.2,4.6c0,0.1,0,0.1,0.1,0.2c0,0.1,0,0.1,0,0.2l1.5,4.4
		c0,0,0,0.1,0.1,0.1c0,0.1,0.1,0.2,0.1,0.3l2.7,4l0.1,0.1c0.1,0.1,0.1,0.1,0.1,0.2l3.7,3.2c0.1,0.1,0.1,0.1,0.2,0.1l0.1,0.1l1.4,0.7
		l-14.6,0.6l0,0l-3.8,0.1l-3.5-0.7l-3.2-1.6l-2.6-2.3l-1.9-2.8l-1-3.2l-0.1-3.3l0.8-3.2l1.6-2.9l2.4-2.5l3-1.8l3.6-1.1l0,0l13.8-4.2
		L463.5,590.6z M469.1,622.3c-0.1,0-0.1,0.1-0.1,0.1c-0.1,0-0.1,0.1-0.2,0.1l-3.3,3.5c-0.1,0.1-0.1,0.1-0.1,0.2
		c0,0.1-0.1,0.1-0.1,0.2l-2.3,4.2c0,0.1,0,0.1-0.1,0.2c0,0.1-0.1,0.1-0.1,0.2l-1.1,4.6c0,0.1,0,0.1,0,0.2c0,0.1,0,0.1,0,0.2l0.3,4.8
		c0,0.1,0,0.1,0.1,0.2c0,0.1,0,0.1,0,0.2l1.5,4.6l0.1,0.1c0,0.1,0.1,0.2,0.1,0.3l2.7,4.1l0.1,0.1c0.1,0.1,0.1,0.1,0.2,0.2l1.3,1.2
		l-14.7-3.3l-3.7-0.8l-3.2-1.7l-2.7-2.4l-1.9-2.9l-1.1-3.3l-0.1-3.4l0.8-3.3l1.6-3l2.4-2.5l3-1.8l3.4-1l3.8-0.1l0,0l14.8-0.6
		L469.1,622.3z M465.7,655c-0.1,0-0.1,0.1-0.2,0.1s-0.1,0-0.2,0.1l-4.2,2.6c-0.1,0-0.1,0.1-0.1,0.1c-0.1,0-0.1,0.1-0.2,0.1l-3.4,3.5
		c-0.1,0.1-0.1,0.1-0.1,0.2c0,0.1-0.1,0.1-0.1,0.1l-2.3,4.3c0,0.1,0,0.1-0.1,0.2c0,0.1-0.1,0.1-0.1,0.2l-1.1,4.8c0,0.1,0,0.1,0,0.2
		c0,0.1,0,0.1,0,0.2l0.2,4.9c0,0.1,0,0.1,0,0.2c0,0.1,0,0.1,0,0.2l1.5,4.7l0.1,0.1c0,0.1,0.1,0.2,0.1,0.3l1,1.6l-13.5-7.1l-3.4-1.8
		l-2.7-2.5l-1.9-3l-1.1-3.4l-0.1-3.5l0.8-3.4l1.7-3l2.4-2.6l3.1-1.8l3.5-1l3.6-0.1l3.8,0.8l14.7,3.3L465.7,655z M453.4,686.2
		c-0.1,0-0.1,0-0.2,0s-0.1,0-0.2,0l-4.8,1.4c-0.1,0-0.1,0.1-0.2,0.1s-0.1,0-0.2,0.1l-4.3,2.6c-0.1,0-0.1,0.1-0.2,0.1
		s-0.1,0.1-0.2,0.1l-3.4,3.6c0,0.1-0.1,0.1-0.1,0.2c0,0.1-0.1,0.1-0.1,0.2l-2.3,4.4c0,0.1,0,0.1-0.1,0.2c0,0.1-0.1,0.1-0.1,0.2
		l-1.1,4.8c0,0.1,0,0.1,0,0.2c0,0.1,0,0.1,0,0.2l0.2,5c0,0.1,0,0.1,0,0.2c0,0.1,0,0.1,0,0.2l0.6,1.9l-11.3-10.5l0,0l-2.8-2.6
		l-1.9-3.1l-1-3.4l-0.1-3.6l0.8-3.4l1.7-3.1l2.5-2.6l3.1-1.9l3.5-1l3.6-0.1l3.6,0.8l3.4,1.8l13.5,7.1L453.4,686.2z M432.8,713.6
		c-0.1,0-0.1,0-0.2,0s-0.1,0-0.2,0l-5.1,0.1c-0.1,0-0.1,0-0.2,0s-0.1,0-0.2,0l-4.8,1.4c-0.1,0-0.1,0.1-0.2,0.1s-0.1,0-0.2,0.1
		l-4.3,2.6c-0.1,0-0.1,0.1-0.1,0.1c-0.1,0-0.1,0.1-0.2,0.1l-3.5,3.6c-0.1,0.1-0.1,0.1-0.1,0.2c0,0.1-0.1,0.1-0.1,0.1l-2.4,4.4
		c0,0.1,0,0.1-0.1,0.2c0,0.1-0.1,0.1-0.1,0.2l-1.2,4.9c0,0.1,0,0.1,0,0.2c0,0.1,0,0.1,0,0.2l0.1,2.1l-8-13.2l0,0l-2-3.3l-1-3.5
		l-0.1-3.6l0.8-3.5l1.7-3.2l2.5-2.6l3.1-1.9l3.5-1l3.6-0.1l3.6,0.8l3.2,1.7l2.8,2.6l0,0l11.2,10.5L432.8,713.6z M405.5,734.7
		c-0.1,0-0.1,0-0.2-0.1c-0.1,0-0.1-0.1-0.2-0.1l-4.9-1.2c-0.1,0-0.2,0-0.3,0h-0.1l-5,0.1c-0.1,0-0.1,0-0.2,0s-0.1,0-0.2,0l-4.8,1.4
		c-0.1,0-0.1,0.1-0.2,0.1s-0.1,0-0.2,0.1l-4.3,2.6c-0.1,0-0.1,0.1-0.1,0.1c-0.1,0-0.1,0.1-0.2,0.1l-3.5,3.6c0,0.1-0.1,0.1-0.1,0.2
		c0,0.1-0.1,0.1-0.1,0.1l-2.4,4.4c0,0.1,0,0.1-0.1,0.2c0,0.1-0.1,0.1-0.1,0.2l-0.5,2l-4.2-14.8l0,0l0,0l-1.1-3.7v-3.7l0.9-3.5
		l1.7-3.2l2.5-2.6l3.1-1.9l3.5-1l3.6-0.1l3.5,0.9l3.2,1.8l2.6,2.5l2,3.3l0,0l8,13.2L405.5,734.7z M363.5,720.7c-0.1,0-0.1,0-0.2-0.1
		c-0.1,0-0.1-0.1-0.2-0.1l-3.8-1c-0.1,0-0.1,0-0.2,0s-0.1,0-0.2,0l-4,0.1c-0.1,0-0.1,0-0.2,0s-0.1,0-0.2,0l-3.8,1.1
		c-0.1,0-0.1,0.1-0.2,0.1s-0.1,0-0.2,0.1l-3.4,2.1c-0.1,0-0.1,0.1-0.1,0.1c-0.1,0-0.1,0.1-0.2,0.1l-2.8,2.9c0,0.1-0.1,0.1-0.1,0.2
		c0,0.1-0.1,0.1-0.1,0.1l-0.2,0.4V713l0,0l0,0v-2.9l0.7-2.6l1.3-2.4l1.9-1.9l2.3-1.4l2.6-0.8l2.7-0.1l2.6,0.6l2.4,1.3l1.9,1.9
		l1.4,2.3l0.8,2.8l3.7,13.3l-0.3-0.3c0,0-0.1-0.1-0.2-0.1s-0.1-0.1-0.2-0.1L363.5,720.7z M333.4,721.2c-0.1,0-0.1,0-0.2-0.1
		c-0.1,0-0.1-0.1-0.2-0.1l-3.8-1c-0.1,0-0.2,0-0.3,0c-0.1,0-0.1,0-0.1,0l-3.9,0.1c-0.1,0-0.1,0-0.2,0s-0.1,0-0.2,0l-3.8,1.1
		c-0.1,0-0.1,0.1-0.2,0.1s-0.1,0-0.2,0.1l-3.4,2.1c-0.1,0-0.1,0.1-0.1,0.1c-0.1,0-0.1,0.1-0.2,0.1l-0.2,0.2l3.5-13.2l0,0l0.8-2.8
		l1.3-2.4l1.9-1.9l2.3-1.4l2.6-0.7l2.6-0.1l2.5,0.6l2.3,1.3l1.9,1.8l1.3,2.3l0.7,2.6v2.9l0,0v13.8l-0.2-0.4c0-0.1-0.1-0.1-0.1-0.2
		c0-0.1-0.1-0.1-0.1-0.2l-2.8-2.8c0,0-0.1-0.1-0.2-0.1s-0.1-0.1-0.1-0.1L333.4,721.2z M304.9,713.9c-0.1,0-0.1,0-0.2-0.1
		c-0.1,0-0.1-0.1-0.2-0.1l-3.7-0.9c-0.1,0-0.2,0-0.2,0c-0.1,0-0.1,0-0.1,0l-3.9,0.1c-0.1,0-0.1,0-0.2,0s-0.1,0-0.2,0l-3.7,1.1
		c-0.1,0-0.1,0.1-0.2,0.1s-0.1,0-0.2,0.1l-0.2,0.1l6.7-11.7l0,0l0,0l1.4-2.5l1.9-1.9l2.3-1.4l2.5-0.8l2.6-0.1l2.5,0.6l2.3,1.3
		l1.8,1.8l1.3,2.3l0.7,2.6v2.7l-0.8,2.8l0,0l-3.5,13.2l-0.1-0.3c0-0.1-0.1-0.1-0.1-0.2c0-0.1,0-0.1-0.1-0.2l-1.9-3.4
		c0-0.1-0.1-0.1-0.1-0.2c0-0.1-0.1-0.1-0.1-0.2l-2.7-2.7c-0.1-0.1-0.1-0.1-0.2-0.1s-0.1-0.1-0.1-0.1L304.9,713.9z M279.9,699.6
		c-0.1,0-0.1,0-0.2-0.1c-0.1,0-0.1-0.1-0.2-0.1l-3.4-0.8H276h-0.1h-0.1c-0.1,0-0.2,0-0.3,0l-3.8,0.1c-0.1,0-0.1,0-0.2,0
		s-0.1,0-0.2,0h-0.1l9.3-9.5l0,0l2-2l2.3-1.4l2.5-0.7l2.6-0.1l2.5,0.6l2.2,1.2l1.8,1.8l1.3,2.2l0.6,2.5v2.7l-0.7,2.6l-1.4,2.5l0,0
		l-6.7,11.7v-0.2c0-0.1,0-0.1,0-0.2s0-0.1,0-0.2l-0.9-3.8c0-0.1-0.1-0.1-0.1-0.2c0-0.1,0-0.1-0.1-0.2l-1.9-3.3
		c0-0.1-0.1-0.1-0.1-0.2c0-0.1-0.1-0.1-0.1-0.2l-2.7-2.7c-0.1-0.1-0.1-0.1-0.2-0.1s-0.1-0.1-0.1-0.1L279.9,699.6z M260.1,679.4
		c-0.1,0-0.1,0-0.2-0.1c-0.1,0-0.1-0.1-0.2-0.1l-3.6-0.9c-0.1,0-0.1,0-0.2,0c-0.1,0-0.1,0-0.2,0l0,0l0,0l11.2-6.7l2.4-1.5l2.5-0.7
		l2.5-0.1l2.4,0.6l2.2,1.2l1.7,1.7l1.2,2.2l0.6,2.5v2.6l-0.7,2.5l-1.3,2.3l-2,2l0,0l0,0l-9.2,9.4l0,0c0-0.1,0-0.1,0-0.2
		c0-0.1,0-0.1,0-0.2l0.1-3.8c0-0.1,0-0.1,0-0.2c0-0.1,0-0.1,0-0.2l-0.9-3.7c0-0.1-0.1-0.1-0.1-0.2s0-0.1-0.1-0.2l-1.8-3.3
		c0-0.1-0.1-0.1-0.1-0.2c0-0.1-0.1-0.1-0.1-0.2l-2.6-2.6c-0.1-0.1-0.1-0.1-0.2-0.1s-0.1-0.1-0.2-0.1L260.1,679.4z M262.8,578.8
		c0.1,0,0.1-0.1,0.2-0.1h0.1l3.2-1.9c0.1,0,0.1-0.1,0.1-0.1l0.1-0.1l2.6-2.6c0.1-0.1,0.1-0.1,0.1-0.2l0.1-0.1l1.9-3.1
		c0.1-0.1,0.1-0.2,0.1-0.3l0.1-0.1l1-3.4c0-0.1,0-0.1,0-0.2c0-0.1,0-0.1,0-0.2l0.1-3.5c0-0.1,0-0.1,0-0.2c0-0.1,0-0.1,0-0.2l0,0
		l8.3,7.8l1.8,1.7l1.2,1.9l0.6,2.2v2.3l-0.7,2.3l-1.3,2.1l-1.8,1.8l-2.2,1.3l-2.4,0.7l-2.5,0.1l-2.3-0.5L269,585l0,0l-10-5.3l0,0
		c0.1,0,0.2,0,0.3,0L262.8,578.8z M275,560.5L275,560.5L275,560.5L275,560.5C275,560.5,275.1,560.5,275,560.5l3.7-0.2h0.1
		c0.1,0,0.2,0,0.3,0l3.5-1.1c0.1,0,0.1-0.1,0.2-0.1h0.1l3.1-1.9c0.1,0,0.1-0.1,0.1-0.1l0.1-0.1l2.6-2.6c0.1-0.1,0.1-0.1,0.1-0.2
		l0.1-0.1l1.9-3.1c0.1-0.1,0.1-0.2,0.1-0.3l0.1-0.1l1-3.4c0-0.1,0-0.1,0-0.2c0-0.1,0-0.1,0-0.2l0,0l5.8,9.6l0,0l0,0l1.3,2.1l0.6,2.2
		v2.3l-0.7,2.3l-1.3,2.1l-1.8,1.8l-2.2,1.3l-2.4,0.7l-2.5,0.1l-2.3-0.5l-2.1-1.1l-1.8-1.7l-8.2-7.6
		C274.8,560.5,274.9,560.5,275,560.5L275,560.5z M298.6,546.1c0.1,0,0.2,0,0.3,0l0,0l0,0l0,0l0,0h0.1l3.6-0.2h0.1c0.1,0,0.2,0,0.3,0
		l3.5-1.1c0.1,0,0.1-0.1,0.2-0.1h0.1l3.1-1.9c0.1,0,0.1-0.1,0.1-0.1c0.1,0,0.1-0.1,0.2-0.1l2.6-2.6c0.1-0.1,0.1-0.1,0.1-0.2l0.1-0.1
		l1.8-3.1c0.1-0.1,0.1-0.2,0.1-0.3c0,0,0,0,0.1-0.1l0,0l3,10.8l0,0l0,0l0.7,2.4v2.3l-0.6,2.3l-1.2,2.1l-1.8,1.8l-2.2,1.3l-2.4,0.7
		L308,560l-2.3-0.5l-2.1-1l-1.7-1.5l-1.3-2.1l0,0l-5.8-9.6l0,0c0.1,0,0.1,0,0.2,0s0.1,0.1,0.2,0.1L298.6,546.1z M321.3,537
		c0.1,0,0.1,0,0.2,0s0.1,0.1,0.2,0.1l3.5,0.7c0.1,0,0.2,0,0.3,0l0,0l0,0l0,0l0,0h0.1l3.6-0.2h0.1c0.1,0,0.2,0,0.3,0l3.5-1.1
		c0.1,0,0.1-0.1,0.2-0.1h0.1l3.2-1.9c0.1,0,0.1-0.1,0.1-0.1s0.1-0.1,0.2-0.1l2.6-2.6c0.1-0.1,0.1-0.1,0.1-0.2c0,0,0.1,0,0.1-0.1
		v11.3v2.5l-0.6,2.3l-1.2,2.1l-1.8,1.8l-2.2,1.3l-2.4,0.7l-2.5,0.1l-2.4-0.5l-2.1-1l-1.7-1.5l-1.2-1.9l-0.7-2.4l0,0l-3.1-10.9l0,0
		c0.1,0.1,0.1,0.1,0.2,0.1s0.1,0.1,0.1,0.1L321.3,537z M349.1,535.4c0.1,0,0.1,0,0.2,0s0.1,0.1,0.2,0.1l3.6,0.7c0.1,0,0.2,0,0.3,0
		l0,0l0,0l0,0l0,0h0.1l3.7-0.2h0.1c0.1,0,0.2,0,0.3,0l3.5-1.1c0.1,0,0.1-0.1,0.2-0.1h0.1l3.2-1.9c0.1,0,0.1-0.1,0.1-0.1
		s0.1,0,0.1-0.1l-3,11.1l0,0l-0.7,2.5l-1.2,2.1l-1.8,1.8l-2.2,1.3l-2.5,0.8l-2.5,0.1l-2.4-0.5l-2.2-1.1l-1.8-1.6l-1.2-1.9l-0.6-2.2
		v-2.5l0,0l0,0V531l0,0l0.1,0.1c0.1,0.1,0.1,0.2,0.2,0.2l2.6,2.3c0.1,0.1,0.1,0.1,0.2,0.1l0.1,0.1L349.1,535.4z M376.3,540.7
		c0.1,0,0.1,0,0.2,0s0.1,0.1,0.2,0.1l3.6,0.7c0.1,0,0.2,0,0.3,0l0,0l0,0l0,0l0,0h0.1l3.7-0.2h0.1c0.1,0,0.2,0,0.3,0l3.6-1.1
		c0.1,0,0.1-0.1,0.2-0.1c0,0,0,0,0.1,0l-5.9,10.3l0,0l-1.3,2.3l-1.8,1.8l-2.2,1.3l-2.5,0.8l-2.6,0.1l-2.5-0.5l-2.2-1.1l-1.8-1.6
		l-1.3-1.9l-0.7-2.2v-2.3l0.7-2.5l0,0l0,0l3.1-11.5c0,0,0,0,0.1,0.1c0,0.1,0.1,0.2,0.1,0.3l1.9,2.9l0.1,0.1c0.1,0.1,0.1,0.1,0.2,0.2
		l2.7,2.3c0.1,0.1,0.1,0.1,0.2,0.1s0.1,0.1,0.1,0.1L376.3,540.7z M401.3,552.6c0.1,0,0.1,0,0.2,0s0.1,0.1,0.2,0.1l3.7,0.7
		c0.1,0,0.2,0,0.3,0l0,0l0,0l0,0l0,0h0.1l3.8-0.2h0.1c0.1,0,0.1,0,0.2,0l-8.6,8.7l0,0l-1.9,1.9l-2.2,1.3l-2.5,0.8l-2.6,0.1l-2.5-0.5
		l-2.2-1.1l-1.8-1.6l-1.3-2l-0.7-2.2v-2.4l0.6-2.3l1.3-2.3l0,0l6.1-10.6c0,0.1,0,0.1,0,0.2c0,0.1,0,0.1,0,0.2l1.1,3.3l0.1,0.1
		c0,0.1,0.1,0.2,0.1,0.3l2,2.9l0.1,0.1c0.1,0.1,0.1,0.1,0.2,0.2l2.7,2.4c0.1,0.1,0.1,0.1,0.2,0.1s0.1,0.1,0.1,0.1L401.3,552.6z
		 M422.4,570.8c0.1,0,0.1,0,0.2,0s0.1,0.1,0.2,0.1l3.8,0.8c0.1,0,0.2,0,0.3,0l0,0l0,0l0,0l0,0l0,0l-10.8,6.5l-2.4,1.5l-2.5,0.8
		l-2.6,0.1l-2.5-0.5l-2.3-1.1l-1.9-1.6l-1.3-2l-0.7-2.3l-0.1-2.4l0.6-2.4l1.2-2.2l1.9-1.9l0,0l8.8-9c0,0.1,0,0.1,0,0.2
		c0,0.1,0,0.1,0,0.2l0.1,3.6c0,0.1,0,0.1,0.1,0.2c0,0.1,0,0.1,0,0.2l1.1,3.4c0,0,0,0,0.1,0.1c0,0.1,0.1,0.2,0.1,0.3l2,3l0.1,0.1
		c0.1,0.1,0.1,0.1,0.2,0.2l2.8,2.4c0.1,0.1,0.1,0.1,0.2,0.1l0.1,0.1L422.4,570.8z M430.9,673.6c-0.1,0-0.1,0-0.2,0s-0.1,0-0.2,0
		l-3.8,1.1c-0.1,0-0.1,0.1-0.2,0.1s-0.1,0-0.2,0.1l-3.4,2.1c-0.1,0-0.1,0.1-0.1,0.1c-0.1,0-0.1,0.1-0.2,0.1l-2.7,2.9
		c0,0.1-0.1,0.1-0.1,0.2c0,0.1-0.1,0.1-0.1,0.2l-1.9,3.5c0,0.1,0,0.1-0.1,0.2c0,0.1-0.1,0.1-0.1,0.2l-0.9,3.8c0,0.1,0,0.1,0,0.2
		c0,0.1,0,0.1,0,0.2l0.1,4c0,0.1,0,0.1,0,0.2c0,0.1,0,0.1,0,0.2l0.1,0.5l-10.2-9.5l0,0l-2.1-2l-1.4-2.3l-0.8-2.6l-0.1-2.7l0.6-2.6
		l1.3-2.3l1.8-1.9l2.3-1.4l2.6-0.8l2.7-0.1l2.6,0.6l2.6,1.4l0,0l12.2,6.4L430.9,673.6z M414.4,695.4c-0.1,0-0.1,0-0.2,0
		s-0.1,0-0.2,0l0,0l-4,0.1c-0.1,0-0.1,0-0.2,0s-0.1,0-0.2,0l-3.8,1.1c-0.1,0-0.1,0.1-0.2,0.1s-0.1,0-0.2,0.1l-3.4,2.1
		c-0.1,0-0.1,0.1-0.1,0.1c-0.1,0-0.1,0.1-0.2,0.1l-2.8,2.9c0,0.1-0.1,0.1-0.1,0.2c0,0.1-0.1,0.1-0.1,0.1l-1.9,3.5
		c0,0.1,0,0.1-0.1,0.2c0,0.1-0.1,0.1-0.1,0.2l-0.9,3.9c0,0.1,0,0.1,0,0.2c0,0.1,0,0.1,0,0.2v0.5l-7.2-11.9l0,0l-1.5-2.5l-0.8-2.6
		l-0.1-2.7l0.6-2.6l1.3-2.3l1.9-1.9l2.3-1.4l2.6-0.8l2.7-0.1l2.7,0.6l2.4,1.3l2.1,2l0,0l0,0l10.1,9.4L414.4,695.4z M392.7,712.2
		c-0.1,0-0.1,0-0.2-0.1c-0.1,0-0.1-0.1-0.2-0.1l-3.9-1c-0.1,0-0.1,0-0.2,0s-0.1,0-0.2,0l-4,0.1c-0.1,0-0.1,0-0.2,0s-0.1,0-0.2,0
		l-3.8,1.1c-0.1,0-0.1,0.1-0.2,0.1s-0.1,0-0.2,0.1l-3.4,2.1c-0.1,0-0.1,0.1-0.2,0.1s-0.1,0.1-0.2,0.1l-2.8,2.9
		c0,0.1-0.1,0.1-0.1,0.2c0,0.1-0.1,0.1-0.1,0.1l-1.9,3.5c0,0.1,0,0.1-0.1,0.2c0,0.1-0.1,0.1-0.1,0.2l-0.1,0.5l-3.7-13.3l-0.8-2.8
		l-0.1-2.7l0.7-2.6l1.3-2.4l1.9-2l2.3-1.4l2.6-0.8l2.7-0.1l2.6,0.6l2.4,1.3l2,1.9l1.5,2.5l0,0l7.2,11.8L392.7,712.2z M355.3,698
		c-0.1,0-0.2,0-0.2,0c-0.1,0-0.1,0-0.1,0l-3.1,0.1c-0.1,0-0.1,0-0.2,0s-0.1,0-0.2,0l-3,0.9c-0.1,0-0.1,0.1-0.2,0.1s-0.1,0-0.2,0.1
		l-2.6,1.6c-0.1,0-0.1,0.1-0.1,0.1s-0.1,0.1-0.2,0.1l-1.9,2v-11.3v-2.1l0.5-1.9l1-1.7l1.4-1.4l1.7-1l1.9-0.5l2-0.1l1.9,0.4l1.7,0.9
		l1.4,1.3l1,1.6l0.6,2l0,0l0,0l3.1,10.9l-2.5-1.4c-0.1,0-0.1,0-0.2-0.1c-0.1,0-0.1-0.1-0.2-0.1L355.3,698z M331.7,698.4l-3,0.1
		c-0.1,0-0.1,0-0.2,0s-0.1,0-0.2,0l-3,0.9c-0.1,0-0.1,0.1-0.2,0.1s-0.1,0-0.2,0.1l-2.3,1.4l2.9-10.8l0,0l0.6-2.1l1-1.7l1.4-1.4
		l1.7-1l1.8-0.5h1.9l1.8,0.4l1.7,0.9l1.4,1.3l1,1.6l0.5,1.8v2.1l0,0l0,0V703l-2-1.9c0,0-0.1-0.1-0.2-0.1s-0.1-0.1-0.2-0.1l-2.6-1.5
		c-0.1,0-0.1,0-0.2-0.1c-0.1,0-0.1-0.1-0.2-0.1l-2.7-0.7c-0.1,0-0.1,0-0.2-0.1l0,0h-0.1C331.9,698.5,331.8,698.4,331.7,698.4z
		 M309.5,692.9l-3,0.1c-0.1,0-0.1,0-0.2,0s-0.1,0-0.2,0l-2.5,0.7l5.6-9.7l0,0l1.1-1.9l1.4-1.4l1.7-1l1.8-0.5h1.9l1.8,0.4l1.6,0.9
		l1.3,1.3l0.9,1.6l0.5,1.8v1.9l-0.6,2.1l0,0l0,0l-2.9,10.9l-1.3-2.3c0-0.1-0.1-0.1-0.1-0.1c0-0.1-0.1-0.1-0.1-0.2l-2.1-2.1
		c-0.1-0.1-0.1-0.1-0.2-0.1s-0.1-0.1-0.2-0.1l-2.6-1.5c-0.1,0-0.1,0-0.2-0.1c-0.1,0-0.1-0.1-0.2-0.1l-2.9-0.7
		C309.7,692.8,309.7,692.8,309.5,692.9C309.6,693,309.6,692.9,309.5,692.9z M245.9,652l0.1-0.1l0.1-0.1l2-3.3c0-0.1,0.1-0.2,0.1-0.3
		c0,0,0-0.1,0.1-0.1l1.1-3.6c0-0.1,0-0.1,0-0.2c0-0.1,0-0.1,0-0.2l0.1-3.7c0-0.1,0-0.1,0-0.2c0-0.1,0-0.1,0-0.2l-0.8-3.5
		c0-0.1-0.1-0.1-0.1-0.2c0-0.1,0-0.1-0.1-0.2l-1.7-3.1c0-0.1-0.1-0.1-0.1-0.2c0-0.1-0.1-0.1-0.1-0.2l-2.5-2.5
		c-0.1-0.1-0.1-0.1-0.2-0.1l-0.1-0.1l12.3-0.5l0,0l2.7-0.1l2.4,0.5l2.1,1.1l1.7,1.7l1.2,2.1l0.6,2.3l-0.1,2.5L266,642l-1.3,2.2
		l-1.8,1.8l-2.2,1.3l-2.6,0.8l0,0L245.9,652z M244.2,627l2.7-2.7c0.1-0.1,0.1-0.1,0.1-0.2l0.1-0.1l1.9-3.2c0-0.1,0.1-0.2,0.1-0.3
		l0.1-0.1l1.1-3.5c0-0.1,0-0.1,0-0.2c0-0.1,0-0.1,0-0.2l0.1-3.6c0-0.1,0-0.1,0-0.2c0-0.1,0-0.1,0-0.2l-0.8-3.4
		c0-0.1-0.1-0.1-0.1-0.2c0-0.1,0-0.1-0.1-0.2l-1.7-3c0-0.1-0.1-0.1-0.1-0.2c0-0.1-0.1-0.1-0.1-0.2l11.7,2.6l0,0l0,0l2.5,0.6l2.1,1.1
		l1.7,1.6l1.2,2l0.6,2.3l-0.1,2.5l-0.7,2.4l-1.3,2.2l-1.8,1.8l-2.2,1.3l-2.4,0.7l-2.7,0.1l0,0l0,0L244.2,627c0,0,0,0,0.1-0.1
		C244.1,627.1,244.1,627,244.2,627z M307.8,563L307.8,563L307.8,563L307.8,563C307.9,563,307.9,563,307.8,563l2.9-0.1h0.1
		c0.1,0,0.2,0,0.3,0l2.7-0.9c0.1,0,0.1-0.1,0.2-0.1h0.1l2.5-1.5c0.1,0,0.1-0.1,0.1-0.1c0.1,0,0.1-0.1,0.2-0.1l2-2
		c0.1-0.1,0.1-0.1,0.1-0.2l0.1-0.1l1.2-2l2.6,9.3l0,0l0.5,1.8v1.7l-0.5,1.7L322,572l-1.3,1.3l-1.6,1l-1.8,0.5l-1.8,0.1l-1.7-0.4
		l-1.5-0.8l-1.2-1.1l-1-1.6l0,0l-5-8.2l2.3,0.5C307.6,563,307.7,563,307.8,563L307.8,563z M328.9,556.5L328.9,556.5L328.9,556.5
		L328.9,556.5L328.9,556.5l3-0.1h0.1c0.1,0,0.2,0,0.3,0l2.8-0.9c0.1,0,0.1-0.1,0.2-0.1h0.1l2.5-1.5c0.1,0,0.1-0.1,0.1-0.1
		c0.1,0,0.1-0.1,0.2-0.1l1.7-1.7v9.7v1.9l-0.5,1.7l-0.9,1.6l-1.3,1.3l-1.6,1l-1.8,0.6l-1.8,0.1l-1.8-0.4l-1.6-0.8l-1.2-1.1l-0.9-1.4
		l-0.5-1.8l0,0l-2.6-9.4l2.1,1c0.1,0,0.1,0,0.2,0s0.1,0.1,0.2,0.1l2.8,0.6C328.7,556.5,328.8,556.5,328.9,556.5L328.9,556.5z
		 M350.8,555.3L350.8,555.3L350.8,555.3L350.8,555.3L350.8,555.3l3-0.2h0.1c0.1,0,0.2,0,0.3,0l2.8-0.9c0.1,0,0.1-0.1,0.2-0.1h0.1
		l2-1.2l-2.5,9.5l0,0l-0.5,1.9l-0.9,1.6l-1.3,1.3l-1.6,1l-1.8,0.5l-1.9,0.1l-1.8-0.4l-1.6-0.8l-1.3-1.1l-0.9-1.4l-0.5-1.6v-1.9l0,0
		l0,0v-9.9l1.8,1.5c0.1,0.1,0.1,0.1,0.2,0.1l0.1,0.1l2.5,1.2c0.1,0,0.1,0,0.2,0s0.1,0.1,0.2,0.1l2.8,0.6
		C350.6,555.3,350.7,555.3,350.8,555.3L350.8,555.3z M372.2,559.6L372.2,559.6L372.2,559.6L372.2,559.6
		C372.3,559.6,372.3,559.6,372.2,559.6l3-0.2h0.1c0.1,0,0.2,0,0.3,0l2.2-0.7l-5,8.8l0,0l-1,1.7l-1.3,1.3l-1.6,1l-1.8,0.6l-1.9,0.1
		l-1.8-0.4l-1.6-0.8l-1.3-1.2l-0.9-1.4l-0.5-1.6v-1.7l0.5-1.9l0,0l0,0l2.6-9.8l1.3,1.9l0.1,0.1c0.1,0.1,0.1,0.2,0.2,0.2l2.1,1.8
		c0.1,0.1,0.1,0.1,0.2,0.1l0.1,0.1l2.6,1.3c0.1,0,0.1,0,0.2,0s0.1,0.1,0.2,0.1l2.8,0.6C372,559.6,372.1,559.6,372.2,559.6
		L372.2,559.6z M391.8,569.2L391.8,569.2L391.8,569.2L391.8,569.2C391.9,569.2,391.9,569.2,391.8,569.2l2.4-0.1l-7.3,7.4l0,0
		l-1.5,1.5l-1.6,1l-1.8,0.6l-1.9,0.1l-1.8-0.4l-1.6-0.8l-1.3-1.2l-0.9-1.5l-0.5-1.6v-1.7l0.4-1.7l1-1.7l0,0l5.2-9.1l0.7,2.2
		c0,0,0,0.1,0.1,0.1c0,0.1,0.1,0.2,0.1,0.3l1.5,2.3l0.1,0.1c0.1,0.1,0.1,0.1,0.2,0.2l2.1,1.9c0.1,0.1,0.1,0.1,0.2,0.1l0.1,0.1
		l2.6,1.3c0.1,0,0.1,0,0.2,0s0.1,0.1,0.2,0.1l2.9,0.6C391.6,569.2,391.7,569.2,391.8,569.2L391.8,569.2z M439.5,597
		c-0.1,0.1-0.1,0.1-0.1,0.2c0,0.1-0.1,0.1-0.1,0.1l-1.8,3.3c0,0.1,0,0.1-0.1,0.2c0,0.1-0.1,0.1-0.1,0.2l-0.9,3.6c0,0.1,0,0.1,0,0.2
		c0,0.1,0,0.1,0,0.2l0.2,3.7c0,0.1,0,0.1,0.1,0.2c0,0.1,0,0.1,0,0.2l1.2,3.6l0.1,0.1c0,0.1,0.1,0.2,0.1,0.3l2.1,3.2l0.1,0.1
		c0.1,0.1,0.1,0.1,0.1,0.2l2.9,2.6c0.1,0.1,0.1,0.1,0.2,0.1l0.1,0.1h0.1l-13.4,0.5l0,0l0,0l-2.9,0.1l-2.6-0.6l-2.4-1.2l-2-1.7
		l-1.4-2.1l-0.8-2.4l-0.1-2.5l0.6-2.4l1.3-2.2l1.8-1.9l2.3-1.4l2.7-0.8l0,0L439.5,597L439.5,597z M443.7,622.5
		c-0.1,0-0.1,0.1-0.1,0.1c-0.1,0-0.1,0.1-0.2,0.1l-2.7,2.8c-0.1,0.1-0.1,0.1-0.1,0.2c0,0.1-0.1,0.1-0.1,0.1l-1.8,3.4
		c0,0.1,0,0.1-0.1,0.2c0,0.1-0.1,0.1-0.1,0.2l-0.9,3.7c0,0.1,0,0.1,0,0.2c0,0.1,0,0.1,0,0.2l0.2,3.8c0,0.1,0,0.1,0.1,0.2
		c0,0.1,0,0.1,0,0.2l1.2,3.7l0.1,0.1c0,0.1,0.1,0.2,0.1,0.3l2.2,3.3l0.1,0.1c0.1,0.1,0.1,0.1,0.1,0.2l0.2,0.2l-13.4-3l-2.9-0.6
		l-2.4-1.2l-2-1.8l-1.4-2.2l-0.8-2.4l-0.1-2.6l0.6-2.5l1.3-2.3l1.8-1.9l2.3-1.4l2.6-0.8l2.9-0.1l0,0l13.5-0.5H443.7z M377.9,691.4
		c-0.1,0-0.2,0-0.2,0c-0.1,0-0.1,0-0.2,0l-3.1,0.1c-0.1,0-0.1,0-0.2,0s-0.1,0-0.2,0l-3,0.9c-0.1,0-0.1,0.1-0.2,0.1s-0.1,0-0.2,0.1
		l-2.7,1.6c-0.1,0-0.1,0.1-0.1,0.1c-0.1,0-0.1,0.1-0.2,0.1l-2.2,2.2l-0.1,0.1c0,0.1-0.1,0.1-0.1,0.2l-1.4,2.4l-3.1-10.9l0,0
		l-0.6-2.1v-1.9l0.5-1.9l1-1.7l1.4-1.4l1.7-1l1.9-0.6h1.9l1.9,0.4l1.7,0.9l1.4,1.3l1.1,1.8l0,0l0,0l5.9,9.7L377.9,691.4z
		 M285.4,679.9v-2.4c0-0.1,0-0.1,0-0.2c0-0.1,0-0.1,0-0.2l-0.7-2.9c0-0.1-0.1-0.1-0.1-0.2c0-0.1,0-0.1-0.1-0.2l-1.4-2.5
		c0-0.1-0.1-0.1-0.1-0.2c0-0.1-0.1-0.1-0.1-0.2l-2-2c-0.1-0.1-0.1-0.1-0.2-0.1s-0.1-0.1-0.2-0.1l-2.5-1.4c-0.1,0-0.1,0-0.2-0.1
		c-0.1,0-0.1-0.1-0.2-0.1l-2.3-0.6l9.4-5.7l0,0l1.8-1.1l1.8-0.5l1.9-0.1l1.8,0.4l1.6,0.9l1.3,1.3l0.9,1.6l0.5,1.8v1.9l-0.5,1.8
		l-1,1.7l-1.5,1.5l0,0l0,0L285.4,679.9z M269.8,649.7l-2-1.1l10.3-3.1l0,0l0,0l2-0.6l1.8-0.1l1.7,0.4l1.6,0.9l1.3,1.2l0.9,1.5
		l0.4,1.7v1.8l-0.5,1.8l-1,1.7l-1.3,1.4l-1.8,1.1l0,0l0,0l-9.2,5.6l0.6-2.3c0-0.1,0-0.1,0-0.2c0-0.1,0-0.1,0-0.2l0.1-2.9
		c0-0.1,0-0.1,0-0.2c0-0.1,0-0.1,0-0.2l-0.7-2.8c0-0.1-0.1-0.1-0.1-0.2s0-0.1-0.1-0.2l-1.4-2.5c0-0.1-0.1-0.1-0.1-0.2
		c0-0.1-0.1-0.1-0.1-0.2l-2-2c-0.1-0.1-0.1-0.1-0.2-0.1C270,649.8,269.9,649.7,269.8,649.7z M279.7,588.7h0.1l2.5-1.5
		c0.1,0,0.1-0.1,0.1-0.1c0.1,0,0.1-0.1,0.2-0.1l2-2.1c0.1-0.1,0.1-0.1,0.1-0.2l0.1-0.1l1.5-2.5c0.1-0.1,0.1-0.2,0.1-0.3
		c0,0,0,0,0.1-0.1l0.8-2.7c0-0.1,0-0.1,0-0.2c0-0.1,0-0.1,0-0.2v-2.3l7.2,6.7l0,0l1.4,1.3l0.8,1.4l0.4,1.6v1.7l-0.5,1.7l-0.9,1.6
		l-1.3,1.3l-1.6,1l-1.8,0.5l-1.8,0.1l-1.7-0.4l-1.7-0.9l0,0l0,0l-8.6-4.5l2.2-0.7C279.6,588.8,279.6,588.8,279.7,588.7z M292,574.2
		c0.1,0,0.2,0,0.3,0l2.8-0.9c0.1,0,0.1-0.1,0.2-0.1h0.1l2.5-1.5c0.1,0,0.1-0.1,0.1-0.1c0.1,0,0.1-0.1,0.2-0.1l2-2
		c0.1-0.1,0.1-0.1,0.1-0.2l0.1-0.1l1.4-2.4c0.1-0.1,0.1-0.2,0.1-0.3c0,0,0-0.1,0.1-0.1l0.7-2.3l5,8.3l0,0l1,1.6l0.4,1.6v1.7
		l-0.5,1.7l-0.9,1.6l-1.3,1.3l-1.6,1l-1.8,0.5l-1.8,0.1l-1.7-0.4l-1.5-0.8l-1.4-1.3l0,0l0,0l-7-6.6L292,574.2
		C291.9,574.2,292,574.2,292,574.2z M315.6,577.6L315.6,577.6L315.6,577.6L315.6,577.6L315.6,577.6l2.3-0.1h0.1c0.1,0,0.2,0,0.3,0
		l2.1-0.7c0.1,0,0.1-0.1,0.2-0.1h0.1l1.9-1.1c0.1,0,0.1-0.1,0.1-0.1s0.1-0.1,0.2-0.1l1.6-1.6c0.1-0.1,0.1-0.1,0.1-0.2l0.1-0.1
		l0.5-0.9l2.7,9.7l0,0l0,0l0.4,1.2v1.1l-0.3,1.1l-0.6,1l-0.8,0.9l-1,0.6l-1.2,0.4l-1.2,0.1l-1.1-0.2l-1-0.5l-0.8-0.7l-0.7-1.1l0,0
		l-5.2-8.6l1,0.2C315.4,577.6,315.5,577.6,315.6,577.6L315.6,577.6z M331.8,572.6L331.8,572.6L331.8,572.6L331.8,572.6L331.8,572.6
		l2.3-0.1h0.1c0.1,0,0.2,0,0.3,0l2.1-0.7c0.1,0,0.1-0.1,0.2-0.1h0.1l1.9-1.1c0.1,0,0.1-0.1,0.1-0.1s0.1-0.1,0.2-0.1l0.7-0.7v10.1
		v1.3l-0.3,1.1l-0.6,1l-0.8,0.9l-1,0.6l-1.2,0.4l-1.2,0.1l-1.1-0.2l-1-0.5l-0.8-0.7l-0.6-0.9l-0.4-1.2l0,0l-2.7-9.8l0.9,0.5
		c0.1,0,0.1,0,0.2,0s0.1,0.1,0.2,0.1l2.1,0.4C331.6,572.6,331.7,572.6,331.8,572.6L331.8,572.6z M348.6,571.8L348.6,571.8
		L348.6,571.8L348.6,571.8C348.7,571.8,348.7,571.8,348.6,571.8l2.3-0.1h0.1c0.1,0,0.2,0,0.3,0l2.2-0.7c0.1,0,0.1-0.1,0.2-0.1h0.1
		l0.8-0.5l-2.7,9.9l0,0l-0.3,1.3l-0.6,1l-0.8,0.9l-1,0.6l-1.2,0.4l-1.2,0.1l-1.2-0.2l-1-0.5l-0.8-0.8l-0.6-0.9l-0.3-1v-1.3l0,0l0,0
		v-10.3l0.8,0.7c0.1,0.1,0.1,0.1,0.2,0.1l0.1,0.1l1.9,1h0.1c0.1,0,0.1,0.1,0.2,0.1l2.2,0.4C348.4,571.7,348.5,571.8,348.6,571.8
		L348.6,571.8z M365.1,575.1L365.1,575.1L365.1,575.1L365.1,575.1L365.1,575.1l2.3-0.1h0.1c0.1,0,0.2,0,0.3,0l0.9-0.3l-5.2,9.1l0,0
		l-0.7,1.2l-0.9,0.9l-1.1,0.6l-1.2,0.4l-1.2,0.1l-1.2-0.2l-1-0.5l-0.8-0.8l-0.6-0.9l-0.3-1v-1.1l0.3-1.3l0,0l2.7-10.2l0.5,0.8
		l0.1,0.1c0.1,0.1,0.1,0.1,0.2,0.2l1.6,1.4c0.1,0.1,0.1,0.1,0.2,0.1s0.1,0.1,0.1,0.1l2,1c0.1,0,0.1,0,0.2,0s0.1,0.1,0.2,0.1l2.2,0.4
		C364.9,575.1,365,575.1,365.1,575.1L365.1,575.1z M380.1,582.6L380.1,582.6L380.1,582.6L380.1,582.6L380.1,582.6h1l-7.5,7.7l0,0
		l-1,1l-1.1,0.6l-1.2,0.4l-1.3,0.1l-1.2-0.2l-1.1-0.5l-0.8-0.8l-0.6-0.9l-0.3-1.1v-1.1l0.3-1.1l0.7-1.2l0,0l0,0l5.4-9.4l0.3,0.9
		c0,0,0,0.1,0.1,0.1c0,0.1,0.1,0.2,0.1,0.3l1.2,1.8l0.1,0.1c0.1,0.1,0.1,0.2,0.2,0.2l1.6,1.4c0.1,0.1,0.1,0.1,0.2,0.1
		s0.1,0.1,0.1,0.1l2,1c0.1,0,0.1,0,0.2,0s0.1,0.1,0.2,0.1l2.2,0.4C379.9,582.5,380,582.6,380.1,582.6L380.1,582.6z M396.6,570.9
		l0.1,2.3c0,0.1,0,0.1,0,0.2c0,0.1,0,0.1,0,0.2l0.9,2.7l0.1,0.1c0,0.1,0.1,0.2,0.1,0.3l1.6,2.4l0.1,0.1c0.1,0.1,0.1,0.1,0.2,0.2
		l2.2,1.9c0.1,0.1,0.1,0.1,0.2,0.1l0.1,0.1l2.6,1.3c0.1,0,0.1,0,0.2,0s0.1,0.1,0.2,0.1l2.3,0.5l-9.2,5.5l0,0l-1.8,1.1l-1.8,0.6
		l-1.9,0.1l-1.9-0.4l-1.7-0.8l-1.3-1.2l-1-1.5l-0.5-1.7v-1.7l0.4-1.7l0.9-1.6l1.4-1.5l0,0l0,0L396.6,570.9z M411.6,597.6l2.2,1.9
		c0.1,0,0.1,0.1,0.2,0.1l0.1,0.1l2.2,1.1l-10.5,3.2l-2,0.6l-1.9,0.1l-1.9-0.4l-1.7-0.8l-1.4-1.2l-1-1.5l-0.5-1.7v-1.8l0.4-1.7
		l0.9-1.6l1.3-1.3l1.8-1.1l0,0l9.3-5.6l-0.6,2.3c0,0.1,0,0.1,0,0.2c0,0.1,0,0.1,0,0.2l0.1,2.9c0,0.1,0,0.1,0,0.2c0,0.1,0,0.1,0,0.2
		l0.9,2.7l0.1,0.1c0,0.1,0.1,0.2,0.1,0.3l1.6,2.4l0.1,0.1C411.5,597.5,411.5,597.6,411.6,597.6z M415.5,644.9
		c-0.1,0-0.1,0.1-0.2,0.1l-2.1,2.2c-0.1,0.1-0.1,0.1-0.1,0.2c0,0.1-0.1,0.1-0.1,0.1l-1.5,2.7c0,0.1,0,0.1-0.1,0.2
		c0,0.1-0.1,0.1-0.1,0.2l-0.7,2.9c0,0.1,0,0.1,0,0.2c0,0.1,0,0.1,0,0.2l0.1,3c0,0.1,0,0.1,0.1,0.2c0,0.1,0,0.1,0,0.2l0.8,2.6
		l-10.1-5.3l0,0l-1.9-1l-1.4-1.3l-1-1.6l-0.6-1.8V647l0.4-1.8l0.9-1.7l1.3-1.4l1.7-1l1.9-0.6l2-0.1l2.1,0.5l11,2.4l-2.3,1.4
		C415.6,644.8,415.5,644.9,415.5,644.9z M407.3,663.4c-0.1,0-0.1,0-0.2,0.1l-2.6,1.6c-0.1,0-0.1,0.1-0.2,0.1l-0.1,0.1l-2.1,2.2
		l-0.1,0.1c0,0.1-0.1,0.1-0.1,0.2l-1.5,2.7c0,0.1,0,0.1-0.1,0.2c0,0.1-0.1,0.1-0.1,0.2l-0.7,3c0,0.1,0,0.1,0,0.2c0,0.1,0,0.1,0,0.2
		l0.1,2.8l-8.3-7.8l-1.5-1.4l-1-1.6l-0.5-1.8v-1.9l0.4-1.9l0.9-1.7l1.3-1.4l1.7-1l1.9-0.6l2-0.1l1.9,0.4l1.9,1l0,0l10,5.2l-2.6,0.8
		C407.4,663.3,407.4,663.4,407.3,663.4z M368.8,674.9l-2.3,0.1c-0.1,0-0.1,0-0.2,0s-0.1,0-0.2,0l-2.3,0.7c-0.1,0-0.1,0.1-0.2,0.1
		s-0.1,0-0.2,0.1l-2,1.2c-0.1,0-0.1,0.1-0.1,0.1c-0.1,0-0.1,0.1-0.2,0.1l-1.6,1.7c0,0.1-0.1,0.1-0.1,0.2c0,0.1-0.1,0.1-0.1,0.1
		l-0.6,1.1l-3.1-10.9l0,0l-0.4-1.4v-1.2l0.3-1.2l0.6-1.1l0.9-0.9l1.1-0.7l1.2-0.3h1.3l1.2,0.3l1.1,0.6l0.9,0.8l0.7,1.2l0,0l0,0
		l5.9,9.7l-1.3-0.3C369,675,368.9,675,368.8,674.9C368.9,674.9,368.8,674.9,368.8,674.9z M268.4,643.6c0.1-0.1,0.1-0.2,0.1-0.3
		c0,0,0,0,0.1-0.1l0.8-2.8c0-0.1,0-0.1,0-0.2c0-0.1,0-0.1,0-0.2l0.1-2.9c0-0.1,0-0.1,0-0.2c0-0.1,0-0.1,0-0.2l-0.7-2.8
		c0-0.1-0.1-0.1-0.1-0.2c0-0.1,0-0.1-0.1-0.2l-1.4-2.4c0-0.1-0.1-0.1-0.1-0.2c0-0.1-0.1-0.1-0.1-0.2l-1.6-1.6l10.5-0.4l0,0l2-0.1
		l1.7,0.4l1.5,0.8l1.2,1.2l0.9,1.5l0.4,1.7v1.8l-0.5,1.8l-1,1.6l-1.3,1.4l-1.6,1l-2,0.6l0,0l-10,3L268.4,643.6z M267.3,624.7
		c0.1-0.1,0.1-0.1,0.1-0.2l0.1-0.1l1.5-2.5c0-0.1,0.1-0.2,0.1-0.3c0,0,0,0,0.1-0.1l0.8-2.8c0-0.1,0-0.1,0-0.2c0-0.1,0-0.1,0-0.2
		l0.1-2.8c0-0.1,0-0.1,0-0.2c0-0.1,0-0.1,0-0.2l-0.7-2.7c0-0.1-0.1-0.1-0.1-0.2c0-0.1,0-0.1-0.1-0.2l-1.1-2l10,2.2l1.9,0.4l1.5,0.8
		l1.2,1.2l0.9,1.5l0.4,1.7v1.8l-0.5,1.8l-0.9,1.6l-1.3,1.3l-1.6,1l-1.8,0.5l-2,0.1l0,0l0,0l-10.2,0.4L267.3,624.7z M416.1,605.8
		c0,0.1,0,0.1-0.1,0.2c0,0.1-0.1,0.1-0.1,0.2l-0.7,2.8c0,0.1,0,0.1,0,0.2c0,0.1,0,0.1,0,0.2l0.1,2.9c0,0.1,0,0.1,0.1,0.2
		c0,0.1,0,0.1,0,0.2l0.9,2.8l0.1,0.1c0,0.1,0.1,0.2,0.1,0.3l1.6,2.5l0.1,0.1c0.1,0.1,0.1,0.1,0.2,0.2l1.9,1.7l-11.2,0.4l-2.1,0.1
		l-1.9-0.4l-1.7-0.9l-1.4-1.3l-1-1.6l-0.6-1.7v-1.8l0.4-1.8l0.9-1.6l1.3-1.3l1.6-1l2-0.6l10.6-3.2L416.1,605.8z M418.5,625.2
		c0,0-0.1,0.1-0.1,0.2c0,0.1-0.1,0.1-0.1,0.1l-1.5,2.6c0,0.1,0,0.1-0.1,0.2c0,0.1-0.1,0.1-0.1,0.2l-0.7,2.9c0,0.1,0,0.1,0,0.2
		c0,0.1,0,0.1,0,0.2l0.1,3c0,0.1,0,0.1,0.1,0.2c0,0.1,0,0.1,0,0.2l0.9,2.8c0,0,0,0.1,0.1,0.1c0,0.1,0.1,0.2,0.1,0.3l1.4,2.2l-11-2.5
		l-2.1-0.5l-1.7-0.9l-1.4-1.3l-1-1.6l-0.5-1.8l-0.1-1.9l0.5-1.8l0.9-1.6l1.3-1.4l1.7-1l1.9-0.6l2.1-0.1l11.2-0.4L418.5,625.2z
		 M381.5,665.7c-0.1,0-0.1,0-0.2,0l-2.3,0.7c-0.1,0-0.1,0.1-0.2,0.1s-0.1,0-0.2,0.1l-2,1.2c-0.1,0-0.1,0.1-0.1,0.1s-0.1,0.1-0.2,0.1
		l-1.6,1.7c0,0.1-0.1,0.1-0.1,0.2c0,0.1-0.1,0.1-0.1,0.1l-1.1,2c0,0.1,0,0.1-0.1,0.2c0,0.1-0.1,0.1-0.1,0.2l-0.3,1.2l-5.9-9.7l0,0
		l-0.7-1.2l-0.3-1.2v-1.2l0.3-1.2l0.6-1.1l0.9-0.9l1.1-0.7l1.2-0.4h1.3l1.2,0.3l1.1,0.6l1.1,1l0,0l8.2,7.7h-1.2
		C381.6,665.7,381.6,665.7,381.5,665.7z M360.7,659.6l-1.6,0.1c-0.1,0-0.1,0-0.2,0s-0.1,0-0.2,0l-1.6,0.5c-0.1,0-0.1,0.1-0.2,0.1
		s-0.1,0-0.2,0.1l-1.4,0.9c-0.1,0-0.1,0.1-0.1,0.1c-0.1,0-0.1,0.1-0.2,0.1l-1.1,1.2c0,0-0.1,0.1-0.1,0.2l0,0l-3.7-13.2l0,0l-0.2-0.7
		v-0.5l0.1-0.5l0.3-0.5l0.4-0.4l0.5-0.3l0.5-0.2h0.5l0.5,0.1l0.4,0.2l0.4,0.3l0.4,0.6l0,0l0,0l7.1,11.7h-0.1
		C360.8,659.6,360.7,659.6,360.7,659.6z M290.5,653.9l0.3-0.9c0-0.1,0-0.1,0-0.2c0-0.1,0-0.1,0-0.2v-2.2c0-0.1,0-0.1,0-0.2
		c0-0.1,0-0.1,0-0.2l-0.5-2.1c0-0.1-0.1-0.1-0.1-0.2c0-0.1,0-0.1-0.1-0.2l-1.1-1.9c0-0.1-0.1-0.1-0.1-0.2c0-0.1-0.1-0.1-0.1-0.2
		l-1.5-1.5c-0.1-0.1-0.1-0.1-0.2-0.1s-0.1-0.1-0.2-0.1l-0.8-0.4l10.6-3.2l0,0l0,0l1.3-0.4h1.2l1.1,0.3l1,0.5l0.8,0.8l0.6,1l0.3,1.1
		v1.2l-0.3,1.2l-0.6,1.1l-0.9,0.9l-1.2,0.7l0,0L290.5,653.9z M294.1,597.4h0.1l1.9-1.2c0.1,0,0.1-0.1,0.1-0.1l0.1-0.1l1.6-1.6
		c0.1-0.1,0.1-0.1,0.1-0.2l0.1-0.1l1.1-1.9c0-0.1,0.1-0.2,0.1-0.3c0,0,0,0,0.1-0.1l0.6-2.1c0-0.1,0-0.1,0-0.2c0-0.1,0-0.1,0-0.2v-1
		l7.5,7l0,0l0.9,0.9l0.6,0.9l0.3,1.1v1.1l-0.3,1.1l-0.6,1l-0.8,0.9l-1.1,0.6l-1.2,0.4l-1.2,0.1l-1.1-0.2l-1.2-0.6l0,0l0,0l-9-4.7
		l0.9-0.3C294,597.5,294,597.4,294.1,597.4z M323,591.5L323,591.5L323,591.5L323,591.5L323,591.5l1.6-0.1h0.1c0.1,0,0.2,0,0.3,0
		l1.5-0.5c0.1,0,0.1-0.1,0.2-0.1h0.1l1.4-0.8c0.1,0,0.1-0.1,0.1-0.1c0.1,0,0.1-0.1,0.2-0.1l1.1-1.1c0,0,0-0.1,0.1-0.1l3.4,12.3l0,0
		l0,0l0.2,0.6v0.5l-0.1,0.5l-0.3,0.4l-0.4,0.4l-0.5,0.3l-0.5,0.2H331l-0.5-0.1l-0.4-0.2l-0.3-0.3l-0.3-0.5l0,0l0,0L323,591.5
		C322.9,591.5,323,591.5,323,591.5L323,591.5z M334.6,588L334.6,588L334.6,588L334.6,588L334.6,588l1.7-0.1h0.1c0.1,0,0.2,0,0.3,0
		l1.5-0.5c0.1,0,0.1-0.1,0.2-0.1h0.1l1.4-0.8c0,0,0,0,0.1,0l0.1,12.8v0.7l-0.1,0.5l-0.2,0.4l-0.4,0.4l-0.4,0.3l-0.5,0.2H338
		l-0.5-0.1l-0.4-0.2l-0.3-0.3l-0.2-0.4l-0.2-0.6l0,0l-3.5-12.4c0.1,0,0.1,0.1,0.2,0.1l1.5,0.3C334.4,588,334.5,588,334.6,588
		L334.6,588z M346.6,587.4L346.6,587.4L346.6,587.4L346.6,587.4L346.6,587.4l1.7-0.1h0.1c0.1,0,0.2,0,0.3,0l1.5-0.5l0,0l-3.3,12.5
		l0,0l-0.2,0.7l-0.2,0.4l-0.4,0.4l-0.5,0.3l-0.5,0.2h-0.5l-0.5-0.1l-0.4-0.2l-0.3-0.3l-0.2-0.4l-0.1-0.4v-0.7l0,0l0,0l-0.1-13l0,0
		c0.1,0,0.1,0.1,0.1,0.1l1.4,0.7c0.1,0,0.1,0,0.2,0s0.1,0.1,0.2,0.1l1.5,0.3C346.4,587.4,346.5,587.4,346.6,587.4L346.6,587.4z
		 M358.3,589.9L358.3,589.9L358.3,589.9L358.3,589.9L358.3,589.9l1.6-0.1l-6.6,11.4l0,0l0,0l-0.3,0.6l-0.4,0.4l-0.5,0.3l-0.5,0.2
		h-0.5l-0.5-0.1l-0.4-0.2l-0.3-0.3l-0.2-0.4l-0.1-0.4v-0.5l0.2-0.6l0,0l0,0l3.4-12.8l0.1,0.1l1.1,1c0.1,0.1,0.1,0.1,0.2,0.1
		s0.1,0.1,0.1,0.1l1.4,0.7c0.1,0,0.1,0,0.2,0s0.1,0.1,0.2,0.1l1.5,0.3C358.1,589.9,358.2,589.9,358.3,589.9L358.3,589.9z
		 M392.6,595.8l-0.2,0.9c0,0.1,0,0.1,0,0.2c0,0.1,0,0.1,0,0.2l0.1,2.2c0,0.1,0,0.1,0,0.2s0,0.1,0,0.2l0.7,2.1l0.1,0.1
		c0,0.1,0.1,0.2,0.1,0.3l1.2,1.9l0.1,0.1c0.1,0.1,0.1,0.1,0.2,0.2l1.7,1.5c0.1,0.1,0.1,0.1,0.2,0.1s0.1,0.1,0.1,0.1l0.9,0.4
		l-10.7,3.2l0,0l-1.4,0.4l-1.3,0.1l-1.2-0.3l-1.1-0.5l-0.9-0.8l-0.6-1l-0.3-1.1v-1.2l0.3-1.1l0.6-1l0.9-0.9l1.2-0.7l0,0L392.6,595.8
		z M391.3,653.7c-0.1,0-0.1,0-0.2,0.1l-2,1.2c-0.1,0-0.1,0.1-0.2,0.1c0,0-0.1,0.1-0.2,0.1l-1.6,1.7c0,0-0.1,0.1-0.1,0.2
		c0,0.1-0.1,0.1-0.1,0.2l-1.1,2c0,0.1,0,0.1-0.1,0.2c0,0.1-0.1,0.1-0.1,0.2l-0.5,2.2c0,0.1,0,0.1,0,0.2c0,0.1,0,0.1,0,0.2v1.3
		l-8.3-7.8l0,0l0,0l-1.1-1l-0.6-1l-0.3-1.2v-1.2l0.3-1.2l0.6-1.1l0.9-0.9l1.1-0.6l1.2-0.4h1.3l1.2,0.3l1.3,0.7l0,0l10,5.2l-1.1,0.3
		C391.4,653.7,391.3,653.7,391.3,653.7z M320,659.4L320,659.4l-0.8-1.5c0-0.1-0.1-0.1-0.1-0.2c0-0.1-0.1-0.1-0.1-0.2l-1.1-1.1
		c-0.1,0-0.1-0.1-0.2-0.1s-0.1-0.1-0.1-0.1l-1.4-0.8c-0.1,0-0.1,0-0.2-0.1s-0.1-0.1-0.2-0.1l-1.6-0.4l0,0l9.7-9.9l0,0l0,0l0.5-0.5
		l0.5-0.3l0.5-0.2h0.5l0.5,0.1l0.4,0.2l0.4,0.3l0.2,0.4l0.1,0.5v0.5l-0.1,0.5L327,647l0,0L320,659.4z M285.9,639.4
		c0.1-0.1,0.1-0.2,0.1-0.3c0,0,0-0.1,0.1-0.1l0.6-2.2c0-0.1,0-0.1,0-0.2c0-0.1,0-0.1,0-0.2v-2.2c0-0.1,0-0.1,0-0.2
		c0-0.1,0-0.1,0-0.2l-0.5-2.1c0-0.1-0.1-0.1-0.1-0.2c0-0.1,0-0.1-0.1-0.2l-1.1-1.9c0-0.1-0.1-0.1-0.1-0.2c0-0.1-0.1-0.1-0.1-0.2
		l-0.7-0.7l10.8-0.4l0,0l1.4-0.1l1.1,0.3l1,0.5l0.8,0.8l0.6,1l0.3,1.1v1.2l-0.3,1.1l-0.6,1.1l-0.9,0.9l-1.1,0.6l-1.4,0.4l0,0
		l-10.3,3.1L285.9,639.4z M284.8,625c0.1-0.1,0.1-0.1,0.1-0.2l0.1-0.1l1.1-1.9c0-0.1,0.1-0.2,0.1-0.3c0,0,0,0,0.1-0.1l0.6-2.1
		c0-0.1,0-0.1,0-0.2c0-0.1,0-0.1,0-0.2v-2.2c0-0.1,0-0.1,0-0.2c0-0.1,0-0.1,0-0.2l-0.5-2.1c0-0.1-0.1-0.1-0.1-0.2
		c0-0.1,0-0.1-0.1-0.2l-0.5-0.8l10.4,2.3l0,0l0,0l1.3,0.3l1,0.5l0.8,0.8l0.6,0.9l0.3,1.1v1.2l-0.3,1.1l-0.6,1.1l-0.9,0.9l-1.1,0.6
		l-1.2,0.3l-1.4,0.1l0,0l-10.5,0.4L284.8,625z M370.9,597.1L370.9,597.1l0.5,1.6c0,0,0,0.1,0.1,0.1c0,0.1,0.1,0.2,0.1,0.3l0.8,1.3
		l0.1,0.1c0.1,0.1,0.1,0.2,0.2,0.2l1.2,1c0.1,0.1,0.1,0.1,0.2,0.1s0.1,0.1,0.1,0.1l1.4,0.7l-11.7,7.1l0,0l0,0l-0.6,0.4l-0.5,0.2
		h-0.5l-0.5-0.1l-0.4-0.2l-0.3-0.3l-0.3-0.4l-0.1-0.4v-0.5l0.1-0.5l0.3-0.5l0.5-0.5L370.9,597.1z M398,610.2c0,0.1,0,0.1-0.1,0.2
		c0,0.1-0.1,0.1-0.1,0.2l-0.6,2.2c0,0.1,0,0.1,0,0.2c0,0.1,0,0.1,0,0.2l0.1,2.2c0,0.1,0,0.1,0.1,0.2c0,0.1,0,0.1,0,0.2l0.7,2.1
		c0,0,0,0.1,0.1,0.1c0,0.1,0.1,0.2,0.1,0.3l1.2,1.9l0.1,0.1c0.1,0.1,0.1,0.2,0.2,0.2l0.8,0.7l-11.3,0.4l0,0l0,0l-1.4,0.1l-1.2-0.3
		l-1.1-0.6l-0.9-0.8l-0.6-1l-0.3-1.1v-1.2l0.3-1.2l0.6-1l0.9-0.9l1.1-0.7l1.4-0.4l0,0l0,0l10.8-3.2L398,610.2z M399.8,624.8
		c-0.1,0.1-0.1,0.1-0.1,0.2c0,0.1-0.1,0.1-0.1,0.2l-1.1,2c0,0.1,0,0.1-0.1,0.2c0,0.1-0.1,0.1-0.1,0.2l-0.6,2.2c0,0.1,0,0.1,0,0.2
		c0,0.1,0,0.1,0,0.2l0.1,2.3c0,0.1,0,0.1,0,0.2c0,0.1,0,0.1,0,0.2l0.7,2.2c0,0,0,0.1,0.1,0.1c0,0.1,0.1,0.2,0.1,0.3l0.6,0.9
		l-11.1-2.5l0,0l0,0l-1.4-0.3l-1.1-0.6l-0.9-0.8l-0.6-1l-0.3-1.1v-1.2l0.3-1.2l0.6-1.1l0.9-0.9l1.1-0.6l1.2-0.4l1.5-0.1l0,0
		l11.3-0.4L399.8,624.8z M311.9,652.9L311.9,652.9l-0.4-1.6c0-0.1-0.1-0.1-0.1-0.2c0-0.1,0-0.1-0.1-0.2l-0.8-1.3
		c0-0.1-0.1-0.1-0.1-0.1l-0.1-0.1l-1.1-1.1c-0.1-0.1-0.1-0.1-0.2-0.1s-0.1-0.1-0.2-0.1l-1.4-0.7l0,0l11.8-7.1l0,0l0.6-0.4l0.5-0.2
		h0.5l0.5,0.1l0.4,0.2l0.3,0.3l0.2,0.4l0.1,0.5v0.5l-0.1,0.5l-0.3,0.5l-0.5,0.5l0,0L311.9,652.9z M321.8,608.5L321.8,608.5l0.5,0.5
		l0.2,0.4l0.1,0.4v0.5l-0.1,0.5l-0.3,0.4l-0.4,0.4l-0.5,0.3l-0.5,0.1h-0.5l-0.5-0.1l-0.6-0.3l0,0l0,0l-11.4-6c0,0,0,0,0.1,0l1.4-0.8
		c0.1,0,0.1-0.1,0.1-0.1s0.1-0.1,0.2-0.1l1.1-1.1c0.1-0.1,0.1-0.1,0.1-0.2l0.1-0.1l0.8-1.4c0.1-0.1,0.1-0.2,0.1-0.3c0,0,0,0,0.1-0.1
		l0.4-1.5c0-0.1,0-0.1,0-0.2l0,0L321.8,608.5z M345.5,645.7h-0.9c-0.1,0-0.1,0-0.2,0s-0.1,0-0.2,0l-0.9,0.3c-0.1,0-0.1,0.1-0.2,0.1
		l0,0v-10.2l2.8,9.8h-0.1C345.6,645.7,345.6,645.7,345.5,645.7z M304.9,613.5l0.8-1.4c0.1-0.1,0.1-0.2,0.1-0.3c0,0,0,0,0.1-0.1
		l0.4-1.5c0-0.1,0-0.1,0-0.2s0-0.1,0-0.2v-1.5c0-0.1,0-0.1,0-0.2l11.6,6.1l0,0l0.6,0.3l0.4,0.3l0.2,0.4l0.1,0.4v0.5l-0.1,0.5
		l-0.3,0.5l-0.4,0.4l-0.5,0.3l-0.5,0.1h-0.5l-0.7-0.1l0,0l-12.7-2.8l1.1-1.1C304.7,613.7,304.8,613.6,304.9,613.5
		C304.8,613.5,304.9,613.5,304.9,613.5z M337.6,604.6L337.6,604.6L337.6,604.6L337.6,604.6L337.6,604.6l1-0.1h0.1c0.1,0,0.2,0,0.3,0
		l0.9-0.3c0.1,0,0.1-0.1,0.2-0.1v9.8l-2.6-9.4C337.4,604.5,337.5,604.6,337.6,604.6L337.6,604.6z M344.4,604.3L344.4,604.3
		L344.4,604.3L344.4,604.3L344.4,604.3h1h0.1c0,0,0,0,0.1,0l-2.5,9.5v-9.7h0.1c0.1,0,0.1,0.1,0.2,0.1L344.4,604.3
		C344.2,604.3,344.3,604.3,344.4,604.3L344.4,604.3z M350.9,643.7L350,644c-0.1,0-0.1,0.1-0.2,0.1s-0.1,0-0.2,0.1l-0.8,0.5
		c-0.1,0-0.1,0.1-0.2,0.1c0,0,0,0-0.1,0l-2.8-9.9L350.9,643.7L350.9,643.7C351.1,643.7,351,643.7,350.9,643.7z M339.8,646.1
		l-0.9-0.2c-0.1,0-0.1,0-0.2,0s-0.1,0-0.2,0h-0.9c-0.1,0-0.1,0-0.2,0.1l2.6-9.9v10.2h-0.1C339.9,646.2,339.9,646.1,339.8,646.1z
		 M333.2,606.2c0.1,0,0.1-0.1,0.2-0.1h0.1l0.8-0.5c0.1,0,0.1-0.1,0.1-0.1s0,0,0.1,0l2.6,9.4l-5.1-8.3c0.1,0,0.2,0,0.3,0L333.2,606.2
		z M348.4,604.8C348.5,604.8,348.5,604.8,348.4,604.8c0.1,0.1,0.2,0.1,0.2,0.2l0.8,0.4c0.1,0,0.1,0,0.1,0c0.1,0,0.1,0.1,0.2,0.1
		l0.9,0.2h0.1l-4.9,8.6L348.4,604.8z M355.7,640.5l-0.8,0.5c-0.1,0-0.1,0.1-0.1,0.1l-0.1,0.1l-0.7,0.7c-0.1,0.1-0.1,0.1-0.1,0.2
		l-0.1,0.1l-5.3-8.7l7.5,7h-0.1C355.8,640.5,355.8,640.5,355.7,640.5z M327.6,609.6l0.8-0.5c0.1,0,0.1-0.1,0.1-0.1
		c0.1,0,0.1-0.1,0.2-0.1l0.6-0.6c0.1-0.1,0.1-0.1,0.1-0.2l0,0l5.1,8.3l-7.1-6.6h0.1C327.5,609.6,327.6,609.6,327.6,609.6z
		 M353.5,607L353.5,607c0.1,0.1,0.1,0.1,0.1,0.2l0.6,0.6c0.1,0.1,0.1,0.1,0.2,0.1s0.1,0.1,0.1,0.1l0.8,0.4h0.1l-6.9,7L353.5,607z
		 M359.5,636.2l-0.7,0.7c-0.1,0.1-0.1,0.1-0.1,0.2c0,0.1-0.1,0.1-0.1,0.2l-0.4,0.8c0,0.1,0,0.1-0.1,0.2l-0.1,0.1l-7.5-7L359.5,636.2
		L359.5,636.2C359.6,636.2,359.6,636.2,359.5,636.2z M325.1,639.4L325.1,639.4c0-0.1,0-0.1-0.1-0.2l-0.4-0.7c0-0.1-0.1-0.1-0.1-0.2
		c0-0.1-0.1-0.1-0.1-0.2l-0.6-0.6c0,0-0.1-0.1-0.2-0.1l8.5-5.1L325.1,639.4z M361,614.9c0,0.1,0,0.1,0,0.2l0.3,0.8
		c0,0,0,0.1,0.1,0.1c0,0.1,0,0.2,0.1,0.3l0.5,0.7l0.1,0.1c0,0,0,0,0,0.1l-9.6,2.9L361,614.9z M352.3,628.8l9.9,2.2l0,0l-0.1,0.1
		l-0.5,0.8c0,0.1,0,0.1-0.1,0.2c0,0.1-0.1,0.1-0.1,0.2l-0.2,0.9c0,0.1,0,0.1,0,0.2v0.1L352.3,628.8z M322.1,634.9c0-0.1,0-0.1,0-0.2
		l-0.2-0.8c0-0.1-0.1-0.1-0.1-0.2c0-0.1,0-0.1-0.1-0.2l-0.4-0.7c0-0.1-0.1-0.1-0.1-0.2l0,0l9.5-2.9L322.1,634.9z M321.3,618.7
		l0.5-0.8c0.1-0.1,0.1-0.2,0.1-0.3c0,0,0,0,0.1-0.1l0.2-0.9c0-0.1,0-0.1,0-0.2v-0.1l8.7,4.5L321.3,618.7L321.3,618.7
		C321.2,618.8,321.3,618.8,321.3,618.7z M320,624.2C320.1,624.1,320.1,624.1,320,624.2l0.3-0.9c0-0.1,0-0.1,0-0.2c0-0.1,0-0.1,0-0.2
		V622c0-0.1,0-0.1,0-0.2v-0.1l9.5,2.1L320,624.2L320,624.2z M320.3,629.7L320.3,629.7v-1c0-0.1,0-0.1,0-0.2c0-0.1,0-0.1,0-0.2
		l-0.2-0.8c0-0.1-0.1-0.1-0.1-0.2l0,0l9.9-0.4L320.3,629.7z M362.9,626.6c0,0.1,0,0.1,0,0.2c0,0.1,0,0.1,0,0.2v0.9
		c0,0.1,0,0.1,0,0.2c0,0,0,0,0,0.1L353,626l10.2-0.4c0,0.1-0.1,0.1-0.1,0.1L362.9,626.6z M362.8,620L362.8,620v1c0,0.1,0,0.1,0,0.2
		c0,0.1,0,0.2,0,0.2l0.3,0.8l0.1,0.1v0.1l-10,0.4L362.8,620z M323.7,613.9l0.1-0.1l0.6-0.6c0.1-0.1,0.1-0.1,0.1-0.2l0.1-0.1l0.5-0.8
		c0.1-0.1,0.1-0.2,0.1-0.3l7.1,6.6L323.7,613.9z M357.8,610.4c0,0.1,0,0.2,0.1,0.2l0.5,0.7l0.1,0.1c0,0.1,0.1,0.1,0.1,0.2l0.6,0.6
		l0.1,0.1l-8.5,5.1L357.8,610.4z M329.4,643L329.4,643c-0.1-0.1-0.1-0.2-0.2-0.2l-0.6-0.6c0,0-0.1-0.1-0.2-0.1s-0.1-0.1-0.1-0.1
		l-0.8-0.4c-0.1,0-0.1,0-0.2-0.1l7.1-7.2L329.4,643z M315.6,620.7L315.6,620.7C315.7,620.7,315.7,620.7,315.6,620.7l0.7,0.1l0.4,0.2
		l0.3,0.3l0.2,0.4l0.1,0.4v0.5l-0.1,0.5l-0.3,0.5l-0.4,0.4l-0.5,0.3l-0.5,0.1h-0.7l0,0l-13.3,0.5l0.8-1.4c0-0.1,0.1-0.2,0.1-0.3
		c0,0,0,0,0.1-0.1l0.4-1.5c0-0.1,0-0.1,0-0.2c0-0.1,0-0.1,0-0.2v-1.6c0-0.1,0-0.1,0-0.2c0-0.1,0-0.1,0-0.2l-0.4-1.5
		c0-0.1,0-0.1-0.1-0.1L315.6,620.7z M302.5,635l0.4-1.5c0-0.1,0-0.1,0-0.2c0-0.1,0-0.1,0-0.2v-1.6c0-0.1,0-0.1,0-0.2
		c0-0.1,0-0.1,0-0.2l-0.4-1.5c0-0.1-0.1-0.1-0.1-0.2c0-0.1,0-0.1-0.1-0.2l-0.8-1.3l-0.1-0.1l13.5-0.5l0,0h0.7l0.5,0.1l0.4,0.2
		l0.3,0.3l0.2,0.4l0.1,0.4v0.5l-0.1,0.5l-0.3,0.5l-0.4,0.4l-0.5,0.3l-0.7,0.2l0,0l0,0L302.5,635z M333.1,644.6l-0.9-0.2
		c-0.1,0-0.1,0-0.2,0l5.1-8.8l-2.6,9.8c0,0-0.1,0-0.1-0.1c-0.1,0-0.1-0.1-0.2-0.1l-0.8-0.4c-0.1,0-0.1,0-0.2-0.1
		C333.2,644.6,333.2,644.6,333.1,644.6z M367.8,629.2L367.8,629.2l-0.7-0.1l0,0l-0.4-0.2l-0.4-0.3l-0.3-0.4l-0.1-0.5v-0.5l0.1-0.5
		l0.2-0.4l0.4-0.4l0.5-0.3l0.5-0.2h0.7l13.8-0.5c0,0,0,0,0,0.1l-0.8,1.4c0,0.1,0,0.1-0.1,0.2c0,0.1-0.1,0.1-0.1,0.2l-0.4,1.5
		c0,0.1,0,0.1,0,0.2c0,0.1,0,0.1,0,0.2v1.6c0,0.1,0,0.1,0,0.2c0,0.1,0,0.1,0,0.2l0.5,1.5c0,0,0,0.1,0.1,0.1c0,0,0,0,0,0.1
		L367.8,629.2z M381,614.6L381,614.6l-0.4,1.6c0,0.1,0,0.1,0,0.2c0,0.1,0,0.1,0,0.2v1.6c0,0.1,0,0.1,0,0.2c0,0.1,0,0.1,0,0.2
		l0.5,1.5c0,0,0,0,0.1,0.1c0,0.1,0.1,0.2,0.1,0.3l0.9,1.3c0,0,0.1,0,0.1,0.1l-13.9,0.5h-0.8l-0.5-0.1l-0.4-0.2l-0.4-0.3l-0.3-0.4
		l-0.1-0.4v-0.5l0.1-0.5l0.3-0.4l0.4-0.4l0.5-0.3l0.7-0.2l0,0L381,614.6z M306,644.6V643c0-0.1,0-0.1,0-0.2c0-0.1,0-0.1,0-0.2
		l-0.4-1.5c0-0.1-0.1-0.1-0.1-0.2c0-0.1,0-0.1-0.1-0.2l-0.8-1.3c0-0.1-0.1-0.1-0.1-0.1c0-0.1-0.1-0.1-0.1-0.2l-1.1-1.1
		c0,0,0,0-0.1,0l13.1-3.9l0,0l0.7-0.2h0.5l0.5,0.1l0.4,0.2l0.3,0.3l0.2,0.4l0.1,0.4v0.5l-0.1,0.5l-0.3,0.4l-0.4,0.4l-0.6,0.4l0,0
		L306,644.6z M365.6,635.8L365.6,635.8C365.5,635.8,365.5,635.8,365.6,635.8l-0.6-0.3l-0.4-0.3l-0.3-0.4l-0.1-0.4v-0.5l0.1-0.5
		l0.2-0.4l0.4-0.4l0.5-0.3l0.5-0.2h0.5l0.7,0.2l0,0l13.4,3c0,0-0.1,0-0.1,0.1l-1.1,1.2l-0.1,0.1c0,0.1-0.1,0.1-0.1,0.1l-0.8,1.4
		c0,0.1,0,0.1-0.1,0.2c0,0.1-0.1,0.1-0.1,0.2l-0.4,1.6c0,0.1,0,0.1,0,0.2c0,0.1,0,0.1,0,0.2v1.6c0,0.1,0,0.1,0,0.2l0,0L365.6,635.8z
		 M377.1,605.2L377.1,605.2v1.6c0,0.1,0,0.1,0,0.2c0,0.1,0,0.1,0,0.2l0.5,1.5c0,0,0,0.1,0.1,0.1c0,0.1,0.1,0.2,0.1,0.3l0.8,1.3
		l0.1,0.1c0.1,0.1,0.1,0.1,0.2,0.2l1.2,1.1l0,0l-13.2,4l0,0l0,0l-0.7,0.2h-0.5l-0.5-0.1l-0.4-0.2l-0.3-0.3l-0.2-0.4l-0.1-0.4v-0.5
		l0.1-0.5l0.2-0.4l0.4-0.4l0.6-0.4l0,0L377.1,605.2z M361.7,641.7L361.7,641.7l-0.5-0.5l-0.3-0.4l-0.1-0.5v-0.5l0.1-0.5l0.2-0.4
		l0.4-0.4l0.4-0.3l0.5-0.2h0.5l0.5,0.1l0.6,0.3l0,0l12.2,6.4h-0.1l-1.4,0.8c-0.1,0-0.1,0.1-0.2,0.1s-0.1,0.1-0.2,0.1l-1.1,1.2
		c0,0-0.1,0.1-0.1,0.2c0,0.1-0.1,0.1-0.1,0.1l-0.8,1.4c0,0.1,0,0.1-0.1,0.2c0,0.1-0.1,0.1-0.1,0.2l-0.4,1.6c0,0.1,0,0.1,0,0.2
		c0,0,0,0,0,0.1L361.7,641.7z M327,603.9L327,603.9l0.3,0.6l0.1,0.4v0.4l-0.1,0.5l-0.3,0.4l-0.4,0.4l-0.5,0.3l-0.5,0.1h-0.5
		l-0.5-0.1l-0.4-0.2l-0.5-0.5l0,0l0,0l-9.3-8.7h0.1l1.5-0.5c0.1,0,0.1-0.1,0.2-0.1h0.1l1.3-0.8c0.1,0,0.1-0.1,0.1-0.1l0.1-0.1
		l1.1-1.1c0.1-0.1,0.1-0.1,0.1-0.2l0.1-0.1l0.8-1.4c0-0.1,0-0.1,0.1-0.2L327,603.9z M356.4,646.4L356.4,646.4l-0.4-0.6l-0.1-0.5
		v-0.5l0.1-0.5l0.3-0.4l0.4-0.4l0.5-0.3l0.5-0.2h0.5l0.5,0.1l0.4,0.2l0.5,0.5l0,0l0,0l10,9.3l0,0c-0.1,0-0.1,0-0.2,0l-1.6,0.5
		c-0.1,0-0.1,0.1-0.2,0.1s-0.1,0-0.2,0.1l-1.4,0.9c-0.1,0-0.1,0.1-0.1,0.1c-0.1,0-0.1,0.1-0.2,0.1l-1.2,1.2c0,0.1-0.1,0.1-0.1,0.2
		c0,0.1-0.1,0.1-0.1,0.1l-0.8,1.4c0,0.1,0,0.1-0.1,0.2c0,0,0,0,0,0.1L356.4,646.4z M397.6,639.7c-0.1,0-0.1,0.1-0.2,0.1
		s-0.1,0.1-0.2,0.1l-1.6,1.7c0,0-0.1,0.1-0.1,0.2c0,0.1-0.1,0.1-0.1,0.2l-1.1,2c0,0.1,0,0.1-0.1,0.2c0,0.1-0.1,0.1-0.1,0.2l-0.5,2.2
		c0,0.1,0,0.1,0,0.2c0,0.1,0,0.1,0,0.2l0.1,2.3c0,0.1,0,0.1,0,0.2c0,0.1,0,0.1,0,0.2l0.3,1.1l-10.1-5.3l0,0l0,0l-1.3-0.6l-0.9-0.8
		l-0.6-1l-0.3-1.1v-1.2l0.3-1.2l0.6-1.1l0.9-0.9l1.1-0.6l1.2-0.4h1.3l1.4,0.3l0,0l11,2.5L397.6,639.7z M359.1,604.8l-0.5,0.5
		l-0.5,0.3l-0.5,0.1h-0.5l-0.5-0.1l-0.4-0.2l-0.4-0.3l-0.3-0.4l-0.1-0.4v-0.5l0.1-0.5l0.3-0.6l6.7-11.7v0.1l0.8,1.3l0.1,0.1
		c0.1,0.1,0.1,0.2,0.2,0.2l1.1,1c0.1,0.1,0.1,0.1,0.2,0.1s0.1,0.1,0.1,0.1l1.4,0.7h0.1c0.1,0,0.1,0.1,0.2,0.1l1.5,0.3L359.1,604.8z
		 M287.6,610.7c0.1,0,0.1-0.1,0.1-0.1l0.1-0.1l1.6-1.6c0.1-0.1,0.1-0.1,0.1-0.2l0.1-0.1l1.1-1.9c0.1-0.1,0.1-0.2,0.1-0.3
		c0,0,0,0,0.1-0.1l0.6-2.1c0-0.1,0-0.1,0-0.2c0-0.1,0-0.1,0-0.2v-2.1c0-0.1,0-0.1,0-0.2c0-0.1,0-0.1,0-0.2l-0.3-1l9.2,4.8l0,0
		l1.2,0.6l0.8,0.8l0.6,0.9l0.3,1.1v1.1l-0.3,1.1l-0.6,1l-0.9,0.9l-1.1,0.6l-1.1,0.3h-1.2l-1.3-0.3l0,0l-10.1-2.2L287.6,610.7z
		 M324.3,660.7l-1.6,0.1c0,0,0,0-0.1,0l6.9-12l0,0l0,0l0.4-0.6l0.4-0.4l0.5-0.3l0.5-0.2h0.5l0.5,0.1l0.4,0.2l0.4,0.3l0.2,0.4
		l0.1,0.5v0.5l-0.2,0.7l0,0l0,0l-3.6,13.4l-0.1-0.1l-1.1-1.1c0,0-0.1-0.1-0.2-0.1s-0.1-0.1-0.2-0.1l-1.4-0.8c-0.1,0-0.1,0-0.2-0.1
		c-0.1,0-0.1-0.1-0.2-0.1l-1.6-0.4C324.5,660.6,324.4,660.6,324.3,660.7C324.4,660.7,324.4,660.7,324.3,660.7z M336.2,663.5
		l-1.6,0.1c-0.1,0-0.1,0-0.2,0s-0.1,0-0.2,0l-1.6,0.5c0,0-0.1,0-0.1,0.1l3.6-13.3l0,0l0.2-0.7l0.3-0.5l0.4-0.4l0.5-0.3l0.5-0.2h0.5
		l0.5,0.1l0.4,0.2l0.4,0.3l0.3,0.4l0.1,0.5v0.7l0,0l0,0l0.1,13.8l0,0c-0.1,0-0.1-0.1-0.1-0.1l-1.4-0.8c-0.1,0-0.1,0-0.2-0.1
		c-0.1,0-0.1-0.1-0.2-0.1l-1.6-0.4c-0.1,0-0.1,0-0.2,0C336.3,663.5,336.3,663.5,336.2,663.5z M383.3,584.4v0.9c0,0.1,0,0.1,0,0.2
		c0,0.1,0,0.1,0,0.2l0.6,2.1c0,0,0,0.1,0.1,0.1c0,0.1,0.1,0.2,0.1,0.3l1.2,1.8l0.1,0.1c0.1,0.1,0.1,0.1,0.2,0.2l1.6,1.5
		c0.1,0.1,0.1,0.1,0.2,0.1s0.1,0.1,0.1,0.1l2,1c0.1,0,0.1,0,0.2,0s0.1,0.1,0.2,0.1l0.9,0.2l-9.4,5.7l0,0l0,0l-1.2,0.7l-1.2,0.4
		l-1.2,0.1l-1.2-0.3l-1.1-0.5l-0.9-0.8l-0.6-1l-0.3-1.1v-1.1l0.3-1.1l0.6-1l1-1l0,0L383.3,584.4z M317,587.5L317,587.5L317,587.5
		l0.7,1.1l0.3,1.1v1.1l-0.3,1.1l-0.6,1l-0.9,0.9l-1,0.6l-1.2,0.4l-1.2,0.1l-1.1-0.2l-1-0.5l-1-0.9l0,0l-7.3-6.9l1-0.1h0.1
		c0.1,0,0.2,0,0.3,0l2.1-0.6c0.1,0,0.1-0.1,0.2-0.1h0.1l1.9-1.1c0.1,0,0.1-0.1,0.1-0.1l0.1-0.1l1.6-1.6c0.1-0.1,0.1-0.1,0.1-0.2
		l0.1-0.1l1.1-1.9c0.1-0.1,0.1-0.2,0.1-0.3c0,0,0,0,0.1-0.1l0.3-1L317,587.5z M299.1,665.9v-1c0-0.1,0-0.1,0-0.2c0-0.1,0-0.1,0-0.2
		l-0.6-2.2c0-0.1-0.1-0.1-0.1-0.2c0-0.1,0-0.1-0.1-0.2l-1.1-1.9c0-0.1-0.1-0.1-0.1-0.1c0-0.1-0.1-0.1-0.1-0.2l-1.6-1.6
		c-0.1-0.1-0.1-0.1-0.2-0.1s-0.1-0.1-0.2-0.1l-1.9-1.1c-0.1,0-0.1,0-0.2-0.1c-0.1,0-0.1-0.1-0.2-0.1l-0.9-0.2l9.5-5.8l0,0l1.2-0.7
		l1.2-0.4h1.2l1.1,0.3l1,0.6l0.8,0.8l0.6,1l0.3,1.1v1.2l-0.3,1.2l-0.6,1.1l-1,1L299.1,665.9z M348.7,663.2l-1.6,0.1
		c-0.1,0-0.1,0-0.2,0s-0.1,0-0.2,0l-1.6,0.5c-0.1,0-0.1,0.1-0.2,0.1s-0.1,0-0.2,0.1l-1.4,0.9c-0.1,0-0.1,0.1-0.1,0.1l-0.1-13.7v-0.7
		l0.1-0.5l0.3-0.5l0.4-0.4l0.5-0.3l0.5-0.2h0.5l0.5,0.1l0.4,0.2l0.4,0.4l0.3,0.4l0.2,0.7l0,0l0,0l3.7,13.2l0,0
		c-0.1,0-0.1-0.1-0.2-0.1l-1.6-0.4c-0.1,0-0.1,0-0.2,0C348.8,663.2,348.7,663.2,348.7,663.2z M271.2,605.9c0.1,0,0.1-0.1,0.2-0.1
		l2.1-2.1c0.1-0.1,0.1-0.1,0.1-0.2l0.1-0.1l1.5-2.5c0.1-0.1,0.1-0.2,0.1-0.3l0.1-0.1l0.8-2.7c0-0.1,0-0.1,0-0.2c0-0.1,0-0.1,0-0.2
		l0.1-2.8c0-0.1,0-0.1,0-0.2c0-0.1,0-0.1,0-0.2l-0.6-2.2l8.9,4.6l0,0l1.7,0.9l1.2,1.2l0.9,1.4l0.4,1.7v1.7l-0.5,1.7l-0.9,1.6
		l-1.3,1.3l-1.6,1l-1.8,0.5l-1.8,0.1l-1.9-0.4l-9.7-2.2l2-1.2C271.1,606,271.1,605.9,271.2,605.9z M302.2,668h-1l7.9-8l1-1l1.1-0.6
		l1.2-0.4h1.2l1.2,0.3l1,0.6l0.9,0.8l0.6,1l0.3,1.2v1.2l-0.3,1.2l-0.7,1.3l0,0l0,0l-5.7,9.8l-0.3-1c0-0.1-0.1-0.1-0.1-0.2
		c0-0.1,0-0.1-0.1-0.2l-1.1-1.9c0-0.1-0.1-0.1-0.1-0.2c0-0.1-0.1-0.1-0.1-0.2l-1.6-1.6c-0.1-0.1-0.1-0.1-0.2-0.1s-0.1-0.1-0.1-0.1
		l-2-1.1c-0.1,0-0.1,0-0.2-0.1c-0.1,0-0.1-0.1-0.2-0.1l-2.2-0.5c-0.1,0-0.1,0-0.2,0C302.4,668,302.3,668,302.2,668z M317.2,676.3
		l-2.3,0.1c-0.1,0-0.1,0-0.2,0s-0.1,0-0.2,0l-1,0.3l5.6-9.8l0,0l0.7-1.3l0.9-0.9l1.1-0.7l1.2-0.4h1.2l1.2,0.3l1.1,0.6l0.8,0.8l0.6,1
		l0.3,1.2v1.2l-0.4,1.4l0,0l-2.9,11l-0.6-1c0-0.1-0.1-0.1-0.1-0.2c0-0.1-0.1-0.1-0.1-0.2l-1.6-1.6c-0.1,0-0.1-0.1-0.2-0.1
		s-0.1-0.1-0.2-0.1l-2-1.1c-0.1,0-0.1,0-0.2-0.1c-0.1,0-0.1-0.1-0.2-0.1l-2.2-0.5c-0.1,0-0.1,0-0.2,0
		C317.3,676.3,317.2,676.3,317.2,676.3z M334.1,680.3l-2.3,0.1c-0.1,0-0.1,0-0.2,0s-0.1,0-0.2,0l-2.2,0.7c-0.1,0-0.1,0.1-0.2,0.1
		s-0.1,0-0.2,0.1l-1,0.6l2.9-10.9l0,0l0,0l0.4-1.4l0.6-1.1l0.9-0.9l1.1-0.6l1.2-0.4h1.2l1.2,0.3l1.1,0.6l0.9,0.8l0.6,1l0.3,1.2v1.4
		l0,0l0,0v11.4l-0.9-0.8c-0.1,0-0.1-0.1-0.2-0.1s-0.1-0.1-0.2-0.1l-2-1.1c-0.1,0-0.1,0-0.2-0.1c-0.1,0-0.1-0.1-0.2-0.1l-2.2-0.5
		c-0.1,0-0.1,0-0.2,0C334.1,680.4,334.1,680.4,334.1,680.3z M351.7,679.9l-2.3,0.1c-0.1,0-0.1,0-0.2,0s-0.1,0-0.2,0l-2.2,0.7
		c-0.1,0-0.1,0.1-0.2,0.1s-0.1,0-0.2,0.1l-2,1.2c-0.1,0-0.1,0.1-0.1,0.1c-0.1,0-0.1,0.1-0.2,0.1l-0.8,0.9v-11.3v-1.4l0.3-1.2
		l0.6-1.1l0.9-0.9l1.1-0.7l1.2-0.3h1.3l1.2,0.3l1.1,0.6l0.9,0.8l0.6,1l0.4,1.4l0,0l3.1,10.9l-1.1-0.6c-0.1,0-0.1,0-0.2-0.1
		c-0.1,0-0.1-0.1-0.2-0.1l-2.2-0.5c-0.1,0-0.1,0-0.2,0C351.8,679.9,351.8,679.9,351.7,679.9z M394.6,679.2c-0.1,0-0.1,0-0.2,0
		s-0.1,0-0.2,0l-3,0.9c-0.1,0-0.1,0.1-0.2,0.1s-0.1,0-0.2,0.1l-2.7,1.6c-0.1,0-0.1,0.1-0.1,0.1c-0.1,0-0.1,0.1-0.2,0.1l-2.2,2.2
		c-0.1,0.1-0.1,0.1-0.1,0.2c0,0.1-0.1,0.1-0.1,0.1l-1.5,2.7c0,0.1,0,0.1-0.1,0.2c0,0.1-0.1,0.1-0.1,0.2l-0.7,2.7l-5.9-9.7l0,0
		l-1.1-1.8l-0.5-1.9v-1.9l0.5-1.9l0.9-1.7l1.4-1.4l1.7-1l1.9-0.6l2-0.1l1.9,0.4l1.7,0.9l1.6,1.4l8.3,7.7L394.6,679.2z M290,682
		l-2.5,0.1l7.7-7.9l0,0l1.5-1.5l1.6-1l1.8-0.6h1.9l1.8,0.4l1.6,0.9l1.3,1.3l0.9,1.6l0.5,1.8v1.9l-0.5,1.9l-1.1,1.9l0,0l0,0l-5.6,9.7
		l-0.6-2.5c0-0.1-0.1-0.1-0.1-0.2c0-0.1,0-0.1-0.1-0.2l-1.5-2.6c0-0.1-0.1-0.1-0.1-0.2c0-0.1-0.1-0.1-0.1-0.2l-2.1-2.1
		c-0.1-0.1-0.1-0.1-0.2-0.1s-0.1-0.1-0.2-0.1l-2.6-1.4c-0.1,0-0.1,0-0.2-0.1c-0.1,0-0.1-0.1-0.2-0.1L290,682c-0.1,0-0.2,0-0.3,0
		C290,682,290,682,290,682z M437.1,650.9c-0.1,0-0.1,0.1-0.1,0.1c-0.1,0-0.1,0.1-0.2,0.1l-2.7,2.8c-0.1,0.1-0.1,0.1-0.1,0.2
		c0,0.1-0.1,0.1-0.1,0.1l-1.9,3.4c0,0.1,0,0.1-0.1,0.2c0,0.1-0.1,0.1-0.1,0.2l-0.9,3.8c0,0.1,0,0.1,0,0.2c0,0.1,0,0.1,0,0.2l0.1,3.9
		c0,0.1,0,0.1,0.1,0.2c0,0.1,0,0.1,0,0.2l1.2,3.8l0.1,0.1c0,0.1,0.1,0.2,0.1,0.3l0.2,0.3l-12.2-6.4l0,0l-2.6-1.3l-2-1.8l-1.4-2.3
		l-0.8-2.5l-0.1-2.6l0.6-2.6l1.3-2.3l1.8-1.9l2.3-1.4l2.6-0.8l2.7-0.1l2.9,0.6l13.3,3l-0.2,0.1c-0.1,0-0.1,0.1-0.2,0.1
		s-0.1,0-0.2,0.1L437.1,650.9z M438.1,594.1c0.1,0,0.1,0,0.2,0s0.1,0.1,0.2,0.1l0,0L426,598l0,0l-2.7,0.8l-2.7,0.1l-2.6-0.5
		l-2.3-1.2l-1.9-1.7l-1.4-2.1l-0.8-2.4l-0.1-2.4l0.6-2.4l1.2-2.2l1.8-1.8l2.4-1.4l11.1-6.7c0,0.1,0,0.1-0.1,0.2
		c0,0.1-0.1,0.1-0.1,0.2l-0.9,3.6c0,0.1,0,0.1,0,0.2c0,0.1,0,0.1,0,0.2l0.1,3.6c0,0.1,0,0.1,0.1,0.2c0,0.1,0,0.1,0,0.2l1.1,3.5
		c0,0,0,0,0.1,0.1c0,0.1,0.1,0.2,0.1,0.3l2.1,3.1l0.1,0.1c0.1,0.1,0.1,0.1,0.2,0.2l2.9,2.5c0.1,0.1,0.1,0.1,0.2,0.1l0.1,0.1
		L438.1,594.1z M251.9,600.6c0.1,0,0.1-0.1,0.1-0.1c0.1,0,0.1-0.1,0.2-0.1l2.6-2.6c0.1-0.1,0.1-0.1,0.1-0.2l0.1-0.1l1.9-3.2
		c0.1-0.1,0.1-0.2,0.1-0.3l0.1-0.1l1-3.5c0-0.1,0-0.1,0-0.2c0-0.1,0-0.1,0-0.2l0.1-3.5c0-0.1,0-0.1,0-0.2c0-0.1,0-0.1,0-0.2
		l-0.8-3.3c0-0.1-0.1-0.1-0.1-0.2c0-0.1,0-0.1-0.1-0.2l0,0l10.3,5.4l0,0l2.2,1.2l1.7,1.6l1.2,2l0.6,2.2l-0.1,2.4l-0.7,2.4l-1.3,2.2
		l-1.8,1.8l-2.2,1.3l-2.4,0.7l-2.5,0.1l-2.5-0.6l0,0l-11.3-2.5c0.1,0,0.1-0.1,0.1-0.1h0.1L251.9,600.6z M246.8,655.1
		c-0.1,0-0.1,0-0.2-0.1c-0.1,0-0.1-0.1-0.2-0.1l12.2-3.7l0,0l2.6-0.8l2.5-0.1l2.4,0.6l2.1,1.2l1.7,1.7l1.2,2.1l0.6,2.4l-0.1,2.6
		l-0.7,2.5l-1.3,2.3l-1.9,1.9l-2.4,1.5l-10.9,6.6c0-0.1,0-0.1,0.1-0.2l0.1-0.1l1.1-3.7c0-0.1,0-0.1,0-0.2c0-0.1,0-0.1,0-0.2l0.1-3.8
		c0-0.1,0-0.1,0-0.2c0-0.1,0-0.1,0-0.2l-0.8-3.6c0-0.1-0.1-0.1-0.1-0.2c0-0.1,0-0.1-0.1-0.2L253,660c0-0.1-0.1-0.1-0.1-0.2
		c0-0.1-0.1-0.1-0.1-0.2l-2.5-2.6c-0.1-0.1-0.1-0.1-0.2-0.1c-0.1,0-0.1-0.1-0.2-0.1L246.8,655.1z"/>
</g>
<g id="Layer_2_1_">
	<g>
		<g>
			<circle class="st2" cx="1243.2" cy="403" r="71.7"/>
			<path class="st3" d="M572.4,461.1c0.7,0,1.4,0,2.2,0c32.2,0,58.3-17.1,58.3-38.2s-26.1-38.2-58.3-38.2c-1.4,0-2.8,0-4.1,0.1
				c2.6-4.4,4.1-9.1,4.1-14.1c0-21.1-26.1-38.2-58.3-38.2c-0.2,0-0.4,0-0.5,0c-3.8-18.7-28.3-33.1-57.8-33.1
				c-28.3,0-51.8,13.2-57.2,30.7c-6-1.4-12.4-2.1-19.1-2.1c-20.4,0-38.3,6.8-48.7,17.2c-25.3,2.4-45.4,15.4-49.3,31.9
				c-8.7-3.4-19-5.4-29.9-5.4c-31.2,0-56.7,16-58.3,36.2c-17.5,6.6-29.3,19-29.3,33.1c0,21.1,26.1,38.2,58.4,38.2c0.2,0,0.4,0,0.5,0
				c3.8,18.7,28.3,33.1,57.8,33.1c7.1,0,13.8-0.8,20.1-2.3c6.3,1.5,13.1,2.4,20.3,2.4c0.2,0,0.4,0,0.5,0
				c3.8,18.7,28.3,33.1,57.8,33.1c4.3,0,8.4-0.3,12.4-0.9c10.7,8.9,27.3,14.7,45.9,14.7c25.2,0,46.7-10.5,54.9-25.2
				c10.2-3.1,18.8-8.1,24.8-14.2c10.4,10.7,28.5,17.7,49.2,17.7c32.2,0,58.4-17.1,58.4-38.2C627.2,478.9,603,462.3,572.4,461.1z
				 M520.4,408.8c-2.6,4.4-4.1,9.1-4.1,14.1c0,1.8,0.2,3.5,0.6,5.3c-1.3-0.1-2.6-0.1-3.9-0.2c-3.5-6.6-9.7-12.3-17.7-16.7
				c0.8-1.5,1.4-3,1.9-4.5c6,1.4,12.4,2.1,19.1,2.1C517.6,408.9,519,408.9,520.4,408.8z M568.3,461v-0.1c0.9,0.1,1.8,0.1,2.7,0.1
				c-0.7,0-1.4,0-2.2,0C568.7,461,568.5,461,568.3,461z"/>
			<path class="st3" d="M487.7,844.5c0.3,0,0.7,0,1,0c15.1,0,27.3-8,27.3-17.9s-12.2-17.9-27.3-17.9c-0.6,0-1.3,0-1.9,0
				c1.2-2,1.9-4.3,1.9-6.6c0-9.9-12.2-17.9-27.3-17.9c-0.1,0-0.2,0-0.3,0c-1.8-8.7-13.2-15.5-27.1-15.5c-13.2,0-24.3,6.2-26.8,14.3
				c-2.8-0.6-5.8-1-9-1c-9.5,0-17.9,3.2-22.8,8c-11.8,1.1-21.2,7.2-23.1,14.9c-4.1-1.6-8.9-2.5-14-2.5c-14.6,0-26.5,7.5-27.3,16.9
				c-8.2,3.1-13.7,8.9-13.7,15.5c0,9.9,12.2,17.9,27.3,17.9c0.1,0,0.2,0,0.3,0c1.8,8.7,13.2,15.5,27.1,15.5c3.3,0,6.5-0.4,9.4-1.1
				c3,0.7,6.2,1.1,9.5,1.1c0.1,0,0.2,0,0.3,0c1.8,8.7,13.2,15.5,27.1,15.5c2,0,3.9-0.1,5.8-0.4c5,4.2,12.8,6.9,21.5,6.9
				c11.8,0,21.9-4.9,25.7-11.8c4.8-1.4,8.8-3.8,11.6-6.7c4.8,5,13.4,8.3,23.1,8.3c15.1,0,27.3-8,27.3-17.9
				C513.3,852.8,502,845,487.7,844.5z M485.7,844.4L485.7,844.4c0.4,0,0.8,0,1.3,0c-0.3,0-0.7,0-1,0
				C485.9,844.4,485.8,844.4,485.7,844.4z"/>
			<path class="st3" d="M337.8,772.2c0.3,0,0.7,0,1,0c15.1,0,27.3-8,27.3-17.9s-12.2-17.9-27.3-17.9c-0.6,0-1.3,0-1.9,0
				c1.2-2,1.9-4.3,1.9-6.6c0-9.9-12.2-17.9-27.3-17.9c-0.1,0-0.2,0-0.3,0c-1.8-8.7-13.2-15.5-27.1-15.5c-13.2,0-24.3,6.2-26.8,14.3
				c-2.8-0.6-5.8-1-9-1c-9.5,0-17.9,3.2-22.8,8c-11.8,1.1-21.2,7.2-23.1,14.9c-4.1-1.6-8.9-2.5-14-2.5c-14.6,0-26.5,7.5-27.3,16.9
				c-8.2,3.1-13.7,8.9-13.7,15.5c0,9.9,12.2,17.9,27.3,17.9c0.1,0,0.2,0,0.3,0c1.8,8.7,13.2,15.5,27.1,15.5c3.3,0,6.5-0.4,9.4-1.1
				c3,0.7,6.2,1.1,9.5,1.1c0.1,0,0.2,0,0.3,0c1.8,8.7,13.2,15.5,27.1,15.5c2,0,3.9-0.1,5.8-0.4c5,4.2,12.8,6.9,21.5,6.9
				c11.8,0,21.9-4.9,25.7-11.8c4.8-1.4,8.8-3.8,11.6-6.7c4.8,5,13.4,8.3,23.1,8.3c15.1,0,27.3-8,27.3-17.9
				C363.5,780.6,352.1,772.8,337.8,772.2z M825.5,614.8c0.3,0,0.7,0,1,0c15.1,0,27.3-8,27.3-17.9S841.6,579,826.5,579
				c-0.6,0-1.3,0-1.9,0c1.2-2,1.9-4.3,1.9-6.6c0-9.9-12.2-17.9-27.3-17.9c-0.1,0-0.2,0-0.3,0c-1.8-8.7-13.2-15.5-27.1-15.5
				c-13.2,0-24.3,6.2-26.8,14.3c-2.8-0.6-5.8-1-9-1c-9.5,0-17.9,3.2-22.8,8c-11.8,1.1-21.2,7.2-23.1,14.9c-4.1-1.6-8.9-2.5-14-2.5
				c-14.6,0-26.5,7.5-27.3,16.9c-8.2,3.1-13.7,8.9-13.7,15.5c0,9.9,12.2,17.9,27.3,17.9c0.1,0,0.2,0,0.3,0
				c1.8,8.7,13.2,15.5,27.1,15.5c3.3,0,6.5-0.4,9.4-1.1c3,0.7,6.2,1.1,9.5,1.1c0.1,0,0.2,0,0.3,0c1.8,8.7,13.2,15.5,27.1,15.5
				c2,0,3.9-0.1,5.8-0.4c5,4.2,12.8,6.9,21.5,6.9c11.8,0,21.9-4.9,25.7-11.8c4.8-1.4,8.8-3.8,11.6-6.7c4.8,5,13.4,8.3,23.1,8.3
				c15.1,0,27.3-8,27.3-17.9C851.2,623.1,839.8,615.3,825.5,614.8z M335.9,772.2L335.9,772.2c0.4,0,0.8,0,1.3,0c-0.3,0-0.7,0-1,0
				C336.1,772.2,336,772.2,335.9,772.2z"/>
			<path class="st3" d="M843.4,537.1c0.8,0,1.7,0,2.5,0c37,0,67-12.4,67-27.8c0-15.4-30-27.8-67-27.8c-1.6,0-3.2,0-4.7,0.1
				c3-3.2,4.7-6.6,4.7-10.3c0-15.4-30-27.8-67-27.8c-0.2,0-0.4,0-0.6,0c-4.4-13.6-32.4-24-66.3-24c-32.4,0-59.5,9.6-65.7,22.3
				c-6.9-1-14.3-1.5-22-1.5c-23.4,0-43.9,5-55.9,12.5c-29.1,1.7-52.1,11.2-56.6,23.2c-10-2.5-21.8-3.9-34.3-3.9
				c-35.8,0-65,11.7-66.9,26.3c-20.1,4.8-33.6,13.8-33.6,24.1c0,15.4,30,27.8,67,27.8c0.2,0,0.4,0,0.6,0c4.4,13.6,32.4,24,66.3,24
				c8.1,0,15.9-0.6,23.1-1.7c7.2,1.1,15.1,1.7,23.3,1.7c0.2,0,0.4,0,0.6,0c4.4,13.6,32.4,24,66.3,24c4.9,0,9.7-0.2,14.3-0.6
				c12.3,6.5,31.3,10.7,52.7,10.7c29,0,53.6-7.6,63-18.3c11.7-2.2,21.6-5.9,28.5-10.3c11.9,7.8,32.7,12.9,56.5,12.9
				c37,0,67-12.4,67-27.8C906.3,550.1,878.5,538,843.4,537.1z M838.7,537.1C838.7,537,838.7,537,838.7,537.1c1,0,2.1,0,3.1,0
				c-0.8,0-1.7,0-2.5,0C839.2,537.1,838.9,537.1,838.7,537.1z"/>
			<path class="st1" d="M725.1,424.4c0,18.6,30,33.6,67,33.6c23.8,0,44.6-6.2,56.5-15.6c6.9,5.4,16.8,9.8,28.5,12.5
				c9.3,12.9,34,22.2,63,22.2c21.4,0,40.5-5.1,52.7-12.9c4.6,0.5,9.4,0.8,14.3,0.8c33.9,0,61.9-12.7,66.3-29.1c0.2,0,0.4,0,0.6,0
				c8.2,0,16-0.7,23.3-2.1c7.2,1.3,15,2,23.1,2c33.9,0,61.9-12.7,66.3-29.1c0.2,0,0.4,0,0.6,0c37,0,67-15.1,67-33.6
				c0-12.5-13.5-23.3-33.6-29.2c-1.8-17.8-31.1-31.9-66.9-31.9c-12.5,0-24.3,1.7-34.3,4.7c-4.5-14.5-27.5-26-56.6-28.1
				c-12-9.1-32.5-15.1-55.9-15.1c-7.7,0-15.1,0.7-22,1.9c-6.1-15.4-33.2-27-65.7-27c-33.9,0-61.9,12.7-66.3,29.1c-0.2,0-0.4,0-0.6,0
				c-37,0-67,15.1-67,33.6c0,4.4,1.7,8.6,4.7,12.4c-1.6-0.1-3.1-0.1-4.7-0.1c-37,0-67,15.1-67,33.6c0,18.6,30,33.6,67,33.6
				c0.8,0,1.7,0,2.5,0C752.9,391.9,725.1,406.5,725.1,424.4z M852.5,344.9c7.7,0,15.1-0.7,22-1.9c0.5,1.4,1.3,2.7,2.1,4
				c-9.2,3.8-16.2,8.9-20.3,14.7c-1.5,0-3,0.1-4.5,0.2c0.4-1.5,0.6-3.1,0.6-4.6c0-4.4-1.7-8.6-4.7-12.4
				C849.3,344.9,850.9,344.9,852.5,344.9z M792.1,390.8c-0.8,0-1.7,0-2.5,0c1.1,0,2.1-0.1,3.1-0.1v0.1
				C792.5,390.8,792.3,390.8,792.1,390.8z"/>
			<path class="st1" d="M206.5,959.2c75.7-64,157-123.1,242.9-176.9c120-75,252.3-140.4,398.3-165.9c-123.7,8.2-243,45-352.6,94.3
				C385.4,760,284.3,821.8,183.6,883.3"/>
			<path class="st1" d="M537.4,443.1c131.2-25.7,265.9-36.1,400.1-46.3c-123.8,5.8-247.8,11.6-370.4,27.7s-244,42.7-355.7,88.2
				c-15.4,6.3-30.9,13.1-42.2,24c-7.7,7.4-23.6,33-9.3,40.4c12.5,6.5,37-14.7,46.4-19.9c33.3-18.5,68.3-34.8,104.3-49.2
				C383,479.2,459.5,458.3,537.4,443.1z"/>
			<path class="st1" d="M884.1,308.6c-53.9,19.7-107.9,39.3-161.8,59c-26.3,9.6-52.6,19.2-78.9,28.7c-21.3,7.8-49,23.1-71.8,24.9
				c4-32.5,100.3-56.2,130.1-66.5C760.6,334.5,821.8,319,884.1,308.6z"/>
			<g>
				<g>
					<polyline class="st1" points="344.4,1330.5 328.6,1311.6 311,1293 311.9,1266.2 293,1247.6 292,1222.1 279.2,1200.9 
						274.7,1176.8 267.3,1153.7 266.1,1129 261.5,1105.2 255.2,1081.9 238.2,1061 240.1,1035.7 240.7,1010.9 236.3,987.2 
						226.2,964.4 219.8,940.9 210.7,917.8 210.9,893.2 212.8,868.5 206.3,844.9 202.7,820.9 201,796.7 195.6,772.9 200,748.2 
						189.2,724.7 195.5,700 193,675.8 197.1,651.4 189.8,627.5 194.4,603.1 183.3,579 182.7,554.7 189.6,530.5 192.5,506.4 
						195.5,482.3 198.8,458.2 193.1,433.6 192.1,409.2 191.6,384.8 198.5,361.1 203.1,337.2 202.8,312.6 208.7,288.9 212.7,264.9 
						227.6,243.5 234.4,220.5 231.3,194.3 244.8,173.3 256.3,152 258.8,126.5 262.3,102.4 237.6,94.3 213.9,89.6 191,80.9 
						167.7,70.9 142.4,77.6 118.1,76.5 94.2,65.2 69.6,71.8 45.2,70.6 20.9,75.7 -4,64.1 -23.6,76.8 -32.6,96.6 -25.1,120.4 
						-22.3,144.2 -33.1,168 -32.2,191.8 -26.1,215.6 -31.4,239.4 -28.7,263.2 -33.2,287.1 -22.6,310.9 -23.9,334.7 -24.2,358.5 
						-25.8,382.3 -34.7,406.1 -21.1,429.9 -21.9,453.7 -24,477.5 -22.5,501.3 -32.1,525.1 -21.9,548.9 -23.9,572.7 -24.8,596.5 
						-33.6,620.3 -21.3,644.2 -21.3,668 -28.9,691.8 -29.5,715.6 -23,739.4 -29,763.2 -23.6,787 -29.2,810.8 -28.6,834.6 
						-27.5,858.5 -22.2,882.3 -26.2,906.1 -22.4,929.9 -25.3,953.7 -34.8,977.5 -28.7,1001.3 -33.1,1025.1 -24.7,1049 -27.2,1072.8 
						-26.7,1096.6 -28.4,1120.4 -26.7,1144.2 -26,1168 -30.2,1191.8 -22.8,1215.6 -22.9,1239.4 -33.2,1263.2 -23.4,1287 
						-24.1,1310.8 -2.9,1306.2 19.1,1310.3 41.4,1301.7 61.3,1312.9 84.9,1310.2 111.7,1311.1 136,1305.8 166.4,1298.7 					"/>
				</g>
				<path class="st1" d="M172.2,1236.4c48.7-51.7,112.9-90.9,176.3-129.5c41.3-25.2,82.7-50.4,124-75.5
					c-88.5,65-177,129.9-265.5,194.9"/>
				<path class="st1" d="M788.4,1113.2c-118.1,32.5-507.5,119-629.3,139.4c1.6-0.3,7.6-9.9,8.9-11.2c3.6-3.9,7.5-7.6,11.8-11
					c7.2-5.7,15.9-12.1,25.7-14.3c7-1.6,14.4-0.5,21.6-1c12.8-1,25.6-4.7,38.1-7.1c53.3-10.5,107.1-18.9,161.3-25.4
					C457.2,1178.7,757.3,1115.6,788.4,1113.2z"/>
				<path class="st1" d="M229.7,1192.2c-8.4,4.4-16,15.6-23.2,21.7c-8.3,7.1-17.1,13.7-26.2,20c-18.5,12.7-38.5,23.8-59.7,33.1
					c-10.5,4.6-21.2,8.7-32.1,12.4c-6.5,2.2-24.3,5.1-14.5-4.6c8-7.9,26-13.8,36.5-19.3c12.1-6.4,24.3-12.9,36.4-19.3
					C174.5,1221.5,202.1,1206.9,229.7,1192.2z"/>
				<path class="st1" d="M482,1143.8c-55.4-6.9-111.6-9.4-167.6-7.6c-0.7,0-4.9,6.4-4.9,6.8c0.7,3.5-0.1,1.2,4.1,2.5
					c6,1.9,17.9-0.2,24.4-0.3c15.9-0.2,31.8-0.3,47.7-0.5C417.8,1144.4,449.9,1144.1,482,1143.8z"/>
			</g>
			<path class="st2" d="M923.3,28.1"/>
		</g>
	</g>
</g>
<g id="Layer_3" class="st4">
	<g class="st5">
		<g>
			<path class="st6" d="M507.2,801.2c-5.7,0-31.1-1-47.8-17.2c-10-9.6-14.8-22.5-14.8-38.2V643c0-0.5,0-15.3-9.1-24.8
				c-5.7-5.7-13.9-8.6-24.4-8.6h-14.8c-4.3,0-8.1-3.3-8.1-8.1s3.3-8.1,8.1-8.1h14.8c10.5,0,18.6-2.9,24.4-8.6
				c9.6-9.6,9.1-24.4,9.1-24.4V457.1c0-44.9,39.2-60.7,60.2-62.6c0.5,0,0.5,0,1,0h53c4.3,0,8.1,3.3,8.1,8.1c0,4.3-3.3,8.1-8.1,8.1
				h-52.6c-4.3,0.5-45.4,6.7-45.4,46.8v102.7c0,0.5,0.5,21.5-13.9,35.8c-1.9,1.9-4.3,3.8-6.7,5.7c2.4,1.4,4.8,3.3,6.7,5.7
				c13.9,14.3,13.9,34.9,13.9,35.8v102.7c0,11.5,3.3,20.1,10,26.8c13.9,13.4,37.8,12.9,37.8,12.9h49.2c4.3,0,8.1,3.3,8.1,8.1
				s-3.3,8.1-8.1,8.1h-48.7C508.2,801.2,507.7,801.2,507.2,801.2z"/>
		</g>
		<g>
			<path class="st6" d="M840.3,801.2c-0.5,0-1,0-1,0H791c-4.3,0-8.1-3.3-8.1-8.1c0-4.3,3.3-8.1,8.1-8.1h48.7
				c0.5,0,21.5,0.5,33.9-11.9c6.7-6.7,10-15.8,10-27.7V642.5c0-0.5-0.5-21.5,13.9-35.8c1.9-1.9,4.3-3.8,6.7-5.7
				c-2.4-1.4-4.8-3.3-6.7-5.7c-13.9-14.3-13.9-34.9-13.9-35.8V456.6c0-40.1-36.8-46.4-41.1-46.8h-52.6c-4.3,0-8.1-3.3-8.1-8.1
				s3.3-8.1,8.1-8.1h53c0.5,0,0.5,0,1,0c19.1,1.9,55.4,17.7,55.4,62.6v102.7c0,0.5,0,15.3,9.1,24.8c5.7,5.7,13.9,8.6,24.4,8.6h14.8
				c4.3,0,8.1,3.3,8.1,8.1s-3.3,8.1-8.1,8.1H933c-10.5,0-18.6,2.9-24.4,8.6c-9.6,9.6-9.1,24.4-9.1,24.4v103.2
				c0,16.2-5.3,29.6-15.3,39.2C868.5,800.2,845.6,801.2,840.3,801.2z"/>
		</g>
		
			<linearGradient id="SVGID_1_" gradientUnits="userSpaceOnUse" x1="679.0706" y1="527.8971" x2="670.7501" y2="977.1945" gradientTransform="matrix(0.9999 -1.059175e-02 -1.059175e-02 -0.9999 0.8742 1389.1831)">
			<stop  offset="0" style="stop-color:#656F70"/>
			<stop  offset="0.5376" style="stop-color:#8A9899"/>
			<stop  offset="0.9624" style="stop-color:#D8EDEF"/>
		</linearGradient>
		<path class="st7" d="M781,792.1c-1.4,0-2.4-0.5-3.3-1.9l-9.1-15.8l-1.4-0.5c-33.9-10.5-67.9-15.8-101.8-15.3
			c-32,0.5-64.5,5.7-96.5,15.8l-1.4,0.5l-9.1,15.8c-0.5,1-1.9,1.9-3.3,1.9c-0.5,0-1.4,0-1.9-0.5c-1.9-1-2.4-3.3-1.4-5.3l9.1-15.8
			l-0.5-1.4c-14.8-67.4-44.9-121.4-95.6-168.2l-1-1h-37.3c-1,0-2.4-1.9-2.9-2.9c-0.5-0.5-1-1.4-1-2.9c0-1.9,1.9-1.9,4.3-1.9h37.3
			l1-1c50.7-46.8,80.8-108.5,95.6-175.9l0.5-1.4l-9.1-15.8c-1-1.9-0.5-4.3,1.4-5.3c0.5-0.5,1-0.5,1.9-0.5c1.4,0,2.4,0.5,3.3,1.9
			l9.1,15.8l1.4,0.5c33.9,10.5,67.9,15.8,101.8,15.3c32-0.5,64.5-5.7,96.5-15.8l1.4-0.5l9.1-15.8c0.5-1,1.9-1.9,3.3-1.9
			c0.5,0,1.4,0,1.9,0.5c1,0.5,1.4,1.4,1.9,2.4s0,1.9-0.5,2.9l-9.1,15.8l0.5,1.4c14.8,67.4,52.1,129,102.7,175.9l1,1H907
			c1,0,1.9,0.5,2.9,1c0.5,0.5,1,1.4,1,2.9c0,1.9-1.4,3.8-3.8,3.8h-26.8l-1,1c-50.7,46.8-87.9,100.8-102.7,168.2l-0.5,1.4l9.1,15.8
			c1,1.9,0.5,4.3-1.4,5.3C782.5,792.1,781.5,792.1,781,792.1z M664.9,751.5c30.1-0.5,60.7,3.8,90.8,12.4l7.6,2.4l-33.5-57.8
			l-1.4-0.5c-21-3.8-42.5-5.7-64-5.3c-19.1,0-38.2,1.9-56.9,5.3l-1.4,0.5l-33.5,57.8l7.6-2.4C609,755.8,637.2,751.5,664.9,751.5z
			 M801.1,601.9c-26.3,31.1-50.2,62.6-64,100.8l-0.5,1.4l33.5,57.8l1.9-7.6c14.8-58.3,47.8-105.6,90.8-147.7l5.7-5.7h-66.9
			L801.1,601.9z M480.5,606.7c43,42.1,68.8,89.4,84.1,147.7l1.9,7.6l33.5-57.8l-0.5-1.4c-13.9-38.2-30.6-69.8-56.9-100.8l-1-1h-66.9
			L480.5,606.7z M664.4,694.6c17.7,0,35.8,1,54,3.8l6.7,1l-30.6-52.6h-1.9c-9.1-0.5-18.2-0.5-27.7-0.5c-7.2,0-14.3,0.5-22,0.5H641
			l-30.1,52.6l6.7-1C633.4,696,649.2,694.6,664.4,694.6z M730.9,602.4c-8.6,13.4-20.5,23.9-28.7,39.2l-1,1.4l30.6,52.6l2.4-6.2
			c12.4-31.5,33-56.9,54-83.1l4.3-5.3h-60.7L730.9,602.4z M555.5,606.2c21,26.3,34.4,51.6,46.8,83.1l2.4,6.2l30.1-52.6l-1-1.4
			c-8.1-15.8-12.4-26.3-21-39.2l-1-1.4h-60.7L555.5,606.2z M660.1,638.7c8.1,0,16.7,0,24.4,0h5.7l-18.6-34.4l-25.8,34.4h5.7
			C654.4,639.2,657.3,638.7,660.1,638.7z M696.9,635.4l2.9-5.3c5.3-9.1,13.9-14.8,20.1-24.4l2.9-5.3h-44.4L696.9,635.4z
			 M623.8,605.7c5.3,9.1,7.2,14.8,12.9,24.4l2.9,5.3l25.8-34.4H621L623.8,605.7z M736.6,482l0.5,1.4c13.9,38.2,37.8,77.4,64,108.5
			l1,1H869l-5.7-5.7c-43-42.1-76.5-97-91.3-155.3l-1.9-7.6L736.6,482z M701.2,543.1l1,1.4c8.1,15.8,19.6,33.9,28.2,46.8l1,1.4H792
			l-4.3-5.3c-21-26.3-41.6-59.7-54-90.8l-2.4-6.2L701.2,543.1z M678.3,593.3h44.4l-2.9-5.3c-5.3-9.1-14.3-22-20.1-32l-2.9-5.3
			L678.3,593.3z M636.7,556c-4.8,8.6-6.7,22.5-12.9,32.5l-2.9,5.3h44.4l-25.8-42.5L636.7,556z M601.8,496.8
			c-12.4,31.5-25.8,65-46.8,91.3l-4.3,5.3h61.2l1-1.4c8.6-13.4,13.4-32,21.5-47.3l1-1.4l-30.6-52.6L601.8,496.8z M564.1,432.3
			c-14.8,58.3-40.6,113.3-83.6,155.3l-5.7,5.7h66.9l1-1c26.3-31.1,43-70.2,56.9-108.5l0.5-1.4l-33.5-57.8L564.1,432.3z M671.6,589.5
			l18.6-42.5h-5.7c-2.9,0-5.7,0-8.1,0c-8.6,0-16.7,0-24.4,0h-5.7L671.6,589.5z M641.5,539.8h1.9c9.1,0.5,18.2,0.5,27.7,0.5
			c7.2,0,14.3-0.5,22-0.5h1.9l30.1-52.6l-6.7,1c-15.8,2.4-31.5,3.3-46.8,3.8c-17.7,0-35.8-1-53.5-3.8l-6.7-1L641.5,539.8z
			 M606.1,478.6l1.4,0.5c21,3.8,42.5,5.7,64,5.3c19.1,0,38.2-1.9,56.9-5.3l1.4-0.5l33.5-57.8l-7.6,2.4
			c-28.2,7.6-56.4,11.9-84.1,12.4c-30.1,0.5-60.7-3.8-90.8-12.4l-7.6-2.4L606.1,478.6z"/>
		<g>
			
				<radialGradient id="SVGID_2_" cx="-3201.6614" cy="1108.6825" r="9.4096" gradientTransform="matrix(0.2821 0 0 -0.7594 1562.9075 1347.5634)" gradientUnits="userSpaceOnUse">
				<stop  offset="0" style="stop-color:#380E0E"/>
				<stop  offset="1" style="stop-color:#000000"/>
			</radialGradient>
			<path class="st8" d="M659.7,503.9c1.4,0,2.4,6.2,2.4,10.5c0,4.3-1,5.3-2.4,5.3s-2.4-1-2.4-5.3S658.2,503.9,659.7,503.9z"/>
			
				<radialGradient id="SVGID_3_" cx="-3140.4324" cy="1108.6825" r="9.4096" gradientTransform="matrix(0.2821 0 0 -0.7594 1562.9075 1347.5634)" gradientUnits="userSpaceOnUse">
				<stop  offset="0" style="stop-color:#380E0E"/>
				<stop  offset="1" style="stop-color:#000000"/>
			</radialGradient>
			<path class="st9" d="M676.9,503.9c1.4,0,2.4,6.2,2.4,10.5c0,4.3-1,5.3-2.4,5.3s-2.4-1-2.4-5.3S675.4,503.9,676.9,503.9z"/>
			
				<radialGradient id="SVGID_4_" cx="659.7" cy="850.6725" r="9.4104" gradientTransform="matrix(1 0 0 -1 0 1366.1498)" gradientUnits="userSpaceOnUse">
				<stop  offset="0" style="stop-color:#380E0E"/>
				<stop  offset="1" style="stop-color:#000000"/>
			</radialGradient>
			<ellipse class="st10" cx="659.7" cy="524" rx="8.6" ry="10"/>
			
				<radialGradient id="SVGID_5_" cx="676.978" cy="848.2832" r="9.4096" gradientTransform="matrix(1 0 0 -1 0 1366.1498)" gradientUnits="userSpaceOnUse">
				<stop  offset="0" style="stop-color:#380E0E"/>
				<stop  offset="1" style="stop-color:#000000"/>
			</radialGradient>
			<ellipse class="st11" cx="676.9" cy="524" rx="8.6" ry="10"/>
			<path d="M637.2,721.9c-1,1.4-9.6,13.9-1.9,8.1c8.1-5.7,14.8-18.6,14.8-18.6c-3.8-1-9.6-4.3-9.6-4.3
				C642.5,714.2,638.2,720.9,637.2,721.9z"/>
			<path d="M691.2,708.5c0,0-5.7,3.3-9.6,4.3c0,0,7.2,12.9,14.8,18.6c8.1,5.7-1-7.2-1.9-8.1C694.1,721.4,689.8,714.7,691.2,708.5z"
				/>
			<path class="st12" d="M686.4,593.3c-4.8-1.9-11.9-4.8-20.5-4.8c-6.2,0-11.9,1-15.8,2.9c-5.7,1.9-34.4,45.9-32,78.8
				c1.9,33,35.8,48.7,50.7,48.7c14.8,0,51.6-14.8,51.6-51.6C719.9,638.7,689.8,595.2,686.4,593.3z"/>
			<path class="st13" d="M699.3,512.1c0,0.5-0.5,1-0.5,1.9c-4.8,2.9-17.7,12.9-14.8,20.5c0,0,10,4.8,17.2,15.8
				c0,0,16.7-12.4,18.6-18.6c0.5-3.3,0.5-6.2-0.5-9.1l1-3.3c1-2.4,3.3-5.7,4.3-7.2c0.5-0.5,1-1,1.9-1.9c5.3-4.3,16.2-10,17.7-16.7
				c1-5.7,4.3-22,2.9-29.1c-0.5-2.4-1-3.3-1.9-3.3c-1-1-3.3-1-4.8,3.8c-1,2.9-1.9,6.2-2.9,11c-1,6.7-16.2,15.3-26.3,20.5
				C700.8,501.6,699.3,510.6,699.3,512.1z"/>
			<path class="st13" d="M609.5,509.7c1,1,1.9,1.4,1.9,1.9c1,1,3.3,4.8,4.3,7.2l1,3.3c-0.5,2.4-1.4,5.7-0.5,9.1
				c1.9,6.2,18.6,19.1,18.6,19.1c7.2-10.5,17.2-15.8,17.2-15.8c3.3-7.6-10.5-18.2-14.8-20.5c0-0.5-0.5-1-0.5-1.9
				c0-1.4-1.4-10-11.9-15.3c-9.6-4.8-22.5-13.9-23.9-20.5c-1-4.3-2.4-7.6-3.8-10c-2.9-4.3-5.3-4.3-7.2-3.3c-0.5,0.5-1.9,1-2.4,3.3
				c-1.9,6.2,1.9,21.5,3.3,26.3C592.8,496.8,604.2,505.4,609.5,509.7z"/>
			<path class="st13" d="M779.6,603.3c0-4.3,1-13.4-9.1-20.5c-8.6-6.2-19.1-12.4-33-12.4c-12.4,0-29.6-0.5-29.6-0.5
				c-1.4,0-1.9,1-2.4,1.9c0,0-2.9,11.9-8.1,18.2c-0.5,0.5-0.5,1.4-0.5,2.4c0.5,0.5,1.4,1,1.9,1.4c0.5,0,29.1,2.9,38.7,0.5
				c7.2-1.9,28.2,11.9,29.6,17.2c1,3.3,3.3,6.2,6.2,7.2c0.5,0.5,1.4,0.5,2.4,0.5s2.4-0.5,3.3-1c2.9-1.9,1.9-5.7,1-9.6
				C779.6,606.2,779.6,604.8,779.6,603.3z"/>
			<path class="st13" d="M774.4,548.4c-1.9-3.8-4.8-12.4-17.2-14.3c-10.5-1.9-22.5-2.9-34.9,3.3c-11.5,5.7-26.8,12.9-26.8,12.9
				c-1.4,0.5-1.4,1.9-1.4,2.4c0,0,2.4,11.9,1,19.6c-0.5,1,0,1.4,1,2.4c0.5,0.5,1.9,0.5,2.4,0.5c0.5-0.5,27.2-10.5,34.9-16.7
				c5.7-4.8,30.6-1.4,33.9,2.4c2.4,2.9,11,4.8,11.5,4.3C780.1,564.6,775.3,549.8,774.4,548.4z"/>
			<path class="st13" d="M562.7,552.7c-2.4,2.9-4.8,6.2-2.9,9.1c0.5,1,1.4,1.9,2.4,2.4s1.9,0.5,2.4,0.5c2.9,0.5,6.2-1,8.6-3.8
				c3.3-3.8,28.7-6.7,33.9-2.4c7.6,6.2,34.4,16.7,34.9,16.7s1.9,0,2.4-0.5s1-1.4,1-2.4c-1.4-8.1,1-19.6,1-19.6c0-1,0-1.9-1.4-2.4
				c0,0-15.8-7.2-26.8-12.9c-12.4-6.2-24.4-5.3-34.9-3.3c-12.4,1.9-15.3,10.5-17.2,14.3C565.5,549.8,564.6,550.8,562.7,552.7z"/>
			<path class="st13" d="M570.8,611.9c1.4-9.1,22.9-18.6,29.6-17.2c9.6,2.4,38.2-0.5,38.7-0.5c1,0,1.9-0.5,1.9-1.4
				c0.5-0.5,0.5-1.4-0.5-2.4c-5.3-5.7-8.1-17.7-8.1-17.7c-0.5-1-1.4-1.9-2.4-1.9c-0.5,0-17.2,0.5-29.6,0.5c-13.9,0-23.9,6.2-33,12.4
				c-10,7.2-8.6,7.2-8.6,14.3c0,1.9-0.5,5.3-0.5,8.1c-1,6.2-1.9,13.9,1,17.2c1,1,1.9,1.9,3.3,1.9c0.5,0,1.4-0.5,2.4-1
				C567,623.9,569.4,619.1,570.8,611.9z"/>
			<path class="st13" d="M719.9,595.2c-0.5-0.5-0.5-0.5-1.4-0.5c-0.5,0-13.9-0.5-20.5-1c-0.5,0-1.4,0-1.9,0.5l-1.9,1
				c-0.5,0.5-1,1-1.4,1.9c0,1,0.5,1.4,1,1.9c0,0,19.6,11.9,23.9,20.1c0,0,0,0.5,0.5,0.5c4.3,4.8,14.8,18.2,16.7,22.5
				c1.9,5.3,8.1,47.8,8.1,49.7c0,0.5-0.5,3.8-1,7.2c-1.4,7.2-0.5,16.2-1,24.8c-0.5,9.6,2.9,14.8,6.2,15.8c0.5,0.5,1,0.5,1.9,0.5
				c1.4,0,3.3-1,3.8-2.4c1-1.9,1.9-7.2,3.3-14.8c1-4.3,1.4-9.1,2.4-11c1.9-5.7,8.6-16.2,8.6-25.3c0-8.1-5.7-48.7-11.9-59.3
				C749.5,616.2,720.8,595.7,719.9,595.2z"/>
			<path class="st13" d="M613.8,620.1L613.8,620.1c4.3-8.1,25.8-22.5,25.8-22.5c0.5-0.5,1-1,1-1.9s-0.5-1.4-1.4-1.9l-1.9-1
				c-0.5-0.5-1-0.5-1.9-0.5c-6.2,0.5-20.1,2.9-20.5,2.9c-0.5,0-1,0.5-1.4,0.5c-0.5,0.5-31.5,21.5-36.8,32
				c-5.7,10.5-11.9,51.1-11.9,59.3c0,9.1,8.6,22.5,9.6,27.2c0.5,1.9,1.4,6.2,1.9,10c1,6.7,1.9,11,2.9,13.4c0.5,1.4,1.9,1.9,3.3,1.9
				c0.5,0,1,0,1.9-0.5c2.9-1,5.7-5.7,5.3-14.3c-0.5-8.1-1.9-19.1-2.9-26.8c-0.5-3.3,0.5-26.3,0.5-26.8c0-1.9,7.6-22.9,9.6-28.2
				C599,637.8,610,624.4,613.8,620.1z"/>
			<path class="st12" d="M667.8,524c-20.5,0-37.8,19.6-37.8,43.5c0,12.9,3.3,22.9,11.5,31.1c1.4-0.5,3.8,0.5,4.8-0.5
				c6.7-2.4,12.4-3.3,19.6-3.3c10.5,0,19.6,3.3,25.3,5.7c0.5,0.5,0.5,0.5,1.4,0.5c8.1-8.1,13.9-20.1,13.9-33.9
				C705.5,544.1,688.8,524,667.8,524z"/>
		</g>
		<g>
			<path class="st14" d="M502.5,796.4c-5.7,0-31.1-1-47.8-17.2c-10-9.6-14.8-22.5-14.8-38.2V638.2c0-0.5,0-15.3-9.1-24.8
				c-5.7-5.7-13.9-8.6-24.4-8.6h-14.8c-4.3,0-8.1-3.3-8.1-8.1s3.3-8.1,8.1-8.1h14.8c10.5,0,18.6-2.9,24.4-8.6
				c9.6-9.6,9.1-24.4,9.1-24.4V452.3c0-44.9,39.2-60.7,60.2-62.6c0.5,0,0.5,0,1,0h53c4.3,0,8.1,3.3,8.1,8.1c0,4.3-3.3,8.1-8.1,8.1
				h-52.6c-4.3,0.5-45.4,6.7-45.4,46.8v102.7c0,0.5,0.5,21.5-13.9,35.8c-1.9,1.9-4.3,3.8-6.7,5.7c2.4,1.4,4.8,3.3,6.7,5.7
				c13.9,14.3,13.9,34.9,13.9,35.8v102.7c0,11.5,3.3,20.1,10,26.8c13.9,13.4,37.8,12.9,37.8,12.9h49.2c4.3,0,8.1,3.3,8.1,8.1
				s-3.3,8.1-8.1,8.1h-48.7C503.4,796.4,502.9,796.4,502.5,796.4z"/>
		</g>
		<g>
			<path class="st14" d="M835.5,796.4c-0.5,0-1,0-1,0h-48.3c-4.3,0-8.1-3.3-8.1-8.1c0-4.3,3.3-8.1,8.1-8.1H835
				c0.5,0,21.5,0.5,33.9-11.9c6.7-6.7,10-15.8,10-27.7V637.8c0-0.5-0.5-21.5,13.9-35.8c1.9-1.9,4.3-3.8,6.7-5.7
				c-2.4-1.4-4.8-3.3-6.7-5.7c-13.8-14.5-13.8-35-13.8-36V451.9c0-40.1-36.8-46.4-41.1-46.8h-52.6c-4.3,0-8.1-3.3-8.1-8.1
				s3.3-8.1,8.1-8.1h53c0.5,0,0.5,0,1,0c19.1,1.9,55.4,17.7,55.4,62.6v102.7c0,0.5,0,15.3,9.1,24.8c5.7,5.7,13.9,8.6,24.4,8.6H943
				c4.3,0,8.1,3.3,8.1,8.1s-3.3,8.1-8.1,8.1h-14.8c-10.5,0-18.6,2.9-24.4,8.6c-9.6,9.6-9.1,24.4-9.1,24.4V740
				c0,16.2-5.3,29.6-15.3,39.2C863.7,795.4,840.8,796.4,835.5,796.4z"/>
		</g>
		<g>
			<g>
				
					<radialGradient id="SVGID_6_" cx="671.7808" cy="716.822" r="52.2045" gradientTransform="matrix(1 0 0 -1 0 1366.1498)" gradientUnits="userSpaceOnUse">
					<stop  offset="0" style="stop-color:#FFDD00"/>
					<stop  offset="0.117" style="stop-color:#EFCD01"/>
					<stop  offset="0.5238" style="stop-color:#BB9A04"/>
					<stop  offset="0.8307" style="stop-color:#9B7A06"/>
					<stop  offset="1" style="stop-color:#8F6E07"/>
				</radialGradient>
				<path class="st15" d="M653.9,636.8c0-7.2,0.5-11,1-18.2c11-4.3,16.7-4.3,27.7,0c0.5,7.2,0.5,11,1,18.2
					C671.6,634.9,665.9,634.9,653.9,636.8z"/>
				
					<radialGradient id="SVGID_7_" cx="671.8295" cy="719.1444" r="42.0347" gradientTransform="matrix(1 0 0 -1 0 1366.1498)" gradientUnits="userSpaceOnUse">
					<stop  offset="0" style="stop-color:#FFDD00"/>
					<stop  offset="0.117" style="stop-color:#EFCD01"/>
					<stop  offset="0.5238" style="stop-color:#BB9A04"/>
					<stop  offset="0.8307" style="stop-color:#9B7A06"/>
					<stop  offset="1" style="stop-color:#8F6E07"/>
				</radialGradient>
				<path class="st16" d="M654.9,687c0-2.4,0-3.8-0.5-6.2c7.2,1.9,11-3.3,11.9-12.4c-4.8,0-7.2-0.5-12.4-1c0-7.2,0-11,0-18.2
					c11.9-0.5,18.2-0.5,30.1,0c0,4.3,0,6.7,0,11C683.6,677.4,673.5,693.7,654.9,687z"/>
			</g>
		</g>
		
			<radialGradient id="SVGID_8_" cx="1635.0751" cy="1909.371" r="2.5159" gradientTransform="matrix(0.7103 -0.7039 -0.6173 -0.6228 674.3036 2867.7354)" gradientUnits="userSpaceOnUse">
			<stop  offset="0" style="stop-color:#838C92"/>
			<stop  offset="1.895368e-03" style="stop-color:#828B91"/>
			<stop  offset="0.1012" style="stop-color:#60666B"/>
			<stop  offset="0.2062" style="stop-color:#42474A"/>
			<stop  offset="0.3198" style="stop-color:#2A2D2F"/>
			<stop  offset="0.4429" style="stop-color:#17191A"/>
			<stop  offset="0.5805" style="stop-color:#0A0B0B"/>
			<stop  offset="0.744" style="stop-color:#020303"/>
			<stop  offset="1" style="stop-color:#000000"/>
		</radialGradient>
		<path class="st17" d="M660.1,526.4c1,1,1,2.4,0,3.3c-1,1-2.4,1-3.3,0c-1-1-1-2.4,0-3.3C657.8,525.5,659.2,525.5,660.1,526.4z"/>
		
			<radialGradient id="SVGID_9_" cx="1627.2644" cy="1909.4159" r="3.5056" gradientTransform="matrix(0.7103 -0.7039 -0.6173 -0.6228 674.3036 2867.7354)" gradientUnits="userSpaceOnUse">
			<stop  offset="0" style="stop-color:#838C92"/>
			<stop  offset="1.895368e-03" style="stop-color:#828B91"/>
			<stop  offset="0.1012" style="stop-color:#60666B"/>
			<stop  offset="0.2062" style="stop-color:#42474A"/>
			<stop  offset="0.3198" style="stop-color:#2A2D2F"/>
			<stop  offset="0.4429" style="stop-color:#17191A"/>
			<stop  offset="0.5805" style="stop-color:#0A0B0B"/>
			<stop  offset="0.744" style="stop-color:#020303"/>
			<stop  offset="1" style="stop-color:#000000"/>
		</radialGradient>
		<path class="st18" d="M655.4,531.2c1.4,1.4,1,3.3-0.5,4.8s-3.3,1.4-4.8,0.5s-1-3.3,0.5-4.8C652,530.2,654.4,530.2,655.4,531.2z"/>
		
			<radialGradient id="SVGID_10_" cx="3693.0935" cy="915.0043" r="2.5159" gradientTransform="matrix(-0.6 -0.8 -0.7015 0.5261 3533.4111 3000.4937)" gradientUnits="userSpaceOnUse">
			<stop  offset="0" style="stop-color:#838C92"/>
			<stop  offset="1.895368e-03" style="stop-color:#828B91"/>
			<stop  offset="0.1012" style="stop-color:#60666B"/>
			<stop  offset="0.2062" style="stop-color:#42474A"/>
			<stop  offset="0.3198" style="stop-color:#2A2D2F"/>
			<stop  offset="0.4429" style="stop-color:#17191A"/>
			<stop  offset="0.5805" style="stop-color:#0A0B0B"/>
			<stop  offset="0.744" style="stop-color:#020303"/>
			<stop  offset="1" style="stop-color:#000000"/>
		</radialGradient>
		<path class="st19" d="M675.9,526.4c1-1,2.4-0.5,3.3,0.5c1,1,1,2.4-0.5,3.3c-1.4,1-2.4,0.5-3.3-0.5
			C674.5,528.8,675,526.9,675.9,526.4z"/>
		
			<radialGradient id="SVGID_11_" cx="3686.0542" cy="914.6287" r="3.5056" gradientTransform="matrix(-0.6 -0.8 -0.7015 0.5261 3533.4111 3000.4937)" gradientUnits="userSpaceOnUse">
			<stop  offset="0" style="stop-color:#838C92"/>
			<stop  offset="1.895368e-03" style="stop-color:#828B91"/>
			<stop  offset="0.1012" style="stop-color:#60666B"/>
			<stop  offset="0.2062" style="stop-color:#42474A"/>
			<stop  offset="0.3198" style="stop-color:#2A2D2F"/>
			<stop  offset="0.4429" style="stop-color:#17191A"/>
			<stop  offset="0.5805" style="stop-color:#0A0B0B"/>
			<stop  offset="0.744" style="stop-color:#020303"/>
			<stop  offset="1" style="stop-color:#000000"/>
		</radialGradient>
		<path class="st20" d="M680.2,531.2c1.4-1,3.3-0.5,4.8,1c1,1.4,1,3.8-0.5,4.8c-1.4,1-3.3,0.5-4.8-1
			C678.8,534.5,678.8,532.1,680.2,531.2z"/>
		<path class="st21" d="M681.1,526.9c7.8,7.9,12.7,18.8,12.7,30.8c0,16-8.6,29.9-21.4,37.5c7.7,1,14.4,3.4,18.9,5.3
			c0.5,0.5,0.5,0.5,1.4,0.5c8.1-8.1,13.9-20.1,13.9-33.9C705.8,549.2,695.5,533.2,681.1,526.9z"/>
		<path class="st21" d="M686.4,593.3c-4.8-1.9-11.9-4.8-20.5-4.8c-6.2,0-11.9,1-15.8,2.9c-1.2,0.4-3.5,2.8-6.3,6.6
			c4.7-2,9.7-3.1,14.9-3.1c26.4,0,47.8,27.5,47.8,61.4c0,33.5-20.9,60.7-46.8,61.3c3.4,0.9,6.5,1.4,9.1,1.4
			c14.8,0,51.6-14.8,51.6-51.6C719.9,638.7,689.8,595.2,686.4,593.3z"/>
		<path class="st22" d="M639.3,629.4c-2.9,8.6-4.3,16.5-7.3,15.5c-2.9-1-2.2-10.2,0.8-18.7s7-13.3,9.9-12.3
			C645.6,614.9,642.2,620.8,639.3,629.4z"/>
		<path class="st22" d="M642.1,545.9c-1.2,2.5-0.8,4.6-2.6,3.8s-1.4-3.3-0.2-5.8s2.7-4.2,4.5-3.4S643.3,543.4,642.1,545.9z"/>
	</g>
</g>
<g>
	<path class="st23" d="M1263.4,447.3c-1-0.2-1.6,0.3-3,1.3s-1.9,2.7-1.9,2.7l-0.2-0.2c0,0,0.1,0.2,0.2,0.5c0.1,0.3-0.2,3.6-0.2,3.7
		c0,0.1-0.6,0-0.6,0s0,0-0.2-0.4c-0.2-0.4-0.9-1.5-1.1-1c-0.2,0.4-0.3,2-0.3,2l-1.5-1.1c-0.1,1.1,0.9,2.2,0.8,2s-0.4-0.3-0.4-0.3
		s-1.6-0.8-1.8-1c-0.1-0.1-0.1-0.2-0.1-0.2c0,0,0,0.1,0,0.3c0,0.4,0.1,0.3,0.1,0.3s-2,1.9-2.8,3.3c-0.8,1.4-0.1,2.6-0.1,2.6
		c1.3-1.9,2.7-0.6,2.7-0.6c1.7-1.9,2.8-1.1,2.8-1.1s0.2-0.6,0.9-0.9c0.7-0.3,2,0.1,2,0.1s0,0,0.2,0.3c0.2,0.3,0.3,0,0.3,0
		s-0.5-0.9,0-0.4c0.5,0.5,1,0.5,1,0.5c0.8-0.1,1.4-0.1,1.4-0.1l0-1c0,0,0,0,0-0.5s-0.4-1-0.4-1c0.3,0.1,0.7-0.2,0.4-0.2
		c-0.2-0.1-0.4-0.1-0.4-0.1l0.2-0.3c-0.1-1.3,1.5-1.9,1.5-1.9c-0.9-1.5,0.6-3.6,0.6-3.6s0,0-0.1-1.1c-0.1-1.1,0.9-1.8,0.9-1.8
		S1264.3,447.4,1263.4,447.3z M1256.4,457c0,0.1-0.2,0.1-0.3,0.1c-0.2,0-0.3-0.1-0.3-0.2c0-0.1,0.2-0.1,0.3-0.1
		S1256.4,456.9,1256.4,457z M1257.4,456.3c-0.1,0.1-0.2,0.2-0.3,0.2c-0.1,0,0-0.2,0.1-0.3c0.1-0.1,0.2-0.2,0.3-0.2
		C1257.5,456,1257.5,456.2,1257.4,456.3z"/>
</g>
<g>
	<path class="st23" d="M1313.6,435.4c-1.2-0.7-2.3-0.4-4.6,0.3s-3.8,2.6-3.8,2.6l-0.2-0.4c0,0,0.1,0.3,0,0.8c-0.1,0.5-2,4.6-2.1,4.7
		c-0.1,0.1-0.8-0.3-0.8-0.3s0,0,0-0.6c0-0.6-0.4-2.4-0.9-1.9c-0.5,0.5-1.3,2.4-1.3,2.4l-1.5-2.2c-0.6,1.4,0.2,3.3,0,3
		c-0.2-0.3-0.4-0.6-0.4-0.6s-1.7-1.8-1.9-2.2c-0.1-0.2-0.1-0.3-0.1-0.3c0,0,0,0.2-0.1,0.3c-0.3,0.5,0,0.5,0,0.5s-3.6,1.5-5.3,2.9
		c-1.7,1.4-1.4,3.5-1.4,3.5c2.7-1.9,3.8,0.5,3.8,0.5c3.2-1.7,4.2,0,4.2,0s0.6-0.7,1.6-0.7c1-0.1,2.5,1.1,2.5,1.1s0,0,0.1,0.5
		c0.1,0.5,0.4,0.1,0.4,0.1s-0.2-1.4,0.2-0.6c0.4,0.8,1.1,1.1,1.1,1.1c1.1,0.2,1.9,0.5,1.9,0.5l0.5-1.4c0,0,0,0,0.2-0.7
		c0.2-0.7,0-1.5,0-1.5c0.4,0.3,1,0.1,0.7-0.1c-0.3-0.2-0.4-0.4-0.4-0.4l0.4-0.3c0.5-1.8,2.9-1.8,2.9-1.8c-0.4-2.4,2.7-4.5,2.7-4.5
		s0,0,0.4-1.5c0.4-1.5,2.1-1.9,2.1-1.9S1314.8,436.1,1313.6,435.4z M1299.6,444.8c0,0.1-0.2,0.1-0.5,0c-0.2-0.1-0.3-0.3-0.3-0.4
		c0-0.1,0.2-0.1,0.5,0C1299.5,444.5,1299.6,444.7,1299.6,444.8z M1301.2,444.5c-0.2,0.1-0.4,0.2-0.5,0.1s0-0.2,0.2-0.4
		c0.2-0.1,0.4-0.2,0.5-0.1C1301.5,444.1,1301.4,444.3,1301.2,444.5z"/>
</g>
<g>
	<path class="st23" d="M1281.7,434.2c-0.9-0.3-1.6,0-3.2,0.7c-1.5,0.8-2.3,2.3-2.3,2.3l-0.2-0.2c0,0,0.1,0.2,0.1,0.6
		c0,0.4-0.8,3.5-0.9,3.6c0,0.1-0.6-0.1-0.6-0.1s0,0-0.1-0.4c-0.1-0.4-0.6-1.6-0.9-1.2c-0.3,0.4-0.6,1.9-0.6,1.9l-1.3-1.4
		c-0.3,1,0.5,2.3,0.4,2.1c-0.2-0.2-0.3-0.4-0.3-0.4s-1.4-1-1.6-1.3c-0.1-0.1-0.1-0.2-0.1-0.2c0,0,0,0.1-0.1,0.3
		c-0.1,0.4,0.1,0.3,0.1,0.3s-2.3,1.5-3.4,2.7s-0.6,2.6-0.6,2.6c1.6-1.6,2.7-0.1,2.7-0.1c2-1.6,2.9-0.5,2.9-0.5s0.3-0.5,1-0.7
		c0.7-0.2,1.9,0.5,1.9,0.5s0,0,0.1,0.3c0.1,0.3,0.3,0,0.3,0s-0.3-1,0-0.4c0.4,0.5,0.9,0.6,0.9,0.6c0.8,0,1.4,0.1,1.4,0.1l0.2-1
		c0,0,0,0,0.1-0.5c0.1-0.5-0.2-1-0.2-1c0.3,0.2,0.7-0.1,0.5-0.1c-0.2-0.1-0.3-0.2-0.3-0.2l0.3-0.3c0.1-1.3,1.8-1.6,1.8-1.6
		c-0.6-1.6,1.3-3.5,1.3-3.5s0,0,0.1-1.1c0.1-1.1,1.2-1.6,1.2-1.6S1282.6,434.5,1281.7,434.2z M1273.1,442.4c0,0.1-0.2,0.1-0.3,0
		c-0.2-0.1-0.3-0.2-0.3-0.2c0-0.1,0.2-0.1,0.3,0C1273,442.2,1273.1,442.3,1273.1,442.4z M1274.2,442c-0.1,0.1-0.2,0.2-0.3,0.1
		c-0.1,0,0-0.2,0.1-0.3c0.1-0.1,0.2-0.2,0.3-0.1C1274.3,441.7,1274.3,441.8,1274.2,442z"/>
</g>
<g>
	<path class="st23" d="M1284.1,453.1c-1.3-0.4-2.3,0.1-4.4,1.3c-2.1,1.2-3.1,3.4-3.1,3.4l-0.3-0.3c0,0,0.1,0.3,0.2,0.8
		c0.1,0.5-0.9,5-0.9,5.1c0,0.1-0.8-0.2-0.8-0.2s0,0-0.2-0.6c-0.2-0.6-1-2.2-1.3-1.7c-0.3,0.6-0.7,2.7-0.7,2.7l-2-1.9
		c-0.3,1.5,0.9,3.2,0.7,2.9c-0.2-0.2-0.5-0.5-0.5-0.5s-2.1-1.3-2.3-1.7c-0.1-0.2-0.1-0.3-0.1-0.3c0,0,0,0.2-0.1,0.4
		c-0.1,0.6,0.1,0.5,0.1,0.5s-3.2,2.3-4.5,4.1c-1.4,1.8-0.6,3.7-0.6,3.7c2.2-2.4,3.8-0.3,3.8-0.3c2.7-2.4,4.1-1,4.1-1
		s0.4-0.8,1.4-1.1c1-0.3,2.7,0.5,2.7,0.5s0,0,0.2,0.4c0.2,0.4,0.4,0,0.4,0s-0.5-1.3,0-0.6c0.6,0.7,1.3,0.8,1.3,0.8
		c1.1-0.1,2,0.1,2,0.1l0.2-1.4c0,0,0,0,0.1-0.7c0.1-0.7-0.4-1.4-0.4-1.4c0.5,0.2,1-0.1,0.6-0.2c-0.3-0.1-0.5-0.3-0.5-0.3l0.3-0.4
		c0-1.9,2.4-2.4,2.4-2.4c-1-2.3,1.6-5,1.6-5s0,0,0.1-1.6s1.6-2.3,1.6-2.3S1285.4,453.5,1284.1,453.1z M1272.6,465.4
		c0,0.1-0.2,0.1-0.5,0.1s-0.4-0.2-0.4-0.3c0-0.1,0.2-0.1,0.5-0.1C1272.4,465.2,1272.6,465.3,1272.6,465.4z M1274.1,464.7
		c-0.2,0.2-0.3,0.3-0.4,0.2s0-0.3,0.1-0.4c0.2-0.2,0.3-0.3,0.4-0.2C1274.3,464.3,1274.2,464.5,1274.1,464.7z"/>
</g>
<g>
	<path class="st23" d="M1256.5,439.4c-0.7-0.4-1.3-0.2-2.5,0.2c-1.3,0.4-2.1,1.5-2.1,1.5l-0.1-0.2c0,0,0,0.2,0,0.5
		c0,0.3-1,2.6-1.1,2.7s-0.4-0.2-0.4-0.2s0,0,0-0.3c0-0.3-0.3-1.3-0.5-1c-0.3,0.3-0.7,1.4-0.7,1.4l-0.9-1.2c-0.3,0.8,0.2,1.8,0.1,1.7
		c-0.1-0.2-0.2-0.3-0.2-0.3s-1-1-1.1-1.2c0-0.1,0-0.2,0-0.2c0,0,0,0.1-0.1,0.2c-0.1,0.3,0,0.3,0,0.3s-2,0.9-2.9,1.7
		c-0.9,0.8-0.7,1.9-0.7,1.9c1.4-1.1,2.1,0.2,2.1,0.2c1.7-1,2.3-0.1,2.3-0.1s0.3-0.4,0.9-0.4c0.6-0.1,1.4,0.6,1.4,0.6s0,0,0,0.3
		c0,0.3,0.2,0,0.2,0s-0.1-0.8,0.1-0.3c0.2,0.5,0.6,0.6,0.6,0.6c0.6,0.1,1.1,0.3,1.1,0.3l0.3-0.8c0,0,0,0,0.1-0.4s0-0.8,0-0.8
		c0.2,0.2,0.5,0,0.4-0.1c-0.2-0.1-0.2-0.2-0.2-0.2l0.2-0.2c0.2-1,1.6-1.1,1.6-1.1c-0.3-1.3,1.4-2.5,1.4-2.5s0,0,0.2-0.8
		c0.2-0.8,1.1-1.1,1.1-1.1S1257.2,439.8,1256.5,439.4z M1249,444.9c0,0-0.1,0-0.3,0c-0.1-0.1-0.2-0.1-0.2-0.2c0,0,0.1,0,0.3,0
		S1249,444.8,1249,444.9z M1249.9,444.7c-0.1,0.1-0.2,0.1-0.2,0.1s0-0.1,0.1-0.2c0.1-0.1,0.2-0.1,0.2-0.1
		C1250,444.5,1250,444.6,1249.9,444.7z"/>
</g>
<path class="st1" d="M232.1,1055.2c6-9.9-19.7-92.3-9.5-91.4c4.9,0.5,35.6-4.1,42.8-4.6c10.7-0.8,51.9,44.5,59.1,38.3
	c13.8-11.9,36.6-27.9,53.3-33.7c13.2,24.6,26.4,36.7,50.3,25.5c12.7,9.1,26.5,17.6,41.8,19.4c5.2,0.6,10.5-0.6,15.7,0
	c9.2,1,17.6,6.6,26.3,7.6c12.5,1.5,20.3-1.7,34.2,1.2c19,4,28,2.2,44.6-3.9c8.4-3.1,16.8-5,25.8-2.2c17.8,5.4,16.3,24.8,28.9,32
	c3.6,2,11.6,0,16.1,1.7c9.5,3.6,17.4,13.1,25.6,18.9c10.9,7.8,20.4,13.3,34.9,12.3c16.9-1.1,22.3-2.7,37.9,7.9
	c10.8,7.3,16.6,13.7,30,17.8c3.6,16.3,9.1,31.3,6,49.1c-3.4,19.4-10.2,17.4-26.9,18.1c-38.6,1.6-56.2,20.8-73.3,51.2
	c-15.1,26.8-38.1,24.7-67.2,29.4c-11.8,1.9-22.7,8.3-33.7,9.4c-13.9,1.4-27.7-9.2-40.5-11.7c-18.2-3.5-40.5-12.1-59.4-12
	c-10.5,0.1-19,3.8-29.1,6c-6.7,1.4-16.2,1.7-22.1,4.9c-6.7,3.6-5.5,7.4-10.7,10.5c-19.8,11.7-31.9,2.1-51,0.4
	c-17.3-1.6-25.6-11.4-42.3-18c-19.3-7.6-33.5,39.2-54.3,36.1c-30.4-4.4-44.2-74.7-54.3-101.5c-5.4-14.2-15.2-23.1-22-36.2
	c-5.3-10.2-2.7-14.1,0.1-24.8c2.6-9.8,0.1-24.9,3.5-32.9c3.9-9.3,16.7-8.8,15.4-21.6C233.1,1056,238.1,1051.1,232.1,1055.2z"/>
<g>
	<path class="st23" d="M-319.3,1397c-0.9,0-1.8,0.1-2.7,0.1c0.7,0,1.4,0,2.1,0C-319.7,1397.1-319.5,1397.1-319.3,1397L-319.3,1397z"
		/>
	<path class="st23" d="M-129.1,21.9c-3.5,0-6.9,0.1-10.2,0.4h20.5C-122.2,22-125.6,21.9-129.1,21.9z"/>
	<path class="st23" d="M-274.9,164.1c-0.9,0-1.8,0.1-2.7,0.1c0.7,0,1.4,0,2.1,0c0.2,0,0.4,0,0.6,0V164.1z"/>
</g>
<g>
	<path class="st23" d="M351.2,623.7l-3.1,0.7c-0.5,0.1-0.6,0.9-0.1,1.1l3,1.1l-3.2-0.2c-0.6,0-0.8,0.7-0.4,1l2.6,1.9l-3-1.1
		c-0.5-0.2-1,0.4-0.6,0.9l1.9,2.5l-2.5-1.9c-0.4-0.3-1,0.1-0.8,0.6l1.1,3l-1.9-2.5c-0.3-0.4-1-0.2-1,0.4l0.3,3.2l-1.1-3
		c-0.2-0.5-0.9-0.5-1.1,0.1l-0.6,3.1l-0.2-3.2c0-0.6-0.8-0.7-1-0.2L338,634l0.7-3.1c0.1-0.5-0.5-0.9-0.9-0.5l-2.2,2.3l1.5-2.8
		c0.3-0.5-0.3-1-0.8-0.7l-2.8,1.5l2.2-2.3c0.4-0.4,0-1-0.5-0.9l-3.1,0.7l2.8-1.5c0.5-0.3,0.3-1-0.2-1l-3.2-0.2l3.1-0.7
		c0.5-0.1,0.6-0.9,0.1-1.1l-3-1.1l3.2,0.2c0.6,0,0.8-0.7,0.4-1l-2.6-1.9l3,1.1c0.5,0.2,1-0.4,0.6-0.9l-1.9-2.5l2.5,1.9
		c0.4,0.3,1-0.1,0.8-0.6l-1.1-3l1.9,2.5c0.3,0.4,1,0.2,1-0.4l-0.3-3.2l1.1,3c0.2,0.5,0.9,0.5,1.1-0.1l0.6-3.1l0.2,3.2
		c0,0.6,0.8,0.7,1,0.2l1.5-2.8l-0.7,3.1c-0.1,0.5,0.5,0.9,0.9,0.5l2.2-2.3l-1.5,2.8c-0.3,0.5,0.3,1,0.8,0.7l2.8-1.5l-2.2,2.3
		c-0.4,0.4,0,1,0.5,0.9l3.1-0.7l-2.8,1.5c-0.5,0.3-0.3,1,0.2,1L351.2,623.7z"/>
</g>
<path class="st1" d="M182,457c4,8.5,12.7,13,21.8,16.3c5,1.8,11.6,5.1,16.8,5.9c1.7,7,9.2,17.4,15.4,19.8c6.4,2.5,12.3,1.1,17.7,4.2
	c10,5.8,13.7,7.4,27.3,6.8c12.9-0.6,11.5,1.5,21,7.2c6.1,3.7,14.3,2.7,20,5.8c4.7,2.5,7.7,6.6,12.8,9.2c5.7,3,12.5,4.4,18,8
	c6.5,4.3,10.5,10.2,18,13.5c27.4,12.2,54.5-5.7,81.1-0.6c3.6,32.7,54.2,25.8,75.9,27c4.3,19.5,24.8,11.6,38,11.9
	c6.7,0.1,17.7,0.2,23.8,2.8c6.5,2.7,8.9,10.3,16,13.7c5.2,2.5,11.2,0.7,16.1,2.7c8.5,3.5,16.5,11.2,25.5,14.6
	c12.1,4.5,27.8,9,41,7.3c9.6-1.2,20.5-11.9,28.9-11.9c4,0,14.4,6.5,18.5,8.3c7.1,3.2,11.5,7.3,19.2,8.6c4.2,0.7,9-0.9,13-0.6
	c5.9,0.4,7.2,0.9,13.2,4.3c7.2,4.1,15.3,6.4,22.1,10.8c4.3,2.7,7.1,6.6,11.3,9.2c6.1,3.9,13.9,3.8,19.6,7.1
	c6.6,3.8,9.7,9.6,14.6,14.7c6.1,6.3,13.4,10.9,22.8,11.4c10.6,0.6,10.7-4.2,18.6-9.2c7.6-4.7,18.3-3,27.3-5
	c7.8-1.8,13.4-4.7,20.8-7.9c7.7,11.2,48.2,21.6,57.6,7.8c-6.8-3.3-11.4-10.2-15.3-16.4c-4.1-6.7-13.4-16.7-15.3-22.8
	c4.8-2.4,15.5-11.5,18.4-15.9c6.3-9.7-5.5-24.4-12.6-31.7c-17.1-17.7-37.2-21.8-57.4-33c-6.5-3.6-6.9-5.8-12.2-11.5
	c-7.5-8.1-18.9-10.2-25.7-19c2.8-2.7,11.7-7.1,12.7-11.3c1.4-5.8-7.4-12.7-11.1-17.4c-5.6-7.2-9.8-16.1-17.4-21.3
	c-1.8-1.2-5.3-0.2-6.9-1.1c-2.7-1.7-4.4-4.8-7-7.1c-4.3-3.8-20.5-12-19.8-19c0.3-3.5,12.7-12.4,14.9-15
	c9.9,11.8,23.2,23.2,38.9,27.3c11.4,3,21.8-1.4,33.5-2.6c15.1-1.5,11.2,1.4,22.6,10.4c7.6,6,11.4,5.4,20.5,5.9c19,1,30.4,3.2,49.1-2
	c15-4.2,26.3-10.2,38.6-18.8c8.7-6.1,20.2-13.8,30-14.2c8.9-0.4,19.8,3.3,30.1,0.8c11.6-2.8,21.5-10.8,32.7-14.8
	c18.8-6.6,37.2-4.2,56.1-12c5.9-2.4,12.3-4.1,17.5-7.9c6.8-5,10.6-15.4,17.5-19.1c5.9-3.1,15.1-2.6,21.8-6
	c7.2-3.8,30.8-15.3,21.5-23.2c-3.3-2.9-20.4-5.7-25.5-6.7c-13.4-2.7-25.7-5.6-35.3-15.3c-8.4-8.4-9.9-10.5-22.7-9.8
	c-6.1,0.4-17.1,0-19,6.9c-14.6-5.6-28.3-15.9-39.4-27.1c-6.7-6.8-11.5-13-22.5-15.4c-9.1-2-15.6,4-24.2,3.2c-5.5-0.5-4.5-2-9.4-6.5
	c-9.3-8.6-19.1-16.9-30.8-22.4c-9-4.2-10.5-3.2-19.8-1.8c-16.5,2.4-33.5,0.4-50.2,0.3c-18.5-0.1-31.9-8.8-49-14.2
	c-13.4-4.3-41.8-5.5-54.2,2.2c-8,4.9-9.1,15.3-14.8,23c-7.8,10.6-12.4,9-27.1,10.9c-18.5,2.3-29.8-0.4-44.2,13.2
	c-6.7,6.4-13.6,14.3-20.8,19.7c-5.5,4.1-21.5,6.8-24.9,12c-2.9,4.6-0.7,26.4,2.3,31.2c5.2,8.3,20.8,12.8,29.7,18.3
	c-6.7,16.7-31.4,19.5-47.5,23.7c-12.3,3.2-27.4,12.3-39.8,11.8c-7.1-0.3-15.8-3.2-23.3-4c-7.6-0.9-21.2,0.9-28.2-1.7
	c-8.1-3-16.8-17.4-21.3-24.8c-2.4-3.9-5.1-15.3-8.6-17.2c-5.3-2.9-14.8,1.4-21.5-1.7c-30.4-14.2-49.3-42.8-79.1-56.4
	c-17.9-8.2-34.1-15.9-53.9-12.2c-16.6,3.1-28.7,17.4-39,30.2c-15.9,0.9-31.7-2.5-47.8-0.9c-14.8,1.4-30.8,1-45,1
	c-13.1,0-11-0.5-16.3,8.5c-4.5,7.8-6.9,21-14.5,26.9c-8.3,6.4-26.2,8.3-36.4,10.4c-13.5,2.8-24.4,5.4-36.6,12
	c-15.1,8.2-34.5,0.9-48.3,9.5c-5.1,3.2-27.7,26.8-26.2,32.2c4.4,15.1,43,20.7,53.1,21.8C189.6,456.8,185.6,458.9,182,457z"/>
<path class="st23" d="M-35.7-37C-8.8,7.6-70.6,86.8-24,105c26,10.2,180.4,8.7,195.3,30.9c7.6,11.4,5.8,30.5,12.9,41.8
	c6.5,10.4,20.4,16.9,30,23.8c20.3,14.4,37.3,37.6,63.3,40.9c30,3.8,72.8,6.8,95.6,23.9c47.4-47.9,20.1-84.2-4.7-98.4
	c-26.5-15.2-50.6-47.4-63.8-77.5C292.3,62,271.8,37,250.1,16.2c-36-34.6-63.1-75.6-116.3-82.6c-11.7-1.5-23.2-3.1-34.7-5.7
	C86-75,63.8-86.9,47-79.9C29.8-72.8-31.3-61.7-35.7-37z"/>
<path class="st23" d="M64.4,1127.7c35,10.2,68.5,24.7,101.4,38.5c11.3,4.8,19.7,10.2,27.5,20.5c8.4,11.2,10.4,27,14,38.5
	c11.6,37.5,39.2,50.1,78.1,50.2c10.3,0,33.7-7.7,40-1.4c3.6,3.6-0.3,25.2,2.5,31.7c7.4,17.1,25.9,19.6,41.3,25.2
	c-6.4,17.2,4.3,36.3,5.4,50.8c1.2,17,2,31.8,18.6,28.7c-5.3,17.9-12.8,38.5-17.6,55.7c-4.8,17.4-0.7,34.3-11.6,53.4
	c-25.9,45.4-52.9,23.4-66.4,20.5c-36.6-7.6-79.7,1.1-106.6-23.2c-50.8-45.9-90.7-107-154.9-134.7c-29.4-12.7-48.6-35.1-66.1-63.6
	c-10.6-17.2-31.1-29.6-33.8-56.3c17.4-28.6,30.4-52,53.3-73.2C11.4,1168.7,34,1161.2,64.4,1127.7z"/>
<path class="st1" d="M116.1,671.6c11.9,2.2,28.1,1.5,36.8,6c6.9,3.6,11.5,10.4,18.9,14c11.1,5.4,24.1,6.8,35.8,10.9
	c14.7,5.2,25.8,16.3,38,25.9c14.4,11.2,26.1,11.1,43.2,15.3c21.5,5.3,35.3,15,59.4,15c19.6,0,43.7-4.5,58.6,9.3
	c8.1,7.4,11.2,16.5,21.5,22.6c7.3,4.3,15.6,6.2,23,10.3c15.8,8.6,26.4,25.7,44.4,32.9c13.1,5.2,42.1,4.8,38.8,23
	c-1.1,5.9-9.6,9.9-11.7,15.1c-2,4.7-1.9,17.4-1.6,22.6c1.2,20.3,14.9,23.9,25.4,36.5c-34.7-0.6-62.7-32.6-100.2-28
	c-0.3,1.4,0,2.7-0.4,4.2c-9.6-4.8-20.2-7.1-29.5-11.7c-3.7,23.4,29.2,25.3,32.5,44.7c-34-21.3-66-12.3-103.1-11.6
	c4.5,31.4-50.2,29.6-68.8,34.3c-16.5,4.2-25.8,16.3-41.2,22.5c-21.3,8.5-48.2-9.4-67.6-17.7c-16.9-7.3-39.6-12.4-53.6-24.8
	c-11.7-10.3-15-28.3-19.8-44.2c-13.8-45.5,7.6-81.1,10.9-126.8C108,739.9,95.4,713.9,116.1,671.6z"/>
</svg>
