<?xml version="1.0" encoding="utf-8"?>
<!-- Generator: Adobe Illustrator 22.1.0, SVG Export Plug-In . SVG Version: 6.00 Build 0)  -->
<svg version="1.1" id="Layer_1" xmlns="http://www.w3.org/2000/svg" xmlns:xlink="http://www.w3.org/1999/xlink" x="0px" y="0px"
	 viewBox="0 0 120.4 100" style="enable-background:new 0 0 120.4 100;" xml:space="preserve">
<style type="text/css">
	.st0{fill:#561114;}
	.st1{fill:url(#SVGID_1_);}
	.st2{fill:url(#SVGID_2_);}
	.st3{fill:url(#SVGID_3_);}
	.st4{fill:url(#SVGID_4_);}
	.st5{fill:url(#SVGID_5_);}
	.st6{fill:#77171C;}
	.st7{fill:#190506;}
	.st8{fill:#9D1C1F;}
	.st9{fill:url(#SVGID_6_);}
	.st10{fill:url(#SVGID_7_);}
	.st11{fill:url(#SVGID_8_);}
	.st12{fill:url(#SVGID_9_);}
	.st13{fill:url(#SVGID_10_);}
	.st14{fill:url(#SVGID_11_);}
	.st15{fill:#380E0E;}
	.st16{fill:#DD3C3C;}
</style>
<g>
	<path class="st0" d="M26,92.5c-1.2,0-6.5-0.2-10-3.6c-2.1-2-3.1-4.7-3.1-8V59.4c0-0.1,0-3.2-1.9-5.2c-1.2-1.2-2.9-1.8-5.1-1.8H2.8
		c-0.9,0-1.7-0.7-1.7-1.7S1.8,49,2.8,49h3.1c2.2,0,3.9-0.6,5.1-1.8c2-2,1.9-5.1,1.9-5.1V20.5c0-9.4,8.2-12.7,12.6-13.1
		c0.1,0,0.1,0,0.2,0h11.1c0.9,0,1.7,0.7,1.7,1.7c0,0.9-0.7,1.7-1.7,1.7h-11c-0.9,0.1-9.5,1.4-9.5,9.8v21.5c0,0.1,0.1,4.5-2.9,7.5
		C13,50,12.5,50.4,12,50.8c0.5,0.3,1,0.7,1.4,1.2c2.9,3,2.9,7.3,2.9,7.5V81c0,2.4,0.7,4.2,2.1,5.6c2.9,2.8,7.9,2.7,7.9,2.7h10.3
		c0.9,0,1.7,0.7,1.7,1.7s-0.7,1.7-1.7,1.7H26.4C26.2,92.5,26.1,92.5,26,92.5z"/>
</g>
<g>
	<path class="st0" d="M95.7,92.5c-0.1,0-0.2,0-0.2,0H85.4c-0.9,0-1.7-0.7-1.7-1.7c0-0.9,0.7-1.7,1.7-1.7h10.2c0.1,0,4.5,0.1,7.1-2.5
		c1.4-1.4,2.1-3.3,2.1-5.8V59.3c0-0.1-0.1-4.5,2.9-7.5c0.4-0.4,0.9-0.8,1.4-1.2c-0.5-0.3-1-0.7-1.4-1.2c-2.9-3-2.9-7.3-2.9-7.5V20.4
		c0-8.4-7.7-9.7-8.6-9.8h-11c-0.9,0-1.7-0.7-1.7-1.7s0.7-1.7,1.7-1.7h11.1c0.1,0,0.1,0,0.2,0c4,0.4,11.6,3.7,11.6,13.1v21.5
		c0,0.1,0,3.2,1.9,5.2c1.2,1.2,2.9,1.8,5.1,1.8h3.1c0.9,0,1.7,0.7,1.7,1.7s-0.7,1.7-1.7,1.7h-3.1c-2.2,0-3.9,0.6-5.1,1.8
		c-2,2-1.9,5.1-1.9,5.1v21.6c0,3.4-1.1,6.2-3.2,8.2C101.6,92.3,96.8,92.5,95.7,92.5z"/>
</g>
<linearGradient id="SVGID_1_" gradientUnits="userSpaceOnUse" x1="60.4138" y1="-7.1292" x2="58.6726" y2="86.8932" gradientTransform="matrix(0.9999 -1.059175e-02 -1.059175e-02 -0.9999 0.493 97.095)">
	<stop  offset="0" style="stop-color:#656F70"/>
	<stop  offset="0.5376" style="stop-color:#8A9899"/>
	<stop  offset="0.9624" style="stop-color:#D8EDEF"/>
</linearGradient>
<path class="st1" d="M83.3,90.6c-0.3,0-0.5-0.1-0.7-0.4l-1.9-3.3l-0.3-0.1c-7.1-2.2-14.2-3.3-21.3-3.2c-6.7,0.1-13.5,1.2-20.2,3.3
	L38.6,87l-1.9,3.3c-0.1,0.2-0.4,0.4-0.7,0.4c-0.1,0-0.3,0-0.4-0.1c-0.4-0.2-0.5-0.7-0.3-1.1l1.9-3.3l-0.1-0.3
	c-3.1-14.1-9.4-25.4-20-35.2l-0.2-0.2H9.1c-0.2,0-0.5-0.4-0.6-0.6c-0.1-0.1-0.2-0.3-0.2-0.6c0-0.4,0.4-0.4,0.9-0.4H17l0.2-0.2
	c10.6-9.8,16.9-22.7,20-36.8l0.1-0.3l-1.9-3.3c-0.2-0.4-0.1-0.9,0.3-1.1c0.1-0.1,0.2-0.1,0.4-0.1c0.3,0,0.5,0.1,0.7,0.4l1.9,3.3
	l0.3,0.1c7.1,2.2,14.2,3.3,21.3,3.2c6.7-0.1,13.5-1.2,20.2-3.3l0.3-0.1l1.9-3.3C82.8,7.2,83.1,7,83.4,7c0.1,0,0.3,0,0.4,0.1
	c0.2,0.1,0.3,0.3,0.4,0.5c0.1,0.2,0,0.4-0.1,0.6l-1.9,3.3l0.1,0.3c3.1,14.1,10.9,27,21.5,36.8l0.2,0.2h5.7c0.2,0,0.4,0.1,0.6,0.2
	c0.1,0.1,0.2,0.3,0.2,0.6c0,0.4-0.3,0.8-0.8,0.8h-5.6l-0.2,0.2c-10.6,9.8-18.4,21.1-21.5,35.2l-0.1,0.3l1.9,3.3
	c0.2,0.4,0.1,0.9-0.3,1.1C83.6,90.6,83.4,90.6,83.3,90.6z M59,82.1c6.3-0.1,12.7,0.8,19,2.6l1.6,0.5l-7-12.1L72.3,73
	c-4.4-0.8-8.9-1.2-13.4-1.1c-4,0-8,0.4-11.9,1.1l-0.3,0.1l-7,12.1l1.6-0.5C47.3,83,53.2,82.1,59,82.1z M87.5,50.8
	C82,57.3,77,63.9,74.1,71.9L74,72.2l7,12.1l0.4-1.6c3.1-12.2,10-22.1,19-30.9l1.2-1.2h-14L87.5,50.8z M20.4,51.8
	c9,8.8,14.4,18.7,17.6,30.9l0.4,1.6l7-12.1l-0.1-0.3c-2.9-8-6.4-14.6-11.9-21.1l-0.2-0.2h-14L20.4,51.8z M58.9,70.2
	c3.7,0,7.5,0.2,11.3,0.8l1.4,0.2l-6.4-11h-0.4c-1.9-0.1-3.8-0.1-5.8-0.1c-1.5,0-3,0.1-4.6,0.1H54l-6.3,11l1.4-0.2
	C52.4,70.5,55.7,70.2,58.9,70.2z M72.8,50.9c-1.8,2.8-4.3,5-6,8.2l-0.2,0.3l6.4,11l0.5-1.3c2.6-6.6,6.9-11.9,11.3-17.4l0.9-1.1H73
	L72.8,50.9z M36.1,51.7c4.4,5.5,7.2,10.8,9.8,17.4l0.5,1.3l6.3-11l-0.2-0.3c-1.7-3.3-2.6-5.5-4.4-8.2l-0.2-0.3H35.2L36.1,51.7z
	 M58,58.5c1.7,0,3.5,0,5.1,0h1.2l-3.9-7.2L55,58.5h1.2C56.8,58.6,57.4,58.5,58,58.5z M65.7,57.8l0.6-1.1c1.1-1.9,2.9-3.1,4.2-5.1
	l0.6-1.1h-9.3L65.7,57.8z M50.4,51.6c1.1,1.9,1.5,3.1,2.7,5.1l0.6,1.1l5.4-7.2h-9.3L50.4,51.6z M74,25.7l0.1,0.3
	C77,34,82,42.2,87.5,48.7l0.2,0.2h14l-1.2-1.2c-9-8.8-16-20.3-19.1-32.5L81,13.6L74,25.7z M66.6,38.5l0.2,0.3
	c1.7,3.3,4.1,7.1,5.9,9.8l0.2,0.3h12.7l-0.9-1.1c-4.4-5.5-8.7-12.5-11.3-19l-0.5-1.3L66.6,38.5z M61.8,49h9.3l-0.6-1.1
	c-1.1-1.9-3-4.6-4.2-6.7l-0.6-1.1L61.8,49z M53.1,41.2c-1,1.8-1.4,4.7-2.7,6.8l-0.6,1.1h9.3l-5.4-8.9L53.1,41.2z M45.8,28.8
	c-2.6,6.6-5.4,13.6-9.8,19.1L35.1,49h12.8l0.2-0.3c1.8-2.8,2.8-6.7,4.5-9.9l0.2-0.3l-6.4-11L45.8,28.8z M37.9,15.3
	C34.8,27.5,29.4,39,20.4,47.8L19.2,49h14l0.2-0.2c5.5-6.5,9-14.7,11.9-22.7l0.1-0.3l-7-12.1L37.9,15.3z M60.4,48.2l3.9-8.9h-1.2
	c-0.6,0-1.2,0-1.7,0c-1.8,0-3.5,0-5.1,0h-1.2L60.4,48.2z M54.1,37.8h0.4c1.9,0.1,3.8,0.1,5.8,0.1c1.5,0,3-0.1,4.6-0.1h0.4l6.3-11
	L70.2,27c-3.3,0.5-6.6,0.7-9.8,0.8c-3.7,0-7.5-0.2-11.2-0.8l-1.4-0.2L54.1,37.8z M46.7,25l0.3,0.1c4.4,0.8,8.9,1.2,13.4,1.1
	c4,0,8-0.4,11.9-1.1l0.3-0.1l7-12.1L78,13.4C72.1,15,66.2,15.9,60.4,16c-6.3,0.1-12.7-0.8-19-2.6l-1.6-0.5L46.7,25z"/>
<g>
	
		<radialGradient id="SVGID_2_" cx="1377.917" cy="72.9873" r="1.9691" gradientTransform="matrix(0.2821 0 0 -0.7594 -330.8002 86.0782)" gradientUnits="userSpaceOnUse">
		<stop  offset="0" style="stop-color:#380E0E"/>
		<stop  offset="1" style="stop-color:#000000"/>
	</radialGradient>
	<path class="st2" d="M57.9,30.3c0.3,0,0.5,1.3,0.5,2.2c0,0.9-0.2,1.1-0.5,1.1s-0.5-0.2-0.5-1.1S57.6,30.3,57.9,30.3z"/>
	
		<radialGradient id="SVGID_3_" cx="1390.7301" cy="72.9873" r="1.9691" gradientTransform="matrix(0.2821 0 0 -0.7594 -330.8002 86.0782)" gradientUnits="userSpaceOnUse">
		<stop  offset="0" style="stop-color:#380E0E"/>
		<stop  offset="1" style="stop-color:#000000"/>
	</radialGradient>
	<path class="st3" d="M61.5,30.3c0.3,0,0.5,1.3,0.5,2.2c0,0.9-0.2,1.1-0.5,1.1S61,33.4,61,32.5S61.2,30.3,61.5,30.3z"/>
	
		<radialGradient id="SVGID_4_" cx="57.9071" cy="69.2876" r="1.9691" gradientTransform="matrix(1 0 0 -1 0 102)" gradientUnits="userSpaceOnUse">
		<stop  offset="0" style="stop-color:#380E0E"/>
		<stop  offset="1" style="stop-color:#000000"/>
	</radialGradient>
	<ellipse class="st4" cx="57.9" cy="34.5" rx="1.8" ry="2.1"/>
	
		<radialGradient id="SVGID_5_" cx="61.5219" cy="68.7876" r="1.9691" gradientTransform="matrix(1 0 0 -1 0 102)" gradientUnits="userSpaceOnUse">
		<stop  offset="0" style="stop-color:#380E0E"/>
		<stop  offset="1" style="stop-color:#000000"/>
	</radialGradient>
	<ellipse class="st5" cx="61.5" cy="34.5" rx="1.8" ry="2.1"/>
	<path d="M53.2,75.9c-0.2,0.3-2,2.9-0.4,1.7c1.7-1.2,3.1-3.9,3.1-3.9c-0.8-0.2-2-0.9-2-0.9C54.3,74.3,53.4,75.7,53.2,75.9z"/>
	<path d="M64.5,73.1c0,0-1.2,0.7-2,0.9c0,0,1.5,2.7,3.1,3.9c1.7,1.2-0.2-1.5-0.4-1.7C65.1,75.8,64.2,74.4,64.5,73.1z"/>
	<path class="st6" d="M63.5,49c-1-0.4-2.5-1-4.3-1c-1.3,0-2.5,0.2-3.3,0.6c-1.2,0.4-7.2,9.6-6.7,16.5c0.4,6.9,7.5,10.2,10.6,10.2
		s10.8-3.1,10.8-10.8C70.5,58.5,64.2,49.4,63.5,49z"/>
	<path class="st7" d="M66.2,32c0,0.1-0.1,0.2-0.1,0.4c-1,0.6-3.7,2.7-3.1,4.3c0,0,2.1,1,3.6,3.3c0,0,3.5-2.6,3.9-3.9
		c0.1-0.7,0.1-1.3-0.1-1.9l0.2-0.7c0.2-0.5,0.7-1.2,0.9-1.5c0.1-0.1,0.2-0.2,0.4-0.4c1.1-0.9,3.4-2.1,3.7-3.5
		c0.2-1.2,0.9-4.6,0.6-6.1c-0.1-0.5-0.2-0.7-0.4-0.7c-0.2-0.2-0.7-0.2-1,0.8c-0.2,0.6-0.4,1.3-0.6,2.3c-0.2,1.4-3.4,3.2-5.5,4.3
		C66.5,29.8,66.2,31.7,66.2,32z"/>
	<path class="st7" d="M47.4,31.5c0.2,0.2,0.4,0.3,0.4,0.4c0.2,0.2,0.7,1,0.9,1.5l0.2,0.7c-0.1,0.5-0.3,1.2-0.1,1.9
		c0.4,1.3,3.9,4,3.9,4c1.5-2.2,3.6-3.3,3.6-3.3c0.7-1.6-2.2-3.8-3.1-4.3c0-0.1-0.1-0.2-0.1-0.4c0-0.3-0.3-2.1-2.5-3.2
		c-2-1-4.7-2.9-5-4.3c-0.2-0.9-0.5-1.6-0.8-2.1c-0.6-0.9-1.1-0.9-1.5-0.7c-0.1,0.1-0.4,0.2-0.5,0.7c-0.4,1.3,0.4,4.5,0.7,5.5
		C43.9,28.8,46.3,30.6,47.4,31.5z"/>
	<path class="st7" d="M83,51.1c0-0.9,0.2-2.8-1.9-4.3c-1.8-1.3-4-2.6-6.9-2.6c-2.6,0-6.2-0.1-6.2-0.1c-0.3,0-0.4,0.2-0.5,0.4
		c0,0-0.6,2.5-1.7,3.8c-0.1,0.1-0.1,0.3-0.1,0.5c0.1,0.1,0.3,0.2,0.4,0.3c0.1,0,6.1,0.6,8.1,0.1c1.5-0.4,5.9,2.5,6.2,3.6
		c0.2,0.7,0.7,1.3,1.3,1.5c0.1,0.1,0.3,0.1,0.5,0.1s0.5-0.1,0.7-0.2c0.6-0.4,0.4-1.2,0.2-2C83,51.7,83,51.4,83,51.1z"/>
	<path class="st7" d="M81.9,39.6c-0.4-0.8-1-2.6-3.6-3c-2.2-0.4-4.7-0.6-7.3,0.7c-2.4,1.2-5.6,2.7-5.6,2.7c-0.3,0.1-0.3,0.4-0.3,0.5
		c0,0,0.5,2.5,0.2,4.1c-0.1,0.2,0,0.3,0.2,0.5c0.1,0.1,0.4,0.1,0.5,0.1c0.1-0.1,5.7-2.2,7.3-3.5c1.2-1,6.4-0.3,7.1,0.5
		c0.5,0.6,2.3,1,2.4,0.9C83.1,43,82.1,39.9,81.9,39.6z"/>
	<path class="st7" d="M37.6,40.5c-0.5,0.6-1,1.3-0.6,1.9c0.1,0.2,0.3,0.4,0.5,0.5S37.9,43,38,43c0.6,0.1,1.3-0.2,1.8-0.8
		c0.7-0.8,6-1.4,7.1-0.5c1.6,1.3,7.2,3.5,7.3,3.5s0.4,0,0.5-0.1s0.2-0.3,0.2-0.5c-0.3-1.7,0.2-4.1,0.2-4.1c0-0.2,0-0.4-0.3-0.5
		c0,0-3.3-1.5-5.6-2.7c-2.6-1.3-5.1-1.1-7.3-0.7c-2.6,0.4-3.2,2.2-3.6,3C38.2,39.9,38,40.1,37.6,40.5z"/>
	<path class="st7" d="M39.3,52.9c0.3-1.9,4.8-3.9,6.2-3.6c2,0.5,8-0.1,8.1-0.1c0.2,0,0.4-0.1,0.4-0.3c0.1-0.1,0.1-0.3-0.1-0.5
		c-1.1-1.2-1.7-3.7-1.7-3.7c-0.1-0.2-0.3-0.4-0.5-0.4c-0.1,0-3.6,0.1-6.2,0.1c-2.9,0-5,1.3-6.9,2.6c-2.1,1.5-1.8,1.5-1.8,3
		c0,0.4-0.1,1.1-0.1,1.7c-0.2,1.3-0.4,2.9,0.2,3.6c0.2,0.2,0.4,0.4,0.7,0.4c0.1,0,0.3-0.1,0.5-0.2C38.5,55.4,39,54.4,39.3,52.9z"/>
	<path class="st7" d="M70.5,49.4c-0.1-0.1-0.1-0.1-0.3-0.1c-0.1,0-2.9-0.1-4.3-0.2c-0.1,0-0.3,0-0.4,0.1l-0.4,0.2
		c-0.1,0.1-0.2,0.2-0.3,0.4c0,0.2,0.1,0.3,0.2,0.4c0,0,4.1,2.5,5,4.2c0,0,0,0.1,0.1,0.1c0.9,1,3.1,3.8,3.5,4.7
		c0.4,1.1,1.7,10,1.7,10.4c0,0.1-0.1,0.8-0.2,1.5c-0.3,1.5-0.1,3.4-0.2,5.2c-0.1,2,0.6,3.1,1.3,3.3c0.1,0.1,0.2,0.1,0.4,0.1
		c0.3,0,0.7-0.2,0.8-0.5c0.2-0.4,0.4-1.5,0.7-3.1c0.2-0.9,0.3-1.9,0.5-2.3c0.4-1.2,1.8-3.4,1.8-5.3c0-1.7-1.2-10.2-2.5-12.4
		C76.7,53.8,70.7,49.5,70.5,49.4z"/>
	<path class="st7" d="M48.3,54.6L48.3,54.6c0.9-1.7,5.4-4.7,5.4-4.7c0.1-0.1,0.2-0.2,0.2-0.4s-0.1-0.3-0.3-0.4l-0.4-0.2
		c-0.1-0.1-0.2-0.1-0.4-0.1c-1.3,0.1-4.2,0.6-4.3,0.6s-0.2,0.1-0.3,0.1c-0.1,0.1-6.6,4.5-7.7,6.7C39.3,58.4,38,66.9,38,68.6
		c0,1.9,1.8,4.7,2,5.7c0.1,0.4,0.3,1.3,0.4,2.1c0.2,1.4,0.4,2.3,0.6,2.8c0.1,0.3,0.4,0.4,0.7,0.4c0.1,0,0.2,0,0.4-0.1
		c0.6-0.2,1.2-1.2,1.1-3c-0.1-1.7-0.4-4-0.6-5.6c-0.1-0.7,0.1-5.5,0.1-5.6c0-0.4,1.6-4.8,2-5.9C45.2,58.3,47.5,55.5,48.3,54.6z"/>
	<path class="st6" d="M59.6,34.5c-4.3,0-7.9,4.1-7.9,9.1c0,2.7,0.7,4.8,2.4,6.5c0.3-0.1,0.8,0.1,1-0.1c1.4-0.5,2.6-0.7,4.1-0.7
		c2.2,0,4.1,0.7,5.3,1.2c0.1,0.1,0.1,0.1,0.3,0.1c1.7-1.7,2.9-4.2,2.9-7.1C67.5,38.7,64,34.5,59.6,34.5z"/>
</g>
<g>
	<path class="st8" d="M25,91.5c-1.2,0-6.5-0.2-10-3.6c-2.1-2-3.1-4.7-3.1-8V58.4c0-0.1,0-3.2-1.9-5.2c-1.2-1.2-2.9-1.8-5.1-1.8H1.8
		c-0.9,0-1.7-0.7-1.7-1.7S0.8,48,1.8,48h3.1c2.2,0,3.9-0.6,5.1-1.8c2-2,1.9-5.1,1.9-5.1V19.5c0-9.4,8.2-12.7,12.6-13.1
		c0.1,0,0.1,0,0.2,0h11.1c0.9,0,1.7,0.7,1.7,1.7c0,0.9-0.7,1.7-1.7,1.7h-11c-0.9,0.1-9.5,1.4-9.5,9.8v21.5c0,0.1,0.1,4.5-2.9,7.5
		C12,49,11.5,49.4,11,49.8c0.5,0.3,1,0.7,1.4,1.2c2.9,3,2.9,7.3,2.9,7.5V80c0,2.4,0.7,4.2,2.1,5.6c2.9,2.8,7.9,2.7,7.9,2.7h10.3
		c0.9,0,1.7,0.7,1.7,1.7s-0.7,1.7-1.7,1.7H25.4C25.2,91.5,25.1,91.5,25,91.5z"/>
</g>
<g>
	<path class="st8" d="M94.7,91.5c-0.1,0-0.2,0-0.2,0H84.4c-0.9,0-1.7-0.7-1.7-1.7c0-0.9,0.7-1.7,1.7-1.7h10.2c0.1,0,4.5,0.1,7.1-2.5
		c1.4-1.4,2.1-3.3,2.1-5.8V58.3c0-0.1-0.1-4.5,2.9-7.5c0.4-0.4,0.9-0.8,1.4-1.2c-0.5-0.3-1-0.7-1.4-1.2c-2.9-3-2.9-7.3-2.9-7.5V19.4
		c0-8.4-7.7-9.7-8.6-9.8h-11c-0.9,0-1.7-0.7-1.7-1.7s0.7-1.7,1.7-1.7h11.1c0.1,0,0.1,0,0.2,0c4,0.4,11.6,3.7,11.6,13.1v21.5
		c0,0.1,0,3.2,1.9,5.2c1.2,1.2,2.9,1.8,5.1,1.8h3.1c0.9,0,1.7,0.7,1.7,1.7s-0.7,1.7-1.7,1.7h-3.1c-2.2,0-3.9,0.6-5.1,1.8
		c-2,2-1.9,5.1-1.9,5.1v21.6c0,3.4-1.1,6.2-3.2,8.2C100.6,91.3,95.8,91.5,94.7,91.5z"/>
</g>
<g>
	<g>
		
			<radialGradient id="SVGID_6_" cx="60.4343" cy="41.2773" r="10.9246" gradientTransform="matrix(1 0 0 -1 0 102)" gradientUnits="userSpaceOnUse">
			<stop  offset="0" style="stop-color:#FFDD00"/>
			<stop  offset="0.117" style="stop-color:#EFCD01"/>
			<stop  offset="0.5238" style="stop-color:#BB9A04"/>
			<stop  offset="0.8307" style="stop-color:#9B7A06"/>
			<stop  offset="1" style="stop-color:#8F6E07"/>
		</radialGradient>
		<path class="st9" d="M56.7,58.1c0-1.5,0.1-2.3,0.2-3.8c2.3-0.9,3.5-0.9,5.8,0c0.1,1.5,0.1,2.3,0.2,3.8
			C60.4,57.7,59.2,57.7,56.7,58.1z"/>
		
			<radialGradient id="SVGID_7_" cx="60.4445" cy="41.7633" r="8.7964" gradientTransform="matrix(1 0 0 -1 0 102)" gradientUnits="userSpaceOnUse">
			<stop  offset="0" style="stop-color:#FFDD00"/>
			<stop  offset="0.117" style="stop-color:#EFCD01"/>
			<stop  offset="0.5238" style="stop-color:#BB9A04"/>
			<stop  offset="0.8307" style="stop-color:#9B7A06"/>
			<stop  offset="1" style="stop-color:#8F6E07"/>
		</radialGradient>
		<path class="st10" d="M56.9,68.6c0-0.5,0-0.8-0.1-1.3c1.5,0.4,2.3-0.7,2.5-2.6c-1,0-1.5-0.1-2.6-0.2c0-1.5,0-2.3,0-3.8
			c2.5-0.1,3.8-0.1,6.3,0c0,0.9,0,1.4,0,2.3C62.9,66.6,60.8,70,56.9,68.6z"/>
	</g>
</g>
<radialGradient id="SVGID_8_" cx="-90.6955" cy="-353.9401" r="0.5265" gradientTransform="matrix(0.7103 -0.7039 -0.6173 -0.6228 -96.716 -249.0148)" gradientUnits="userSpaceOnUse">
	<stop  offset="0" style="stop-color:#838C92"/>
	<stop  offset="1.895368e-03" style="stop-color:#828B91"/>
	<stop  offset="0.1012" style="stop-color:#60666B"/>
	<stop  offset="0.2062" style="stop-color:#42474A"/>
	<stop  offset="0.3198" style="stop-color:#2A2D2F"/>
	<stop  offset="0.4429" style="stop-color:#17191A"/>
	<stop  offset="0.5805" style="stop-color:#0A0B0B"/>
	<stop  offset="0.744" style="stop-color:#020303"/>
	<stop  offset="1" style="stop-color:#000000"/>
</radialGradient>
<path class="st11" d="M58,35c0.2,0.2,0.2,0.5,0,0.7s-0.5,0.2-0.7,0s-0.2-0.5,0-0.7S57.8,34.8,58,35z"/>
<radialGradient id="SVGID_9_" cx="-92.33" cy="-353.9307" r="0.7336" gradientTransform="matrix(0.7103 -0.7039 -0.6173 -0.6228 -96.716 -249.0148)" gradientUnits="userSpaceOnUse">
	<stop  offset="0" style="stop-color:#838C92"/>
	<stop  offset="1.895368e-03" style="stop-color:#828B91"/>
	<stop  offset="0.1012" style="stop-color:#60666B"/>
	<stop  offset="0.2062" style="stop-color:#42474A"/>
	<stop  offset="0.3198" style="stop-color:#2A2D2F"/>
	<stop  offset="0.4429" style="stop-color:#17191A"/>
	<stop  offset="0.5805" style="stop-color:#0A0B0B"/>
	<stop  offset="0.744" style="stop-color:#020303"/>
	<stop  offset="1" style="stop-color:#000000"/>
</radialGradient>
<path class="st12" d="M57,36c0.3,0.3,0.2,0.7-0.1,1s-0.7,0.3-1,0.1s-0.2-0.7,0.1-1S56.8,35.8,57,36z"/>
<radialGradient id="SVGID_10_" cx="-767.4756" cy="-421.4851" r="0.5265" gradientTransform="matrix(-0.6 -0.8 -0.7015 0.5261 -694.907 -357.0292)" gradientUnits="userSpaceOnUse">
	<stop  offset="0" style="stop-color:#838C92"/>
	<stop  offset="1.895368e-03" style="stop-color:#828B91"/>
	<stop  offset="0.1012" style="stop-color:#60666B"/>
	<stop  offset="0.2062" style="stop-color:#42474A"/>
	<stop  offset="0.3198" style="stop-color:#2A2D2F"/>
	<stop  offset="0.4429" style="stop-color:#17191A"/>
	<stop  offset="0.5805" style="stop-color:#0A0B0B"/>
	<stop  offset="0.744" style="stop-color:#020303"/>
	<stop  offset="1" style="stop-color:#000000"/>
</radialGradient>
<path class="st13" d="M61.3,35c0.2-0.2,0.5-0.1,0.7,0.1s0.2,0.5-0.1,0.7s-0.5,0.1-0.7-0.1S61.1,35.1,61.3,35z"/>
<radialGradient id="SVGID_11_" cx="-768.9487" cy="-421.5637" r="0.7336" gradientTransform="matrix(-0.6 -0.8 -0.7015 0.5261 -694.907 -357.0292)" gradientUnits="userSpaceOnUse">
	<stop  offset="0" style="stop-color:#838C92"/>
	<stop  offset="1.895368e-03" style="stop-color:#828B91"/>
	<stop  offset="0.1012" style="stop-color:#60666B"/>
	<stop  offset="0.2062" style="stop-color:#42474A"/>
	<stop  offset="0.3198" style="stop-color:#2A2D2F"/>
	<stop  offset="0.4429" style="stop-color:#17191A"/>
	<stop  offset="0.5805" style="stop-color:#0A0B0B"/>
	<stop  offset="0.744" style="stop-color:#020303"/>
	<stop  offset="1" style="stop-color:#000000"/>
</radialGradient>
<path class="st14" d="M62.2,36c0.3-0.2,0.7-0.1,1,0.2c0.2,0.3,0.2,0.8-0.1,1s-0.7,0.1-1-0.2C61.9,36.7,61.9,36.2,62.2,36z"/>
<path class="st15" d="M62.4,35.1C64,36.7,65,39,65,41.5c0,3.3-1.8,6.3-4.5,7.9c1.6,0.2,3,0.7,4,1.1c0.1,0.1,0.1,0.1,0.3,0.1
	c1.7-1.7,2.9-4.2,2.9-7.1C67.5,39.8,65.4,36.4,62.4,35.1z"/>
<path class="st15" d="M63.5,49c-1-0.4-2.5-1-4.3-1c-1.3,0-2.5,0.2-3.3,0.6c-0.3,0.1-0.7,0.6-1.3,1.4c1-0.4,2-0.6,3.1-0.6
	c5.5,0,10,5.8,10,12.8c0,7-4.4,12.7-9.8,12.8c0.7,0.2,1.4,0.3,1.9,0.3c3.1,0,10.8-3.1,10.8-10.8C70.5,58.5,64.2,49.4,63.5,49z"/>
<path class="st16" d="M53.6,56.5c-0.6,1.8-0.9,3.5-1.5,3.2c-0.6-0.2-0.5-2.1,0.2-3.9c0.6-1.8,1.5-2.8,2.1-2.6
	C55,53.5,54.3,54.8,53.6,56.5z"/>
<path class="st16" d="M54.2,39.1c-0.2,0.5-0.2,1-0.5,0.8c-0.4-0.2-0.3-0.7-0.1-1.2c0.2-0.5,0.6-0.9,0.9-0.7S54.5,38.5,54.2,39.1z"/>
</svg>
