<?xml version="1.0" encoding="utf-8"?>
<!-- Generator: Adobe Illustrator 19.0.0, SVG Export Plug-In . SVG Version: 6.00 Build 0)  -->
<svg version="1.1" id="Layer_1" xmlns="http://www.w3.org/2000/svg" xmlns:xlink="http://www.w3.org/1999/xlink" x="0px" y="0px"
	 viewBox="-274.7 347 120.4 100" style="enable-background:new -274.7 347 120.4 100;" xml:space="preserve">
<style type="text/css">
	.st0{fill:url(#SVGID_1_);}
	.st1{fill:url(#SVGID_2_);}
	.st2{fill:url(#SVGID_3_);}
	.st3{fill:url(#SVGID_4_);}
	.st4{fill:url(#SVGID_5_);}
	.st5{fill:url(#SVGID_6_);}
	.st6{fill:url(#SVGID_7_);}
	.st7{fill:url(#SVGID_8_);}
	.st8{fill:url(#SVGID_9_);}
	.st9{fill:url(#SVGID_10_);}
	.st10{fill:url(#SVGID_11_);}
	.st11{fill:url(#SVGID_12_);}
	.st12{fill:url(#SVGID_13_);}
	.st13{fill:url(#SVGID_14_);}
	.st14{fill:url(#SVGID_15_);}
	.st15{fill:url(#SVGID_16_);}
	.st16{fill:url(#SVGID_17_);}
	.st17{fill:url(#SVGID_18_);}
	.st18{fill:url(#SVGID_19_);}
	.st19{fill:url(#SVGID_20_);}
	.st20{fill:url(#SVGID_21_);}
	.st21{fill:url(#SVGID_22_);}
	.st22{fill:url(#SVGID_23_);}
</style>
<linearGradient id="SVGID_1_" gradientUnits="userSpaceOnUse" x1="-214.3964" y1="450.6259" x2="-216.1376" y2="356.6035" gradientTransform="matrix(0.9999 -1.059175e-002 1.059175e-002 0.9999 -4.217 -2.2653)">
	<stop  offset="0" style="stop-color:#656F70"/>
	<stop  offset="0.5376" style="stop-color:#8A9899"/>
	<stop  offset="0.9624" style="stop-color:#D8EDEF"/>
</linearGradient>
<path class="st0" d="M-191.4,437.6c-0.3,0-0.5-0.1-0.7-0.4l-1.9-3.3l-0.3-0.1c-7.1-2.2-14.2-3.3-21.3-3.2
	c-6.7,0.1-13.5,1.2-20.2,3.3l-0.3,0.1l-1.9,3.3c-0.1,0.2-0.4,0.4-0.7,0.4c-0.1,0-0.3,0-0.4-0.1c-0.4-0.2-0.5-0.7-0.3-1.1l1.9-3.3
	l-0.1-0.3c-3.1-14.1-9.4-25.4-20-35.2l-0.2-0.2l-7.8,0c-0.2,0-0.5-0.4-0.6-0.6c-0.1-0.1-0.2-0.3-0.2-0.6c0-0.4,0.4-0.4,0.9-0.4
	l7.8,0l0.2-0.2c10.6-9.8,16.9-22.7,20-36.8l0.1-0.3l-1.9-3.3c-0.2-0.4-0.1-0.9,0.3-1.1c0.1-0.1,0.2-0.1,0.4-0.1
	c0.3,0,0.5,0.1,0.7,0.4l1.9,3.3l0.3,0.1c7.1,2.2,14.2,3.3,21.3,3.2c6.7-0.1,13.5-1.2,20.2-3.3l0.3-0.1l1.9-3.3
	c0.1-0.2,0.4-0.4,0.7-0.4c0.1,0,0.3,0,0.4,0.1c0.2,0.1,0.3,0.3,0.4,0.5c0.1,0.2,0,0.4-0.1,0.6l-1.9,3.3l0.1,0.3
	c3.1,14.1,10.9,27,21.5,36.8l0.2,0.2l5.7,0c0.2,0,0.4,0.1,0.6,0.2c0.1,0.1,0.2,0.3,0.2,0.6c0,0.4-0.3,0.8-0.8,0.8l-5.6,0l-0.2,0.2
	c-10.6,9.8-18.4,21.1-21.5,35.2l-0.1,0.3l1.9,3.3c0.2,0.4,0.1,0.9-0.3,1.1C-191.1,437.6-191.3,437.6-191.4,437.6z M-215.7,429.1
	c6.3-0.1,12.7,0.8,19,2.6l1.6,0.5l-7-12.1l-0.3-0.1c-4.4-0.8-8.9-1.2-13.4-1.1c-4,0-8,0.4-11.9,1.1l-0.3,0.1l-7,12.1l1.6-0.5
	C-227.4,430-221.5,429.1-215.7,429.1z M-187.2,397.8c-5.5,6.5-10.5,13.1-13.4,21.1l-0.1,0.3l7,12.1l0.4-1.6
	c3.1-12.2,10-22.1,19-30.9l1.2-1.2l-14,0L-187.2,397.8z M-254.3,398.8c9,8.8,14.4,18.7,17.6,30.9l0.4,1.6l7-12.1l-0.1-0.3
	c-2.9-8-6.4-14.6-11.9-21.1l-0.2-0.2l-14,0L-254.3,398.8z M-215.8,417.2c3.7,0,7.5,0.2,11.3,0.8l1.4,0.2l-6.4-11l-0.4,0
	c-1.9-0.1-3.8-0.1-5.8-0.1c-1.5,0-3,0.1-4.6,0.1l-0.4,0l-6.3,11l1.4-0.2C-222.3,417.5-219,417.2-215.8,417.2z M-201.9,397.9
	c-1.8,2.8-4.3,5-6,8.2l-0.2,0.3l6.4,11l0.5-1.3c2.6-6.6,6.9-11.9,11.3-17.4l0.9-1.1l-12.7,0L-201.9,397.9z M-238.6,398.7
	c4.4,5.5,7.2,10.8,9.8,17.4l0.5,1.3l6.3-11l-0.2-0.3c-1.7-3.3-2.6-5.5-4.4-8.2l-0.2-0.3l-12.7,0L-238.6,398.7z M-216.7,405.5
	c1.7,0,3.5,0,5.1,0l1.2,0l-3.9-7.2l-5.4,7.2l1.2,0C-217.9,405.6-217.3,405.5-216.7,405.5z M-209,404.8l0.6-1.1
	c1.1-1.9,2.9-3.1,4.2-5.1l0.6-1.1l-9.3,0L-209,404.8z M-224.3,398.6c1.1,1.9,1.5,3.1,2.7,5.1l0.6,1.1l5.4-7.2l-9.3,0L-224.3,398.6z
	 M-200.7,372.7l0.1,0.3c2.9,8,7.9,16.2,13.4,22.7l0.2,0.2l14,0l-1.2-1.2c-9-8.8-16-20.3-19.1-32.5l-0.4-1.6L-200.7,372.7z
	 M-208.1,385.5l0.2,0.3c1.7,3.3,4.1,7.1,5.9,9.8l0.2,0.3l12.7,0l-0.9-1.1c-4.4-5.5-8.7-12.5-11.3-19l-0.5-1.3L-208.1,385.5z
	 M-212.9,396l9.3,0l-0.6-1.1c-1.1-1.9-3-4.6-4.2-6.7l-0.6-1.1L-212.9,396z M-221.6,388.2c-1,1.8-1.4,4.7-2.7,6.8l-0.6,1.1l9.3,0
	l-5.4-8.9L-221.6,388.2z M-228.9,375.8c-2.6,6.6-5.4,13.6-9.8,19.1l-0.9,1.1l12.8,0l0.2-0.3c1.8-2.8,2.8-6.7,4.5-9.9l0.2-0.3
	l-6.4-11L-228.9,375.8z M-236.8,362.3c-3.1,12.2-8.5,23.7-17.5,32.5l-1.2,1.2l14,0l0.2-0.2c5.5-6.5,9-14.7,11.9-22.7l0.1-0.3
	l-7-12.1L-236.8,362.3z M-214.3,395.2l3.9-8.9l-1.2,0c-0.6,0-1.2,0-1.7,0c-1.8,0-3.5,0-5.1,0l-1.2,0L-214.3,395.2z M-220.6,384.8
	l0.4,0c1.9,0.1,3.8,0.1,5.8,0.1c1.5,0,3-0.1,4.6-0.1l0.4,0l6.3-11l-1.4,0.2c-3.3,0.5-6.6,0.7-9.8,0.8c-3.7,0-7.5-0.2-11.2-0.8
	l-1.4-0.2L-220.6,384.8z M-228,372l0.3,0.1c4.4,0.8,8.9,1.2,13.4,1.1c4,0,8-0.4,11.9-1.1l0.3-0.1l7-12.1l-1.6,0.5
	c-5.9,1.6-11.8,2.5-17.6,2.6c-6.3,0.1-12.7-0.8-19-2.6l-1.6-0.5L-228,372z"/>
<g>
	
		<radialGradient id="SVGID_2_" cx="-219.3376" cy="376.6464" r="1.9691" gradientTransform="matrix(0.2821 0 0 0.7594 -154.9147 91.6264)" gradientUnits="userSpaceOnUse">
		<stop  offset="0" style="stop-color:#380E0E"/>
		<stop  offset="1" style="stop-color:#000000"/>
	</radialGradient>
	<path class="st1" d="M-216.8,377.3c0.3,0,0.5,1.3,0.5,2.2c0,0.9-0.2,1.1-0.5,1.1c-0.3,0-0.5-0.2-0.5-1.1
		C-217.3,378.6-217.1,377.3-216.8,377.3z"/>
	
		<radialGradient id="SVGID_3_" cx="-206.5245" cy="376.6464" r="1.9691" gradientTransform="matrix(0.2821 0 0 0.7594 -154.9147 91.6264)" gradientUnits="userSpaceOnUse">
		<stop  offset="0" style="stop-color:#380E0E"/>
		<stop  offset="1" style="stop-color:#000000"/>
	</radialGradient>
	<path class="st2" d="M-213.2,377.3c0.3,0,0.5,1.3,0.5,2.2c0,0.9-0.2,1.1-0.5,1.1s-0.5-0.2-0.5-1.1
		C-213.7,378.6-213.5,377.3-213.2,377.3z"/>
	<radialGradient id="SVGID_4_" cx="-216.7929" cy="379.7124" r="1.9691" gradientUnits="userSpaceOnUse">
		<stop  offset="0" style="stop-color:#380E0E"/>
		<stop  offset="1" style="stop-color:#000000"/>
	</radialGradient>
	<ellipse class="st3" cx="-216.8" cy="381.5" rx="1.8" ry="2.1"/>
	<radialGradient id="SVGID_5_" cx="-213.1781" cy="380.2124" r="1.9691" gradientUnits="userSpaceOnUse">
		<stop  offset="0" style="stop-color:#380E0E"/>
		<stop  offset="1" style="stop-color:#000000"/>
	</radialGradient>
	<ellipse class="st4" cx="-213.2" cy="381.5" rx="1.8" ry="2.1"/>
	<path d="M-221.5,422.9c-0.2,0.3-2,2.9-0.4,1.7c1.7-1.2,3.1-3.9,3.1-3.9c-0.8-0.2-2-0.9-2-0.9C-220.4,421.3-221.3,422.7-221.5,422.9
		z"/>
	<path d="M-210.2,420.1c0,0-1.2,0.7-2,0.9c0,0,1.5,2.7,3.1,3.9c1.7,1.2-0.2-1.5-0.4-1.7C-209.6,422.8-210.5,421.4-210.2,420.1z"/>
	<radialGradient id="SVGID_6_" cx="-214.655" cy="401.9761" r="12.2888" gradientUnits="userSpaceOnUse">
		<stop  offset="2.688172e-002" style="stop-color:#9D1C1F"/>
		<stop  offset="0.181" style="stop-color:#8D1A1C"/>
		<stop  offset="1" style="stop-color:#380E0E"/>
	</radialGradient>
	<path class="st5" d="M-211.2,396c-1-0.4-2.5-1-4.3-1c-1.3,0-2.5,0.2-3.3,0.6c-1.2,0.4-7.2,9.6-6.7,16.5c0.4,6.9,7.5,10.2,10.6,10.2
		s10.8-3.1,10.8-10.8C-204.2,405.5-210.5,396.4-211.2,396z"/>
	<radialGradient id="SVGID_7_" cx="-205.0736" cy="377.5583" r="8.1363" gradientUnits="userSpaceOnUse">
		<stop  offset="0" style="stop-color:#380E0E"/>
		<stop  offset="1" style="stop-color:#000000"/>
	</radialGradient>
	<path class="st6" d="M-208.5,379c0,0.1-0.1,0.2-0.1,0.4c-1,0.6-3.7,2.7-3.1,4.3c0,0,2.1,1,3.6,3.3c0,0,3.5-2.6,3.9-3.9
		c0.1-0.7,0.1-1.3-0.1-1.9l0.2-0.7c0.2-0.5,0.7-1.2,0.9-1.5c0.1-0.1,0.2-0.2,0.4-0.4c1.1-0.9,3.4-2.1,3.7-3.5
		c0.2-1.2,0.9-4.6,0.6-6.1c-0.1-0.5-0.2-0.7-0.4-0.7c-0.2-0.2-0.7-0.2-1,0.8c-0.2,0.6-0.4,1.3-0.6,2.3c-0.2,1.4-3.4,3.2-5.5,4.3
		C-208.2,376.8-208.5,378.7-208.5,379z"/>
	<radialGradient id="SVGID_8_" cx="-225.2031" cy="377.6104" r="8.1329" gradientUnits="userSpaceOnUse">
		<stop  offset="0" style="stop-color:#380E0E"/>
		<stop  offset="1" style="stop-color:#000000"/>
	</radialGradient>
	<path class="st7" d="M-227.3,378.5c0.2,0.2,0.4,0.3,0.4,0.4c0.2,0.2,0.7,1,0.9,1.5l0.2,0.7c-0.1,0.5-0.3,1.2-0.1,1.9
		c0.4,1.3,3.9,4,3.9,4c1.5-2.2,3.6-3.3,3.6-3.3c0.7-1.6-2.2-3.8-3.1-4.3c0-0.1-0.1-0.2-0.1-0.4c0-0.3-0.3-2.1-2.5-3.2
		c-2-1-4.7-2.9-5-4.3c-0.2-0.9-0.5-1.6-0.8-2.1c-0.6-0.9-1.1-0.9-1.5-0.7c-0.1,0.1-0.4,0.2-0.5,0.7c-0.4,1.3,0.4,4.5,0.7,5.5
		C-230.8,375.8-228.4,377.6-227.3,378.5z"/>
	<radialGradient id="SVGID_9_" cx="-200.1477" cy="396.2321" r="7.2106" gradientUnits="userSpaceOnUse">
		<stop  offset="0" style="stop-color:#380E0E"/>
		<stop  offset="1" style="stop-color:#000000"/>
	</radialGradient>
	<path class="st8" d="M-191.7,398.1c0-0.9,0.2-2.8-1.9-4.3c-1.8-1.3-4-2.6-6.9-2.6c-2.6,0-6.2-0.1-6.2-0.1c-0.3,0-0.4,0.2-0.5,0.4
		c0,0-0.6,2.5-1.7,3.8c-0.1,0.1-0.1,0.3-0.1,0.5c0.1,0.1,0.3,0.2,0.4,0.3c0.1,0,6.1,0.6,8.1,0.1c1.5-0.4,5.9,2.5,6.2,3.6
		c0.2,0.7,0.7,1.3,1.3,1.5c0.1,0.1,0.3,0.1,0.5,0.1c0.2,0,0.5-0.1,0.7-0.2c0.6-0.4,0.4-1.2,0.2-2
		C-191.7,398.7-191.7,398.4-191.7,398.1z"/>
	
		<radialGradient id="SVGID_10_" cx="-200.8591" cy="387.9597" r="7.1402" gradientTransform="matrix(0.8982 -0.4396 0.4396 0.8982 -191.3951 -47.8899)" gradientUnits="userSpaceOnUse">
		<stop  offset="0" style="stop-color:#380E0E"/>
		<stop  offset="1" style="stop-color:#000000"/>
	</radialGradient>
	<path class="st9" d="M-192.8,386.6c-0.4-0.8-1-2.6-3.6-3c-2.2-0.4-4.7-0.6-7.3,0.7c-2.4,1.2-5.6,2.7-5.6,2.7
		c-0.3,0.1-0.3,0.4-0.3,0.5c0,0,0.5,2.5,0.2,4.1c-0.1,0.2,0,0.3,0.2,0.5c0.1,0.1,0.4,0.1,0.5,0.1c0.1-0.1,5.7-2.2,7.3-3.5
		c1.2-1,6.4-0.3,7.1,0.5c0.5,0.6,2.3,1,2.4,0.9C-191.6,390-192.6,386.9-192.8,386.6z"/>
	
		<radialGradient id="SVGID_11_" cx="-173.4421" cy="401.1228" r="7.2106" gradientTransform="matrix(-0.8982 -0.4396 -0.4396 0.8982 -207.496 -47.8899)" gradientUnits="userSpaceOnUse">
		<stop  offset="0" style="stop-color:#380E0E"/>
		<stop  offset="1" style="stop-color:#000000"/>
	</radialGradient>
	<path class="st10" d="M-237.1,387.5c-0.5,0.6-1,1.3-0.6,1.9c0.1,0.2,0.3,0.4,0.5,0.5c0.2,0.1,0.4,0.1,0.5,0.1
		c0.6,0.1,1.3-0.2,1.8-0.8c0.7-0.8,6-1.4,7.1-0.5c1.6,1.3,7.2,3.5,7.3,3.5c0.1,0,0.4,0,0.5-0.1c0.1-0.1,0.2-0.3,0.2-0.5
		c-0.3-1.7,0.2-4.1,0.2-4.1c0-0.2,0-0.4-0.3-0.5c0,0-3.3-1.5-5.6-2.7c-2.6-1.3-5.1-1.1-7.3-0.7c-2.6,0.4-3.2,2.2-3.6,3
		C-236.5,386.9-236.7,387.1-237.1,387.5z"/>
	<radialGradient id="SVGID_12_" cx="-229.3574" cy="397.0548" r="7.3934" gradientUnits="userSpaceOnUse">
		<stop  offset="0" style="stop-color:#380E0E"/>
		<stop  offset="1" style="stop-color:#000000"/>
	</radialGradient>
	<path class="st11" d="M-235.4,399.9c0.3-1.9,4.8-3.9,6.2-3.6c2,0.5,8-0.1,8.1-0.1c0.2,0,0.4-0.1,0.4-0.3c0.1-0.1,0.1-0.3-0.1-0.5
		c-1.1-1.2-1.7-3.7-1.7-3.7c-0.1-0.2-0.3-0.4-0.5-0.4c-0.1,0-3.6,0.1-6.2,0.1c-2.9,0-5,1.3-6.9,2.6c-2.1,1.5-1.8,1.5-1.8,3
		c0,0.4-0.1,1.1-0.1,1.7c-0.2,1.3-0.4,2.9,0.2,3.6c0.2,0.2,0.4,0.4,0.7,0.4c0.1,0,0.3-0.1,0.5-0.2
		C-236.2,402.4-235.7,401.4-235.4,399.9z"/>
	<radialGradient id="SVGID_13_" cx="-202.0889" cy="411.2381" r="12.0707" gradientUnits="userSpaceOnUse">
		<stop  offset="0" style="stop-color:#380E0E"/>
		<stop  offset="1" style="stop-color:#000000"/>
	</radialGradient>
	<path class="st12" d="M-204.2,396.4c-0.1-0.1-0.1-0.1-0.3-0.1c-0.1,0-2.9-0.1-4.3-0.2c-0.1,0-0.3,0-0.4,0.1l-0.4,0.2
		c-0.1,0.1-0.2,0.2-0.3,0.4c0,0.2,0.1,0.3,0.2,0.4c0,0,4.1,2.5,5,4.2c0,0,0,0.1,0.1,0.1c0.9,1,3.1,3.8,3.5,4.7
		c0.4,1.1,1.7,10,1.7,10.4c0,0.1-0.1,0.8-0.2,1.5c-0.3,1.5-0.1,3.4-0.2,5.2c-0.1,2,0.6,3.1,1.3,3.3c0.1,0.1,0.2,0.1,0.4,0.1
		c0.3,0,0.7-0.2,0.8-0.5c0.2-0.4,0.4-1.5,0.7-3.1c0.2-0.9,0.3-1.9,0.5-2.3c0.4-1.2,1.8-3.4,1.8-5.3c0-1.7-1.2-10.2-2.5-12.4
		C-198,400.8-204,396.5-204.2,396.4z"/>
	<radialGradient id="SVGID_14_" cx="-228.7399" cy="411.1155" r="12.2458" gradientUnits="userSpaceOnUse">
		<stop  offset="0" style="stop-color:#380E0E"/>
		<stop  offset="1" style="stop-color:#000000"/>
	</radialGradient>
	<path class="st13" d="M-226.4,401.6L-226.4,401.6c0.9-1.7,5.4-4.7,5.4-4.7c0.1-0.1,0.2-0.2,0.2-0.4s-0.1-0.3-0.3-0.4l-0.4-0.2
		c-0.1-0.1-0.2-0.1-0.4-0.1c-1.3,0.1-4.2,0.6-4.3,0.6c-0.1,0-0.2,0.1-0.3,0.1c-0.1,0.1-6.6,4.5-7.7,6.7c-1.2,2.2-2.5,10.7-2.5,12.4
		c0,1.9,1.8,4.7,2,5.7c0.1,0.4,0.3,1.3,0.4,2.1c0.2,1.4,0.4,2.3,0.6,2.8c0.1,0.3,0.4,0.4,0.7,0.4c0.1,0,0.2,0,0.4-0.1
		c0.6-0.2,1.2-1.2,1.1-3c-0.1-1.7-0.4-4-0.6-5.6c-0.1-0.7,0.1-5.5,0.1-5.6c0-0.4,1.6-4.8,2-5.9
		C-229.5,405.3-227.2,402.5-226.4,401.6z"/>
	
		<radialGradient id="SVGID_15_" cx="-215.0734" cy="387.1415" r="8.0798" fx="-219.5943" fy="387.0767" gradientTransform="matrix(0.9192 0 0 1.0878 -17.2861 -34.2085)" gradientUnits="userSpaceOnUse">
		<stop  offset="0" style="stop-color:#83272B"/>
		<stop  offset="0.1403" style="stop-color:#6B1F22"/>
		<stop  offset="0.3118" style="stop-color:#541719"/>
		<stop  offset="0.4988" style="stop-color:#441213"/>
		<stop  offset="0.7105" style="stop-color:#3B0F0F"/>
		<stop  offset="1" style="stop-color:#380E0E"/>
	</radialGradient>
	<path class="st14" d="M-215.1,381.5c-4.3,0-7.9,4.1-7.9,9.1c0,2.7,0.7,4.8,2.4,6.5c0.3-0.1,0.8,0.1,1-0.1c1.4-0.5,2.6-0.7,4.1-0.7
		c2.2,0,4.1,0.7,5.3,1.2c0.1,0.1,0.1,0.1,0.3,0.1c1.7-1.7,2.9-4.2,2.9-7.1C-207.2,385.7-210.7,381.5-215.1,381.5z"/>
</g>
<g>
	<linearGradient id="SVGID_16_" gradientUnits="userSpaceOnUse" x1="-274.6667" y1="396.0059" x2="-237.4643" y2="396.0059">
		<stop  offset="0" style="stop-color:#240808"/>
		<stop  offset="1" style="stop-color:#9D1C1F"/>
	</linearGradient>
	<path class="st15" d="M-249.7,438.5c-1.2,0-6.5-0.2-10-3.6c-2.1-2-3.1-4.7-3.1-8v-21.5c0-0.1,0-3.2-1.9-5.2
		c-1.2-1.2-2.9-1.8-5.1-1.8h-3.1c-0.9,0-1.7-0.7-1.7-1.7s0.7-1.7,1.7-1.7h3.1c2.2,0,3.9-0.6,5.1-1.8c2-2,1.9-5.1,1.9-5.1l0-21.6
		c0-9.4,8.2-12.7,12.6-13.1c0.1,0,0.1,0,0.2,0h11.1c0.9,0,1.7,0.7,1.7,1.7c0,0.9-0.7,1.7-1.7,1.7h-11c-0.9,0.1-9.5,1.4-9.5,9.8v21.5
		c0,0.1,0.1,4.5-2.9,7.5c-0.4,0.4-0.9,0.8-1.4,1.2c0.5,0.3,1,0.7,1.4,1.2c2.9,3,2.9,7.3,2.9,7.5l0,21.5c0,2.4,0.7,4.2,2.1,5.6
		c2.9,2.8,7.9,2.7,7.9,2.7l10.3,0c0.9,0,1.7,0.7,1.7,1.7s-0.7,1.7-1.7,1.7h-10.2C-249.5,438.5-249.6,438.5-249.7,438.5z"/>
</g>
<g>
	
		<linearGradient id="SVGID_17_" gradientUnits="userSpaceOnUse" x1="-192.451" y1="396" x2="-156.1708" y2="396" gradientTransform="matrix(-1 0 0 1 -348.2843 0)">
		<stop  offset="0" style="stop-color:#240808"/>
		<stop  offset="1" style="stop-color:#9D1C1F"/>
	</linearGradient>
	<path class="st16" d="M-180,438.5c-0.1,0-0.2,0-0.2,0l-10.1,0c-0.9,0-1.7-0.7-1.7-1.7c0-0.9,0.7-1.7,1.7-1.7h10.2
		c0.1,0,4.5,0.1,7.1-2.5c1.4-1.4,2.1-3.3,2.1-5.8v-21.5c0-0.1-0.1-4.5,2.9-7.5c0.4-0.4,0.9-0.8,1.4-1.2c-0.5-0.3-1-0.7-1.4-1.2
		c-2.9-3-2.9-7.3-2.9-7.5v-21.5c0-8.4-7.7-9.7-8.6-9.8h-11c-0.9,0-1.7-0.7-1.7-1.7s0.7-1.7,1.7-1.7h11.1c0.1,0,0.1,0,0.2,0
		c4,0.4,11.6,3.7,11.6,13.1v21.5c0,0.1,0,3.2,1.9,5.2c1.2,1.2,2.9,1.8,5.1,1.8h3.1c0.9,0,1.7,0.7,1.7,1.7s-0.7,1.7-1.7,1.7h-3.1
		c-2.2,0-3.9,0.6-5.1,1.8c-2,2-1.9,5.1-1.9,5.1v21.6c0,3.4-1.1,6.2-3.2,8.2C-174.1,438.3-178.9,438.5-180,438.5z"/>
</g>
<g>
	<g>
		<radialGradient id="SVGID_18_" cx="-214.2657" cy="407.7227" r="10.9246" gradientUnits="userSpaceOnUse">
			<stop  offset="0" style="stop-color:#FFDD00"/>
			<stop  offset="0.117" style="stop-color:#EFCD01"/>
			<stop  offset="0.5238" style="stop-color:#BB9A04"/>
			<stop  offset="0.8307" style="stop-color:#9B7A06"/>
			<stop  offset="1" style="stop-color:#8F6E07"/>
		</radialGradient>
		<path class="st17" d="M-218,405.1c0-1.5,0.1-2.3,0.2-3.8c2.3-0.9,3.5-0.9,5.8,0c0.1,1.5,0.1,2.3,0.2,3.8
			C-214.3,404.7-215.5,404.7-218,405.1z"/>
		<radialGradient id="SVGID_19_" cx="-214.2555" cy="407.2367" r="8.7964" gradientUnits="userSpaceOnUse">
			<stop  offset="0" style="stop-color:#FFDD00"/>
			<stop  offset="0.117" style="stop-color:#EFCD01"/>
			<stop  offset="0.5238" style="stop-color:#BB9A04"/>
			<stop  offset="0.8307" style="stop-color:#9B7A06"/>
			<stop  offset="1" style="stop-color:#8F6E07"/>
		</radialGradient>
		<path class="st18" d="M-217.8,415.6c0-0.5,0-0.8-0.1-1.3c1.5,0.4,2.3-0.7,2.5-2.6c-1,0-1.5-0.1-2.6-0.2c0-1.5,0-2.3,0-3.8
			c2.5-0.1,3.8-0.1,6.3,0c0,0.9,0,1.4,0,2.3C-211.8,413.6-213.9,417-217.8,415.6z"/>
	</g>
</g>
<radialGradient id="SVGID_20_" cx="-216.2128" cy="385.386" r="0.5265" gradientTransform="matrix(0.7103 -0.7039 0.6173 0.6228 -301.6726 -9.9509)" gradientUnits="userSpaceOnUse">
	<stop  offset="0" style="stop-color:#838C92"/>
	<stop  offset="1.895368e-003" style="stop-color:#828B91"/>
	<stop  offset="0.1012" style="stop-color:#60666B"/>
	<stop  offset="0.2062" style="stop-color:#42474A"/>
	<stop  offset="0.3198" style="stop-color:#2A2D2F"/>
	<stop  offset="0.4429" style="stop-color:#17191A"/>
	<stop  offset="0.5805" style="stop-color:#0A0B0B"/>
	<stop  offset="0.744" style="stop-color:#020303"/>
	<stop  offset="1" style="stop-color:#000000"/>
</radialGradient>
<path class="st19" d="M-216.7,382c0.2,0.2,0.2,0.5,0,0.7c-0.2,0.2-0.5,0.2-0.7,0c-0.2-0.2-0.2-0.5,0-0.7
	C-217.2,381.8-216.9,381.8-216.7,382z"/>
<radialGradient id="SVGID_21_" cx="-217.8473" cy="385.3766" r="0.7336" gradientTransform="matrix(0.7103 -0.7039 0.6173 0.6228 -301.6726 -9.9509)" gradientUnits="userSpaceOnUse">
	<stop  offset="0" style="stop-color:#838C92"/>
	<stop  offset="1.895368e-003" style="stop-color:#828B91"/>
	<stop  offset="0.1012" style="stop-color:#60666B"/>
	<stop  offset="0.2062" style="stop-color:#42474A"/>
	<stop  offset="0.3198" style="stop-color:#2A2D2F"/>
	<stop  offset="0.4429" style="stop-color:#17191A"/>
	<stop  offset="0.5805" style="stop-color:#0A0B0B"/>
	<stop  offset="0.744" style="stop-color:#020303"/>
	<stop  offset="1" style="stop-color:#000000"/>
</radialGradient>
<path class="st20" d="M-217.7,383c0.3,0.3,0.2,0.7-0.1,1c-0.3,0.3-0.7,0.3-1,0.1s-0.2-0.7,0.1-1S-217.9,382.8-217.7,383z"/>
<radialGradient id="SVGID_22_" cx="-212.2651" cy="392.9702" r="0.5265" gradientTransform="matrix(-0.6 -0.8 0.7015 -0.5261 -616.4775 419.1375)" gradientUnits="userSpaceOnUse">
	<stop  offset="0" style="stop-color:#838C92"/>
	<stop  offset="1.895368e-003" style="stop-color:#828B91"/>
	<stop  offset="0.1012" style="stop-color:#60666B"/>
	<stop  offset="0.2062" style="stop-color:#42474A"/>
	<stop  offset="0.3198" style="stop-color:#2A2D2F"/>
	<stop  offset="0.4429" style="stop-color:#17191A"/>
	<stop  offset="0.5805" style="stop-color:#0A0B0B"/>
	<stop  offset="0.744" style="stop-color:#020303"/>
	<stop  offset="1" style="stop-color:#000000"/>
</radialGradient>
<path class="st21" d="M-213.4,382c0.2-0.2,0.5-0.1,0.7,0.1c0.2,0.2,0.2,0.5-0.1,0.7s-0.5,0.1-0.7-0.1S-213.6,382.1-213.4,382z"/>
<radialGradient id="SVGID_23_" cx="-213.7382" cy="393.0488" r="0.7336" gradientTransform="matrix(-0.6 -0.8 0.7015 -0.5261 -616.4775 419.1375)" gradientUnits="userSpaceOnUse">
	<stop  offset="0" style="stop-color:#838C92"/>
	<stop  offset="1.895368e-003" style="stop-color:#828B91"/>
	<stop  offset="0.1012" style="stop-color:#60666B"/>
	<stop  offset="0.2062" style="stop-color:#42474A"/>
	<stop  offset="0.3198" style="stop-color:#2A2D2F"/>
	<stop  offset="0.4429" style="stop-color:#17191A"/>
	<stop  offset="0.5805" style="stop-color:#0A0B0B"/>
	<stop  offset="0.744" style="stop-color:#020303"/>
	<stop  offset="1" style="stop-color:#000000"/>
</radialGradient>
<path class="st22" d="M-212.5,383c0.3-0.2,0.7-0.1,1,0.2c0.2,0.3,0.2,0.8-0.1,1c-0.3,0.2-0.7,0.1-1-0.2
	C-212.8,383.7-212.8,383.2-212.5,383z"/>
</svg>
