<?xml version="1.0" encoding="utf-8"?>
<!-- Generator: Adobe Illustrator 22.1.0, SVG Export Plug-In . SVG Version: 6.00 Build 0)  -->
<svg version="1.1" id="Layer_1" xmlns="http://www.w3.org/2000/svg" xmlns:xlink="http://www.w3.org/1999/xlink" x="0px" y="0px"
	 viewBox="0 0 1382.7 1341.6" style="enable-background:new 0 0 1382.7 1341.6;" xml:space="preserve">
<style type="text/css">
	.st0{fill:#163024;}
	.st1{display:none;fill:#163024;}
	.st2{fill:#244F3B;}
	.st3{display:none;}
	.st4{display:inline;}
	.st5{fill:#561114;}
	.st6{fill:url(#SVGID_1_);}
	.st7{fill:url(#SVGID_2_);}
	.st8{fill:url(#SVGID_3_);}
	.st9{fill:url(#SVGID_4_);}
	.st10{fill:url(#SVGID_5_);}
	.st11{fill:#77171C;}
	.st12{fill:#190506;}
	.st13{fill:#9D1C1F;}
	.st14{fill:url(#SVGID_6_);}
	.st15{fill:url(#SVGID_7_);}
	.st16{fill:url(#SVGID_8_);}
	.st17{fill:url(#SVGID_9_);}
	.st18{fill:url(#SVGID_10_);}
	.st19{fill:url(#SVGID_11_);}
	.st20{fill:#380E0E;}
	.st21{fill:#DD3C3C;}
</style>
<g>
	<path class="st0" d="M854,1255.7l-0.5-22l5.2-21.6l10.3-19.2l15-15.9l18.3-11.2l20.6-6.1l21.6-0.5l21.1,5.2l19.2,10.8l15.9,15.5
		l12.2,19.7c1.4,2.3,3.7,3.3,6.1,3.3c1.4,0,2.3-0.5,3.7-0.9c3.3-1.9,4.2-6.1,2.3-9.8l-12.2-19.7l-6.1-21.6l-0.9-22l5.2-21.1
		l10.3-19.2l15-15.5l18.3-11.2l21.1-6.1l22-0.5l21.6,5.2l19.7,10.8l16.9,15.9c1.4,1.4,3.3,1.9,4.7,1.9c1.9,0,3.7-0.9,5.2-2.3
		c2.8-2.8,2.3-7.5-0.5-9.8l-16.9-15.9l-11.7-18.7l-6.6-21.1l-0.9-21.6l4.7-20.6l9.8-18.7l14.5-15.5l18.3-11.2l20.6-6.1l22-0.5
		l21.6,5.2l20.6,10.8c0.9,0.5,2.3,0.9,3.3,0.9c2.3,0,5.2-1.4,6.1-3.7c1.9-3.3,0.5-7.5-2.8-9.4l-20.6-10.8l-16.4-15l-11.7-18.3
		l-6.6-20.6l-0.9-21.1l4.7-20.6l9.8-18.3l14.5-15.5l18.3-10.8l20.6-6.1l22-0.9l22,5.2c0.5,0,0.9,0,1.4,0c3.3,0,6.1-2.3,7-5.6
		c0.9-3.7-1.4-7.5-5.2-8.4l-22.5-5.2l-19.7-9.8l-16.4-14.5l-11.7-17.3l-6.6-19.7l-0.9-20.6l4.7-19.7l9.8-17.8l14.5-15l17.8-10.8
		l20.6-6.1l22.5-0.9c3.7,0,7-3.3,6.6-7c0-3.7-2.8-7-7.5-6.6l-22.5,0.9l-21.1-4.2l-19.2-9.4l-15.9-13.6l-11.7-16.9l-6.6-18.7
		l-0.9-19.7l4.2-19.2l9.4-17.3l14.1-14.5l17.8-10.8l21.1-6.1c3.7-0.9,5.6-5.2,4.7-8.9c-0.9-3.7-5.2-5.6-8.9-4.7l-21.1,6.1l-21.1,0.9
		l-20.6-4.2l-18.7-8.9l-15.5-13.1l-11.2-16.4l-6.1-18.3l-0.9-19.2l4.2-18.7l9.4-16.9l14.1-14.5l18.3-11.2c3.3-1.9,4.2-6.1,2.3-9.8
		c-1.9-3.3-6.1-4.2-9.8-2.3l-18.3,11.2l-19.7,6.1l-20.6,0.9l-20.2-3.7l-18.3-8.4l-15-12.7l-10.8-15.9l-6.1-17.8l-0.5-18.7l4.2-18.3
		l9.4-16.4l14.5-14.5c2.8-2.8,2.8-7,0-9.8c-2.8-2.8-7-2.8-9.8,0l-14.5,14.5l-17.3,10.3l-19.7,6.1l-20.2,0.9l-19.7-3.7l-17.8-8.4
		l-14.5-12.2l-10.3-15l-5.6-17.3l-0.5-17.8l4.7-17.8l9.8-16.9c1.9-3.3,0.9-7.5-2.8-9.4c-3.3-1.9-7.5-0.9-9.4,2.8l-9.8,16.9
		L953.3,122l-16.9,10.3l-19.2,6.1l-19.7,1.4l-19.2-3.7l-16.9-8l-14.1-11.7l-9.8-15l-5.2-16.9L832,66.7l4.7-18.3
		c0.9-3.7-1.4-7.5-5.2-8.4c-3.7-0.9-7.5,1.4-8.4,5.2l-4.7,18.3L809,79.3l-13.6,13.6l-16.9,10.3l-18.7,5.6l-19.7,1.4l-18.7-3.3
		l-16.9-8l-13.6-11.7l-9.4-14.5l-5.2-16.4V38.1c0-3.7-3.3-7-7-7l0,0c-3.7,0-7,3.3-7,7v18.3l-4.7,17.3l-9.4,15.9l-13.6,13.6
		l-16.9,9.8l-18.7,5.6l-19.2,0.9l-17.3-1.4l-16.4-8l-13.1-11.7L524,84l-4.7-17.3c-0.9-3.7-4.7-6.1-8.4-4.7c-3.7,0.9-6.1,4.7-4.7,8.4
		l4.7,17.3v17.3l-5.2,17.3l-9.8,15.9L482.3,152l-16.9,9.8l-18.3,5.6l-18.7,0.9l-18.3-3.3l-15.9-8l-12.7-11.7l-9.4-15.5
		c-1.9-3.3-6.1-4.2-9.8-2.3c-3.3,1.9-4.2,6.6-2.3,9.8l9.4,15.5l4.2,16.4l-0.5,17.8l-5.2,17.3l-9.8,15.9L344.5,234l-16.9,9.8
		l-18.3,5.6l-18.7,0.9l-17.8-3.7l-15.5-8l-13.1-12.2c-2.8-2.8-7.5-2.3-9.8,0.5c-2.8,2.8-2.3,7,0.5,9.8L248,249l8.4,14.5l4.2,16.9
		l-0.5,17.8l-5.6,17.8l-9.8,16.4L230.6,346l-16.9,9.8l-18.3,5.6l-18.7,0.9l-17.8-3.7l-16.4-8.4c-3.3-1.9-7.5-0.5-9.4,2.8
		c-1.9,3.3-0.5,7.5,2.8,9.4l16.4,8.4L165,383l8.4,15l4.2,17.3l-0.5,18.3l-5.6,18.3l-10.3,16.9l-14.1,14.1l-16.9,10.3l-18.3,5.6
		l-18.7,0.9l-18.7-4.2c-3.7-0.9-7.5,1.4-8.4,5.2c-0.9,3.7,1.4,7.5,5.2,8.4l18.7,4.2l15.5,8.4l12.7,12.7l8.4,15.5l4.2,17.8l-0.9,18.7
		l-5.6,18.7l-10.3,16.9l-14.1,14.1l-17.3,10.3l-18.7,5.6L43.6,653c-3.7,0-7,3.3-6.6,7.5c0,3.7,3.3,6.6,7,6.6c0,0,0,0,0.5,0l19.7-0.9
		l18.3,4.2l15.9,8.9l12.7,13.1l8.9,16.4l4.2,18.3l-0.9,19.2l-5.6,19.2l-10.3,17.3l-14.5,14.5l-17.3,10.3l-19.7,6.1
		c-3.7,0.9-5.6,5.2-4.7,8.9c0.9,2.8,3.7,5.2,6.6,5.2c0.5,0,1.4,0,1.9-0.5l19.7-6.1l19.2-0.5l18.3,4.7l16.4,9.4l13.1,13.6l8.9,16.9
		l4.2,19.2l-0.9,20.2l-6.1,19.7l-10.8,17.8l-14.5,15l-18.3,11.2c-3.3,1.9-4.2,6.1-2.3,9.8c1.4,2.3,3.7,3.3,6.1,3.3
		c1.4,0,2.3-0.5,3.7-0.9l18.3-11.2l19.2-5.6l19.7-0.5l18.7,4.7l16.9,9.8l13.6,14.1l9.4,17.3l4.7,19.7l-0.5,20.6l-6.1,20.6
		l-10.8,18.3l-15.5,15.9c-2.8,2.8-2.8,7,0,9.8c1.4,1.4,3.3,1.9,4.7,1.9c1.9,0,3.7-0.5,5.2-1.9l15.5-15.9l17.8-10.8l19.7-5.6
		l20.2-0.5l19.2,5.2l17.3,10.3l14.1,14.5l9.8,18.3l4.7,20.2l-0.5,21.6l-5.6,20.6l-11.2,19.7c-1.9,3.3-0.9,7.5,2.8,9.4
		c0.9,0.5,2.3,0.9,3.3,0.9c2.3,0,4.7-1.4,6.1-3.7l11.2-19.7l15-15.5l18.3-10.8l20.2-5.6l20.6-0.5l19.7,5.2l17.8,10.3l14.5,15
		l10.3,18.7l5.2,21.1v21.6l-6.1,22c-0.9,3.7,1.4,7.5,5.2,8.4c0.5,0,1.4,0.5,1.9,0.5c3.3,0,6.1-1.9,6.6-5.2l6.1-22l10.8-19.2l15-15.5
		l18.3-11.2l20.2-6.1l21.1-0.5l20.2,5.2l18.3,10.8l15,15.5l10.8,18.7l5.6,21.1v23c0,3.7,3.3,7,7,7l0,0c3.7,0,7-3.3,7-7v-23l5.6-21.6
		l10.8-19.2l15-15.9l18.3-11.2l20.6-6.1l21.6-0.5l20.6,5.6l18.7,10.8l15.5,15.5l11.2,19.2l6.1,22.5c0.9,3.3,3.7,5.2,6.6,5.2
		c0.5,0,1.4,0,1.9-0.5c3.7-0.9,6.1-5.2,4.7-8.4L854,1255.7z M822.6,1214.5c0,0-0.5-0.5-0.9-0.5c-0.5,0-0.5-0.5-0.5-0.5l-20.6-11.7
		c-0.5,0-0.5,0-0.9-0.5c-0.5,0-0.5-0.5-0.9-0.5l-21.6-5.6l0,0l-0.9-0.5c-0.5,0-0.5,0-0.9,0c-0.5,0-0.5,0-0.9,0l-23.4,0.5
		c-0.5,0-0.5,0-0.9,0c-0.5,0-0.5,0-0.9,0l-22.5,6.6c-0.5,0-0.5,0.5-0.9,0.5c-0.5,0-0.5,0-0.9,0.5l-20.2,12.2c-0.5,0-0.5,0.5-0.5,0.5
		c-0.5,0-0.5,0.5-0.9,0.5l-16.4,16.9c0,0.5-0.5,0.5-0.5,0.9c0,0.5-0.5,0.5-0.5,0.5l-4.2,8l-0.5-71.2v-18.3l4.2-16.9l8.4-15
		l11.7-12.2l14.5-8.9l15.9-4.7l16.9-0.5l16.4,4.2l14.5,8.4l12.2,11.7l8.4,15l5.2,17.3l0,0l19.7,69.4L822.6,1214.5z M645.9,1216.8
		c0,0-0.5-0.5-0.9-0.5c-0.5,0-0.5-0.5-0.9-0.5l-20.2-11.7c-0.5,0-0.5,0-0.9-0.5c-0.5,0-0.5-0.5-0.9-0.5l-22-5.6c-0.5,0-0.5,0-0.9,0
		c-0.5,0-0.5,0-0.9,0l0,0l-23,0.5c-0.5,0-0.5,0-0.9,0c-0.5,0-0.5,0-0.9,0l-22,6.6c-0.5,0-0.5,0.5-0.9,0.5c-0.5,0-0.5,0-0.9,0.5
		l-19.7,12.2c-0.5,0-0.5,0.5-0.5,0.5c-0.5,0-0.5,0.5-0.9,0.5l-6.1,6.1l18.3-68.4l0,0l4.7-17.3l8.4-15l11.7-12.2l14.5-8.4l15.9-4.7
		l16.4-0.5l15.9,4.2l14.5,8.4l11.7,11.7l8.4,14.5l4.2,16.4v18.3l0.5,71.7l-4.7-8c0-0.5-0.5-0.5-0.5-0.5c0-0.5-0.5-0.5-0.5-0.9
		L645.9,1216.8z M478.6,1172.8c0-0.5-0.5-0.5-0.9-0.5c-0.5,0-0.5-0.5-0.9-0.5l-19.2-11.2c-0.5,0-0.5,0-0.9-0.5
		c-0.5,0-0.5-0.5-0.9-0.5l-20.2-5.2c-0.9-0.5-1.9-0.5-3.3-0.5l-22.5,0.5c-0.5,0-0.5,0-0.9,0c-0.5,0-0.5,0-0.9,0l-21.6,6.1
		c-0.5,0-0.5,0.5-0.9,0.5c-0.5,0-0.5,0-0.9,0.5l-6.6,4.2l34.7-60l8.9-15.5l11.7-12.2l14.1-8.4l15.9-4.7l16.4-0.5l15.5,3.7l14.1,8
		l11.2,11.2l8,14.5l4.2,16.4v16.9l-4.7,17.3l0,0l-18.3,68l-1.9-8c0-0.5-0.5-0.5-0.5-0.9c0-0.5,0-0.5-0.5-0.9l-11.2-20.2
		c0-0.5-0.5-0.5-0.5-0.9c0-0.5-0.5-0.5-0.5-0.9L478.6,1172.8z M332.8,1087.5c0-0.5-0.5-0.5-0.9-0.5c-0.5,0-0.5-0.5-0.9-0.5
		l-18.7-11.2c-0.5,0-0.5,0-0.9-0.5c-0.5,0-0.5-0.5-0.9-0.5l-21.1-5.6c-0.5,0-0.5,0-0.9,0c-0.5,0-0.5,0-0.9,0l0,0l-22,0.5
		c-0.5,0-0.5,0-0.9,0c-0.5,0-0.5,0-0.9,0l-6.6,1.9l47.8-48.3l0,0l0,0l12.2-12.7l14.1-8.4l15.5-4.7l15.9-0.5l15.5,3.7l13.6,8
		l11.2,11.2l8,14.1l3.7,15.9l-0.5,16.9l-4.7,16.4l-8.9,15.5l-34.2,60v-8c0-0.5,0-0.5,0-0.9c0-0.5,0-0.5,0-0.9l-5.2-22
		c0-0.5-0.5-0.5-0.5-0.9c0-0.5,0-0.5-0.5-0.9l-10.8-19.7c0-0.5-0.5-0.5-0.5-0.9c0-0.5-0.5-0.5-0.5-0.9L332.8,1087.5z M218.5,968.4
		c0-0.5-0.5-0.5-0.9-0.5c-0.5-0.5-0.5-0.5-0.9-0.5l-18.3-10.8c-0.5,0-0.5,0-0.9-0.5c-0.5,0-0.5-0.5-0.9-0.5l-20.6-5.2
		c-0.5,0-0.9,0-0.9,0c-0.5,0-0.5,0-0.9,0h-6.6l56.7-34.2l14.5-8.9l15.5-4.7l15.5-0.5l15,3.7l13.1,7.5l10.8,10.8l7.5,13.6l3.7,15.5
		l-0.5,16.4l-4.7,15.9l-8.4,14.5l-12.2,12.7l0,0l-46.9,47.8l1.9-6.6c0-0.5,0-0.5,0-0.9c0-0.5,0-0.5,0-0.9l0.9-22.5
		c0-0.5,0-0.5,0-0.9c0-0.5,0-0.5,0-0.9l-5.2-21.6c0-0.5-0.5-0.5-0.5-0.9c0-0.5,0-0.5-0.5-0.9l-9.4-19.2c0-0.5-0.5-0.5-0.5-0.9
		c0-0.5-0.5-0.5-0.5-0.9L218.5,968.4z M142.5,825.9c0-0.5-0.5-0.5-0.9-0.5c-0.5-0.5-0.5-0.5-0.9-0.5l-17.8-10.3
		c-0.5,0-0.5,0-0.9-0.5c-0.5,0-0.5-0.5-0.9-0.5l-5.6-1.4l61.4-18.3l15.9-4.7l15.5-0.5l14.5,3.7l13.1,7.5l10.3,10.8l7.5,13.1l3.7,15
		l-0.5,15.9l-4.7,15.5l-8.4,14.1L232,896.2l-14.5,8.9l-55.3,33.3l3.3-5.6c0-0.5,0.5-0.9,0.5-1.4c0,0,0-0.5,0.5-0.5l6.6-21.6
		c0-0.5,0-0.5,0-0.9c0-0.5,0-0.5,0-0.9l0.9-22c0-0.5,0-0.5,0-0.9c0-0.5,0-0.5,0-0.9l-4.7-21.1c0-0.5-0.5-0.5-0.5-0.9
		c0-0.5,0-0.5-0.5-0.9l-9.8-18.7c0-0.5-0.5-0.5-0.5-0.9c0-0.5-0.5-0.5-0.5-0.9L142.5,825.9z M117.7,794.5c0.5-0.5,0.5-0.5,0.5-0.9
		l0.5-0.5l11.2-18.7c0-0.5,0.5-0.9,0.5-1.4l0.5-0.5l6.1-20.6c0-0.5,0-0.5,0-0.9c0-0.5,0-0.5,0-0.9l0.9-21.1c0-0.5,0-0.5,0-0.9
		c0-0.5,0-0.5,0-0.9l-4.7-20.2c0-0.5-0.5-0.5-0.5-0.9c0-0.5,0-0.5-0.5-0.9l-9.8-17.8c0-0.5-0.5-0.5-0.5-0.9c0-0.5-0.5-0.5-0.5-0.9
		l-14.1-14.5c-0.5-0.5-0.5-0.5-0.9-0.5c-0.5,0-0.5-0.5-0.9-0.5l-5.2-2.8l61.9-2.3l0,0l15.9-0.5l14.5,3.3l12.7,7l10.3,10.3l7,12.7
		L226,712l-0.5,15.5l-4.7,15l-8.4,13.6l-11.2,11.2l-13.6,8.4l-15.9,4.7l-59.5,17.8L117.7,794.5z M107.8,649.7
		C108.3,649.7,108.3,649.2,107.8,649.7l0.9-0.9l15.5-15.5c0.5-0.5,0.5-0.5,0.5-0.9l0.5-0.5l11.2-18.3c0-0.5,0.5-0.9,0.5-0.9l0.5-0.5
		l6.1-20.2c0-0.5,0-0.5,0-0.9c0-0.5,0-0.5,0-0.9l0.9-20.6c0-0.5,0-0.5,0-0.9c0-0.5,0-0.5,0-0.9l-4.7-19.7c0-0.5-0.5-0.5-0.5-0.9
		c0-0.5,0-0.5-0.5-0.9l-9.8-17.3c0-0.5-0.5-0.5-0.5-0.9c0-0.5-0.5-0.5-0.5-0.9l-3.7-3.7l58.6,13.1l0,0l15,3.3l12.7,6.6l9.8,9.8
		l7,12.7l3.3,14.1l-0.5,15l-4.2,15l-8,13.6l-11.2,11.2l-13.6,8l-15,4.7l-15.9,0.5l0,0l0,0l-59.5,2.3L107.8,649.7z M135.5,508.2
		c0.5,0,0.5-0.5,0.9-0.5h0.5l18.3-11.2c0.5,0,0.5-0.5,0.5-0.5c0.5,0,0.5-0.5,0.9-0.5l15-15c0.5-0.5,0.5-0.5,0.5-0.9l0.5-0.5
		l10.8-18.3c0-0.5,0.5-0.9,0.5-1.4c0,0,0.5,0,0.5-0.5l6.1-19.7c0-0.5,0-0.5,0-0.9c0-0.5,0-0.5,0-0.9l0.9-20.2c0-0.5,0-0.5,0-0.9
		c0-0.5,0-0.5,0-0.9l-4.7-19.2c0-0.5-0.5-0.5-0.5-0.9c0-0.5,0-0.5-0.5-0.9l-2.8-4.7l51.1,26.7l0,0l13.1,7l9.8,9.8l7,12.2l3.3,13.6
		l-0.5,14.5l-4.2,14.5l-8,13.1l-11.2,11.2l-13.6,8l-15,4.7l-13.1,0.9l-15-3.3l0,0L130.3,510L135.5,508.2z M197.4,377.9L197.4,377.9
		c0.9,0,1.4,0,1.9-0.5l20.2-6.1c0.5,0,0.5-0.5,0.9-0.5h0.5l18.3-10.8c0.5,0,0.5-0.5,0.5-0.5c0.5,0,0.5-0.5,0.9-0.5l15-15
		c0.5-0.5,0.5-0.5,0.5-0.9l0.5-0.5l10.8-17.8c0.5-0.5,0.5-0.9,0.5-1.4l0.5-0.5l6.1-19.7c0-0.5,0-0.5,0-0.9c0-0.5,0-0.5,0-0.9
		l0.5-19.7c0-0.5,0-0.5,0-0.9c0-0.5,0-0.5,0-0.9l-1.4-5.6l41.2,38.4l10.8,9.8l7,11.7l3.3,13.6l-0.5,14.5l-4.2,14.1l-8,13.1
		l-10.8,10.8l-13.1,8l-14.5,4.7l-15,0.9l-14.1-2.8l-13.1-7l0,0l-49.7-26.2L197.4,377.9z M288.8,265.9c0.5,0,0.9,0,1.4,0l0,0l0,0l0,0
		l0,0h0.5l20.6-0.9h0.5c0.5,0,0.9,0,1.4,0l20.2-6.1c0.5,0,0.5-0.5,0.9-0.5h0.5l18.3-10.8c0.5,0,0.5-0.5,0.5-0.5l0.5-0.5l15-15
		c0.5-0.5,0.5-0.5,0.5-0.9l0.5-0.5l10.8-17.8c0.5-0.5,0.5-0.9,0.5-1.4l0.5-0.5l5.6-19.2c0-0.5,0-0.5,0-0.9c0-0.5,0-0.5,0-0.9v-5.6
		l29.1,47.3l0,0l7.5,12.7l3.7,13.1L427,271l-4.2,14.1l-8,13.1L404,309l-13.1,8l-14.5,4.7l-15,0.9l-14.1-2.8l-12.7-6.6l-10.8-9.8
		l-40.3-38L288.8,265.9z M404.5,178.7c0.5,0,0.5,0,0.9,0c0.5,0,0.5,0.5,0.9,0.5l19.7,3.7c0.5,0,0.9,0,1.4,0l0,0l0,0l0,0l0,0h0.5
		l20.6-1.4h0.5c0.5,0,0.9,0,1.4,0l20.2-6.1c0.5,0,0.5-0.5,0.9-0.5h0.5l18.3-10.8c0.5,0,0.5-0.5,0.5-0.5s0.5-0.5,0.9-0.5l15-14.5
		c0.5-0.5,0.5-0.5,0.5-0.9l0.5-0.5l10.8-17.3c0.5-0.5,0.5-0.9,0.5-1.4l0.5-0.5l1.4-5.2l15,53l0,0l4.2,14.1V204l-4.2,14.1l-7.5,12.7
		l-10.8,10.8l-13.1,8l-15,4.7l-15,0.9l-14.5-2.8l-12.7-6.1l-10.3-9.4l-7.5-12.7l0,0l-28.6-47.3L404.5,178.7z M538.1,121.5
		c0.5,0.5,0.5,0.5,0.9,0.5c0.5,0,0.5,0.5,0.5,0.5l17.8,8.4c0.5,0,0.5,0,0.9,0c0.5,0,0.5,0.5,0.9,0.5l20.2,3.7c0.5,0,0.9,0,1.4,0l0,0
		l0,0l0,0l0,0h0.5l21.1-1.4h0.5c0.5,0,0.9,0,1.4,0l20.2-6.6c0.5,0,0.5-0.5,0.9-0.5h0.5l18.3-10.8c0.5,0,0.5-0.5,0.5-0.5l0.5-0.5
		l15-15c0.5-0.5,0.5-0.5,0.5-0.9l0.5-0.5l2.8-4.7v55.8l0,0l0,0v15l-3.7,14.1l-7.5,12.7l-10.8,10.8l-13.1,8l-15,4.7l-15.5,0.9
		l-14.5-2.8l-13.1-6.6l-10.3-9.4l-7.5-11.7l-3.7-14.1l0,0l-15-53.9L538.1,121.5z M682,98.5l15,13.1c0.5,0.5,0.5,0.5,0.9,0.5l0.5,0.5
		l18.3,8.4c0.5,0,0.5,0,0.9,0c0.5,0,0.5,0.5,0.9,0.5l20.6,3.7c0.5,0,0.9,0,1.4,0l0,0l0,0l0,0l0,0h0.5l21.1-1.4h0.5
		c0.5,0,0.9,0,1.4,0l20.6-6.6c0.5,0,0.5-0.5,0.9-0.5h0.5l18.3-11.2c0.5,0,0.5-0.5,0.5-0.5l0.5-0.5l4.2-4.2l-15,55.3l0,0l-4.2,15
		l-7.5,13.1L772,194.6l-13.6,8l-15,4.7l-15.5,0.9l-15-2.8l-13.1-6.6l-10.8-9.4l-7.5-11.7l-3.7-13.1v-15l0,0V92l2.8,4.7l0.5,0.5
		C681.5,98.1,681.5,98.1,682,98.5z M838,127.6l15.5,13.1c0.5,0.5,0.5,0.5,0.9,0.5l0.5,0.5l18.7,8.9c0.5,0,0.5,0,0.9,0
		c0.5,0,0.5,0.5,0.9,0.5l21.1,3.7c0.5,0,0.9,0,1.4,0l0,0l0,0l0,0l0,0h0.5l21.6-1.4h0.5c0.5,0,0.9,0,1.4,0l20.6-6.6
		c0.5,0,0.5-0.5,0.9-0.5h0.5l5.2-2.8l-29.5,51.1l0,0l-8,13.6L900.8,219l-13.6,8l-15,4.7l-15.5,0.9l-15.5-2.8l-13.6-6.6l-10.8-9.4
		l-8-11.7l-4.2-13.6v-14.1l4.2-15l0,0l15.5-57.2l1.4,5.2c0,0,0,0.5,0.5,0.5c0,0.5,0.5,0.9,0.5,1.4l10.8,16.4l0.5,0.5
		C837.6,127.1,837.6,127.1,838,127.6z M982.4,195.1l15.9,13.6c0.5,0.5,0.5,0.5,0.9,0.5l0.5,0.5l19.2,8.9c0.5,0,0.5,0,0.9,0
		c0.5,0,0.5,0.5,0.9,0.5l21.6,4.2c0.5,0,0.9,0,1.4,0l0,0l0,0l0,0l0,0h0.5l22-1.4h0.5c0.5,0,0.9,0,1.4,0l5.6-1.9l-43.1,44.1l0,0
		l-11.7,11.7l-13.6,8.4l-15.5,4.7l-15.9,0.9l-15.5-3.3l-14.1-6.6l-11.2-9.8l-8-12.2l-4.2-13.6l-0.5-14.5l3.7-14.1l8-13.6l0,0
		l30.5-53v5.6c0,0.5,0,0.5,0.5,0.9c0,0.5,0,0.5,0,0.9l6.1,19.2l0.5,0.5c0,0.5,0.5,0.9,0.5,1.4l11.2,16.9L982.4,195.1
		C981.9,194.6,981.9,194.6,982.4,195.1z M1105.2,298.2l16.4,13.6c0.5,0,0.5,0.5,0.9,0.5l0.5,0.5l19.7,9.4c0.5,0,0.5,0,0.9,0
		c0.5,0,0.5,0.5,0.9,0.5l22,4.2c0.5,0,0.9,0,1.4,0l0,0l0,0l0,0l0,0c0,0,0,0,0.5,0l6.1-0.5l-54.8,32.8l0,0l-14.5,8.9l-15.5,4.7
		l-16.4,0.9l-15.9-3.3l-14.1-7l-11.7-9.8l-8.4-12.7l-4.7-14.1l-0.5-15l3.7-14.5l7.5-13.1l11.7-11.7l0,0l0,0l44.5-45.5l-1.4,5.6
		c0,0.5,0,0.5,0,0.9c0,0.5,0,0.5,0,0.9l0.9,20.6c0,0.5,0,0.9,0.5,0.9c0,0.5,0,0.5,0,0.9l6.6,19.7c0,0,0,0.5,0.5,0.5
		c0,0.5,0.5,0.9,0.5,1.4l12.2,17.3l0.5,0.5C1104.7,297.7,1104.7,298.2,1105.2,298.2z M1197.1,432.2l16.9,14.5c0.5,0,0.5,0.5,0.9,0.5
		l0.5,0.5l20.2,9.8c0.5,0,0.5,0,0.9,0c0.5,0,0.5,0.5,0.9,0.5l6.6,1.4l-63.7,19.2l0,0l-16.9,5.2l-16.4,0.9l-16.4-3.3l-14.5-7
		l-12.2-10.3l-8.9-13.1l-4.7-14.5l-0.5-15l3.7-15l7.5-13.6l11.2-11.2l14.5-8.9l0,0L1183,339l-2.8,5.6c0,0.5,0,0.5-0.5,0.9
		c0,0.5-0.5,0.5-0.5,0.9l-4.7,20.6c0,0.5,0,0.5,0,0.9c0,0.5,0,0.5,0,0.9l0.9,21.1c0,0.5,0,0.5,0.5,0.9c0,0.5,0,0.5,0,0.9l7,20.2
		l0.5,0.5c0,0.5,0.5,0.9,0.5,1.4l12.2,17.8L1197.1,432.2C1196.6,431.3,1196.6,431.8,1197.1,432.2z M1244.4,477.2
		c-0.5,0.5-0.5,0.5-0.5,0.9c0,0.5-0.5,0.5-0.5,0.9l-10.8,18.7c0,0.5,0,0.5-0.5,0.9c0,0.5-0.5,0.5-0.5,0.9l-4.7,21.1
		c0,0.5,0,0.5,0,0.9c0,0.5,0,0.5,0,0.9l0.9,21.6c0,0.5,0,0.5,0.5,0.9c0,0.5,0,0.5,0,0.9l7,20.6c0,0,0,0.5,0.5,0.5
		c0,0.5,0.5,0.9,0.5,1.4l12.7,18.7l0.5,0.5c0.5,0.5,0.5,0.5,0.5,0.9l17.3,15c0.5,0.5,0.5,0.5,0.9,0.5l0.5,0.5l6.6,3.3l-68.4,2.8l0,0
		l-17.8,0.5l-16.4-3.3l-15-7.5l-12.2-10.8l-8.9-13.1l-4.7-15l-0.5-15.5l3.7-15l7.5-13.6l11.2-11.7l14.1-8.4l16.9-5.2l0,0l64.7-19.7
		L1244.4,477.2z M1270.6,625.8C1270.2,625.8,1270.2,626.3,1270.6,625.8c-0.9,0.5-0.9,0.9-1.4,0.9l-15.5,16.4
		c-0.5,0.5-0.5,0.5-0.5,0.9c0,0.5-0.5,0.5-0.5,0.9l-10.8,19.7c0,0.5,0,0.5-0.5,0.9c0,0.5-0.5,0.5-0.5,0.9l-5.2,21.6
		c0,0.5,0,0.5,0,0.9c0,0.5,0,0.5,0,0.9l1.4,22.5c0,0.5,0,0.5,0.5,0.9c0,0.5,0,0.5,0,0.9l7,21.6l0.5,0.5c0,0.5,0.5,0.9,0.5,1.4
		l12.7,19.2l0.5,0.5c0.5,0.5,0.5,0.5,0.9,0.9l6.1,5.6l-68.9-15.5l-17.3-3.7l-15-8l-12.7-11.2l-8.9-13.6l-5.2-15.5l-0.5-15.9
		l3.7-15.5l7.5-14.1l11.2-11.7l14.1-8.4l15.9-4.7l17.8-0.5l0,0l69.4-2.8L1270.6,625.8z M1254.7,779.1c-0.5,0-0.5,0.5-0.9,0.5
		c-0.5,0-0.5,0-0.9,0.5l-19.7,12.2c-0.5,0-0.5,0.5-0.5,0.5c-0.5,0-0.5,0.5-0.9,0.5l-15.9,16.4c-0.5,0.5-0.5,0.5-0.5,0.9
		c0,0.5-0.5,0.5-0.5,0.5l-10.8,20.2c0,0.5,0,0.5-0.5,0.9c0,0.5-0.5,0.5-0.5,0.9l-5.2,22.5c0,0.5,0,0.5,0,0.9c0,0.5,0,0.5,0,0.9
		l0.9,23c0,0.5,0,0.5,0,0.9c0,0.5,0,0.5,0,0.9l7,22l0.5,0.5c0,0.5,0.5,0.9,0.5,1.4l4.7,7.5l-63.3-33.3l-15.9-8.4l-12.7-11.7
		l-8.9-14.1l-5.2-15.9l-0.5-16.4l3.7-15.9l8-14.1l11.2-12.2l14.5-8.4l16.4-4.7l16.9-0.5l17.8,3.7l68.9,15.5L1254.7,779.1z
		 M1197.1,925.3c-0.5,0-0.5,0-0.9,0c-0.5,0-0.5,0-0.9,0l-22.5,6.6c-0.5,0-0.5,0.5-0.9,0.5c-0.5,0-0.5,0-0.9,0.5l-20.2,12.2
		c-0.5,0-0.5,0.5-0.9,0.5c-0.5,0-0.5,0.5-0.9,0.5l-15.9,16.9c0,0.5-0.5,0.5-0.5,0.9c0,0.5-0.5,0.5-0.5,0.9l-10.8,20.6
		c0,0.5,0,0.5-0.5,0.9c0,0.5-0.5,0.5-0.5,0.9l-5.2,22.5c0,0.5,0,0.5,0,0.9c0,0.5,0,0.5,0,0.9l0.9,23.4c0,0.5,0,0.5,0,0.9
		c0,0.5,0,0.5,0,0.9l2.8,8.9l-53-49.2l0,0l-13.1-12.2l-8.9-14.5l-4.7-15.9l-0.5-16.9l3.7-15.9l8-14.5l11.7-12.2l14.5-8.9l16.4-4.7
		l16.9-0.5l16.9,3.7l15.9,8.4l63.3,33.3L1197.1,925.3z M1100.5,1053.7c-0.5,0-0.5,0-0.9,0c-0.5,0-0.5,0-0.9,0l-23.9,0.5
		c-0.5,0-0.5,0-0.9,0c-0.5,0-0.5,0-0.9,0l-22.5,6.6c-0.5,0-0.5,0.5-0.9,0.5c-0.5,0-0.5,0-0.9,0.5l-20.2,12.2c-0.5,0-0.5,0.5-0.5,0.5
		c-0.5,0-0.5,0.5-0.9,0.5l-16.4,16.9c-0.5,0.5-0.5,0.5-0.5,0.9c0,0.5-0.5,0.5-0.5,0.5l-11.2,20.6c0,0.5,0,0.5-0.5,0.9
		c0,0.5-0.5,0.5-0.5,0.9l-5.6,23c0,0.5,0,0.5,0,0.9c0,0.5,0,0.5,0,0.9l0.5,9.8l-37.5-61.9l0,0l-9.4-15.5l-4.7-16.4l-0.5-16.9
		l3.7-16.4l8-15l11.7-12.2l14.5-8.9l16.4-4.7l16.9-0.5l16.9,3.7l15,8l13.1,12.2l0,0l52.5,49.2L1100.5,1053.7z M972.6,1152.6
		c-0.5,0-0.5,0-0.9-0.5c-0.5,0-0.5-0.5-0.9-0.5l-23-5.6c-0.5,0-0.9,0-1.4,0h-0.5l-23.4,0.5c-0.5,0-0.5,0-0.9,0c-0.5,0-0.5,0-0.9,0
		l-22.5,6.6c-0.5,0-0.5,0.5-0.9,0.5c-0.5,0-0.5,0-0.9,0.5l-20.2,12.2c-0.5,0-0.5,0.5-0.5,0.5c-0.5,0-0.5,0.5-0.9,0.5l-16.4,16.9
		c0,0.5-0.5,0.5-0.5,0.9c0,0.5-0.5,0.5-0.5,0.5L846,1206c0,0.5,0,0.5-0.5,0.9c0,0.5-0.5,0.5-0.5,0.9l-2.3,9.4l-19.7-69.4l0,0l0,0
		l-5.2-17.3v-17.3l4.2-16.4l8-15l11.7-12.2l14.5-8.9l16.4-4.7l16.9-0.5l16.4,4.2l15,8.4l12.2,11.7l9.4,15.5l0,0l37.5,61.9
		L972.6,1152.6z M775.7,1087c-0.5,0-0.5,0-0.9-0.5c-0.5,0-0.5-0.5-0.9-0.5l-17.8-4.7c-0.5,0-0.5,0-0.9,0c-0.5,0-0.5,0-0.9,0
		l-18.7,0.5c-0.5,0-0.5,0-0.9,0c-0.5,0-0.5,0-0.9,0l-17.8,5.2c-0.5,0-0.5,0.5-0.9,0.5c-0.5,0-0.5,0-0.9,0.5l-15.9,9.8
		c-0.5,0-0.5,0.5-0.5,0.5c-0.5,0-0.5,0.5-0.9,0.5l-13.1,13.6c0,0.5-0.5,0.5-0.5,0.9c0,0.5-0.5,0.5-0.5,0.5l-0.9,1.9v-64.7l0,0l0,0
		v-13.6l3.3-12.2l6.1-11.2l8.9-8.9l10.8-6.6l12.2-3.7l12.7-0.5l12.2,2.8l11.2,6.1l8.9,8.9l6.6,10.8l3.7,13.1l17.3,62.3l-1.4-1.4
		c0,0-0.5-0.5-0.9-0.5c-0.5,0-0.5-0.5-0.9-0.5L775.7,1087z M634.6,1089.3c-0.5,0-0.5,0-0.9-0.5c-0.5,0-0.5-0.5-0.9-0.5l-17.8-4.7
		c-0.5,0-0.9,0-1.4,0s-0.5,0-0.5,0l-18.3,0.5c-0.5,0-0.5,0-0.9,0c-0.5,0-0.5,0-0.9,0l-17.8,5.2c-0.5,0-0.5,0.5-0.9,0.5
		c-0.5,0-0.5,0-0.9,0.5l-15.9,9.8c-0.5,0-0.5,0.5-0.5,0.5c-0.5,0-0.5,0.5-0.9,0.5l-0.9,0.9l16.4-61.9l0,0l3.7-13.1l6.1-11.2l8.9-8.9
		l10.8-6.6l12.2-3.3l12.2-0.5l11.7,2.8l10.8,6.1l8.9,8.4l6.1,10.8l3.3,12.2v13.6l0,0v64.7l-0.9-1.9c0-0.5-0.5-0.5-0.5-0.9
		c0-0.5-0.5-0.5-0.5-0.9l-13.1-13.1c0,0-0.5-0.5-0.9-0.5c-0.5,0-0.5-0.5-0.5-0.5L634.6,1089.3z M501.1,1055.1c-0.5,0-0.5,0-0.9-0.5
		c-0.5,0-0.5-0.5-0.9-0.5l-17.3-4.2c-0.5,0-0.9,0-0.9,0c-0.5,0-0.5,0-0.5,0l-18.3,0.5c-0.5,0-0.5,0-0.9,0c-0.5,0-0.5,0-0.9,0
		l-17.3,5.2c-0.5,0-0.5,0.5-0.9,0.5c-0.5,0-0.5,0-0.9,0.5l-0.9,0.5l31.4-54.8l0,0l0,0l6.6-11.7l8.9-8.9l10.8-6.6l11.7-3.7l12.2-0.5
		l11.7,2.8l10.8,6.1l8.4,8.4l6.1,10.8l3.3,12.2v12.7l-3.7,13.1l0,0l-16.4,61.9l-0.5-1.4c0-0.5-0.5-0.5-0.5-0.9c0-0.5,0-0.5-0.5-0.9
		l-8.9-15.9c0-0.5-0.5-0.5-0.5-0.9c0-0.5-0.5-0.5-0.5-0.9l-12.7-12.7c-0.5-0.5-0.5-0.5-0.9-0.5c-0.5,0-0.5-0.5-0.5-0.5L501.1,1055.1
		z M383.9,988.1c-0.5,0-0.5,0-0.9-0.5c-0.5,0-0.5-0.5-0.9-0.5l-15.9-3.7h-0.5h-0.5h-0.5c-0.5,0-0.9,0-1.4,0l-17.8,0.5
		c-0.5,0-0.5,0-0.9,0c-0.5,0-0.5,0-0.9,0h-0.5l43.6-44.5l0,0l9.4-9.4l10.8-6.6l11.7-3.3l12.2-0.5l11.7,2.8l10.3,5.6l8.4,8.4
		l6.1,10.3l2.8,11.7v12.7l-3.3,12.2l-6.6,11.7l0,0l-31.4,54.8v-0.9c0-0.5,0-0.5,0-0.9s0-0.5,0-0.9l-4.2-17.8c0-0.5-0.5-0.5-0.5-0.9
		c0-0.5,0-0.5-0.5-0.9l-8.9-15.5c0-0.5-0.5-0.5-0.5-0.9c0-0.5-0.5-0.5-0.5-0.9l-12.7-12.7c-0.5-0.5-0.5-0.5-0.9-0.5
		c-0.5,0-0.5-0.5-0.5-0.5L383.9,988.1z M291.1,893.4c-0.5,0-0.5,0-0.9-0.5c-0.5,0-0.5-0.5-0.9-0.5l-16.9-4.2c-0.5,0-0.5,0-0.9,0
		c-0.5,0-0.5,0-0.9,0l0,0l0,0l52.5-31.4l11.2-7l11.7-3.3l11.7-0.5l11.2,2.8l10.3,5.6l8,8l5.6,10.3l2.8,11.7v12.2l-3.3,11.7
		l-6.1,10.8l-9.4,9.4l0,0l0,0l-43.1,44.1l0,0c0-0.5,0-0.5,0-0.9c0-0.5,0-0.5,0-0.9l0.5-17.8c0-0.5,0-0.5,0-0.9c0-0.5,0-0.5,0-0.9
		l-4.2-17.3c0-0.5-0.5-0.5-0.5-0.9s0-0.5-0.5-0.9l-8.4-15.5c0-0.5-0.5-0.5-0.5-0.9c0-0.5-0.5-0.5-0.5-0.9l-12.2-12.2
		c-0.5-0.5-0.5-0.5-0.9-0.5c-0.5,0-0.5-0.5-0.9-0.5L291.1,893.4z M303.8,421.9c0.5,0,0.5-0.5,0.9-0.5h0.5l15-8.9
		c0.5,0,0.5-0.5,0.5-0.5l0.5-0.5l12.2-12.2c0.5-0.5,0.5-0.5,0.5-0.9l0.5-0.5l8.9-14.5c0.5-0.5,0.5-0.9,0.5-1.4l0.5-0.5l4.7-15.9
		c0-0.5,0-0.5,0-0.9c0-0.5,0-0.5,0-0.9l0.5-16.4c0-0.5,0-0.5,0-0.9c0-0.5,0-0.5,0-0.9l0,0l38.9,36.6l8.4,8l5.6,8.9l2.8,10.3v10.8
		l-3.3,10.8l-6.1,9.8l-8.4,8.4l-10.3,6.1l-11.2,3.3l-11.7,0.5l-10.8-2.3l-10.3-5.6l0,0l-46.9-24.8l0,0c0.5,0,0.9,0,1.4,0
		L303.8,421.9z M360.9,336.2L360.9,336.2L360.9,336.2L360.9,336.2C360.9,336.2,361.4,336.2,360.9,336.2l17.3-0.9h0.5
		c0.5,0,0.9,0,1.4,0l16.4-5.2c0.5,0,0.5-0.5,0.9-0.5h0.5l14.5-8.9c0.5,0,0.5-0.5,0.5-0.5l0.5-0.5l12.2-12.2c0.5-0.5,0.5-0.5,0.5-0.9
		l0.5-0.5l8.9-14.5c0.5-0.5,0.5-0.9,0.5-1.4l0.5-0.5l4.7-15.9c0-0.5,0-0.5,0-0.9c0-0.5,0-0.5,0-0.9l0,0l27.2,45l0,0l0,0l6.1,9.8
		l2.8,10.3v10.8l-3.3,10.8l-6.1,9.8l-8.4,8.4L449,383l-11.2,3.3l-11.7,0.5l-10.8-2.3l-9.8-5.2l-8.4-8l-38.4-35.6
		C360,336.2,360.5,336.2,360.9,336.2L360.9,336.2z M471.5,268.7c0.5,0,0.9,0,1.4,0l0,0l0,0l0,0l0,0h0.5l16.9-0.9h0.5
		c0.5,0,0.9,0,1.4,0l16.4-5.2c0.5,0,0.5-0.5,0.9-0.5h0.5l14.5-8.9c0.5,0,0.5-0.5,0.5-0.5c0.5,0,0.5-0.5,0.9-0.5l12.2-12.2
		c0.5-0.5,0.5-0.5,0.5-0.9l0.5-0.5l8.4-14.5c0.5-0.5,0.5-0.9,0.5-1.4c0,0,0,0,0.5-0.5l0,0l14.1,50.6l0,0l0,0l3.3,11.2v10.8
		l-2.8,10.8l-5.6,9.8l-8.4,8.4l-10.3,6.1l-11.2,3.3l-11.7,0.5l-10.8-2.3l-9.8-4.7l-8-7l-6.1-9.8l0,0l-27.2-45l0,0c0.5,0,0.5,0,0.9,0
		c0.5,0,0.5,0.5,0.9,0.5L471.5,268.7z M577.9,226c0.5,0,0.5,0,0.9,0c0.5,0,0.5,0.5,0.9,0.5l16.4,3.3c0.5,0,0.9,0,1.4,0l0,0l0,0l0,0
		l0,0h0.5l16.9-0.9h0.5c0.5,0,0.9,0,1.4,0l16.4-5.2c0.5,0,0.5-0.5,0.9-0.5h0.5l15-8.9c0.5,0,0.5-0.5,0.5-0.5s0.5-0.5,0.9-0.5
		l12.2-12.2c0.5-0.5,0.5-0.5,0.5-0.9c0,0,0.5,0,0.5-0.5v53v11.7l-2.8,10.8l-5.6,9.8l-8.4,8.4l-10.3,6.1l-11.2,3.3l-11.7,0.5
		l-11.2-2.3l-9.8-4.7l-8-7l-5.6-8.9l-3.3-11.2l0,0l-14.5-51.1l0,0c0.5,0.5,0.5,0.5,0.9,0.5c0.5,0,0.5,0.5,0.5,0.5L577.9,226z
		 M708.2,218.5c0.5,0,0.5,0,0.9,0c0.5,0,0.5,0.5,0.9,0.5l16.9,3.3c0.5,0,0.9,0,1.4,0l0,0l0,0l0,0l0,0h0.5l17.3-0.9h0.5
		c0.5,0,0.9,0,1.4,0l16.4-5.2c0.5,0,0.5-0.5,0.9-0.5h0.5l15-8.9c0.5,0,0.5-0.5,0.5-0.5s0.5,0,0.5-0.5l-14.1,52l0,0l-3.3,11.7
		l-5.6,9.8l-8.4,8.4l-10.3,6.1l-11.7,3.7l-11.7,0.5l-11.2-2.3l-10.3-5.2l-8.4-7.5l-5.6-8.9l-2.8-10.3v-11.7l0,0l0,0v-54.4l0,0
		l0.5,0.5c0.5,0.5,0.5,0.9,0.9,0.9l12.2,10.8c0.5,0.5,0.5,0.5,0.9,0.5l0.5,0.5L708.2,218.5z M835.7,243.4c0.5,0,0.5,0,0.9,0
		c0.5,0,0.5,0.5,0.9,0.5l16.9,3.3c0.5,0,0.9,0,1.4,0l0,0l0,0l0,0l0,0h0.5l17.3-0.9h0.5c0.5,0,0.9,0,1.4,0l16.9-5.2
		c0.5,0,0.5-0.5,0.9-0.5c0,0,0,0,0.5,0l-27.7,48.3l0,0l-6.1,10.8l-8.4,8.4l-10.3,6.1l-11.7,3.7l-12.2,0.5l-11.7-2.3l-10.3-5.2
		l-8.4-7.5l-6.1-8.9l-3.3-10.3v-10.8l3.3-11.7l0,0l0,0l14.5-53.9c0,0,0,0,0.5,0.5c0,0.5,0.5,0.9,0.5,1.4l8.9,13.6l0.5,0.5
		c0.5,0.5,0.5,0.5,0.9,0.9l12.7,10.8c0.5,0.5,0.5,0.5,0.9,0.5c0.5,0,0.5,0.5,0.5,0.5L835.7,243.4z M952.9,299.1c0.5,0,0.5,0,0.9,0
		c0.5,0,0.5,0.5,0.9,0.5l17.3,3.3c0.5,0,0.9,0,1.4,0l0,0l0,0l0,0l0,0h0.5l17.8-0.9h0.5c0.5,0,0.5,0,0.9,0l-40.3,40.8l0,0l-8.9,8.9
		l-10.3,6.1l-11.7,3.7l-12.2,0.5l-11.7-2.3l-10.3-5.2l-8.4-7.5l-6.1-9.4l-3.3-10.3V316l2.8-10.8l6.1-10.8l0,0l28.6-49.7
		c0,0.5,0,0.5,0,0.9c0,0.5,0,0.5,0,0.9l5.2,15.5l0.5,0.5c0,0.5,0.5,0.9,0.5,1.4l9.4,13.6l0.5,0.5c0.5,0.5,0.5,0.5,0.9,0.9l12.7,11.2
		c0.5,0.5,0.5,0.5,0.9,0.5c0.5,0,0.5,0.5,0.5,0.5L952.9,299.1z M1051.8,384.4c0.5,0,0.5,0,0.9,0c0.5,0,0.5,0.5,0.9,0.5l17.8,3.7
		c0.5,0,0.9,0,1.4,0l0,0l0,0l0,0l0,0l0,0l-50.6,30.5l-11.2,7l-11.7,3.7l-12.2,0.5l-11.7-2.3l-10.8-5.2l-8.9-7.5l-6.1-9.4l-3.3-10.8
		l-0.5-11.2l2.8-11.2l5.6-10.3l8.9-8.9l0,0l41.2-42.2c0,0.5,0,0.5,0,0.9c0,0.5,0,0.5,0,0.9l0.5,16.9c0,0.5,0,0.5,0.5,0.9
		c0,0.5,0,0.5,0,0.9l5.2,15.9c0,0,0,0,0.5,0.5c0,0.5,0.5,0.9,0.5,1.4l9.4,14.1l0.5,0.5c0.5,0.5,0.5,0.5,0.9,0.9l13.1,11.2
		c0.5,0.5,0.5,0.5,0.9,0.5l0.5,0.5L1051.8,384.4z M1091.6,866.2c-0.5,0-0.5,0-0.9,0c-0.5,0-0.5,0-0.9,0l-17.8,5.2
		c-0.5,0-0.5,0.5-0.9,0.5c-0.5,0-0.5,0-0.9,0.5l-15.9,9.8c-0.5,0-0.5,0.5-0.5,0.5c-0.5,0-0.5,0.5-0.9,0.5l-12.7,13.6
		c0,0.5-0.5,0.5-0.5,0.9c0,0.5-0.5,0.5-0.5,0.9l-8.9,16.4c0,0.5,0,0.5-0.5,0.9c0,0.5-0.5,0.5-0.5,0.9l-4.2,17.8c0,0.5,0,0.5,0,0.9
		c0,0.5,0,0.5,0,0.9l0.5,18.7c0,0.5,0,0.5,0,0.9c0,0.5,0,0.5,0,0.9l0.5,2.3L978.2,915l0,0l-9.8-9.4l-6.6-10.8l-3.7-12.2l-0.5-12.7
		l2.8-12.2l6.1-10.8l8.4-8.9l10.8-6.6l12.2-3.7l12.7-0.5l12.2,2.8l12.2,6.6l0,0l57.2,30L1091.6,866.2z M1014.3,968.4
		c-0.5,0-0.5,0-0.9,0c-0.5,0-0.5,0-0.9,0l0,0l-18.7,0.5c-0.5,0-0.5,0-0.9,0c-0.5,0-0.5,0-0.9,0L974,974c-0.5,0-0.5,0.5-0.9,0.5
		c-0.5,0-0.5,0-0.9,0.5l-15.9,9.8c-0.5,0-0.5,0.5-0.5,0.5c-0.5,0-0.5,0.5-0.9,0.5l-13.1,13.6c0,0.5-0.5,0.5-0.5,0.9
		c0,0.5-0.5,0.5-0.5,0.5l-8.9,16.4c0,0.5,0,0.5-0.5,0.9c0,0.5-0.5,0.5-0.5,0.9l-4.2,18.3c0,0.5,0,0.5,0,0.9c0,0.5,0,0.5,0,0.9v2.3
		l-33.7-55.8l0,0l-7-11.7l-3.7-12.2l-0.5-12.7l2.8-12.2l6.1-10.8l8.9-8.9l10.8-6.6l12.2-3.7l12.7-0.5l12.7,2.8l11.2,6.1l9.8,9.4l0,0
		l0,0l47.3,44.1L1014.3,968.4z M912.6,1047.1c-0.5,0-0.5,0-0.9-0.5c-0.5,0-0.5-0.5-0.9-0.5l-18.3-4.7c-0.5,0-0.5,0-0.9,0
		c-0.5,0-0.5,0-0.9,0l-18.7,0.5c-0.5,0-0.5,0-0.9,0c-0.5,0-0.5,0-0.9,0l-17.8,5.2c-0.5,0-0.5,0.5-0.9,0.5c-0.5,0-0.5,0-0.9,0.5
		l-15.9,9.8c-0.5,0-0.5,0.5-0.9,0.5c-0.5,0-0.5,0.5-0.9,0.5l-13.1,13.6c0,0.5-0.5,0.5-0.5,0.9c0,0.5-0.5,0.5-0.5,0.5l-8.9,16.4
		c0,0.5,0,0.5-0.5,0.9c0,0.5-0.5,0.5-0.5,0.9l-0.5,2.3l-17.3-62.3L787,1019l-0.5-12.7l3.3-12.2l6.1-11.2l8.9-9.4l10.8-6.6l12.2-3.7
		l12.7-0.5l12.2,2.8l11.2,6.1l9.4,8.9l7,11.7l0,0l33.7,55.3L912.6,1047.1z M737.3,980.6c-0.5,0-0.9,0-0.9,0c-0.5,0-0.5,0-0.5,0
		l-14.5,0.5c-0.5,0-0.5,0-0.9,0c-0.5,0-0.5,0-0.9,0l-14.1,4.2c-0.5,0-0.5,0.5-0.9,0.5c-0.5,0-0.5,0-0.9,0.5l-12.2,7.5
		c-0.5,0-0.5,0.5-0.5,0.5s-0.5,0.5-0.9,0.5l-8.9,9.4v-53v-9.8l2.3-8.9l4.7-8l6.6-6.6l8-4.7l8.9-2.3l9.4-0.5l8.9,1.9l8,4.2l6.6,6.1
		l4.7,7.5l2.8,9.4l0,0l0,0l14.5,51.1l-11.7-6.6c-0.5,0-0.5,0-0.9-0.5c-0.5,0-0.5-0.5-0.9-0.5L737.3,980.6z M626.7,982.5l-14.1,0.5
		c-0.5,0-0.5,0-0.9,0c-0.5,0-0.5,0-0.9,0l-14.1,4.2c-0.5,0-0.5,0.5-0.9,0.5c-0.5,0-0.5,0-0.9,0.5l-10.8,6.6l13.6-50.6l0,0l2.8-9.8
		l4.7-8l6.6-6.6l8-4.7l8.4-2.3h8.9l8.4,1.9l8,4.2l6.6,6.1l4.7,7.5l2.3,8.4v9.8l0,0l0,0v53.4l-9.4-8.9c0,0-0.5-0.5-0.9-0.5
		c-0.5,0-0.5-0.5-0.9-0.5l-12.2-7c-0.5,0-0.5,0-0.9-0.5c-0.5,0-0.5-0.5-0.9-0.5l-12.7-3.3c-0.5,0-0.5,0-0.9-0.5l0,0h-0.5
		C627.6,982.9,627.1,982.5,626.7,982.5z M522.6,956.7l-14.1,0.5c-0.5,0-0.5,0-0.9,0c-0.5,0-0.5,0-0.9,0l-11.7,3.3l26.2-45.5l0,0
		l5.2-8.9l6.6-6.6l8-4.7l8.4-2.3h8.9l8.4,1.9l7.5,4.2l6.1,6.1l4.2,7.5l2.3,8.4v8.9l-2.8,9.8l0,0l0,0l-13.6,51.1l-6.1-10.8
		c0-0.5-0.5-0.5-0.5-0.5c0-0.5-0.5-0.5-0.5-0.9l-9.8-9.8c-0.5-0.5-0.5-0.5-0.9-0.5c-0.5,0-0.5-0.5-0.9-0.5l-12.2-7
		c-0.5,0-0.5,0-0.9-0.5c-0.5,0-0.5-0.5-0.9-0.5l-13.6-3.3C523.6,956.2,523.6,956.2,522.6,956.7C523.1,957.2,523.1,956.7,522.6,956.7
		z M224.5,765l0.5-0.5l0.5-0.5l9.4-15.5c0-0.5,0.5-0.9,0.5-1.4c0,0,0-0.5,0.5-0.5l5.2-16.9c0-0.5,0-0.5,0-0.9c0-0.5,0-0.5,0-0.9
		l0.5-17.3c0-0.5,0-0.5,0-0.9c0-0.5,0-0.5,0-0.9l-3.7-16.4c0-0.5-0.5-0.5-0.5-0.9c0-0.5,0-0.5-0.5-0.9l-8-14.5
		c0-0.5-0.5-0.5-0.5-0.9c0-0.5-0.5-0.5-0.5-0.9l-11.7-11.7c-0.5-0.5-0.5-0.5-0.9-0.5l-0.5-0.5l57.6-2.3l0,0l12.7-0.5l11.2,2.3
		l9.8,5.2l8,8l5.6,9.8l2.8,10.8l-0.5,11.7l-3.3,11.7l-6.1,10.3l-8.4,8.4l-10.3,6.1l-12.2,3.7l0,0L224.5,765z M216.6,647.8l12.7-12.7
		c0.5-0.5,0.5-0.5,0.5-0.9l0.5-0.5l8.9-15c0-0.5,0.5-0.9,0.5-1.4l0.5-0.5l5.2-16.4c0-0.5,0-0.5,0-0.9c0-0.5,0-0.5,0-0.9l0.5-16.9
		c0-0.5,0-0.5,0-0.9c0-0.5,0-0.5,0-0.9l-3.7-15.9c0-0.5-0.5-0.5-0.5-0.9c0-0.5,0-0.5-0.5-0.9l-8-14.1c0-0.5-0.5-0.5-0.5-0.9
		c0-0.5-0.5-0.5-0.5-0.9l54.8,12.2l0,0l0,0l11.7,2.8l9.8,5.2l8,7.5l5.6,9.4l2.8,10.8l-0.5,11.7l-3.3,11.2l-6.1,10.3l-8.4,8.4
		l-10.3,6.1L285,645l-12.7,0.5l0,0l0,0L216.6,647.8L216.6,647.8C216.1,648.3,216.1,647.8,216.6,647.8z M514.7,347.9L514.7,347.9
		L514.7,347.9L514.7,347.9C515.1,347.9,515.1,347.9,514.7,347.9l13.6-0.5h0.5c0.5,0,0.9,0,1.4,0l12.7-4.2c0.5,0,0.5-0.5,0.9-0.5h0.5
		l11.7-7c0.5,0,0.5-0.5,0.5-0.5c0.5,0,0.5-0.5,0.9-0.5l9.4-9.4c0.5-0.5,0.5-0.5,0.5-0.9l0.5-0.5l5.6-9.4l12.2,43.6l0,0l2.3,8.4v8
		l-2.3,8l-4.2,7.5l-6.1,6.1l-7.5,4.7l-8.4,2.3l-8.4,0.5l-8-1.9l-7-3.7l-5.6-5.2l-4.7-7.5l0,0L502,346.9l10.8,2.3
		C513.7,347.9,514.2,347.9,514.7,347.9L514.7,347.9z M613.5,317.4L613.5,317.4L613.5,317.4L613.5,317.4L613.5,317.4l14.1-0.5h0.5
		c0.5,0,0.9,0,1.4,0l13.1-4.2c0.5,0,0.5-0.5,0.9-0.5h0.5l11.7-7c0.5,0,0.5-0.5,0.5-0.5c0.5,0,0.5-0.5,0.9-0.5l8-8v45.5v8.9l-2.3,8
		l-4.2,7.5l-6.1,6.1l-7.5,4.7l-8.4,2.8l-8.4,0.5l-8.4-1.9l-7.5-3.7l-5.6-5.2l-4.2-6.6l-2.3-8.4l0,0l-12.2-44.1l9.8,4.7
		c0.5,0,0.5,0,0.9,0c0.5,0,0.5,0.5,0.9,0.5l13.1,2.8C612.6,317.4,613.1,317.4,613.5,317.4L613.5,317.4z M716.2,311.8L716.2,311.8
		L716.2,311.8L716.2,311.8L716.2,311.8l14.1-0.9h0.5c0.5,0,0.9,0,1.4,0l13.1-4.2c0.5,0,0.5-0.5,0.9-0.5h0.5l9.4-5.6l-11.7,44.5l0,0
		L742,354l-4.2,7.5l-6.1,6.1l-7.5,4.7l-8.4,2.3l-8.9,0.5l-8.4-1.9l-7.5-3.7l-6.1-5.2l-4.2-6.6l-2.3-7.5v-8.9l0,0l0,0v-46.4l8.4,7
		c0.5,0.5,0.5,0.5,0.9,0.5l0.5,0.5l11.7,5.6c0.5,0,0.5,0,0.9,0c0.5,0,0.5,0.5,0.9,0.5l13.1,2.8C715.3,311.8,715.7,311.8,716.2,311.8
		L716.2,311.8z M816.5,331.9L816.5,331.9L816.5,331.9L816.5,331.9C817,331.9,817,331.9,816.5,331.9l14.1-0.9h0.5c0.5,0,0.9,0,1.4,0
		l10.3-3.3L819.3,369l0,0l-4.7,8l-6.1,6.1l-7.5,4.7l-8.4,2.8l-8.9,0.5l-8.4-1.9l-7.5-3.7l-6.1-5.6l-4.2-6.6l-2.3-7.5v-8l2.3-8.9l0,0
		l0,0l12.2-45.9l6.1,8.9l0.5,0.5c0.5,0.5,0.5,0.9,0.9,0.9l9.8,8.4c0.5,0.5,0.5,0.5,0.9,0.5l0.5,0.5l12.2,6.1c0.5,0,0.5,0,0.9,0
		c0.5,0,0.5,0.5,0.9,0.5l13.1,2.8C815.5,331.9,816,331.9,816.5,331.9L816.5,331.9z M908.3,376.9L908.3,376.9L908.3,376.9
		L908.3,376.9C908.8,376.9,908.8,376.9,908.3,376.9l11.2-0.5l-34.2,34.7l0,0l-7,7l-7.5,4.7l-8.4,2.8l-8.9,0.5l-8.4-1.9l-7.5-3.7
		l-6.1-5.6l-4.2-7l-2.3-7.5v-8l1.9-8l4.7-8l0,0l24.4-42.6l3.3,10.3c0,0,0,0.5,0.5,0.5c0,0.5,0.5,0.9,0.5,1.4l7,10.8l0.5,0.5
		c0.5,0.5,0.5,0.5,0.9,0.9l9.8,8.9c0.5,0.5,0.5,0.5,0.9,0.5l0.5,0.5l12.2,6.1c0.5,0,0.5,0,0.9,0c0.5,0,0.5,0.5,0.9,0.5l13.6,2.8
		C907.4,376.9,907.9,376.9,908.3,376.9L908.3,376.9z M1131.9,507.2c-0.5,0.5-0.5,0.5-0.5,0.9c0,0.5-0.5,0.5-0.5,0.5l-8.4,15.5
		c0,0.5,0,0.5-0.5,0.9c0,0.5-0.5,0.5-0.5,0.9l-4.2,16.9c0,0.5,0,0.5,0,0.9c0,0.5,0,0.5,0,0.9l0.9,17.3c0,0.5,0,0.5,0.5,0.9
		c0,0.5,0,0.5,0,0.9l5.6,16.9l0.5,0.5c0,0.5,0.5,0.9,0.5,1.4l9.8,15l0.5,0.5c0.5,0.5,0.5,0.5,0.5,0.9l13.6,12.2
		c0.5,0.5,0.5,0.5,0.9,0.5l0.5,0.5h0.5l-62.8,2.3l0,0l0,0l-13.6,0.5l-12.2-2.8l-11.2-5.6l-9.4-8l-6.6-9.8l-3.7-11.2l-0.5-11.7
		l2.8-11.2l6.1-10.3l8.4-8.9l10.8-6.6l12.7-3.7l0,0L1131.9,507.2L1131.9,507.2z M1151.6,626.7
		C1151.1,626.7,1151.1,627.2,1151.6,626.7c-0.9,0.5-0.9,0.9-1.4,0.9l-12.7,13.1c-0.5,0.5-0.5,0.5-0.5,0.9c0,0.5-0.5,0.5-0.5,0.5
		l-8.4,15.9c0,0.5,0,0.5-0.5,0.9c0,0.5-0.5,0.5-0.5,0.9l-4.2,17.3c0,0.5,0,0.5,0,0.9c0,0.5,0,0.5,0,0.9l0.9,17.8
		c0,0.5,0,0.5,0.5,0.9c0,0.5,0,0.5,0,0.9l5.6,17.3l0.5,0.5c0,0.5,0.5,0.9,0.5,1.4l10.3,15.5l0.5,0.5c0.5,0.5,0.5,0.5,0.5,0.9
		l0.9,0.9l-62.8-14.1l-13.6-2.8l-11.2-5.6l-9.4-8.4l-6.6-10.3l-3.7-11.2l-0.5-12.2l2.8-11.7l6.1-10.8l8.4-8.9l10.8-6.6l12.2-3.7
		l13.6-0.5l0,0l63.3-2.3L1151.6,626.7L1151.6,626.7z M843.2,949.7c-0.5,0-0.9,0-0.9,0c-0.5,0-0.5,0-0.9,0l-14.5,0.5
		c-0.5,0-0.5,0-0.9,0c-0.5,0-0.5,0-0.9,0l-14.1,4.2c-0.5,0-0.5,0.5-0.9,0.5c-0.5,0-0.5,0-0.9,0.5l-12.7,7.5c-0.5,0-0.5,0.5-0.5,0.5
		c-0.5,0-0.5,0.5-0.9,0.5L784.6,974l-0.5,0.5c0,0.5-0.5,0.5-0.5,0.9l-6.6,11.2l-14.5-51.1l0,0l-2.8-9.8v-8.9l2.3-8.9l4.7-8l6.6-6.6
		l8-4.7l8.9-2.8h8.9l8.9,1.9l8,4.2l6.6,6.1l5.2,8.4l0,0l0,0l27.7,45.5L843.2,949.7z M409.7,895.8v-11.2c0-0.5,0-0.5,0-0.9
		c0-0.5,0-0.5,0-0.9l-3.3-13.6c0-0.5-0.5-0.5-0.5-0.9c0-0.5,0-0.5-0.5-0.9l-6.6-11.7c0-0.5-0.5-0.5-0.5-0.9c0-0.5-0.5-0.5-0.5-0.9
		l-9.4-9.4c-0.5-0.5-0.5-0.5-0.9-0.5c-0.5,0-0.5-0.5-0.9-0.5l-11.7-6.6c-0.5,0-0.5,0-0.9-0.5c-0.5,0-0.5-0.5-0.9-0.5l-10.8-2.8
		l44.1-26.7l0,0l8.4-5.2l8.4-2.3l8.9-0.5l8.4,1.9l7.5,4.2l6.1,6.1l4.2,7.5l2.3,8.4v8.9l-2.3,8.4l-4.7,8l-7,7l0,0l0,0L409.7,895.8z
		 M336.6,754.2l-9.4-5.2l48.3-14.5l0,0l0,0l9.4-2.8l8.4-0.5l8,1.9l7.5,4.2l6.1,5.6l4.2,7l1.9,8v8.4l-2.3,8.4l-4.7,8l-6.1,6.6
		l-8.4,5.2l0,0l0,0l-43.1,26.2l2.8-10.8c0-0.5,0-0.5,0-0.9c0-0.5,0-0.5,0-0.9l0.5-13.6c0-0.5,0-0.5,0-0.9c0-0.5,0-0.5,0-0.9
		l-3.3-13.1c0-0.5-0.5-0.5-0.5-0.9c0-0.5,0-0.5-0.5-0.9l-6.6-11.7c0-0.5-0.5-0.5-0.5-0.9c0-0.5-0.5-0.5-0.5-0.9l-9.4-9.4
		c-0.5-0.5-0.5-0.5-0.9-0.5C337.5,754.7,337,754.2,336.6,754.2z M383,468.3L383,468.3l12.2-7c0.5,0,0.5-0.5,0.5-0.5
		c0.5,0,0.5-0.5,0.9-0.5l9.4-9.8c0.5-0.5,0.5-0.5,0.5-0.9l0.5-0.5l7-11.7c0.5-0.5,0.5-0.9,0.5-1.4c0,0,0,0,0.5-0.5l3.7-12.7
		c0-0.5,0-0.5,0-0.9c0-0.5,0-0.5,0-0.9v-10.8l33.7,31.4l0,0l6.6,6.1l3.7,6.6l1.9,7.5v8l-2.3,8l-4.2,7.5l-6.1,6.1l-7.5,4.7l-8.4,2.3
		l-8.4,0.5l-8-1.9l-8-4.2l0,0l0,0l-40.3-21.1l10.3-3.3C382.5,468.8,382.5,468.8,383,468.3z M440.6,400.4c0.5,0,0.9,0,1.4,0l13.1-4.2
		c0.5,0,0.5-0.5,0.9-0.5h0.5l11.7-7c0.5,0,0.5-0.5,0.5-0.5c0.5,0,0.5-0.5,0.9-0.5l9.4-9.4c0.5-0.5,0.5-0.5,0.5-0.9l0.5-0.5l6.6-11.2
		c0.5-0.5,0.5-0.9,0.5-1.4c0,0,0-0.5,0.5-0.5l3.3-10.8l23.4,38.9l0,0l4.7,7.5l1.9,7.5v8l-2.3,8l-4.2,7.5l-6.1,6.1l-7.5,4.7l-8.4,2.3
		l-8.4,0.5l-8-1.9l-7-3.7l-6.6-6.1l0,0l0,0l-32.8-30.9L440.6,400.4C440.1,400.4,440.6,400.4,440.6,400.4z M551.2,416.3L551.2,416.3
		L551.2,416.3L551.2,416.3L551.2,416.3l10.8-0.5h0.5c0.5,0,0.9,0,1.4,0l9.8-3.3c0.5,0,0.5-0.5,0.9-0.5h0.5l8.9-5.2
		c0.5,0,0.5-0.5,0.5-0.5s0.5-0.5,0.9-0.5l7.5-7.5c0.5-0.5,0.5-0.5,0.5-0.9l0.5-0.5l2.3-4.2l12.7,45.5l0,0l0,0l1.9,5.6v5.2l-1.4,5.2
		l-2.8,4.7l-3.7,4.2l-4.7,2.8l-5.6,1.9l-5.6,0.5l-5.2-0.9L577,465l-3.7-3.3l-3.3-5.2l0,0l-24.4-40.3l4.7,0.9
		C550.3,416.3,550.7,416.3,551.2,416.3L551.2,416.3z M627.1,392.9L627.1,392.9L627.1,392.9L627.1,392.9L627.1,392.9l10.8-0.5h0.5
		c0.5,0,0.9,0,1.4,0l9.8-3.3c0.5,0,0.5-0.5,0.9-0.5h0.5l8.9-5.2c0.5,0,0.5-0.5,0.5-0.5s0.5-0.5,0.9-0.5l3.3-3.3v47.3v6.1l-1.4,5.2
		l-2.8,4.7l-3.7,4.2l-4.7,2.8l-5.6,1.9l-5.6,0.5l-5.2-0.9l-4.7-2.3l-3.7-3.3l-2.8-4.2l-1.9-5.6l0,0l-12.7-45.9l4.2,2.3
		c0.5,0,0.5,0,0.9,0c0.5,0,0.5,0.5,0.9,0.5l9.8,1.9C626.2,392.9,626.7,392.9,627.1,392.9L627.1,392.9z M705.9,389.1L705.9,389.1
		L705.9,389.1L705.9,389.1C706.3,389.1,706.3,389.1,705.9,389.1l10.8-0.5h0.5c0.5,0,0.9,0,1.4,0l10.3-3.3c0.5,0,0.5-0.5,0.9-0.5h0.5
		l3.7-2.3L721.3,429l0,0l-1.4,6.1l-2.8,4.7l-3.7,4.2l-4.7,2.8l-5.6,1.9l-5.6,0.5l-5.6-0.9l-4.7-2.3l-3.7-3.7l-2.8-4.2l-1.4-4.7v-6.1
		l0,0l0,0v-48.3l3.7,3.3c0.5,0.5,0.5,0.5,0.9,0.5l0.5,0.5l8.9,4.7h0.5c0.5,0,0.5,0.5,0.9,0.5l10.3,1.9
		C704.9,388.7,705.4,389.1,705.9,389.1L705.9,389.1z M783.2,404.6L783.2,404.6L783.2,404.6L783.2,404.6L783.2,404.6l10.8-0.5h0.5
		c0.5,0,0.9,0,1.4,0l4.2-1.4l-24.4,42.6l0,0l-3.3,5.6l-4.2,4.2l-5.2,2.8l-5.6,1.9l-5.6,0.5l-5.6-0.9l-4.7-2.3l-3.7-3.7l-2.8-4.2
		l-1.4-4.7v-5.2l1.4-6.1l0,0l12.7-47.8l2.3,3.7l0.5,0.5c0.5,0.5,0.5,0.5,0.9,0.9l7.5,6.6c0.5,0.5,0.5,0.5,0.9,0.5
		c0.5,0,0.5,0.5,0.5,0.5l9.4,4.7c0.5,0,0.5,0,0.9,0c0.5,0,0.5,0.5,0.9,0.5l10.3,1.9C782.3,404.6,782.7,404.6,783.2,404.6
		L783.2,404.6z M853.5,439.7L853.5,439.7L853.5,439.7L853.5,439.7L853.5,439.7h4.7L823,475.8l0,0l-4.7,4.7l-5.2,2.8l-5.6,1.9
		l-6.1,0.5l-5.6-0.9l-5.2-2.3l-3.7-3.7l-2.8-4.2l-1.4-5.2v-5.2l1.4-5.2l3.3-5.6l0,0l0,0l25.3-44.1l1.4,4.2c0,0,0,0.5,0.5,0.5
		c0,0.5,0.5,0.9,0.5,1.4l5.6,8.4l0.5,0.5c0.5,0.5,0.5,0.9,0.9,0.9l7.5,6.6c0.5,0.5,0.5,0.5,0.9,0.5c0.5,0,0.5,0.5,0.5,0.5l9.4,4.7
		c0.5,0,0.5,0,0.9,0c0.5,0,0.5,0.5,0.9,0.5l10.3,1.9C852.6,439.3,853,439.7,853.5,439.7L853.5,439.7z M930.8,384.9l0.5,10.8
		c0,0.5,0,0.5,0,0.9c0,0.5,0,0.5,0,0.9l4.2,12.7l0.5,0.5c0,0.5,0.5,0.9,0.5,1.4l7.5,11.2l0.5,0.5c0.5,0.5,0.5,0.5,0.9,0.9l10.3,8.9
		c0.5,0.5,0.5,0.5,0.9,0.5l0.5,0.5l12.2,6.1c0.5,0,0.5,0,0.9,0c0.5,0,0.5,0.5,0.9,0.5l10.8,2.3l-43.1,25.8l0,0l-8.4,5.2l-8.4,2.8
		l-8.9,0.5l-8.9-1.9l-8-3.7l-6.1-5.6l-4.7-7l-2.3-8v-8l1.9-8l4.2-7.5l6.6-7l0,0l0,0L930.8,384.9z M1001.1,510l10.3,8.9
		c0.5,0,0.5,0.5,0.9,0.5l0.5,0.5l10.3,5.2L974,540l-9.4,2.8l-8.9,0.5l-8.9-1.9l-8-3.7l-6.6-5.6l-4.7-7l-2.3-8v-8.4l1.9-8l4.2-7.5
		l6.1-6.1l8.4-5.2l0,0l43.6-26.2l-2.8,10.8c0,0.5,0,0.5,0,0.9c0,0.5,0,0.5,0,0.9l0.5,13.6c0,0.5,0,0.5,0,0.9c0,0.5,0,0.5,0,0.9
		l4.2,12.7l0.5,0.5c0,0.5,0.5,0.9,0.5,1.4l7.5,11.2l0.5,0.5C1000.7,509.6,1000.7,510,1001.1,510z M1019.4,731.7
		c-0.5,0-0.5,0.5-0.9,0.5l-9.8,10.3c-0.5,0.5-0.5,0.5-0.5,0.9c0,0.5-0.5,0.5-0.5,0.5l-7,12.7c0,0.5,0,0.5-0.5,0.9
		c0,0.5-0.5,0.5-0.5,0.9l-3.3,13.6c0,0.5,0,0.5,0,0.9c0,0.5,0,0.5,0,0.9l0.5,14.1c0,0.5,0,0.5,0.5,0.9c0,0.5,0,0.5,0,0.9l3.7,12.2
		l-47.3-24.8l0,0l-8.9-4.7l-6.6-6.1l-4.7-7.5l-2.8-8.4v-8.9l1.9-8.4l4.2-8l6.1-6.6l8-4.7l8.9-2.8l9.4-0.5l9.8,2.3l51.6,11.2
		l-10.8,6.6C1019.9,731.3,1019.4,731.7,1019.4,731.7z M981,818.4c-0.5,0-0.5,0-0.9,0.5l-12.2,7.5c-0.5,0-0.5,0.5-0.9,0.5l-0.5,0.5
		l-9.8,10.3l-0.5,0.5c0,0.5-0.5,0.5-0.5,0.9l-7,12.7c0,0.5,0,0.5-0.5,0.9c0,0.5-0.5,0.5-0.5,0.9l-3.3,14.1c0,0.5,0,0.5,0,0.9
		c0,0.5,0,0.5,0,0.9l0.5,13.1L906,846.1l-7-6.6l-4.7-7.5l-2.3-8.4v-8.9l1.9-8.9l4.2-8l6.1-6.6l8-4.7l8.9-2.8l9.4-0.5l8.9,1.9
		l8.9,4.7l0,0l46.9,24.4l-12.2,3.7C981.5,818,981.5,818.4,981,818.4z M800.6,872.3l-10.8,0.5c-0.5,0-0.5,0-0.9,0c-0.5,0-0.5,0-0.9,0
		l-10.8,3.3c-0.5,0-0.5,0.5-0.9,0.5c-0.5,0-0.5,0-0.9,0.5l-9.4,5.6c-0.5,0-0.5,0.5-0.5,0.5c-0.5,0-0.5,0.5-0.9,0.5l-7.5,8
		c0,0.5-0.5,0.5-0.5,0.9c0,0.5-0.5,0.5-0.5,0.5l-2.8,5.2L738.7,847l0,0l-1.9-6.6v-5.6l1.4-5.6l2.8-5.2l4.2-4.2l5.2-3.3l5.6-1.4h6.1
		l5.6,1.4l5.2,2.8l4.2,3.7l3.3,5.6l0,0l0,0l27.7,45.5l-6.1-1.4C801.5,872.8,801,872.8,800.6,872.3
		C801,872.3,800.6,872.3,800.6,872.3z M330,725.6c0.5-0.5,0.5-0.9,0.5-1.4c0,0,0,0,0.5-0.5l3.7-13.1c0-0.5,0-0.5,0-0.9
		c0-0.5,0-0.5,0-0.9l0.5-13.6c0-0.5,0-0.5,0-0.9c0-0.5,0-0.5,0-0.9l-3.3-13.1c0-0.5-0.5-0.5-0.5-0.9c0-0.5,0-0.5-0.5-0.9l-6.6-11.2
		c0-0.5-0.5-0.5-0.5-0.9c0-0.5-0.5-0.5-0.5-0.9l-7.5-7.5l49.2-1.9l0,0l9.4-0.5l8,1.9l7,3.7l5.6,5.6l4.2,7l1.9,8v8.4l-2.3,8.4
		l-4.7,7.5l-6.1,6.6l-7.5,4.7l-9.4,2.8l0,0l-46.9,14.1L330,725.6z M324.8,637.1c0.5-0.5,0.5-0.5,0.5-0.9l0.5-0.5l7-11.7
		c0-0.5,0.5-0.9,0.5-1.4c0,0,0,0,0.5-0.5l3.7-13.1c0-0.5,0-0.5,0-0.9c0-0.5,0-0.5,0-0.9l0.5-13.1c0-0.5,0-0.5,0-0.9
		c0-0.5,0-0.5,0-0.9l-3.3-12.7c0-0.5-0.5-0.5-0.5-0.9c0-0.5,0-0.5-0.5-0.9l-5.2-9.4l46.9,10.3l8.9,1.9l7,3.7l5.6,5.6l4.2,7l1.9,8
		v8.4l-2.3,8.4l-4.2,7.5l-6.1,6.1l-7.5,4.7l-8.4,2.3l-9.4,0.5l0,0l0,0l-47.8,1.9L324.8,637.1z M1022.2,548.5c0,0.5,0,0.5-0.5,0.9
		c0,0.5-0.5,0.5-0.5,0.9l-3.3,13.1c0,0.5,0,0.5,0,0.9c0,0.5,0,0.5,0,0.9l0.5,13.6c0,0.5,0,0.5,0.5,0.9c0,0.5,0,0.5,0,0.9l4.2,13.1
		l0.5,0.5c0,0.5,0.5,0.9,0.5,1.4l7.5,11.7l0.5,0.5c0.5,0.5,0.5,0.5,0.9,0.9l8.9,8l-52.5,1.9l-9.8,0.5l-8.9-1.9l-8-4.2l-6.6-6.1
		l-4.7-7.5l-2.8-8v-8.4l1.9-8.4l4.2-7.5l6.1-6.1l7.5-4.7l9.4-2.8l49.7-15L1022.2,548.5z M1033.5,639.4c0,0-0.5,0.5-0.5,0.9
		c0,0.5-0.5,0.5-0.5,0.5l-7,12.2c0,0.5,0,0.5-0.5,0.9c0,0.5-0.5,0.5-0.5,0.9l-3.3,13.6c0,0.5,0,0.5,0,0.9c0,0.5,0,0.5,0,0.9
		l0.5,14.1c0,0.5,0,0.5,0.5,0.9c0,0.5,0,0.5,0,0.9l4.2,13.1c0,0,0,0.5,0.5,0.5c0,0.5,0.5,0.9,0.5,1.4l6.6,10.3l-51.6-11.7l-9.8-2.3
		l-8-4.2l-6.6-6.1l-4.7-7.5l-2.3-8.4l-0.5-8.9l2.3-8.4l4.2-7.5l6.1-6.6l8-4.7l8.9-2.8l9.8-0.5l52.5-1.9L1033.5,639.4z M860.1,829.2
		c-0.5,0-0.5,0-0.9,0l-10.8,3.3c-0.5,0-0.5,0.5-0.9,0.5c-0.5,0-0.5,0-0.9,0.5l-9.4,5.6c-0.5,0-0.5,0.5-0.5,0.5s-0.5,0.5-0.9,0.5
		l-7.5,8c0,0.5-0.5,0.5-0.5,0.9c0,0.5-0.5,0.5-0.5,0.5l-5.2,9.4c0,0.5,0,0.5-0.5,0.9c0,0.5-0.5,0.5-0.5,0.9l-1.4,5.6l-27.7-45.5l0,0
		l-3.3-5.6l-1.4-5.6v-5.6l1.4-5.6l2.8-5.2l4.2-4.2l5.2-3.3l5.6-1.9h6.1l5.6,1.4l5.2,2.8l5.2,4.7l0,0l38.4,36.1h-5.6
		C860.5,829.2,860.5,829.2,860.1,829.2z M762.6,800.6l-7.5,0.5c-0.5,0-0.5,0-0.9,0c-0.5,0-0.5,0-0.9,0l-7.5,2.3
		c-0.5,0-0.5,0.5-0.9,0.5c-0.5,0-0.5,0-0.9,0.5l-6.6,4.2c-0.5,0-0.5,0.5-0.5,0.5c-0.5,0-0.5,0.5-0.9,0.5l-5.2,5.6
		c0,0-0.5,0.5-0.5,0.9l0,0l-17.3-61.9l0,0l-0.9-3.3v-2.3l0.5-2.3l1.4-2.3l1.9-1.9l2.3-1.4l2.3-0.9h2.3l2.3,0.5l1.9,0.9l1.9,1.4
		l1.9,2.8l0,0l0,0l33.3,54.8h-0.5C763.1,800.6,762.6,800.6,762.6,800.6z M433.6,773.9l1.4-4.2c0-0.5,0-0.5,0-0.9c0-0.5,0-0.5,0-0.9
		v-10.3c0-0.5,0-0.5,0-0.9c0-0.5,0-0.5,0-0.9l-2.3-9.8c0-0.5-0.5-0.5-0.5-0.9c0-0.5,0-0.5-0.5-0.9l-5.2-8.9c0-0.5-0.5-0.5-0.5-0.9
		c0-0.5-0.5-0.5-0.5-0.9l-7-7c-0.5-0.5-0.5-0.5-0.9-0.5c-0.5,0-0.5-0.5-0.9-0.5l-3.7-1.9l49.7-15l0,0l0,0l6.1-1.9h5.6l5.2,1.4
		l4.7,2.3l3.7,3.7l2.8,4.7l1.4,5.2v5.6l-1.4,5.6l-2.8,5.2l-4.2,4.2l-5.6,3.3l0,0L433.6,773.9z M450.4,509.1h0.5l8.9-5.6
		c0.5,0,0.5-0.5,0.5-0.5l0.5-0.5l7.5-7.5c0.5-0.5,0.5-0.5,0.5-0.9l0.5-0.5l5.2-8.9c0-0.5,0.5-0.9,0.5-1.4c0,0,0,0,0.5-0.5l2.8-9.8
		c0-0.5,0-0.5,0-0.9c0-0.5,0-0.5,0-0.9v-4.7l35.2,32.8l0,0l4.2,4.2l2.8,4.2l1.4,5.2v5.2l-1.4,5.2l-2.8,4.7l-3.7,4.2l-5.2,2.8
		l-5.6,1.9l-5.6,0.5l-5.2-0.9l-5.6-2.8l0,0l0,0l-42.2-22l4.2-1.4C450,509.6,450,509.1,450.4,509.1z M585.9,481.5L585.9,481.5
		L585.9,481.5L585.9,481.5L585.9,481.5l7.5-0.5h0.5c0.5,0,0.9,0,1.4,0l7-2.3c0.5,0,0.5-0.5,0.9-0.5h0.5l6.6-3.7
		c0.5,0,0.5-0.5,0.5-0.5c0.5,0,0.5-0.5,0.9-0.5l5.2-5.2c0,0,0-0.5,0.5-0.5l15.9,57.6l0,0l0,0l0.9,2.8v2.3l-0.5,2.3l-1.4,1.9
		l-1.9,1.9l-2.3,1.4l-2.3,0.9h-2.3l-2.3-0.5l-1.9-0.9l-1.4-1.4l-1.4-2.3l0,0l0,0L585.9,481.5C585.4,481.5,585.9,481.5,585.9,481.5
		L585.9,481.5z M640.3,465L640.3,465L640.3,465L640.3,465L640.3,465l8-0.5h0.5c0.5,0,0.9,0,1.4,0l7-2.3c0.5,0,0.5-0.5,0.9-0.5h0.5
		l6.6-3.7c0,0,0,0,0.5,0l0.5,60v3.3l-0.5,2.3l-0.9,1.9l-1.9,1.9l-1.9,1.4l-2.3,0.9h-2.3l-2.3-0.5l-1.9-0.9l-1.4-1.4l-0.9-1.9
		l-0.9-2.8l0,0l-16.4-58.1c0.5,0,0.5,0.5,0.9,0.5l7,1.4C639.3,465,639.8,465,640.3,465L640.3,465z M696.5,462.2L696.5,462.2
		L696.5,462.2L696.5,462.2L696.5,462.2l8-0.5h0.5c0.5,0,0.9,0,1.4,0l7-2.3l0,0L697.9,518l0,0l-0.9,3.3l-0.9,1.9l-1.9,1.9l-2.3,1.4
		l-2.3,0.9h-2.3l-2.3-0.5l-1.9-0.9l-1.4-1.4l-0.9-1.9l-0.5-1.9v-3.3l0,0l0,0l-0.5-60.9l0,0c0.5,0,0.5,0.5,0.5,0.5l6.6,3.3
		c0.5,0,0.5,0,0.9,0c0.5,0,0.5,0.5,0.9,0.5l7,1.4C695.6,462.2,696,462.2,696.5,462.2L696.5,462.2z M751.3,474L751.3,474L751.3,474
		L751.3,474L751.3,474l7.5-0.5l-30.9,53.4l0,0l0,0l-1.4,2.8l-1.9,1.9l-2.3,1.4l-2.3,0.9h-2.3l-2.3-0.5l-1.9-0.9l-1.4-1.4l-0.9-1.9
		l-0.5-1.9V525l0.9-2.8l0,0l0,0l15.9-60l0.5,0.5l5.2,4.7c0.5,0.5,0.5,0.5,0.9,0.5c0.5,0,0.5,0.5,0.5,0.5l6.6,3.3c0.5,0,0.5,0,0.9,0
		c0.5,0,0.5,0.5,0.9,0.5l7,1.4C750.4,474,750.9,474,751.3,474L751.3,474z M912.1,501.6l-0.9,4.2c0,0.5,0,0.5,0,0.9
		c0,0.5,0,0.5,0,0.9l0.5,10.3c0,0.5,0,0.5,0,0.9c0,0.5,0,0.5,0,0.9l3.3,9.8l0.5,0.5c0,0.5,0.5,0.9,0.5,1.4l5.6,8.9l0.5,0.5
		c0.5,0.5,0.5,0.5,0.9,0.9l8,7c0.5,0.5,0.5,0.5,0.9,0.5c0.5,0,0.5,0.5,0.5,0.5l4.2,1.9l-50.1,15l0,0l-6.6,1.9l-6.1,0.5l-5.6-1.4
		l-5.2-2.3l-4.2-3.7l-2.8-4.7l-1.4-5.2v-5.6l1.4-5.2l2.8-4.7l4.2-4.2l5.6-3.3l0,0L912.1,501.6z M906,773c-0.5,0-0.5,0-0.9,0.5
		l-9.4,5.6c-0.5,0-0.5,0.5-0.9,0.5c0,0-0.5,0.5-0.9,0.5l-7.5,8c0,0-0.5,0.5-0.5,0.9c0,0.5-0.5,0.5-0.5,0.9l-5.2,9.4
		c0,0.5,0,0.5-0.5,0.9c0,0.5-0.5,0.5-0.5,0.9l-2.3,10.3c0,0.5,0,0.5,0,0.9c0,0.5,0,0.5,0,0.9v6.1L838,782.8l0,0l0,0l-5.2-4.7
		l-2.8-4.7l-1.4-5.6v-5.6l1.4-5.6l2.8-5.2l4.2-4.2l5.2-2.8l5.6-1.9h6.1l5.6,1.4l6.1,3.3l0,0l46.9,24.4l-5.2,1.4
		C906.5,773,906,773,906,773z M571.8,799.7L571.8,799.7l-3.7-7c0-0.5-0.5-0.5-0.5-0.9c0-0.5-0.5-0.5-0.5-0.9l-5.2-5.2
		c-0.5,0-0.5-0.5-0.9-0.5c-0.5,0-0.5-0.5-0.5-0.5l-6.6-3.7c-0.5,0-0.5,0-0.9-0.5c-0.5-0.5-0.5-0.5-0.9-0.5l-7.5-1.9l0,0l45.5-46.4
		l0,0l0,0l2.3-2.3l2.3-1.4l2.3-0.9h2.3l2.3,0.5l1.9,0.9l1.9,1.4l0.9,1.9l0.5,2.3v2.3l-0.5,2.3l-1.9,2.8l0,0L571.8,799.7z M412,706
		c0.5-0.5,0.5-0.9,0.5-1.4c0,0,0-0.5,0.5-0.5l2.8-10.3c0-0.5,0-0.5,0-0.9c0-0.5,0-0.5,0-0.9v-10.3c0-0.5,0-0.5,0-0.9
		c0-0.5,0-0.5,0-0.9l-2.3-9.8c0-0.5-0.5-0.5-0.5-0.9c0-0.5,0-0.5-0.5-0.9l-5.2-8.9c0-0.5-0.5-0.5-0.5-0.9c0-0.5-0.5-0.5-0.5-0.9
		l-3.3-3.3l50.6-1.9l0,0l6.6-0.5l5.2,1.4l4.7,2.3l3.7,3.7l2.8,4.7l1.4,5.2v5.6l-1.4,5.2l-2.8,5.2l-4.2,4.2l-5.2,2.8l-6.6,1.9l0,0
		l-48.3,14.5L412,706z M406.9,638.5c0.5-0.5,0.5-0.5,0.5-0.9l0.5-0.5l5.2-8.9c0-0.5,0.5-0.9,0.5-1.4c0,0,0,0,0.5-0.5l2.8-9.8
		c0-0.5,0-0.5,0-0.9c0-0.5,0-0.5,0-0.9v-10.3c0-0.5,0-0.5,0-0.9c0-0.5,0-0.5,0-0.9l-2.3-9.8c0-0.5-0.5-0.5-0.5-0.9
		c0-0.5,0-0.5-0.5-0.9l-2.3-3.7l48.7,10.8l0,0l0,0l6.1,1.4l4.7,2.3l3.7,3.7l2.8,4.2l1.4,5.2v5.6l-1.4,5.2l-2.8,5.2l-4.2,4.2
		l-5.2,2.8l-5.6,1.4l-6.6,0.5l0,0l-49.2,1.9L406.9,638.5z M810.4,507.7L810.4,507.7l2.3,7.5c0,0,0,0.5,0.5,0.5
		c0,0.5,0.5,0.9,0.5,1.4l3.7,6.1l0.5,0.5c0.5,0.5,0.5,0.9,0.9,0.9l5.6,4.7c0.5,0.5,0.5,0.5,0.9,0.5c0.5,0,0.5,0.5,0.5,0.5l6.6,3.3
		l-54.8,33.3l0,0l0,0l-2.8,1.9l-2.3,0.9h-2.3l-2.3-0.5l-1.9-0.9l-1.4-1.4l-1.4-1.9l-0.5-1.9v-2.3l0.5-2.3l1.4-2.3l2.3-2.3
		L810.4,507.7z M937.4,569.1c0,0.5,0,0.5-0.5,0.9c0,0.5-0.5,0.5-0.5,0.9l-2.8,10.3c0,0.5,0,0.5,0,0.9c0,0.5,0,0.5,0,0.9l0.5,10.3
		c0,0.5,0,0.5,0.5,0.9c0,0.5,0,0.5,0,0.9l3.3,9.8c0,0,0,0.5,0.5,0.5c0,0.5,0.5,0.9,0.5,1.4l5.6,8.9l0.5,0.5c0.5,0.5,0.5,0.9,0.9,0.9
		l3.7,3.3l-53,1.9l0,0l0,0l-6.6,0.5l-5.6-1.4l-5.2-2.8l-4.2-3.7l-2.8-4.7l-1.4-5.2v-5.6l1.4-5.6l2.8-4.7l4.2-4.2l5.2-3.3l6.6-1.9
		l0,0l0,0l50.6-15L937.4,569.1z M945.8,637.5c-0.5,0.5-0.5,0.5-0.5,0.9c0,0.5-0.5,0.5-0.5,0.9l-5.2,9.4c0,0.5,0,0.5-0.5,0.9
		c0,0.5-0.5,0.5-0.5,0.9L936,661c0,0.5,0,0.5,0,0.9c0,0.5,0,0.5,0,0.9l0.5,10.8c0,0.5,0,0.5,0,0.9c0,0.5,0,0.5,0,0.9l3.3,10.3
		c0,0,0,0.5,0.5,0.5c0,0.5,0.5,0.9,0.5,1.4l2.8,4.2l-52-11.7l0,0l0,0l-6.6-1.4l-5.2-2.8l-4.2-3.7l-2.8-4.7l-1.4-5.2v-5.6l1.4-5.6
		l2.8-5.2l4.2-4.2l5.2-2.8l5.6-1.9l7-0.5l0,0l53-1.9L945.8,637.5z M533.9,769.2L533.9,769.2l-1.9-7.5c0-0.5-0.5-0.5-0.5-0.9
		c0-0.5,0-0.5-0.5-0.9l-3.7-6.1c0-0.5-0.5-0.5-0.5-0.5l-0.5-0.5l-5.2-5.2c-0.5-0.5-0.5-0.5-0.9-0.5c-0.5,0-0.5-0.5-0.9-0.5l-6.6-3.3
		l0,0l55.3-33.3l0,0l2.8-1.9l2.3-0.9h2.3l2.3,0.5l1.9,0.9l1.4,1.4l0.9,1.9l0.5,2.3v2.3l-0.5,2.3l-1.4,2.3l-2.3,2.3l0,0L533.9,769.2z
		 M580.3,561.1L580.3,561.1l2.3,2.3l0.9,1.9l0.5,1.9v2.3l-0.5,2.3l-1.4,1.9l-1.9,1.9l-2.3,1.4l-2.3,0.5h-2.3l-2.3-0.5l-2.8-1.4l0,0
		l0,0l-53.4-28.1c0,0,0,0,0.5,0l6.6-3.7c0.5,0,0.5-0.5,0.5-0.5s0.5-0.5,0.9-0.5l5.2-5.2c0.5-0.5,0.5-0.5,0.5-0.9l0.5-0.5l3.7-6.6
		c0.5-0.5,0.5-0.9,0.5-1.4c0,0,0,0,0.5-0.5l1.9-7c0-0.5,0-0.5,0-0.9l0,0L580.3,561.1z M691.3,735.5h-4.2c-0.5,0-0.5,0-0.9,0
		c-0.5,0-0.5,0-0.9,0l-4.2,1.4c-0.5,0-0.5,0.5-0.9,0.5l0,0v-47.8l13.1,45.9h-0.5C691.8,735.5,691.8,735.5,691.3,735.5z M501.1,584.6
		l3.7-6.6c0.5-0.5,0.5-0.9,0.5-1.4c0,0,0,0,0.5-0.5l1.9-7c0-0.5,0-0.5,0-0.9c0-0.5,0-0.5,0-0.9v-7c0-0.5,0-0.5,0-0.9l54.4,28.6l0,0
		l2.8,1.4l1.9,1.4l0.9,1.9l0.5,1.9v2.3l-0.5,2.3l-1.4,2.3l-1.9,1.9l-2.3,1.4l-2.3,0.5h-2.3l-3.3-0.5l0,0l-59.5-13.1l5.2-5.2
		C500.1,585.5,500.6,585,501.1,584.6C500.6,584.6,501.1,584.6,501.1,584.6z M654.3,542.8L654.3,542.8L654.3,542.8L654.3,542.8
		L654.3,542.8l4.7-0.5h0.5c0.5,0,0.9,0,1.4,0l4.2-1.4c0.5,0,0.5-0.5,0.9-0.5v45.9L654.3,542.8C653.4,542.4,653.9,542.8,654.3,542.8
		L654.3,542.8z M686.2,541.4L686.2,541.4L686.2,541.4L686.2,541.4L686.2,541.4h4.7h0.5c0,0,0,0,0.5,0L680.1,586v-45.5h0.5
		c0.5,0,0.5,0.5,0.9,0.5L686.2,541.4C685.3,541.4,685.7,541.4,686.2,541.4L686.2,541.4z M716.7,726.1l-4.2,1.4
		c-0.5,0-0.5,0.5-0.9,0.5c-0.5,0-0.5,0-0.9,0.5l-3.7,2.3c-0.5,0-0.5,0.5-0.9,0.5c0,0,0,0-0.5,0l-13.1-46.4L716.7,726.1L716.7,726.1
		C717.6,726.1,717.1,726.1,716.7,726.1z M664.6,737.4l-4.2-0.9c-0.5,0-0.5,0-0.9,0c-0.5,0-0.5,0-0.9,0h-4.2c-0.5,0-0.5,0-0.9,0.5
		l12.2-46.4v47.8h-0.5C665.1,737.8,665.1,737.4,664.6,737.4z M633.7,550.3c0.5,0,0.5-0.5,0.9-0.5h0.5l3.7-2.3c0.5,0,0.5-0.5,0.5-0.5
		s0,0,0.5,0l12.2,44.1l-23.9-38.9c0.5,0,0.9,0,1.4,0L633.7,550.3z M704.9,543.8C705.4,543.8,705.4,543.8,704.9,543.8
		c0.5,0.5,0.9,0.5,0.9,0.9l3.7,1.9c0.5,0,0.5,0,0.5,0c0.5,0,0.5,0.5,0.9,0.5l4.2,0.9h0.5l-23,40.3L704.9,543.8z M739.2,711.1
		l-3.7,2.3c-0.5,0-0.5,0.5-0.5,0.5l-0.5,0.5l-3.3,3.3c-0.5,0.5-0.5,0.5-0.5,0.9l-0.5,0.5l-24.8-40.8l35.2,32.8h-0.5
		C739.6,711.1,739.6,711.1,739.2,711.1z M607.5,566.3l3.7-2.3c0.5,0,0.5-0.5,0.5-0.5c0.5,0,0.5-0.5,0.9-0.5l2.8-2.8
		c0.5-0.5,0.5-0.5,0.5-0.9l0,0l23.9,38.9l-33.3-30.9h0.5C607,566.3,607.5,566.3,607.5,566.3z M728.8,554.1L728.8,554.1
		c0.5,0.5,0.5,0.5,0.5,0.9l2.8,2.8c0.5,0.5,0.5,0.5,0.9,0.5c0.5,0,0.5,0.5,0.5,0.5l3.7,1.9h0.5l-32.3,32.8L728.8,554.1z M757,691
		l-3.3,3.3c-0.5,0.5-0.5,0.5-0.5,0.9c0,0.5-0.5,0.5-0.5,0.9l-1.9,3.7c0,0.5,0,0.5-0.5,0.9l-0.5,0.5l-35.2-32.8L757,691L757,691
		C757.4,691,757.4,691,757,691z M595.7,706L595.7,706c0-0.5,0-0.5-0.5-0.9l-1.9-3.3c0-0.5-0.5-0.5-0.5-0.9c0-0.5-0.5-0.5-0.5-0.9
		l-2.8-2.8c0,0-0.5-0.5-0.9-0.5l39.8-23.9L595.7,706z M764,591.1c0,0.5,0,0.5,0,0.9l1.4,3.7c0,0,0,0.5,0.5,0.5c0,0.5,0,0.9,0.5,1.4
		l2.3,3.3l0.5,0.5c0,0,0,0,0,0.5l-45,13.6L764,591.1z M723.2,656.3l46.4,10.3l0,0l-0.5,0.5l-2.3,3.7c0,0.5,0,0.5-0.5,0.9
		c0,0.5-0.5,0.5-0.5,0.9l-0.9,4.2c0,0.5,0,0.5,0,0.9v0.5L723.2,656.3z M581.7,684.9c0-0.5,0-0.5,0-0.9l-0.9-3.7
		c0-0.5-0.5-0.5-0.5-0.9c0-0.5,0-0.5-0.5-0.9l-1.9-3.3c0-0.5-0.5-0.5-0.5-0.9l0,0l44.5-13.6L581.7,684.9z M577.9,608.9l2.3-3.7
		c0.5-0.5,0.5-0.9,0.5-1.4c0,0,0,0,0.5-0.5l0.9-4.2c0-0.5,0-0.5,0-0.9v-0.5l40.8,21.1L577.9,608.9L577.9,608.9
		C577.5,609.4,577.9,609.4,577.9,608.9z M571.8,634.7C572.3,634.2,572.3,634.2,571.8,634.7l1.4-4.2c0-0.5,0-0.5,0-0.9
		c0-0.5,0-0.5,0-0.9v-4.2c0-0.5,0-0.5,0-0.9V623l44.5,9.8L571.8,634.7L571.8,634.7z M573.2,660.5L573.2,660.5v-4.7
		c0-0.5,0-0.5,0-0.9c0-0.5,0-0.5,0-0.9l-0.9-3.7c0-0.5-0.5-0.5-0.5-0.9l0,0l46.4-1.9L573.2,660.5z M772.9,646c0,0.5,0,0.5,0,0.9
		c0,0.5,0,0.5,0,0.9v4.2c0,0.5,0,0.5,0,0.9c0,0,0,0,0,0.5l-46.4-10.3l47.8-1.9c0,0.5-0.5,0.5-0.5,0.5L772.9,646z M772.4,615
		L772.4,615v4.7c0,0.5,0,0.5,0,0.9c0,0.5,0,0.9,0,0.9l1.4,3.7l0.5,0.5v0.5l-46.9,1.9L772.4,615z M589.2,586.4L589.2,586.4l3.3-3.3
		c0.5-0.5,0.5-0.5,0.5-0.9l0.5-0.5l2.3-3.7c0.5-0.5,0.5-0.9,0.5-1.4l33.3,30.9L589.2,586.4z M749,570c0,0.5,0,0.9,0.5,0.9l2.3,3.3
		l0.5,0.5c0,0.5,0.5,0.5,0.5,0.9l2.8,2.8l0.5,0.5l-39.8,23.9L749,570z M615.9,722.8L615.9,722.8c-0.5-0.5-0.5-0.9-0.9-0.9l-2.8-2.8
		c0,0-0.5-0.5-0.9-0.5c-0.5,0-0.5-0.5-0.5-0.5l-3.7-1.9c-0.5,0-0.5,0-0.9-0.5l33.3-33.7L615.9,722.8z M551.2,618.3L551.2,618.3
		C551.7,618.3,551.7,618.3,551.2,618.3l3.3,0.5l1.9,0.9l1.4,1.4l0.9,1.9l0.5,1.9v2.3l-0.5,2.3l-1.4,2.3l-1.9,1.9l-2.3,1.4l-2.3,0.5
		h-3.3l0,0l-62.3,2.3l3.7-6.6c0-0.5,0.5-0.9,0.5-1.4c0,0,0,0,0.5-0.5l1.9-7c0-0.5,0-0.5,0-0.9c0-0.5,0-0.5,0-0.9v-7.5
		c0-0.5,0-0.5,0-0.9c0-0.5,0-0.5,0-0.9l-1.9-7c0-0.5,0-0.5-0.5-0.5L551.2,618.3z M489.8,685.3l1.9-7c0-0.5,0-0.5,0-0.9
		c0-0.5,0-0.5,0-0.9v-7.5c0-0.5,0-0.5,0-0.9c0-0.5,0-0.5,0-0.9l-1.9-7c0-0.5-0.5-0.5-0.5-0.9c0-0.5,0-0.5-0.5-0.9l-3.7-6.1l-0.5-0.5
		l63.3-2.3l0,0h3.3l2.3,0.5l1.9,0.9l1.4,1.4l0.9,1.9l0.5,1.9v2.3l-0.5,2.3l-1.4,2.3l-1.9,1.9l-2.3,1.4l-3.3,0.9l0,0l0,0L489.8,685.3
		z M633.2,730.3l-4.2-0.9c-0.5,0-0.5,0-0.9,0l23.9-41.2l-12.2,45.9c0,0-0.5,0-0.5-0.5c-0.5,0-0.5-0.5-0.9-0.5l-3.7-1.9
		c-0.5,0-0.5,0-0.9-0.5C633.7,730.3,633.7,730.3,633.2,730.3z M795.9,658.1L795.9,658.1l-3.3-0.5l0,0l-1.9-0.9l-1.9-1.4l-1.4-1.9
		l-0.5-2.3v-2.3l0.5-2.3l0.9-1.9l1.9-1.9l2.3-1.4l2.3-0.9h3.3l64.7-2.3c0,0,0,0,0,0.5l-3.7,6.6c0,0.5,0,0.5-0.5,0.9
		c0,0.5-0.5,0.5-0.5,0.9l-1.9,7c0,0.5,0,0.5,0,0.9c0,0.5,0,0.5,0,0.9v7.5c0,0.5,0,0.5,0,0.9c0,0.5,0,0.5,0,0.9l2.3,7
		c0,0,0,0.5,0.5,0.5c0,0,0,0,0,0.5L795.9,658.1z M857.7,589.7L857.7,589.7l-1.9,7.5c0,0.5,0,0.5,0,0.9c0,0.5,0,0.5,0,0.9v7.5
		c0,0.5,0,0.5,0,0.9c0,0.5,0,0.5,0,0.9l2.3,7c0,0,0,0,0.5,0.5c0,0.5,0.5,0.9,0.5,1.4l4.2,6.1c0,0,0.5,0,0.5,0.5l-65.1,2.3h-3.7
		l-2.3-0.5l-1.9-0.9l-1.9-1.4l-1.4-1.9l-0.5-1.9v-2.3l0.5-2.3l1.4-1.9l1.9-1.9l2.3-1.4l3.3-0.9l0,0L857.7,589.7z M506.2,730.3v-7.5
		c0-0.5,0-0.5,0-0.9c0-0.5,0-0.5,0-0.9l-1.9-7c0-0.5-0.5-0.5-0.5-0.9c0-0.5,0-0.5-0.5-0.9l-3.7-6.1c0-0.5-0.5-0.5-0.5-0.5
		c0-0.5-0.5-0.5-0.5-0.9l-5.2-5.2c0,0,0,0-0.5,0l61.4-18.3l0,0l3.3-0.9h2.3l2.3,0.5l1.9,0.9l1.4,1.4l0.9,1.9l0.5,1.9v2.3l-0.5,2.3
		l-1.4,1.9l-1.9,1.9l-2.8,1.9l0,0L506.2,730.3z M785.6,689.1L785.6,689.1C785.1,689.1,785.1,689.1,785.6,689.1l-2.8-1.4l-1.9-1.4
		l-1.4-1.9l-0.5-1.9v-2.3l0.5-2.3l0.9-1.9l1.9-1.9l2.3-1.4l2.3-0.9h2.3l3.3,0.9l0,0l62.8,14.1c0,0-0.5,0-0.5,0.5l-5.2,5.6l-0.5,0.5
		c0,0.5-0.5,0.5-0.5,0.5l-3.7,6.6c0,0.5,0,0.5-0.5,0.9c0,0.5-0.5,0.5-0.5,0.9l-1.9,7.5c0,0.5,0,0.5,0,0.9c0,0.5,0,0.5,0,0.9v7.5
		c0,0.5,0,0.5,0,0.9l0,0L785.6,689.1z M839.5,545.7L839.5,545.7v7.5c0,0.5,0,0.5,0,0.9c0,0.5,0,0.5,0,0.9l2.3,7c0,0,0,0.5,0.5,0.5
		c0,0.5,0.5,0.9,0.5,1.4l3.7,6.1l0.5,0.5c0.5,0.5,0.5,0.5,0.9,0.9l5.6,5.2l0,0l-61.9,18.7l0,0l0,0l-3.3,0.9H786l-2.3-0.5l-1.9-0.9
		l-1.4-1.4l-0.9-1.9l-0.5-1.9v-2.3l0.5-2.3l0.9-1.9l1.9-1.9l2.8-1.9l0,0L839.5,545.7z M767.3,716.7L767.3,716.7l-2.3-2.3l-1.4-1.9
		l-0.5-2.3v-2.3l0.5-2.3l0.9-1.9l1.9-1.9l1.9-1.4l2.3-0.9h2.3l2.3,0.5l2.8,1.4l0,0l57.2,30h-0.5l-6.6,3.7c-0.5,0-0.5,0.5-0.9,0.5
		c-0.5,0-0.5,0.5-0.9,0.5l-5.2,5.6c0,0-0.5,0.5-0.5,0.9c0,0.5-0.5,0.5-0.5,0.5l-3.7,6.6c0,0.5,0,0.5-0.5,0.9c0,0.5-0.5,0.5-0.5,0.9
		l-1.9,7.5c0,0.5,0,0.5,0,0.9c0,0,0,0,0,0.5L767.3,716.7z M604.6,539.6L604.6,539.6l1.4,2.8l0.5,1.9v1.9l-0.5,2.3l-1.4,1.9l-1.9,1.9
		l-2.3,1.4l-2.3,0.5h-2.3l-2.3-0.5l-1.9-0.9l-2.3-2.3l0,0l0,0l-43.6-40.8h0.5l7-2.3c0.5,0,0.5-0.5,0.9-0.5h0.5l6.1-3.7
		c0.5,0,0.5-0.5,0.5-0.5l0.5-0.5l5.2-5.2c0.5-0.5,0.5-0.5,0.5-0.9l0.5-0.5l3.7-6.6c0-0.5,0-0.5,0.5-0.9L604.6,539.6z M742.4,738.8
		L742.4,738.8l-1.9-2.8l-0.5-2.3v-2.3l0.5-2.3l1.4-1.9l1.9-1.9l2.3-1.4l2.3-0.9h2.3l2.3,0.5l1.9,0.9l2.3,2.3l0,0l0,0l46.9,43.6l0,0
		c-0.5,0-0.5,0-0.9,0l-7.5,2.3c-0.5,0-0.5,0.5-0.9,0.5c-0.5,0-0.5,0-0.9,0.5l-6.6,4.2c-0.5,0-0.5,0.5-0.5,0.5
		c-0.5,0-0.5,0.5-0.9,0.5l-5.6,5.6c0,0.5-0.5,0.5-0.5,0.9c0,0.5-0.5,0.5-0.5,0.5l-3.7,6.6c0,0.5,0,0.5-0.5,0.9c0,0,0,0,0,0.5
		L742.4,738.8z M935.5,707.4c-0.5,0-0.5,0.5-0.9,0.5c-0.5,0-0.5,0.5-0.9,0.5l-7.5,8c0,0-0.5,0.5-0.5,0.9c0,0.5-0.5,0.5-0.5,0.9
		l-5.2,9.4c0,0.5,0,0.5-0.5,0.9c0,0.5-0.5,0.5-0.5,0.9l-2.3,10.3c0,0.5,0,0.5,0,0.9c0,0.5,0,0.5,0,0.9l0.5,10.8c0,0.5,0,0.5,0,0.9
		c0,0.5,0,0.5,0,0.9l1.4,5.2l-47.3-24.8l0,0l0,0l-6.1-2.8L861,728l-2.8-4.7l-1.4-5.2v-5.6l1.4-5.6l2.8-5.2l4.2-4.2l5.2-2.8l5.6-1.9
		h6.1l6.6,1.4l0,0l51.6,11.7L935.5,707.4z M755.1,543.8l-2.3,2.3l-2.3,1.4l-2.3,0.5h-2.3l-2.3-0.5l-1.9-0.9l-1.9-1.4l-1.4-1.9
		l-0.5-1.9v-2.3l0.5-2.3l1.4-2.8l31.4-54.8v0.5l3.7,6.1l0.5,0.5c0.5,0.5,0.5,0.9,0.9,0.9l5.2,4.7c0.5,0.5,0.5,0.5,0.9,0.5
		c0.5,0,0.5,0.5,0.5,0.5l6.6,3.3h0.5c0.5,0,0.5,0.5,0.9,0.5l7,1.4L755.1,543.8z M420,571.4c0.5,0,0.5-0.5,0.5-0.5l0.5-0.5l7.5-7.5
		c0.5-0.5,0.5-0.5,0.5-0.9l0.5-0.5l5.2-8.9c0.5-0.5,0.5-0.9,0.5-1.4c0,0,0,0,0.5-0.5l2.8-9.8c0-0.5,0-0.5,0-0.9c0-0.5,0-0.5,0-0.9
		v-9.8c0-0.5,0-0.5,0-0.9c0-0.5,0-0.5,0-0.9l-1.4-4.7l43.1,22.5l0,0l5.6,2.8l3.7,3.7l2.8,4.2l1.4,5.2v5.2l-1.4,5.2l-2.8,4.7
		l-4.2,4.2l-5.2,2.8l-5.2,1.4h-5.6l-6.1-1.4l0,0l-47.3-10.3L420,571.4z M592,805.8l-7.5,0.5c0,0,0,0-0.5,0l32.3-56.2l0,0l0,0
		l1.9-2.8l1.9-1.9l2.3-1.4l2.3-0.9h2.3l2.3,0.5l1.9,0.9l1.9,1.4l0.9,1.9l0.5,2.3v2.3l-0.9,3.3l0,0l0,0l-16.9,62.8l-0.5-0.5l-5.2-5.2
		c0,0-0.5-0.5-0.9-0.5c-0.5,0-0.5-0.5-0.9-0.5l-6.6-3.7c-0.5,0-0.5,0-0.9-0.5c-0.5,0-0.5-0.5-0.9-0.5l-7.5-1.9
		C592.9,805.3,592.5,805.3,592,805.8C592.5,805.8,592.5,805.8,592,805.8z M647.8,818.9l-7.5,0.5c-0.5,0-0.5,0-0.9,0
		c-0.5,0-0.5,0-0.9,0l-7.5,2.3c0,0-0.5,0-0.5,0.5l16.9-62.3l0,0l0.9-3.3l1.4-2.3l1.9-1.9l2.3-1.4l2.3-0.9h2.3l2.3,0.5l1.9,0.9
		l1.9,1.4l1.4,1.9l0.5,2.3v3.3l0,0l0,0L667,825l0,0c-0.5,0-0.5-0.5-0.5-0.5l-6.6-3.7c-0.5,0-0.5,0-0.9-0.5c-0.5,0-0.5-0.5-0.9-0.5
		l-7.5-1.9c-0.5,0-0.5,0-0.9,0C648.2,818.9,648.2,818.9,647.8,818.9z M868.5,448.2v4.2c0,0.5,0,0.5,0,0.9c0,0.5,0,0.5,0,0.9l2.8,9.8
		c0,0,0,0.5,0.5,0.5c0,0.5,0.5,0.9,0.5,1.4l5.6,8.4l0.5,0.5c0.5,0.5,0.5,0.5,0.9,0.9l7.5,7c0.5,0.5,0.5,0.5,0.9,0.5
		c0.5,0,0.5,0.5,0.5,0.5l9.4,4.7c0.5,0,0.5,0,0.9,0c0.5,0,0.5,0.5,0.9,0.5l4.2,0.9l-44.1,26.7l0,0l0,0l-5.6,3.3l-5.6,1.9l-5.6,0.5
		l-5.6-1.4l-5.2-2.3l-4.2-3.7l-2.8-4.7l-1.4-5.2v-5.2l1.4-5.2l2.8-4.7l4.7-4.7l0,0L868.5,448.2z M557.8,462.7L557.8,462.7
		L557.8,462.7l3.3,5.2l1.4,5.2v5.2l-1.4,5.2l-2.8,4.7l-4.2,4.2l-4.7,2.8l-5.6,1.9l-5.6,0.5l-5.2-0.9l-4.7-2.3l-4.7-4.2l0,0
		l-34.2-32.3l4.7-0.5h0.5c0.5,0,0.9,0,1.4,0l9.8-2.8c0.5,0,0.5-0.5,0.9-0.5h0.5l8.9-5.2c0.5,0,0.5-0.5,0.5-0.5l0.5-0.5l7.5-7.5
		c0.5-0.5,0.5-0.5,0.5-0.9l0.5-0.5l5.2-8.9c0.5-0.5,0.5-0.9,0.5-1.4c0,0,0,0,0.5-0.5l1.4-4.7L557.8,462.7z M473.9,830.2v-4.7
		c0-0.5,0-0.5,0-0.9c0-0.5,0-0.5,0-0.9l-2.8-10.3c0-0.5-0.5-0.5-0.5-0.9c0-0.5,0-0.5-0.5-0.9l-5.2-8.9c0-0.5-0.5-0.5-0.5-0.5
		c0-0.5-0.5-0.5-0.5-0.9l-7.5-7.5c-0.5-0.5-0.5-0.5-0.9-0.5c-0.5,0-0.5-0.5-0.9-0.5l-8.9-5.2c-0.5,0-0.5,0-0.9-0.5
		c-0.5,0-0.5-0.5-0.9-0.5l-4.2-0.9l44.5-27.2l0,0l5.6-3.3l5.6-1.9h5.6l5.2,1.4l4.7,2.8l3.7,3.7l2.8,4.7l1.4,5.2v5.6l-1.4,5.6
		l-2.8,5.2l-4.7,4.7L473.9,830.2z M706.3,817.5l-7.5,0.5c-0.5,0-0.5,0-0.9,0c-0.5,0-0.5,0-0.9,0l-7.5,2.3c-0.5,0-0.5,0.5-0.9,0.5
		c-0.5,0-0.5,0-0.9,0.5l-6.6,4.2c-0.5,0-0.5,0.5-0.5,0.5l-0.5-64.2v-3.3l0.5-2.3l1.4-2.3l1.9-1.9l2.3-1.4l2.3-0.9h2.3l2.3,0.5
		l1.9,0.9l1.9,1.9l1.4,1.9l0.9,3.3l0,0l0,0l17.3,61.9l0,0c-0.5,0-0.5-0.5-0.9-0.5l-7.5-1.9c-0.5,0-0.5,0-0.9,0
		C706.8,817.5,706.3,817.5,706.3,817.5z M343.1,548.9c0.5,0,0.5-0.5,0.9-0.5l9.8-9.8c0.5-0.5,0.5-0.5,0.5-0.9l0.5-0.5l7-11.7
		c0.5-0.5,0.5-0.9,0.5-1.4l0.5-0.5l3.7-12.7c0-0.5,0-0.5,0-0.9c0-0.5,0-0.5,0-0.9L367,496c0-0.5,0-0.5,0-0.9c0-0.5,0-0.5,0-0.9
		l-2.8-10.3l41.7,21.6l0,0l8,4.2l5.6,5.6l4.2,6.6l1.9,8v8l-2.3,8l-4.2,7.5l-6.1,6.1l-7.5,4.7l-8.4,2.3l-8.4,0.5l-8.9-1.9l-45.5-10.3
		l9.4-5.6C342.7,549.4,342.7,548.9,343.1,548.9z M488.4,840h-4.7l37-37.5l4.7-4.7l5.2-2.8l5.6-1.9h5.6l5.6,1.4l4.7,2.8l4.2,3.7
		l2.8,4.7l1.4,5.6v5.6l-1.4,5.6l-3.3,6.1l0,0l0,0l-26.7,45.9l-1.4-4.7c0-0.5-0.5-0.5-0.5-0.9c0-0.5,0-0.5-0.5-0.9l-5.2-8.9
		c0-0.5-0.5-0.5-0.5-0.9c0-0.5-0.5-0.5-0.5-0.9l-7.5-7.5c-0.5-0.5-0.5-0.5-0.9-0.5c-0.5,0-0.5-0.5-0.5-0.5l-9.4-5.2
		c-0.5,0-0.5,0-0.9-0.5c-0.5,0-0.5-0.5-0.9-0.5l-10.3-2.3c-0.5,0-0.5,0-0.9,0C489.3,840,488.9,840,488.4,840z M558.7,878.9
		l-10.8,0.5c-0.5,0-0.5,0-0.9,0c-0.5,0-0.5,0-0.9,0l-4.7,1.4l26.2-45.9l0,0l3.3-6.1l4.2-4.2l5.2-3.3l5.6-1.9h5.6l5.6,1.4l5.2,2.8
		l3.7,3.7l2.8,4.7l1.4,5.6v5.6l-1.9,6.6l0,0l-13.6,51.6l-2.8-4.7c0-0.5-0.5-0.5-0.5-0.9c0-0.5-0.5-0.5-0.5-0.9l-7.5-7.5
		c-0.5,0-0.5-0.5-0.9-0.5c-0.5,0-0.5-0.5-0.9-0.5l-9.4-5.2c-0.5,0-0.5,0-0.9-0.5c-0.5,0-0.5-0.5-0.9-0.5l-10.3-2.3
		c-0.5,0-0.5,0-0.9,0C559.2,878.9,558.7,878.9,558.7,878.9z M637.9,897.6l-10.8,0.5c-0.5,0-0.5,0-0.9,0c-0.5,0-0.5,0-0.9,0
		l-10.3,3.3c-0.5,0-0.5,0.5-0.9,0.5c-0.5,0-0.5,0-0.9,0.5l-4.7,2.8l13.6-51.1l0,0l0,0l1.9-6.6l2.8-5.2l4.2-4.2l5.2-2.8l5.6-1.9h5.6
		l5.6,1.4l5.2,2.8l4.2,3.7l2.8,4.7l1.4,5.6v6.6l0,0l0,0v53.4l-4.2-3.7c-0.5,0-0.5-0.5-0.9-0.5c-0.5,0-0.5-0.5-0.9-0.5l-9.4-5.2
		c-0.5,0-0.5,0-0.9-0.5c-0.5,0-0.5-0.5-0.9-0.5l-10.3-2.3c-0.5,0-0.5,0-0.9,0C637.9,898.1,637.9,898.1,637.9,897.6z M720.4,895.8
		l-10.8,0.5c-0.5,0-0.5,0-0.9,0c-0.5,0-0.5,0-0.9,0l-10.3,3.3c-0.5,0-0.5,0.5-0.9,0.5c-0.5,0-0.5,0-0.9,0.5l-9.4,5.6
		c-0.5,0-0.5,0.5-0.5,0.5c-0.5,0-0.5,0.5-0.9,0.5l-3.7,4.2v-53v-6.6l1.4-5.6l2.8-5.2l4.2-4.2l5.2-3.3l5.6-1.4h6.1l5.6,1.4l5.2,2.8
		l4.2,3.7l2.8,4.7l1.9,6.6l0,0l14.5,51.1l-5.2-2.8c-0.5,0-0.5,0-0.9-0.5c-0.5,0-0.5-0.5-0.9-0.5l-10.3-2.3c-0.5,0-0.5,0-0.9,0
		C720.9,895.8,720.9,895.8,720.4,895.8z M921.5,892.5c-0.5,0-0.5,0-0.9,0c-0.5,0-0.5,0-0.9,0l-14.1,4.2c-0.5,0-0.5,0.5-0.9,0.5
		c-0.5,0-0.5,0-0.9,0.5l-12.7,7.5c-0.5,0-0.5,0.5-0.5,0.5c-0.5,0-0.5,0.5-0.9,0.5l-10.3,10.3c-0.5,0.5-0.5,0.5-0.5,0.9
		c0,0.5-0.5,0.5-0.5,0.5l-7,12.7c0,0.5,0,0.5-0.5,0.9c0,0.5-0.5,0.5-0.5,0.9l-3.3,12.7l-27.7-45.5l0,0l-5.2-8.4l-2.3-8.9v-8.9
		l2.3-8.9l4.2-8l6.6-6.6l8-4.7l8.9-2.8l9.4-0.5l8.9,1.9l8,4.2l7.5,6.6l38.9,36.1L921.5,892.5z M431.2,905.6l-11.7,0.5l36.1-37l0,0
		l7-7l7.5-4.7l8.4-2.8h8.9l8.4,1.9l7.5,4.2l6.1,6.1l4.2,7.5l2.3,8.4v8.9l-2.3,8.9l-5.2,8.9l0,0l0,0l-26.2,45.5l-2.8-11.7
		c0-0.5-0.5-0.5-0.5-0.9c0-0.5,0-0.5-0.5-0.9l-7-12.2c0-0.5-0.5-0.5-0.5-0.9c0-0.5-0.5-0.5-0.5-0.9l-9.8-9.8
		c-0.5-0.5-0.5-0.5-0.9-0.5c-0.5,0-0.5-0.5-0.9-0.5l-12.2-6.6c-0.5,0-0.5,0-0.9-0.5c-0.5,0-0.5-0.5-0.9-0.5L431.2,905.6
		c-0.5,0-0.9,0-1.4,0C431.2,905.6,431.2,905.6,431.2,905.6z M1120.7,759.8C1120.2,759.8,1120.2,760.3,1120.7,759.8
		c-0.9,0.5-0.9,0.9-1.4,0.9l-12.7,13.1c-0.5,0.5-0.5,0.5-0.5,0.9c0,0.5-0.5,0.5-0.5,0.5l-8.9,15.9c0,0.5,0,0.5-0.5,0.9
		c0,0.5-0.5,0.5-0.5,0.9l-4.2,17.8c0,0.5,0,0.5,0,0.9c0,0.5,0,0.5,0,0.9l0.5,18.3c0,0.5,0,0.5,0.5,0.9c0,0.5,0,0.5,0,0.9l5.6,17.8
		l0.5,0.5c0,0.5,0.5,0.9,0.5,1.4l0.9,1.4l-57.2-30l0,0l-12.2-6.1l-9.4-8.4l-6.6-10.8L1011,787l-0.5-12.2l2.8-12.2l6.1-10.8l8.4-8.9
		l10.8-6.6l12.2-3.7l12.7-0.5l13.6,2.8l62.3,14.1l-0.9,0.5c-0.5,0-0.5,0.5-0.9,0.5c-0.5,0-0.5,0-0.9,0.5L1120.7,759.8z
		 M1125.3,493.6c0.5,0,0.5,0,0.9,0c0.5,0,0.5,0.5,0.9,0.5l0,0l-58.6,17.8l0,0l-12.7,3.7l-12.7,0.5l-12.2-2.3l-10.8-5.6l-8.9-8
		l-6.6-9.8l-3.7-11.2l-0.5-11.2l2.8-11.2l5.6-10.3l8.4-8.4l11.2-6.6l52-31.4c0,0.5,0,0.5-0.5,0.9c0,0.5-0.5,0.5-0.5,0.9l-4.2,16.9
		c0,0.5,0,0.5,0,0.9c0,0.5,0,0.5,0,0.9l0.5,16.9c0,0.5,0,0.5,0.5,0.9c0,0.5,0,0.5,0,0.9l5.2,16.4c0,0,0,0,0.5,0.5
		c0,0.5,0.5,0.9,0.5,1.4l9.8,14.5l0.5,0.5c0.5,0.5,0.5,0.5,0.9,0.9l13.6,11.7c0.5,0.5,0.5,0.5,0.9,0.5l0.5,0.5L1125.3,493.6z
		 M252.7,524.1c0.5,0,0.5-0.5,0.5-0.5c0.5,0,0.5-0.5,0.9-0.5l12.2-12.2c0.5-0.5,0.5-0.5,0.5-0.9l0.5-0.5l8.9-15
		c0.5-0.5,0.5-0.9,0.5-1.4l0.5-0.5l4.7-16.4c0-0.5,0-0.5,0-0.9c0-0.5,0-0.5,0-0.9l0.5-16.4c0-0.5,0-0.5,0-0.9c0-0.5,0-0.5,0-0.9
		l-3.7-15.5c0-0.5-0.5-0.5-0.5-0.9c0-0.5,0-0.5-0.5-0.9l0,0l48.3,25.3l0,0l10.3,5.6l8,7.5l5.6,9.4l2.8,10.3l-0.5,11.2l-3.3,11.2
		l-6.1,10.3l-8.4,8.4l-10.3,6.1l-11.2,3.3l-11.7,0.5l-11.7-2.8l0,0l-53-11.7c0.5,0,0.5-0.5,0.5-0.5h0.5L252.7,524.1z M228.8,779.5
		c-0.5,0-0.5,0-0.9-0.5c-0.5,0-0.5-0.5-0.9-0.5l57.2-17.3l0,0l12.2-3.7L308,757l11.2,2.8l9.8,5.6l8,8l5.6,9.8l2.8,11.2l-0.5,12.2
		l-3.3,11.7l-6.1,10.8l-8.9,8.9l-11.2,7l-51.1,30.9c0-0.5,0-0.5,0.5-0.9l0.5-0.5l5.2-17.3c0-0.5,0-0.5,0-0.9c0-0.5,0-0.5,0-0.9
		l0.5-17.8c0-0.5,0-0.5,0-0.9c0-0.5,0-0.5,0-0.9l-3.7-16.9c0-0.5-0.5-0.5-0.5-0.9c0-0.5,0-0.5-0.5-0.9l-8.4-14.5
		c0-0.5-0.5-0.5-0.5-0.9c0-0.5-0.5-0.5-0.5-0.9l-11.7-12.2c-0.5-0.5-0.5-0.5-0.9-0.5c-0.5,0-0.5-0.5-0.9-0.5L228.8,779.5z"/>
</g>
<g id="Layer_2_1_">
	<g>
		<g>
			<path class="st1" d="M779,461.1c0.7,0,1.4,0,2.2,0c32.2,0,58.3-17.1,58.3-38.2s-26.1-38.2-58.3-38.2c-1.4,0-2.8,0-4.1,0.1
				c2.6-4.4,4.1-9.1,4.1-14.1c0-21.1-26.1-38.2-58.3-38.2c-0.2,0-0.4,0-0.5,0c-3.8-18.7-28.3-33.1-57.8-33.1
				c-28.3,0-51.8,13.2-57.2,30.7c-6-1.4-12.4-2.1-19.1-2.1c-20.4,0-38.3,6.8-48.7,17.2c-25.3,2.4-45.4,15.4-49.3,31.9
				c-8.7-3.4-19-5.4-29.9-5.4c-31.2,0-56.7,16-58.3,36.2c-17.5,6.6-29.3,19-29.3,33.1c0,21.1,26.1,38.2,58.4,38.2c0.2,0,0.4,0,0.5,0
				c3.8,18.7,28.3,33.1,57.8,33.1c7.1,0,13.8-0.8,20.1-2.3c6.3,1.5,13.1,2.4,20.3,2.4c0.2,0,0.4,0,0.5,0
				c3.8,18.7,28.3,33.1,57.8,33.1c4.3,0,8.4-0.3,12.4-0.9c10.7,8.9,27.3,14.7,45.9,14.7c25.2,0,46.7-10.5,54.9-25.2
				c10.2-3.1,18.8-8.1,24.8-14.2c10.4,10.7,28.5,17.7,49.2,17.7c32.2,0,58.4-17.1,58.4-38.2C833.8,478.9,809.6,462.3,779,461.1z
				 M727,408.8c-2.6,4.4-4.1,9.1-4.1,14.1c0,1.8,0.2,3.5,0.6,5.3c-1.3-0.1-2.6-0.1-3.9-0.2c-3.5-6.6-9.7-12.3-17.7-16.7
				c0.8-1.5,1.4-3,1.9-4.5c6,1.4,12.4,2.1,19.1,2.1C724.2,408.9,725.6,408.9,727,408.8z M774.9,461v-0.1c0.9,0.1,1.8,0.1,2.7,0.1
				c-0.7,0-1.4,0-2.2,0C775.3,461,775.1,461,774.9,461z"/>
			<path class="st1" d="M694.3,844.5c0.3,0,0.7,0,1,0c15.1,0,27.3-8,27.3-17.9s-12.2-17.9-27.3-17.9c-0.6,0-1.3,0-1.9,0
				c1.2-2,1.9-4.3,1.9-6.6c0-9.9-12.2-17.9-27.3-17.9c-0.1,0-0.2,0-0.3,0c-1.8-8.7-13.2-15.5-27.1-15.5c-13.2,0-24.3,6.2-26.8,14.3
				c-2.8-0.6-5.8-1-9-1c-9.5,0-17.9,3.2-22.8,8c-11.8,1.1-21.2,7.2-23.1,14.9c-4.1-1.6-8.9-2.5-14-2.5c-14.6,0-26.5,7.5-27.3,16.9
				c-8.2,3.1-13.7,8.9-13.7,15.5c0,9.9,12.2,17.9,27.3,17.9c0.1,0,0.2,0,0.3,0c1.8,8.7,13.2,15.5,27.1,15.5c3.3,0,6.5-0.4,9.4-1.1
				c3,0.7,6.2,1.1,9.5,1.1c0.1,0,0.2,0,0.3,0c1.8,8.7,13.2,15.5,27.1,15.5c2,0,3.9-0.1,5.8-0.4c5,4.2,12.8,6.9,21.5,6.9
				c11.8,0,21.9-4.9,25.7-11.8c4.8-1.4,8.8-3.8,11.6-6.7c4.8,5,13.4,8.3,23.1,8.3c15.1,0,27.3-8,27.3-17.9
				C719.9,852.8,708.6,845,694.3,844.5z M692.3,844.4L692.3,844.4c0.4,0,0.8,0,1.3,0c-0.3,0-0.7,0-1,0
				C692.5,844.4,692.4,844.4,692.3,844.4z"/>
			<path class="st1" d="M544.4,772.2c0.3,0,0.7,0,1,0c15.1,0,27.3-8,27.3-17.9s-12.2-17.9-27.3-17.9c-0.6,0-1.3,0-1.9,0
				c1.2-2,1.9-4.3,1.9-6.6c0-9.9-12.2-17.9-27.3-17.9c-0.1,0-0.2,0-0.3,0c-1.8-8.7-13.2-15.5-27.1-15.5c-13.2,0-24.3,6.2-26.8,14.3
				c-2.8-0.6-5.8-1-9-1c-9.5,0-17.9,3.2-22.8,8c-11.8,1.1-21.2,7.2-23.1,14.9c-4.1-1.6-8.9-2.5-14-2.5c-14.6,0-26.5,7.5-27.3,16.9
				c-8.2,3.1-13.7,8.9-13.7,15.5c0,9.9,12.2,17.9,27.3,17.9c0.1,0,0.2,0,0.3,0c1.8,8.7,13.2,15.5,27.1,15.5c3.3,0,6.5-0.4,9.4-1.1
				c3,0.7,6.2,1.1,9.5,1.1c0.1,0,0.2,0,0.3,0c1.8,8.7,13.2,15.5,27.1,15.5c2,0,3.9-0.1,5.8-0.4c5,4.2,12.8,6.9,21.5,6.9
				c11.8,0,21.9-4.9,25.7-11.8c4.8-1.4,8.8-3.8,11.6-6.7c4.8,5,13.4,8.3,23.1,8.3c15.1,0,27.3-8,27.3-17.9
				C570.1,780.6,558.7,772.8,544.4,772.2z M1032.1,614.8c0.3,0,0.7,0,1,0c15.1,0,27.3-8,27.3-17.9s-12.2-17.9-27.3-17.9
				c-0.6,0-1.3,0-1.9,0c1.2-2,1.9-4.3,1.9-6.6c0-9.9-12.2-17.9-27.3-17.9c-0.1,0-0.2,0-0.3,0c-1.8-8.7-13.2-15.5-27.1-15.5
				c-13.2,0-24.3,6.2-26.8,14.3c-2.8-0.6-5.8-1-9-1c-9.5,0-17.9,3.2-22.8,8c-11.8,1.1-21.2,7.2-23.1,14.9c-4.1-1.6-8.9-2.5-14-2.5
				c-14.6,0-26.5,7.5-27.3,16.9c-8.2,3.1-13.7,8.9-13.7,15.5c0,9.9,12.2,17.9,27.3,17.9c0.1,0,0.2,0,0.3,0
				c1.8,8.7,13.2,15.5,27.1,15.5c3.3,0,6.5-0.4,9.4-1.1c3,0.7,6.2,1.1,9.5,1.1c0.1,0,0.2,0,0.3,0c1.8,8.7,13.2,15.5,27.1,15.5
				c2,0,3.9-0.1,5.8-0.4c5,4.2,12.8,6.9,21.5,6.9c11.8,0,21.9-4.9,25.7-11.8c4.8-1.4,8.8-3.8,11.6-6.7c4.8,5,13.4,8.3,23.1,8.3
				c15.1,0,27.3-8,27.3-17.9C1057.8,623.1,1046.4,615.3,1032.1,614.8z M542.5,772.2L542.5,772.2c0.4,0,0.8,0,1.3,0c-0.3,0-0.7,0-1,0
				C542.7,772.2,542.6,772.2,542.5,772.2z"/>
			<path class="st1" d="M1050,537.1c0.8,0,1.7,0,2.5,0c37,0,67-12.4,67-27.8c0-15.4-30-27.8-67-27.8c-1.6,0-3.2,0-4.7,0.1
				c3-3.2,4.7-6.6,4.7-10.3c0-15.4-30-27.8-67-27.8c-0.2,0-0.4,0-0.6,0c-4.4-13.6-32.4-24-66.3-24c-32.4,0-59.5,9.6-65.7,22.3
				c-6.9-1-14.3-1.5-22-1.5c-23.4,0-43.9,5-55.9,12.5C746,454.5,723,464,718.5,476c-10-2.5-21.8-3.9-34.3-3.9
				c-35.8,0-65,11.7-66.9,26.3c-20.1,4.8-33.6,13.8-33.6,24.1c0,15.4,30,27.8,67,27.8c0.2,0,0.4,0,0.6,0c4.4,13.6,32.4,24,66.3,24
				c8.1,0,15.9-0.6,23.1-1.7c7.2,1.1,15.1,1.7,23.3,1.7c0.2,0,0.4,0,0.6,0c4.4,13.6,32.4,24,66.3,24c4.9,0,9.7-0.2,14.3-0.6
				c12.3,6.5,31.3,10.7,52.7,10.7c29,0,53.6-7.6,63-18.3c11.7-2.2,21.6-5.9,28.5-10.3c11.9,7.8,32.7,12.9,56.5,12.9
				c37,0,67-12.4,67-27.8C1112.9,550.1,1085.1,538,1050,537.1z M1045.3,537.1C1045.3,537,1045.3,537,1045.3,537.1c1,0,2.1,0,3.1,0
				c-0.8,0-1.7,0-2.5,0C1045.8,537.1,1045.5,537.1,1045.3,537.1z"/>
			<path class="st2" d="M1129.9,28.1"/>
		</g>
	</g>
</g>
<g id="Layer_3" class="st3">
	<g class="st4">
		<g>
			<path class="st5" d="M713.8,801.2c-5.7,0-31.1-1-47.8-17.2c-10-9.6-14.8-22.5-14.8-38.2V643c0-0.5,0-15.3-9.1-24.8
				c-5.7-5.7-13.9-8.6-24.4-8.6h-14.8c-4.3,0-8.1-3.3-8.1-8.1s3.3-8.1,8.1-8.1h14.8c10.5,0,18.6-2.9,24.4-8.6
				c9.6-9.6,9.1-24.4,9.1-24.4V457.1c0-44.9,39.2-60.7,60.2-62.6c0.5,0,0.5,0,1,0h53c4.3,0,8.1,3.3,8.1,8.1c0,4.3-3.3,8.1-8.1,8.1
				h-52.6c-4.3,0.5-45.4,6.7-45.4,46.8v102.7c0,0.5,0.5,21.5-13.9,35.8c-1.9,1.9-4.3,3.8-6.7,5.7c2.4,1.4,4.8,3.3,6.7,5.7
				c13.9,14.3,13.9,34.9,13.9,35.8v102.7c0,11.5,3.3,20.1,10,26.8c13.9,13.4,37.8,12.9,37.8,12.9h49.2c4.3,0,8.1,3.3,8.1,8.1
				s-3.3,8.1-8.1,8.1h-48.7C714.8,801.2,714.3,801.2,713.8,801.2z"/>
		</g>
		<g>
			<path class="st5" d="M1046.9,801.2c-0.5,0-1,0-1,0h-48.3c-4.3,0-8.1-3.3-8.1-8.1c0-4.3,3.3-8.1,8.1-8.1h48.7
				c0.5,0,21.5,0.5,33.9-11.9c6.7-6.7,10-15.8,10-27.7V642.5c0-0.5-0.5-21.5,13.9-35.8c1.9-1.9,4.3-3.8,6.7-5.7
				c-2.4-1.4-4.8-3.3-6.7-5.7c-13.9-14.3-13.9-34.9-13.9-35.8V456.6c0-40.1-36.8-46.4-41.1-46.8h-52.6c-4.3,0-8.1-3.3-8.1-8.1
				s3.3-8.1,8.1-8.1h53c0.5,0,0.5,0,1,0c19.1,1.9,55.4,17.7,55.4,62.6v102.7c0,0.5,0,15.3,9.1,24.8c5.7,5.7,13.9,8.6,24.4,8.6h14.8
				c4.3,0,8.1,3.3,8.1,8.1s-3.3,8.1-8.1,8.1h-14.6c-10.5,0-18.6,2.9-24.4,8.6c-9.6,9.6-9.1,24.4-9.1,24.4v103.2
				c0,16.2-5.3,29.6-15.3,39.2C1075.1,800.2,1052.2,801.2,1046.9,801.2z"/>
		</g>
		
			<linearGradient id="SVGID_1_" gradientUnits="userSpaceOnUse" x1="895.3582" y1="1118.9727" x2="887.0377" y2="1568.27" gradientTransform="matrix(0.9999 -1.059175e-02 -1.059175e-02 -0.9999 -2.4814 1982.4894)">
			<stop  offset="0" style="stop-color:#656F70"/>
			<stop  offset="0.5376" style="stop-color:#8A9899"/>
			<stop  offset="0.9624" style="stop-color:#D8EDEF"/>
		</linearGradient>
		<path class="st6" d="M987.6,792.1c-1.4,0-2.4-0.5-3.3-1.9l-9.1-15.8l-1.4-0.5c-33.9-10.5-67.9-15.8-101.8-15.3
			c-32,0.5-64.5,5.7-96.5,15.8l-1.4,0.5l-9.1,15.8c-0.5,1-1.9,1.9-3.3,1.9c-0.5,0-1.4,0-1.9-0.5c-1.9-1-2.4-3.3-1.4-5.3l9.1-15.8
			l-0.5-1.4c-14.8-67.4-44.9-121.4-95.6-168.2l-1-1h-37.3c-1,0-2.4-1.9-2.9-2.9c-0.5-0.5-1-1.4-1-2.9c0-1.9,1.9-1.9,4.3-1.9h37.3
			l1-1c50.7-46.8,80.8-108.5,95.6-175.9l0.5-1.4l-9.1-15.8c-1-1.9-0.5-4.3,1.4-5.3c0.5-0.5,1-0.5,1.9-0.5c1.4,0,2.4,0.5,3.3,1.9
			l9.1,15.8l1.4,0.5c33.9,10.5,67.9,15.8,101.8,15.3c32-0.5,64.5-5.7,96.5-15.8l1.4-0.5l9.1-15.8c0.5-1,1.9-1.9,3.3-1.9
			c0.5,0,1.4,0,1.9,0.5c1,0.5,1.4,1.4,1.9,2.4s0,1.9-0.5,2.9l-9.1,15.8l0.5,1.4c14.8,67.4,52.1,129,102.7,175.9l1,1h27.2
			c1,0,1.9,0.5,2.9,1c0.5,0.5,1,1.4,1,2.9c0,1.9-1.4,3.8-3.8,3.8h-26.8l-1,1c-50.7,46.8-87.9,100.8-102.7,168.2l-0.5,1.4l9.1,15.8
			c1,1.9,0.5,4.3-1.4,5.3C989.1,792.1,988.1,792.1,987.6,792.1z M871.5,751.5c30.1-0.5,60.7,3.8,90.8,12.4l7.6,2.4l-33.5-57.8
			L935,708c-21-3.8-42.5-5.7-64-5.3c-19.1,0-38.2,1.9-56.9,5.3l-1.4,0.5l-33.5,57.8l7.6-2.4C815.6,755.8,843.8,751.5,871.5,751.5z
			 M1007.7,601.9c-26.3,31.1-50.2,62.6-64,100.8l-0.5,1.4l33.5,57.8l1.9-7.6c14.8-58.3,47.8-105.6,90.8-147.7l5.7-5.7h-66.9
			L1007.7,601.9z M687.1,606.7c43,42.1,68.8,89.4,84.1,147.7l1.9,7.6l33.5-57.8l-0.5-1.4c-13.9-38.2-30.6-69.8-56.9-100.8l-1-1
			h-66.9L687.1,606.7z M871,694.6c17.7,0,35.8,1,54,3.8l6.7,1l-30.6-52.6h-1.9c-9.1-0.5-18.2-0.5-27.7-0.5c-7.2,0-14.3,0.5-22,0.5
			h-1.9l-30.1,52.6l6.7-1C840,696,855.8,694.6,871,694.6z M937.5,602.4c-8.6,13.4-20.5,23.9-28.7,39.2l-1,1.4l30.6,52.6l2.4-6.2
			c12.4-31.5,33-56.9,54-83.1l4.3-5.3h-60.7L937.5,602.4z M762.1,606.2c21,26.3,34.4,51.6,46.8,83.1l2.4,6.2l30.1-52.6l-1-1.4
			c-8.1-15.8-12.4-26.3-21-39.2l-1-1.4h-60.7L762.1,606.2z M866.7,638.7c8.1,0,16.7,0,24.4,0h5.7l-18.6-34.4l-25.8,34.4h5.7
			C861,639.2,863.9,638.7,866.7,638.7z M903.5,635.4l2.9-5.3c5.3-9.1,13.9-14.8,20.1-24.4l2.9-5.3H885L903.5,635.4z M830.4,605.7
			c5.3,9.1,7.2,14.8,12.9,24.4l2.9,5.3L872,601h-44.4L830.4,605.7z M943.2,482l0.5,1.4c13.9,38.2,37.8,77.4,64,108.5l1,1h66.9
			l-5.7-5.7c-43-42.1-76.5-97-91.3-155.3l-1.9-7.6L943.2,482z M907.8,543.1l1,1.4c8.1,15.8,19.6,33.9,28.2,46.8l1,1.4h60.6l-4.3-5.3
			c-21-26.3-41.6-59.7-54-90.8l-2.4-6.2L907.8,543.1z M884.9,593.3h44.4l-2.9-5.3c-5.3-9.1-14.3-22-20.1-32l-2.9-5.3L884.9,593.3z
			 M843.3,556c-4.8,8.6-6.7,22.5-12.9,32.5l-2.9,5.3h44.4l-25.8-42.5L843.3,556z M808.4,496.8c-12.4,31.5-25.8,65-46.8,91.3
			l-4.3,5.3h61.2l1-1.4c8.6-13.4,13.4-32,21.5-47.3l1-1.4l-30.6-52.6L808.4,496.8z M770.7,432.3c-14.8,58.3-40.6,113.3-83.6,155.3
			l-5.7,5.7h66.9l1-1c26.3-31.1,43-70.2,56.9-108.5l0.5-1.4l-33.5-57.8L770.7,432.3z M878.2,589.5l18.6-42.5h-5.7
			c-2.9,0-5.7,0-8.1,0c-8.6,0-16.7,0-24.4,0H853L878.2,589.5z M848.1,539.8h1.9c9.1,0.5,18.2,0.5,27.7,0.5c7.2,0,14.3-0.5,22-0.5
			h1.9l30.1-52.6l-6.7,1c-15.8,2.4-31.5,3.3-46.8,3.8c-17.7,0-35.8-1-53.5-3.8l-6.7-1L848.1,539.8z M812.7,478.6l1.4,0.5
			c21,3.8,42.5,5.7,64,5.3c19.1,0,38.2-1.9,56.9-5.3l1.4-0.5l33.5-57.8l-7.6,2.4c-28.2,7.6-56.4,11.9-84.1,12.4
			c-30.1,0.5-60.7-3.8-90.8-12.4l-7.6-2.4L812.7,478.6z"/>
		<g>
			
				<radialGradient id="SVGID_2_" cx="-7099.875" cy="1970.3633" r="9.4096" gradientTransform="matrix(0.2821 0 0 -0.7594 2869.2104 2001.9238)" gradientUnits="userSpaceOnUse">
				<stop  offset="0" style="stop-color:#380E0E"/>
				<stop  offset="1" style="stop-color:#000000"/>
			</radialGradient>
			<path class="st7" d="M866.3,503.9c1.4,0,2.4,6.2,2.4,10.5c0,4.3-1,5.3-2.4,5.3s-2.4-1-2.4-5.3S864.8,503.9,866.3,503.9z"/>
			
				<radialGradient id="SVGID_3_" cx="-7038.646" cy="1970.3633" r="9.4096" gradientTransform="matrix(0.2821 0 0 -0.7594 2869.2104 2001.9238)" gradientUnits="userSpaceOnUse">
				<stop  offset="0" style="stop-color:#380E0E"/>
				<stop  offset="1" style="stop-color:#000000"/>
			</radialGradient>
			<path class="st8" d="M883.5,503.9c1.4,0,2.4,6.2,2.4,10.5c0,4.3-1,5.3-2.4,5.3s-2.4-1-2.4-5.3S882,503.9,883.5,503.9z"/>
			
				<radialGradient id="SVGID_4_" cx="866.3168" cy="1424.6725" r="9.4104" gradientTransform="matrix(1 0 0 -1 0 1940.1498)" gradientUnits="userSpaceOnUse">
				<stop  offset="0" style="stop-color:#380E0E"/>
				<stop  offset="1" style="stop-color:#000000"/>
			</radialGradient>
			<ellipse class="st9" cx="866.3" cy="524" rx="8.6" ry="10"/>
			
				<radialGradient id="SVGID_5_" cx="883.5949" cy="1422.2832" r="9.4096" gradientTransform="matrix(1 0 0 -1 0 1940.1498)" gradientUnits="userSpaceOnUse">
				<stop  offset="0" style="stop-color:#380E0E"/>
				<stop  offset="1" style="stop-color:#000000"/>
			</radialGradient>
			<ellipse class="st10" cx="883.5" cy="524" rx="8.6" ry="10"/>
			<path d="M843.8,721.9c-1,1.4-9.6,13.9-1.9,8.1c8.1-5.7,14.8-18.6,14.8-18.6c-3.8-1-9.6-4.3-9.6-4.3
				C849.1,714.2,844.8,720.9,843.8,721.9z"/>
			<path d="M897.8,708.5c0,0-5.7,3.3-9.6,4.3c0,0,7.2,12.9,14.8,18.6c8.1,5.7-1-7.2-1.9-8.1C900.7,721.4,896.4,714.7,897.8,708.5z"
				/>
			<path class="st11" d="M893,593.3c-4.8-1.9-11.9-4.8-20.5-4.8c-6.2,0-11.9,1-15.8,2.9c-5.7,1.9-34.4,45.9-32,78.8
				c1.9,33,35.8,48.7,50.7,48.7c14.8,0,51.6-14.8,51.6-51.6C926.5,638.7,896.4,595.2,893,593.3z"/>
			<path class="st12" d="M905.9,512.1c0,0.5-0.5,1-0.5,1.9c-4.8,2.9-17.7,12.9-14.8,20.5c0,0,10,4.8,17.2,15.8
				c0,0,16.7-12.4,18.6-18.6c0.5-3.3,0.5-6.2-0.5-9.1l1-3.3c1-2.4,3.3-5.7,4.3-7.2c0.5-0.5,1-1,1.9-1.9c5.3-4.3,16.2-10,17.7-16.7
				c1-5.7,4.3-22,2.9-29.1c-0.5-2.4-1-3.3-1.9-3.3c-1-1-3.3-1-4.8,3.8c-1,2.9-1.9,6.2-2.9,11c-1,6.7-16.2,15.3-26.3,20.5
				C907.4,501.6,905.9,510.6,905.9,512.1z"/>
			<path class="st12" d="M816.1,509.7c1,1,1.9,1.4,1.9,1.9c1,1,3.3,4.8,4.3,7.2l1,3.3c-0.5,2.4-1.4,5.7-0.5,9.1
				c1.9,6.2,18.6,19.1,18.6,19.1c7.2-10.5,17.2-15.8,17.2-15.8c3.3-7.6-10.5-18.2-14.8-20.5c0-0.5-0.5-1-0.5-1.9
				c0-1.4-1.4-10-11.9-15.3c-9.6-4.8-22.5-13.9-23.9-20.5c-1-4.3-2.4-7.6-3.8-10c-2.9-4.3-5.3-4.3-7.2-3.3c-0.5,0.5-1.9,1-2.4,3.3
				c-1.9,6.2,1.9,21.5,3.3,26.3C799.4,496.8,810.8,505.4,816.1,509.7z"/>
			<path class="st12" d="M986.2,603.3c0-4.3,1-13.4-9.1-20.5c-8.6-6.2-19.1-12.4-33-12.4c-12.4,0-29.6-0.5-29.6-0.5
				c-1.4,0-1.9,1-2.4,1.9c0,0-2.9,11.9-8.1,18.2c-0.5,0.5-0.5,1.4-0.5,2.4c0.5,0.5,1.4,1,1.9,1.4c0.5,0,29.1,2.9,38.7,0.5
				c7.2-1.9,28.2,11.9,29.6,17.2c1,3.3,3.3,6.2,6.2,7.2c0.5,0.5,1.4,0.5,2.4,0.5s2.4-0.5,3.3-1c2.9-1.9,1.9-5.7,1-9.6
				C986.2,606.2,986.2,604.8,986.2,603.3z"/>
			<path class="st12" d="M981,548.4c-1.9-3.8-4.8-12.4-17.2-14.3c-10.5-1.9-22.5-2.9-34.9,3.3c-11.5,5.7-26.8,12.9-26.8,12.9
				c-1.4,0.5-1.4,1.9-1.4,2.4c0,0,2.4,11.9,1,19.6c-0.5,1,0,1.4,1,2.4c0.5,0.5,1.9,0.5,2.4,0.5c0.5-0.5,27.2-10.5,34.9-16.7
				c5.7-4.8,30.6-1.4,33.9,2.4c2.4,2.9,11,4.8,11.5,4.3C986.7,564.6,981.9,549.8,981,548.4z"/>
			<path class="st12" d="M769.3,552.7c-2.4,2.9-4.8,6.2-2.9,9.1c0.5,1,1.4,1.9,2.4,2.4s1.9,0.5,2.4,0.5c2.9,0.5,6.2-1,8.6-3.8
				c3.3-3.8,28.7-6.7,33.9-2.4c7.6,6.2,34.4,16.7,34.9,16.7s1.9,0,2.4-0.5s1-1.4,1-2.4c-1.4-8.1,1-19.6,1-19.6c0-1,0-1.9-1.4-2.4
				c0,0-15.8-7.2-26.8-12.9c-12.4-6.2-24.4-5.3-34.9-3.3c-12.4,1.9-15.3,10.5-17.2,14.3C772.1,549.8,771.2,550.8,769.3,552.7z"/>
			<path class="st12" d="M777.4,611.9c1.4-9.1,22.9-18.6,29.6-17.2c9.6,2.4,38.2-0.5,38.7-0.5c1,0,1.9-0.5,1.9-1.4
				c0.5-0.5,0.5-1.4-0.5-2.4c-5.3-5.7-8.1-17.7-8.1-17.7c-0.5-1-1.4-1.9-2.4-1.9c-0.5,0-17.2,0.5-29.6,0.5c-13.9,0-23.9,6.2-33,12.4
				c-10,7.2-8.6,7.2-8.6,14.3c0,1.9-0.5,5.3-0.5,8.1c-1,6.2-1.9,13.9,1,17.2c1,1,1.9,1.9,3.3,1.9c0.5,0,1.4-0.5,2.4-1
				C773.6,623.9,776,619.1,777.4,611.9z"/>
			<path class="st12" d="M926.5,595.2c-0.5-0.5-0.5-0.5-1.4-0.5c-0.5,0-13.9-0.5-20.5-1c-0.5,0-1.4,0-1.9,0.5l-1.9,1
				c-0.5,0.5-1,1-1.4,1.9c0,1,0.5,1.4,1,1.9c0,0,19.6,11.9,23.9,20.1c0,0,0,0.5,0.5,0.5c4.3,4.8,14.8,18.2,16.7,22.5
				c1.9,5.3,8.1,47.8,8.1,49.7c0,0.5-0.5,3.8-1,7.2c-1.4,7.2-0.5,16.2-1,24.8c-0.5,9.6,2.9,14.8,6.2,15.8c0.5,0.5,1,0.5,1.9,0.5
				c1.4,0,3.3-1,3.8-2.4c1-1.9,1.9-7.2,3.3-14.8c1-4.3,1.4-9.1,2.4-11c1.9-5.7,8.6-16.2,8.6-25.3c0-8.1-5.7-48.7-11.9-59.3
				C956.1,616.2,927.4,595.7,926.5,595.2z"/>
			<path class="st12" d="M820.4,620.1L820.4,620.1c4.3-8.1,25.8-22.5,25.8-22.5c0.5-0.5,1-1,1-1.9s-0.5-1.4-1.4-1.9l-1.9-1
				c-0.5-0.5-1-0.5-1.9-0.5c-6.2,0.5-20.1,2.9-20.5,2.9c-0.5,0-1,0.5-1.4,0.5c-0.5,0.5-31.5,21.5-36.8,32
				c-5.7,10.5-11.9,51.1-11.9,59.3c0,9.1,8.6,22.5,9.6,27.2c0.5,1.9,1.4,6.2,1.9,10c1,6.7,1.9,11,2.9,13.4c0.5,1.4,1.9,1.9,3.3,1.9
				c0.5,0,1,0,1.9-0.5c2.9-1,5.7-5.7,5.3-14.3c-0.5-8.1-1.9-19.1-2.9-26.8c-0.5-3.3,0.5-26.3,0.5-26.8c0-1.9,7.6-22.9,9.6-28.2
				C805.6,637.8,816.6,624.4,820.4,620.1z"/>
			<path class="st11" d="M874.4,524c-20.5,0-37.8,19.6-37.8,43.5c0,12.9,3.3,22.9,11.5,31.1c1.4-0.5,3.8,0.5,4.8-0.5
				c6.7-2.4,12.4-3.3,19.6-3.3c10.5,0,19.6,3.3,25.3,5.7c0.5,0.5,0.5,0.5,1.4,0.5c8.1-8.1,13.9-20.1,13.9-33.9
				C912.1,544.1,895.4,524,874.4,524z"/>
		</g>
		<g>
			<path class="st13" d="M709.1,796.4c-5.7,0-31.1-1-47.8-17.2c-10-9.6-14.8-22.5-14.8-38.2V638.2c0-0.5,0-15.3-9.1-24.8
				c-5.7-5.7-13.9-8.6-24.4-8.6h-14.8c-4.3,0-8.1-3.3-8.1-8.1s3.3-8.1,8.1-8.1H613c10.5,0,18.6-2.9,24.4-8.6
				c9.6-9.6,9.1-24.4,9.1-24.4V452.3c0-44.9,39.2-60.7,60.2-62.6c0.5,0,0.5,0,1,0h53c4.3,0,8.1,3.3,8.1,8.1c0,4.3-3.3,8.1-8.1,8.1
				h-52.6c-4.3,0.5-45.4,6.7-45.4,46.8v102.7c0,0.5,0.5,21.5-13.9,35.8c-1.9,1.9-4.3,3.8-6.7,5.7c2.4,1.4,4.8,3.3,6.7,5.7
				c13.9,14.3,13.9,34.9,13.9,35.8v102.7c0,11.5,3.3,20.1,10,26.8c13.9,13.4,37.8,12.9,37.8,12.9h49.2c4.3,0,8.1,3.3,8.1,8.1
				s-3.3,8.1-8.1,8.1H711C710,796.4,709.5,796.4,709.1,796.4z"/>
		</g>
		<g>
			<path class="st13" d="M1042.1,796.4c-0.5,0-1,0-1,0h-48.3c-4.3,0-8.1-3.3-8.1-8.1c0-4.3,3.3-8.1,8.1-8.1h48.8
				c0.5,0,21.5,0.5,33.9-11.9c6.7-6.7,10-15.8,10-27.7V637.8c0-0.5-0.5-21.5,13.9-35.8c1.9-1.9,4.3-3.8,6.7-5.7
				c-2.4-1.4-4.8-3.3-6.7-5.7c-13.8-14.5-13.8-35-13.8-36V451.9c0-40.1-36.8-46.4-41.1-46.8H992c-4.3,0-8.1-3.3-8.1-8.1
				s3.3-8.1,8.1-8.1h53c0.5,0,0.5,0,1,0c19.1,1.9,55.4,17.7,55.4,62.6v102.7c0,0.5,0,15.3,9.1,24.8c5.7,5.7,13.9,8.6,24.4,8.6h14.8
				c4.3,0,8.1,3.3,8.1,8.1s-3.3,8.1-8.1,8.1h-14.8c-10.5,0-18.6,2.9-24.4,8.6c-9.6,9.6-9.1,24.4-9.1,24.4V740
				c0,16.2-5.3,29.6-15.3,39.2C1070.3,795.4,1047.4,796.4,1042.1,796.4z"/>
		</g>
		<g>
			<g>
				
					<radialGradient id="SVGID_6_" cx="878.3976" cy="1290.822" r="52.2045" gradientTransform="matrix(1 0 0 -1 0 1940.1498)" gradientUnits="userSpaceOnUse">
					<stop  offset="0" style="stop-color:#FFDD00"/>
					<stop  offset="0.117" style="stop-color:#EFCD01"/>
					<stop  offset="0.5238" style="stop-color:#BB9A04"/>
					<stop  offset="0.8307" style="stop-color:#9B7A06"/>
					<stop  offset="1" style="stop-color:#8F6E07"/>
				</radialGradient>
				<path class="st14" d="M860.5,636.8c0-7.2,0.5-11,1-18.2c11-4.3,16.7-4.3,27.7,0c0.5,7.2,0.5,11,1,18.2
					C878.2,634.9,872.5,634.9,860.5,636.8z"/>
				
					<radialGradient id="SVGID_7_" cx="878.4464" cy="1293.1444" r="42.0347" gradientTransform="matrix(1 0 0 -1 0 1940.1498)" gradientUnits="userSpaceOnUse">
					<stop  offset="0" style="stop-color:#FFDD00"/>
					<stop  offset="0.117" style="stop-color:#EFCD01"/>
					<stop  offset="0.5238" style="stop-color:#BB9A04"/>
					<stop  offset="0.8307" style="stop-color:#9B7A06"/>
					<stop  offset="1" style="stop-color:#8F6E07"/>
				</radialGradient>
				<path class="st15" d="M861.5,687c0-2.4,0-3.8-0.5-6.2c7.2,1.9,11-3.3,11.9-12.4c-4.8,0-7.2-0.5-12.4-1c0-7.2,0-11,0-18.2
					c11.9-0.5,18.2-0.5,30.1,0c0,4.3,0,6.7,0,11C890.2,677.4,880.1,693.7,861.5,687z"/>
			</g>
		</g>
		
			<radialGradient id="SVGID_8_" cx="2948.2808" cy="3605.658" r="2.5159" gradientTransform="matrix(0.7103 -0.7039 -0.6173 -0.6228 995.2684 4848.5483)" gradientUnits="userSpaceOnUse">
			<stop  offset="0" style="stop-color:#838C92"/>
			<stop  offset="1.895368e-03" style="stop-color:#828B91"/>
			<stop  offset="0.1012" style="stop-color:#60666B"/>
			<stop  offset="0.2062" style="stop-color:#42474A"/>
			<stop  offset="0.3198" style="stop-color:#2A2D2F"/>
			<stop  offset="0.4429" style="stop-color:#17191A"/>
			<stop  offset="0.5805" style="stop-color:#0A0B0B"/>
			<stop  offset="0.744" style="stop-color:#020303"/>
			<stop  offset="1" style="stop-color:#000000"/>
		</radialGradient>
		<path class="st16" d="M866.7,526.4c1,1,1,2.4,0,3.3c-1,1-2.4,1-3.3,0c-1-1-1-2.4,0-3.3C864.4,525.5,865.8,525.5,866.7,526.4z"/>
		
			<radialGradient id="SVGID_9_" cx="2940.4702" cy="3605.7029" r="3.5056" gradientTransform="matrix(0.7103 -0.7039 -0.6173 -0.6228 995.2684 4848.5483)" gradientUnits="userSpaceOnUse">
			<stop  offset="0" style="stop-color:#838C92"/>
			<stop  offset="1.895368e-03" style="stop-color:#828B91"/>
			<stop  offset="0.1012" style="stop-color:#60666B"/>
			<stop  offset="0.2062" style="stop-color:#42474A"/>
			<stop  offset="0.3198" style="stop-color:#2A2D2F"/>
			<stop  offset="0.4429" style="stop-color:#17191A"/>
			<stop  offset="0.5805" style="stop-color:#0A0B0B"/>
			<stop  offset="0.744" style="stop-color:#020303"/>
			<stop  offset="1" style="stop-color:#000000"/>
		</radialGradient>
		<path class="st17" d="M862,531.2c1.4,1.4,1,3.3-0.5,4.8s-3.3,1.4-4.8,0.5s-1-3.3,0.5-4.8C858.6,530.2,861,530.2,862,531.2z"/>
		
			<radialGradient id="SVGID_10_" cx="7206.8931" cy="1431.311" r="2.5159" gradientTransform="matrix(-0.6 -0.8 -0.7015 0.5261 6210.4971 5539.9043)" gradientUnits="userSpaceOnUse">
			<stop  offset="0" style="stop-color:#838C92"/>
			<stop  offset="1.895368e-03" style="stop-color:#828B91"/>
			<stop  offset="0.1012" style="stop-color:#60666B"/>
			<stop  offset="0.2062" style="stop-color:#42474A"/>
			<stop  offset="0.3198" style="stop-color:#2A2D2F"/>
			<stop  offset="0.4429" style="stop-color:#17191A"/>
			<stop  offset="0.5805" style="stop-color:#0A0B0B"/>
			<stop  offset="0.744" style="stop-color:#020303"/>
			<stop  offset="1" style="stop-color:#000000"/>
		</radialGradient>
		<path class="st18" d="M882.5,526.4c1-1,2.4-0.5,3.3,0.5c1,1,1,2.4-0.5,3.3c-1.4,1-2.4,0.5-3.3-0.5
			C881.1,528.8,881.6,526.9,882.5,526.4z"/>
		
			<radialGradient id="SVGID_11_" cx="7199.854" cy="1430.9355" r="3.5056" gradientTransform="matrix(-0.6 -0.8 -0.7015 0.5261 6210.4971 5539.9043)" gradientUnits="userSpaceOnUse">
			<stop  offset="0" style="stop-color:#838C92"/>
			<stop  offset="1.895368e-03" style="stop-color:#828B91"/>
			<stop  offset="0.1012" style="stop-color:#60666B"/>
			<stop  offset="0.2062" style="stop-color:#42474A"/>
			<stop  offset="0.3198" style="stop-color:#2A2D2F"/>
			<stop  offset="0.4429" style="stop-color:#17191A"/>
			<stop  offset="0.5805" style="stop-color:#0A0B0B"/>
			<stop  offset="0.744" style="stop-color:#020303"/>
			<stop  offset="1" style="stop-color:#000000"/>
		</radialGradient>
		<path class="st19" d="M886.8,531.2c1.4-1,3.3-0.5,4.8,1c1,1.4,1,3.8-0.5,4.8c-1.4,1-3.3,0.5-4.8-1
			C885.4,534.5,885.4,532.1,886.8,531.2z"/>
		<path class="st20" d="M887.7,526.9c7.8,7.9,12.7,18.8,12.7,30.8c0,16-8.6,29.9-21.4,37.5c7.7,1,14.4,3.4,18.9,5.3
			c0.5,0.5,0.5,0.5,1.4,0.5c8.1-8.1,13.9-20.1,13.9-33.9C912.4,549.2,902.1,533.2,887.7,526.9z"/>
		<path class="st20" d="M893,593.3c-4.8-1.9-11.9-4.8-20.5-4.8c-6.2,0-11.9,1-15.8,2.9c-1.2,0.4-3.5,2.8-6.3,6.6
			c4.7-2,9.7-3.1,14.9-3.1c26.4,0,47.8,27.5,47.8,61.4c0,33.5-20.9,60.7-46.8,61.3c3.4,0.9,6.5,1.4,9.1,1.4
			c14.8,0,51.6-14.8,51.6-51.6C926.5,638.7,896.4,595.2,893,593.3z"/>
		<path class="st21" d="M845.9,629.4c-2.9,8.6-4.3,16.5-7.3,15.5c-2.9-1-2.2-10.2,0.8-18.7s7-13.3,9.9-12.3S848.8,620.8,845.9,629.4
			z"/>
		<path class="st21" d="M848.7,545.9c-1.2,2.5-0.8,4.6-2.6,3.8c-1.8-0.8-1.4-3.3-0.2-5.8c1.2-2.5,2.7-4.2,4.5-3.4
			C852.2,541.3,849.9,543.4,848.7,545.9z"/>
	</g>
</g>
</svg>
