<?xml version="1.0" encoding="utf-8"?>
<!-- Generator: Adobe Illustrator 19.0.0, SVG Export Plug-In . SVG Version: 6.00 Build 0)  -->
<svg version="1.1" id="Layer_1" xmlns="http://www.w3.org/2000/svg" xmlns:xlink="http://www.w3.org/1999/xlink" x="0px" y="0px"
	 viewBox="-255.8 335.6 100 100" style="enable-background:new -255.8 335.6 100 100;" xml:space="preserve">
<path d="M-216.3,429.1c-0.3,0.5-3.3,4.7-0.6,2.8c2.7-1.9,5-6.3,5-6.3c-1.3-0.3-3.2-1.4-3.2-1.4C-214.5,426.4-216,428.7-216.3,429.1z
	"/>
<path d="M-197.8,424.4c0,0-1.9,1.1-3.2,1.4c0,0,2.4,4.4,5,6.3c2.7,1.9-0.3-2.4-0.6-2.8C-196.9,428.9-198.3,426.6-197.8,424.4z"/>
<path d="M-199.5,385.2c-1.6-0.7-4.1-1.6-7.1-1.6c-2.1,0-4,0.4-5.4,0.9c-1.9,0.7-3.4,5.5-4.6,7.2c-3.8,5.1-7.1,8.5-6.4,19.8
	c0.6,11.3,12.3,16.7,17.3,16.7s17.7-5,17.7-17.7c0-9.9-5.7-17-8.3-19.7C-197.3,390-198.4,385.7-199.5,385.2z"/>
<path d="M-194.5,356.8c0,0.2-0.1,0.4-0.1,0.6c-1.6,0.9-6.1,4.4-5,7c0,0,3.4,1.7,5.9,5.4c0,0,5.7-4.2,6.3-6.4
	c0.2-1.1,0.1-2.2-0.2-3.1l0.4-1.1c0.4-0.8,1.1-2,1.4-2.4c0.1-0.1,0.4-0.3,0.7-0.6c1.8-1.4,5.5-3.5,6-5.7c0.4-1.9,1.4-7.5,0.9-10
	c-0.2-0.8-0.4-1.1-0.6-1.2c-0.4-0.3-1.1-0.3-1.7,1.3c-0.3,0.9-0.7,2.1-0.9,3.8c-0.4,2.3-5.6,5.3-8.9,7
	C-194,353.3-194.5,356.3-194.5,356.8z"/>
<path d="M-226.2,356.1c0.4,0.3,0.6,0.5,0.7,0.6c0.4,0.3,1.1,1.6,1.4,2.4l0.4,1.1c-0.2,0.8-0.5,2-0.2,3.1c0.6,2.2,6.3,6.5,6.3,6.5
	c2.4-3.6,5.9-5.4,5.9-5.4c1.1-2.6-3.6-6.2-5-7.1c0-0.2-0.1-0.4-0.1-0.6c0-0.5-0.5-3.5-4.1-5.3c-3.3-1.7-7.6-4.8-8.2-7
	c-0.4-1.5-0.8-2.6-1.3-3.4c-0.9-1.5-1.8-1.5-2.5-1.2c-0.2,0.1-0.6,0.4-0.8,1.1c-0.7,2.2,0.6,7.3,1.2,9
	C-231.8,351.8-228,354.7-226.2,356.1z"/>
<path d="M-159.6,362.2c-0.1-0.5-0.9-0.9-2.2-1.1c-4.3-0.8-15.2-0.8-20,3c-4.9,4-11.2,5.3-11.3,5.3c-0.2,0.1-0.5,0.2-0.6,0.4
	c-0.1,0.2-0.1,0.5,0,0.7c0,0,1.8,3.1,1.2,6.3c0,0.3,0.1,0.5,0.2,0.7c0.1,0.1,0.4,0.2,0.6,0.2c0.1,0,0.1,0,0.2,0
	c0.2,0,8.9-1.8,12.5-5.3c3.5-3.4,5.9-6.3,11.3-6.7c4.2-0.2,6.5-0.8,7.6-1.7C-159.6,363.6-159.4,362.9-159.6,362.2z"/>
<path d="M-232.5,372.3c3.6,3.5,9.2,4.5,9.4,4.6c0.1,0,3.8,0.6,3.9,0.6c0.2,0,0.5-0.1,0.6-0.2c0.2-0.2,0.4-0.4,0.2-0.7
	c-0.6-3.2,1.2-6.2,1.2-6.3c0.1-0.2,0.1-0.5,0-0.7c-0.1-0.2-0.4-0.4-0.6-0.4c0,0-6.8-1.2-11.9-5.2c-4.7-3.8-15.8-3.2-20-2.6
	c-1.3,0.2-2,0.5-2.1,0.9c-0.3,0.6-0.1,1.1,0.5,1.5c1,0.8,3.3,1.1,7.3,1.4C-238.8,365.5-236,368.9-232.5,372.3z"/>
<path d="M-167.4,388.9c0-1.4,0.4-4.5-3.1-7c-3-2.2-6.5-4.3-11.2-4.3c-4.3,0-10.2-0.1-10.2-0.1c-0.5,0-0.7,0.3-0.8,0.6
	c0,0-1,4-2.7,6.2c-0.2,0.2-0.2,0.5-0.1,0.8c0.1,0.2,0.5,0.4,0.7,0.5c0.2,0,10,0.9,13.3,0.1c2.4-0.6,9.6,4.1,10.1,5.8
	c0.4,1.2,1.1,2.1,2.1,2.4c0.2,0.1,0.5,0.2,0.8,0.2c0.4,0,0.8-0.1,1.1-0.3c1-0.6,0.7-2,0.4-3.2C-167.4,389.8-167.4,389.3-167.4,388.9
	z"/>
<path d="M-239.9,391.5c0.5-3.1,7.8-6.4,10.2-5.8c3.3,0.8,13-0.1,13.2-0.2c0.4,0,0.6-0.2,0.7-0.5c0.1-0.2,0.1-0.5-0.1-0.8
	c-1.8-2-2.7-6-2.7-6.1c-0.1-0.3-0.5-0.6-0.8-0.6c-0.1,0-5.9,0.2-10.2,0.2c-4.7,0-8.2,2.1-11.2,4.3c-3.5,2.5-3,2.5-3,4.9
	c0,0.7-0.2,1.8-0.2,2.8c-0.3,2.2-0.6,4.7,0.4,5.9c0.3,0.4,0.7,0.6,1.1,0.6c0.2,0,0.5-0.1,0.8-0.3
	C-241.1,395.5-240.3,393.9-239.9,391.5z"/>
<path d="M-188,385.7c-0.1-0.1-0.2-0.1-0.5-0.2c-0.2,0-4.8-0.1-7-0.3c-0.2,0-0.5,0-0.6,0.1l-0.7,0.4c-0.2,0.1-0.4,0.4-0.5,0.6
	c0,0.3,0.1,0.5,0.4,0.7c0,0,6.7,4.1,8.1,6.8c0,0,0,0.1,0.1,0.1c1.4,1.6,5.1,6.2,5.7,7.6c0.7,1.8,2.8,16.3,2.8,16.9
	c0,0.2-0.2,1.3-0.4,2.4c-0.5,2.4-0.2,5.5-0.3,8.5c-0.1,3.3,1,5,2.1,5.4c0.2,0.1,0.4,0.1,0.6,0.1c0.5,0,1.1-0.4,1.3-0.8
	c0.4-0.7,0.6-2.4,1.2-5c0.3-1.5,0.5-3.1,0.8-3.8c0.6-1.9,3-5.6,3-8.7c0-2.8-2-16.6-4.1-20.2C-178,393-187.7,385.9-188,385.7z"/>
<path d="M-224.3,394.2l0.1-0.1c1.4-2.6,8.7-7.5,8.7-7.6c0.2-0.2,0.4-0.4,0.4-0.7s-0.1-0.5-0.5-0.6l-0.7-0.4
	c-0.1-0.1-0.4-0.1-0.6-0.1c-2.2,0.2-6.8,0.9-7,1c-0.1,0-0.4,0.1-0.5,0.2c-0.2,0.2-10.7,7.4-12.6,10.9c-2,3.6-4.1,17.4-4.1,20.2
	c0,3.1,2.9,7.6,3.3,9.3c0.2,0.6,0.5,2.1,0.7,3.4c0.4,2.3,0.7,3.8,1,4.5c0.2,0.5,0.7,0.7,1.2,0.7c0.2,0,0.4,0,0.6-0.1
	c0.9-0.4,1.9-1.9,1.8-4.9c-0.1-2.7-0.6-6.6-0.9-9.2c-0.2-1.2,0.1-9,0.1-9.2c0-0.7,2.6-7.8,3.3-9.6
	C-229.4,400.3-225.6,395.8-224.3,394.2z"/>
<path d="M-205.8,362.6c-7.7,0-14,6.2-14,13.7c0,4,1.3,7.2,4.2,9.8c0.5-0.2,1.4,0.1,1.8-0.1c2.4-0.7,4.7-1.1,7.2-1.1
	c3.9,0,7.2,1,9.4,1.8c0.1,0.1,0.2,0.1,0.5,0.2c3.1-2.5,5.2-6.3,5.2-10.6C-191.8,368.8-198,362.6-205.8,362.6z"/>
<ellipse cx="-208.6" cy="361.4" rx="2.9" ry="3.5"/>
<ellipse cx="-202.7" cy="361.4" rx="2.9" ry="3.5"/>
</svg>
