<?xml version="1.0" encoding="utf-8"?>
<!-- Generator: Adobe Illustrator 22.1.0, SVG Export Plug-In . SVG Version: 6.00 Build 0)  -->
<svg version="1.1" id="Layer_1" xmlns="http://www.w3.org/2000/svg" xmlns:xlink="http://www.w3.org/1999/xlink" x="0px" y="0px"
	 viewBox="0 0 100 100" style="enable-background:new 0 0 100 100;" xml:space="preserve">
<style type="text/css">
	.st0{fill:#9D1C1F;}
</style>
<g>
	<path class="st0" d="M80.9,31.3c0.1-0.3,0.2-0.8,0.5-1c-3.5-6.1-6.1-12.8-7.7-19.9c-4.4-2.7-9.3-4.5-14.5-5.6
		c-0.2,1.5-1.5,2.7-3,2.7c-0.3,0-0.7-0.1-1-0.1c-10.6,14-15.4,31.1-14.2,47.9c0.3,0,0.8,0.1,1.2,0.2C52,43.5,65.5,35,80.9,31.3z"/>
	<path class="st0" d="M11.7,51c0-0.1,0-0.1,0-0.2c-2.7-1.6-5.3-3.5-7.7-5.5c-0.1,1.6-0.2,3.1-0.2,4.7c0,2.9,0.2,5.7,0.8,8.3
		c2.7-2,5.1-4,7.4-6.2C11.8,51.7,11.7,51.4,11.7,51z"/>
	<path class="st0" d="M91.4,46c0-0.2-0.1-0.3-0.1-0.6c0-0.5,0.1-0.9,0.3-1.3c-2.7-2.8-5.1-5.9-7.3-9c-0.1,0-0.3,0-0.5,0
		c-1.2,0-2.1-0.6-2.7-1.5c-14.8,3.6-27.8,11.9-37.3,23.1c0.6,0.7,0.9,1.5,1,2.4C61.2,60.2,77.6,55.8,91.4,46z"/>
	<path class="st0" d="M93.4,42.4c0.3-0.1,0.7-0.2,1-0.2c0.5,0,0.8,0.1,1.3,0.2c-0.6-3.7-1.7-7.4-3.1-10.8c-1.8,0.1-3.7,0.3-5.6,0.7
		c-0.1,0.5-0.3,0.9-0.6,1.4C88.5,36.8,90.8,39.7,93.4,42.4z"/>
	<path class="st0" d="M94.4,48.4c-0.7,0-1.3-0.2-1.7-0.6C78.4,58,61.4,62.5,44.8,61.3c-0.5,1.2-1.4,2.1-2.5,2.5
		c0.9,4.9,2.4,9.7,4.5,14.3h0.1c1.3,0,2.4,0.8,2.9,2c9.5,0.6,18.8,3,27.5,7.3c11.4-8.4,19-22.1,19-37.5c0-0.5,0-1,0-1.5
		c-0.1-0.1-0.3-0.2-0.5-0.5C95.3,48.3,94.9,48.4,94.4,48.4z"/>
	<path class="st0" d="M28.4,80.1c2-6.2,4.9-12.1,8.3-17.6c-0.5-0.7-0.8-1.4-0.9-2.3c-6.6-1.3-13.1-3.5-19.2-6.7
		c-0.5,0.3-1.2,0.6-1.7,0.6c-0.5,0-0.9-0.1-1.3-0.3c-2.7,2.5-5.4,5-8.4,7.1c2.3,9.4,7.4,17.7,14.5,23.8c2.1-0.8,4.3-1.5,6.4-2.1
		C26,81.3,27.1,80.2,28.4,80.1z"/>
	<path class="st0" d="M39.8,64.2c-0.5,0-0.8-0.1-1.3-0.3c-3.4,5.1-6,10.8-8,16.7c0.3,0.2,0.6,0.5,0.8,0.8c4.2-0.8,8.3-1.2,12.5-1.3
		c0.1-0.3,0.3-0.6,0.6-0.9C42.4,74.4,40.9,69.3,39.8,64.2z"/>
	<path class="st0" d="M12.8,48.7c0.6-0.5,1.3-0.8,2.1-0.8c0.3,0,0.7,0,0.9,0.1C24.9,37.6,31,24.7,32.9,10.2
		c-0.9-0.5-1.6-1.4-1.7-2.5c-14,6.2-24.3,19.2-26.8,34.8C7.1,44.8,9.9,46.9,12.8,48.7z"/>
	<path class="st0" d="M26.9,85.4c-0.2-0.1-0.3-0.3-0.5-0.6c-1.6,0.5-3.2,0.9-4.9,1.5c1.5,1.2,3,2.2,4.5,3.1
		C26.3,88.2,26.6,86.8,26.9,85.4z"/>
	<path class="st0" d="M47.1,84.5c-0.1,0-0.2,0-0.3,0c-1.4,0-2.4-0.8-2.9-2.1c-4,0.1-8,0.5-11.9,1.3c-0.2,1.4-1.4,2.4-2.8,2.5
		c-0.3,1.5-0.7,3.1-0.9,4.6c6.5,3.5,13.9,5.4,21.9,5.4c1.6,0,3.1-0.1,4.7-0.2C51.7,92.3,49.2,88.5,47.1,84.5z"/>
	<path class="st0" d="M37.4,7.6c0,1.4-0.9,2.5-2.1,2.9c-2,14.9-8.3,28.3-17.7,39.1C17.9,50,18,50.5,18,51c0,0.2,0,0.3,0,0.6
		c5.8,3,12,5.1,18.3,6.4c0.5-1.2,1.4-2.1,2.5-2.5c-1.3-17.3,3.7-35.2,14.8-49.7c-0.2-0.5-0.3-0.9-0.3-1.4c0-0.1,0-0.2,0-0.5
		C52.1,3.8,51,3.8,50,3.8c-4.6,0-9,0.7-13.3,2C37.2,6.2,37.4,6.9,37.4,7.6z"/>
	<path class="st0" d="M74.9,89c-8.1-3.7-16.7-5.9-25.3-6.5c-0.1,0.3-0.3,0.6-0.5,0.8c2.3,4.3,5.1,8.4,8.3,12.3
		C63.8,94.6,69.7,92.3,74.9,89z"/>
	<path class="st0" d="M83.3,28.8c0.2,0,0.3-0.1,0.6-0.1c1,0,2,0.6,2.5,1.3c1.6-0.2,3.4-0.5,5-0.6c-3.5-7.1-8.7-13-15-17.5
		C78,18,80.3,23.6,83.3,28.8z"/>
</g>
</svg>
